<?xml version="1.0" encoding="UTF-8"?>
<svg id="Clubs" xmlns="http://www.w3.org/2000/svg" xmlns:xlink="http://www.w3.org/1999/xlink" viewBox="0 0 197.28 269.28">
  <defs>
    <style>
      .cls-1 {
        fill: #262964;
      }

      .cls-1, .cls-2, .cls-3, .cls-4 {
        stroke-width: 0px;
      }

      .cls-2 {
        fill: #d2232a;
      }

      .cls-3, .cls-5 {
        fill: #000;
      }

      .cls-6 {
        fill: none;
        stroke: #000;
        stroke-miterlimit: 10;
      }

      .cls-4 {
        fill: #e1cf20;
      }

      .cls-5 {
        font-family: ArialMT, Arial;
        font-size: 28px;
      }
    </style>
    <symbol id="Black_J" data-name="Black J" viewBox="0 0 14 33.12">
      <text class="cls-5" transform="translate(0 24.03)"><tspan x="0" y="0">J</tspan></text>
    </symbol>
    <symbol id="Club" viewBox="0 0 30.47 32.54">
      <path id="path147-0-8-1-6-1-1-0-9-1-8" class="cls-3" d="M15.23,0c-6.65.14-9.63,7.63-4.7,13.44.71.85.79,1.33-.52.52C6.69,11.74.34,13.2.01,19.98c-.4,8.35,11.26,10.75,13.45,1.88.12-.94.88-.92.69.41-.2,3.61-1.33,6.98-2.88,10.27h7.9c-1.55-3.29-2.68-6.66-2.88-10.27-.18-1.33.58-1.35.69-.41,2.19,8.88,13.86,6.47,13.45-1.88-.33-6.78-6.68-8.23-10-6.02-1.31.81-1.23.33-.52-.52C24.86,7.63,21.88.14,15.24,0c0,0,0,0,0,0h0Z"/>
    </symbol>
    <symbol id="boundary" viewBox="0 0 181 253">
      <rect class="cls-6" x=".5" y=".5" width="180" height="252" rx="15" ry="15"/>
    </symbol>
  </defs>
  <g id="Club_Symbols" data-name="Club Symbols">
    <g id="Jack_Face" data-name="Jack Face">
      <path id="path3306-4-9-5" class="cls-4" d="M134.3,35.87c.61-.96,3.25,5.74,4.94,10.82.83,2.49,1.94,4.55,1.49,5.21-1.21,1.35-4.33.14-6.6-1.78-2.43-2.05-4.14-5.08-4.14-5.08l4.31-9.17ZM155.59,40.84l.1,3.94c-2.09,2.08-4.69,4.62-7.73,8.49l8.11.05c-.07,48.41.06,145.43.06,145.43,0,0-9.02-10.07-8.8-10.1.01,0-.26-58.62-.29-98.05-.07-.19,4.71-.2,5.02-2.78.2-1.7-5.02-1.47-5.1-1.58.01-17.72-.05-30.24-.05-30.24l-4.79-.17,13.46-14.99ZM127.42,59.08c.7,1.53,1.81,7.41,2.66,7.27,3.9-1.42,5.15,4.92,1.12,5.24-1.53.12-3.23-2.07-4.19-4.8-.46-1.43.01-8.29.41-7.71h0ZM126.54,67.9c1.15,2.07,2.25,9.63,4.35,9.2,1.91-.48,3.14,1.37,2.95,2.99-.98,4.55-7.99.23-9.83-.82.91-2.28,2.2-7.97,2.53-11.37ZM141.33,89.23c-1.6,4-1.17,7.29.19,11.31-4.16,1.96-8.26,4.32-12.37,6.67-.02-.01-.2-15.77,1.16-22.97.47-1.1,2.15-.22,3.13.31,2.63,1.37,5.47,2.91,7.9,4.67h0ZM67.46,161.63c.85,7.45.23,19.04-.97,23.62-.46,1.55-10.11-5.45-10.81-5.93,1.9-3.88-.7-12.9-.41-11.28.67-.52,11.97-7.17,12.19-6.42h0ZM71.61,192.54c-.18.48-.9,6.05-1.13,6.07-.73.07-1.81-5.46-3.67-7.28-3.52.45-3.94-2.18-3.25-3.46-.17-.56,1.14-1.77,2.36-1.66,3.04,1.31,7.13,2.47,5.68,6.32ZM112.03,202.06s-2.65,16.39-2.66,16.37c-6.54,1.04-12.85,2.24-18.69,1.51,1.15-17.04,2.96-31.77,7.94-34.33l-10.3-9.13s-11.44,7.86-10.79,7.74c.28-.08.51-6.69.67-17.36-.29-27.86-14.84-56.07-15.41-55.78-.31-.23,12.4-1.32,21.53,3.01l.41-36.89s-4.53-2.49-5.37-3.64c-1.67-6.42,2.84-8.06,5.54-6.45,1.26-4.88,3.18-16.94,3.25-16.93,6.1-1.11,12.41-1.97,18.65-1.58-1.05,5.67-1.71,9.99-2.05,15.7-.79,8.51-2.37,16.57-6.43,18.49.72-.32,10.16,8.77,10.16,8.77l11.47-7.77c-3.71,26.55,2.63,52.34,13.56,73.2-5.51.7-11.74.37-21.48-2.84,0,0,.55,36.96.55,36.76,10.77,4.68,4.89,13.78-.56,11.17h0ZM70.16,205.37c-.04.38-.2,4.55-.2,4.55-1.52-1.97-2.75-7.75-3.06-7.65,0,0-1.96.34-2.57-.38-1.99-2.33-.03-5.08,1.95-4.57,1.97.56,4.14,4.28,3.87,8.04h0ZM49.92,80.04s.42,65.55.41,98.41c-7.53-.13-6.05,4.48.1,3.99l.02,30.29,4.08.16s-7.67,8.83-12.54,14.47l-.11-2.87,7.4-8.8h-7.67s-.03-145.35-.03-145.35l8.33,9.7ZM62.72,232.3c-1.86.45-3.79-8.99-7.01-14.72,3.66-2.42,9.43,2.18,10.73,5.87-.85,3.13-3.77,8.82-3.72,8.85Z"/>
      <path id="path3304-4-6-6" class="cls-1" d="M157.14,238.14V31.14H40.14v207h117ZM118.36,194.55c-.16-.33-.42-.81-.42-.81,0,0,.28-.08.48-.22,13.56-5.54,28.06-17.87,28.32-18.23v13.65l8.97,10.43v36.99h-35.28l-10.34-19.08c.62-5,2.23-14.68,2.23-14.68.95.25,4.15.58,5.88-2.15.83-1.31,1.27-3.09.15-5.89h0ZM52.26,151.97l-1.34,1.87,2.36-.12-1.62,1.94,2.61.07-2.04,1.91,2.75.04-2.04,1.88,3.01-.15-2.16,2.04h2.98s-2.22,2.04-2.22,2.04l2.91.04-1.89,1.85,2.54.03-2.87,2.23c-1.23-.59-2.87-.93-4.53-.97l-.03-14.98,1.58.28ZM50.2,177.95c-6.71-.03-8.15,3.93-.04,4.56-.15,9.96.37,29.89.37,29.89l4.42.12s-11.85,14.12-12.97,15.26c-1.01-47.45-.97-157.62-.97-157.62l9.05,10,.1,31.15c3.03,3.39,4.77,8.33,6.57,11.53l4.95,2.65-1.16,4.39.5,1.25,1.55-6.21-5.42-2.84-.57-1.28.91-5.85-5.13-1.94-.89-1.35.32-5.72-1.08-.36v-1.13l1.07.1.38-6.42-1.45-.47v-1.45s.85,0,1.26.03c.57.34,1.51,1.69,1.51,1.69l-.51,7.13,6.5,1.44.48.75-1.2,7.12,6.82,2.3c-.7-1.9-1.63-3.68-2.4-5.55.94-.3,1.92-.37,2.86-.59.26-9.62-.04-19.64.23-28.69,5.49-.44,2.91.14,5.3.1.93,0,1.69-.84,1.69-1.87,0-.66-.31-1.24-.78-1.57l.95-.37,1.65,2.07-3.46,3.66.02,1.05,4.29-4.74-1.86-2.37,1.11-.63,1.7,1.97s3.65-4.12,3.42-4.2c-.11-.04-.32-.25-.45-.46-2.6-6.19.95-9.15,5.23-7.44,1.09-5.7,2.13-10.84,2.99-16.75,3.2-1.34,18.27-2.11,18.44-1.8,0,0,.38.4.4.6-.07.26.43-.55.43-.55,0-.35,13.13.36,19.61,1.72,0,0,.13.69.08,1.59-.11,1.81.02,1.8-1.48,1.53-3.05-.23-5.42.93-6.37,3.9-.53,1.66-.28,3.16.53,7.6.78,4.32.79,3.85.7,4.43-.11.68-.78,1.45-1.74,2.31-.73.65-.8,1.88-.21,1.2.4-.65,1.11-.88,1.74-1.24,1.49-.86,1.44-1.69.56-5.23-.41-1.66-.84-3.46-.86-3.66-.04-.65.17-.39,1.05.29.57.46,1.22.84,1.8,1.21,1.78,1.05.99-.1-.72-1.36-1.35-1.1-1.57-1.58-.41-1.05,1.2.54,2.92.31,4.26-.25.26-.16.46-.14.5.12.06.42-.17,1.46-.27,3.87-.25,6.09-1.55,12.58-5.22,16.33-5.26,5.37-13.89,1.73-18.68-3.25l-.52.87c3.22,2.98,8.79,6.7,14.22,5.97-2.27,2.09-7.28,5.55-7.28,5.55-3.43-2.75-5.97-5.49-9.74-8.47l-.66.48,10.37,9.07,11.17-8.13s-.46,7.8-.64,10.65l4.85-4.73-3.74-6.11,3.96-4.5s-.67.1.06-1.28c1.12-2.5,1.79-6.52,2.3-10.6-.1-3.05.58-6.43.79-9.11.37,2.52.8,3.84,1.64,6.12.78,2.2,1.08,2.18,1.95,1.86,4.74-.44,2.59,9.65-3.01,3.05-.25-.28-.65-.62-.67-.56-.12.4,1.49,5.72,2.11,6.95.66,1.29.66,1.48,1.63,1.37,1.82-.21,2.44.51,2.62,2.63-.24,4-4.17,2.31-6.68,1.08-.23-.19,1.18,1.41,1.68,1.98.68.77.79,1.26.79,1.26l-.15,2.12-3.84,3.87,3.16,5.15-.13,1.84-3.38,4.47,3.6,4.31.04,1.54-2.93,4.3,3.92,3.47.19,1.38s-2.52,5.14-2.45,5.33c.06.16,4.25,3.35,4.25,3.35l.42,2.16-1.82,5.49,4.36,2.75.8,2.48-1.23,5.08,4.52,2.3,1.29,2.86-.84,5.34,5.06,1.65,1.34,2.35-.18,4.7,1.24.14-.02,1.16h-1.38s.11.16-.04,2.48c-.26,3.95-.28,3.79.57,3.96,1.8.34,1.39,1.56-.45,1.34-.28-.03-.52-.06-.72-.1-.48-.1-.86-.79-.86-.79l.4-7.29-6.48-1.19-.61-.92,1.08-6.75-6.08-1.94-.82-1.64,1.72-7.02-6.13-2.97-.4-1.3,2.6-6.23-5.63-3.02-.35-1.49,3.13-6.43-6.49-5.21s.17.51.43,1.36l5.15,4.06-2.61,5.49s-.21-.4-.43-.32c.13.92.23,1.84.29,2.74l2.66,7.64-8.59,6.38c3.68,2.45,8.33,2.37,12.59,3.28,0,0,.19.66.51,1.24,1.24,2.2,2.36,4.99,3.74,7.87-1.02.53-1.46.46-2.56.7-1.52,9.4-3.02,20.21-5.43,28.38-1.05,0-1.91.95-1.91,2.11,0,.64.26,1.2.66,1.59-.24.07-.49.15-.75.22-.35,0-1.76-1.71-1.76-1.71l3.62-3.94.02-1.3c-1.45,1.66-4.62,5.25-4.62,5.25l1.91,2.22-.95.49-1.55-1.88-3.48,3.95-.89-.67c1.17-1.7,1.94-2.25,3.69-4.26-.92-1.2-4.47-4.97-4.47-4.97v1.3s3.51,3.74,3.51,3.74l-3.4,3.75-.2.25s-2.7-1.29-2.87-1.29c1.15,1.04,3.21,1.94,4.33,2.84,5.08,3.3.25,10.14-4.43,8.44-.13-.55-2.58,14.42-2.31,15.25-.25,2.32-.3,1.99.43,3.32,2.18,5.54,8.54,16.04,8.54,16.04l-57.23.4c.6-1.28,1.2-2.32,1.65-3.82,0,0-3.22-3.7-4.39-8.56-.66-2.71-1.6-5.25-3.25-7.06-.03-.06.06-.15.16-.22,4.53-1.76,9.68,2.5,11.27,7.36l2.6-4.67c-1.17-.15,17.28,2.31,21.81,1.69-.4-.09-.87-.45-.61-1.86.46-2.42,1.28-11.15,1.28-11.15.91-8.5,1.61-19.18,6.69-22.71,0,0-.78-.91-1.45-1.38-.02.01.6.7.62.78,0,.25-.13.4-.28.53-1.08.96-2.39,2.96-2.34,3.01-4.19-4.02-10.76-7.48-14.71-6.04-1.56.36-2.25,2.02-3.08.67,1.07-7.31,1-15.36.58-21.67-.65-14.08-3.46-22.15-6.26-32.13,1.44-.56,8.8-6.01,8.8-6.01.04-.69-8.89-2.96-12.39-2.55,0,0-.72-.78-.72-.61.02.04.05.1.07.15-.52.32-.87.93-.87,1.64,0,1.03.75,1.87,1.69,1.87.18,0,.35-.03.5-.08.44,1.19.82,2.23.82,2.23l-4.96-2.38,1.62-5.99-.54-1.33-1.97,7.8,6.33,2.99.43,1.38-2.63,5.92,5.66,3.7.24,1.18-3.05,6.35,5.48,4.65-4.01,5.72,4.94,4.58-.06.76-4.09,5.2,4.23,4.8.12,1.94-4.61,4.52,3.98,6.38c-1.66,1.23-2.59,2.63-3.67,4.03l-.97-.47,3.53-2.96-3.78-6.02-3.98,3.97,2.16,3.89-1.32-.66-1.21-2.08.2-2.13,3.93-3.95-3.38-5.41-.03-.99s2.1-2.67,3.63-4.65l-4.29-5.22,3.51-4.94-4.41-4.14.12,1.24,3.25,3.03-2.5,3.34c-.18,2.01.22,5.47-.71,6.98,1.51,1.63.72,5.55-.02,6.82,1.44,1.88.62,6.01-.3,6.18,1.1,1.52.66,4.6-.26,5.6-.29.17,3.92,1.85,6.58,3.87-2.21,4.54-1.7,8.82-2.39,10.36-.96-3.05-2.18-6.29-3.24-8.63-.11-.24-.35-.19-.7-.19-4.4-.43-3.98-4.43-.68-5.46,0,0-6.7-5.51-10.1-6.12-.04-.1-.01-.23.1-.49.48-1.1.76-3,.83-4.68.24-2.49-.85-6.31-.85-6.31l1.39-.95c.28-1.32,1.83-1.34,1.98-2.28-.33-4.03-7.45-19.44-8.96-21.18-.57,11,.52,22.94-.03,33.92h0ZM51.83,149.9l-1.15,1.05.03-1.66,1.13.62ZM50.7,147.35l.58.48-.59.72v-1.2ZM122.33,127.72c-.11-.76-.24-1.51-.38-2.25.82-.24,1.42-1.06,1.42-2.04,0-1.16-.86-2.11-1.91-2.11-.15,0-.29.02-.44.06-.3-1.16-.59-2.16-.81-2.9l-.39-.31c1.04,4.01-.98,6.17,2.01,9.5.04.17.26.12.49.03h0ZM60.61,236.48l-18.63-.13v-7.59l14.35-16.84-5.53-.08.06-28.89c1.52-.7,2.96-1.77,4.36-2.82l8.73,5.33.63.35s-.24.08-.75.45c-.99.71-1.36,2.47-.92,3.79.73,2.16,2.25,1.77,3.51,1.77,1.05.89,1.94,3.88,2.68,5.88.34.87.67,1.53.75,2.03.08.46.08.87.08.87,0,0-.17-.06-.42-.62-1.39-3.23-4.64-4.8-6.37-1.74-.87,1.87-.27,4.02,1.2,4.61.45.18,1.98-.01,1.98-.01.09-.06,1.11,1.59,2.55,7,.59,2.23.75,7.08.18,7.78-.95,1.28-1.2,3.07-2.01,4.36-.37.81-.35.3-.92-.6-1.96-3.08-5.41-5.47-8.56-5.32-2.24.11-2.93.95-2.4,1.66,1.23,1.39,2.03,3.33,2.44,5.03.94,3.96,1.93,7.5,4.46,10.58l-1.45,3.13ZM70.07,217.66c-.24-.25-.05-.62,0-1.31.11-1.74.14-1.76,1.05-1.32,1.74.84,4.19.11,5.67-1.67,1.87-2.23,1.93-4.53.76-9.07-1.33-5.11-1.3-5.78.3-6.83.96-.9,1.94-2.79,1.58-2.79-.05,0-.18.11-.29.25-.11.14-.99.92-1.66,1.43-1.85,1.4-2.43,2.11-1.58,4.7.84,2.55,1.52,5.04,1.17,5.2-.17.07-.81-.76-1.2-1.01-.81-.51-2.52-1.46-2.73-1.46-.29,0,.02.23.85.84,2.23,1.62,3.14,3.08.99,2.15-1.15-.5-2.37-.21-3.06.04-.8.29-1.22.58-1.31.25-.12-1.57,0-3.19.08-4.77.03-.1.13-1.18.24-2.39.41-4.59,1.12-8.47,2.95-10.96,6.12-8.34,13.08-5.91,20.91.77-2.92,8.92-2.72,15.88-3.44,18.71-.68.22-1.47-.21-1.96-.52-1.09-.68-2.33-1.1-3.52-1.17-1.11-.07-1.3.11-1.2-.26.08-.28,1.86-.86,2.96-1.11,1.99-.46,1.84-.97.17-.8-1.76.18-3.47.95-5.27,2.27-1.25.92-1.3.92-.96,2.07.08.28.25.69-.35.93-.62.25-.53.53-.18.84.09.08.31.09.4.17.11.1,0,.53,0,.59,2.28,2.13,6.29,2.18,9.59,0,.16.07.34.35.18.74-.35.84-3.9,1.84-6.42,1.89-1.15.02-1.37-.14-3.11-.72-.71-.24-1.11-.3-1.17-.18-.15.27.11,1.08.66,1.51,1.85,1.46,4.54,1.35,8.21-.26,1.97-.86,1.76-1.16,1.13,3.13-.18,1.19-.38,2.1-.38,2.1,0,0-17.19-.68-20.02-1.97ZM72.71,213.64c-.91,0-1.74-.26-2.22-.78-.71-.86.04-1.13,1.16-.66,1.44.6,3.08.26,4.35-.61.81-.56.99-.26.3.54-.83.97-2.26,1.52-3.59,1.51ZM85.79,212.15c-1.59.01-3.04-.3-3.63-1.04-.54-.67-.02-.74,1.34-.16,1.92.83,4.47.57,6.58-.59,1.08-.59,1.42-.71,1.27-.04-.64,1.1-3.24,1.81-5.55,1.83ZM73.11,211.6c-1.51,0-2.79-.39-2.56-1.26.09-.31.16-.12,1.24.24,1.08.37,2.46.23,3.84-.22,1.29-.42,1.54-.51.96.11-.71.75-2.16,1.13-3.49,1.12ZM70.03,210.76c-1.53-2.6-1.8-6.42-3.43-8.48-3.01.62-4.44-2.51-1.9-4.59,1.29-.79,2.86-.19,4.01,1.89,1.1,1.99,1.4,3.19,1.44,4.45-.1,2.65.04,4.07-.12,6.73ZM87.66,209.57l-.67-.09c-.48-1.81-1.57-1.92-2.22-.02l-.5-.09c.77-2.33,2.69-2.42,3.39.2ZM88.69,209.54c-.28.02-.51-.31-.63-.73-.26-.96.04-.84.64-.43.61.41,1.08.68.73.85-.26.16-.47.26-.74.32ZM82.96,208.92c-.23-.32-.28-.56.01-.79.29-.17.5-.27.78-.39.27-.09.43-.02.32.41-.07.37-.28.89-.44,1.09-.26.05-.54-.15-.68-.33ZM74.88,209.14l-.53-.04c-.55-1.66-1.85-1.61-2.35-.17h-.47c.89-2.56,2.71-2.1,3.35.21ZM75.83,208.92c-.51,0-1-.8-.72-1.22.28-.26,1.53.04,1.64.55.04.31-.41.67-.92.67ZM70.94,208.76c-.24-.06-.23-.27-.23-.3-.13-.68.61-.91.77-.66.09.14-.3.68-.54.96ZM82.58,201.51c1.24-.38,1.81-1.56,1.74-2.88-.06-1.07-.56-1.93-1.3-2.12-1.48-.37-2.5.77-4.01,1.23-.65.19-.5,1.12-.08,1.52.54.52,1.36.19,2.46-.74,2.16-1.83,2.69,1.69.71,2.31-.31.1-.17.87.48.68ZM146.59,120.51l-.84-.27.84-1.1s0,.95,0,1.37h0ZM144.25,116.75l1.73-2.15-2.36.2,1.6-1.83-2.45-.11,1.8-2.06-2.41.05,1.78-1.99-2.27-.07,1.5-1.82-2.5.21,1.83-2.17-2.68.05,2.03-2.03-2.67.02.8-1.01-.71-.39c-.73.37-4.92,1.81-5.06,2.9.93.27,3.65-1.26,3.83-1,1.09,5.32,5.81,17.09,8.92,20.52l.22-33.26c.48-.49,1.23-.25,1.72-.46,1.58.09,4.21-2.82,2.83-3.39-.72-.18-4.7-.93-4.72-1.15-.49-9.64.3-19.33-.06-29.62-1.11-.18-4.76-.41-4.76-.41,0,0,13.36-15.39,13.62-15.08-.31,16.49-.15,48.73.11,48.85,0,.97-.31,3-.31,3l.29,102.56s.08.46.24.75c.27.5.29.63.31,2.17.11.95-.02,1.2-.02,1.2h0l-9.14-10.65v-29.81s-8.66-14.1-10.65-20.61c-4.37-9.69-3.89-23.82-6.54-29.23-.06,0-.11,0-.16,0-.06-.79-.07-1.1-.18-1.23-.2-1.76-.41-4.17-.41-4.17l.96-1.68-1.07-1.51v-4.03s1.42-1.6,1.42-1.6l-1.3-1.82.36-3.76,1.02-1-.58-.86s-.1-1.35.13-2.91c.16-1.05,1.1-.91,3.05.19,2.77,1.16,5.61,3.24,7.8,4.8-.13,1.96-2.33,6.42.73,11.34,1.13.93,4.41.59,4.7.73l-.03,15.16M146.56,118.35l-1.48.29,1.49-1.65v1.36ZM76.13,194.04c.12-.02.27-.14.47-.38.2-.25.53-.19,1.36-.13.89.06,1.12.03,1.7-.2.67-.27.68-.27,1.15-.05.72.34,1.18.38,1.84.17.82-.26,1.33-.19,1.84.09.51.28.67.22.85-.29.07-.21.44-1.05.6-1.33.55-.92.41-1.07-.73-.69-.79.27-2.23.44-3.31-.06-.82-.37-1.79-.25-2.96.31-1.02.49-2.03.65-3.01-.26-.57-.53-.54-.13-.39.97.16,1.23.28,1.9.59,1.86ZM114.91,190.17c1.05,0,1.91-.94,1.91-2.1s-.86-2.11-1.91-2.11c-.5.46-.76,4.13,0,4.21ZM78.05,190.15c1.16-.44,2.76-1.02,4.56-.44,1.41.48,1.07-.7-.46-.84-1.07-.1-.99-.1-.16-.96.7-.72-.18-.67-.66-.22-.57.53-2.1.39-2.97-.04-.38-.19-.42.6.03.78,1.14.44.87.47-.38.92-.46.12-.48,1,.04.81h0ZM114.91,189.46c-.6-.25-.23-2.69,0-2.8.7,0,1.27.63,1.27,1.4s-.57,1.4-1.27,1.4ZM125.1,189.38c-.49.18-.83-.71-.83-1.31,0-.77.57-1.4,1.27-1.4.86.92,1.01,1.95.02,2.53-.14.06-.3.12-.46.18h0ZM120.08,187.31l4.08-4.55-4-4.48-4.01,4.58,3.93,4.45ZM71.76,185.51c-.58,0-1.06-.53-1.06-1.17s.47-1.17,1.06-1.17,1.06.52,1.06,1.17-.48,1.17-1.06,1.17ZM120.11,183.98c-.58,0-1.06-.53-1.06-1.17s.47-1.17,1.06-1.17,1.06.52,1.06,1.17-.47,1.17-1.06,1.17ZM76.75,182.86l-2.92-4.34,3.58-3.55-.18,2.2c-.79.16-1.39.92-1.39,1.84,0,.8.45,1.47,1.09,1.74l-.18,2.1ZM125.41,182.62l.04-1.18-3.68-4.03,3.64-4.18-.03-1.16-4.54,5.33,4.56,5.21ZM115.01,182.62l4.5-5.1-4.34-5.24-.06,1.33,3.41,3.89-3.48,3.81-.04,1.31ZM50.05,181.8c-.92,0-1.7-.33-1.94-.99-.19-.37-.29-.69-.56-.83-.53-.27-1.26-.08-1.3.11-.06,0,.85.1,1.01.25.72.71.6,1.16-.42,1.07-.33-.02-1.24-.03-1.26-.43-.2-1.36,1.44-2.36,3.54-2.18,1.5.27,1.51-.36,1.61-1.25.07-.29.3-.76.48-1.13.53-1.05.7-.9.34-1.31-.36-.52-.82-1.16-.82-1.76l.02-5.53s3.14.02,4.24.89c1.14,2.3,1.92,7.27.24,10-.59.82-1.45,1.21-2.44,2.07-.76.67-1.82.99-2.73,1ZM67.82,181.18l.11-1.6c.8-.15,1.41-.91,1.41-1.84,0-.82-.48-1.51-1.15-1.77l.1-1.39,2.33,3.69-2.81,2.89ZM76.98,180.1c-.34-.21-.58-.62-.58-1.08,0-.55.32-1.02.77-1.18l-.19,2.26ZM125.62,179.52c1.61-.93,1.06-4.51,0-4.21-1.05,0-1.91.95-1.91,2.11s.85,2.1,1.91,2.1ZM115.09,179.47c1.05,0,1.91-.94,1.91-2.1s-.86-2.11-1.91-2.11c-1.4.49-.61,4.14,0,4.21ZM67.99,178.93l.17-2.3c.37.2.63.63.63,1.11,0,.56-.33,1.03-.79,1.19ZM125.62,178.81c-.7,0-1.27-.63-1.27-1.4s.57-1.4,1.27-1.4c.42-.09.68,2.56,0,2.8ZM115.09,178.76c-.85-.08-.14-2.46,0-2.8.7,0,1.27.63,1.27,1.4s-.57,1.4-1.27,1.4ZM72.29,177.43l4.21-4.63-4.16-5.06-3.46,4.64,3.41,5.05ZM120.18,176.55l4.04-4.59-3.82-4.35-4.03,4.69,3.81,4.25ZM146.74,174.04l-1.5-1.73,1.5-.02v1.74ZM72.62,173.86c-.58,0-1.06-.53-1.06-1.17s.47-1.17,1.06-1.17,1.06.52,1.06,1.17-.47,1.17-1.06,1.17ZM120.2,173.23c-.58,0-1.06-.52-1.06-1.17s.48-1.17,1.06-1.17,1.06.53,1.06,1.17-.47,1.17-1.06,1.17ZM114.98,171.87l4.46-5.09-4.31-5.07-.06,1.2,3.45,3.84-3.5,3.96-.04,1.16ZM125.47,171.86l-.04-1.29-3.58-3.92,3.77-4.18-.15-1.12-4.63,5.28,4.64,5.23ZM77.3,170.46l-3.23-3.55,3.22-3.96v2.06c-.66.25-1.14.95-1.14,1.77s.48,1.51,1.14,1.76v1.92ZM68.39,170.28l-.03-1.45c.73-.21,1.26-.94,1.26-1.8s-.58-1.65-1.35-1.83l-.03-1.15,2.56,3.11-2.41,3.12ZM143.06,169.63s-1.08-1.27-1.44-1.79c.29-.37.46-.84.46-1.37,0-1.16-.86-2.11-1.91-2.11-.3,0-.59.08-.84.22-.2-.32-1.06-1.64-1.06-1.64l5.08.9-.29,5.78ZM115,168.79c1.05,0,1.91-.94,1.91-2.1s-.86-2.11-1.91-2.11c-1.92.43-1.54,4.11,0,4.21ZM125.64,168.71c2.72-.33,2.01-4.15,0-4.21-1.05,0-1.91.95-1.91,2.11s.85,2.1,1.91,2.1ZM68.34,168.18l-.06-2.34c.45.16.77.63.77,1.18s-.29.97-.71,1.16h0ZM115,168.08c-1.23-.5-.86-2.9,0-2.8.7,0,1.27.63,1.27,1.4s-.57,1.4-1.27,1.4ZM125.64,168c-.7,0-1.27-.63-1.27-1.4s.57-1.4,1.27-1.4c1.8.24,1.35,2.76,0,2.8ZM77.29,167.87c-.34-.21-.58-.62-.58-1.08s.23-.87.57-1.09v2.17ZM141.22,167.27l-1.49-2.11c.14-.06.28-.09.44-.09.7,0,1.27.63,1.27,1.4,0,.3-.08.57-.22.79h0ZM72.48,166.31l3.49-4.63-4.29-4.2-3.04,4.16,3.84,4.67ZM120.16,165.75l4.28-4.8-3.02-3.47,1.67.2,2.42,2.72.06-.9-1.32-1.66,1.4.05c.51-.87-2.66-.9-4.45-1.23-2.27-.42-7.22-2.43-6.13-.96l1.25.35-1.18,1.56v1.18s2.05-2.41,2.05-2.41l.69.18-2.89,3.29.19,1,3.55-4.01,1.03.26-3.61,4.06,4,4.58ZM72.3,162.99c-.58,0-1.06-.52-1.06-1.17s.47-1.17,1.06-1.17,1.06.52,1.06,1.17-.48,1.17-1.06,1.17ZM120.31,162.39c-.58,0-1.06-.52-1.06-1.17s.47-1.17,1.06-1.17,1.06.52,1.06,1.17-.47,1.17-1.06,1.17ZM144.28,162.05s.27-3.84.43-5.69l-5.53-1.63-.69,6.13,5.79,1.19ZM146.69,161.76l-.77-.03.13-3.57.75.88-.11,2.72ZM136.46,160.21s-.56-.99-1.19-2.07c.34-.38.55-.9.55-1.48,0-1.16-.86-2.11-1.91-2.11-.19,0-.38.03-.56.09-.25-.52-.71-1.34-.71-1.34l4.74,1.53-.92,5.38ZM77.12,159.82l-3.72-3.34,2.89-3.93.19,1.69c-.65.26-1.12.95-1.12,1.76,0,.97.67,1.77,1.53,1.86l.22,1.97ZM141.48,159.76c-.58,0-1.06-.52-1.06-1.17s.47-1.17,1.06-1.17,1.06.53,1.06,1.17-.48,1.17-1.06,1.17ZM67.12,159.39c.93,0,1.7-.83,1.7-1.86s-.76-1.87-1.7-1.87c-.37-.3-.47,3.21,0,3.74ZM67.12,158.76c-.1-.56-.22-2.62,0-2.49.62,0,1.13.56,1.13,1.25s-.51,1.24-1.13,1.24ZM134.91,157.52c-.42-.74-.86-1.53-1.23-2.25.08-.02.15-.02.23-.02.7,0,1.27.63,1.27,1.4,0,.33-.1.63-.27.87ZM76.82,157.2c-.51-.12-.89-.61-.89-1.21,0-.49.26-.91.63-1.11l.27,2.33ZM71.78,156.11l3.14-4.66-4.77-4.11-2.7,5.09,4.33,3.67ZM143.54,154.21l-3.55-1.15.67-4.02c.06.23.25.66.52,1.16-.15.3-.24.65-.24,1.02,0,1.16.85,2.1,1.91,2.1.05,0,.1,0,.15,0,.32.52.55.88.55.88ZM138.28,153.24l1.16-6.4-5.35-2.38-1.3,6.76,5.49,2.01ZM71.18,153.19c-.58,0-1.06-.52-1.06-1.17s.47-1.17,1.06-1.17,1.06.52,1.06,1.17-.48,1.17-1.06,1.17ZM142.55,152.6c-.56-.15-.97-.7-.97-1.36,0-.09.01-.17.02-.26.31.54.64,1.11.95,1.62ZM66.64,152.42l2.87-5.96-4.87-3.76.33,1.27,3.49,2.82-2.03,4.1.21,1.52ZM135.9,150.27c-.58,0-1.06-.53-1.06-1.17s.47-1.17,1.06-1.17,1.06.52,1.06,1.17-.47,1.17-1.06,1.17ZM130.86,149.67l-1.14-2.18c.47-.38.77-1,.77-1.69,0-1.16-.86-2.11-1.91-2.11-.16,0-.31.02-.46.06l-.82-1.93,4.96,2.4-1.41,5.44ZM65.53,149.65c.44.11.87-.2,1.18-.52.32-.34.52-.82.52-1.34,0-1.03-.76-1.87-1.69-1.87-1.28.34-.59,3.59,0,3.74ZM75.8,149.14l-4.03-3.18,2.36-5.02s.24,1.01.54,2.38c-.57.3-.97.94-.97,1.69,0,1.03.76,1.87,1.69,1.87,0,0,.01,0,.02,0,.16.82.3,1.61.4,2.27ZM65.53,149.03c-.7-.24-.46-2.41,0-2.49.61-.11,1.13.56,1.13,1.24s-.5,1.24-1.13,1.24ZM129.44,146.83l-1.03-2.42c.06,0,.12-.02.18-.02.7,0,1.27.63,1.27,1.4,0,.41-.16.78-.41,1.03ZM75.27,146.24c-.57-.06-1.02-.59-1.02-1.24,0-.45.22-.84.54-1.06.16.72.32,1.51.48,2.3h0ZM69.95,145.6l2.76-6.03-5.11-3.44-2.35,5.83,4.69,3.63ZM138.32,144.44l-3.15-1.58.89-3.58.38.88c-.19.33-.3.71-.3,1.12,0,1.09.75,1.98,1.7,2.09l.47,1.07ZM133.35,142.74l1.54-6.03-4.91-2.82-2.24,6.07,5.6,2.78ZM137.48,142.52c-.41-.23-.69-.7-.69-1.25,0-.1.01-.19.03-.28l.67,1.53ZM69.04,142.03c-.58,0-1.06-.53-1.06-1.17s.48-1.17,1.06-1.17,1.06.52,1.06,1.17-.47,1.17-1.06,1.17ZM64.38,141.7l2.34-6.31-5.38-3.27.4,1.15,3.97,2.53-1.7,4.57.36,1.34ZM131.38,139.6c-.58,0-1.06-.52-1.06-1.17s.47-1.17,1.06-1.17,1.06.52,1.06,1.17-.47,1.17-1.06,1.17ZM62.69,138.66c.93,0,1.69-.84,1.69-1.87s-.76-1.91-1.69-1.87c-1.7.04-.83,3.75,0,3.74ZM126.12,138.45c-.32-.64-.56-1.31-.78-2,.51-.38.84-1.02.84-1.74,0-1.12-.8-2.04-1.8-2.1-.04,0-.21-.03-.21-.03l-.3-1.27,4.22,2.44c-.59,1.75-1.1,2.97-1.96,4.71ZM62.69,138.04c-.49-.23-.63-2.42,0-2.49.62,0,1.13.56,1.13,1.24s-.5,1.24-1.13,1.24ZM73.1,137.31l-4.15-2.62,2.08-4.96.62,2.27c-.45.34-.74.9-.74,1.54,0,1.02.75,1.86,1.67,1.87l.52,1.9ZM125.11,135.75l-.66-2.43c.67.04,1.08.63,1.08,1.38,0,.41-.17.78-.42,1.04ZM72.4,134.77c-.53-.1-.93-.61-.93-1.22,0-.36.13-.68.35-.9l.58,2.12ZM134.31,134.61l-3.21-2.07,1.45-4.13.42,1.49c-.29.37-.46.85-.46,1.37,0,.98.61,1.8,1.43,2.04l.37,1.3ZM67.32,134.52l1.94-5.75-5.63-3.26-1.41,5.89,5.09,3.13ZM133.69,132.41c-.33-.25-.54-.67-.54-1.15,0-.17.03-.33.08-.48l.46,1.63ZM129.49,132.13l2.28-5.84-4.75-3.45-2.47,6.09,4.94,3.21ZM65.56,131.18c-.58,0-1.06-.52-1.06-1.17s.47-1.17,1.06-1.17,1.06.52,1.06,1.17-.47,1.17-1.06,1.17ZM59.99,128.61c.47-.34.75-.99.75-1.65,0-1.03-.76-1.87-1.69-1.87-.21,0-.4.03-.56.07-.49.72.2,3.48,1.5,3.45ZM128.07,128.78c-.58,0-1.06-.52-1.06-1.17s.47-1.17,1.06-1.17,1.06.53,1.06,1.17-.47,1.17-1.06,1.17ZM58.8,125.77c.07-.04.15-.06.25-.06.62.03,1.13.56,1.13,1.24,0,.39-.16.74-.42.97-.97.8-1.11-2.32-.96-2.16ZM121.81,124.78c-.19-.96-.41-1.87-.62-2.71.09-.02.17-.03.27-.03.7,0,1.27.63,1.27,1.4,0,.64-.39,1.18-.92,1.35ZM62.84,124.09l1.47-6.47-5.63-2.26-1.08,6.12,5.24,2.61ZM131.48,124.01l-2.99-2.28s.97-2.57,1.78-3.94l.23,1.19c-.49.38-.82,1.01-.82,1.73,0,1.03.67,1.89,1.55,2.07l.24,1.23ZM68.3,123.7c-.62,0-1.12-.55-1.12-1.24,0-.45.12-.64.45-.85.25.61.59,1.22.89,2.05-.09.03-.12.05-.22.05ZM131.09,121.99c-.45-.22-.76-.71-.76-1.28,0-.36.13-.7.33-.95l.43,2.23ZM126.61,121.04l2.71-5.2-3.98-3.36-3.11,5.2,4.38,3.36ZM60.95,120.87c-.58,0-1.06-.53-1.06-1.17s.47-1.17,1.06-1.17,1.06.52,1.06,1.17-.48,1.17-1.06,1.17ZM56.08,119.25l-.69-1.18c.22-.31.35-.7.35-1.12,0-1.03-.76-1.87-1.7-1.87-.13,0-.25.01-.37.04l-.56-.95,3.53,1.4-.56,3.69ZM125.79,117.86c-.58,0-1.06-.52-1.06-1.17s.47-1.17,1.06-1.17,1.06.52,1.06,1.17-.48,1.17-1.06,1.17ZM55.05,117.49l-1.04-1.79s.02,0,.03,0c.99.02,1.4.92,1.01,1.79ZM120.72,117.41l3.84-5.62-5.1-4.17.08,1.24,3.72,2.94-2.83,4.16.28,1.45ZM64.62,115.51l-5.07-1.76,1.08-5.55,1.2,2.19c-.33.34-.53.82-.53,1.35,0,1.03.75,1.87,1.69,1.87.19,0,.37-.04.54-.1l1.09,1.99ZM119.87,114.54c.96-.11,1.72-1,1.72-2.09,0-1.16-.86-2.11-1.91-2.11-.49-.06-.56.76,0,.71.7,0,1.27.63,1.27,1.4s-.53,1.35-1.19,1.4l.09.7s.01,0,.02,0ZM57.73,113.94l.88-6.42-5.74-1.35-.43,5.83,5.29,1.95ZM129.56,113.79l-2.71-2.21,2.06-3.18.11.91c-.49.38-.81,1.01-.81,1.73,0,.91.53,1.68,1.26,1.98l.09.78ZM62.99,112.99c-.62,0-1.12-.56-1.12-1.24,0-.31.1-.58.27-.8l1.1,2.01c-.08.02-.16.03-.24.03ZM81.12,112.12c-.15-.04-.37-.08-.32-.17.05-.1.96-1.22.96-1.22l-.1-1.04-1.63,2.04-.66-.27,2.29-2.57.11-.96-3.05,3.31-1.3-.4,3.55-3.85-4.09-4.57-4.09,4.6,2.91,3.5-1.44-.15c-.61-.76-1.27-1.98-2.39-2.62l.11.92c.06-.04,1.35,1.34,1.15,1.57l-1.14-.09c-1.34.4,1.64.94,4.52,1.48,1.49.07,5.84,2.18,4.81.56-.06-.03-.13-.05-.19-.07h0ZM129.37,112.16c-.31-.25-.52-.66-.52-1.12,0-.33.1-.63.28-.87l.24,2ZM55.63,111.04c-.58,0-1.06-.52-1.06-1.17s.47-1.17,1.06-1.17,1.06.52,1.06,1.17-.47,1.17-1.06,1.17ZM125.14,110.93l3.3-4.63-3.74-3.96-3.83,4.96,4.27,3.64ZM50.98,109.74l-.26-.05v-3.16l.41.1-.15,3.11ZM76.76,108.27c-.58,0-1.06-.52-1.06-1.17s.47-1.17,1.06-1.17,1.06.52,1.06,1.17-.48,1.17-1.06,1.17ZM124.63,107.94c-.58,0-1.06-.53-1.06-1.17s.47-1.17,1.06-1.17,1.06.52,1.06,1.17-.47,1.17-1.06,1.17ZM119.53,107.02l4.27-5.61-4.58-5.22v1.17s3.57,4.12,3.57,4.12l-3.33,4.29.08,1.26ZM71.83,106.51l4.39-4.9-4.38-5.01-.1,1.12,3.38,3.76-3.16,3.61-.12,1.41ZM81.48,106v-1.33s-2.76-3.09-2.76-3.09l2.82-3.18-.02-1.35-4,4.55,3.96,4.4ZM58.99,105.42l-5.17-1.08.32-5.39,1.24,1.66c-.21.31-.34.7-.34,1.12,0,1.03.76,1.86,1.69,1.86.27,0,.52-.07.74-.19l1.51,2.02ZM128.69,104.46l-2.55-2.96,2.44-3.04.02,1.03c-.68.32-1.15,1.07-1.15,1.94s.51,1.66,1.23,1.96l.02,1.06ZM119.23,103.71c.85-.21,1.48-1.05,1.48-2.05s-.63-1.84-1.48-2.06v.74c.49.19.84.71.84,1.32s-.35,1.12-.84,1.32v.74ZM81.76,103.51c.78-.57.43-3.79,0-3.74-.93,0-1.69.84-1.69,1.87s.75,1.87,1.69,1.87ZM71.75,103.21c.93,0,1.69-.84,1.69-1.87s-.76-1.87-1.69-1.87c-.74.27-.44,3.55,0,3.74ZM56.74,102.97c-.62,0-1.13-.55-1.13-1.24,0-.22.06-.44.15-.62l1.34,1.79c-.11.04-.24.06-.37.06ZM81.76,102.89c-.62,0-1.12-.56-1.12-1.24s.5-1.24,1.12-1.24c-.06.44.21,2.54,0,2.49ZM128.65,102.6c-.35-.25-.57-.68-.57-1.17s.21-.89.53-1.14l.04,2.31ZM71.75,102.58c-.14-.5-.32-2.57,0-2.49.62,0,1.13.56,1.13,1.24s-.5,1.24-1.13,1.24ZM76.87,100.77l4.12-4.53-4.21-4.75-3.98,4.69,4.07,4.59ZM124.41,100.53l3.69-4.4-3.55-5.09-4.17,4.58,4.03,4.91ZM144.41,100.37c-1.13,0-2.19-.22-2.63-1.05-1.74-2.57-1.24-7.84-.03-9.66,2.7-2.71,4.23-3.43,7.28-2.81-.35,1.52,1.12,2.34,1.33,2.01.03,0,.14-.27,0-.29-1.05-.14-.97-1.53-.84-1.53,1.16.04,1.92.02,2.04.59.07.35-.11.9-.79,1.51-.8.7-4.46.69-4.46.69-.01,0,0,1.15-.36,1.81-.32.58-.77,1.23-.46,1.49.53.27.88.92.96,1.68.14,1.58-.08,5.39-.03,5.43-.62.06-1.32.14-2,.14ZM76.88,97.43c-.58,0-1.06-.52-1.06-1.17s.48-1.17,1.06-1.17,1.06.52,1.06,1.17-.47,1.17-1.06,1.17ZM124.38,96.98c-.58,0-1.06-.52-1.06-1.17s.47-1.17,1.06-1.17,1.06.53,1.06,1.17-.48,1.17-1.06,1.17ZM71.84,95.88l4.31-4.85-4.59-5.24.15,1.42,3.31,3.76-3.23,3.72.07,1.19ZM81.57,95.79l.12-1.34-3.05-3.54,2.77-3.14.04-1.53-4.08,4.74,4.2,4.8ZM128.73,93.96l-2.44-3.77,2.9-2.81-.08,1.07c-.84.22-1.47,1.06-1.47,2.05,0,.88.49,1.64,1.19,1.95l-.11,1.51ZM119.61,93.21c.06-.78.1-1.41.13-1.99.79-.26,1.37-1.07,1.37-2.02,0-.85-.46-1.58-1.11-1.91.05-.6.12-1.27.22-2.11l2.91,4.7-3.52,3.33ZM50.74,92.99l-.1-13.19-8.68-9.92v-37.14h35.6l9.17,17.06c.18.34.45.22.65.54l-2.72,16.03c-4.28-2.18-7.88,3.45-5.54,8.01-13.19,5.32-28.38,18.61-28.38,18.61h0ZM71.81,92.92c.93,0,1.69-.83,1.69-1.86s-.76-1.87-1.69-1.87c-1.22.62-.6,3.71,0,3.74ZM81.67,92.81c.47-.59.74-3.76,0-3.74-.93.03-1.69.84-1.69,1.87s.76,1.86,1.69,1.86ZM71.81,92.29c-.89-.72-.08-2.32,0-2.49.62,0,1.13.56,1.13,1.25s-.5,1.24-1.13,1.24ZM81.67,92.18c-.62,0-1.12-.55-1.12-1.24s.5-1.24,1.12-1.24c-.07.21.28,2.4,0,2.48ZM128.89,91.69c-.36-.25-.6-.69-.6-1.19,0-.58.32-1.08.78-1.29l-.18,2.48ZM119.79,90.44c.05-.89.09-1.63.15-2.38.32.25.53.67.53,1.14,0,.54-.28,1-.68,1.24ZM76.92,90.01l4.02-4.43-4.18-4.8-3.98,4.64,4.14,4.59ZM124.71,88.86l4.21-3.73-2.71-4.58-.94-.63-3.85,3.64,3.3,5.3ZM141.6,88.55l-9.9-5.83s2.57-1.19,2.5-3.08c-.1-2.12-1.25-3.85-3.53-3.2-.52.08-.76-.16-1.27-1.46-.97-2.49-1.92-5.22-1.55-5.14,1.22,1.07,1.03,1.13,2.46,1.84,2.67.81,4.29-1.93,3.45-4.14-.79-2.05-2.09-2.16-3.4-1.95-.19-.05-.35-.28-.48-.55-.42-.93-1.05-2.59-1.54-5.14-.76-3.93-.93-8.85-.38-10.09.77-1.71,1.83-4.03,1.83-4.03,2.07,4.35,6.57,8.15,11.62,6.81.17-.12.21-.73-.02-1.09-1.64-2.38-1.92-4.55-2.5-6.89-1.5-5.99-4.54-9.41-4.49-8.8l1.59-3.18s13.75-.08,19.38,0v7.29l-14.74,16.67,5.84.27-.2,28.73c-2.14.49-4.65,2.95-4.65,2.95ZM76.85,86.71c-.58,0-1.06-.52-1.06-1.17s.47-1.17,1.06-1.17,1.06.53,1.06,1.17-.48,1.17-1.06,1.17ZM125.16,85.52c-.58,0-1.06-.52-1.06-1.17s.48-1.17,1.06-1.17,1.06.53,1.06,1.17-.47,1.17-1.06,1.17ZM81.58,84.45l-.1-1.15-2.9-3.35,2.68-3.01c.39-.59,1.39-.46,1.71-.5-.22-.74-.82-.65-1.43-.93l-3.9,4.4,3.95,4.55ZM81.54,81.85c.7-.24.58-3.55,0-3.74-.93,0-1.69.84-1.69,1.87s.76,1.87,1.69,1.87ZM71.6,81.34c-.07-.31-.17-2.46,0-2.49.62,0,1.13.56,1.13,1.24s-.5,1.24-1.13,1.24ZM81.54,81.22c-.62,0-1.13-.56-1.13-1.24s.5-1.24,1.13-1.24c.15.29.4,2.45,0,2.49ZM116.38,80.63c.17-.07.4-.03.58-.03.59,0,1.32.46,1.48.37.18-.1.12-.52.11-.71-.02-.18-.47-.24-.65-.37-.3-.21-.22-.29.12-.38.3-.08.54-.1.73-.4.12-.19.13-.51-.07-.51-1.17.02-2.66.55-4.07.03-.8-.32-1.33-.51-1.45-.39-.27.25.67,1.24,1.57,1.43.91.19,1.23.11.94.41-.15.15-.36.09-.37.21-.04.31.17.63.41.67.26.05.47-.26.67-.35h0ZM111.34,77.51c.1,0,.23-.08.42-.24.53-.39,1.37-.92,3.39-.31,1.11.4,2.36.05,3.08-.17.57-.18,1.38-.35,2.02-.02.63.34,1.33.85,1.2.32-.03-.13-.07-.9-.08-1.36-.02-1.08-.09-1.97-.79-1.13-.3.37-.67.37-1.36.07-.49-.21-.84-.36-1.22-.08-.54.39-1,.49-2,.11-.47-.18-.97-.19-1.56.21-.99.67-1.62.02-2-.67-.3-.55-.45.23-1.01,1.85-.29.77-.38,1.42-.09,1.41ZM116.09,71.49c.54-.34,1.3-.44,1.84-.84,1.16-.88.07-1.62-.73-1.43-.33.08-.71.26-1.13.57-1.45,1.06-2.26.91-2.39-.38-.15-1.39,1.79-2.02,1.61-2.67-.24-.42-1.19.16-1.77,1.03-1.73,2.59.17,5.21,2.57,3.71ZM108.57,64.19c1.97-.25,4.93-1.3,6.42-2.53,1.17-1.01,1.49-1.26.99-1.66-.45-.37-.8-.38-.18-1.08.22-.25.6-.78.6-.88,0-.5-2.79-2-4.38-2.23-1.23-.18-3.22.03-4.29.5-1.41.63-1.46,1.06-.13.63,1.04-.34,2.3-.59,3.54-.49,1.12.09,2.21.46,2.9.74,1.71.67,1.41,1.46-.31.79-1.99-.95-4.56-.93-6.84.21-.92.46-1.18.82-1.35.66-.04-.04-.13-.29-.16-.36-.06-.17-.06.43-.15,1.37-.07.78-.13,1.83-.13,1.83,0,0,.14-.44.13-.65-.02-1.37.58-1.38,2.29-.33,2,1.22,2.98,1.1,4.88,1.08.83,0,.87.26-.3.69-.56.2-1.42.53-2.7.98-1.06.37-1.34.79-.84.73ZM123.68,61.42c-.73,0-1.38-.68-1.56-2l.72.06c.24,1.97,1.54,1.52,2.05.35l.64-.02c-.5,1.08-1.2,1.61-1.84,1.61ZM121.84,61.3c-.29.03-1.66-.7-1.74-.93-.09-.25.43-.51.88-.66.52-.17.42-.19.58.15.23.48.64,1.42.28,1.44ZM125.32,61.2c-.01-.21.4-.99.7-1.09.35-.12.63.4.34.66-.26.15-.99.73-1.04.42h0ZM111.27,61.1c-.92.04-1.77-.98-1.84-2.19h.46c.43,2.53,2.18,1.96,2.58.16l.55.17c-.45,1.3-1.11,1.83-1.74,1.86h0ZM113.07,60.92c-.25.02-.22-.21.08-.88.14-.32.24-.5.49-.48.34.06.57.18.74.47.12.29-.16.52-.75.73-.27.09-.46.15-.57.16h0ZM109.22,60.73c-.16,0-.45-.12-.92-.34-1.18-.57-1.32-.81-.7-1.14.27-.14.5-.25.68-.32.55-.2.54.14.68.56.08.24.19.46.29.71.15.35.16.53-.04.53ZM126.49,58.6c-.2,0-.62-.28-1.48-.62-1.23-.48-2.46-.31-4.09.27-.67.24-.9.38-.64-.05.21-.34,1.35-.96,2.29-1.22,1.75-.48,4.06.43,4.06,1.42-.01.14-.06.2-.15.2h0ZM120.71,56.97c-.18,0,0-.3.37-.75.57-.71,1.45-1.19,2.35-1.37,1.88-.37,3.44.2,3.45,1.36.01.84-.12.85-1.05.32-.79-.45-2.56-.56-3.99-.05-.47.14-.95.45-1.03.48-.04.01-.07.02-.1.02h0ZM106.25,55.84c1.43-.42,2.94-.83,4.33-1.13,1.48-.32,3.65-.03,4.78.59.83.45,1.13.19.76-.69-.24-.57-.6-1.18-1.67-1.59-1.55-.6-5.2.37-7.91,1.92-1.57.77-1.27,1.24-.29.91h0ZM129.75,44l-2.44,4.57c-16.5-3.53-34.35-.97-39.81-.13,0,0-5.97-10.89-8.11-14.72-.2-.41-.76-1.78-.76-1.78l56.33.05c-.79,1.75-1.54,4.01-1.54,4.01,1.72.76,3.06,3.6,3.88,5.99.73,2.1,1.98,7.23,3.63,9.74-2.89,1.81-10.16-2.23-11.2-7.73Z"/>
      <path id="path3302-0-9-2" class="cls-2" d="M79.12,32.45h55.79s-7.27,16.04-7.27,16.04c-13.56-2.27-26.93-1.98-40.15.32l-8.37-16.36h0ZM155.39,45.45l.12,7.69-7.23-.18,7.11-7.51ZM94.39,97.15l-.08,23.34c-2.88-2.24-5.76-4.49-8.73-6.28l.11-24.15,8.69,7.09ZM118.71,102.25c.51,13.2,2.25,18.35,3.38,25.04l-10.35,7.38-.03-27.09,6.99-5.33ZM146.99,125.4l-.06,32.5c-9.51-15.1-15.52-30.43-17.18-51.13,2.59-1.15,5.11-2.42,7.76-3.45,2.71,8.16,5.94,15.47,9.47,22.08h0ZM50.7,112.02c8.79,12.32,14.03,28.74,16.79,48.97l-8.05,4.31c-2.67-7.14-5.38-14.73-8.76-20.66v-32.63ZM85.04,133.82l-.03,27.18-6.87,4.92c-.43-9.55-1.8-18.48-3.39-25.1l10.29-7ZM103.12,148.13c2.54,2.11,5.19,4.05,8.12,5.53l-.43,24.11-7.75-6.59.06-23.05ZM48.62,216.06s-4.84,5.42-6.63,7.18l-.04-7.36,6.67.18ZM109.51,219.57l9.02,16.98-56.52.52,7.26-17.1c14.97,3.02,27.78,1.66,40.24-.41Z"/>
      <path id="path3300-3-9-0" class="cls-3" d="M83.61,66.8c-.13-.05-1.88,1.26-2.78,3.18-.98,2.12-.09,4.21-.38,4.22-1.8-.59-1.28-4.39-.66-5.56.53-1.02,1.55-1.71,2.6-1.91,1.04-.19,1.22.07,1.22.07h0ZM80.67,75.1c.36,0,.52.06.76.34.33.38.73.64.94.6.29-.05.42.01.42.18,0,.14-.12.16-.59.11-.29-.03-.89.47-.89.47v35.87c-2.56-1.17-6.38-1.84-9.32-2.23l-.2-31.97s-4.31,2.49-5.87,3.48l-.06,28.62-3.05.37,4.82,10.8c.68-.57,10.16.4,12.52,2.1l-8.65,5.96c.88,2.96,1.68,5.78,2.41,8.78.02.09.18.08.2.17.18.73.3,1.06.47,1.8.03.14-.02.36.02.5,1.86,7.09,3.14,16.48,3.39,24.88-.03.08-.3.01-.3.01l.06,5.14.31-.23-.03,2.32-.31.34c0,.45-.04,1.3-.04,1.3l.4.28-.21,3.89-.41.07-.23,6.16,10.96-7.83s7.15,5.65,10.28,8.58c-3.44,2.58-4.35,7.62-5.21,11.8-.87,4.13-1.16,7.55-1.41,11.01-.27,3.81-.84,8.69-1.3,11.09-.28,1.45-.27,1.61.12,1.64.13,0,0,.06-.31.11-7.02.31-14.57-.84-21.27-1.81,0,0-1.66,3.41-2.23,4.66,0,0-.34-1.15-.7-1.95-.81-1.7-2.67-3.5-4.26-4.48-.59-.43-2.3-1.06-3.45-1.28-.68-.12-1.77.11-2.58.47-.28.13-.5.29-.5.45,0,.16.22.33.5.62.24.25.56.73.71,1.08.49,1.09,1.23,2.92,1.64,4.63,1.17,3.41,2.03,7.52,4.72,9.33l-1.85,4.09,58.3-.02-9.02-16.77s-.27-.5-.36-.68c-.27-.53-.38-.45-.38-.45.59-5.86,1.42-11.64,2.53-17.31,0,0,.12.45,1.83.43,5.01-.08,6.77-6.23,2.58-8.95-.4-.26-1.07-.76-1.73-1.14-.19-.11-2.59-1.67-2.59-1.67l2.88,1.43.21-36.91s6.01,1.99,9.97,2.18l-.04,32,5.53-3.29.25-28.61,3.03-.22s-1.15-2.7-1.4-3.26c-.51-1.13-1.8-3.66-2.68-5.25-.31-.56-1.04-1.82-1.04-1.82-4.04-.12-8.17-.79-11.92-2.63l8.69-6.24c-3.63-11.29-8.16-27.8-5.63-54.46l-.61.43-.17,2.87-10.82,8.22-13.34-11.86s.97.03,1.19.04c3.4.13,5.8-3.71,6.62-6.92,1.45-5.65,1.64-7.05,2.31-16.02.26-3.55.9-6.97,1.55-10.34.34-1.7.29-1.87.29-1.87-6.79-.24-13.88.55-19.19,1.85,0,0-2.24,11.76-3.04,16.75-.76-.48-1.43-.69-2.11-.67-5.26.63-4.81,8.6-2.1,8.82h0ZM104.09,236.3l-2.76-10.68,6.76-.69,5.61,11.29-9.61.09ZM62.56,236.45l6.95-16.26c14.57,2.26,22.98,2.47,39.9-.17l8.79,16.22-2.31.02-6.63-12.95-9.85,1.08,2.72,11.85-2.6.09-2.69-11.63-15.24.09c-.49,3.9-1.45,11.51-1.45,11.51l-2.81-.03,1.87-11.77-9-1.25-5.2,13.16-2.44.04ZM82.1,236.3l.89-9.89,12.61-.11,2.02,10h-15.51ZM66.83,236.49l4.28-11.74,6.24.92-1.7,10.65-8.81.16ZM59.14,224.98c-.28-1-.56-1.98-.63-2.18-1.02-3.04-1.44-4.05-2.1-5.06-.11-.17-.14-.15.02-.29,3.06-1.65,8.6,2.41,9.93,6.14-.17.36-.91,1.87-.91,1.87-.39-.83-.1-1.66-.35-2.4-.06-.32-.7,2.15-.7,2.15,0,0-.61-1.1-.69-3.21-.01-.33-.8,1.42-.8,1.42-.99-1.46-.93-4-.93-4-1.11,1.49-.42,2.34-2.13-1.45-.2.39-.1.81-.36.7-.75-.32-1.81-.9-2.2-.79.5.7,1.48,1.06,1.75,1.99,0,0-.77-.07-.82-.03.88.53,1.72.98,2.38,1.99-.2.08-.99-.07-.95.02,1.19,1.18,2.97,2.14.39,1.87,1.67,1.3,3.54,2.2.63,2.1,2.07,1.08,2.63,1.75,2.25,1.93-.22.1-.84-.31-1.83.04,1.67.75,2.35,1.09,2.42,1.34.08.3-.71.46-1.25,1.11,0,0,.67-.17.96.18,0,0-.33,1.04-.58,1.63-2.12-2.13-2.96-5.14-3.51-7.07h0ZM41.25,229.11s9.38-11.15,14.02-16.69l-4.54-.07-.21-30.2c-1.58-.23-4.32,0-5.36-1.17-.64-1.05,1.85-3.12,3.25-2.69.94.28,2.09.06,2.09.06l-.1-33.66c2.99,6.14,5.28,10.02,8.6,20.67-.96.74-1.95,1.31-2.11,1.43,1.27,3.39,2.16,8.73.38,13.37l-1.23-.81c.9-2.84,1.23-7.03-.24-10.91l-.34.39s.36.77.6,1.63c.21.76.51,1.74.51,2.76.06,1.8,0,3.35-.38,4.8-.13.47-.32,1.18-.42,1.39-.1.22-.19.42-.19.48,3.61,1.61,6.2,3.97,9.31,5.66.12.06.22.12.3.17.39.24.29.33-.33.6-1.3.57-1.83,1.26-1.8,2.65.04,1.98,1,2.75,3.1,2.62.76-.05.81-.04.95.25.32.67,1.41,3.34,1.41,3.45,0,.06.23.66.51,1.33.43,1.07.93,2.17,1.13,3.29.1.56.39.77.47.2.55-4.26,1.06-6.51,2.06-9.07.3-.76.52-1.4.5-1.43-.1-.09-1.76-.95-2.55-1.3-3.05-1.38-4.43-2.24-3.96-2.44.33-.14.45-.39.53-1.11.22-1.88.19-2.83-.09-3.43-.3-.62-.29-.67.2-1.02.42-.3.33-.31.45-1.87.14-1.86.04-3.04.04-3.04l-.76-1.08.77-1.06.18-4.87-1.04-.87.97-1.06-.35-4.44s.13-.41.3-.61c-1.65-18.78-8.03-37.71-17.58-50.61l-.1-30.85-9.36-10.34.4,159.5ZM41.99,227.13v-2.43l7.95-9.45-7.95-.15v-2.06l12.21.03-12.21,14.07ZM42.11,223l-.02-6.81h5.94s-5.92,6.81-5.92,6.81ZM96.63,219.57l-1.24.06c.05-1.37.54-7.71,1.13-13.26.66-6.26,2.02-11.66,2.28-11.66l1.2.8c-1.98,7.18-2.51,16.42-3.37,24.06h0ZM91.01,219.76c.17-3.87.91-6.58,1.14-11.17.28-5.6,1.15-12.56,3.43-18.34.77-1.95,2.19-3.77,4.18-4.64,3.49-1.51,6.46,3.27,4.09,6.78-1.87,2.78-4.79,2.74-5.67-.07-.73-2.32,1.62-5.24,3.5-4.33,1.31.63.97,3.23-.49,3.84-.61.25-1.12-.6-.82-1.36.24-.6.26-.98-.06-.72-1.33,1.03-.33,3.49,1.32,2.57,2.2-1.23,1.83-4.83-.39-4.99-2.8-.3-4.96,3.5-6.34,10.73-1.52,8.09-1.14,15.33-2.59,21.68l-1.29.02ZM94.59,219.63l-1.47.05c.12-.6.14-1.24.24-1.98.58-4.24.92-10.43,1.52-15.29.84-6.85,2.34-11.01,2.38-10.5.17.83.64,1.5,1.01,2.16-1.52,4.55-2.13,8.7-2.52,12.6-.45,4.56-.58,8.79-1.15,12.96ZM100.88,219.23l-1.29.07c.5-9.08,1.71-17.31,2.42-20.84.22-1.07.29-1.53.48-1.62.2-.1.54.26,1.36.77-1.25-.2-2.26,15.44-2.97,21.62ZM98.86,219.36l-1.4.15c.21-3.28.71-8.44,1.27-13.1.68-5.63,1.57-10.61,2.01-10.54l1.17.45c-.78-.27-2.71,16.51-3.05,23.03ZM101.52,219.2c.92-6.87,1-14.9,2.9-21.32l1.31.67c-.36-.13-1.29,4.18-1.61,9.05-.28,4.24-.97,8.85-1.17,11.41l-1.43.19ZM103.69,218.95c.52-2.43.52-6,.91-8.99.48-3.69,1-11.2,1.77-11.02l1.34.75c-.7-.23-1.93,13.98-2.68,19.03l-1.35.23ZM107.22,218.35l-1.36.2c.65-5.55,1.84-18.49,2.54-18.59l1.28.75c-.5,2.27-1.76,10-2.46,17.64ZM108.06,218.13c.56-6.1,1.09-12.28,2.27-17.02l1.4.69s-.97,5.22-1.43,8.88c-.45,3.62-.52,4.13-.67,5.08-.32,2.08-.41,2.16-.41,2.16l-1.16.21ZM48.28,211.88l.13-29.29,1.55.06-.06,29.27-1.62-.05ZM44.63,211.65c-.58,0-1.06-.52-1.06-1.17s.47-1.17,1.06-1.17,1.06.53,1.06,1.17-.47,1.17-1.06,1.17ZM69.55,200.9c-1.1-2.21-1.94-3.02-2.9-3.45-1.74-.76-4.14,1.12-3.27,3.75.46,1.38,1.63,1.59,3.1,1.31,0,0,.64.5,1.39,3.01.89,2.97,2.28,6.02,2.28,6.02.09-3.72.88-7.6-.6-10.64ZM43.06,208.93c-.58,0-1.06-.52-1.06-1.17s.48-1.17,1.06-1.17,1.06.52,1.06,1.17-.47,1.17-1.06,1.17ZM45.97,208.89c-.58,0-1.06-.52-1.06-1.17s.47-1.17,1.06-1.17,1.06.53,1.06,1.17-.48,1.17-1.06,1.17ZM69.68,209.17c-.98-2.25-1.19-3.94-2.14-5.97-.42-.89-.79-1.65-.79-1.65-3.11,1.61-4.3-2.45-1.78-3.75,2.48-1.28,5.28,3.58,5,8.8-.07,1.44-.29,2.57-.29,2.57h0ZM44.57,206.13c-.58,0-1.06-.52-1.06-1.17s.47-1.17,1.06-1.17,1.06.53,1.06,1.17-.47,1.17-1.06,1.17ZM41.77,203.94v-2.5l5.53-5.92v2.41l-5.53,6ZM114.44,202.02c-1.06-.02-1.56-.36-.86-.67,2.32-1.02,3.35-2.64,3.48-5.47,0-1.43-.15-1.62.65-.82,2.04,3.15-.9,6.98-3.26,6.96ZM112.5,200.99c-.26.01-.51-.03-.77-.11-.62-.22-.39-.23.65-1,2-1.46,2.61-2.9,2.7-5.83.03-.44-.06-.81-.02-.99.03-.14.18-.1.28-.09.38.07.62.52.73.89,1.27,2.79-1.08,7.03-3.56,7.14h0ZM110.34,200.02c-.17,0-.32-.03-.45-.1-.49-.27-.31-.31.59-1.01,1.59-1.25,2.37-3.09,2.56-5.14.12-1.32-.8-2.88.83-1.59,1.14,1.05.92,3.77-.3,5.65-.75,1.15-2.3,2.18-3.23,2.2h0ZM41.77,200.59v-2.84l5.53-5.79v2.91l-5.53,5.73ZM108.56,199.11c-.63,0-.91-.45-.18-.96,1.79-1.24,2.87-3.61,2.76-6.08-.1-1.49-.15-1.76.71-.77,1.39,1.59.41,5.91-2.29,7.52-.37.21-.72.3-1.01.3ZM106.73,198.29c-1.03.03-1.17-.55-.25-1.26,1.76-1.36,2.93-3.74,2.91-5.91-.01-1.01.06-1.13.46-.79,2.03,1.71-.15,7.69-2.9,7.95-.08,0-.15.01-.22.02ZM70.39,198.1c-.25-.02-.7-1.01-1.41-3.07-.68-1.99-1.78-4.5-2.01-4.6-.07-.03-.38.09-.69.27-2.32,1.34-3.95-2.47-1.67-3.89,1.63-1.01,3.16.07,4.58,3.23,1.67,3.72,2.13,6.48,1.32,7.97-.03.06-.07.09-.12.09h0ZM104.84,197.09c-.28.01-.55-.04-.8-.19-.6-.34-.51-.6.41-1.19.95-.61,1.32-1,1.87-1.91.85-1.42.99-1.97.99-3.8,0-1.49.4-1.57,1.21-.25,1.39,2.29-1.4,7.23-3.68,7.34h0ZM102.53,195.75c-.91.02-1.51-.39-.64-.9,2.77-1.62,3.94-3.94,3.41-6.79-.17-.9.76-.14,1.32,1.08.82,1.78-.69,5.22-2.76,6.28-.43.22-.91.32-1.33.33h0ZM71.25,193.12c-.17-.01-.37-.52-.82-1.78-.29-.82-.68-1.8-.86-2.17-.19-.38-.32-.73-.29-.79.16-.29,1.44.2,1.87.71.67.79.88,2.56.43,3.57-.13.29-.23.47-.33.46h0ZM44.63,190.97c-.58,0-1.06-.52-1.06-1.17s.47-1.17,1.06-1.17,1.06.53,1.06,1.17-.47,1.17-1.06,1.17ZM153.12,189.08c-.58,0-1.06-.53-1.06-1.17s.47-1.17,1.06-1.17,1.06.52,1.06,1.17-.47,1.17-1.06,1.17ZM109.41,188.73c-1.16.04-1.51-.56-1.71-2.49-.13-1.33-.39-1.45-2.29-1.1-2,.37-2.67-.23-2.81-2.51-.11-1.81-.1-1.8-2.37-1.81-2.24-.02-2.48-.27-2.74-2.8-.19-1.88-.13-1.83-2.33-1.8-2.44.04-2.66-.16-2.82-2.54-.13-1.93-.25-2.05-1.79-1.91-1.51.14-4.29.15-4.81.03-1.3-.31-1.35-.25-1.63,1.68-.37,2.54-.82,2.86-3.65,2.55-1.39-.15-1.55-.12-1.75,1.23-.26,1.8-.59,2.33-.59.77,0-3.94.25-4.13,2.63-3.43,1.79.53,1.82.12,2.01-1.78.16-1.68.42-2.37.98-2.63.43-.21,1.9-.03,2.48.15.22.07,1.61.11,3.26.09,3.97-.05,4.01-.06,4.01,3.02,0,1.29.26,1.57,2.33,1.5,2.61-.09,2.47-.16,2.91,3.29.15,1.2.24,1.24,2.4,1.21,2.35-.04,2.88-.07,2.75,2.11-.13,1.99.31,2.51,2.27,2.01,2.09-.54,2.49.44,2.69,2.22.19,1.65.31,1.23,1.31,1.32,1.1.09.98,1.47-.2,1.59-.2.02-.38.05-.55.06h0ZM42.99,188.13c-.58,0-1.06-.52-1.06-1.17s.47-1.17,1.06-1.17,1.06.52,1.06,1.17-.47,1.17-1.06,1.17ZM45.97,188.07c-.58,0-1.06-.53-1.06-1.17s.47-1.17,1.06-1.17,1.06.52,1.06,1.17-.47,1.17-1.06,1.17ZM151.54,186.12c-.58,0-1.06-.52-1.06-1.17s.48-1.17,1.06-1.17,1.06.52,1.06,1.17-.47,1.17-1.06,1.17ZM154.51,186.1c-.58,0-1.06-.52-1.06-1.17s.47-1.17,1.06-1.17,1.06.52,1.06,1.17-.47,1.17-1.06,1.17ZM99.23,185.1l-11-9.06-10.41,7.69.06-2.81,10.34-7.59s8.8,7.52,13.05,11.15l-2.04.61ZM44.49,184.97c-.58,0-1.06-.53-1.06-1.17s.47-1.17,1.06-1.17,1.06.52,1.06,1.17-.47,1.17-1.06,1.17ZM62.5,183.44l-2.61-4.68,2.6-2.09-2.37-3.34,2.56-2.89-2.81-1.97,2.63-4.04,3.64-1.78-3.64,5.27,3.01,2.28-2.86,3.4,2.56,3.71-2.65,2.29,2.87,5.19-.19.25-2.74-1.6ZM110.72,184.47l-19.32-15.96s-1.78-1.48-2.3-1.84c-1.08-.76-1.3-.46-2.38.36-2.44,1.6-8.35,6.04-8.35,6.04l.05-2.3s5.95-4.91,9.24-6.95c.47-.28.97-.02,1.32.28,7.18,6.27,14.52,12.36,21.8,18.5l-.04,1.86ZM66.32,184.22c-.08-.16-.34-.22-.47-.43-.86-1.46-2.41-4.06-2.41-4.06l2.72-2.38-2.5-3.62,3.12-3.5-3.18-2.39s1.98-3.34,3.47-4.87l.04,2.6-1.28,1.7,1.47,1.11v3.57s-1.49,1.73-1.49,1.73l1.37,1.52-.24,3.9-1.3,1.14,1.07,1.62-.39,2.35ZM153.09,183.42c-.58,0-1.06-.52-1.06-1.17s.48-1.17,1.06-1.17,1.06.52,1.06,1.17-.47,1.17-1.06,1.17ZM41.98,179.16l5.38-5.48v2.49l-5.38,5.82v-2.83ZM150.01,181.84v-3.01l5.74-5.85v2.9l-5.74,5.95ZM41.98,178.4v-2.98l5.38-5.58v2.95l-5.38,5.6ZM48.31,177.93l-.11-96.99-6.24-7.29v-2.42s7.9,9.03,7.9,9.03l.18,97.58-1.72.08ZM150.01,178.22v-3.38l5.74-5.78v3.18l-5.74,5.98ZM110.74,177.6l-7.59-6.52.03-22.74c3.07,2.55,5.54,4.07,7.88,5.37l-.32,23.9ZM44.48,170.24c-.58,0-1.06-.52-1.06-1.17s.47-1.17,1.06-1.17,1.06.52,1.06,1.17-.48,1.17-1.06,1.17ZM100.86,169.13l-.03-23.21,1.5,1.51.09,23.02-1.55-1.32ZM152.71,168.91c-.58,0-1.06-.52-1.06-1.17s.47-1.17,1.06-1.17,1.06.53,1.06,1.17-.48,1.17-1.06,1.17ZM43.07,167.25c-.58,0-1.06-.52-1.06-1.17s.47-1.17,1.06-1.17,1.06.53,1.06,1.17-.47,1.17-1.06,1.17ZM46.08,167.11c-.58,0-1.06-.52-1.06-1.17s.47-1.17,1.06-1.17,1.06.52,1.06,1.17-.47,1.17-1.06,1.17ZM100.01,167.22l-4.63-4.78,4.77-5,.04,2.31-2.66,2.83,2.67,3.05-.19,1.59ZM98.25,166.8l-3.86-3.15.6-.81,3.26,3.96ZM151.15,166.09c-.58,0-1.06-.52-1.06-1.17s.47-1.17,1.06-1.17,1.06.52,1.06,1.17-.47,1.17-1.06,1.17ZM154.25,166.04c-.58,0-1.06-.53-1.06-1.17s.47-1.17,1.06-1.17,1.06.52,1.06,1.17-.47,1.17-1.06,1.17ZM78.35,165.61c-.74-9.28-1.26-15.71-3.43-24.47l9.99-7.05-.09,26.89-6.47,4.62ZM50.82,144.37l.04-31.89c9.43,14.81,14.51,32.12,16.15,48.52,0,0-5.06,2.57-7.52,4.15-2.6-6.73-1.48-6.73-8.67-20.79ZM44.36,164.26c-.58,0-1.06-.53-1.06-1.17s.47-1.17,1.06-1.17,1.06.52,1.06,1.17-.47,1.17-1.06,1.17ZM152.67,163.01c-.58,0-1.06-.52-1.06-1.17s.47-1.17,1.06-1.17,1.06.53,1.06,1.17-.47,1.17-1.06,1.17ZM93.73,163.12l-3.67-3.09v-2.34s4.38,4.66,4.38,4.66l-.71.78ZM94.99,161.88l-4.59-5,4.81-5.3,4.74,4.96-4.97,5.34ZM60.45,161.7l4.42-2c-1.69-16.92-6.08-29.6-12-39.89l-.13,23.73c3.06,5.34,5.37,11.77,7.71,18.15h0ZM41.85,161.35v-2.66l5.51-5.57v2.65l-5.51,5.58ZM94.99,159.89l2.92-3.15-2.94-3.14-2.83,3.14,2.85,3.15ZM150.01,160.24v-2.83l5.47-5.83v3.01l-5.47,5.65ZM88.47,158.65l-.04-27.08,1.22-.63-.08,28.29-1.09-.58ZM95.05,158.24l-1.33-1.47,1.39-1.54,1.31,1.47-1.37,1.54ZM41.85,157.96v-3.07l5.51-5.67.09,2.93-5.6,5.82ZM102.77,146.45c-5.68-5.43-10.05-13.66-14.84-18.27-1.94-1.85-6.68-4.75-9.24-5.64-2.91-1.01-5.17-1.43-8.09-1.48-2.3-.05-2.31-.06-2.31-.06l-.98-1.91,1.61.02.11-6.76c-1.71-.09-3.38.01-5.03.24l-.6-1.23c11.75-1.76,23.24,3.16,30.15,9.44,3.15,2.86,5.71,6.35,8.83,11.43,6,10.33,16.56,15.31,26.4,15.43l.82,1.4-1.64-.06s-.17,1.3-.19,3.51c-.02,2.49-.01,2.92.17,2.99,1.19.15,4.79.07,4.68-.1l.74,1.46c-11.73,1.33-23.27-3.17-30.58-10.41h0ZM150.01,156.64v-2.78l5.47-5.69v2.78l-5.47,5.69ZM89.93,156.41l.14-2.48,2.61-2.84-2.77-2.97.07-2.07,4.89,5-4.93,5.37ZM125.64,155.52c.25,0,.4-.02.43-.08.06-.12.03-1.19.24-5.04.08-1.41.17-1.42-.91-1.56-.9-.03-2.92-.6-4.26-.78-1.13-.17-.89.21-1.21,1.21-.35,1.09-.54,2.06-.97,3.62-.39,1.43-.21,1.47,2.33,2,1.76.36,3.59.63,4.34.63ZM100.21,155.76l-4.42-4.87,4.36-4.88.08,2.36c-.84.82-1.84,1.76-2.58,2.7l2.57,2.89v1.81ZM122.4,154.18l-.47-.86-1.14-.21.2-.88-.58-.9.71-.59-.02-1.09.89.03.78-.61.61.86.89.03-.05,1.22.58.54-.69.68.09,1.08-1.1-.2-.7.89ZM129.58,152.71l-.7-.51.71-.54.03-.83.44-.41,1.61,3.47-1.04-.47-.8.58-.24-1.29ZM116.7,153.51c.56-.01.63-1.16,1.24-3.32.85-3.02.91-2.74-.72-3.37-.72-.28-2.11-.8-2.84-1.18-1.79-.93-1.8-.92-2.46.34-.3.56-.86,1.93-1.25,2.64-.98,1.77-1.01,1.69.79,2.65,1.06.56,1.7.79,3.93,1.79.62.28,1.02.47,1.31.46h0ZM114.92,151.51l-.78-.54-.88.4-.18-1.04-.96-.41.27-1.02-.42-.77.82-.18.59-1.42.9.69.95-.38.26.78.97.52-.35.86.49,1.16-1.11.09-.57,1.24ZM95.3,150.44l-4.88-5.28,4.45-4.92,4.88,5.3-4.44,4.9ZM44.36,149.48c-.58,0-1.06-.52-1.06-1.17s.47-1.17,1.06-1.17,1.06.52,1.06,1.17-.47,1.17-1.06,1.17ZM108.34,149.22c.28,0,.45-.29.69-.85.1-.23.71-1.48,1.26-2.44,1.26-2.17,1.26-2.06,0-2.91-.53-.36-1.76-1.47-2.81-2.52-.97-.97-.87-.74-2.96,1.57-1.37,1.51-2.21,1.93-1.68,2.73,1.3,1.23,2.36,2.12,3.76,3.29.93.76,1.41,1.13,1.73,1.12h0ZM95.07,148.63l2.88-3.12-3.25-3.25-2.69,3.05,3.06,3.31ZM144.41,149.69l-.03-24.37c-3.17-5.98-6.42-12.01-8.11-18.74l-4.65,2.51c2.22,19.91,7.39,30.94,12.79,40.59ZM152.68,148.16c-.58,0-1.06-.52-1.06-1.17s.47-1.17,1.06-1.17,1.06.52,1.06,1.17-.47,1.17-1.06,1.17ZM95.04,146.86l-1.39-1.41,1.28-1.53,1.4,1.6-1.29,1.34ZM43.06,146.63c-.58,0-1.06-.52-1.06-1.17s.48-1.17,1.06-1.17,1.06.52,1.06,1.17-.47,1.17-1.06,1.17ZM45.9,146.51c-.58,0-1.06-.52-1.06-1.17s.48-1.17,1.06-1.17,1.06.52,1.06,1.17-.47,1.17-1.06,1.17ZM107.69,146.59l-.8-.66-.94.45-.07-1.23-.86-.47.54-.87-.33-1.14.93-.03.72-1.05.65.69,1.26-.09.2,1.19.55.47-.43.79.31,1.05-1.08.08-.66.82ZM154.24,145.29c-.58,0-1.06-.52-1.06-1.17s.47-1.17,1.06-1.17,1.06.52,1.06,1.17-.47,1.17-1.06,1.17ZM151.19,145.25c-.58,0-1.06-.53-1.06-1.17s.47-1.17,1.06-1.17,1.06.52,1.06,1.17-.47,1.17-1.06,1.17ZM89.97,142.47l2.52-2.6-2.49-2.86.08-2.19,4.41,4.85-4.48,4.86-.04-2.06ZM114.9,143.03l9.46-6.93.58,1.73-8.44,6.1-1.6-.9ZM44.5,143.6c-.58,0-1.06-.53-1.06-1.17s.47-1.17,1.06-1.17,1.06.52,1.06,1.17-.47,1.17-1.06,1.17ZM101.24,142.9c.44-.03.89-.61,1.73-1.6.83-.98,1.82-2.13,2.03-2.29.66-.51.63-.63-.52-2.05-.35-.43-1-1.31-1.46-1.96-.45-.65-1.18-1.46-1.32-1.62-.46-.54-.72-.43-2.85,1.27-2.59,2.05-2.58,1.75-.2,5.14,1.37,1.95,2.03,3.15,2.59,3.11ZM152.71,142.18c-.58,0-1.06-.52-1.06-1.17s.47-1.17,1.06-1.17,1.06.52,1.06,1.17-.48,1.17-1.06,1.17ZM97.21,141.75l-1.71-2.02.15-.2,1.56,2.23ZM41.92,141.3v-3.51l5.27-5.37v3.21l-5.27,5.67ZM100.92,140.28l-.64-.97-1.09.08.16-1.15-.58-.47.56-.87.05-1.09.9.24.73-.98.72.93.85-.11-.03,1.14.87.54-.61.74-.02,1.27-1.26.05-.61.63ZM74.85,140.21l-.53-1.77,13.17-9.46,1.15,1.46-13.8,9.77ZM109.33,139.02l-1.05-.87,13.82-9.81.42,1.28-13.19,9.4ZM149.77,139.4v-2.92l5.83-6.2v3.01l-5.83,6.11ZM95.03,138.7l-.17.15-4.52-4.79.85-1,3.83,5.64ZM107.51,137.29l-.12-28.3,1.21.92-.09,26.85-.99.53ZM106.77,136.64l-.98-.95.94-1.01.04,1.97ZM41.92,136.88v-2.87l5.27-5.52v3l-5.27,5.39ZM149.77,135.5v-2.7l5.83-6.15v2.72l-5.83,6.12ZM95.42,135.13c.15,0,.31-.11.55-.31.22-.19.75-.59,1.18-.9,1.59-1.14,2.93-2.2,2.99-2.36.12-.33-1.47-2.62-3.68-5.37-.87-1.08-.84-1.29-1.72-.33-.69.87-3.23,3.25-3.16,3.88.14.73,1.01,1.56,3.18,4.79.29.41.46.6.65.6ZM105.21,134.84l-3.47-5.48.46-.51,4.25,4.63-1.25,1.35ZM111.99,134.19v-26.4s6.5-5.1,6.5-5.1c-.12-.07.8,15.86,3.29,24.36l-9.79,7.15ZM95.8,133.26l-.64-1.31-.96.18.13-1.21-.82-.71.8-1.23-.11-.87.95.24.86-.98.59,1.25,1.24-.02-.17,1.2.87.8-.95.62-.13,1.1-.82-.08-.85,1.02ZM90.15,133.06l-.11-1.08.58.56-.47.52ZM106.79,131.14v1.54s-4.14-4.42-4.14-4.42l4.24-4.38-.03,2.08-2.41,2.54,2.34,2.64ZM72.5,131.99l-.59-1.97,8.52-5.79,1.72.99-9.65,6.78ZM44.41,128.74c-.58,0-1.06-.52-1.06-1.17s.48-1.17,1.06-1.17,1.06.53,1.06,1.17-.47,1.17-1.06,1.17ZM98.67,124.94l3,3.31-.38.45-2.62-3.76ZM90.95,127.92c1.02-.96,3.18-3.72,3.18-4.18,0-.45-3-3.31-4.8-4.58-.57-.4-.79-.41-1.01-.05-3.11,5.13-3.25,4.96-2.01,5.96,1.25,1.06,2.72,2.63,3.72,3.17.42.23.49.09.93-.33h0ZM102.18,127.67l-4.94-5.23,4.58-4.87,4.75,5.53-4.39,4.57ZM152.6,127.27c-.58,0-1.06-.52-1.06-1.17s.47-1.17,1.06-1.17,1.06.52,1.06,1.17-.47,1.17-1.06,1.17ZM90.21,126.22l-.83-.82-.99.29-.22-1.08-.96-.39.51-1.1-.07-1.39.96.2.67-1.14.98,1.09,1.12-.1-.06,1.21.99.53-.63.8.39,1.09-1.18-.21-.68,1.02ZM43.01,125.74c-.58,0-1.06-.52-1.06-1.17s.47-1.17,1.06-1.17,1.06.52,1.06,1.17-.48,1.17-1.06,1.17ZM104.77,122.98l-2.92-3.3-2.69,2.85,2.85,3.32,2.76-2.87ZM45.92,125.69c-.58,0-1.06-.52-1.06-1.17s.47-1.17,1.06-1.17,1.06.53,1.06,1.17-.47,1.17-1.06,1.17ZM154.05,124.47c-.58,0-1.06-.53-1.06-1.17s.47-1.17,1.06-1.17,1.06.52,1.06,1.17-.47,1.17-1.06,1.17ZM150.95,124.46c-.58,0-1.06-.53-1.06-1.17s.47-1.17,1.06-1.17,1.06.52,1.06,1.17-.47,1.17-1.06,1.17ZM102,124.2l-1.33-1.51,1.23-1.43,1.38,1.56-1.28,1.38ZM83.94,123.16c.68-.54,2.53-4.41,2.85-5.26,0-.21-.89-.83-2.01-1.4-.95-.49-4.03-1.85-4.32-1.93-.62-.17-.73.09-.83.54-.05.24-.3,1.13-.57,2.11-.95,3.42-1.24,3.26.18,3.78.49.18,2.03.75,3,1.24.96.49,1.39.92,1.7.91ZM44.5,122.54c-.58,0-1.06-.52-1.06-1.17s.48-1.17,1.06-1.17,1.06.53,1.06,1.17-.47,1.17-1.06,1.17ZM95,120.94l-.17-22.95,1.63,1.4.04,23.03-1.51-1.48ZM102.28,117.03l4.49-5.05.03,2.57-2.51,2.51,2.56,2.96-.05,1.99c-1.64-1.48-3.04-3.3-4.51-4.98ZM152.62,121.44c-.58,0-1.06-.52-1.06-1.17s.47-1.17,1.06-1.17,1.06.53,1.06,1.17-.48,1.17-1.06,1.17ZM83.29,121.49l-.91-.83-.76.5-.44-.86-1.09-.17.49-1.31-.64-1.01,1.06-.22.26-1.4,1.04.68.79-.38.58,1.18,1.23.05-.67,1.29.63,1.02-.89.06-.69,1.38ZM97.16,121.39v-2.02s1.96-2.19,1.96-2.19l-1.96-2.36v-2.35s4.07,4.56,4.07,4.56l-4.07,4.36ZM76.32,120.06c.41-.01.41-.49.73-2.04.07-.34.29-1.24.48-2.01.59-2.32.67-2.37-1.16-2.77-1.06-.17-5.63-1.35-5.73-.55-.12,1.37-.19,4.59-.21,5.68-.04.37.04.71.37.76,2.09.28,4.41.88,5.52.92h0ZM94.14,119.97c-2.6-1.96-5.11-3.95-8.1-5.74l-.08-23.6,8.19,6.74-.02,22.61ZM41.98,119.9v-2.89l5.46-5.76v2.76l-5.46,5.89ZM73.99,118.89l-.47-1.12-.99.37v-1.34s-.88-.62-.88-.62l1.07-.54.09-1.63,1.08.37.89-.61.79.92.97.02-.35,1.45.62.66-.91.49-.07,1.29-.97-.64-.87.94ZM149.66,119.11v-2.79l5.95-6.04v2.44l-5.95,6.39ZM66.54,117.36l-1.33-2.49.48-1.01.89.48.98-.4-.15,1.33.76.67-.77.78.04.98-.9-.34ZM101.76,116.54l-4.56-5.22,4.65-5.29,4.56,5.29-4.64,5.22ZM41.98,113.27l5.46-5.6v2.72l-5.46,5.72v-2.84ZM149.66,115.55v-2.72l5.95-6.15v2.52l-5.95,6.35ZM101.75,114.58l2.96-3.23-2.94-3.25-2.97,3.17,2.94,3.31ZM101.71,112.73l-1.27-1.44,1.21-1.39,1.31,1.4-1.25,1.42ZM106.8,110.74l-4.52-5.12.52-.68,4.01,3.43v2.37ZM97.09,110.32l-.12-2.31,2.47-2.32-2.25-2.61-.06-2.4,4.29,4.87-4.32,4.78ZM44.41,107.98c-.58,0-1.06-.52-1.06-1.17s.47-1.17,1.06-1.17,1.06.52,1.06,1.17-.47,1.17-1.06,1.17ZM152.49,106.56c-.58,0-1.06-.52-1.06-1.17s.47-1.17,1.06-1.17,1.06.53,1.06,1.17-.47,1.17-1.06,1.17ZM130.84,105.85l3.34-5.51-2.63-1.94,2.49-3.69-2.59-3.44,2.61-2.47-2.65-5c1.05.23,2.12,1,3.09,1.54l2,4.19-2.29,2.18,2.33,2.98-2.44,3.19,2.45,1.9-2.67,4.53-3.02,1.54ZM43.15,105.12c-.58,0-1.06-.52-1.06-1.17s.47-1.17,1.06-1.17,1.06.52,1.06,1.17-.47,1.17-1.06,1.17ZM108.76,105.21l-23.02-19.59.09-2.6,23.03,19.53,9.78-7.62-.09,2.77-9.79,7.5ZM45.97,104.96c-.58,0-1.06-.52-1.06-1.17s.47-1.17,1.06-1.17,1.06.52,1.06,1.17-.47,1.17-1.06,1.17ZM99.56,102.46l.24-.05,2.51,2.02-.55.68s-1.65-2.01-2.21-2.65ZM150.92,103.59c-.58,0-1.06-.53-1.06-1.17s.48-1.17,1.06-1.17,1.06.52,1.06,1.17-.47,1.17-1.06,1.17ZM153.77,103.57c-.58,0-1.06-.52-1.06-1.17s.48-1.17,1.06-1.17,1.06.52,1.06,1.17-.47,1.17-1.06,1.17ZM44.41,102.03c-.58,0-1.06-.53-1.06-1.17s.47-1.17,1.06-1.17,1.06.52,1.06,1.17-.47,1.17-1.06,1.17ZM152.5,100.74c-.58,0-1.06-.53-1.06-1.17s.47-1.17,1.06-1.17,1.06.52,1.06,1.17-.47,1.17-1.06,1.17ZM41.98,98.56v-2.58l5.16-5.52v2.49l-5.16,5.61ZM111.68,97.79c-.77,0-1.8-.04-3.18-.09-1.19-.04-2.5-.07-2.91-.06-1.64.05-2.18-.57-2.21-2.52-.03-1.74-.02-1.73-2.08-1.83-2.49-.12-3.14-.82-3.18-3.41-.01-1.01-.75-1.41-2.2-1.18-2.28.36-2.73.01-2.99-2.33-.22-1.95-.1-1.85-2.19-1.84-2.25.02-2.75-.4-2.78-2.31-.02-1.11-.26-1.44-1.13-1.53-.93-.09-1.33-.62-.87-1.14.08-.09.51-.15,1.19-.16,1.43-.02,1.91.47,2.17,2.29.19,1.26.3,1.32,2.21,1.27,2.43-.07,2.62.09,2.88,2.43.23,2.01.53,2.22,2.62,1.78,1.52-.32,2.32.42,2.52,2.31.22,2.12.31,2.2,2.46,2.28,2.16.08,2.76.5,2.78,1.94.03,2.22.28,2.42,2.94,2.33,1.29-.04,2.61-.02,3.37.07,1.61.18,1.6.19,1.76-1.51.24-2.55.58-2.78,3.63-2.54,1.28.1,1.37.04,1.45-1.03.11-1.34.56-2.17.91-1.66.18.26.18.29,0,2.25-.2,2.2-.23,2.21-2.82,1.99-1.76-.15-1.67-.22-1.86,1.54-.23,2.15-.19,2.64-2.5,2.67h0ZM149.57,97.99v-2.83l6.03-6.18v2.74l-6.03,6.27ZM130.82,94.67l-1.31-1.98.43-3.68,1.12-.93-.79-1.75.25-2.15.31-.2,2.19,4.69-2.59,2.52,2.66,3.58-2.51,3.73,2.61,2.02-3.13,5.09c-.54.73-.57-2.16-.57-2.16l1.3-2.17-1.45-1.38h0v-3.43s1.51-1.81,1.51-1.81ZM129.17,96.33l-.14,4.62,1.13.97-.87,1.6.06,4.09.26.2c2.18,29.27,15.16,46.57,17.19,50.49,0,0,.45.4.37,1.41-.04.44-.05,3.02-.04,5.73.08,13.88-.02,23.38-.02,23.38l9.54,11.23-.06-4.11-.47-.37v-18.71s.4-.02.4-.02c0,0,.12-5.03.09-8.48l-.57-.02.03-12.85.48-.06-.03-8.33h-.53s-.12-8.73.07-12.98l.39-.03-.03-8.28-.44-.04-.03-11.84.55-.09-.15-7.82-.45-.03c-.16-4.83-.08-13.18-.08-13.18l.51-.03-.13-7.76-.37-.03.11-13.62.33-.04-.13-8.05-.36-.04.06-6.69.25-.05.06-2.5-.26-.66-.02-8.92.2-.1.06-4.48-14.8,16.52,5.45.18v5.34c0,8.81-.11,15.92.13,24.51.07.08.61.17,1.2.21,2.8.18,3.57.43,3.58,1.17.01.92-1.26,2.06-2.31,2.07-.24,0-.64.27-.64.27l.34,97.75,6.62,7.66-.03,2.43-8.16-9.53-.31-97.7-.31.16-.02,32.81c-4.18-6.9-6.53-13.75-8.85-20.59,0,0-.82.31-.86.33,0,0,.29.12.29.12,2.37,8.74,5.38,15.08,9.27,21.7l-.06,31.8c-9.97-15.55-14.79-29.53-16.8-49.68l5.05-2.78.49-.72,3.81-2.1.37.67,2.31-1.77c-1.79-3.44-1.72-8.38-.26-11l-.63-.43c-.04-.19-2.39,5.35.24,10.99l-1.72,1.17c-2.48-5.67-1.33-11.77-.16-13.34,0,0-1.8-1.26-3.09-2.04-1.4-.84-2.65-1.61-4.34-2.21-1.04-.47-1.7.08-1.69.09l-.5,3.16.8,1.21-.93.83-.42,4.84,1,1.12-1.03,1.26ZM41.98,95.04v-3.12l5.16-5.4v3.07l-5.16,5.45ZM149.57,91.7l6.03-6.11v2.54l-6.03,6.25v-2.68ZM44.04,87.54c-.58,0-1.06-.53-1.06-1.17s.48-1.17,1.06-1.17,1.06.52,1.06,1.17-.47,1.17-1.06,1.17ZM147.16,85.65v-28.8s1.59,0,1.59,0l-.07,29.15-1.51-.35ZM152.49,85.91c-.58,0-1.06-.52-1.06-1.17s.47-1.17,1.06-1.17,1.06.52,1.06,1.17-.47,1.17-1.06,1.17ZM45.54,84.8c-.58,0-1.06-.52-1.06-1.17s.47-1.17,1.06-1.17,1.06.53,1.06,1.17-.48,1.17-1.06,1.17ZM42.69,84.75c-.58,0-1.06-.52-1.06-1.17s.47-1.17,1.06-1.17,1.06.52,1.06,1.17-.48,1.17-1.06,1.17ZM150.84,83c-.58,0-1.06-.53-1.06-1.17s.48-1.17,1.06-1.17,1.06.52,1.06,1.17-.47,1.17-1.06,1.17ZM96.37,82.96c-5.51-.75-4.05-7.13-1.73-8.46,3.16-1.63,5.7,1.65,3.68,4.97-1.48,2.44-4.3.82-3.21-1.84.61-1.5,1.89-1.33,1.87.19-.45,1.45-.04.93.32.42,1.11-1.6-1.13-3.3-2.29-1.72-.71.97-.86,2.12-.62,3.04.41,1.57,2.06,2.49,3.92,1.04,2.22-2.94,3.41-6.75,4.07-11,1.4-9.06,1.47-18.59,2.67-21.01l1.31.03c-1.9,10.37-1.91,19.24-3.93,27.42-1,4.05-3.56,6.94-6.04,6.93ZM153.73,82.91c-.58,0-1.06-.53-1.06-1.17s.47-1.17,1.06-1.17,1.06.52,1.06,1.17-.47,1.17-1.06,1.17ZM131.36,82.75c1.45-.03,2.93-1.36,2.82-3.06-.14-2.06-1.24-2.98-3.06-2.77-.97.11-.95.13-1.6-1.17-.59-1.17-2.15-6.14-2.16-6.89.75,1.09,2.49,3.13,4.1,3.04,1.73-.14,3.19-1.95,1.88-4.51-.7-1.26-1.93-1.5-3.19-1.09-1.88-3.23-2.24-6.47-2.83-10.22,0,0-.74,8.04-.97,11.25-.43,4.91-1.04,8.1-2.76,11.99,1.44.91,2.97,1.63,4.52,2.29.61.26,1.26.27,1.87.7.42.31.9.45,1.39.43ZM43.92,82.1c-.58,0-1.06-.52-1.06-1.17s.47-1.17,1.06-1.17,1.06.53,1.06,1.17-.47,1.17-1.06,1.17ZM128.39,79.52c-1.09-1.95-2.15-4.77-2.25-6.55-.04-1.17.17-2.62.35-3.97.09-.67.32-.02.73,1.42,1.71,5.98,2.17,7.12,3.36,6.83.68-.17,1.38-.2,1.85.08,1.51.92,1.65,4-.56,4.59-1.74.42-2.86-1.29-3.48-2.41h0ZM128.43,81.01c-2.2-.95-3.6-2.39-3.2-4.74.18-.88.29-1.61.51-1.51.25.11.59,1.17,1.27,2.98.15.59,1.72,3.25,1.42,3.27ZM92.08,80.9c-.12.02-.3-.1-.55-.36-1.73-1.88-.79-6.12,1.51-7.34.95-.72,2.7-.6,2.71.09,0,.27-.05.34-.29.35-1.94-.02-4,2.96-3.43,6.13.07.48.2,1.11.05,1.13h0ZM152.44,79.87c-.58,0-1.06-.52-1.06-1.17s.47-1.17,1.06-1.17,1.06.53,1.06,1.17-.48,1.17-1.06,1.17ZM90.26,79.51c-.12.02-.54-.18-.82-.55-1.63-2.17-.31-5.87,2.26-7.13.98-.58,1.8-.18,1.6.42-1.75.8-3.4,2.87-3.22,5.7.07.99.37,1.53.19,1.56ZM124.84,79.12l-.59-.31.24-.57c.11.34.11.47.35.88ZM88.4,78.89c-.13,0-.42.05-.7-.24-1.05-1.13-1.22-4.3-.21-5.87.48-.74,1.95-2.07,2.39-2.21.51-.07.87-.15,1.72.27.29.01-.13.31-.67.65-1.91,1.22-3.18,3.39-2.84,5.43.21,1.26.55,1.96.3,1.97ZM86.47,77.86c-.51-.05-.9-.54-1.14-.96-1.25-1.99-.21-6.17,2.35-7.03,1.71-.58,2.35-.03.96.86-1.99,1.28-3.02,3.78-2.44,5.77.28.95.54,1.34.27,1.36h0ZM84.4,76.41c-.6,0-1.06-.51-1.27-1.04-.49-1.28-.42-3.08.23-4.35.64-1.26,1.87-2.31,3.24-2.46.36-.04.67.02.94.15.6.29.39.33-.74.98-1.8,1.04-2.86,3.2-2.59,5.58.1.89.43,1.13.2,1.13ZM149.57,76.84v-3.08l5.87-6.12v3.01l-5.87,6.19ZM99.67,76.44c-.11-.13-.78-1.88-.86-2.24,1.38-2.18,1.76-5.77,1.98-8.48.78-7.7,1.58-16.99,1.93-17.07l1.53-.04c-.58-.43-1.33,12.76-2.52,21.12-.09.66-1.36,7.1-2.07,6.71h0ZM81.9,75.08c-2.02-1.51-.94-6.21,1.87-7.37,1.02-.43,1.39-.49,1.85,0,.29.31.57.42-.17.71-2.07.6-3.54,2.73-3.19,5.22.04.6.56,2.2-.36,1.44h0ZM98.22,73.78l-.92-.65c.99-3.26,1.36-7.1,1.76-10.81.49-4.5.92-9.12,1.51-13.54l1.4-.06c-.73,2.73-1.07,10.35-1.8,16.73-.42,3.23-.88,7.68-1.96,8.33h0ZM96.63,72.71l-1.18-.75c.42-1.82.91-3.81,1.15-5.71.54-4.24.75-9.38,2-17.28l1.27-.12c-.32,2.54-.93,8.2-1.44,13.4-.6,6.04-1.54,10.61-1.8,10.47ZM149.57,72.92v-3.02l5.87-5.97v2.79l-5.87,6.21ZM94.64,71.76s-1.01-.63-1.14-.7c.76-3.34,1.14-6.44,1.51-9.47.51-4.08.88-8.05,1.59-12.54l1.36-.09c-.67,3.44-1.45,11.52-2.05,17.22-.35,3.31-1.08,5.65-1.26,5.58ZM126.97,64.96c-.02-2.28.44-5.82.44-5.82.18-.11.73,5.18,2.67,7.57,2.36-1.24,4.39,1.67,2.78,3.67-3.14,2.98-5.89-3.38-5.89-5.42ZM92.87,70.85l-1.64-.84c.2.04.59-1.21.97-3.16,1.15-5.93,2.29-17.62,2.48-17.62l1.27-.12c-.41,3.14-.97,8.1-1.56,12.49-.67,4.97-1.29,9.21-1.51,9.24h0ZM90.59,69.71l-1.25-.83c.11.09.56-1.39.78-2.41,1.12-5.92,1.63-11.1,2.32-16.84l1.36-.2c.1-.17-1.17,11.29-2.23,17.08-.36,1.98-.89,3.26-.99,3.19h0ZM88.64,68.68l-1.34-.73c1.45-4.54,1.59-8.88,2.98-18l1.41-.28c-.57,5.83-1.38,12.1-2.53,17.81-.16.77-.51,1.18-.52,1.2ZM86.73,67.61l-1.5-.67,3.15-16.73,1.27-.19c-.79,4.82-1.2,10.4-2.27,14.8-.23.93-.35,1.98-.65,2.79h0ZM152.22,64.96c-.58,0-1.06-.52-1.06-1.17s.48-1.17,1.06-1.17,1.06.52,1.06,1.17-.47,1.17-1.06,1.17ZM150.84,62.23c-.58,0-1.06-.53-1.06-1.17s.48-1.17,1.06-1.17,1.06.52,1.06,1.17-.47,1.17-1.06,1.17ZM153.59,62.15c-.58,0-1.06-.52-1.06-1.17s.48-1.17,1.06-1.17,1.06.53,1.06,1.17-.47,1.17-1.06,1.17ZM152.27,59.46c-.58,0-1.06-.53-1.06-1.17s.47-1.17,1.06-1.17,1.06.52,1.06,1.17-.48,1.17-1.06,1.17ZM142.7,55.56l12.69-14.18.04,2.83-8.7,9.42,8.76.15-.02,1.92-12.77-.14ZM148.52,52.86l6.8-7.16.06,7.28-6.85-.12ZM141.26,52.34s.04-.26-.6-1.49c-1.85-3.56-2.28-6.84-3.92-10.66-.82-2.09-2.65-4.19-3.06-4.31l2.04-4.12-57.61.13,9.22,17.77c14.64-2.99,27.79-2.47,40.15-.08.71-1.05,1.49-3.19,2.23-4.74,1.85,5.48,7.75,9.02,11.55,7.5ZM139.16,51.86c-3.04.05-5.58-1.55-7.83-4.94-.72-1.08-1-1.57-.99-2.02.08-.52,1.02-2.2,1.02-2.2,0,0,.55,1.66.68,2.47.82-3.33,1.14.53,1.46,1.55,1-3.21,1.54,1.2,1.49,2.4,1.36-2.06,1.27,1.32,1.93,1.95.02-1.79.97-.56,2.2-.18-.64-1-1.9-1.67-.3-1.89-1.6-1.22-2.4-1.03-.85-1.71-1.2-.73-3.17-1.61-.99-2.08-1.33-.93-3.47-1.32-1.17-2.2-1.74-1.17-4.05-1.09-.8-2.03-1.18-.76-3.26-1.05-.93-1.71-.36-.18-.98-.64-.98-.64l1.01-1.75s.36.03.61.32c1.07,1.23,2.11,3.49,3.03,6.67.68,2.33,1.5,4.8,2.4,6.84.48,1.08.44,1.14-.98,1.16h0ZM87.71,47.86l-7.96-15.04,1.89-.03,7.03,12.87,9.48-1.18-3.12-11.51,2.82-.08,2.8,11.32c5.29-.24,10.35-.3,14.75.09l1.49-11.49,2.69.1-1.7,11.37,8.9,1.26,4.83-12.75,2.78-.06c-1.79,3.34-6.28,14.13-7.11,15.19-19.39-3.42-29.45-1.58-39.56-.06h0ZM89.57,44.37l-6.03-11.57,9.68-.05,3.25,10.71-6.91.91ZM125.8,44.03c-1.91-.61-3.97-.75-6.04-.83l1.76-10.35,8.58.02-4.3,11.16ZM101.65,42.81l-2.28-10.05,16.15-.09-1.33,10.02c-4.24-.28-8.38-.02-12.54.12Z"/>
    </g>
    <g id="Center_Symbols_J" data-name="Center Symbols J">
      <g>
        <use width="30.47" height="32.54" transform="translate(47.18 40.39)" xlink:href="#Club"/>
        <use width="30.47" height="32.54" transform="translate(150.1 228.89) rotate(-180)" xlink:href="#Club"/>
      </g>
    </g>
    <g id="Corner_Symbols_J" data-name="Corner Symbols J">
      <use width="30.47" height="32.54" transform="translate(19.58 46.74) scale(.5)" xlink:href="#Club"/>
      <use width="30.47" height="32.54" transform="translate(177.7 222.54) rotate(-180) scale(.5)" xlink:href="#Club"/>
    </g>
  </g>
  <g id="Club_Corner_Characters" data-name="Club Corner Characters">
    <g>
      <use width="14" height="33.12" transform="translate(176.51 254.75) rotate(-180)" xlink:href="#Black_J"/>
      <use width="14" height="33.12" transform="translate(20.77 14.53)" xlink:href="#Black_J"/>
    </g>
    <use width="181" height="253" transform="translate(8.14 8.14)" xlink:href="#boundary"/>
  </g>
</svg>