<?xml version="1.0" encoding="UTF-8"?>
<svg id="Clubs" xmlns="http://www.w3.org/2000/svg" xmlns:xlink="http://www.w3.org/1999/xlink" viewBox="0 0 197.28 269.28">
  <defs>
    <style>
      .cls-1 {
        fill: #262964;
      }

      .cls-1, .cls-2, .cls-3, .cls-4 {
        stroke-width: 0px;
      }

      .cls-2 {
        fill: #d2232a;
      }

      .cls-3, .cls-5 {
        fill: #000;
      }

      .cls-6 {
        fill: none;
        stroke: #000;
        stroke-miterlimit: 10;
      }

      .cls-4 {
        fill: #e1cf20;
      }

      .cls-5 {
        font-family: ArialMT, Arial;
        font-size: 28px;
      }
    </style>
    <symbol id="Black_K" data-name="Black K" viewBox="0 0 18.68 33.12">
      <text class="cls-5" transform="translate(0 24.03)"><tspan x="0" y="0">K</tspan></text>
    </symbol>
    <symbol id="Club" viewBox="0 0 30.47 32.54">
      <path id="path147-0-8-1-6-1-1-0-9-1-8" class="cls-3" d="M15.23,0c-6.65.14-9.63,7.63-4.7,13.44.71.85.79,1.33-.52.52C6.69,11.74.34,13.2.01,19.98c-.4,8.35,11.26,10.75,13.45,1.88.12-.94.88-.92.69.41-.2,3.61-1.33,6.98-2.88,10.27h7.9c-1.55-3.29-2.68-6.66-2.88-10.27-.18-1.33.58-1.35.69-.41,2.19,8.88,13.86,6.47,13.45-1.88-.33-6.78-6.68-8.23-10-6.02-1.31.81-1.23.33-.52-.52C24.86,7.63,21.88.14,15.24,0c0,0,0,0,0,0h0Z"/>
    </symbol>
    <symbol id="boundary" viewBox="0 0 181 253">
      <rect class="cls-6" x=".5" y=".5" width="180" height="252" rx="15" ry="15"/>
    </symbol>
  </defs>
  <g id="Club_Symbols" data-name="Club Symbols">
    <g id="King_Face" data-name="King Face">
      <path id="path3450-5-0-3" class="cls-4" d="M133.85,32.74l-58.55.32,7.44,15.61c15.22-1.52,28.55-.17,42.45.33l8.67-16.26ZM93.86,87.61c-.06.09-2.44.77-2.19,1.37,6.2,14.71,8.97,26.67,11.56,41.79,1.31-1.18,3.43-1.13,3.43-1.13-1.04-5.61,5.34-6.31,5.38-.44,1.23.32,2.49.32,3.59,1.69.5-16.52,5.85-33.61,12.76-45.45-7.87,3.45-19.43,12.06-19.43,12.06,0,0-9.61-4.4-15.1-9.88h0ZM141.72,89.37c-10.48,11.02-14.58,41.61-13.83,42.03-13.51-.5-17.6,16-5.89,24.89-.46,1.73-1.61,3.13-2.49,4.65,1.21.77,2.53.93,3.84,1.09,1,1.31,1.98,2.83,3.07,2.95,1.18-.82,2.02-2.02,3-3.07,1.22-.34,2.44-.73,3.6-1.31-1.03-1.59-2.25-3.2-2.28-4.69,10.18-7.95,8.78-18.76-.39-24.29,2.73-18.2,6.72-29.83,11.35-38.1l.03-4.15ZM69.55,103.43c-1.33.72-2.06,2.24-3.02,3.43-1.33.07-2.6.57-3.87,1.19,0,0,3.04,4.65,2.85,4.9-9.85,7.14-9.77,17.58-.31,24.46,1.6,14.86-9.8,38.37-10.37,37.69l-.02,4.86c8.11-9.82,12.75-27.56,13.21-41.88,16.2-1.19,16.78-18.53,5.62-25.05-.86-.87,2.8-4.9,2.8-4.9-.93-1.01-2.48-1.13-3.85-1.25-.86-1.14-1.61-2.27-3.04-3.44ZM138.07,115.43c2.29,5.64,10.66-1.23,12.11,1.77,1.18,1.7,3.75,1.88,3.61-.99-.48-2.84-2.17-3.47-8.87-2.23-2.54.47-3.58.75-3.57-.54-1.76-2.35-3.27.85-3.28,1.99ZM145.84,123.67c-1.88,0-2.2,8.13-2.17,10.58-5.44,9.51,11.16,8.43,3.98-1.93.25-1.35-.91-3.56-.88-4.54-.59-.08-.85-3.76-.93-4.11ZM48.7,135.94c-.17,2.46,1.46,9.93,2.06,9.68,2.13-3.79,1.87-7.04,1.65-10.74,5.07-10.8-12.24-6.36-3.71,1.07ZM80.28,137.67c-.76,15.89-4.27,31.48-12.24,45,6.86-3.54,13.51-8.11,19.95-12.02l15.05,10.32c.87-.42,1.47-.63,2.05-1.26-6.93-11.23-9.08-27.4-12.1-42.03-1.15.9-3.31,1.36-3.31,1.36-.15,5.07-4.96,6.72-5.94.1l-3.46-1.48ZM43.96,150.07c-1.6.11-2.81,4.51,1.73,5.17,3.21.5,7.32-1.25,9.36-.44,2.37,4.19,4.5-1.98,1.33-2.98-3.4-1.08-10.33,1.74-11.1-.66-.39-.82-.87-1.12-1.32-1.09ZM71.25,218.9l-9.08,17.76,58.04-.39-7.59-16.94c.13-.19-25.35,3.36-41.37-.43Z"/>
      <path id="path3446-6-3-4" class="cls-2" d="M83.64,50.36l1.15,2.31c13.59-2.48,24.3-2.87,38.36.14l1.28-2.41c-12.84-2.56-25.93-3.62-40.8-.05ZM96.46,85.17l11.86,8.5s5.68-4.45,8.1-6.33l-1.47-2.39c-5.02,12.25-13.84,2.56-17.14-3.2,0,0-.9,2.23-1.35,3.42ZM128.32,89.28c.82-.02,1.28.33,1.69,1.26.47,1.05.64.79.34-.52-.47-2.06,1.5-3.4,3.36-2.02,1.34.99,1.28,3.39-.18,3.84-1.18.36-1.22.7-.17.65,1.87-.1,2.36,2.66,1.03,4.01-1.53,1.55-3.47.45-3.65-1.49-.08-.55-.19-.54-.35-.23-.47.9-.51,2.07-.42,3.12l-2.76-1.9c.98-.54,1.58-.86,2.29-1.68.09-.11.16-.18.16-.23,0-.08-.31.03-.87.09-1.67.19-2.95-1-2.61-2.74.29-1.48.98-2.12,2.14-2.15h0ZM116.16,137.24c3-3.8,6.73-6.24,11.91-5.9.66-15.93,5.65-30.1,13.63-42.87l-8.79-5.85-3.53,2.36c-8.12,13.38-13.67,30.23-13.23,52.27ZM50.29,100.01s-5.95,4.94-8.71,7.32l.13,43.94.77.29c.05.09-.07-.65.29-.99.29-.28.74-.59,1.02-.7.76-.31.8-.87.09-1.36-.55-.38-.76-.96-.7-1.94.04-.69.02-.84-.24-1.3-.32-.58-.35-1.31-.08-2.07.13-.35.11-.45-.11-.93-.29-.61-.32-1.26-.11-1.97.08-.27.14-.86.13-1.31-.03-1.75,1.28-2.91,3.68-3.28.94-.14.97-.19.54-1.06-2.44-4.94,3.04-7.51,3.45-6.72l-.15-27.92ZM125.34,102.46c2.23-.04,4.06,1.93,4.09,4.4.03,2.47-1.75,4.5-3.97,4.53s-4.06-1.94-4.09-4.4c-.03-2.47,1.75-4.49,3.97-4.53ZM125.38,103.26c-1.78.03-3.2,1.65-3.18,3.63s1.49,3.55,3.27,3.53,3.21-1.65,3.18-3.63-1.49-3.55-3.28-3.52ZM125.46,104.39c1.21-.02,2.2,1.05,2.22,2.39.02,1.34-.95,2.44-2.16,2.46s-2.2-1.05-2.22-2.39.95-2.44,2.16-2.46ZM45.45,106.22c.16,0,.34.02.52.09,1,.35,1.36,1.33.81,2.26-.43.73-.38.79.37.48.59-.24.89-.17,1.35.34,1.39,1.53-.68,4.09-2.04,2.54-.67-.77-.74-.54-.27.78.15.43.4,1.09.4,1.09l-2-.03s.31-.88.45-1.3c.35-1,.36-1.15-.36-.52-1.62,1.42-3.47-1.01-1.97-2.6.3-.32.79-.34,1.47-.04.49.22.55.07.18-.45-.81-1.12-.06-2.62,1.09-2.64ZM86.82,110.16c-.81,5.89-.1,14.15-.12,18.57,2.16.46,2.19,2.09,2.52,4.12,1.05-.41,3.35,1.32,3.67,1.16.24-5.97-2.56-23.31-6.07-23.85ZM122.73,116.06c3.07.27,2.48,2.9,1.57,3.98-.43.55-.35.8.12.48,1.3-.87,2.33-.24,2.75,1.25.71,2.56-2.32,4.76-3.67,2.46-.46-.78-.74-.6-.63.21.07.78.76,2.41.76,2.41l-3.01-.3s.92-1.7,1.08-2.15c.34-.95.16-1.2-.49-.44-1.89,1.91-4.5-.54-3.28-3.07.6-1.25,1.71-1.65,2.9-.66.81.58.98.33.26-.38-1.35-1.32-.17-3.97,1.64-3.81h0ZM45.6,118.15s.07,0,.1,0c.26,0,.53.08.8.25.75.47.95,1.39.48,2.19-.27.46-.19.75.12.45.42-.4,1.35-.14,1.71.49.93,1.61-.89,3.72-2.05,2.38-.51-.59-.71-.62-.65-.23.17.73.6,1.98.6,1.98l-2.09.04s.45-1.31.55-1.98c.08-.53-.11-.45-.61.17-.48.6-.92.67-1.54.21-1.52-1.12-.3-3.99,1.28-3.02.55.33.62.14.2-.49-.76-1.12.02-2.4,1.08-2.46h0ZM153.98,117.13c-3.38,3.87-2.32,1.58-.75,4.53,0,1.94,1.03,3.47.22,6.54-.26.6-.28.88-.14,1.49-.25,3.39-2.7,3.35-5.08,3.87.4-.03,3.78,6.89-2.53,7.43l.07,28.13,9.89-8.08-.04-43.91h-1.63ZM79.77,131.98c-2.8,2-6.74,7.01-11.7,5.92-.6,17.55-5.8,31.14-13.22,42.82,2.56,1.68,5.38,3.69,8,4.98,2.21-1.27,3.46-1.79,5.63-3.77,8.92-15.26,11.74-31.94,11.28-49.94ZM103.05,135.19c.5,9.01,1.82,17.55,6.06,24.4l.29-19.16c-1.51-.4-2.74-1.48-3.18-4.54l-3.16-.7ZM72.46,140.51l2.83.07s-.64,1.42-.92,2.21c-.34.97-.18,1.16.47.49.84-.88,2.18-.96,2.88-.18,1.87,2.07-.09,5.46-2.3,3.97-.95-.63-1.1-.42-.35.48,1.46,1.5-.06,3.66-1.77,3.67-1.23,0-2.03-1.1-2.13-2.3-.05-.76.3-1.52.89-1.89.62-.39.18-.64-.5-.24-2.2,1.31-3.66-2.05-2.01-3.96.96-1.1,1.97-1,2.94.05.68.73.92.67.73-.2-.19-.98-.76-2.18-.76-2.18h0ZM148.8,143.14h2.03c-.2.56-.46,1.12-.62,1.67-.17.6-.05.67.49.1,1.4-1.04,2.89,0,2.58,1.65-.21,1.14-1.07,1.69-2.06,1.2-.87-.43-.59-.25-.1.41.59.79.44,1.71-.34,2.32-1.38,1.08-3.21-.71-2.29-2.27.54-.93.29-.83-.2-.38-.74.6-1.85-.25-1.87-1.42-.09-1.69,1.45-2.64,2.54-1.44.52.48.64.42.41-.28-.21-.51-.28-1.05-.57-1.55ZM148.91,155.41l2.12-.03s-.03.18-.36.86c-.38.8-.33,1.63.08,1.07.68-.95,2.12-.68,2.59.47.55,1.35-.52,2.84-1.63,2.28-.72-.37-.77-.29-.29.48.47.75.26,1.67-.5,2.2-1.49,1.05-3.28-1.05-2.04-2.4.33-.36.23-.54-.18-.29-1.65.99-2.86-1.47-1.44-2.92.61-.61,1.07-.57,2.07.19.31.24.37,0,.15-.61-.38-1.03-.57-1.31-.57-1.31ZM70.07,156.89c2.36-.04,4.31,2.05,4.34,4.67s-1.85,4.77-4.22,4.81-4.31-2.06-4.34-4.67c-.03-2.62,1.86-4.77,4.22-4.81ZM70.12,157.73c-1.94.03-3.49,1.8-3.47,3.95.03,2.15,1.63,3.87,3.57,3.84s3.49-1.8,3.47-3.95c-.03-2.15-1.63-3.87-3.57-3.84ZM70.16,159.23c1.2-.02,2.18,1.04,2.19,2.36s-.94,2.42-2.13,2.43-2.18-1.04-2.2-2.37c-.02-1.32.94-2.41,2.13-2.43ZM64.78,170.72l2.47,1.34s-1.17,1.05-1.63,1.6c-.59.7-.55,1.03.25.69,1.53-.64,3.06.32,3.09,2.08.04,2.35-2.47,3.48-3.67,1.7-.36-.53-.79-.75-.62-.32.41,1.05.16,2.37-.55,2.92-.57.44-1.61.56-2.13.26-1.8-1.04-1.9-3.34-.17-4.25.87-.46.9-.89.04-.65-1.78.49-2.81-1.89-1.53-3.53,1.36-1.74,3.58-1.38,3.82,1.19.04.46.32.13.45-.57.15-.52.18-2.46.18-2.46ZM87.81,174.58s-9.05,5.7-8.77,5.94c.05.03,2.01,3.08,2.01,3.08,4.49-11.27,15.24-1.94,16.96,3.82.37.25.44.18.84.38.04-.41.78-4.4.78-4.4l-11.82-8.82ZM72.98,216.19l-1.46,2.3c-.5.24,22.55,4.56,40.74.17l-1.26-2.65c-14.81,4.19-38.26.47-38.03.18h0Z"/>
      <path id="path3444-9-5-7" class="cls-1" d="M40.14,31.14v207s117,0,117,0V31.14s-117,0-117,0ZM75.22,32.74l58.74-.25-10.86,20.59c.1-1.09-21.11-4.41-38.45-.35l-9.44-19.99ZM41.79,33.22h31.94s10.77,21.37,10.77,21.37c0,0,.63,1.33.25,2.73-.41,1.52-.77,2.2-1.14,2.98.04-.44-3.1-.88-2.84,2.1.18,2.02,2.48,3.16,4.2,1.59.27-.03.27.26.21.75-.16,1.16-1.27,4.82-2.03,5.07-3.87-3.51-5.25,2.9-2.64,4.18,1.51.74,3.83.13,4.92-1.88.83-1.54.74-1.28,1,.58.1.69.23,1.5.31,1.86.22,1.13,0,1.35-1.72,1.86-1.38.6-2.78.93-4.21,1.27-2.61.47-3.94,2.65-4,5.3-.01.57,0,.84-.11,1.01-11.03,4.64-22.63,11.12-34.92,22.2V33.22ZM115.12,84.04c-.42-.75-1.75-4.68-2.12-6.32-.96-7.95-1.14-17.38-2.16-24.78l1.35.17s.51,2.14,1.05,7.93c.27,2.87.55,8.83.78,11.58.34,4.07,2,10.59,3.03,12.23,1.68,2.68,5.05.95,3.92-2.24-.59-1.65-2.85-1.38-2.54.33,0,.31.22-.22.55-.54.98-.41,2.08.72,1.51,2.08-.71,1.74-2.83.94-3.53-1.24-.84-2.62,1.98-4.58,4.1-2.98,2.35,1.78,2.36,6.28.46,7.7-3.19,1.29-5.35-1.29-6.4-3.91h0ZM123,87.35c-.13-.08,0-.36.16-1.01.59-2.43.22-4.33-1.2-6.12-.79-1-1.09-1.17-.67-1.35.88-.38,2.82,1.18,3.35,2.71.53,1.51.66,3.06-.08,4.77-.52.37-1.32,1.1-1.55.99ZM125.41,85.73c0-.28.17-1.18.21-1.62.15-1.7-.56-3.42-1.83-4.76-1.06-1.13-1.16-1.25-.15-1.27,2.59-.05,4.25,4.6,3.05,6.89-.31.36-1.25,1.11-1.28.76ZM127.6,84.16c.76-3.96-2.69-6.6-2.76-6.48.17-.89,1.55-.38,2.01-.03,1.75,1.3,2.75,4.7,1.68,6.63-.12.24-.26.37-.45.5-.36.25-.57.45-.65.28-.06-.13.14-.71.17-.9h0ZM97.17,71.3c.36-.39.47-.4,1.16-.11,2.18.91,3.91-.82,3.4-2.64-.19-.66-1-1.37-1.5-1.43-.82-.09-.84.39.05.75,1.09.45,1.2,1.73.24,2.3-1.12.84-2.96-1.29-4.31-1.11-.64.21-1.06.88-.69,1.7.29.57,1.26.92,1.65.54ZM94.76,71.04c-.75-.39-1.04-.38-.9-1.29.09-.6.87-4.64,1.24-6.2,1.1-4.68.07-7.27-3.05-8.32-2.11-.71-3.93-.35-6.08.92l-.39-1.32c9.02-2.61,24.41-2.03,24.36-1.93.3,1.35.42,2.69.54,4.04,0,0-2.88-1.57-4.39-2.09-2.32-.79-5.98.08-6.63,1.55-.37.84-.18,1.39,1.38.46,2.55-1.52,7.75-.36,9.59,1.25.42.37.4.45.41.89.01.66.05.7-.79.21-4.37-2.48-8.11-2.19-9.4,1.06-.3-.1-1.43-.32-1.43-.32l1.22,2,.23,2.09s1.99,1.22,3.09,1.74c1.08.51.46-.03-.87-1.05-.97-.75-.2-.99.44-.7,1.32.34,3.25.76,5.49-.81.69-.49,2.28-.06,2.31.16,0,0,.21,1.83.42,5.64.1,1.8.3,4.16.41,5.13.34,2.92.44,3.09-.94,1.69-.47-.47-1.24-1.25-1.25-1.2-.18.91,1.87,2.5,2.35,3.04.72.83,1.3,2.95,1.01,3.08-.18.08-2.13-1.75-3.66-3.39-.57-.62-1.43-1.44-1.45-1.41-.32.23.97,1.84,2.17,3.04,1.4,1.4,1.57,1.53,1.09,1.74-.87.39-1.66-.1-3.77-2.03-.21-.19-1.01-.82-1.05-.77-.19.29,1.76,2.33,2.2,2.51.82.33,1.06,1.21.41,1.55-.43.23-2.05-.75-3.34-1.99-.23-.22-.88-.6-.92-.55-.26.18,1.19,1.57,2.57,2.49,1.35.9,1.57,1.13,1.22,1.88-.32.77-3.29-1.02-4.78-2.86-.32-.39-.57-.56-.5-.43.65,1.99,2.78,3.41,4.36,3.98.28.1.69.23.88.39.45.4.35.81-.14,1.04-1.69.52-4.35-1.74-6.26-4.11-.22-.1-.09.21-.03.31,1.59,2.81,4.63,4.95,6.46,4.55,1.07-.23,1.93.12,1.94.52,0,.33-.58.85-1.74.94-2.61.21-6.68-2.95-9.06-6.98-.07-.13-.16-.17-.17-.1-.06.85,1.42,2.94,2.55,4.14,3.38,3.55,6.57,4.76,9.05,2.75,1.4-1.2,2.76-3.84.67-4.72-1.11-.47-1.81,1.22-.86.74,1.24-.17,1.53.57,1.36,1.25-.32,1.18-1.37,1.37-2.23.87-1.49-.9-1.18-3.97.76-4.5,1.74-.47,3.26,1.17,3.46,2.72.31,2.41-2.14,5.02-4.11,5.67-6.71,2.21-11.96-8.12-11.99-8.36-.34-.72-.74-1.1-1-.26-.27,1.21-1.79,4.77-2.6,4.75.25-1.25,1.32-3.36,1.06-5.21-.45,1.52-1.39,4.75-3.2,6.48-.47.47-1.84,1.03-.9-.19,1.14-1.78,2.64-4.21,2.33-6.5-.3.51-.47,1.81-.82,2.67-.87,2.15-2.76,4.7-4.02,5.11-.92.3-.84-.04.11-1.15,1.01-1.18,2.81-4.66,2.69-6.16-.05-.66-1.86,5.72-5.27,7.47-.92.37-1.44-.1-1.44-.1,1.34-.85,5.04-4.89,4.69-9.49,0,0-.2.68-.49,1.7-1.25,4.38-3.95,7.26-6.05,7.5-1.68.19-2.85-.56-2.43-.89,2.17.02,3.96-.81,5.36-3.16,1.42-2.39,1.95-6.22,1.09-10.28-.78-3.66-.95-6.95-1.22-10.47,2.38.9,4.78,1.5,7.1.5-.23,1.05-.62,1.18-1.23,1.97-.44.58-.29.72,1.44-.64.5-.39.69-.71.78-.61.15.17-.08,1.25-.59,3.4-.75,3.22-.56,3.45,2.23,4.66.52.23.71.45.9.69.09.11.54,1.03.59,1.06.1.08.08-.93.02-1.19-.15-.68-.48-1.18-.77-1.38-.55-.56-1.34-.61-1.84-.86h0ZM147.42,113l.03-3.34,2.93,2.3-.04,1.1-2.92-.06ZM142.41,113.73l-.11-61.77s2.25-1.65,3.37-2.47c.7,2.45.7,7.7.43,10.04-.44,1.52-.64,8.3-.14,11.75.4,2.75.32,7.3-.05,9.47-.15.85-.03,4.84.24,8.52.21,2.82.15,5.38-.16,6.85-.24,1.16-.16,5.3.12,6.88.41,2.34.48,9.84.29,10.25-.48.61-4.26.69-4.01.48ZM146.86,49.08s2.26,1.66,3.36,2.48l.02,2.66-3.27-2.37-.1-2.78ZM113.07,53.38l1.4.1c.56,3.22.8,6.87,1.02,10.54.07,5.65.7,11.61,1.9,15.52l-1.03,1.2c-1.75-4.48-1.89-11.54-2.28-16.32-.17-5.38-.97-11-1.01-11.03h0ZM147.14,52.82l3.04,2.28.03,2.89-3.07-2.25v-2.92ZM115.09,53.59l1.23.15c.37,3.82.95,6.41,1.17,10.62.28,5.44,1.13,9.91,1.66,14.16l-.92.34c-.62.31-1.64-4.71-2.09-14.89-.14-3.08-.61-6.55-1.04-10.38h0ZM116.95,53.74l1.47.29c.65,9.67,1.68,18.75,2.75,23.95l-1.28.09c-1.58-7.44-1.69-16.04-2.94-24.33h0ZM119.07,54.08l1.35.26c1.62,22.11,2.62,21.82,2.94,22.69l-1.46.66c-1.58-6.35-1.9-15.31-2.83-23.61h0ZM125.2,75.79c-.23.74-.78.68-1.37.75-.67-2.03-1.06-4.45-1.34-6.83-.62-5.21-.84-10.09-1.48-15.23l1.61.18c-.05.04,1.14,18.13,2.58,21.12h0ZM90.57,56.36c2.12.11,3.88,1.17,4.05,2.71.04.35-.21.18-.5-.07-1.82-1.55-3.9-2.03-6.41-1.03-.55.22-.99.56-1.24.51-.22-.16-.29-.53-.12-.84.58-1.08,3.16-1.34,4.21-1.29ZM85.65,59.46c.05,2.44-.49,3.78-1.64,4.34-1.39.68-3.18-.78-2.31-2.4.66-1.23,1.78-.86,2,.43l1.77-4.36s.18,1.38.19,1.99h0ZM150.24,59.07l-.02,2.51-3.26-2.42.22-2.41,3.06,2.32ZM92.35,58.74c1.61.71,2.2,1.57,2.26,1.95-.09.29-.25.09-1.43-.61-1.81-1.23-4.16-1.43-6.23.13-.52.11-.57-.21-.05-.83,1.58-1.37,3.76-1.39,5.46-.64ZM104.56,58.27c1.41-.05,3.11.35,4.53,1.14.63.35,1.2.57,1.61.97.33.19.35,1.02.11,1.08-.22.03-.57-.15-1.09-.56-3.39-2.44-5.84-2.14-7.8-.64-.11.08-.45.17-.58.16-.37-.03-.39-.2-.24-.43.91-1.14,2.27-1.69,3.45-1.73h0ZM146.97,60.03l3.27,2.53v2.49s-3.48-2.68-3.48-2.68l.21-2.34ZM87.94,61.04l.48.02c1.11,2.99,2.51,1.45,3.09.25l.58.1c-.91,4-4.61,1.91-4.15-.37h0ZM87.12,61.44c.54.07.52.75.69,1.24.38,1.1-1.06.17-1.3-.1-.42-.49.18-1.09.61-1.14ZM103.31,61.33c1.41,2.38,2.22.97,3.03-.07l.38.14c-.1,1.71-2.69,3.53-3.92-.03l.51-.04ZM107.64,61.59c.15,0,.45.12.73.25.77.35.73.6-.12,1.02-1.37.67-1.84.76-1.43-.19.24-.43.39-1.01.82-1.08h0ZM102.29,61.96c.34.28.57.59.61,1.09.03.35-1.04-.05-1.04-.62.03-.36.21-.65.43-.47ZM92.84,62.09c.7.29.62.66.13.99-.88.54-1.25.43-.69-.42.26-.39.32-.57.56-.58ZM146.75,63.34l3.54,2.76-.03,2.53-3.54-2.67c-.16-1.09,0-1.81.03-2.62h0ZM85.54,67.26c.17,0,.23.62.27,1.52.07,1.49-1.31,3.58-2.7,4.29-1.67.86-3.46-.35-3.16-2.14.28-1.65,2.4-1.72,2.48-.19-.21.4.08.74.2.7.55-.16,1.83-1.44,2.36-2.88.2-.56.33-1.13.47-1.26.03-.03.05-.04.08-.04ZM146.65,66.8l3.54,2.86.02,2.52-3.51-2.67c-.14-1.12-.08-1.92-.05-2.7h0ZM103.71,70.78c-.27.5-.05,1.39.5.63,1.41-1.82,3.45.46,2.36,1.9-.99,1.31-2.21.89-4.79-.2-1.88-.79-2.17-.52-2.64.05-.38.47-.19,1.42.31,1.41,1.52.38,2.84.76,4.41,1.12,3.33.76,5.36-3.99,2.32-5.74-.73-.42-2.23.13-2.47.83ZM89.02,71.33c-1.3,1.29-.23,4.68,1.68,4.98.4.06,1,.05,1.68-.17,1.34-.43,2.81-1.3,2.87-1.81.27-2.32-2.84-.24-3.25.04-.98.66-2.02.58-2.55-.21-1.18-1.77.94-3.8,2.22-1.63.32.55.21-.38-.14-1.01-.5-.89-1.79-.83-2.5-.18ZM146.89,70.6l3.33,2.6-.02,2.42-3.23-2.58-.08-2.45ZM147.14,74.14l3.15,2.51.05,2.52-3.31-2.41c.06-.91.08-1.76.1-2.62h0ZM129.47,75.59c2.77.05,4.33,4.58,2.87,6.47-.43.56-.78.71-.98.5-.04-.05.03-.55.06-1.13.09-1.83-.26-3.08-1.47-4.47-.91-1.04-1.25-1.36-.48-1.38ZM95.37,76.31c-.52.21-1.08.63-1.51.52-.42-.1-.63.13-.79.5-.63,1.41-.44,1.86.82,1.06.6-.38.81-.24,2.4.09,1.14.24,1.92.21,2.92-.07,1.25-.36,1.99-.39,2.62,0,.63.38,1.06.91,1.08.48-.07-.5-.47-1.79-.56-2.21-.04-.21-.35-.02-.65,0-1.03.08-2.27-.95-3.07-.4-.64.44-.72.55-1.6-.02-.65-.42-1.11-.16-1.67.06ZM128.73,76.63c1.88,1.74,2.36,3.27,2.17,4.54-.09.92-.15,1.93-.97,2.49-.15.08-.37.13-.58.16.63-2.61-.11-4.95-2.76-7.44.77-.42,1.56-.28,2.14.25ZM86.43,76.62c.08,0,.17.01.27.05.33.12.38,1.06.12,1.36-.26.3-.46.05-.76-.7-.22-.41.01-.71.37-.71ZM84.69,77.36c.68-.02.94.68,1.06,1.23.1.47-.03,1.88-.39,1.39-.09-.3-.46-1.26-.76-1.51-.66-.56-.6-1.09.08-1.11ZM82.77,78.06c.1,0,.23.01.38.04,1.07.2,1.89,2.08,1.64,3.15-.57,1.15-.78.37-.96-.67-.15-.43-.58-1.11-.85-1.46-.56-.73-.64-1.05-.21-1.06ZM147.04,77.51l3.26,2.58v2.77s-3.4-2.54-3.4-2.54c.08-.97.11-1.9.15-2.81h0ZM80.65,78.63c1.59-.03,2.96,2.06,2.45,4.04-.62,2.06-3.73,1.62-3.21-.43.15-.59.72-1.03,1.26-.65.79.54.7-.34.2-.65-.77-.48-1.83-.19-2.07.78-.82,3.37,3.08,4.52,5.21,1.04.78-1.27,1.62-2.63,2.09-3.21.42-.52.51-.47.44.21-.27,3.13-2.24,7.04-5.93,6.83-3.59-.38-4.71-4.6-2-7.23.51-.42,1-.69,1.55-.7ZM99.67,78.8c-1.31.7-2.5.97-3.8.35-.96-.46-.94.04-.53.45,1.2,1.13,3.38.62,4.32-.02.3-.21.4-.81,0-.78h0ZM150.31,83.8v2.52s-3.62-2.7-3.62-2.7c-.06-.6,0-1.52.12-2.46l3.5,2.64ZM146.81,84.64l3.46,2.52.09,2.49-3.36-2.31-.19-2.71ZM147.05,88.14l3.31,2.53.05,2.72-3.27-2.39-.08-2.87ZM66.44,91l-2.02,6.77,1.32.09.89,1.79.92-1.83,1.39-.12-2.51-6.7ZM147.19,91.91l3.19,2.43.05,2.51-3.31-2.53.08-2.4ZM147.06,94.99l3.27,2.61.06,2.67-3.7-2.73.37-2.55ZM73.99,96.5l-2,7.25,1.13-.17,1.06,1.94,1.07-1.74,1.01.06-2.26-7.34ZM58.91,97.04l-1.91,7.21h1.28s1.08,1.81,1.08,1.81l.95-1.75,1.45-.04-2.85-7.22ZM146.63,98.36l3.83,2.98.03,2.84-3.72-2.76-.15-3.06ZM150.42,105.1l.04,2.48-3.23-2.54-.35-2.76,3.53,2.82ZM82,105.53l-2.34,7.32,1.57.02.95,1.76.76-1.77h1.26s-2.2-7.33-2.2-7.33ZM147.45,106.26l2.99,2.27-.02,2.55-2.95-2.19-.02-2.64ZM90.74,135.89l-1.7-1.81c-.02-.15,1.39-.91,2.27-.42,1.15.64,1.74,2.93.45,4.14-1.02.96-2.59.16-2.62.05l1.61-1.95ZM89.23,132.9c.03-2.8-1.3-3.52-2.4-4.09,0,0-.18-17.77-.16-18.3,0,.08-.28-1.92-.31-2.04h0s-.26-.08-.26-.08c.05,1.8.15,20.26.13,20.38-2.06.26-2.64,1.81-2.83,3.89-1.61-.13-2.66.94-2.69,1.12-.59-.9-.15-2.24-.62-3.18-1.43,5.52,1.35,8.83,3.77,8.52.39,5.3,5.66,6.26,5.48-.17,6.38-.41,4.22-6.91-.1-6.05ZM59.25,110.59l-2.31,7.17,1.62-.2.59,1.32c2.59-2.53,3.9,1.38,2.58-1.98l-2.48-6.32ZM147.05,123.36c.3-.02.69.27.77.68.06,1.21-1.41.94-1.46.17-.03-.54.41-.83.69-.85ZM148.01,131.23c.63-.58,1.64-.25,1.66.62.01.77-.78,1.02-1.4.59-.48-.33-.51-.93-.25-1.21h0ZM148.1,133.37c3.47.29,6.06-2.32,4.95-4.2.93-1.3.17-2.05.43-2.79.74-.84.12-2.64-.06-2.65-.15-2.42-.78-2.73-1.73-4.01-.28-.37.66-.74,1.02-1.38-1.11.33-1.7-.29-2.31-1.12-6.43.33-12.21.83-11.99,10.49-.93,4.1.64,7.75,5.13,6.63.98-.97.34-2.38.21-3.06-.38-1.86.06-3.08.18-3.95.38-2.7,2.17-5.21,2.36-.97.31-.53.17-.61.68-.83,1.23-.49,1.23.89.98,1.44-.16.29-.41.26-.66.23-.36-.05-.83-.19-.83-.34-.1.44.65,1.26.57,1.67-.1.39-.16.36.17.1,1.55-1.23,2.52,1.51.28,1.2,1.1.65-.53,2.56.61,3.54ZM145.81,118.62c1.22-.07,1.51-.08,1.46.63.23,1.31.53,1.92,2.07,1.78,1.55-.22,2.04-.33.48.71-.79.38-1.04.46-1.98.37-.94-.09-.87-.2-1.41.16-.3.2-.63.44-.87.49-.36.07-1,.23-1,.23-.36,2.03-.91,3.06-1.67,4.02-1.08,1.35-1.62,1.59-.3,1.49.49.03.24-.24.45,1.95.07.77.2,1.66.31,1.96.34,1,.39,1.49-.91,1.57-3.25.27-4.01-3.23-3.58-5.03.04-.28.19-1.21.22-1.95.02-.4-.06-.75-.05-1.16.07-3.34.79-4.22,3.47-6.39.81-.66,2.26-.79,3.34-.8ZM148.67,118.8c1.5-.03,2.95.76,2.23,1.28-.47.34-2.16.2-2.63-.17-.61-.48-.38-1.09.4-1.11ZM81.72,121.64l-.59,1.17c.28,2.55.31,3.88-.51,6.54l1.23,1.78.97-1.85,1.53.03-2.62-7.67ZM151.92,121.1c.97.22,1.01,1.2.76,1.8-.54,1.33-4.18,1.97-4.18,1.98-.03-.57.04-1.12-.34-1.77,0,0,2.42-.7,2.93-1.22.34-.35.55-.78.82-.79h0ZM152.64,124.13c.35,0,.54.29.64.86.05.31-.06.57-.29.91-.92,1.11-3.52,1.88-4.46,1.6-.07-.1.09-1.27.16-1.79,1.25.04,3.35-1.18,3.95-1.58ZM115.64,130.97c-1.24-1.98-3.99-1.69-3.7-1.55.02-1.7-.24-4.03-2.57-4.28-2.35-.2-3.55,3.23-2.66,4.68-1.45-.67-3.62,1-3.62,1.16-.18,0-1.84,4.86,3.18,5.11.46,2.29,1.24,3.4,2.84,4.35l.04,18.71.57.85.05-19.61c2.57-.13,2.89-3.38,2.7-4.13,1.14.06,2.18-.2,3.05-.94l.3,3.2s.6-1.13.47-1.73c-1.12-18.38,4.88-38.26,12.76-51.15.42-.54.55-1.19.76-1.19,1.92-1.15,3.13-1.92,3.13-1.92,3.17,1.69,8.83,5.76,8.83,5.76l.09,26.19c-.09-.26,10.54-1.31,10.38-1,0,0-.93-.4-.95-1.09l-.28-61.29-4.65-3.37s-3.82,2.77-4.89,3.71l.12,36.08-8.24-5.35s.13-1.28.14-1.69c-.13-4.92-2.31-6.58-6.47-5.12-.56.2-.94.37-1.22.12-1.75-5.66-2.54-20.55-2.53-20.55l11.72-22,19.89-.12.34,84.07.72,44.06-10.15,8.19-.15-28.23s-1.45-.77-1.83-.82c-.14-.01-.33.34-.07.52.37.26,1.29.63,1.29.63l.22,27.98s-3.95,2.94-5.71,4.17c-3.3,2-6.54,3.91-9.95,5.58-3.36,1.6-10.76,5.01-10.76,5.01-.64-2.35-6.99-7.84-14.12-3.96-.65.27-1.46.5-2.01.92-2.72.55-3.61,3.77-4.03,6.9-.01.12.22.1.22.11.03.05.65-3,.89-3.58.52-1.23,1.18-1.97,1.53-2.09.16-.03.3.24.08.68-.43.86-.78,2.7-.88,3.52-.09.76-.11,1.38.02,1.4.02.02.63-2.31.91-3.13.71-2.15,1.16-3.04,1.85-3.5.71-.47.87-.4.73.1-1.05,2.27-1.48,3.98-1.69,6.4-.03.48.19.5.36-.3.58-2.54,1.36-5.97,3.23-6.99.8-.4,1.15-.38,1.06-.09-2.22,3.11-2.78,6.56-2.75,7.67,0,.37.14.3.43-.51.75-3.06,1.87-5.67,3.19-6.95.51-.49,1.13-.63,1.65-.7,1.57-.22,1.62.43.26,1.31-1.55,1-3.35,4.65-3.55,7.39-.07.95.23,1.05.45-.21.92-5.45,5.14-9.05,8.52-7.38,1.52.75,1.8,1.79.47,1.33-2.68-.94-5.65,1.16-6.88,4.1-1.11,2.65-1.09,4.05-.31,7.6.53,3.28,1.57,7.47,1.23,10.69-.37.62-1.53-.26-2.9-.44-.83-.17-1.84-.22-2.71.15-.75.32-1.18.4-1.32-.05-.05-.14.58-.85.86-1.24.45-.63.19-.73-.44-.05-.31.33-.97,1.11-1.15,1.15-.4.09-.41-.41-.09-1.67,1.12-4.9.82-4.99-1.11-5.98-1.91-.81-1.31-1.21-2.15-2.02-.6.52.78,2.89,2.34,3.4,1.27.42,1.12,1.14.56,3.09-.57,2.72-1.53,6.31-.97,8.72,1.17,5.07,5.82,4.96,9.37,2.92l.43,1.29c-3.01,1.35-18.86,2.5-24.2,1.82-.41-1.6-.45-2.01-.62-3.89,0,0,3.3,1.65,4.95,1.94,2.06.36,5.22.37,6.03-1.72.25-.61,0-1.14-.72-.78-1.3.65-3.53,1.14-5.33,1.02-1.51-.1-3.67-.78-4.6-1.4-.44-.3-.82-.87-.47-1.6.31-.08.71.3.95.44,2.73,1.53,4.22,1.82,6,1.24,1.35-.44,3.17-2.06,2.72-2.51-.46.18-1.97,1.58-3.01,1.89-2.15.63-4.43-.34-6.66-1.94-.69-.66-.37-1.14.47-.61,3.34,1.86,4.73,3.1,7.93.48.71-.59,1.11-.51,1.53-.16,1.66,1.65,1.65.72.44-.99-.28-.39-.53-.93-.69-1.51-.12-.43-.15-.86-.37-1.14-.38-.48-1.06-.71-1.83-1.09-1.12-.55-1.49-.28-.67.16,1.45.78,2.15,1.62.35,1.17-1.63-.81-4.36-.36-5.9.83-1.21.65-1.74,1.35-2.03-.13-.6-3.09-.02-7.27-.82-12.66-.15-1.03-.34-1.68-.15-1.82.25-.18.87.48,1.64,1.68.35.55,1.05,1.6,1.04,1.38.03-1.14-1.57-3.28-2.9-4.12-.73-.46-1.22-2.6-.39-2.13.64.35,3.98,3.6,4.61,4.75.3.54.54.19.23-.44-.19-.38-.97-1.49-1.73-2.32-1.35-1.46-1.51-1.39-1.25-1.69.51-.59,1.61.17,3.57,2.14.5.7,1.17,1.34,1.09.99.2-.55-1.76-2.88-2.93-3.51-.22-.15-.25-.31-.23-.6.11-1.1,2.36.52,4.23,2.41.7.71.12-.62-.69-1.53-.64-.71-1.66-1.6-2.36-1.9-.69-.32-.74-.98-.19-1.27,1.87-.09,3.81,2.03,4.96,3.7.32.46.61.81.28-.06-1.07-2.61-3.29-4.08-4.83-4.38-1.25-.24-1.22-1.49-.05-1.35,1.29.16,3.41,1.45,5.2,3.45.52.58,1.4,1.9,1.22,1.13,0-.21-.55-1.04-1.19-1.83-1.47-1.61-3.17-3.04-4.98-3.47-.85-.26-3.35.27-3.37-.21,0-.36.26-.57,1.06-.86,3.1-1.14,7.64,1.81,10.12,6.35.18.32.51.46.53.39-1.2-3.71-4.92-7.07-7.89-7.65-2.02-.36-4.05.21-5.01,1.72-1.09,1.69-.66,3.96.97,3.78.86-.09.79-.63.77-.64-.06-.06-.56.2-.86.13-1.12-.24-1-2.48.63-2.26,1.88.25,2.14,3.54.04,4.23-1.94.64-2.65-.34-3.18-1.51-.78-1.7.06-4.45,1.43-5.5,3.83-2.95,8.68-.48,11.42,2.45,1.35,1.45,2.34,3.17,2.97,5.02.16.43.5.39.34-.06-3.85-10.91-15.37-12.18-17.05-3.71-2.79-4.84-5.23-5.18-8.96-3.07-3.81,1.75-5.68,3.17-9.2,5l-7.99-4.75c-.47-8.79-.2-17.61-.17-26.41.02-.21-1.73.14-4.65.65-7.76,1.72-7.1-2.89-8.11-3.13-.54-.12-.5.14-.65-16.09-.04-4.71-.13-13-.19-18.41-.06-5.41-.08-9.92-.04-10.02s.48-.51.98-.9c1.89-1.49,2.95-2.38,7.1-5.88.94-.79,1.17-.93,1.17-.93.48,9.75.05,19.99.28,28.37h.35s-.14-28.14-.14-28.14c-.71-.21,16.33-11.26,25.66-14.84.18-.07.61.15.61.15,5.36,7.28,19.46,5.07,20.6-3.79,2.34,5.4,12.6,15.9,17.29,3.25,0,0,1.7,3.63,3.16,3.87,3.28.48,3.64-.09,10.86-3.97-8.25,13.87-12.8,28.55-13.38,46.33h0ZM111.25,127.51c.18.61.24,1.4.09,2.03-.21.49-.52.48-.52.48l-1.6-1.51-1.56,1.61s-.96-1.07-.43-2.55c1-2.07,3.29-1.69,4.03-.06ZM152.53,127.27c1.02-.07.49,1.23-1.02,2.12-.95.55-1.74.71-2.08.51-.19-.61-.03-1.17.09-1.42.65-.37,2.42-1.01,3.01-1.21h0ZM86.5,129.73c1.14-.03,2.12.87,2.16,2.45.01.65-.28,1.29-.28,1.29l-1.9-1.55-1.45,1.71c-.25.1-1.14-1.13-.52-2.47.44-.97,1.22-1.42,2-1.44ZM113.94,130.46c1.6.8,1.87,3.27.32,4.23-.74.45-1.9.7-2.44-.21l1.57-1.9-1.8-1.68c-.07-.08,1.38-.93,2.35-.44h0ZM152.25,129.81c.28,0,.35.12.42.4.22.81-.35,1.62-1.33,1.88-.91.24-.82.36-1.25-.54-.34-.7-.43-.67.1-.9.64-.23,1.32-.5,2.05-.84ZM106.85,131.02s-1.13,1.28-1.63,1.81l1.7,1.97c.08.24-1.97,1.27-3.04-.28-.7-1.01-.31-2.92.69-3.58,1.01-.67,2.47-.11,2.28.08ZM109.29,130.8c1.01-.02,1.83.87,1.85,1.99s-.79,2.03-1.79,2.05-1.84-.88-1.85-1.99c-.01-1.11.79-2.03,1.8-2.05ZM84.39,134.19l-1.63,1.9,1.77,2.13s-1.4.25-1.9.15c-2.41-.5-2.17-3.62-.31-4.45.79-.31,1.37-.2,2.07.27ZM52.31,134.84s.32,4.02.62,5.39c-.19,1.57-1.11,2.63-1.52,4.24-.22.71-1.04,1.68-1.2.67-.59-1.24-.03-2.78-.52-3.67-.38-.84-.17-1.3-.34-2.17-.46-.72-.68-1.04-.6-1.68-.1-2.84-.74-2.28-1.87-2.04-4.41.42-4.41,3.24-4.14,6.81-.63,3.35.53,2.56.49,3.16-.06.96.08,2.29.34,2.44,1.57,2,1.65,3.38,3.7,3.04,3.46.3,8.97-.27,10.16-4.95.74-6.6.97-12.86-5.11-11.23ZM86.75,134.19c.97-.02,1.77.84,1.78,1.92s-.76,1.96-1.73,1.98-1.77-.84-1.78-1.92.76-1.96,1.73-1.98ZM53.83,135.21c.65,0,1.43.14,2.06.82,1.36,1.44,1.42,2.75.82,8.31-.17,1.57-.67,2.87-1.33,3.44-1.32,1.14-2.94,1.96-4.28,2.33-.7.19-1.32.2-1.79.19-.51,0-.82-.27-.85-.75.11-1.29-1.08-1.42-1.77-1.35-1.23.05-1.36.2-.59-.46.88-.75,2.9-.76,3.28-.32.79-.87,1.61-.98,2.62-1.11-.15-.24-.51-1.21-.27-1.83.52-1.01,1.4-2.8,2.32-3.47.91-1.32.14-.72-.43-.7-.32.01-.3-.1-.35-.34-.22-1.03-.55-2.95-.55-4.09,0-.55.46-.65,1.12-.66ZM48.03,136.64c.36.35.35.84-.02,1.2-.43.42-1.28.19-1.3-.6.06-.79.89-1.01,1.32-.61ZM109.42,139.42c-1.48.08-2.69-1.67-2.13-3.41.3-.47.44-.4.44-.4l1.68,1.66,1.61-1.87c1.33,1.78.19,3.89-1.59,4.02ZM46.24,136.71c-.12.51.04,1.02.06,1.27-.29.23-1.54.63-2.21,1-.46.18-.8-.31-.74-.75.18-.82,1.27-1.36,2.06-1.61.24-.07.65-.09.82.1ZM46.51,139.06c.45-.06.32,1.02.15,1.58-.17.4-.66.38-1.11.41-.79.05-1.78,1.06-2.2.89-.14-.07-.24-.49-.26-.75.09-1.45,2.26-1.98,3.42-2.13h0ZM48.88,140.57c-.15.24-.63.36-1.04.24-.66-.2-.76-1.25-.18-1.61,1.02-.38,1.64.69,1.22,1.37ZM114.12,138.18l-.9,1.51-1.36-.03,2.2,7.48,1.02-2.92c.14-1.34.3-2.68.42-4.03l-1.38-2.01ZM85.16,138.81l1.74,1.57,1.49-1.69c1.11,2.74-.17,4-1.53,3.97-1.5-.04-3.1-1.61-1.7-3.85ZM46.95,141.64c.55-.12.32,1.54.24,1.58-.35.14-1.87.36-2.51.96-1.36,1.18-1.94.46-1.31-.96.6-.82,2.79-1.57,3.58-1.59ZM48.68,141.72c.61-.06,1.03.68.66,1.39-.5.52-1.39.14-1.38-.6,0-.46.34-.77.72-.79ZM47.79,145.91c.08.39-.04.27-.68.47-.35.11-.9.37-1.48.7-.84.47-1.08.73-1.38.67-.24-.06-.51-.17-.59-.44-.29-1.07.49-2.15,2.32-2.9.38-.16,1.06-.28,1.29-.31.62,0-.04,1.06.51,1.81ZM48.86,144.31c.88-.01,1.05,1.28.39,1.51-1.55.44-1.42-1.51-.39-1.51ZM47.78,149.09c.25.26.28.7,0,.92-.51.28-2.47.04-2.48-.57,0-.4.65-.54,1.26-.55s1.02-.02,1.22.2ZM136.23,149.76l-1.61,2.39,2.17,6.01,1.98-7.28-1.55.68-.98-1.81ZM44.89,155.93c.37,18.5.31,60.91.31,60.91l4.75,3.58,5-3.98c-.05-13.35-.1-22.55-.15-34.91l7.33,4.46s.23.36.19,2.03c-.51,4.61,3.52,7.6,6.19,5.78,1.03-.48,1.11-.56,1.33-.2.6.99,1.28,5.24,1.39,7.95.17,4.08,1.14,12.41,1.37,12.46l-11.94,22.3h-18.89v-83.12c.97,1.26,1.48,2.09,3.1,2.75h0ZM114.15,154.15l-.9,1.51h-1.08s1.89,7.74,1.89,7.74l2.29-7.57-1.26-.17-.95-1.51ZM54.39,215.91s-2.32,1.85-3.06,2.38c-.39.16-.58.19-.67-.22-.11-.51.07-1.47.23-3.06.15-1.47.15-1.55-.07-3.65-.23-2.19-.26-2.28-.07-5.16.21-3.22.25-6.35.02-8.28-.22-1.84-.22-6.04-.05-8.38.21-2.87.14-5.38-.2-7.46-.6-3.71-.7-4.99-.07-7.78.24-1.04.35-1.6.3-3.35-.05-1.94-.09-2.58-.72-6.89-.36-2.48-.39-2.82-.05-6.74.07-.79.09-1.32.36-1.57.32-.29,3.63-.51,3.63-.51l.42,60.67ZM45.68,156l3.61-.04c-.28,1.25-.34,2.2-.37,3.11l-3.21-2.33-.03-.73ZM45.73,157.6l3.17,2.3c0,.97-.06,1.89.07,2.86l-3.22-2.36-.02-2.79ZM45.73,161.24l3.4,2.57c.13,1,.41,2.01.52,2.92l-3.85-2.89-.06-2.6ZM155.55,162.26l.18,74.05h-33.8s-10.71-22.8-10.71-22.8c0,0,.11-2.1.37-3.17.32-1.29.41-1.58.86-1.64,1.2.69,2.54-.23,2.95-1.24.51-1.24-.52-3.13-2.09-3.53-.69-.18-1.45.16-2.21.81-.44.41-.54.46-.63.1-.2-.8.45-2.99,1.6-4.87.64-1.04.82-1.34,1.02-.95.84,1.61,2.64,1.27,3.32.37.83-1.1.65-3.6-1.22-4.27-3.66-1.3-5.35,2.77-5.3,2.76l-.78-4.88c4.41-1.2,6.96-1.62,8.36-3.1,1.1-1.17,1.63-3.18,1.49-4.98,0,0,12.25-5.51,17.99-8.94,9.87-5.9,18.61-13.73,18.61-13.73h0ZM136.89,162.79l-.91,1.77h-1.29s2.6,7.46,2.6,7.46l1.99-7.78-1.24.12-1.16-1.56ZM45.89,164.93l3.89,2.97c.09.96.2,1.82.08,2.92l-4.1-3,.12-2.89ZM121.81,164.02l-.97,1.42-1.12-.13,2.19,7.38c.67-2.13,1.27-5.03,1.93-7.17l-1.03.05-1-1.56ZM45.82,168.73l4.03,2.95c.02.91.05,1.77-.23,2.42l-3.8-2.7v-2.67ZM129.35,169.15l-.98,2.08-1.3-.2,2.33,7.08,2.54-7.01-1.58.09-1.02-2.05ZM45.83,172.17l3.49,2.84c.05.04-.2,1.3-.14,2.01l-3.32-2.27-.03-2.58ZM45.93,175.68l3.26,2.48c0,.94.07,1.82.2,2.62l-3.53-2.54.08-2.56ZM45.87,179.26l3.76,2.97.2,2.39-3.99-2.78.02-2.58ZM76.85,180.25c3.61,1.49,7,9.1,6.89,18.95-.07,6.84,1.79,16.6,1.76,16.49,0,0-1.05.16-1.34-.1-1.36-5.02-1.81-10.33-2.03-14.7-.18-3.65-.37-7.23-.57-8.07-.59-2.94-1.24-6.38-2.93-8.61-1.32-1.69-2.83-1.98-3.73-.09-.74,1.55.82,4.12,2.11,3.27.31-.19.5-.52.09-.51-1.34.22-2.24-1.83-1.39-2.81,1.49-1.72,4.1,2.12,2.89,4.23-.53.91-1.93,1.08-3.05.74-2.48-1.33-3.11-4.59-2.28-6.74.63-1.64,2.03-2.61,3.59-2.04h0ZM72.48,181.23c.29.02.09.61-.18,1.55-.64,2.24.56,5.72,2.22,6.42.5.38.47.52.14.72-1.08.67-3.05-1.35-3.57-3.6-.38-1.63-.28-3.55.42-4.37.39-.45.69-.68.9-.71.02,0,.04,0,.06,0h0ZM45.83,182.55l4.02,2.91c.19.91.1,1.88-.02,2.85l-4.02-3.11.02-2.66ZM70.08,182.52c.3-.01.19.54.1,1.55-.19,2.34.46,4.04,1.95,5.45.63.6.8.78.53,1.09-.38.44-1.49-.15-2.35-1.15-1.58-1.83-2.11-5.28-.87-6.52.27-.27.48-.42.64-.42h0ZM114.78,182.92c1.72-.07,3.17.66,3.33,2.99.23,3.4-2.63,5.26-4.63,3.31-1.79-1.96.02-5.03,2.1-3.59,1.04.73-.2,2.39-1.05,1.53-.38-.39-.55-.15-.28.3.82,1.35,2.42.23,2.31-.96-.23-2.34-2.82-2.31-3.8-1.39-1.34,1.25-2.51,3.1-3.39,4.44-.72,1.17-.87,1.14-.77-.31.28-3.81,3.49-6.21,6.17-6.32h0ZM68.01,183.67c.27-.01.16.42.19,1.54.11,2.88,1.2,4.67,2.59,5.67.46.57-.13.97-1.01.7-1.99-.68-4.03-5.43-2.34-7.47.24-.29.42-.44.57-.44ZM66.08,184.61c.28-.02.12.62.15,1.82.05,2.52.76,3.74,2.45,5.28.55.5.62.45.4.72-.58.74-2.55-.31-3.38-1.82-1-1.8-1.14-4.51-.22-5.54.26-.29.45-.45.6-.46h0ZM64.15,185.83c.23,0,.1.46.14,1.55.09,2.64.63,3.95,2.14,5.17.95.77,1.18.54.89.84-.51.53-1.9.08-2.95-.9-1.57-1.47-2.01-5.08-.73-6.32.23-.22.39-.34.51-.34ZM45.9,186.2l3.86,2.97-.11,2.5-3.84-2.88.09-2.59ZM113.42,190.89c-1.57-.36-2.17-1.61-1.98-3.04.06-.48.31-.75.58-.13.23.99.83,2.36,1.64,2.62.33.11.05.61-.25.54h0ZM79.61,187.94c1.77,4.94,1.74,10.35,2.04,15.45.39,6.79,1.47,11.35,1.83,12.13,0,0-1.73.02-1.82-.26,0,0-1.63-9-1.39-13.45.02-4.98-.86-9.36-1.39-11.32-.57-1.74-.59-.59.73-2.55h0ZM45.88,189.87l3.71,2.69c-.05.92-.06,1.84-.05,2.76l-3.64-2.85-.02-2.6ZM95.83,189.64c0,.15.54.28,1.37.05.93-.25,1.86-.2,2.57.01.76.23.84-.04.16-.37-.34-.16-.87-.53-1.67-.51-.8.02-2.44.5-2.44.82ZM110.88,189.53c.09.18.37.6.63.92.48.61.61.62.4.87-.5.58-1.55-.26-1.67-1.33-.1-.78.25-1.27.64-.47ZM77.62,189.74c1.73,2.74,1.99,9.16,2.03,13.73.03,4.11,1.29,11.65,1.39,11.62-.36.23-.84.15-1.29-.04-.45-.64-.72-2.45-1.24-7.34-.13-1.26-.4-5.27-.45-8.5-.05-2.85-1.49-9.02-1.49-9.02,0,0,.56-.44,1.06-.45h0ZM75.68,190.43c1.58,3.91,1.84,7.79,1.91,12.5.07,4.46.96,9.67,1.3,11.98-.53.06-1.1.11-1.32-.16-.14-.22-.26-.55-.33-.99-.72-3.85-.89-8.04-1.1-11.59-.31-5.49-.39-6.85-1.09-9.59-.4-1.55-.54-1.52-.24-1.82.23-.23.67-.34.87-.34h0ZM93.46,191.33c.04,1.82.25,1.08.83.79.44-.04.79.22,1.61.55,1.03.42.94.56,1.67.17.45-.24.81-.33,1.02-.13.85.76,1.95.33,2.56-.29.48-.28,1.01-.13,1.41-.09.59.06.43-.36.51-1.18.06-.73-.19-.79-.87-.55-.7.25-1.39.29-2,.08-1.55-.52-2.68-.18-3.45-.05-1.81.32-1.91.11-2.32-.17-.31-.21-.81-.61-.99-.6-.17.01-.12.67.02,1.46h0ZM109.55,190.49c.17-.1.25.16.49.51.4.58.52.85.18.91-.89.14-1.11.04-1.08-.57.02-.49.12-.68.41-.84h0ZM73.82,191.36c1.31,1.46,1.64,9.65,1.79,11.41.47,9.55,1.29,10.92.87,11.64-.49,0-.67.19-.99-.29-1.12-3.5-1.05-7.09-1.24-10.74-.26-4.83-.69-7.45-1.3-9.85-.41-1.59-.4-1.62.33-2.06.13-.08.42-.12.54-.12h0ZM72.06,192.51c.46,1.16,1.39,6.43,1.51,10.98.1,3.61.88,10.68,1.02,10.72-.48.05-1.05-.06-1.28-.46-1.43-6.97-.97-13.72-2.62-20.73.1-.34.62-.9,1.36-.52h0ZM45.93,193.37l3.85,3.06.08,2.61-3.93-3.09v-2.58ZM103.19,193.04c-2.18.94-2.74,1.7-2.4,2.38.29.57,1.15.37,3.47-.7,1.73-.8,2.27-.45,2.63.76-.02,1.78-1.58,1.99-2.46,1.75-.38-.02-.32.02.08.58,1.79,1.56,3.99-1.49,2.9-3.42-.86-1.77-2.34-2.27-4.22-1.34ZM89.54,193.76c-1.79,1.56-1.15,4.37.34,4.79.42.23,1.04.12,1.28-.05.22-.16.22-.43-.24-.52-1.39-.26-2.17-1.38-1.5-2.52.65-1.11,1.86-.9,4.17.21,2,.96,2.88.66,3.12-.49.1-.51-.02-.98-.98-1.02-2.67-.11-4.44-1.91-6.18-.4ZM113.56,198.06c-.12-.81-1.31.02-2.09,1.45-.77,1.41-.85,1.61-1.01.15-.23-2.18,1.81-3.89,3.09-3.95,1.54-.2,2.55.76,2.59,1.85.08,2.16-2.25,2.18-2.57.49h0ZM45.85,196.77l4.08,3.1s.14,1.66.05,2.56l-4.1-2.9-.03-2.76ZM94.83,197.82c-1.77,1.33-.73,3.77.51,4.04,1.31.29,1.4-.72.1-1.02-.7-.3-.87-1.04-.6-1.6.62-1.12,1.77-.4,2.43-.05,1.48.78,2.25,1.07,2.72.53.83-.96.09-2.67-1.01-2.07-.3.16-.52.32-1.15.14-.96-.22-2.1-.46-3,.03h0ZM45.88,200.47l4.01,3.04-.12,2.69-3.77-3.06-.12-2.67ZM45.96,204.16l3.77,2.98c-.06,1.14-.03,1.59.01,2.31l-3.82-2.73.03-2.56ZM112.72,204.74c3.03.33,2.02,4.18-.09,3.14-.56-.47-.73-.43-1.36,1.26-.8,2.16-1,1.99-.89-.51.08-2.45,1.09-3.87,2.34-3.89ZM88.87,205.32c.07,0,.13.02.17.05.2.25-.41,1.26-.93,1.85-.38.28-1.32-.47-1.09-.84.26-.36,1.37-1,1.85-1.06h0ZM92.91,207.31l-.54.09c-.82-2.02-2.51-1.55-3.04.32l-.75-.09c.75-2.3,3.44-3.7,4.33-.31h0ZM108.15,207.77l-.92.06c-.82-2.19-1.98-2.51-2.97-.35l-.71-.23c1.22-2.76,3.26-2.98,4.59.52h0ZM103.57,205.27c.47-.03.41.21-.08.95-.42.64-.53.74-.95.39-.7-.57.46-1.3,1.03-1.34ZM107.91,205.34c.09,0,.19.02.31.05.94.26,1.38.75.91,1.39-.29.4-.57.55-.76.29-.64-1.16-.99-1.76-.47-1.72h0ZM93.65,206.03c.1.43-.21.74-.56.38-.14-.15-.26-.4-.25-.58.22-.23.73-.04.8.2h0ZM45.93,207.51l3.88,3.09c.13,1.09.15,1.91.15,2.66l-4-2.93-.03-2.81ZM102.5,208.45c2.24,1.7,4.86,1.67,6.5.18.37-.33.69-.35.69-.03-.23,1.19-3.08,2.72-5.31,1.85-1.22-.48-2.23-.95-3.03-2.21-.48-.82.5-.29,1.15.2ZM101.55,209.28c3.27,3.12,5.87,2.26,7.83.68.29-.08.3.21.36.75.08.69-.43,1.03-1.85,1.5-2.74.91-5.95-.09-6.53-2.12-.07-.4-.21-.92.18-.81h0ZM45.91,211.15l3.93,2.99-.13,2.29-3.83-2.87.02-2.4ZM45.97,214.65l3.71,2.79v1.89s-3.63-2.85-3.63-2.85l-.09-1.83ZM72.95,215.54c15.85,3.97,27.08,2.09,38.1-.07l9.76,21.22-58.84.09c3.84-6.9,7.04-14.43,10.98-21.24Z"/>
      <path id="path3442-2-7-0" class="cls-3" d="M74.43,32.04c1.7,3.23,3.03,6.56,4.56,9.87l.24.17.37.76.04.37.91,1.6v.34s3.83,7.91,3.83,7.91c3.17-1.31,29.18-3.67,38.81.19l1.4-2.63h.34s2.47-4.81,2.47-4.81l-.04-.4.83-1.05.12-.48,2.73-4.73v-.76s3.42-6.3,3.42-6.3l-60.03-.05ZM133.32,32.94s-1.78,3.79-2.7,5.32c-.74-.65-2.89-.21-2.77,2.31-3.51-1.47-4.35,3.16-1.64,4.21-1.39,1.35-2.72-.18-3.78-1.21-1.03.28-3.18,1.12-4.39-1.35,0,0,.51.3,1.01.63,2.87.97,3.1-3.32.97-4.03-.27-.08-.77-.11-.77-.11.72-3.3-3.89-4.45-3.98-.49,0,0-.55-.1-.96-.02-2.44.49-1.88,4.48.61,4.29.34-.03.65.04.65.04-.04.64-3.06,1.86-5.24-.34-1.03.87-2.67,1.96-4.8-.21,1.4-.06,2.74-.5,2.73-2.26,0-1.15-.94-2.17-2.28-2.22-.08-1.28-.94-2.5-2.05-2.59-1.36.09-2.06,1.31-2.07,2.59-1.16.13-2.24,1.26-2,2.56.34,1.77,1.57,1.99,2.98,1.65-1.71,3.05-4.5,1.46-5.35.49-1.02,1.06-2.81,2.49-5,.53,1.17-.22,2.47-.98,2.25-2.79-.17-1.43-1.62-1.85-2.25-1.77,0-.94-.64-2.5-2.16-2.34-1.65.18-1.56,2.49-1.54,2.51-1.37-.12-2.36,1.66-1.97,2.79.47,1.38,1.47,1.81,3.29,1.44-2.13,2.21-3.48,1.35-4.64.89-1.03,1.19-2.4,1.58-3.81.52,3.15.17,2.65-6-1.09-3.76-2.66-3.46-2.61-1.92-4.99-7.02l57.71-.28ZM103.98,39.02c.15,0,.31.03.47.12.49.28.58.76.28,1.48-.11.25-.26.54-.23.81,3.47,7.08,11.11,3.92,11.83.63.05-.21-.04-.44-.14-.66-.29-.54-.26-.98.13-1.36.81-.79,1.98.14,1.51,1.21-.12.28-.26.59-.16.96,1.96,4.94,5.87,5.31,9.15,3.35-1.51,3-7.37,4.83-9.82-2.38-3.92,5.88-10.15,5.77-12.98-.87-2.54,6.79-10.21,6.95-13,1.31-2.54,6.45-8.43,4.99-10.1.95,5.47,4.39,9.08-.19,9.73-2.15,0,0-.13-.23-.3-.42-.7-.76-.68-1.66.04-2.01.93-.46,1.8.53,1.32,1.5-.13.27-.25.33-.16.57,1.7,4.4,10.09,5.68,11.79-.49.06-.35.02-.68-.12-.95-.4-.74.11-1.57.77-1.6ZM79.49,41.51c1.32.08.95,1.34.69,1.44l-.69-1.44ZM128.63,42.3s-.82,1.63-.82,1.63c-.44-.77-.32-1.73.82-1.63ZM124.16,50.43s-.84,2.07-1.12,2.24c-15.67-4.45-37.54-.58-38.08-.15l-.96-2.01c13.74-3.04,27.45-2.39,40.17-.08ZM97.68,81.2c-1.51,6.47-5.18,7.12-9.6,7.91-5.48.97-9.05-1.24-10.72-4.62,0,0-7.84,3.28-10.7,5.19,5.95,3.02,13.8,9.7,18.27,17.29,1.59,2.31,1.51,1.79,1.51,6.87,0,11.01.02,15.1.02,15.1,2.45.41,2.59,2.28,2.45,4.38,1.97-.96,3.86.22,3.86,2.27-.02,3.78-3.37,2.76-4.07,2.34,1.09,3.34-.19,4.72-1.5,4.88-1.61.2-3.46-.66-2.92-4.48-1.76.76-3.98-.62-4.29-2.92l-.09-3.89c4.35-9.06-1.11-16.43-6.24-18.86,0,0,1.45-3.32,3.33-4.25.19-.06-1.14-2.22-3.37-1.75-1.03.02-.79.02-1.76-1.37-1.91-2.75-2.81-2.94-4.67,0-.82,1.29-1.02,1.33-1.98,1.35-1.07.02-2.71.87-3.06,1.63-.08.17.34.35.89,1.07.8,1.04,2.04,2.46,1.84,3.91-4.22,1.9-11.22,10.25-3.86,20.94l-5.32.08-.25-38.05-3.7,2.28.16,29.8-1.06-.39c.08-9.51-.05-19.01-.32-28.51l-9.76,7.88.44,44.69,1.04.24c.77,6.09,11.66,1.83,12.29,2.36l.13,24.83-.48,1.23,8.66,5.25,7.95-4.57s1.07-.21,1.47-.45c3.29-1.92,5.75-1.49,7.54,1.33,1.11,1.74,1.29,2,1.29,2,.67-5.02,4.69-6.87,8.59-5.56,2.87.97,6.78,4.13,7.98,8,0,0,.22.58.43.84l.16.08c-.01-.1-.19-.58-.26-.82-4.02-10.23-15.35-11.8-17.1-3.44l-1.6-2.49,8.44-5.73,11.53,8.41s-.54,2.95-.6,4.23l.2.1c.08-1.55.5-3.31,1.16-4.62.27-.54.59-.98.94-1.31.69-.44,1.33-.4,2.03-1.12l-1.68-1.39-.04-4.47,3.38,5.25c1.06-.27,5.21-1.64,7.67-.13.28.1,3.88-1.04,6.13,4.53l10.81-4.97s.69-.43.7-.54c-10.77-4.4-21.65-20-20.61-20.25,0,0-.03-1.6.05-5.53.09-4.38.04-8.84.11-13.23-3.67-1.3-2.76-4.57-2.76-4.57-2.2.54-2.56.06-3.11-.37l-.38-4.14c1.32-1.25,2.11-1.36,3.75-.96,0,0-.79-1.8-.07-3.28.61-1.17,2.22-1.91,3.51-1.09,1.67,1.26,1.14,3.9.9,4.27,1.73-.86,3.85.1,4.37,2,.26-5.62.7-11.9,1.72-16.8,1.88-8.84,4.95-18.1,8.79-25.38.63-1.22,1.43-2.44,2.08-3.57.6-1.01.89-1.67.89-1.67,0,0-.82.5-1.69.77-1.25.38-2.2.73-2.34.89-.92.85-2.12,1.49-3.1,1.96-3.46,1.49-5.79-.73-7.22-4.13-.8,4.32-4.37,7.97-9.64,5.7-2.97-1.75-3.91-2.87-6.69-7.43-.23-.47-.84-1-.84-1h0ZM97.79,81.91c1.97,4.31,4.92,7.37,7.78,8.59,5.11,1.86,8.49-1.77,9.44-5.1l.99,1.85-7.74,6.09-11.69-8.23c.2-.2,1.24-3.1,1.22-3.2h0ZM132.96,82.21l-3.47,2.26s-2.3,4.12-3.08,5.67c-4.05,7.92-7.09,16.54-8.67,25.08-.64,3.13-1.32,8.85-1.55,11.6-.36,4.38-.34,6.18-.24,10.21l.27.33s-.43.83-.73,1.52c-.83,1.89-1.03,2.96-.98,5.16.12,5.05,2.89,9.88,6.8,11.85.22.11.51.25.51.25,0,0-.67,2.01-1.89,3.43-.81.94-.99.99-.7,1.45.4.65,1.69,1.21,3.29,1.18q.57,0,1.61,1.25c2.05,2.47,2.66,2.42,4.52-.38.55-.83.87-1.03,1.68-1.05,1.19-.03,3.36-1.09,3.35-1.59-1.46-.72-3.16-4.42-2.89-4.46,8-4.69,9.7-14.42,3.85-21.57l5.58-.1.21,38.8c1.09-.8,3.57-2.53,3.57-2.53l-.08-30.19c.38.08.78.39,1.52.52l.22,28.75s7.17-5.6,10.59-8.53l-.21-43.99h-.82l.13,43.97-9.48,7.67-.06-27.33s.75-.12,1.03-.17c2.77-.43,4.06-4.35,2.22-6.91-.65-.91-.19-.84,1.2-1.14,2.46-.24,3.83-2.3,3.11-3.78-.31-.63.09-.56.35-1.16.17-.47.14-1.06.07-1.52-.1-.61.13-.88.27-1.26.22-.61,0-1.29-.36-1.86-.38-.6-.28-1.25-.28-1.65-.02-.89-.31-1.02-1.16-1.88-.65-.65-.13-.8.82-1.34,1.5-.85,1.6-3.87-.39-5.15-1.06-.69-3-.63-7.19.1-1.59.28-3.46.46-3.46.46,0,0-.01-17.2-.12-26.07l-8.97-5.91ZM132.96,82.81s8.51,5.52,8.44,5.67c-2.86,4.34-13.52,21.62-13.6,42.52-7.82-1.09-11.02,5.68-11.4,5.66-1.03-25.58,8.34-43.88,13.14-51.65l3.41-2.2ZM127.59,86.18l-.03.63-1.69,2.79-.04-2.79,1.76-.63ZM124.99,87.15l.06,4.5-3.46,2.92-.2-4.69,3.6-2.73ZM92.96,88.18l1.78,1.36-.06,4.46-2.67-5.39.96-.43ZM141.57,89.68v3.23c-6.8,10.65-10.37,22.81-11.47,38.21l-1.66-.06c.44-15.31,5.09-29.29,13.13-41.38ZM95.43,90.02l4.2,3.04-.18,5.09-3.82-2.71-.36-1.04.15-4.38ZM120.87,90.23l-.02,4.73-3.25,2.67-.15-4.7,3.41-2.7ZM81.52,91.47c.48,0,.87.39.96,1.13.36,3.15,2.52,2.24,3.03,3.18.19.32-.27.6-1.74.47-2.71-.22-4.69-2.65-3.3-4.25.36-.36.73-.54,1.06-.53ZM100.26,93.5l3.59,2.53v5.23s-3.53-2.38-3.53-2.38l-.06-5.38ZM116.63,93.51l.28,4.62-3.93,2.89-.14-4.59,3.79-2.92ZM124.11,93.53l-2.26,5.32-13.16,10.49-10.92-7.84-2.03-5.14,12.74,9.21,15.62-12.05ZM88.62,95.64c3.5-.05,6.18,4.07,7.1,7.67.67,2.38.77,3.24.84,7.02.07,3.85.18,4.52.83,5.06.4.34.52.24.57-.44.11-1.51,1.75-.58,1.78,1.01.03,1.77-1.73,2.34-3.03.98-.69-.72-.7-.72-.92.71-.14.95-1.15,6.93,1.42,8.41.48.05.6-.38.24-.88-.72-1,.72-2.16,1.89-1.52,1.42.77,1.27,3.3-.24,4.2-1.73,1.03-3.97-.14-5.01-2.62-.77-1.82-.76-4.34.01-8.08.36-1.73.52-2.82.6-4.15.03-.43.07-.91.1-1.05.08-.4-.1-.42-.72-.08-1.69.95-3.54.27-3.99-1.45-.54-2.07,1.53-4.2,2.82-2.89.49.5.43.99-.15,1.31-1.01.55-.66,2,.41,1.71,3.54-1.17.3-12.16-3.68-12.93-2.63-.5-4.7,2.82-2.79,4.6.75.7,1.5.32,1.34-.66-.23-1.37,1.42-1.22,2.03.18.99,2.29-1.57,4.15-3.95,2.88-4.28-2.82-1.36-8.92,2.52-9ZM104.47,96.52l3.53,2.62.03,5.1-3.5-2.3-.05-5.42ZM112.25,96.96l.02,4.68-3.4,2.74v-4.98l3.39-2.44ZM121.42,100.03l-1.74,5.37-10.99,8.33-9.06-6.3-1.56-4.97,10.68,7.66,12.67-10.1ZM50.11,100.42v27.21c-3.56.17-5.61,4.07-2.94,7.76,0,0-.46.07-1.01.15-2.41.37-4.02,1.78-3.7,3.49.1.53,0,1.06-.14,1.32-.21.7-.16,1.24.13,1.85.23.48.19.67.06,1.02-.27.76-.21,1.35.11,1.93.4.43.29.78.23,1.47-.06.97.09,1.36.65,1.74.71.49.98,1.29.17,1.22-.4-.03-1.82,1.48-1.82,1.48l-.13-43.66,8.39-6.98ZM69.41,103.91c.64,0,1.29.88,2.24,2.38.57,1.07.58.93,1.88.87,1.33.11,2.14.5,2.49.94.13.17-.22.21-1.06,1.16-.87.98-.99,1.37-1.57,2.47-.21.4-.66.43-.88.07-.17-.29.27-1.24,1.1-2.36,1.17-1.25.92-1.37-.77-1.18-1.19.14-1.32.07-1.77-.73-1.35-2.97-2.07-2.87-3.36.09-.35.83-.21.78-1.74.65-1.2-.1-1.5.23-.82.93,1.06.96,1.47,3.24,1.42,3.21l-.82.08s-.25-.51-.36-.84c-.22-.65-.82-1.64-1.47-2.41-.92-1.1-.41-1.7,1.64-1.94,1.14-.14,1.17-.15,1.69-1.01.93-1.5,1.54-2.39,2.18-2.39ZM119.25,106.62l-1.18,4.64-9.37,7.28-7.62-5.64-1.01-4.36,8.76,6.15,10.43-8.07ZM86.94,110.29s2.71,5.85,3.69,9.64c.86,3.3,2.04,12.84,1.73,13.43-.67-1.01-2.87-.78-2.9-.77.19-1.12-.63-3.37-2.51-3.82l-.02-18.47ZM117.77,112.43l-.94,4.57-7.98,6.39-6.59-4.98-.86-4.42,7.29,5.39,9.08-6.95ZM71.38,112.69l1.04.4.2,8.25,7.98,1.47.18,1.41-9.25-1.65c-.1-3.52-.15-9.88-.15-9.88ZM67.32,112.93l.22,9.6c-.09-.03-6.66,1.01-9.17,1.74l.15-1.31s4.57-1.1,7.87-1.52c0-2.68-.02-5.51-.02-8.24l.95-.25ZM141.6,114.7s1.09.11,3.41-.34c5.99-1.16,7.62-.69,8.38,1.36.84,3.17-2.3,3.25-2.86,1.24-.36-1.31-1.64-1.02-5.94.11-3.67.97-6,.19-5.96-2.11.05-2.37,2.48-2.58,2.97-.24ZM92.36,112.96c.74-.01,1.35.65,1.36,1.47s-.58,1.5-1.32,1.51-1.35-.64-1.36-1.46c-.01-.82.58-1.5,1.32-1.51ZM72.89,113.23l.95.32s.14,6.26.17,6.27c2.04.5,6.31,1.39,6.31,1.39l.23,1.24c-1.79-.47-7.49-1.5-7.49-1.5-.18-2.72-.16-7.71-.16-7.71ZM65.98,113.34s0,5-.07,7.68c.03-.02-4.84.86-7.32,1.43l.19-1c1.96-.49,4.09-.98,6.24-1.48-.04-1.97-.04-6.27-.04-6.27l.99-.35ZM69.46,114.42c.59,0,1.09.52,1.1,1.18,0,.66-.47,1.2-1.07,1.21-.59,0-1.08-.51-1.09-1.17,0-.66.46-1.21,1.06-1.22ZM150.54,117.54c.66,1.09,1.22,1.06,1.87.95-.16.05-.94.56-.89.73.02.08-.33,1.46.2,1.52,1.99.21.98,2.5,1.22,2.85.54.68.93,1.11.56,1.96-.33.75-.8.73-.43,1.37.79,1.32-.3,1.59-.21,2.49.07.54.24,1.28.06,1.71-.54,1.27-2.47,2-4.6,2.1-.3.02-.07-.54-.22-.88-.53-.37-.24-.99-.06-1.4q.18-.54-.15-.82c-.91-.63-.87-.92-.79-1.37.2-1.34.01-1.47-.35-1.67-.47-.25-.4-.82-.2-1.55.14-.5.04-.63-.18-1.08-.13-.27-.17-.41-.17-.58.07-.69-.49-.69-1.28-.01-.66,1.27-.89,2.94-1.31,3.99-.32.81-.37,1.65.01,3.52.74,2.85.19,3.32-2.7,2.72-2.18-.59-2.82-3.17-2.21-6.32.1-.51.07-1,.03-1.4-.24-2.17.27-4.25,1.64-5.67,2.28-2.38,3.41-2.74,8.12-2.4,1.84.14,1.98.27,1.98.27,0,0,0-.98.07-.99h0ZM116.59,118.19l-.55,4.42-4.43,3.46c-2.08-1.82-3.69-1.22-5.16.74-1.16-.65-3.48-2.43-3.48-2.43l-.59-5.01,6.43,4.95,7.77-6.12ZM69.56,119.24c.59,0,1.08.52,1.09,1.18,0,.66-.46,1.2-1.06,1.21-.59,0-1.09-.51-1.1-1.17,0-.66.47-1.21,1.07-1.22ZM115.85,123.76l-.24,4.25-1.57,1.31-1.58-.18-.37-2.64,3.77-2.75ZM69.53,123.8c.59,0,1.09.52,1.1,1.18,0,.66-.47,1.2-1.07,1.21s-1.08-.51-1.09-1.17c0-.66.46-1.21,1.06-1.22ZM73.87,123.93c.59,0,1.08.51,1.09,1.17,0,.66-.46,1.2-1.06,1.21-.59,0-1.08-.52-1.09-1.18,0-.66.47-1.2,1.06-1.21ZM65.24,124.16c.59,0,1.08.52,1.09,1.18,0,.66-.46,1.2-1.06,1.21s-1.09-.52-1.1-1.18c0-.66.47-1.2,1.06-1.21ZM145.38,124.35c.3-.03.75.47.53,1.22-.29.85-.09,1.14.4,1.83.41.58.34.67.28,1.04-.09,2.46,1.33,1.39.71,3.18-.13.39.04.94.11,1.4-.14-.42-2.77-.38-2.99.05-.37-.06-.85-2.8-.47-3.16.05,0,.32.47.46.73.35.66.43.64.32-.13-.44-3.05-.17-6.15.64-6.17ZM78.22,124.56c.59,0,1.08.52,1.09,1.18,0,.66-.47,1.2-1.06,1.21s-1.08-.51-1.09-1.17c0-.66.46-1.2,1.06-1.21ZM60.76,124.78c.59,0,1.08.52,1.09,1.18,0,.66-.46,1.2-1.06,1.21-.59,0-1.09-.51-1.1-1.17,0-.66.47-1.2,1.07-1.21ZM103.02,125.13l3.23,2.32c.05.73-.03,1.78.19,2.13-2.11-.22-3.17,1.11-3.17,1.11l-.24-5.57ZM80.02,128.84l-.25,1.26c-6.36-1.81-13.47-1.91-20.27.08l-.53-1.33c6.86-2.31,14.16-2.39,21.05-.02ZM49.9,128.76c.93-.02,1.87.36,2.54,1.19,1.25,1.56.65,4.44-1.12,5.36-2.65,1.37-5.41-1.56-4.29-4.58.47-1.26,1.67-1.94,2.87-1.96ZM115.48,129.13l-.04,1.26-.81-.74.85-.52ZM98.62,129.19c1.17-.02,2.13,1.02,2.15,2.31s-.92,2.36-2.08,2.38c-1.17.02-2.13-1.01-2.15-2.31-.02-1.29.92-2.36,2.08-2.38ZM49.95,129.26c-.28,0-.76.13-.97.35-.56.58,0,.59.75.74,1.32.27,1.69,1.53,1.57,2.89-.11,1.24.27,1.22.57.76,1.23-1.87.18-4.6-1.91-4.75ZM111.34,129.88s-.06.04-.06.04c.01.01.04,0,.06-.04ZM69.54,130.62c1.58-.04,1.75,2.85.35,6.07-.42.97-.64.85-1.1-.62-1.14-3.61-.89-5.42.75-5.45ZM73.2,130.7c.31-.02.6.11.84.42.85,1.07.2,2.81-2.07,5.49-.55.65-.84.9-1.04.9-.57.01-.57-.09.08-2.42.28-1.02.56-2.15.62-2.5.19-1.12.89-1.86,1.56-1.9ZM67.47,133.28c.15.8.43,1.91.6,2.47.17.56.29,1.09.26,1.18-.14.43-1.15-.15-1.87-1.08-1.45-1.87-2.03-3.49-1.73-4.37.44-.7,1.57-1.01,2.09-.4.54.63.62,1.98.66,2.2ZM77.49,131.42c1.53,1-.23,3.29-3.66,5.18-1.47.81-1.36.45-.25-1.15.43-.61,1-1.61,1.28-2.22.62-1.35,1.23-2.69,2.64-1.81ZM62.2,131.43c.49,0,.98.57,1.91,2.05.41.66,1.08,1.6,1.48,2.09.41.49.73.97.71,1.08-.16,1.04-4.94-2.25-5.28-3.63-.12-.84.48-1.6,1.18-1.58ZM130.57,134.44c.86,1.96.94,3.18.22,3.63-1.01.63-2.32-.33-2.34-1.73,0-.47-.44-2.11-.84-3.17-.33-.88-.37-1.42-.1-1.46,1.06.19,2.62,1.81,3.07,2.73ZM124.85,132.95c-.33,1.12-.69,2.87-.68,3.38,0,.2-.11.61-.24.91-.87,2-2.94.37-2.18-1.72.69-1.88,2.43-3.84,3.12-3.9.47-.04.03,1.16-.02,1.32ZM126.25,131.87c.35-.04.63.8,1.08,2.21.6,1.9.58,3.38-.07,4.01-1.39,1.35-2.85-.61-2.29-3.08.45-1.97.89-3.1,1.28-3.14ZM79.55,132.22c1.73,28.25-11.34,49.99-12.27,50.58l-4.45,2.69-7.8-4.71c8.09-12.28,12.92-26.36,13.28-42.71,7.48.8,11.33-5.83,11.24-5.86ZM122.41,132.31c.55-.17.16.36-.38,1.23-.58.92-1.33,3.43-1.92,3.83-1.33.71-2.84-.64-2.03-1.82.75-1.08,2.93-2.82,4.33-3.24ZM130.35,132.5c.21,0,.6.15,1.17.46,2.78,1.5,4.15,3.48,2.96,4.43-.83.67-1.73.15-2.56-1.6-.28-.6-.8-1.48-1.14-1.97-.63-.89-.77-1.32-.42-1.32ZM145.96,133.51c1.78-.03,3.25,1.55,3.28,3.52s-1.4,3.61-3.18,3.63c-1.78.03-3.25-1.55-3.28-3.53-.03-1.98,1.4-3.6,3.18-3.63ZM144.98,134.44c-2.1,1.03-1.47,4.68.34,5.21.76.24,1.69-.12,1.31-.52-2.39-.83-2.41-2.78-1.44-4.21.15-.23-.05-.55-.21-.48ZM57.5,139.46c-.08,2.06.32,4.46-.57,6.7-1.35,3.44-5.68,5.02-8,4.71-.48-.22-1.04-.43-1.52-.2-.29.14-.64.12-.95-.04-.3-.15-.58.05-.87-.07-.34-.25-.88-.82-.82-1.25.1-.6.06-1.04-.57-1.24-.88-.27-1.05-.8-.8-2.33.06-.33.12-.48-.07-.63-.65-.48-.89-1.36-.47-2.3.28-.54.49-.92,0-1.34-.2-.49-.16-.68.26-1.31.45-.6.53-.66.24-1.17-.65-1.14.09-1.99.96-2.46,1.17-.53,2.19-.81,3.43-.96.46.03.44.48.72.91.41.7-.17,1.71.16,2.07.48.24.7.73.66,1.15-.02.97.04,1.31.27,1.71.26.45.36,1.28.12,1.84-.22.5-.2.47.09.76.28.29.42,1.76.32,1.73l1.2-.12c-.13.15.45-2.74,1.82-4.98-.08-1.75-.68-3.36-.62-5.67,2.97-1.18,5.11,1.62,5,4.48h0ZM103.59,135.53c.43.37,2.55,1.03,2.63.95-.07,1.13.55,3.32,2.77,4.05.03,3.14,0,17.67,0,17.67-3.09-5.73-5-13.13-5.41-22.67h0ZM51.94,136.04s.12.42.23,1.23c.19,1.65-.01,1.88-.41.75-.46-1.32-.49-.29.03,2.73.13.73.12.9-.04,1.4-.1.31-.28,1.03-.43,1.6-.42,1.66-.66,2.14-1.09.82-.22-.67-.4-.78-.25-1.31.2-.66.15-1.16-.24-1.8-.06-.11-.21-.35-.23-1.03.12-1.53-.5-1.55-.62-1.95.02-.6-.23-2.06.14-2.02.31.03,1.42.07,1.94-.15.23-.09.96-.27.96-.27h0ZM97.96,136.23c1.15-.02,2.09,1,2.1,2.27s-.9,2.31-2.05,2.33-2.09-.99-2.11-2.26.9-2.32,2.05-2.34ZM65.91,137.63l1.57.33c.35.13.1,24.17-12.5,41.51l-.11-4.02c5.99-9.61,10.31-21.39,11.03-37.83ZM92.59,138.14l.29,5.74c-.89-.83-3.14-2.4-3.12-2.43v-2.12s1.94.16,2.83-1.19h0ZM80.46,138.22c.38.18.71.58,1.04.88l-1.03.77v-1.64ZM116.51,138.51c6.79,2.23,13.48,2.17,20.1.54l.45,1.41c-7.18,2.16-14.31,2.03-21.4-.47l.85-1.47ZM83.6,139.58l.36,2.48-3.83,2.75.19-3.76,2-1.44,1.29-.03ZM117.55,141.64c.62,0,1.13.54,1.14,1.23s-.49,1.25-1.11,1.26c-.62,0-1.13-.54-1.13-1.23s.48-1.25,1.1-1.26ZM135,141.75c.62,0,1.13.54,1.14,1.23,0,.69-.49,1.25-1.11,1.26-.62,0-1.13-.54-1.13-1.23,0-.69.48-1.25,1.1-1.26ZM102.31,145.61c.5,1.96.39,6.4-.25,9.4-.19.9-.31,4.11-.31,4.11-.12.17,3.85-3.64,5.12,1.35.44,1.72-1.34,3.34-2.54,2.87-.23-.09-.16-.94.06-1.44.66-1.49-1.23-2.27-2.3-.95-2.48,3.06.07,10.79,3.97,11.55,3.23.62,5.83-2.94,3.67-5.07-.94-.93-2.45.35-1.76,1.53.74,1.26-.62,1.77-1.65.6-1.79-2.04.22-5.12,2.93-4.41,4.33,1.09,3.44,8.59-1.1,9.01-3.47.32-5.81-1.35-7.27-4.32-1.38-2.85-1.48-5.13-.85-10.13.37-2.97.07-5.47-.68-5.46-.41,0-.73.23-.79.76-.13,1.09-.24,1.29-.86.9-.78-.5-1.22-2.12.06-3.21,1.31-1.12,3.01.63,2.94.93.03-.06.16-.34.34-1.61.57-4.15-.7-8.53-2.27-7.82-.34.15-.3.33.15.61,1.05.65.12,2.32-1.19,2.15-1.86-.24-2.28-3.11-.64-4.39,2.58-1.54,4.68.87,5.24,3.05h0ZM89.61,142.16s3.3,2.23,3.48,2.8c.11.37.25,3.57.25,3.57l-5.73-3.97-8.21,5.63c.13-1.23.73-4.41.73-4.41l4.37-3.06c.02.18,3.02,2.38,5.12-.55ZM130.62,142.37c.62,0,1.13.54,1.14,1.23s-.48,1.25-1.1,1.26c-.62,0-1.13-.54-1.14-1.22s.48-1.25,1.1-1.26ZM121.88,142.39c.62,0,1.13.54,1.14,1.22,0,.69-.49,1.25-1.11,1.26-.62,0-1.13-.54-1.13-1.23s.48-1.25,1.1-1.26ZM126.27,142.67c.62,0,1.13.54,1.14,1.23s-.49,1.25-1.11,1.26c-.62,0-1.13-.54-1.14-1.23,0-.69.48-1.25,1.1-1.26ZM115.27,144.43c2.97.69,5.96,1.39,8.81,1.74l.12,9.7-.83-.05-.12-8.66c-2.75-.22-5.35-.87-7.79-1.57l-.18-1.14ZM137.38,144.75l-.15,1.14s-5.15.99-7.83,1.37c-.04,1.95-.04,8.47-.04,8.47l-1.03.21v-9.87c3.05-.37,6.1-.75,9.05-1.32h0ZM87.59,145.29l6.06,4.44.71,4.7-7.06-5.2s-6.4,4.77-8.8,6.54l.73-4.43,8.36-6.05ZM115.55,146.17c2.44.57,4.88,1.17,7.32,1.4l.1,7.8-1.12-.33-.09-6.33c-1.9-.18-3.86-.59-5.83-1.05l-.38-1.49ZM137.13,146.4l-.21,1.06s-3.9.65-5.92,1.05c-.18.05-.11,6.87-.11,6.87l-.96.16-.11-7.96,7.31-1.18ZM126.19,147.28c.62,0,1.13.54,1.13,1.23,0,.69-.48,1.25-1.1,1.26-.62,0-1.13-.54-1.14-1.22,0-.69.49-1.25,1.11-1.26ZM87.5,150.09l7.16,5.36s.83,2.79,1.01,4.33l-8.24-5.89-10.31,7.57,1.19-4.68,9.19-6.69ZM44.09,150.25c.42,0,.85.32,1.07,1.04.31,1.02.89,1.32,2.42,1.29,3-.18,6.14-1.74,8.96-.57,1.37.56,1.86,2.81.71,3.39-1.25.63-1.78.24-2.21-.85-.4-.46-.9-.39-3.58.12-1.18.21-2.58.4-3.75.51-2.99.27-4.65-.78-5.02-2.75-.24-1.26.69-2.2,1.4-2.19ZM126.13,152.06c.62,0,1.13.54,1.14,1.22,0,.69-.49,1.25-1.11,1.26-.62,0-1.13-.54-1.14-1.23s.49-1.25,1.11-1.26ZM104.19,153.58c.81-.01,1.47.7,1.48,1.6.01.89-.63,1.63-1.44,1.64-.81.01-1.47-.7-1.48-1.6s.63-1.63,1.44-1.64ZM87.51,154.71s5.89,4.36,8.62,6.38l1.51,4.8-10.04-7.23-12.28,8.85,1.47-4.94,10.72-7.86ZM130.06,156.21c.53,1.6,1.5,2.81,2.53,4.05,0,0-.57,1.2-2.61,1.13-1.11-.04-1.17.15-1.55.99-.62,1.06-1.13,1.75-1.54,2.1-.71.61-2.05-.3-3.15-2.15-.4-.67-.57-.83-1.78-.81-1.86.04-2.53-.53-1.57-1.45.84-1.14,1.45-2.39,2.2-3.58l.84.11c.04.14-.65,2.43-1.61,3.37-.49.61.2.83,1.39.55.76-.25.95-.15,1.52,1.13,1.17,2.45,1.78,2.33,3.17-.15.48-1.11.47-1.22,1.8-.9,1.43.16,1.86-.04,1.28-.59-1.19-1.12-1.84-3.75-1.84-3.75l.94-.03ZM87.56,159.5s10.66,7.73,10.63,7.57l2.14,5.58-12.51-9.22-15.28,11.01,2.29-5.52,12.74-9.42ZM87.97,164.58l3.72,2.71v4.87s-3.81-2.83-3.81-2.83l.09-4.76ZM87.02,164.72l.07,4.81-3.33,2.2-.19-4.51,3.45-2.5ZM82.79,167.82l-.03.19.08.05h.03s.12,4.34.12,4.34l-3.83,2.94v-4.9s3.64-2.62,3.64-2.62ZM92.61,167.87l3.49,2.58.14,5.16-3.79-2.75.15-4.99ZM96.92,171.02l3.5,2.7.12,5.15-3.58-2.67-.05-5.18ZM78.38,171.04l-.02,4.76-3.49,2.7-.16-4.86,3.67-2.59ZM115.25,177.18c-.69.8-.95.7-1.54-.62-.61-1.37-1.54-2.01-2.87-1.98-1.69.03-.58-1.19,1.2-1.34,3.09-.15,4.66,2.15,3.21,3.94ZM73.92,174.39l.09,4.77-3.47,2-.11-2.26,1.79-3.46,1.7-1.05ZM69.45,180.77l.12.87-.64.27.52-1.14ZM111.2,215.18c-14.6,3.46-28.6,2.24-38.64.18l-4.59,8.69-.32-.02-1.18,2.25.13.26s-3.81,8.11-5.42,10.67c18.76-.2,59.95-.3,59.95-.3l-2.51-5.59.14-.15-2.48-5.84-.81-1.01s-.49-1.06-.86-2.19c-.34-1.04-1.79-3.9-1.79-3.9l-.21.02-1.41-3.07ZM73.09,216.4c.19.17,18.7,4.03,37.88.06l1.05,1.94c-16.79,4.28-41.08.19-40.12-.21l1.19-1.8ZM73.41,220.23c1.69-.07,3.41.94,4.56,2.62.37.53.97,2.11.97,2.11,0,0,.81-1.49,1.6-2.23,1.2-1.12,2.76-2.06,5.02-1.98,2.08.08,4.36,1.33,6.42,4.93.52-2.08,7.34-9.13,12.96-.33.64-2.34,3.65-7.01,8.52-3.74.33.79.68,1.66.68,1.66-2.87-2.23-7.61-.73-8.73,2.75-.1.42.03.64.17,1.06,1.48,2.35-2.37,2.29-1.23.39.21-.43.23-.79-.11-1.35-.9-1.5-3.62-3.37-5.62-3.32-2.3.06-4.86,1.75-5.71,3.29-.31.57-.39,1.14-.11,1.63.2.5.13.92-.21,1.23-.79.72-1.79-.11-1.41-1.18.25-.47.21-1.05-.3-1.85-1.03-1.61-3.44-3.3-5.54-3.25-3,.08-6.03,2.47-5.84,4.44.08.87-.13,1.19-.77,1.09-.78-.12-.86-.93-.32-1.6.08-.21.21-.73-.04-1.1-3.17-4.75-7.91-3.36-9-2.3,1.06-2.01,2.53-2.9,4.02-2.96h0ZM70.58,223.52c1.19.01,2.47,1.01,2.88,1.79.29-.34,2.98-1.76,4.29.27-3.42-.29-3.47,3.74-.94,4.13-1.15,3.88,4.02,4.12,3.69.47,3.87.63,3.39-4.8-.25-4.22,1.91-1.54,3.2-1.04,5.5.72.77-1.11,3.91-2.15,4.68-.21-3.6-.25-2.99,4.37-.3,4.41-.8,3.2,4.49,4.38,3.67-.4,3.36.26,2.87-4.76-.35-4.35.24-.91,3.5-1.31,4.95.44,1.33-1.34,2.79-2.26,5.43-.34-3.6-.67-3.65,4.52-.3,4.21-.31,3.43,4.42,3.49,3.63-.47,3.6-1.08,1.62-5.35-1.02-4.17,1.18-1.55,3.18-.82,3.97-.51,2.45-3.11,4.59-.51,4.59-.51-4.27-.49-3.34,6.25.82,3.8,0,1.39.53,2.59,2.23,2.78l2.02,4.63-57.22.42,3.16-6.15c.32.11,2.14.3,2.54-2.07,3.76,1.32,4.01-3.53,1.2-4.3.34-.26.72-.36,1.12-.36h0ZM68.35,225.28c.37.67.06,1.1-.58,1.12,0,0,.42-.67.58-1.12ZM115.42,226.14l.37.86c-.4-.18-.45-.37-.37-.86Z"/>
    </g>
    <g id="Center_Symbols_K" data-name="Center Symbols K">
      <g>
        <use width="30.47" height="32.54" transform="translate(47.18 40.39)" xlink:href="#Club"/>
        <use width="30.47" height="32.54" transform="translate(150.1 228.89) rotate(-180)" xlink:href="#Club"/>
      </g>
    </g>
    <g>
      <use width="30.47" height="32.54" transform="translate(19.58 46.74) scale(.5)" xlink:href="#Club"/>
      <use width="30.47" height="32.54" transform="translate(177.7 222.54) rotate(-180) scale(.5)" xlink:href="#Club"/>
    </g>
  </g>
  <g id="Club_Corner_Characters" data-name="Club Corner Characters">
    <g>
      <use width="18.68" height="33.12" transform="translate(179.42 254.75) rotate(-180)" xlink:href="#Black_K"/>
      <use width="18.68" height="33.12" transform="translate(17.86 14.53)" xlink:href="#Black_K"/>
    </g>
    <use width="181" height="253" transform="translate(8.14 8.14)" xlink:href="#boundary"/>
  </g>
</svg>