<?xml version="1.0" encoding="UTF-8"?>
<svg id="Clubs" xmlns="http://www.w3.org/2000/svg" xmlns:xlink="http://www.w3.org/1999/xlink" viewBox="0 0 197.28 269.28">
  <defs>
    <style>
      .cls-1 {
        stroke-width: 0px;
      }

      .cls-1, .cls-2 {
        fill: #000;
      }

      .cls-3 {
        fill: none;
        stroke: #000;
        stroke-miterlimit: 10;
      }

      .cls-2 {
        font-family: ArialMT, Arial;
        font-size: 28px;
      }
    </style>
    <symbol id="Black_3" data-name="Black 3" viewBox="0 0 15.57 33.12">
      <text class="cls-2" transform="translate(0 24.03)"><tspan x="0" y="0">3</tspan></text>
    </symbol>
    <symbol id="Club" viewBox="0 0 30.47 32.54">
      <path id="path147-0-8-1-6-1-1-0-9-1-8" class="cls-1" d="M15.23,0c-6.65.14-9.63,7.63-4.7,13.44.71.85.79,1.33-.52.52C6.69,11.74.34,13.2.01,19.98c-.4,8.35,11.26,10.75,13.45,1.88.12-.94.88-.92.69.41-.2,3.61-1.33,6.98-2.88,10.27h7.9c-1.55-3.29-2.68-6.66-2.88-10.27-.18-1.33.58-1.35.69-.41,2.19,8.88,13.86,6.47,13.45-1.88-.33-6.78-6.68-8.23-10-6.02-1.31.81-1.23.33-.52-.52C24.86,7.63,21.88.14,15.24,0c0,0,0,0,0,0h0Z"/>
    </symbol>
    <symbol id="boundary" viewBox="0 0 181 253">
      <rect class="cls-3" x=".5" y=".5" width="180" height="252" rx="15" ry="15"/>
    </symbol>
  </defs>
  <g id="Club_Symbols" data-name="Club Symbols">
    <g id="Center_Symbols_3" data-name="Center Symbols 3">
      <use width="30.47" height="32.54" transform="translate(83.41 40.39)" xlink:href="#Club"/>
      <use width="30.47" height="32.54" transform="translate(83.41 118.37)" xlink:href="#Club"/>
      <use width="30.47" height="32.54" transform="translate(113.87 228.89) rotate(-180)" xlink:href="#Club"/>
    </g>
    <g id="Corner_Symbols_3" data-name="Corner Symbols 3">
      <path id="path147-0-8-1-6-1-1-0-9-1-8-2" data-name="path147-0-8-1-6-1-1-0-9-1-8" class="cls-1" d="M27.19,46.74c-3.32.07-4.81,3.81-2.35,6.72.36.42.39.67-.26.26-1.66-1.11-4.83-.38-5,3.01-.2,4.17,5.63,5.38,6.73.94.06-.47.44-.46.35.21-.1,1.8-.66,3.49-1.44,5.14h3.95c-.77-1.64-1.34-3.33-1.44-5.14-.09-.66.29-.68.35-.21,1.1,4.44,6.93,3.24,6.73-.94-.16-3.39-3.34-4.12-5-3.01-.65.41-.62.16-.26-.26,2.46-2.91.97-6.65-2.35-6.72,0,0,0,0,0,0h0Z"/>
      <use width="30.47" height="32.54" transform="translate(177.7 222.54) rotate(-180) scale(.5)" xlink:href="#Club"/>
    </g>
  </g>
  <g id="Club_Corner_Characters" data-name="Club Corner Characters">
    <g>
      <use width="15.57" height="33.12" transform="translate(177.37 254.75) rotate(-180)" xlink:href="#Black_3"/>
      <use width="15.57" height="33.12" transform="translate(19.91 14.53)" xlink:href="#Black_3"/>
    </g>
    <use width="181" height="253" transform="translate(8.14 8.14)" xlink:href="#boundary"/>
  </g>
</svg>