<?xml version="1.0" encoding="UTF-8"?>
<svg id="Clubs" xmlns="http://www.w3.org/2000/svg" xmlns:xlink="http://www.w3.org/1999/xlink" viewBox="0 0 197.28 269.28">
  <defs>
    <style>
      .cls-1 {
        fill: #262964;
      }

      .cls-1, .cls-2, .cls-3, .cls-4 {
        stroke-width: 0px;
      }

      .cls-2 {
        fill: #d2232a;
      }

      .cls-3, .cls-5 {
        fill: #000;
      }

      .cls-6 {
        fill: none;
        stroke: #000;
        stroke-miterlimit: 10;
      }

      .cls-4 {
        fill: #e1cf20;
      }

      .cls-5 {
        font-family: ArialMT, Arial;
        font-size: 28px;
      }
    </style>
    <symbol id="Black_Q" data-name="Black Q" viewBox="0 0 21.78 33.12">
      <text class="cls-5" transform="translate(0 24.03)"><tspan x="0" y="0">Q</tspan></text>
    </symbol>
    <symbol id="Club" viewBox="0 0 30.47 32.54">
      <path id="path147-0-8-1-6-1-1-0-9-1-8" class="cls-3" d="M15.23,0c-6.65.14-9.63,7.63-4.7,13.44.71.85.79,1.33-.52.52C6.69,11.74.34,13.2.01,19.98c-.4,8.35,11.26,10.75,13.45,1.88.12-.94.88-.92.69.41-.2,3.61-1.33,6.98-2.88,10.27h7.9c-1.55-3.29-2.68-6.66-2.88-10.27-.18-1.33.58-1.35.69-.41,2.19,8.88,13.86,6.47,13.45-1.88-.33-6.78-6.68-8.23-10-6.02-1.31.81-1.23.33-.52-.52C24.86,7.63,21.88.14,15.24,0c0,0,0,0,0,0h0Z"/>
    </symbol>
    <symbol id="boundary" viewBox="0 0 181 253">
      <rect class="cls-6" x=".5" y=".5" width="180" height="252" rx="15" ry="15"/>
    </symbol>
  </defs>
  <g id="Club_Symbols" data-name="Club Symbols">
    <g id="Queen_Face" data-name="Queen Face">
      <path id="path3391-4-8-9-0" class="cls-2" d="M104.25,236.61c.39-6.4.06-13.27.32-18.48-.18-.37.47-1.38.5-1.38-.38-.77-.51-2.76-.03-4.52,3.8-15.96,10.69-28.38,17.78-39.97,5.77,19.14-12.34,32.57-16.15,49.3-1.27,5.79-1.08,9.84-1.57,15.07l-.86-.03ZM74.14,236.85l-21.54-36.67,4.68-2.51,22.14,39.05-5.28.13ZM102,168.92c.19,1.05.94,1.62,1.74,1.14.78-.47.87-.5.39.33-1.07,1.83,1.1,3.61,2.5,2.03.5-.56.58-1.47.13-1.93-.51-.52-.62-.79.13-.39,1.88.84,2.92-2.16,1.1-3.17-.47-.26-1.39-.03-1.73.37-.42.48-.48.31-.36-.06.07-.22.11-.58.27-1,.12-.33.21-.79.21-.79l-1.93.02s.16.49.31.9c.15.38.2.67.28.83.26.58-.05.36-.57-.06-.74-.6-1.66-.43-2.18.36-.19.47-.36.95-.27,1.44ZM104.78,139.09l4.14-.14,4.55,13.85c-3.64,6.67-4.63,14.19-.39,21.81l-13.13.02c3.08-11.49,3.56-23.67,4.82-35.54ZM109.11,157.11c.56-.55.63-1.54.12-2.2-.64-.83-.49-.88.36-.33,1.23.78,2.41-.91,1.68-2.41-.46-.95-1.96-1.16-2.53-.32-.48.71-.42.06-.06-.88.13-.35.33-.99.33-.99l-2.01.05s.26.63.4,1.03c.37,1.07.38,1.4-.18.72-1.22-1.13-2.66-.31-2.67,1.32.01,1.25,1.04,2.06,1.94,1.47.55-.36.79-.44.18.38-.43.78-.27,1.77.29,2.24.77.51,1.59.48,2.15-.05ZM81.38,161.42c.16-.13.22-.04.12.13-.08.15-.3.36-.49.59-.94,1.15.28,2.61,1.78,2.38,1.03-.15,1.63-1.93.87-2.64-.25-.18-.44-.22-.63-.46-.01-.1.03-.17.12-.13.13.06.41.31.55.35.95.29,1.68-.15,1.92-.89.15-.86,0-1.78-.63-2.26-.59-.44-1.47-.31-1.98.43-.52.76-.59.04-.17-1.02.16-.4.27-.96.27-.96l-1.84.11s.1.44.26.94c.41,1.15.7,1.48.18.88-2.25-1.46-3,.53-3.04,1.32-.07,1.49,1.9,2.33,2.7,1.23h0ZM90.4,138.96h3.33c-2.51,14.72-7.65,27.04-16.31,35.51l-16.28-.06-7.85-6.05,3.03-4.34c20.67,2.35,29.48-8.95,34.08-25.08ZM75.42,173.06c.97-.47,1.38-1.69.74-2.51-.58-.74-.64-.97.25-.39,1.2.77,2.36-.77,1.77-2.27-.37-.93-1.52-1.22-2.35-.59-.73.6-.71.33-.33-.61.19-.47.33-1.22.33-1.22l-2.04.03s.15.53.3.9c.34.84.46,1.23.31,1.23-.08,0-.33-.26-.48-.4-.41-.41-1.52-.49-1.93-.05-1.22,1.28-.53,3.53,1.02,3.12,1-.27,1.23-.69.4.35-1.02,1.28.56,3.12,2.01,2.42ZM62.55,172.61c.84-.44,1.13-1.51.65-2.2-.48-.7-.71-1.15.14-.52,1.12.62,2.11-.2,2.09-1.61s-1.52-2.16-2.62-1.28c-.19.15-.42.29-.46.29-.14,0,.11-.8.38-1.32.12-.23.32-.69.32-.69l-2.04-.09s.11.61.27,1.08c.33.96.4,1.28-.17.73-1.53-1.58-3.17.43-2.53,2.17.34.98,1.39.98,2.01.49.56-.48.27.16-.11.66-1.05,1.38.49,3.09,2.06,2.28ZM155.72,135.74l.11,2.72-26.37,24.22-1.11-1.87,27.36-25.07ZM57.66,140.83c3.8-2.98,8.02-8.32,12.19-11.11,3.04,7.71-4.1,15.27-12.19,11.11ZM126.97,139.41c-2.68-16.3,13.21-12.91,12.37-11.45l-12.37,11.45ZM41.62,129.44l26.1-23.45,1.19,1.97-27.54,24.86.25-3.38ZM113.12,105.79c.07.25.86,1.18.86,1.26-.23-.19-1.57-1.01-2.22-.21-.23.29-.52,1-.49,1.73.27,1.31,1.62,1.77,2.58.87.28-.26.51-.57.57-.46.05.1-.1.54-.22.9-.14.37-.67,1.13-.29,1.13h1.85s-.07-.48-.29-1.01c-.41-.99-.4-1.53.1-.81.97,1.39,2.86.23,2.66-1.43-.14-1.2-1.25-1.89-2.06-1.32-.09.06-.35.35-.39.35-.1,0,.17-.45.35-.83.6-1.26-.29-2.43-1.66-2.31-.44.04-.92.35-.93.39-.51.46-.6,1.24-.45,1.75ZM135.65,94.02c2.61,2.65,5.22,4.59,7.83,6.28l-2.46,4.29c-16.7-1.7-28.85,5.57-33.91,25.3l-2.75.58c1.04-12.31,4.78-24.51,15.84-36.44l15.46-.02ZM119.65,96.97c0,.58.98,1.28.76,1.44-.1.06-.68-.5-.94-.53-1.93-.23-2.33,3.08-.42,3.45.38.07,1.15-.18,1.38-.39.31-.28.52-.5.58-.48.12.05-.15.64-.36,1.07-.19.41-.47,1.25-.47,1.25h2.19s-.2-.73-.4-1.26c-.25-.67-.31-1.1-.14-1.05.07.02.16.23.31.37.95.9,2.34.51,2.71-.89.34-1.32-1.09-2.68-2.09-1.94-.35.26-.35.06,0-.51.32-.53.24-1.33-.05-1.8-1.05-1.23-3.13-.35-3.08,1.27ZM135.39,100.88c-.05-.29.02-.21.3.11.88,1.01,2.39.85,2.78-.48.38-1.33-.79-2.86-1.81-2.34-.53.27-.54.18-.24-.26.79-1.13-.08-2.61-1.43-2.59-1.23.02-1.96,1.32-1.36,2.44.25.46.17.56-.27.33-1.26-.67-2.43,1.52-1.51,2.83.54.77,1.8.85,2.52.09.38-.4.38-.21.1.63-.24.73-.51,1.32-.51,1.32l2.18.02s-.58-1.22-.75-2.09ZM88.72,130.39c.63-.18-2.24-10.21-4.34-14.68,2.4-6.33,5.68-12.46.16-21.57l13.4-.04c-4.14,10.35-4.23,36.46-5.2,36.53l-4.02-.24ZM89.9,118.78s-.66-1-.7-1.82c-.08-.52.04-.55.29-.02,1.19,1.45,2.81.05,2.82-1.24.14-1.18-1.11-2.19-1.92-1.6-.56.41-.72.29-.21-.47.71-1.08-.06-2.49-1.33-2.47-1.65.02-2.27,1.71-1.1,2.92.87.89.06.37-.63.05-1.35-.62-2.23.89-1.63,2.42.42,1.05,1.64,1.33,2.36.47.39-.47.76-.74.54-.03-.11.57-.71,1.78-.71,1.78l2.22.02ZM91.97,102.87s-.79-1.1-.93-1.92c-.05-.3.15-.23.6.2,1.44,1.36,3.42-1.08,2.08-2.58-.46-.51-.93-.66-1.47-.35-.67.39-.62.2-.28-.2.49-.59.46-1.66-.07-2.18-1.47-1.44-3.79.71-2.42,2.24.59.67.31.58-.34.15-1.24-.81-2.6,1.42-1.67,2.73,1.1,1.02,1.92.52,2.68-.12.17-.1.31-.14.31-.06,0,.15-.76,2.12-.76,2.12l2.29-.03ZM74.39,96.69c-.82-.06-1.4-8.48-.4-11.15,2.13-11.25,8.64-19.44,12.68-26.33,6.49-10.26,5.69-27.3,5.96-26.62l.92.12s-.71,9.99-.31,14.5c.42,3.97.33,4.22.07,4.61-.07.37.03,1.45-.04,1.82-2.89,14.7-9.79,29.81-16.91,41.21l-1.97,1.83ZM141.18,71.02l-21.93-38.12,5.27-.52c1.96,3.42,21.01,35.98,21.01,35.98l-4.35,2.66Z"/>
      <path id="path3395-8-0-1-6" class="cls-4" d="M50.86,237.53c2.49-10.08-4.26-33.52-8.49-36.58,4.95-.23,10.91-.13,10.72-.64,0,0,21.06,36.51,20.89,36.7-.16.18-23.13.52-23.13.52h0ZM136.22,180.36c-5.1-.8-3.09-5.47.19-5.95-.43.08.35-2.32,3-3.29.6-1.2,1.07-3.25,1.62-4.21-1.59.57-3.51,2.05-10.72.88.63-3.76,7.52-4.41,10.01-3.82,1.44.37,2.85,2.73,3.29,2.77,4.43-.81,10.06,3.6,8.35,8.08-.26.64-.94-.76-2.43-1.35-4.82-1.92-5.15-4.8-6.26-6.08-.4-.08-2.53,4.56-2.53,4.56l.66,3.15c1.15-.12,6.29,3.38-.1,5.75-1.77,6.71-5.09,1.97-5.08-.49h0ZM148.32,150.39c-.27-.31.21-2.39.86-3.6.35-.65,1.16-1.08,1.63-.99.84.16.71,1.52-.41,5.48-.05.57-1.19.63-2.09-.89ZM46.67,122.64c-1.4,0-.14-4.2.72-5.54.28-.41,1.4.47,1.46,1.08.1,1.09-1.42,4.89-2.18,4.46ZM45.68,94.1c1.71.45,4.41,2.35,5.7,3.39,1.6,1.32,1.17,3.91,2.45,4.14.87-.47,2.46-4.71,2.46-4.71,0,0,.4-2.18-.73-2.85-2.81-1.67-2.76-3.47-2.58-3.63.83-2.38,2.49-1.96,3.39-2.09.02-1.3-.02-4.06,2.43-3.77,2.14.22,2.35,3.6,1.45,3.63-.02-.06,4.05-.64,4.01,2.31-.02,1.6-2.43,3.65-3.19,2.91,0,0,.4,3.2-3.24,4.29-.85.96-1.55,5.02-1.55,4.66,2.2-2.19,5.64-2.7,11.07-1.91-3.36,6.87-12.67,3.66-13.4,2.33-4.68-1.56-9.07-3.58-8.27-8.68ZM85.75,77.62c4.95.5,10.37-1.22,14.48-.31.47.07.98.84,1.26,1,2.13,1.28,4.36.88,7.78-.55.85-.35,16.54-.22,16.54-.22,3.58,5.82,9.93,16.77,10.07,16.4,0,0-8.7-.11-12.71.15-2.82.18-1.16.61-3.12.7-13.72,11.35-16.33,35.89-16.33,35.89,0,0,4.36-1.26,5.5.06,5.39-17.39,15.63-25.32,29.91-23.77,6.6.72,14.47,7.87,14.47,7.87l-14.12,12.66c-10.94-6.08-15.62,11.84-12.31,11.89l28.43-25.61s.49,2.09.44,2.16c-2.03,2.93-35.92,33.25-35.92,33.25l-1.49-1.81s-.94.91-1.43,1.52c-.05.99.27,1.84.95,2.61-6.71,5.94-6.94,16.83-1.99,22.78,0,0-2.2.17-2.43.21-2.79.53-5.67-14.63-.15-21.69-2.79-6.03-4.51-14.23-4.86-14.61.07.97-4.4.65-4.4.65-.34,12.25-1.5,24.27-4.17,35.84l20.57.49-8.76,16.75s-9.83-.27-14.06-.6c-4.42-2.83-6.97-.68-11.12.37-5.9.19-14.59-.11-14.59-.02-2.95-6.45-6.11-11.19-10.42-16.72-.55-1,17.47-.38,17.47-.38,0,0,9.01-15.02,10.65-19.26,1.28-3.31,4.15-15.36,4.15-15.36.13.63-1.64-3.13-5.76-3.05-3.41,24.96-30.31,33.36-46.51,17.3l-.15-2.9,35.68-31.9,1.59,2.02c-.34-.3-21.9,19.47-21.55,19.35,6.39,3.69,13.79.7,12.93-11.4,5.06-4.03,9.55-8.73,13.96-13.53.09-.19,4.92,11.93,4.8,14.26,2.77-1.03,4.42,1.13,4.37.76-1-7.01,4.57-33.57,4.68-36.63-3.09-.27-7.19-.15-13.62-.43,5.17,11.02,3.37,18.48-3.85,25.27l-1.51-2.09c.61.38,10.55-9.1,2.55-23.25-.37.03-4.22-.38-4.22-.38,0,0,7.89-13.8,8.29-15.75ZM124.09,32.08s22.52-.6,22.53.13c-.72,13.33,2.1,25.5,8.91,36.74,0,0-9.97-.39-9.79-.25l-21.64-36.62Z"/>
      <path id="path3393-8-5-4-3" class="cls-1" d="M157.14,31.14H40.14v207h117V31.14ZM146.14,32.04s-1.51,21.91,8.87,36.26c-6.34-1.06-9.97.01-13.66,2.89l.51.57c5.08-3.44,9.4-2.54,13.81-2v28.2c-.03,1.37-5.28.76-8.53-1.93-1.54-1-3.52-3.1-4.41-4.68-.27-.48-.56-.95-.63-1.05-.3-.38-2.15-4.17-5.54-11.36-1.73-3.65-4.01-8.64-5.86-12.5-1.2-2.5-3.43-7.23-3.59-7.6-.33-.79-2.76-6-3.7-7.9-2.5-5.02-6.53-13.77-7.96-16.91-.32-.81-.8-1.19.06-1.16.19,0,.38.02.49.05.15.08.34-.29.34-.29l29.8-.58ZM41.75,150.61v-2.22l34.09-30.92,1.09,1.54-35.17,31.6ZM74.77,96.45c-.14.06-.29.11-.45.17-.87-4.29-.38-10.03.65-14.34,1.5-5.99,4.3-10.79,7.42-15.62,7.13-11.02,10.29-19.33,10.16-34.13l1.02.12c-.04,2.34-.32,4.1-.41,7.21-.13,3.33-.08,5.87.24,9.12.16,1.6.25,2.64,0,2.84-.12.1-.22.66-.12.86-.02.44-.07,1.33-.07,1.33-1.63,8.81-10.39,31.41-18.47,42.43h0ZM79.02,116.48l-1.8-2.44s-1.39-1.23-.14-2.62c3.6-4.03,3.63-9.14.14-13.74-.23-.58,1.08-3.54,1.08-3.54l2.74.05c4.28,5.73,5.44,15.86-2.02,22.29ZM81.54,93.73c.09-.39-4.06-.24-4.06-.24,2.58-4.23,4.77-8.59,6.92-12.95,3.34-6.61,7.97-18.18,9.42-26.57,1.08,9.81,2.65,24.38,10.27,24.95,2.5.19,5.39-1.7,5.86-1.39l15.83-.14c3.25,7.25,6.73,11.93,10.86,16.89,2.97,1.87,6.59,3.34,10.09,4.3,1.99.54,2.18.18,6.1.8,1.03.16,2.61-.32,2.6-.32-3.13,2.72-6.74,1.95-10.72.79-.22-.07-.46-.14-.69-.23l-3,4.98c-6.69-1.75-28.16-.51-33.82,25.22,0,0,.58.33.45.15,4.5-22.33,23.48-26.78,32.54-24.56l-.78,1.31c-15.02-2.02-27.25,8.33-30.16,23.01l.29.29c5.64-22.2,29.33-30.41,44.02-15.02l2.69-2.1-.09,2.85-36.12,33.35-1.44-1.65s-.25.21-.54.48c-.93.85-1.3,1.06-1.04,1.54.26.48,1.27,1.55,1.32,1.67-5.99,5.38-7.89,15.75-2.2,23.02.64.77.52.98.4.11-5.11-6.12-4.46-16.95,1.91-22.09l1.28,1.85c-2.8,6.78-4.3,17.36,3.07,18.28,2.64,7.8-.4,17.04-3.79,23.23-3.59,7.14-7.95,13.07-10.67,20.84-1.32,3.24-3.42,12.86-3.31,20.21h-.79c0-3.01.18-6.56.2-8.84.11-11.08.1-10.43.32-10.71.07-.09.29-.19.31-.27.03-.12-.16-.35-.24-.62-.08-.28-.21-.77-.2-1.18.01-.41.36-1.01.3-1.14-1.59-6.12-1.72-17.11-6.83-22.16-2.51-2.37-5.84-2.47-10.16-.52-9.53.02-8.11.56-15.81.07-3.18-6.42-7.04-12.68-11.22-17.31-1.95-2.4-4.67-3.71-7.22-5.45,1.02-2.14,2.18-3.7,3.45-4.72.26-.41.44-.86.78-1.21,25.94,2.75,31.57-24.94,30.38-24.24l-.23.22c-7.09,28.53-32.33,27.49-45.02,15.15,0,0-1.79,1.72-1.8-.17,0-1.71.56-2.21.56-2.21l35.61-32c.65.46,1.35,1.98,1.64,1.81.66-.38,1.62-1.16,1.59-1.62-.02-.35-1.3-2.57-1.3-2.57,9.53-10.87,5.23-15.72,2.17-23.17h0ZM95.04,32.65c.17,0,.33.09.45.3.22.38-.65,2.58-1.18,2.97-.51.37-.54-.06-.18-2.19.11-.63.53-1.07.9-1.08ZM147.29,32.71h8.38v34.88c-6.16-9.55-9.35-20.52-8.38-34.88ZM97.25,32.77c.21-.01.39.05.45.22.21.59-1,3.13-2.49,5.24-.78,1.09-1.17,1.41-1.41,1.15-.2-.5-.2-1.08.52-1.99.59-.75,1.59-2.5,2.01-3.48.18-.58.36-1.1.94-1.14ZM105.72,32.89c.24,0,.49,0,.56.12,1.44,3.24,4.15,6.16,6.93,7.72.4.25.21.89.35,1.33-3.12-.51-7.21-5.38-8.3-8.93,0-.26.23-.25.47-.25ZM110.6,32.89c.62.69,1.6,1.53,1.82,2.33.13.49.23,1.04.14,1.31-.54.37-3.23-3.07-3.13-3.47.34-.25.77-.3,1.17-.16ZM98.93,32.84c.26.01.67,0,.73.21.34,1.5-2.77,7.35-5.04,9-.81.59-.86.43-.79-.55.04-.66.1-.61.93-1.48,1.18-1.24,2.47-3.16,3.18-4.86.91-2.18.69-2.32,1-2.32ZM101.04,32.86c.3,0,.57.11.65.26.1.2-.04.51-.13.91-1.02,3.2-3.57,7.79-6.56,10.4-1.16.99-1.36.98-1.44-.04-.05-.59.2-.77.74-1.18,2.54-1.94,4.82-5.3,5.78-8.74.19-.67.12-1.27.45-1.47.15-.09.34-.13.52-.13ZM116.78,38.4c.12.23.99,1.73.28,1.16-.29-.26-.82-.93-1.67-1.99-2-2.5-2.06-2.34-2.02-2.97.02-.81-.51-2.14.63-1.79,1.12,1.45,1.82,3.78,2.77,5.58ZM107.69,32.91c.23,0,.49.04.72.09,1.31,2.72,4.52,5.12,4.51,5.1,0,0,.08,1.19-.04,1.39-.07.37-5.1-3.85-5.66-6.37.05-.16.24-.22.46-.22ZM104.11,32.96c1.18,2.39,3.62,7.82,9.35,10.01.41.1.85,1.39.54,1.75-3.14-1-8.84-4.39-10.77-11.72.19-.2.69-.16.89-.03ZM102.57,33.43c-.2,0,2.7,9.23,10.97,11.98.71.25,1.13.59,1.09,1.05-.06.59-.04.66-.83.22-2.25-1.3-5.47-1.91-8.15-.4-.42.23-.84.87-.51,1.28.19.2.67.05,1.27-.21,3.12-1.34,7.9-.55,8.75,1.55.6,1.49.7,2.6.37,2.78-.25.14-.67-.36-1.42-1.08-2.38-2.3-5.22-2.94-7.48-.73-.49.48-.97.4-1.14.59-.17.19.03.62.17,1.04.15.44.15.56,0,.93-.2.51-.21,1.16-.18,1.64.05,1.18.76,2.19,2.79,3.74,1.58,1.21,2.82,1.89.89.17-3.33-2.97-3.93-4.18-1.77-3.15,2.15.95,5.14,0,7.25-1.78.72-.01,1.15-.15,1.53.15,1.58,4.08,2.87,9.51,4.96,14.77-2.5,3.12-11.22,10.75-17.43,10.48-5.36-.24-7.26-9.91-8.45-15.26-.4-2.26-.86-4.57-.8-7.76,0,0,.1-.09.24-.06.9.19,2.45.32,3.23.11,1.43-.37,1.71-.65,1.8-.42.1.27-.5.89-1.53,1.67-.45.34-1.77,1.04-1.63,1.14.31.23,1.91-.7,2.17-.95.42-.39.7-.41.9-.2.23.25.28-.02-.49,2.09-.85,2.32-.77,2.53.89,3.96.58.5,1.1.99,1.23,1.21.16.28.27.62.34.73.28.41.11-.25-.06-1.31-.19-.78-.89-1.56-1.38-1.93-.9-.69-.76-1.37-.02-3.73,2.2-6.95,1.64-10.05-.78-11.56-1.09-.68-4.16-.5-5.13.39-.48.44-.41-.42-.33-.48,5.82-4.41,7.19-8.62,8.67-12.68h0ZM113.81,36.83c1.65,1.81,3.71,4.26,4.95,6.01.68.93,1.04,1.89,1.58,2.86.1.18.2.38.13.46-.03.04-.26-.12-.39-.23-1.21-1.01-6.21-7.28-6.21-7.28-.23-1.03-.39-1.38-.05-1.83ZM114.8,41.09s4.33,5.21,6.82,7.78c.49,1.13,1.42,2.76,1.4,3.03-.01.12-.53-.32-.53-.32-2.74-2.78-5.28-5.91-7.91-8.88.02.02-.21-1.23-.21-1.73.06-.25.32.03.44.12ZM124.2,54.46c.58,1.05,1.01,1.98,1.29,2.6.46.97.31,1-.1.64-3.1-2.8-5.7-6.2-8.62-9.32-.38-.43-1.14-1.39-1.14-1.39.03.03-.95-2.25-.34-2.2.48.21.8.78,1.11,1.15,1.53,1.81,4.45,4.91,7.8,8.52ZM97.16,47.01c1.28-.04,2.54.32,3.17,1.19.58.79.81,2.03.49,2.39-.2.23-.91-.41-.91-.41-3.01-1.86-4.05-.97-5.68-.42-.23.08-.48-.61-.18-1.3.6-1.14,2.12-1.42,3.11-1.45h0ZM116.11,48.77c3.22,3.56,6.49,7.51,9.98,10.57.49.46.82.75,1.05,1,.46,1.01,1.52,3.4,1.52,3.4-3.74-2.88-12.15-12.8-12.06-12.73.08.05-.7-1.82-.49-2.24ZM109.8,49.36c.59,0,1.23.2,1.74.42,1.62.71,2.64,1.47.96,1.21-2.34-.35-3.14-.37-3.99-.22-1.59.28-1.71.48-1.85.2-.36-.73,1.38-1.6,3.14-1.61ZM96.52,49.57c.59,0,1.22.14,1.85.44,1.98.96,2.33,1.58.64,1.28-.88-.16-2.48-.14-3.63.19-.36.1-.77.34-.86.37-.41.14-.52-.19-.35-.76.3-.97,1.23-1.51,2.35-1.52ZM110.89,52.36l.41.03c-.51,3.19-3.41,2.88-4.18.14h.41c1.52,2.61,2.66,1.07,3.37-.17ZM112.5,52.52c1.34-.02,1.25.87-.14,1.46-1.07.46-1.19.37-.8-.51.38-.85.34-.95.94-.95ZM98.72,52.64c.13,2.88-3.51,3.4-3.73.27l.35-.02c1.19,2.47,2.57.98,3-.25h.39ZM100.34,53.03c.41.31.16.74-.74,1.34-.81.55-1.01-.12-.35-1.04.28-.3.74-.55,1.09-.29ZM106.65,53.03c.16-.06.54.72.21.91-.19.11-.47-.21-.51-.44-.03-.19.08-.39.29-.47ZM117.54,53.2c2.43,2.95,4.87,5.91,12.02,12.32,0,0,1.01,1.98,1.23,2.75-.17.24-.26.21-.77-.06-4.66-3.97-9-8.79-12.39-13.27-.16-.63-.52-1.24-.09-1.74ZM94.4,53.5c.28-.01.66.67.45,1.08-.18.15-.45-.08-.57-.27-.12-.19-.12-.53-.04-.68.04-.09.1-.13.16-.13ZM118.55,57.58c-.02-.1,11.29,12.53,12.74,12.29.68.44,2.36,4.03,2.36,4.03.05.11.04.32-.23.18-1.91-1.04-9.9-8.35-13.99-13.79-.3-.79-.66-1.8-.87-2.7ZM105.11,59.44c1.97,1.05,1.12,3.2-.96,1.83-1.64-1.1-2.94-1.2-2.93-.25,0,.4.45.92.88.91.81.06,1.55.38,2.34.58,1.24.29,2.17-.07,2.48-.9.53-1.41-.73-2.95-1.55-2.87-.83.08-.62.52-.27.69h0ZM120.73,62.89c-.14-.13,5.62,6.82,13.48,12.57.3.39,1.06,2.39,1.18,2.67-.03.19-.2,0-.2,0-3.97-2.53-9.2-7.54-14.16-13.23,0,0-.48-1.26-.62-2.08.11-.05.22.02.33.07ZM107.64,65.39c-.18.03-.42.32-.71.5-.6.37-.8.46-2.28-.03-.81-.27-.94-.25-1.42.15-.42.34-.65.4-1.12.17-.84-.42-1.23-.11-2.02.19-.74.3-1-.06-1.67-.23-.09,0-.13,2.98-.04,3.07.03.03.7-.45,1.07-.66.65-.36.56-.31,1.5-.26,1.4.27,2.78.18,3.72-.23,1.17-.36,2.08-.3,2.88.43.49.44,1.14.37.76-.44-.13-.28-.43-1.31-.39-1.7.05-.57-.06-.94-.26-.95-.01,0-.02,0-.03,0ZM122.58,67.71c2.65,2.8,5.92,7.08,13.61,12.04.4.77.94,1.8,1.29,2.6.03.22-.02.42-.21.34-4.75-3.32-7.4-4.93-13.98-12.09-.41-.73-.85-1.96-1.18-2.97.07-.28.38,0,.49.07ZM121.46,68.78l2.94,6.09-9.91-.02c2.52-1.65,4.92-3.86,6.96-6.06ZM105.04,68.92c-1.63.71-1.87.86-3.49.43-.94-.25-.68.35-.2.6,1.22.63,2.98.18,3.63-.31.43-.31.73-1.01.05-.71ZM103.37,70.8c-1.7.03-3.31.68-3.43,1.44-.02.15.12.31.38.14,1.15-.77,4.02-1.02,6.19-.15.35.14.41-.1.05-.43-.81-.74-2.02-1.01-3.19-1ZM124.99,73.4c3.21,3.26,6.3,6.26,13.2,10.63.5,1.19,1.22,2.62,1.34,2.75-6.47-3.46-13.52-10.29-13.52-10.29,0,0-1.11-2.18-1.36-3.11-.02-.31.25-.06.34.02ZM127.2,78.48s5.9,5.5,12.63,9.24c.27.29.95,2.06,1.17,2.25.22.19-.27.19-.75-.08-3.52-1.79-11.08-7.51-11.08-7.51-.72-1.31-1.76-2.67-1.98-3.89ZM56.55,101.47c.54-1.27,1.09-2.69,1.45-3.84,1.61.02,2.4-.65,2.97-1.44.81-.02,1.44-.02,2.55-.06-.04-1.21.01-2.92.01-2.92,1.12-1.28,1.89-2.75.14-5,0,0-.07-1.05-.1-2.84-.8-.14-2.6-.05-2.6-.05-1.46-2.26-4.04-1.69-4.82,0,0,0-1.16.07-1.96.07-.02.48-.15,2.59-.15,2.59,0,0-3.39,2.55.13,5.56l-.05,2.53c.66.06,1.13,0,1.99.19,0,0-1.35,3.45-2.23,5.08-.3.09-.23-.1-.6-1.25-.44-1.35-1.44-2.82-2.28-3.55-1.15-.97-2.71-1.28-3.81-2.12-1.05-.82-1.8-1.87-2.13-1.67-.11.41-.23,2.76.17,4.28.56,2.49,3.81,4.07,6.52,5.27.21.15.39.37.39.45,0,.41-.36.28-1.25.19-1.35-.15-1.9.26-2.37,1.52-.14.31-.48.85-.75,1.21-.27.36-.56.7-.6.86-.04.15-.32.92-.6,1.56-.17.4-.45.81-.47,1.39-.06,1.78-.09,4.18.16,5.69.18,1.11,1.45,1.75,1.89,1.84.67.14.79.89.69,1.5-.52,3.03-2.1,4.89-2.61,3.89-.13-.26-.27-1.5-.31-1.49-.02.01-.27,1.05-.17,1.48.1.46.63.79,1.15.58.77-.31,1.38-1.15,1.86-3.08.2-.79.38-1.23.72-1.28.61.05,1.57,1.44,1.57,1.44-3.18,2.92-9.28,8.21-9.28,8.21V32.71h50.1c.28,7.58-.55,14.03-3.02,20.78-2.93,7.27-7.47,12.68-10.94,19.37-4.19,8.08-5.54,16.46-4.11,24.89-4.29,6.18-7.9,9.15-11.32,12.02,0,0-2.57-2.98-4-4.64,0,0,.6-.05,1.31-.09,3.26-.4,6.78-.91,8.14-4.65.19-.42.11-.6-.12-.66-2.55.39-4.77,0-6.21.11-3.54.28-5.03,1.63-5.03,1.63h0ZM56.93,104.23s-4.09-2.14-4.39-2.2c-1.78-.36-6.08-2.83-6.81-4.51-.09-.22-.33-3.28-.41-3.91.03-.2.1-.19.28-.05.46.35,2.24,1.63,2.9,1.98,2.72,1.46,3.77,2.49,4.43,4.68.17.55.34,1.12.44,1.24.22.26.31.24.58,0,1.16-1.66,1.71-3.04,2.25-4.83.07-.2.22-.4.13-.69-.21-.79-.73-1.81-.2-2.58-1.7.09-3.33-1.29-3.12-2.66.45-2.55,1.43-2.09,3.27-2.46-.21-5.89,4.79-4.46,4.77-.36,5.49.51,2.9,6.11-.29,5.25,1.27,3.18-2.54,4.37-3.07,3.83-.21,1.03-1.66,4.34-1.97,5.32,4.07-3.18,10.62-1.77,11.56-1.97-2.36,5.45-10.09,4.12-10.35,3.89ZM130.21,84.16c1.03.88,9.8,6.92,11.41,7.05,0,0,.77.96,1.41,1.83.6.81.81.94.88,1.1.07.16-.22.15-.27.15-3.94-1.89-7.95-3.88-11.36-7.01-.46-.43-.56-.63-.79-.95-.3-.44-1.19-2-1.29-2.16ZM133.11,89.04c4.01,2.48,7.41,4.89,11.07,6.18.52.22.79.23,1.05.43.26.2,1.37.96,1.64,1.13,1.67,1.08,1.84,1.03,1.42,1.21-.46.2-3.38-.74-5.86-1.75-4.39-1.79-5.94-2.8-7.52-4.38-.36-.41-2.02-2.6-1.79-2.83ZM53.21,102.88c.34,0,.88.22,1.44.7.6.51,2.08,1.57,2.69,1.86.31.15.41.19.41.19l3.94,4.93-10.15,9.09s-.82-.93-1.09-1.24c-.25-.29-.18-.54.13-.87.25-.27.27-.85.23-1.13-.06-.42-.05-.9.43-1.29.39-.32.45-.87.43-1.03-.01-.12.21-.53.55-.8.71-.57.93-1.27.69-2.09-.1-.34-.16-.43.25-.73.72-.53.9-1.04.96-1.81,0-.12-.02-.25-.04-.35-.14-.83.52-.62,1.06.42.3.57.38,1.49.53,2.55.18,1.25.3,1.58.36,1.41.35-1.01-.06-4.78-1.11-5.29-1.52-.75-2.8-2.28-2.41-2.88.13-.21.16-.14,1.08.34.54.28,1.05.5,1.12.5,1.07.04.42-.47.07-.52-.42-.06-1.68-.91-1.83-1.2-.25-.49-.11-.74.23-.75ZM50.62,103.53c.99-.01,1.18.28,1.19,1.22,0,.56.19.98.98,2.09.32.45.54.8.52.97-.03.29-.13-.01-1.22-.15-.39-.05-.58-.06-.72.16-.38.61-1.17-.03-1.66-.93-1.17-2.16-.76-3.34.91-3.36ZM69.51,104.83l10.79,14.55-1.22,1.04-10.83-14.35,1.26-1.24ZM67.71,105.72l1.16,2.15s-3.34,3.15-4.22,4.04c-7.1,6.34-23.13,20.72-23.13,20.72l-.22-2.89,26.41-24.02ZM48.24,106.11c.21,0,.45.3.79.87.3.5.93,1.5,1.61,2.18,1.31,1.33,1.44,1.21.37,1.34-.42.05-.56,0-.82.71-.78,1.08-3.1-2.78-2.55-4.25.21-.58.39-.86.6-.85ZM52,108.19c.19-.01.45.07.75.27.57.26.61.41.52,1.01-.09.58-.49.73-1.27-.03-.6-.62-.49-1.22,0-1.25h0ZM69.22,108.55l1.27,1.8-28.73,25.64v-2.95c.7.1,19.12-17.57,27.46-24.49ZM46.91,108.84c.08-.02.2.27.52.8.65,1.08,1.25,1.79,1.93,2.35.64.53.72.83.27.84-.19,0-.45.22-.58.48-.27.52-.3.39-.72.12-.6-.39-1.2-.97-1.44-1.74-.23-.72-.25-1.82-.07-2.63.03-.14.06-.21.09-.22ZM51.45,110.89c.73-.03,1.26.91.78,1.67-.27.29-.51.43-1.05.08-.71-.46-.84-1.17-.26-1.57.18-.12.36-.18.53-.19ZM46.73,112.92c.15,0,.43.24.9.76.36.4.98.75,1.23.9.56.34.58.46.28.74-.13.12-.55.12-.67.5-.33,1.06-1.73-.17-1.86-1.69-.07-.77-.07-1.2.12-1.21ZM50.24,113.05c.92.04,1.35,1.22.62,1.8-.4.32-1.4-.24-1.5-.82-.06-.37.53-1,.88-.98ZM71.69,113.93c.53,0,.96.47.96,1.06s-.43,1.06-.96,1.06-.96-.47-.96-1.06c0-.59.43-1.06.96-1.06ZM68.82,114.37c.53,0,.96.47.96,1.06s-.43,1.06-.96,1.06-.96-.47-.96-1.06.43-1.06.96-1.06ZM49.52,115.78c.06,0,.12,0,.18,0,.88.05.93.97.41,1.47-.31.3-.6.39-1,.03-.73-.64-.46-1.45.42-1.51ZM70.96,117.34c.53,0,.96.47.96,1.06s-.43,1.06-.96,1.06-.97-.47-.97-1.06.43-1.06.97-1.06ZM155.55,117.4v2.68l-33.99,31.18-1.15-1.66,35.14-32.21ZM69,117.63l-2.51,6.22-.76-1.6h-1.88s.58-1.86.58-1.86l-1.11-1.48,5.68-1.28ZM122.54,143.51l4.48-3.95c-1.93-10.71,5.76-14.98,13.07-11.87l4.54-4.27c-8.43-7.83-28.26-2.52-22.09,20.09ZM61.98,122.57c.53,0,.96.47.96,1.06s-.43,1.06-.96,1.06-.96-.47-.96-1.06.43-1.06.96-1.06ZM59.06,122.83c.53,0,.93.44.93,1.03s-.4,1.1-.93,1.1-.96-.48-.96-1.07.43-1.06.96-1.06ZM74.62,124.99l-4.44,3.92c1.15,10.26-3.38,15.48-13.12,11.97l-4.71,4.12c12.72,9.64,29.37-2.79,22.26-20ZM60.96,125.91c.53,0,.96.47.96,1.06s-.43,1.06-.96,1.06-.96-.47-.96-1.06.43-1.06.96-1.06ZM154.31,126.18c.53,0,.97.47.97,1.06s-.43,1.06-.97,1.06-.96-.47-.96-1.06c0-.59.43-1.06.96-1.06ZM58.97,126.43l-2.84,6.19-.71-1.86-1.9.03.62-2.16-1.19-1.11,6.02-1.08ZM150.5,127.09l.88,1.64,1.86.05-.7,1.56,1.35,1.53-6.07,1.64,2.68-6.41ZM52.2,131.58c.53,0,.97.47.97,1.06,0,.59-.43,1.06-.97,1.06s-.96-.47-.96-1.06.43-1.06.96-1.06ZM49.43,131.7c.53,0,.97.47.97,1.06,0,.59-.43,1.06-.97,1.06s-.96-.47-.96-1.06.43-1.06.96-1.06ZM145.81,132.33c.53,0,.96.47.96,1.06s-.43,1.06-.96,1.06-.96-.47-.96-1.06.43-1.06.96-1.06ZM155.66,132.49v2.36l-27.61,25.3-1.16-1.64,28.77-26.01ZM51.36,134.79c.53,0,.96.47.96,1.06,0,.59-.43,1.07-.96,1.07s-.96-.48-.96-1.07c0-.59.43-1.06.96-1.06ZM147.78,135.05c.53,0,.96.47.96,1.06s-.43,1.07-.96,1.07-.96-.48-.96-1.07c0-.59.43-1.06.96-1.06ZM145.06,135.24c.53,0,.96.47.96,1.06s-.43,1.07-.96,1.07-.97-.48-.97-1.07c0-.59.43-1.06.97-1.06ZM155.82,135.61l-.08,3c-8.6,8.08-26.19,24.13-26.13,24.14l-1.33-2.02s19.28-18.31,27.54-25.12ZM49.59,135.17l-2.65,6.6-1.14-1.78-1.67-.13.4-1.78-1.54-1.15,6.61-1.76ZM141.59,137.78l1.69-.35-.3,1.91,1.19,1.38-6.24,1.51,3.02-6.17.63,1.72ZM150.92,169.92c1.27,2.09,1.18,4.36.66,4.71-.56-.35-1.04-.95-1.62-1.22-2.91-1.38-5.23-2.52-5.64-4.55-1.58-4.6,5.56-.68,6.61,1.06ZM135.64,157.7l9.78-8.78s1.5.85,1.78,1.24c.1.43-.17.56-.57.95-.18.26-.3.51-.31,1.07-.01.6.17.87-.05,1.14-.37-.02-.66.51-.65.94.01.33-.38.69-.61.94-.4.44-.52.53-.78,2.01-.03.15-.02.54-.21.74-.57.06-.98,1.58-1.23,1.68-.41-.03-1.07-.59-1.23-1.41-.1-.53-.08-1.57.04-2.24.14-.8.2-1.52.15-1.71-.11-.44-.37-.17-.37.45,0,.25-.09,1.01-.23,1.72-.15.71-.54,1.66-.36,2.23.27.84,1.24,1.2,1.68,1.64,1.16,1.17,1.41,1.74,1.54,2,.93,1.87.93,2.18.7,3.59-.13.81-.85.67-1.28.34,0,0-2.75-2.21-3.95-3.3-1.81-1.66-3.09-3.36-3.86-5.24h0ZM139.35,163.73c1.05.47,3.78,2.65,3.78,2.65l-2.49,5.7c.45.89.64,3.11.64,3.11,3.15-.27,4.85,5.58-.05,5.04.56,3.61-4.72,6.44-4.58-.03-5.5.47-3.65-6.4-.26-5.11-.1-2.91,1.66-3.29,2.9-4,1.02-1.27,1.64-4.14,1.64-4.14l-.25-.88h0c-1.04,2.01-5.49,2.58-10.37,1.52,1.32-3.45,5.33-3.35,9.03-3.87h0ZM129.64,168.08c-.17.69-.17.68.58.6.38-.04,1.91-.04,2.98,0,1.96.17,5.06.18,6.61-1.12.3-.32.47-.29.52-.12.13.84-1.37,3.61-1.37,3.61l-2.49,1.51s-1.02.05-2.28.02l-.02,2.46c-.99.64-2.68,3.4.04,5.52l-.09,2.68,2.4.05c1.59,1.68,2.89,1.67,4.35.09h2.77s-.01-2.9-.01-2.9c1.36-1.21,1.56-3.26.16-4.9l-.03-2.94h-2.13s-.44-.36-.45-.66c0-.19,1.56-3.5,1.85-3.97.39-.61.28-.26.9,1.15.89,2.03,1.76,2.85,4.01,4.05,2,1.07,2.72,1.57,3.3,2.18.46.49.74.33.91-.39.39-1.62.27-3.23-.54-4.71-1.71-3.12-4.67-3.27-5.15-3.99-.06-.17.54-.37,1.19-.69,1.12-.75,2.77-3.03,2.98-3.94-.04-.44.23-1.83.42-2.13.22-.55.25-.8.24-2.26-.2-.84-.02-1.92.08-2.3.1-.76-.26-1.66-.78-2.75-.19-1.02-.15-.76.45-3.05.1-.37.77-3.57-.09-3.79.01.03.09.13.11.18.28,1.05.1,2.04-.12,2.99-.67,2.57-.69,2.87-1.3,2.66-.17-.06-1.25-.98-1.25-.98,0,0-.01-1.21.22-2.4-.14.41-.23,1.45-.65,1.7-.23.06-.55-.17-1.14-.73-.23-.22-.72-.59-.72-.59,0,0,6.94-6.56,9.57-8.73v97.12l-49.86.02c-.63-6.02,1.02-13.97,3.73-21.95,1.68-4.93,4.09-8.58,6.81-12.99,5.22-8.41,9.16-16.95,7.64-27.77-.2-1.61-.4-2.38-.33-2.81.63-1.31,3.15-5.29,4.99-6.94,2.7-2.43,6.45-6.06,6.75-5.84.9,1.9,1.96,3.45,3.36,4.61.25.3.25.56-.32.69-3.72-.04-7.56.86-8.8,4.5h0ZM42.87,140.48c.53,0,.96.47.96,1.06s-.43,1.06-.96,1.06c-.53,0-.96-.47-.96-1.06s.43-1.06.96-1.06ZM136.28,140.72c.53,0,.96.47.96,1.06s-.43,1.06-.96,1.06-.96-.47-.96-1.06.43-1.06.96-1.06ZM138.38,143.64c.53,0,.96.47.96,1.06,0,.59-.43,1.06-.96,1.06s-.96-.47-.96-1.06.43-1.06.96-1.06ZM135.27,144.09c.53,0,.96.47.96,1.06s-.43,1.06-.96,1.06c-.53,0-.96-.47-.96-1.06s.43-1.06.96-1.06ZM131.82,146.51l1.74-.09c-.22.69-.34,1.4-.46,2.12l1.42,1.15-6.14,1.15,2.64-5.99.79,1.67ZM127.64,163.99l-10.33-14.71,1.25-1.11,10.42,14.55-1.33,1.27ZM126.38,149.7c.53,0,.96.47.96,1.06s-.43,1.06-.96,1.06-.96-.47-.96-1.06.43-1.06.96-1.06ZM148.08,151.34c.84.72,0,1.72-.8,1.33-.69-.32-.64-1.1-.09-1.41.34-.18.6-.13.9.08ZM149.2,152.03c.86.02,1.81,2.26,1.63,2.92-.26.77-.49.8-1.7-.34-1.2-1.12-1.22-1.16-.73-1.77.27-.34.4-.8.8-.82h0ZM128.76,152.44c.53,0,.96.47.96,1.06,0,.59-.43,1.07-.96,1.07-.53,0-.96-.48-.96-1.07s.43-1.06.96-1.06ZM125.77,152.85c.53,0,.96.47.96,1.06s-.43,1.06-.96,1.06-.96-.47-.96-1.06c0-.59.43-1.06.96-1.06ZM146.93,153.6c.95.16,1.2.95.76,1.53-.59.8-1.93.07-1.61-.87.14-.43.49-.65.85-.66h0ZM148.63,154.8c.37-.04.93.53,1.55,1.47.69,1.06.75,1.4.55,2.04-.28.94-.46,1.11-1.08.2-.23-.35-.78-1.15-1.16-1.6-.83-.95-.95-.71-.46-1.44.23-.34.39-.65.61-.67ZM146.4,155.91c.85.49.94,1.12.43,1.57-.59.36-1.64-.07-1.84-.71-.3-.95.61-1.43,1.41-.85ZM147.84,157.31c.48-.03.88.52,1.47,1.57,1.01,1.79,1.06,2.39.2,3.57-.62.85-.68.89-1.28-.46-.49-1.11-1.43-2.4-2.3-3.18-.36-.32-.49-.78-.23-.81.08,0,.4-.03.71-.04.46-.02.63-.09.89-.36.17-.18.35-.28.54-.29ZM144.38,158.71c.45-.02,1.03.24,1.46.8.49.57.43,1.09-.53,1.19-.43.19-1.61-.67-1.62-1.24,0-.48.29-.73.69-.75ZM146.64,160.78s.05,0,.07,0c.4.02.61.45,1.07,1.45.7,1.54.5,2.38-.71,3.06-.82.46-1.44.6-1.55.07-.03-.15-.03-.6-.1-1.03-.09-.57-.21-1.17-.67-1.94-.74-1.22-.87-1.66-.06-1.3.43.19.89.17,1.38-.11.22-.12.4-.2.56-.21h0ZM142.56,163.26c-.28,0-.46.18-.38.69.25.14.66,0,.96.13.41.16.66.89,1.1.78.05-.62-1.06-1.58-1.67-1.59h0ZM59.17,174.01c-2.25-1.18-7.83-3.92-10.52-3.96-4.98-1.54-5.15-.84-6.9-1.33,9.25-2.64,15.45,2.44,17.78,4.91,1.06,1.16.48.83-.36.38ZM65.06,198.03c5.29,10.12,10.22,21.53,18.5,38.43l-.79.27-31.56.06c1.56-18.67-7.59-36.45-8.21-35.76,7.15.15,13.08-1.37,14.34-4.28l-1.02-.32c-4.16,3.96-10.4,4.14-14.56,2.92.09-9.73-.27-20,0-29.72,4.92-.4,8.84,1.58,11.57,5.54,4.58,6.65,7.69,15.12,11.74,22.86ZM50.58,171.08c1.27-.11,8.17,3.03,11.26,5.36.86.98,2.11,2.68,2.11,2.84,0,.45-.6-.11-3.59-1.98-2.26-1.4-4.6-2.52-6.88-3.59-.1-.05-.31-.15-.31-.15,0,0-.17-.21-.46-.46-.81-.69-2.39-1.92-2.13-2.03h0ZM53.94,174.63c-.07-.01,6.85,2.75,12.36,7.58.73.64,1.63,3.04,1.63,3.04-.49-1.02-9.19-6.75-12.24-8.07,0,0-1.75-2.55-1.75-2.55ZM56.38,178.3c.38-.25,10.5,6.33,11.98,8.03.67.57,2.25,3.32,2.25,3.87,0,.49-.49.07-1.39-.86-4.66-4.8-11.39-8.41-11.45-8.33l-1.39-2.72ZM58.26,182.12c4.75,2.22,10.72,7.54,13.73,10.71.75.82,1.29,2.01,1.39,2.57.06.34-.09.32-.16.5-3.9-4.94-12.48-10.58-13.62-11.02,0,.31-.94-1.91-1.35-2.77ZM74.04,197.51c.55.61,1.41,2.77,1.22,3.03-.1.13-.09.06-.32-.11-1.25-1.37-7.67-7.64-13.02-11.16-.5-.28-2.19-3.21-1.83-3.26,2.8,1.01,10.8,8.05,13.95,11.51h0ZM62.46,190.51c.09,0,.26.14.55.31,4.92,2.99,12.06,10.53,13.41,12.34.31.56.79,1.58.76,2.21-.06.49-.24.07-2.23-2.08-3.2-3.45-6.88-6.79-10.78-9.6-.75-.57-.61-.64-1.15-1.68-.55-1.05-.76-1.51-.56-1.5h0ZM93.95,190.62c3.52.11,4.89,3.04,7.06,8.45,1.77,5.33,2.51,10.21,2.59,14.09,0,.26-.42.04-.62-.02-.94-.28-2.11-.54-3.47-.16-1,.28-1.95.25-.92-.49.33-.24,1.23-1.15,1.7-1.48.96-.66.38-.65-.58-.13-.72.39-1.21.89-1.51.97-.18.05-.07-.62.11-1.1,1.02-2.77,1.33-4.41-.19-4.93-.41-.14-.97-.56-1.23-.84-.21-.22-.39-1.12-.45-1.16-.07-.04-.12.82-.12.95,0,.45.52,1.35,1.15,1.84,1.06.84,1.27,1.07.69,3.05-.81,2.78-.98,3.46-1.13,4.1-.09.37-.25,1-.33,1.41-.32,1.57-.28,2.95-.22,4.26.35,2.92,3.21,4.36,7.04,2.74.36-.16.51-.02.51-.02-3.06,3.43-6.49,5.62-8.49,12.54-2.57-5.71-6.21-10.18-12.27-11.98l-.09-1.19c2.11,1.12,6.21,2.63,8.81.93,1.39-1.05.97-1.72-.72-1-2.01.86-5.64.76-7.46-.37-.37-.23-.75-.03-.85,0-.09-.67-.97-3.2-.84-4.15-.07-.13.55-.14.67.04.5.74,3.05,2.94,5.7,2.76,1.32-.09,2.4-.53,3.54-1.85.1-.09.56-.16.62-.24.1-.13.03-.31.02-.38-.03-.1-.2-.38-.31-.69-.15-.27-.18-.56-.15-.78,0-.18.11-.28.2-.41.1-.24.07-.56.02-.72-.23-.17-.21-.5-.08-.65.36-.45-3.08-3.91-3.76-3.9-.24,0-.1.5.39.86,1.75,1.28,3.02,2.95,2.73,3.17-.22.17-1.01-.2-1.8-.41-1.6-.41-3.52-.68-5.6.98-.78.71-2.84.81-2.84.81-.03-1.24-4.77-15.05-4.78-14.45,1.73-2.22,7.15-7.47,12.58-9.73,1.67-.6,3.47-.91,4.67-.73h0ZM73.35,193.71l9.86.17c-2.48,1.38-6.98,6.31-6.98,6.31-1.29-2.86-1.68-4.28-2.88-6.48h0ZM64.82,195.15c.74,0,8.56,7.03,9.68,8.69.13.2.93,1.12,1.76,2.05,2.02,2.24,2.86,3.53,2.87,4.45,0,.44-.36.15-.9-.5-4.05-4.96-6.69-7.66-11.7-11.47-.57-.34-2.34-2.93-1.74-3.22,0,0,.02,0,.03,0h0ZM91.6,196.44c-.22,0-.18.22-.06.44,1.24,1.21,4.52,1.16,5.65.18,1.03-.89-.32-.42-.74-.22-.98.46-2.03.41-3.4.01-.8-.23-1.23-.4-1.46-.41h0ZM94.63,198.41c-1.15.01-2.35.39-2.08.86.1.17.41.49,1.16.04,1.08-.59,3.31.18,3.37.2.23.07-.74-.7-1.06-.86-.36-.17-.87-.24-1.39-.24ZM66.99,199.72c4.21,2.84,9.33,8.51,12.41,12.57.51.7.88,1.56.89,2.06,0,.73-.13.32-2.93-2.79-2.19-2.47-5.5-5.83-7.69-7.64-1.32-1.06-1.55-1.19-2.17-2.45-.58-1.18-.79-1.76-.51-1.74h0ZM93.2,200.67c-.79.41-1.84.33-2.86-.06-.93-.35-.71-.05-.36,1.06.16.51.26,1.22.26,1.33,0,.25,0,.26.65-.14.57-.35.69-.47,1.9-.16,1.23.32,1.25.2,1.83-.13.51-.29.61-.46.96-.31.68.3,1.44.43,2.31-.07.66-.39.88-.13,1.19.05.42.23.58.08.42-.37-.07-.18-.19-.97-.19-1.21,0-.47-.11-.89-.29-.79-.66.37-1.2.76-1.83.75-1.16-.02-2.18-.79-3.98.08h0ZM41.75,201.64c10.48,14.4,8.81,35.15,8.46,34.98l-8.46.04v-35.02ZM69.22,204.55c4.19,3.24,9.17,8.88,11.93,12.78.47.67.09.89.32,1.7.09.3-.38-.14-1.71-1.72-1.66-1.96-4.38-4.91-6.18-6.62-1.97-1.88-2.53-2.35-2.95-2.98-.33-.53-1.68-3.08-1.42-3.15h0ZM92.79,205.87s-.09,0-.13,0c-1.49.08-2.25,1.92-.97,3.22.48.49,1.24.78,1.24.52,0-.06-.24-.33-.41-.47-1.06-.9-.96-2.31.26-2.32.42,0,.45.16,1.42.93,1.14.9,2.49.9,2.47,0-.01-.67-.24-1.35-1.26-1.24-.27.03-.63.06-.94-.03-.3-.08-.56-.29-.68-.34-.36-.17-.69-.25-1-.26ZM71.94,210.11c3.2,2.37,7.61,7.73,9.86,10.89.52.74.55,1.56.34,2-.05.09-.44-.18-.44-.18-2.6-3.38-5.55-6.45-8.45-9.56,0,0-1.72-3.05-1.31-3.15ZM103,215.24l-.69.38c-1.05-1.73-2.01-1.76-2.81.27l-.52-.14c-.38-.47,1.38-4.87,4.02-.5h0ZM102.84,213.76c.29.01.79.18.91.51.13.3-.02.64-.41.62-.06,0-.44-.52-.63-.84-.14-.19-.08-.3.13-.29ZM91.08,215.88l-.77.04c-1.48-2.14-2.58-.7-3.24.19l-.83-.12c.13-2.35,3.9-3.16,4.84-.1h0ZM98.61,214.06c.12,0,.23.03.34.07-.31.51-.36.94-.43,1.4-.3.14-.73.42-1.05.06-.59-.59.32-1.54,1.14-1.53h0ZM86.51,214.29c.37,0,.26-.02.1.2-.16.23-.38.63-.5,1-.05.25-.09.34-.3.35-.41.01-1.24-.15-1.23-.14-.32-.33.99-1.37,1.94-1.41h0ZM91.2,214.59c.24-.03.19.35.11.5-.15.2-.22.27-.3.02-.04-.12-.11-.22-.16-.29-.12-.17-.11-.18.04-.21.07-.01.22-.02.31-.02ZM103.86,216.3c.9-.03.3,1.66-.96,2.07-1.39.77-2.98.59-4.59-.43-.92-.58-1.2-1.19-.4-.95,3.03.92,3.77.75,5.59-.55.11-.1.22-.13.36-.14ZM74.71,215.93c3.02,2.82,5.29,6.01,7.7,8.94.48.66.71,1.29.61,1.71-.12.53-1.11-.74-1.11-.74.02.01-5.89-6.94-5.89-6.94,0,0-1.5-2.96-1.32-2.98ZM83.72,216.91c.21,0,.63.11,1.3.31,2.9.97,3.78.93,5.45.09,1.06-.54,1.5-.46,1.05.35-.84,1.49-3.79,1.65-6.01.82-.59-.22-1.1-.61-1.67-1.07-.3-.35-.38-.5-.11-.49ZM97.1,217.89c.17-.01.5.21.89.45,2.43,1.52,4.22,1.24,5.72.22.27-.27.42-.14.45.12.13.93.17,1.59-.22,2.04-.22.26-.6.38-1.17.59-2.35.87-5.22.25-5.77-1.7-.18-1-.29-1.7.09-1.72h0ZM77.82,222.06s.02,0,.03,0c.17.03.56.41,1.18,1.18,3.23,4.04,5.02,6.37,4.7,7.54-.03,0-.05.25-.19.12-1.78-1.69-3.23-3.54-4.31-5.48-1.19-2.12-1.67-3.33-1.41-3.36ZM103.9,224.91c-2.73,2.3-6.04,7.78-6.34,10.47-.06.52,0,.9-.18,1.09-.14.15-.45.16-.86.07-.25-.05-.19-.08-.25-.4-.23-1.23.84-4.34,3.06-8,1.17-1.92,3.81-4.52,4.55-4.53.49.22.01,1.32.02,1.3ZM83.68,223.66c.19,0,.49.1.91.3,2.45,1.16,3.36,1.58,4.95,3,2.96,2.66,6.24,8.96,5.28,9.55-.42.26-.72.1-.9-.49-.03-.11-.34-.99-.71-1.74-1.98-4.01-4.56-6.77-8.19-8.72-1.34-.72-1.48-.64-1.58-1.24-.08-.45,0-.65.24-.66h0ZM103.86,225.98c.25-.02.3.47.22,1.46-.07.81-.11.79-.93,1.74-1.31,1.17-2.86,3.91-3.58,6.71,0,.1-.07.31-.19.43-.34.32-.76.16-1.05.16-.21-.12-.15-.63-.11-.91.6-2.54,2.07-5.65,4.39-8.39.65-.77,1.04-1.17,1.26-1.2h0ZM84.19,226.05c1.3-.03,5.91,3.76,7.77,7.09,1.22,2.17,1.55,3.06,1.27,3.38-.15.17-.8.19-1.15.05-.31-.13-.43-.66-1.02-1.87-1.52-3.15-3.72-5.44-6.09-6.65-.44-.22-.68-.37-.82-.54-.16-.36-.36-1.38.04-1.46h0ZM84.89,228.87c.4.08,1.52.88,2.45,1.63,1.65,1.33,4.16,5.41,3.64,5.99-.17.19-.74.19-1.04.07-1.76-3.46-4.05-5.11-4.99-6.07-.28-.52-.94-1.75-.06-1.62ZM81.23,229.48c.08-.02.39.31.95.96,1.66,1.92,2.71,4.04,2.46,5.11-.21.91-.45.41-2.34-3.57-.8-1.68-1.18-2.47-1.07-2.5ZM103.88,229.54c.04,1.1-.04,1.37-.15,1.96-.07.4-.31.58-.54.89-.56.77-1.2,2.11-1.52,3.19-.27.87-.14,1.08-1.12.96-.45-.07-.34-.2-.17-.78.61-1.89,2.08-4.95,3.49-6.23h0ZM85.06,231.61c.02-.57,4.44,4.34,3.84,4.89-.58.11-.92.13-1.16-.09-.47-1.17-2.58-3.38-2.58-3.38l-.1-1.42ZM103.64,233.16s.02,0,.03,0c.2.04.09,3.06-.08,3.31-.31.18-.91.19-1.23,0-.19-.12-.25-.33-.18-.57.18-.58,1.14-2.67,1.46-2.75ZM86.94,236.48c-.14.24-1,.28-1.32.01-.1-.09-.21-1.58-.08-1.85.33-.24,1.52,1.52,1.41,1.84Z"/>
      <path id="path3389-2-3-5-0" class="cls-3" d="M118.4,31.51l.55.8-3.24.02c.53.49,12.53,27.11,27.88,57.87,2.54,5.4,7.39,7.34,13.01,7.58l-14.91-26.45c1.59-.95,4.74-3.5,6.65-3.03.12.65.68.39.69-.18l.69.02.24.42h2.9l.24-.38,2.5.4c-6.67-9.06-10.19-23.03-9.05-36.67l-22.13.05-.29-.43h-5.73ZM115.72,32.33s-.02-.02-.02,0h.02ZM90.28,50.07c-2.52,8.95-8.74,16.32-12.43,23.74-3.96,8.09-4.89,15.14-3.78,22.84l.72.07c8.44-12.69,14.98-27.86,18.64-42.77.08-.32-.06-.9.01-1.23-.16-.39-.02-.82.08-.94.21-.25.13-1.21-.02-2.81-.4-4.75-.32-8.48.04-12.79.28-3.31.26-3.83.26-3.83l-1.45-.02c.27,5.63-.41,12.56-2.08,17.74h0ZM125.03,32.72l2.37.05c.37,8,6.48,9.04,7.42,8.92-1.56,5.41,1.02,11.34,7.24,12.19-1.43,5.01,1.1,11.62,6.08,11.45l.53.37c-.32.72-.39,2.21-.37,2.23-1.11.09-1.71.27-2.43.42-6.43-10.69-20.85-35.63-20.85-35.63ZM146.14,32.72c-.72,8.94.91,21.21,4.72,28.46,0,0-.12.49-.2.62-.36.6-.54.08-.76-.4-.81-1.65-2.34-1.91-3.01-.99-1.48,2.23.12,3.1,1.37,4.36-5.1-.34-6.8-6.53-5.62-9.58-.03.58.26,1.46.63,2.09,1.43,2.39,3.52.37,2.93-1.52-.25-.78-1.16-2.09-1.16-2.09,0,0,1.24-.2,1.75-.54.47-.32.77-.9.65-1.68-.1-.63-.12-.91-.43-1.47-.38-.52-1.05-.88-1.59-.84-1.05.08-1.18.88-1.87,1.42-.17-1.44-1.01-2.53-2.37-2.26-1.04.21-1.78,1.42-1.15,2.94.32.78.77,1.01,1.23,1.69-7.32-.9-6.53-10.49-5.72-10.32,0,0,.22-.04.16.32-.42,2.35,2.23,3.75,3.38,2.04.74-1.38-.85-3.57-.85-3.57,0,0,1.06-.25,1.54-.55,1.91-1.22-.13-4.71-1.91-3.85-.62.31-.78.95-1.39,1.29-.41-.5-.43-1.05-1.16-1.5-2.01-1.23-3.26,1.68-2.15,2.97.46.52,1.26.99,1.1,1.06-6.23-.87-6.17-8.05-6.02-8l17.92-.1ZM92.61,32.78h.86c-.25,4.26-.8,9.88-.44,14.04.42,3.97.44,4.53.18,4.93-.35.44-.17.64-.1,1,.09.65.1.66.02,1.03-.75,3.33-1.72,6.78-2.95,10.28-4.01,12.18-10.54,25.45-15.67,32.42,0-.02-.23.02-.24,0-1.4-9.72,1.6-17.81,3.16-21.14,3.17-6.74,8.16-12.49,11.12-19.55,2.52-6.01,4.38-13.23,4.06-22.99h0ZM124.16,32.74l20.89,35.79-3.81,2.06-21.37-37.72,4.3-.13ZM136.4,39.73c.54,0,.98.48.98,1.08s-.44,1.08-.98,1.08-.98-.48-.98-1.08c0-.6.44-1.08.98-1.08ZM143.32,51.67c.55,0,.99.49.99,1.09,0,.6-.44,1.09-.99,1.09s-.99-.49-.99-1.09c0-.6.44-1.09.99-1.09ZM93.56,53.8c.36,1.56-6.63,24.97-16.55,39.87l4.33.1.13.53c6.07,9.88,2.27,18.62-2.63,22.68l1.7,2.49-1.53,1.36-1.53-2c-12.43,10.27-36.67,33.01-36.67,33.01l.14,3.65,1.89-1.64c12.3,13.12,38.38,12.4,45.22-14.68l1.83.05c-4.14,19.85-20.97,27.62-33.68,24.33l-2.98,4.71.8.47c-.15-.25-.28-.34-.07-.57l2.53-3.59c19.01,2.68,30.49-9.17,34.21-25.24l2.43.05c-2.08,13.49-7.82,25.37-16,34.67-5.91-.03-16.29-.18-16.29-.18,3.78,4.04,11,16.36,11.29,17.61,0,0,7.43.26,15.4.05,2.92-1.45,6.83-2.03,8.65-1.02,3.21,1.78,6.22,8.39,7.58,19,.35,2.73.67,3.89.76,4.44.02.1.24.17.27.15.12-.07-.19.48-.21.89-.01.41,0,1.03.18,1.24.22.27.2.45.17.57-.02.08-.45.52-.45.52-.06,6.18-.03,11.79-.34,19.39h1.1c0-12.22,3.34-23.53,8.5-31.32,3.14-5.11,6.46-10.62,8.29-15.87,2.07-5.9,2.35-12.11,1.24-17.34l-.76.05c-4.54-3.43-6.39-10.74-.8-15.97l-1.98-2.84c-5.58,4.76-6.86,13.53-1.08,20.79h-2.26c-5.64-7.77-4.39-16.68,2.13-23.04l-1.46-2.04,1.59-1.54,1.43,1.73,36.4-33.52-.03-3.67-2.79,2.49c-16.33-16.64-40.54-4.96-44.09,15.08l-2.22.03c4.65-21.56,21.8-27.66,34.2-24.79l3.06-5.1c-2.25-.7-4.45-2.34-6.52-4.29-.87-.82-1.42-1.32-2.06-2.14-5.87-6.84-9.86-16.34-10.05-16.36l-15.97-.04c-2.34,1.28-6.36,2.73-8.56.77-4.73-4.21-6.32-12.7-6.96-18.16-.2-1.7-.36-4.66-.51-5.64-.09-.18-.26-.19-.42-.16h0ZM150.19,63.24c.53,0,.97.48.97,1.07s-.43,1.07-.97,1.07-.97-.48-.97-1.07.43-1.07.97-1.07ZM152.27,64.5c.79,1.12,1.49,2.28,1.88,3.51-.37-.01-.71.11-1.12-.24-.09-1.24-.56-1.98-1.14-2.81l.38-.47ZM149.35,66.07c.32.17.58,1.52.35,1.75-.39.09-.65.06-.79-.09-.2-.35.17-1.59.43-1.66ZM85.82,77.75l14.83.02c2.58,2.18,5.1,1.89,8.76.14h16.49l.93,1.86h-41.82c.23-.69.8-2.03.8-2.03ZM84.6,80.66h42.67l1.08,1.91h-44.81l1.06-1.91ZM88.72,83.44h4.79l-1.77,3.32h-4.94l1.93-3.32ZM99.35,83.44h4.57l-2.03,3.31h-4.53l1.99-3.31ZM114.13,83.44l-1.92,3.31h-4.65l2-3.28,4.57-.03ZM119.86,83.44h4.58l-1.71,3.31h-4.74l1.87-3.31ZM58.39,83.96c-2.97-.04-2.42,4.3-2.14,4.16-1.86-.47-3.24.51-3.47,2.25-.18,1.39,1.05,3.37,3.2,3.09-.29.36,0,2.46.29,2.65,0,0,.04.3-1.1,2.92-1.35,3.1-1.62,3.25-2.23,1.21-.66-2.19-1.67-3.3-4.32-4.72-.71-.38-1.7-1.04-2.22-1.46-1.18-.98-1.2-.97-1.14,1.03.07,2.59.78,3.72,3.29,5.25,1.23.75,3.58,1.8,4,1.8.3,0,1.4.54,3.03,1.5.32.19,1.41.85,2.8,1,1.48.12,4.82-.27,6.75-1.5,1.08-.69,1.5-1.31,2.3-3.07,0,0-2.74.16-3.99-.21-2.6-.17-3.89,0-5.87,1.13-1.65.94-1.74,1.11-1.05-.45.31-.72.61-1.56.87-2.4.29-.83.36-.9,1.08-.99,1.58-.18,2.48-1.18,2.63-2.93.04-.47-.02-.96-.02-.96,1.08.18,3.28-.41,3.21-2.87-.06-2.21-1.49-2.72-3.25-2.87.23-1.13-.52-3.54-2.66-3.56ZM58.42,84.64c2.6.02,2.54,2.65,1.41,4.14l-1.38-1.25-1.12,1.13c-1.21-.85-1.21-4.04,1.09-4.02ZM129.56,84.68l1.28,2.08h-2.64l1.36-2.08ZM81.02,87.67h4.9l-1.96,3.04h-4.63s1.04-1.94,1.7-3.04ZM96.45,87.67l-1.85,3.16h-4.28l1.72-3.1,4.41-.06ZM102.18,87.67h4.42l-1.75,3.37h-4.37l1.7-3.37ZM112.6,87.67h4.48l-1.82,3.37h-4.42l1.76-3.37ZM122.74,87.67h4.61l-1.91,3.37h-4.45l1.74-3.37ZM58.48,88.29l2.2,2.44-2.14,2.37-2.21-2.33,2.16-2.48ZM64.06,90.67c-.39,2.84-2.87,2.68-3.58,1.3l1.01-1.27-1.24-1.34c1.2-2.13,4.1-.83,3.81,1.32ZM56.68,89.31l-1.19,1.48,1.31,1.38c-.84,1.29-4.07,1.19-3.42-1.91.41-1.97,2.23-2.33,3.31-.95ZM132.08,88.95l1.36,2.06-2.55.02,1.19-2.08ZM78.99,91.48l54.75.19,1.47,1.97c-19.11.36-37.83-.34-57.36-.36l1.15-1.81ZM59.74,92.77c2.17,1.47.57,4.56-1.76,4.03-1.74-.84-2.09-2.82-.53-3.97l1.22,1.11,1.07-1.17ZM78.51,93.95h-1.49s-1.46,1.88-1.46,1.88c5.5,6.39,5.3,11.93.17,16.75l2.06,2.54c5.75-5.42,7.02-13.94.71-21.18ZM84.16,94.2c3.08,5.31,5.75,15.37-3.44,24.58l-1.11-1.48c8-8.61,6.12-15.85,2.54-23.03l2.01-.06ZM85.02,94.32l12.43.05c-2.66,11.18-4.53,17.76-4.81,35.24l-3.59.02c.39-.4-1.86-10.56-4.49-14.08,5.51-10.31,2.54-16.12.46-21.24ZM45.92,94.34c.21,0,.65.3,1.52.87.77.51,1.78,1.16,2.23,1.44,1.71,1.05,2.56,2.05,3.04,3.57.36,1.14.14,1.16-.91.09-.78-.8-1.61-1.48-3.68-3.05-.73-.55-.96-.46-.54.21.3.48.96,1.03,2.29,1.92.96.65,2.29,1.94,2.19,2.13-.1.17-.26.16-.72-.06-.21-.1-.91-.42-1.54-.7-2.71-1.21-3.86-2.7-4.03-5.17-.06-.86-.1-1.26.14-1.26ZM102.65,94.39s.37.54.42.77c.1.49-.33.94-1.71,1.62-.47.23-.86.36-.85.66.06.71,1.3,1.8,1.15,2.77-.28.74-2.01,1.47-2.44,2.35,0,.6,1.12,1.53.96,2.34-.09.24-.45.49-.98,1-1.09,1.04-1.16,1.2-.76,2.02.93,1.89.96,1.75-.3,3.09-1.28,1.35-1.26,1.33-.64,2.51.66,1.27.63,1.21-.26,2.02-.87.79-.83.96-.37,1.94.45.95.55.97-.2,1.71-.88.86-1.05.95-.43,2.04.64,1.12.69,1.08-.03,1.99-.69.87-.77.91-.39,1.5.47.74.56.94.07,1.76-.53.88-.53.82-.04,1.64.41.69.34,1.46.34,1.46h-1.54s-.01-.98-.19-1.34c-.44-.87-.42-1.14.09-1.91.53-.79.44-.86-.05-1.65-.5-.8-.43-.79.22-1.7.6-.84.63-1.23.29-1.71-.8-1.13-.8-1.61,0-2.36.62-.57.68-.83.14-1.8-.52-.96-.59-1.04.37-2,.98-.97.97-.95.31-2.06-.64-1.07-.6-1.14.42-2.19,1.03-1.06,1.05-1.06.37-2.39-.63-1.25-.64-1.23.6-2.44,1.23-1.13,1.65-1.28.42-2.9-.69-1.29-.2-1.42.93-2.06,1.97-1.33,1.08-1.25.25-3.22-.69-1.32-.3-1.33.91-1.99.3-.14.63-.31.97-.52.81-.5.37-.95.37-.95h1.58ZM105.23,94.42l5.93.08c-6.88,9.68-10.19,22.06-11.38,35.12l-2.24-.04c-.14-10.2,2.77-22.95,7.68-35.17ZM135.7,94.65c3.39,3.15,5.91,4.95,7.7,5.66,0,0-2.39,4.38-2.58,4.22-13.77-2.92-30.14,5.92-33.85,25l-2.17.02c.8-7.48,2.59-13.74,5.88-20.26,3.27-6.33,6.27-10.03,10.81-14.69l14.2.06ZM112.01,94.49l2.92.06s.55.73.8.99c1.26,1.58,1.37,1.26-1.41,2.99-1.76,1.09-2.53,1.6-2.64,2.06-.08.46.77,1.38.87,1.99,0,.07-2.39,1.83-2.82,2.08-.6.32-.63.6-.03,1.74.69,1.32.63,1.27-.85,2.41-1.45,1.11-1.73,1-1.12,2.11.86,1.54.45,1.89-1.56,3.09-.51.3-.52.61-.17,1.66.49,1.46.62,1.31-.42,2.1-1.23.93-1.45.96-1.17,1.53.79,1.66,1.11,2.07.05,2.61-.81.41-.82.65-.38,1.74.45,1.1.56,1.06-.23,1.68-.74.58-1.17.45-.45,1.39.57.75.52,1.33.06,1.79-.4.19-.58,1.02-.47,1.04l-1.03.03c-.8-1.19.14-1.88.29-1.99.13-.27-.03-.47-.35-1.11-.45-.89-.43-1,.21-1.52.65-.53.67-.39.24-1.55-.5-1.35-.48-1.5.31-2.13.78-.62.79-.75.26-1.94q-.56-1.25.82-2.26c.97-.71.99-.67.47-1.99-.36-.91-.1-1.23,1.22-2.23.76-.57.81-.68.46-1.36-.98-1.87-.97-1.93.72-3.14,1.38-.99,1.37-1.07.84-2.39-.58-1.43-.63-1.32,1.27-2.57,1.56-1.03,1.65-.97,1-2.21-.8-1.55-.75-1.29,2.38-3.26,1.13-.85,2.14-.56,1.02-2-.49-.69-1.1-1.44-1.1-1.44ZM56.81,97.03c.22,0,.39.28.37.83-.04.77-.37,1.53-.68,2.29-.66,1.55-1.32,2.7-1.67,2.7-.82.01-.79-.19.29-2.53.5-1.07,1.01-2.29,1.09-2.52.17-.51.4-.76.6-.76ZM66.86,100.54c.01,3.28-9.33,4.94-9.82,3.28,1.63-1.41,6.45-.78,7.47-2.04-1.23-.08-2.9.15-4.04.17-1.42.03-3.73.7-3.75.98-.15-.86,2.45-2.49,4.5-2.59,1.92-.09,4.01.16,5.64.2ZM67.66,105.56s-18.23,16.62-27.24,24.66l.06,3.59,28.83-26.01-1.65-2.23ZM67.6,106.38l1.16,1.56-27.07,24.3-.1-2.55,26-23.31ZM153.16,114.91l-.97,1.14c-26.44-21.68-50.78,11.24-37.36,34.78-.12.3-1.06,1.06-1.06,1.06-14.96-27.33,13.67-59.32,39.38-36.98ZM138.61,110.16c1.5.01,4.26,1.15,5.43,2.7,1.36,1.8.96,2.6-.76.9-1.85-1.49-3.39-1.83-.81-.08.57.39,1.08,1.14,1.11,1.23.09.3-.38-.01-2.54-.88-1.28-.52-2.91-1.91-3.33-2.86-.32-.71.13-1.01.91-1.01ZM133.04,110.21c.47,0,.89.04,1.18.13,1.89.6,2.49.91,3.19,1.52.48.41.33.71-.23.45-.65-.31-2.72-.98-3.09-.94-.54.06,0,.45.77.66,1.71.47,2.56.96,1.34.98-.64.1-3.42.11-4.18.02-1.27-.16-3.16-1.44-2.73-1.89.47-.49,2.34-.9,3.74-.91ZM127.62,112.17c2.24.03,3.46.95,1,1.14-4.21.74-5.02,1.74-.35.54,1.09-.28,1.07.15.32.56-.61.33-1.38.49-2.02.83-1.15.53-3.79.65-4.82.21-1.52-.64,3.25-3.32,5.87-3.28ZM145.66,112.59c1.13.03,3.55,1.84,4.63,3.54.7,1.11.35,1.91-.71,1.02-.21-.18-1.74-1.61-1.82-1.64-.14-.06,1.27,1.42,1.47,1.83.18.35.58,1.16-.18,1.18-1.19-.16-3.98-3.6-3.99-5.29,0-.45.23-.64.61-.63ZM131.61,113.55c.47-.02.23.26-.67.95-1.62,1.25-.77,1,1.12-.07.57-.33,1.27-.58,1.51-.63.24-.05.53-.12.64-.16.51-.17.12.52-.71,1.25-1.74,1.54-3.7,2.74-5.06,3.11-1.73.47-2.09.53-1.46-.66,1.01-1.89,2.49-3.4,3.9-3.69.32-.07.56-.1.71-.11ZM137.42,113.58c.72-.02,1.61.15,3.01.48.99.34.73.41-.45.55-2.22.27-1.3.55.86.51,2.95-.02-1.48,1.17-2.91,1.41-1.12.05-1.45.01-3.89-.49-.93-.19-.37-.94,1.39-1.87.72-.38,1.27-.58,1.99-.59ZM155.63,114.02l.08,2.09-35.67,32.87-1.21-1.48,36.8-33.48ZM143.49,115.82c1.42-.02,3.48,1.07,3.26,1.72-.08.24-.24.23-1.33-.08-.71-.21-1.99-.43-1.82-.26.06.06,1.05.48,1.43.58,1.26.33,2.76,1.12,2.43,1.35-.58.39-1.12.09-1.81,0-1.72-.26-4.56-1.22-5.02-1.7-.53-.54,1.32-1.59,2.85-1.61ZM126.85,115.94c.26.01.35.28.11.64-.37.54-.54.99-.88,1.66-1.19,2.03-1.94,2.83-3.09,3.62-1.15.79-1.31.65-1.21-.99.13-1.7,1.23-3.49,2.79-4.33.72-.11,1.13-.32.38.68-1.34,1.77-.42,1.59.83-.42.4-.64.81-.87,1.07-.86ZM122.22,116.18c.77,0,1.03.3.04.81-.94.49-2.82,1.93-2.87,2.09-.08.27.62-.15,1.79-.86,1.56-.94,1.7-.92.94.16-.85,1.21-2.9,2.73-4.51,3.3-2.25.68-2.2.2-.94-1.64,1.2-2,2.22-2.96,3.76-3.51.67-.24,1.32-.35,1.79-.36ZM84.01,116.49c8.17,15.53,3.64,31.32-5.85,39.37-9.91,8.42-25.34,7.92-34.44-2.18l1.26-1.31s14.35,16.12,32.43,1.82c9.17-7.26,12.96-24.4,5.4-36.34l1.2-1.34ZM47.4,116.52s-.05,0-.06.02c-.28.2-1.31,3.55-1.52,4.94-.06.41.03.81.33,1.13.21.23.56.08.67.03.69-.34,1.07-.87,1.68-2.55.41-.92.46-2.01.38-2.39-.03-.15-.26-.52-.54-.72-.31-.23-.75-.47-.94-.47ZM47.56,117.22c.33,0,.97.58,1.05,1,0,.73-.37,1.94-.65,1.76-.47-.65-1.02-.24-1.11-.47-.06-.72.36-1.66.64-2.28.02,0,.04,0,.06,0ZM135.84,117.8c3.63,0,7.25,1.17,9.9,3.76l-1.42,1.43c-6.22-4.89-13.47-3.46-17.76-.16-4.25,3.27-8.01,10.49-4.33,20.67l-1.33,1.33c-4.13-8.19-1.91-19.01,5.39-24.13,2.58-1.8,5.88-2.84,9.19-2.91.12,0,.24,0,.35,0ZM82.09,118.99c.11,0,.28.4.26.89-.02.59-.25,1.35-.61,1.51-.41.18-.66-1.15-.66-1.15.25-.43.59-.88,1.01-1.25ZM147.16,119.45c.15,0,.29,0,.42.02.41.06.41.46.03.84-.41.42-.63.44-1.04.1-.37-.3-.39-.52-.07-.77.17-.12.42-.17.67-.19ZM77.36,119.54l1.21,1.64-4.18,3.7-.5.04-31.99,29.19v-2.59s35.46-31.98,35.46-31.98ZM144.19,123.5l-4.36,3.96c-8.71-4.99-15.69,3.9-13.23,11.97l-3.77,3.6c-6.74-20.38,12.97-27.35,21.35-19.53h0ZM121.38,120.38s.03,0,.04,0c.03,0,.06.03.09.06.15.16-.15,2.87-.38,3.37-.08.18-.15.42-.15.52,0,.22-.8,2.08-1.43,3.3-.24.46-.49,1.07-.56,1.35-.5,2.68-1.59-1.63-1.21-4.12.18-1.17,1.69-3.6,2.13-3.42.22.09.21.28-.18,1.21-1.09,2.62-1.37,3.97-.22,1.44,1.32-2.92,1.67-3.67,1.87-3.71ZM47.38,120.44c.16.01.29.11.36.32.05.18.1.55.01.73-.22.55-.69.92-1.15.89-.21-.01-.43-.21-.46-.46-.03-.22.02-.6.28-.88.33-.38.69-.6.96-.59h0ZM80.54,120.61c.52.03,1.06,1.56.71,2.26-.28.57-.34.47-.83-.64-.26-.58-.46-1.21-.46-1.21l.42-.37s.07-.03.11-.04c.02,0,.03,0,.05,0ZM79.67,121.25s.54,1.08.68,1.95c.08.53.07.43-.46.21-.41-.28-.5-.45-.76-.81-.17-.33-.34-.57-.34-.57l.88-.78ZM82.94,121.48c.27-.01.57.29.84,1.04,1.01,2.81.92,5.96-.22,7.44-.19.25-.23.26-.46.1-.18-.13-.2-1.46-.02-1.84.06-.12.22-.92.24-1.38.03-1.08-.24-1.21-.37-.21-.15,1.15-.31,1.96-.6,1.27-.14-.35-.22-.71-.33-1.08-.57-2.43.09-5.31.92-5.35ZM78.52,122.2s.97,1.39,1.38,1.88c.14.27.14.34-.09.43-.39.16-1.68-.78-2.19-1.08-.28-.24-.16-.43-.16-.43.35-.29.7-.58,1.06-.81ZM116.95,122.25c.52,0,.52.19-.03,1.07-3.1,4.91-2.47,4.18-.5,1.5,1.1-1.49,1.29-1.64,1.41-1.3.09.25-1.21,3.16-1.89,4.21-.35.54-1.54,1.45-2.14,1.79-1.47.82-1.31.49-.77-1.55.69-3.16,2.44-5.71,3.93-5.72ZM76.71,123.95c8.5,23.28-14.77,33.5-25.26,22.73l1.22-1.07c14.6,10.91,29.01-6.57,22.42-20.25,0,0,.6-.55,1.62-1.41ZM78.67,124.52c1.4.16,3.46,2.98,3.57,4.55.22,1.12-.07,1.31-.56.52-.84-1.71-.74-.62-.02,1.07.38.86.47,1.88.07,1.94-.54-.12-1.7-2.17-2.06-3.01-.85-1.85-.91-1.53-1.38-4.27-.09-.51.03-.79.38-.79ZM74.45,125.28c6.47,13.68-7.45,30.11-21.61,19.49l4.24-3.71c7.39,3.91,15.63-.94,13.27-12.17l4.09-3.61ZM139,127.83l-11.67,10.72c-2.4-8.89,6.42-13.96,11.67-10.72ZM117.32,127.81c.38-.09.71,2.6.78,6.38.07,3.69.15,4.06-.89,2.7-.44-.55-.97-1.08-1.21-1.58-.69-1.44-.47-2.95-.28-5.06.18-1.97.82-1.66.71.4-.07,1.33-.05,2.98.14,2.97.07,0,.09-.13.05-.31-.09-.38.32-4.65.49-5.16.07-.22.15-.33.22-.34ZM85.15,129.43c.84.36,1.08,3.47.17,6.46-.39,1.29-1,2.13-1.9,2.65-.64.37-.79.25-.5-.39.53-1.05.82-2.15,1.03-3.51.09-1.33-.55-.26-.5.31-.5,2.48-1.15,2.85-1.07.24.06-1.92.29-2.75,1.11-4.07.41-.66.85-1.57,1.65-1.7ZM114.43,129.75c.35,0,.43.52.12,1.52-.22.69-.95,2.94-.86,2.93.05,0,.84-2.02,1-2.35.26-.54.36-.64.59-.62.23,1,0,2.24-.12,3.27-.48,2.69-2.14,5.47-2.78,4.64-1.04-1.35-.55-6.8.82-8.46.52-.62.95-.93,1.22-.93ZM69.97,130.16c1.25,9.51-5.87,13.57-12.02,10.7.13-.04,12.02-10.7,12.02-10.7ZM99.08,130.34l1.24,1.79,2.27.13-1.16,1.89,1.16,2.42-2.54.05-1.46,1.85-1.27-1.67-2.22-.13,1.29-2.27-1.04-2.17,2.39-.13,1.33-1.77ZM80,131.15c.29.01,1.69,2.04,1.83,2.79.42,1.82.27,5.25-.33,5.13-.64-2.47-.39-3.75-.62-3.47-.4.46.25,4.25.03,5.18-.1.24-.45-.05-.83-.66-1.03-1.63-.89-8.03-.1-8.97,0,0,.02,0,.02,0ZM155.9,135.01l-28.05,25.61,1.62,2.29,26.48-24.1-.05-3.81ZM115.39,135.45c.12-.03.4.19.93.82.92,1.37,1.89,3.24,2.25,4.69.13.56.35,1.31.48,1.65.2.52.21.67.1.82-.49.66-2.52-1-3.17-2.59-.92-2.23-.94-4.25-.02-2.29.34.71.75,1.75.75,1.34,0-.12-.41-1.62-.72-2.28-.19-.42-.9-2.09-.59-2.16ZM155.61,136.07l.06,2.12-26.12,24.08-1.03-1.37s24.61-22.55,27.09-24.82ZM114.82,137.38c.12.01.19.21.15.64-.12,1.4-.43,4.45-.37,4.72.04.16.41-2.02.5-2.41.45-2.02,1.13,2.81.72,4.97-.06.34-.2.89-.26,1.23-.07.34-.29.91-.37,1.07-.74,1.28-2.48-3.82-2.19-6.43.18-1.62,1.39-3.83,1.83-3.78ZM84.6,138.5c.34-.02.41.35.35,1.13-.2,2.66-1.8,5.46-3.57,6.2-1.75.74-1.92.59-.88-.79.79-1.05,1.27-2.15,1.13-2.29-.07-.08-.25.36-.89,1.26-.8,1.13-.93.17-.2-1.49.63-1.44,1.22-2.19,2.4-3.07.83-.62,1.35-.94,1.65-.96ZM100.48,139.31c-.35,11.47-2.95,23.93-7.96,34.77h-4.68c5.73-9.29,9.39-20.81,10.41-34.72l2.23-.05ZM102.54,139.32s.7.8.99,1.34c.31.6.4,1.12-.17,1.57-.66.62-.94.39.14,1.92.57.81.39.94-.32,1.62-.73.7-.77.74-.09,1.69.73,1.02.86,1.17-.09,1.96-.85.71-.86.87-.2,2.02.61,1.06.8,1.05-.38,2.15-1.01.94-1.03.68-.06,2.4.36.63.33.68-.32,1.31-1.61,1.57-1.52,1.47-1.3,1.88,1.76,2.78.97,2.7-.76,4.03-.35.33-.26.7.52,2.09.66,1.18.57,1.44-.98,2.61-1.61,1.22-1.67,1.39-.86,2.63.79,1.23.81,1.14-.48,2.41-.58.57-1.06,1.1-1.06,1.1h-2.86s.6-.61,1.02-.94c2.35-1.91,2.34-1.71,1.35-3.09-.88-1.22-.79-1.3.1-2,.64-.5,1.5-1.02,2.14-1.53.35-.27.09-.5-.49-1.71-.65-1.35-.68-1.2.52-2.29,1.32-1.2,1.34-1.15.63-2.67-.72-1.52-.73-1.39.18-2.21,1.35-1.21,1.41-1.15.7-2.55-.57-1.12-.57-1.09.38-2.14.96-1.06.84-.99.27-1.97-.58-.99-.55-1.12.21-1.87.82-.81.71-.76.02-1.79-.67-1.02-.66-.94.16-1.73.43-.41.86-.84.84-1.03-.06-.5-.5-1.22-.92-1.9-.16-.26.16-.34.67-.93.52-.6.5-.45.1-1.24-.21-.43-.62-1.15-.62-1.15h1ZM94.88,139.35l.81.02s.14.2.33.42c.52.59.55.93.02,1.25-.5.3-.31.73.11,1.41.45.72.44.64-.2,1.35-.66.59-1,.76-.27,1.88.41.52.36,1.06-.28,1.52-.49.36-1.32.66-.45,2.02.42.97.46.91-.43,1.6-1.17.92-1.39.76-.86,2.1.6,1.49.66,1.51-.57,2.51-1.43,1.16-1.48,1.25-.88,2.64.6,1.4.62,1.05-.9,2.34-1.11.95-1.36,1-1.03,1.79.62,1.47.88,1.87-.92,2.88-2.07,1.17-2.18,1.26-1.18,3,.81,1.42.63,1.21-.71,2.06-1.93,1.22-2.78,1.76-2.84,2.14-.04.43,1.51,1.71,1.51,1.71l-2.7.08s-1.13-1.01-1.57-1.49c-1.22-1.31-1.23-.88,2.82-3.05,2.24-1.2,2.05-.93,1.68-1.62-1.08-2.06-1.12-2.28.91-3.4,1.76-.98,1.46-1.05,1.03-2.52-.37-1.29-.31-1.17.61-1.92,2.24-1.83,2.18-1.64,1.83-2.54-.34-.88-.61-1.29-.35-1.73.81-1.28,2.52-1.55,1.82-3.07-.33-.98-.44-1.2.54-2.05.89-.82.9-.72.33-1.8-.69-.99-.59-1.15.42-1.93.73-.73.72-.71.31-1.42-.56-.98-.53-1.01.27-1.79.65-.63.77-.66.35-1.36-.55-.92-.46-1.12.27-1.58.45-.28.44-.39.41-.86,0-.09-.24-.61-.24-.61h0ZM104.99,139.4h3.75c1.2,7.68,3.29,10.83,4.5,13.25-4.74,8.39-3.67,15.37-.77,21.54l-11.88-.05c3.05-11.49,4.62-23.04,4.4-34.74ZM79.23,139.43c.14-.01.24.23.47.67.75,1.41.22,3.42-.88,5.51-.82,1.57-.97.37-.6-1.89.24-1.43-.41.71-.72,2.43-.17.93-.57,1.69-1.02,1.64-.42-.07-.29-1.38-.27-1.67.09-2.06.79-3.52,2.14-5.57.51-.78.72-1.12.88-1.13ZM117.54,143.46c.18,0,.43.07.73.27.24.15.67.44.97.62,1.04.63,1.12.82.63,1.46-.61.79-1,.49-2.06-.82-.71-.88-.73-1.5-.27-1.52ZM117.19,145.19c.17,0,.51.2.85.63.69.86.6,1.59-.16,1.39-.31-.5-.47-1.26-.77-1.82-.07-.13-.03-.2.07-.19ZM150.71,145.3c-.66,0-1.78.97-1.99,1.95-.65,3-.64,2.87-.07,3.31.17.13.3.22.38.28.34.3.8.75.86.66.55,0,1.39-3.84,1.36-4.63.03-.84.06-.94-.13-1.32-.09-.17-.24-.25-.42-.25ZM116.68,145.36s.1.02.17.08c.44.48.61,1.33.83,1.94,0,.13-.05.35-.11.48-.38.8-.96.02-1.02-1.35-.03-.77,0-1.13.14-1.15h0ZM150.61,145.96s.06,0,.08,0c.45.02.38.53-.24,1.27-.33.39-1,.57-1.22.33-.32-.35.34-1.3,1.07-1.53.12-.04.22-.06.31-.06ZM75.24,146.38s.05,0,.07,0c.23.02.43.13.58.33.3.4.17,1.03.03,1.55-.35,1.37-2.68,4.03-3.52,4.04-.5-.1,1.58-3.01,1.65-3.5-.15-.17-1.45,1.47-2.05,2.62-.27.52-.59,1.15-.75,1.26-.43.06-.94.36-.94.04.07-1.46,2.66-4.63,3.54-5.51.54-.56,1.01-.81,1.39-.82h0ZM81.48,146.51c2-.02-1.94,4.8-4.48,5.49-.79.22-2.26.27-2.36.09-.1-.18.01-.33.34-.42.53-.15,3.13-1.98,3.13-2.19,0-.27-1.08.18-2,.83-.59.42-.87.34-.55-.18,1.49-2.37,3.5-3.59,5.92-3.62h0ZM116.08,146.52c.11.01.23.26.3.81.36,1.03.38,1.32.04,1.62-.59.52-.73.37-.72-.82,0-.98.2-1.63.39-1.61h0ZM50.23,147.89s.73.3.43.68c-.21.27-1.11.04-1.11-.04l.68-.65ZM150.65,147.92c.24-.02.24.22.12.84-.07.32-.35,2.01-.86,2.48-.06.04-.8-.44-1-.66-.09-.1-.38-.34-.42-.5-.13-.51,0-1.17.36-1.5.14-.13.41-.2.56-.2.12,0,.46-.13.77-.27.21-.1.37-.16.48-.17ZM50.48,149.09c.48,0,1.07.05,1.57.24,1.47.47,4.18,1.81,4.59,2.25.61.64-.98,1.32-2.88,1.34-1.01.01-1.2-.22-2.59-1.14-.18-.13-.99-.72-.76-.93.26-.29,1.04.08,2.01.63.32.18,1.09.13,1.08-.03,0-.18-1.94-.98-3.39-1.49-.95-.33-.93-.67-.35-.81.17-.03.42-.05.7-.05h0ZM48.58,149.82s.4.39.92.82c.56.47,1.22,1.04,1.68,1.81.66.89,1.7,3.09,1.59,3.49-.27.92-3.05-.69-5.33-3.2-.74-.82-1.17-1.42-1.17-1.42l.87-.87s.76.7,1.65,1.56c1.65,1.61,1.64,1.06-.02-.64-.47-.48-.9-.91-.9-.91.02-.31.29-.58.73-.64ZM116.65,149.89s.89,1.02,1.22,1.49c-5.42,5.84-7.49,14-2.26,22.7h-2.51c-4.7-10.21-2.47-17.9,3.55-24.18h0ZM70.79,150.13c.34-.02.03.42-.57,1.54-1.12,2.1-1.34,2.62-3.15,3.15-.47.13-1.13.03-1.41.06-.78.11-.43,0,.76-.86,1.66-1.18.25-.57-1.28.29-.89.5-1.82.48-1.9.22-.04-.14.36-.52.62-.78,2.33-2.3,3.05-2.2,5.22-3.03.95-.36,1.48-.59,1.71-.6ZM61.04,152.23c.84,0,1.63.1,2.33.27.46.12,1.22.22.58.85-.72.75-2.67,1.77-4.11,1.84-.2,0-3.17-.22-2.54-.92.13-.08.53-.06.88-.13,1.64-.34,1.2-.63-.82-.52-2.53.15-2.65-.14-.73-.72,1.4-.42,2.78-.64,4.05-.67.12,0,.24,0,.36,0h0ZM74.58,152.44c1.13-.01,2,.21,2.01.68,0,.77-2.13,2.45-3.53,2.79-.33.08-.8.19-1.04.25-.49.12-3.2.02-3.46-.09-1.27-.51-.39-.71,1.94-1,1.01-.13,1.5-.42,1.49-.63,0-.1-.75-.13-1.86.02-1.24.17-1-.23.55-1.11,1.02-.58,2.62-.89,3.9-.91ZM53.7,153.51c.16,0,.54.15,1.17.44,1.35.43,3.21.92,4.48,2.45,1.03,1.09,1.28,1.45,1.06,1.83-.26.47-3.44.11-4.78-.52-.89-.42-1.94-1.31-2.42-2.08-1.17-1.87-.68-2.37.81-1.06,1.79,1.58,2.05,1.74,2.37,1.67.13-.03-.19-.35-.79-.84-1.51-1.23-2.24-1.9-1.89-1.89h0ZM64.72,155.52c1.5,0,1.82.13,3.27.86,1.82.71,1.38,1.34-1.85,2.22-1.62.42-3.24.12-4.42-.68-2.6-1.76-2.43-2.12.47-1.33.95.26,1.91.31,1.96.11.04-.15-1.11-.47-2.05-.82-1.02-.37-.14-.34,1.89-.36.27,0,.51,0,.72,0h0ZM139.59,163.14s-.33.17-.48.26c-.12.07-1.02.19-2,.27-1.94.16-3.24.5-4.42,1.02-1.78.79-2.97,3.22-2.97,3.22,1.33-.1,8.85,1.4,10.93-1.59.44-.62-1.12,4.72-1.92,4.95-1.98-.26-2.82,3.16-2.62,3.02-2,.85-3.55,1.35-3.04,3.91.22,1.11,1.25,2.44,3.42,2.11-.59,4.43,4.33,5.58,4.87.24,0,0,.96-.2,1.33-.25,2.24-.59,2.79-4.2-.51-5.35-.91-.3-.97-.49-.97-.49.17-.82.13-1.67-.41-2.62.73-1.91,2.53-5.59,2.53-5.59l-3.77-3.12ZM139.93,164.25c.45.67-1.91,1.77-4.42,2.01-.56.05-1.8.18-1.84.24-.27.52,4.86.14,6.46-.84.55-.34.6-.04.36.48-1.86,2.63-6.34,1.98-9.84,1.52-.2-.22-.03-.49.76-1.2,1.44-1.29,2.48-1.72,4.75-1.97.63-.02,3.49-.61,3.78-.24ZM142.71,166.97c-.32,1.13-2.01,4.59-2.01,4.59-.21.23-.95.39-.89-.48,0-.94,1.6-4.81,2.03-4.88.51-.04.89.37.87.78ZM143.78,167.23c.49,3.96,3.22,4.91,5.84,6.16.69.35,1.27.97,1.96,1.37,1.29-1.95-.16-5.72-2.44-6.95-1.69-.87-3.24-1.56-4.19-1.49-.55.05-1.17.44-1.18.92h0ZM145.18,166.99c.29,0,.71.09,2.24.54,2.31.68,3.94,2.55,4.36,5.02.02.1.14,2.02-.26,1.95-.6-.19-.93-.86-1.89-1.3-1.2-.56-2.89-1.28-3.93-2.32-.84-.84-1.29-1.74-1.4-2.51-.1-.8.14-.88.75-.24,1.37,1.2,2.72,1.61,4.07,2.77.38.32,1.73,1.15.8.12-.62-.7-2.46-1.91-3.44-2.43-1.36-.72-2.1-1.59-1.32-1.6h0ZM41.21,170.95l15.48,26.66c-3.81,2.21-5.69,3.18-12.01,2.64l.02.35-2.69-.17c4.64,7.99,10.37,18.4,8.75,36.58l18.85-.02s.29.31.32.33c.28.21.69-.36.69-.36l8.5-.05.23.3,3.97-.03s-18.13-37.39-27.24-55.96c-3.74-7.45-7.64-10.76-14.87-10.27h0ZM138.8,171.83c1.02-.03,2.03.74,2.03,2.24,0,.78-.59,1.87-.59,1.87l-1.38-1.45-1.32,1.46c-.65-.59-1.04-1.72-.82-2.36.41-1.1,1.29-1.73,2.08-1.75h0ZM122.79,172.36c1.31,5.63,2.72,13.38-8.63,31.31-6.72,10.6-8.92,20.61-9.18,32.81h-.68c.32-6.7.36-18.84.36-18.84l.63-.62s-.29-.52-.42-1.12c-.21-1.02-.03-.68.52-3.43,2.32-13.25,17.4-40.11,17.4-40.11h0ZM62.14,174.94l57.57.29-.77,1.66-55.71-.44-1.09-1.52ZM138.87,175.43l2.14,2.29-2.09,2.58-2.2-2.54,2.15-2.34ZM137.12,176.4l-1.17,1.37,1.01,1.17c-1.04,2.41-3.81.53-3.72-1.27.11-2.11,2.34-2.97,3.87-1.27h0ZM140.81,179.12l.93-1.3-1.05-1.27c1.72-1.87,3.34-.22,3.5,1.34.17,1.66-2.19,3.54-3.38,1.23ZM72.63,177.53l4.72.05-1.75,3.62-4.78-.02,1.82-3.64ZM83.14,177.55h4.33l-1.83,3.67h-4.38l1.88-3.67ZM93.37,177.55h4.59l-1.86,3.67h-4.72l1.99-3.67ZM103.65,177.55h4.7l-1.71,3.67h-4.88l1.89-3.67ZM114.12,177.55h4.53l-1.84,3.67h-4.66l1.97-3.67ZM64.08,177.57h3.05l-1.24,2.41-1.8-2.41ZM140.02,179.88c1.74,1.54.53,4.08-1.28,4.12-1.25.03-3.07-2.3-1.1-4.2l1.31,1.32,1.08-1.24ZM75.96,181.83h4.43l-1.67,3.3h-4.34l1.58-3.3ZM85.8,181.86h4.86l-1.71,3.3h-4.62l1.48-3.3ZM96.2,181.86h4.83l-1.58,3.3h-4.88l1.62-3.3ZM106.56,181.86h4.8l-1.49,3.3h-5.07l1.77-3.3ZM67.02,181.99h3.06l-1.3,2.64-1.75-2.64ZM69.32,185.81l44.87.44-.76,1.6h-42.97s-1.14-2.04-1.14-2.04ZM70.9,188.68l42.05.11-.97,2.22-14.53-.07c-2.83-2.33-6.07-1.25-9.77.07,0,0-11.12.13-15.49,0l-1.29-2.33ZM56.92,198.08l22.18,38.58-4.9-.06-21.06-36.29,3.78-2.23ZM52.47,200.6l20.94,36.05c-.96-.02-1.85.04-2.81.02.39-6.73-4.53-9.89-7.42-10.05,1.73-7.87-3.48-11.19-6.95-11.81,1.41-10.23-6.28-11.68-6.39-11.58.04-.84-.11-1.45-.21-2.15l2.84-.49h0ZM49.08,201.17c-.05.22.39,2.26-.43,1.88l-.06-1.88h.49ZM44.67,201.22c.3,1.36.93,1.62,1.79,2.53,0,0-1.1.21-1.35.01-.46-.35-1.41-2.56-1.41-2.56h.97ZM47.95,203.51c.53,0,.96.48.96,1.06,0,.58-.43,1.06-.96,1.06s-.96-.47-.96-1.06c0-.58.43-1.06.96-1.06ZM49.85,204.33c2.75-.2,6.75,3.06,5.69,9.15-.18-.43-.4-1.36-.85-2.03-1.9-2.82-4.13,1.05-2.63,2.62.74.77,1.08,1.08,1,1.15-1.7-.36-2.98,1.3-2.28,3.14,1.18,2.38,2.81,1.12,3.76-.29,0,0,.58,2.13,1.16,2.4.89.41,2.11-.11,2.53-1.29.62-1.76-.89-2.21-1.22-3.19,3.19.11,7.24,5.25,5.4,9.7.24-1.01-.74-3.29-2.66-2.7-.96.37-1.29,1.91-.52,3.49.25.51.38.69.38.69,0,0-.83.12-1.05.27-2.49,1.69.72,6.3,2.57,3.42.19-.34.5-.73.5-.73.31.64.4,1.54.96,1.85,2.29,1.27,3.32-1.41,2.35-2.73-.54-.74-1.16-1.6-1.16-1.6-.1-.47,6.87,1.54,6.02,9.01l-18.47-.03c1.71-11.48-2.43-24.61-4.55-28.61l.92-1.33c.23.5.61,1.74,1.29,1.98,2.14.76,2.8-.89,2.51-2.59-.15-.9-1.3-1.63-1.67-1.76h0ZM54.74,215.13c.5,0,.91.45.91,1.01s-.41,1-.91,1-.91-.45-.91-1,.41-1.01.91-1.01ZM61.67,227.08c.51,0,.92.45.92,1.02s-.41,1.02-.92,1.02-.92-.45-.92-1.02.41-1.02.92-1.02Z"/>
    </g>
    <g id="Center_Symbols_Q" data-name="Center Symbols Q">
      <g>
        <use width="30.47" height="32.54" transform="translate(47.18 40.39)" xlink:href="#Club"/>
        <use width="30.47" height="32.54" transform="translate(150.1 228.89) rotate(-180)" xlink:href="#Club"/>
      </g>
    </g>
    <g id="Corner_Symbols_Q" data-name="Corner Symbols Q">
      <use width="30.47" height="32.54" transform="translate(19.58 46.74) scale(.5)" xlink:href="#Club"/>
      <use width="30.47" height="32.54" transform="translate(177.7 222.54) rotate(-180) scale(.5)" xlink:href="#Club"/>
    </g>
  </g>
  <g id="Club_Corner_Characters" data-name="Club Corner Characters">
    <g>
      <use width="21.78" height="33.12" transform="translate(180.98 254.75) rotate(-180)" xlink:href="#Black_Q"/>
      <use width="21.78" height="33.12" transform="translate(16.31 14.53)" xlink:href="#Black_Q"/>
    </g>
    <use width="181" height="253" transform="translate(8.14 8.14)" xlink:href="#boundary"/>
  </g>
</svg>