<?xml version="1.0" encoding="UTF-8"?>
<svg id="Clubs" xmlns="http://www.w3.org/2000/svg" xmlns:xlink="http://www.w3.org/1999/xlink" viewBox="0 0 197.28 269.28">
  <defs>
    <style>
      .cls-1 {
        stroke-width: 0px;
      }

      .cls-1, .cls-2 {
        fill: #d2232a;
      }

      .cls-2 {
        font-family: ArialMT, Arial;
        font-size: 28px;
        letter-spacing: -.06em;
      }

      .cls-3 {
        fill: none;
        stroke: #000;
        stroke-miterlimit: 10;
      }
    </style>
    <symbol id="Diamond" viewBox="0 0 23.64 32.54">
      <path id="path6413-1" class="cls-1" d="M11.82,32.54c-3.51-5.81-7.2-11.45-11.82-16.27C4.62,11.45,8.31,5.81,11.82,0c3.51,5.81,7.2,11.45,11.82,16.27-4.62,4.82-8.31,10.46-11.82,16.27Z"/>
    </symbol>
    <symbol id="Red_A" data-name="Red A" viewBox="0 0 18.77 33.12">
      <text class="cls-2" transform="translate(.04 24.03)"><tspan x="0" y="0">A</tspan></text>
    </symbol>
    <symbol id="boundary" viewBox="0 0 181 253">
      <rect class="cls-3" x=".5" y=".5" width="180" height="252" rx="15" ry="15"/>
    </symbol>
  </defs>
  <g id="Club_Corner_Characters" data-name="Club Corner Characters">
    <g id="Center_Symbols_2" data-name="Center Symbols 2">
      <use width="23.64" height="32.54" transform="translate(66.68 90.65) scale(2.7)" xlink:href="#Diamond"/>
    </g>
    <g id="Corner_Symbols_2" data-name="Corner Symbols 2">
      <use width="23.64" height="32.54" transform="translate(21.28 46.74) scale(.5)" xlink:href="#Diamond"/>
      <use width="23.64" height="32.54" transform="translate(176 222.54) rotate(-180) scale(.5)" xlink:href="#Diamond"/>
    </g>
    <g>
      <use width="18.77" height="33.12" transform="translate(179.47 252.94) rotate(-180)" xlink:href="#Red_A"/>
      <use width="18.77" height="33.12" transform="translate(18.59 14.53)" xlink:href="#Red_A"/>
    </g>
    <use width="181" height="253" transform="translate(8.14 8.14)" xlink:href="#boundary"/>
  </g>
</svg>