<?xml version="1.0" encoding="UTF-8"?>
<svg xmlns="http://www.w3.org/2000/svg" xmlns:xlink="http://www.w3.org/1999/xlink" viewBox="0 0 197.28 269.28">
  <defs>
    <style>
      .cls-1 {
        fill: #262964;
      }

      .cls-1, .cls-2, .cls-3, .cls-4 {
        stroke-width: 0px;
      }

      .cls-2, .cls-5 {
        fill: #d2232a;
      }

      .cls-3 {
        fill: #000;
      }

      .cls-6 {
        fill: none;
        stroke: #000;
        stroke-miterlimit: 10;
      }

      .cls-5 {
        font-family: ArialMT, Arial;
        font-size: 28px;
      }

      .cls-4 {
        fill: #e1cf20;
      }
    </style>
    <symbol id="Diamond" viewBox="0 0 23.64 32.54">
      <path id="path6413-1" class="cls-2" d="M11.82,32.54c-3.51-5.81-7.2-11.45-11.82-16.27C4.62,11.45,8.31,5.81,11.82,0c3.51,5.81,7.2,11.45,11.82,16.27-4.62,4.82-8.31,10.46-11.82,16.27Z"/>
    </symbol>
    <symbol id="Red_K" data-name="Red K" viewBox="0 0 18.68 33.12">
      <text class="cls-5" transform="translate(0 24.03)"><tspan x="0" y="0">K</tspan></text>
    </symbol>
    <symbol id="boundary" viewBox="0 0 181 253">
      <rect class="cls-6" x=".5" y=".5" width="180" height="252" rx="15" ry="15"/>
    </symbol>
  </defs>
  <g id="Diamonds">
    <g id="Diamond_Symbols" data-name="Diamond Symbols">
      <g id="King_Face" data-name="King Face">
        <path id="path6351-0" class="cls-1" d="M40.15,31.14c.06,62.44-.04,139,0,207h116.99V31.14H40.15ZM74.39,32.31c20.19.6,40.51-.05,60.85.13,0,0-7.39,14.21-9.63,18.68-.49.98-.54,1.68-.28,2.09.41.63.38,1.7-.08,2.32-.2.26-.29.44-.3.59-.02.16.11.33.22.62.36,1.36-.57,2.31-1.55,2.74-.66.29-2.11.49-3.19.43-6.75-.35-19.99-6.65-25.44-7.14-3.78-1.17-8.68-.76-12.71-.51-.76.05-.63-1.91-.63-1.91-.64-6.47-4.79-12.1-7.26-18.04ZM136.33,33.03h19.31v3.3l-8.17,9.08c-.76.85-1.35,1.55-1.35,1.55l-.05,8.2c-5.47-3.25-6.56-7.13-7.56-11.39-9.15,7.45-9.58,23.76.41,32.15.08-3.65,2.6-10.81,7.06-11.34l.06,28.4-5.49-5.91-11.93.17c1.97-3.52,2.01-6.32.74-9.62-2.14-5.39-5.45-17.71-5.2-17.66,0,0,.1-.26.37-.33.99-.24,1.62-1.3,1.34-2.56-.05-.41-.05-.31.2-.84.97-1.83-.19-3.81-.19-3.81l10.45-19.37ZM73.05,33.03l7.16,14.34s-.09.66-.06,1.04c.06.55.22,1.05.51,1.56.19.34.33.81.37,1.24q.07.71,1.01,1.65c.2.2.24.32.16.52-.31.87-.13,2.64.49,4.76.78,2.68.98,2.64-.47,6.22-.3.75-.67,1.75-1.06,2.66-1.79,4.05-2.06,5.15,1,7.31.86.61,1.12,1.14.9,2.35-.17.95-.2,1.56.21,2.1.27.35.51.41.45.67-.05.18-.25.98-.18,1.64.18,1.8-1.7,4.44-3.41,5.37-.34.27-.44-.06-.63-.43-1.78-3.43-6.2-2.04-6.49,2.05-.08,1.08-.05,1.55-.3,1.78-.09.08-.35.24-.35.24,0,0-6.62,4.75-10.82,7.19-.27.16-.52.42-.71.46-.22.05-.39,0-.53-.15-1.55-3.26-.69-7.11-.56-8.48-.03-.48-.41-.57-.97-.58-.96-.01-2.33,1.06-2.63,2.06-.25.85-.42,1.4-.65,1.39-.23,0-.35-.35-.92-1.57-1.2-2.55-1.38-2.87-2.5-4.35-.89-1.18-1.66-1.34-2.53-.46-.61.61-.59.08-1.11-.23-.9-.67-2.24-.07-2.27.88-.03.79-.03,1.39-.76,1.44-.81.06-1.16,1.21-.93,2.86.12.87.14,1.01-.1,1.33-.78,1.04-.89,1.75-.46,3.2,1.23,4.13,3.01,6.91,4.69,10.66,0,0-4.14,2.67-6.66,4.22V33.03h31.13ZM155.77,37.16l.1,66.74-9.14-9.91s-.18-12.79-.17-18.02c0-5.23.08-10.46.06-11.43-.02-.97.05-5.11.08-9.36.06-8.9-.68-7.8.82-9.51l8.25-8.52ZM137.92,45.16l.5,1.61c-3.83,2.42-8.51,15.92.09,25.82l-.17,2.04c-9.01-9.02-7.35-21.97-.42-29.48ZM138.57,47.07c1.31,2.99,2.81,5.64,4.85,7.27-1.1,2.89-1.57,6.08.29,10.39-1.3.79-3.12,2.89-4.99,7.18-6.79-7.57-5.28-18.54-.14-24.84ZM88.09,52.72c3.76,0,7.69.68,11.29,1.88,2.27,12.66,6.25,21.18,6.24,26.14,0,0-.31-.06-.98-.59-1.64-1.31-3.79-.58-4.94,1.09-1.09,1.58,0,3.77-.55,4.69-1.06,1.71-3.79,4.88-4.24,4.78-.33-.08-.28-.24.89-2.22,1.22-2.06,2.15-3.93,1.75-4.39-.17-.19-.26.22-1.17,1.96-2.13,4.09-4.01,6.62-4.75,6.29-.35-.15-.17-.49,1.41-2.8,1.78-2.6,2.28-4.23,2.1-4.95-.14-.55-.41.34-1.15,1.94-.79,1.69-2.21,3.58-3.37,5.39-.37.65-.83,1.03-1.44,1.33-.45.21-1.15.56-1.57.5-.21-.03-.07-.17.22-.48,2.28-2.59,4.23-5.47,5.34-8.24.17-.36-.07-.88-.36-.5-1.7,3.31-4.07,7.43-6.65,9.25-.55.39-1.38.72-2.13.65-1.27-.04-.82-.35.33-1.17,2.47-1.75,5.93-6.79,6.49-8.57.13-.42-.02-.66-.26-.63-2.03,3.59-4.72,7.53-7.84,9.19-1.68.89-3.8,1.07-4.84.5-.76-.41-.57-.55.78-.65,3.26-.36,7.08-3.74,8.98-7.31,1.11-1.98.33-1.53-.93.38-2.16,3.26-6.45,6.39-9.11,6.14-2.69-.18-4.24-2.48-3.89-4.45.21-1.19.98-2.41,2.48-2.76,2.58-.6,4.26,3.91,1.9,4.76-.8.29-1.11.07-.82-.29,1.75-.84.97-3.16-.5-3.4-.93-.15-2,.54-2.05,2.13.03,1.18.91,2.34,2.68,2.37,2.1.03,5.32-1.64,7.28-4.71,1.39-2.35.11-1.56-.92.01-.91,1.38-3.86,3.32-4.09,3.24l.1-1.59c.05.28,4.54-3.12,4.28-5.65-.17-1.83.07-2.4,1.8-2.37,1.29.02,2.94.52,3.42,1.17.49.65,1.04.85.8-.24-.4-1.77.08-2.07-.85-1.73-.64.23-1.21-.34-1.86-.84-.71-.56-1.6-.79-2.67-.75-.8.03-1.16-.02-1.03-.85.09-.59.19-1.12.04-1.5-.25-.63-1.25-1.27-2.38-2.19-1.33-1.08-1.09-1.15,1.76-8.38,1.19-3.04,1.2-3.66.48-5.9-1.13-3.54-1.31-4.96.81-5.46,1.2-.15,2.44-.23,3.69-.22h0ZM100.13,54.77l1.1.35s3.44,12.95,5.4,19.28c.6,1.93,1.06,4.54,1.17,6.99-.05,3.37-1.77,5.79-3.87,6.06-1.48.19-3.1-.66-3.83-2.49-.62-1.73-.15-3.78,1.64-4.49,3.1-1.22,5.37,3.15,2.33,4.49-1.57.7-3.07-.56-2.36-2.02.5-1.02,1.89-.91,2.23.14.27,1.13.72.59.52-.17-.58-2.43-3.4-1.86-3.63.38,0,2.77,2.75,3.42,4.39,1.87,1.27-1.24,1.4-3.49,1.09-5.44-.44-4.05-2.51-9.31-3.99-15.3-.74-2.99-1.8-6.56-2.18-9.64h0ZM143.93,54.92l2.07.9-.05,7.52-1.75.67c-2.29-3.87-.39-9.08-.27-9.09h0ZM102.03,55.41l1.51.64c.83,5.31,4.74,15.45,6.12,23.02.38,4.55.45,5.89-2.35,8.31v-.03h-1.51s0-.1.66-.65c3.66-3.02,1.47-9.67.09-14.79-2.41-8.17-4.56-16.52-4.53-16.51h0ZM87.88,55.94c-.19,0-.39.01-.58.02-2.28.14-2.66.3-2.67.85-.01,1.03.37,1.49,2.49,1.24,1.84-.22,4.5.1,6.34.97,2.09.99,2.59,1.23,3.34,1.66,1.89,1.07,1.56,0-.15-1.23-3.49-2.53-5.9-3.53-8.78-3.5h0ZM104.36,56.3l1.42.6s.38,1.22.51,1.92c1.38,6.77,5.15,14.39,5.59,22.32.1,2.6-.3,5.02-2.03,6.19h-1.3c1.39-1.53,2.32-1.97,1.93-7.27-.62-6.82-4.69-15.33-6.12-23.75ZM106.88,57.4l1.31.53c1.51,9.15,9,22.82,4.23,29.41h-1.19c1.06-1.83,1.5-3.44,1.34-5.91-.46-8.31-4.3-16.38-5.69-24.04h0ZM109.08,58.24l1.41.48c1.92,9.27,9.28,24.46,4.03,28.66l-1.04-.03c3.95-8.16-2.04-16.6-4.41-29.11ZM111.54,59.11c.43.27,1.05.39,1.53.54,1.49,7.01,4.2,13.9,5.43,20.43.42,3.57-.29,6.25-2.33,7.27h-.43c1.83-3.04,1.48-6.88.51-11.03-1.31-5.58-3.85-11.71-4.7-17.22ZM89.31,59.23c-.66,0-1.34.1-2.07.36-.74.31-.65.96.04.82.23-.05.65-.13.92-.18,1.69-.33,3.78.35,6.31,2.04.61.41,1.27.8,1.44.94.46.38.96.38.79-.11-.07-.2-1.04-1.03-1.9-1.56-1.84-1.23-3.56-2.29-5.52-2.31h0ZM113.94,59.84l1.42.24c2.67,13.56,8.54,21.99,3.52,27.03h-1.26c1.37-1.55,1.99-3.97,1.54-6.84-.46-2.93-1.83-7.57-2.97-11.65-1.32-4.73-2.38-8.74-2.26-8.77h0ZM115.98,60.22l1.2.25c1.41,5.51,3.81,12.35,5.25,18.04.89,3.5.53,7.81-1.45,8.61l-1.02.02c1.68-2.48,1.92-5.06,1.15-8.4-1.58-6.85-3.96-12.83-5.14-18.52ZM123.41,60.23c1.22,5.72,4.14,14.44,5.19,17.45,1.4,3.07.98,7.63-1.12,9.43l-.99.02c1.2-1.24,1.61-3.33,1.42-5.49-.54-6.11-4.46-14.59-5.88-21.1l1.39-.31ZM118.13,60.5l1.24.13c1.24,5.98,3.66,11.79,5.23,17.77.29,1.35.55,3,.45,4.21-.21,2.54-1.17,4.55-2.01,4.55h-.86c1.75-2.3,1.66-5.43.91-8.8-1.24-5.57-4.23-12.28-4.97-17.86ZM85.79,60.53c-.52,0-.53.53.3,1.33.51.49.47.33.44.64-.12,1.32.07,2.54.56,1.17.13-.36.32-.77.52-.72.36.12.18.86.36,1.24.3.66-.02.82-.74.62-.52-.15-.55.16-.87.56-.57.69-.47,1.11.4.89.14-.04.26,0,.38.04.27.07.52.26,1.17.8.83.7,2.01,1.63,2.77,1.77,1.22.23.95-.42-.05-.84-.86-.36-1.92-1.37-1.92-1.65,0-.21.27-.09,1.82-.56.67-.2,1.61-.66,2.01-.86.66-.33.69-.33,1.71-.3,1.75.06,2.02,0,.79-1.01-2.48-2.03-5.79-3.35-7.54-2.51-.53.26-.52.1-.9-.14-.5-.32-.91-.46-1.18-.46h0ZM121.28,60.71c1.72,7.31,5.04,13.86,5.85,20.79.18,1.98-.12,3.92-1.61,5.59l-1.01.02c-.15,0,1.41-2.65,1.27-4.92.04-1.21-.08-2.51-.39-3.79-1.95-6.16-3.88-11.75-5.37-17.62l1.26-.06ZM90.35,63.13c.39.08.4.29.27.54-.2.4-.56,1.17-.56,1.17,0,0-.48.1-.57-.03-.16-.26.39-1.5.7-1.67.05-.03.11-.01.16,0h0ZM91.43,63.35c.05,0,.12.03.22.07.45.2,1.23.6.89.91-.4.37-1.95.53-1.87.38l.52-1.06c.11-.22.16-.31.24-.31ZM86.69,69.74s-.07.01-.1.03c-.09.06.11.46.41.91,1.37,2.04-.53,2.65-1.87,1.55-1.28-1.09-3.24-.99-2.96.16.1.4,0,.6.71.61.63.01.8.05,1.37.48,2.18,1.65,5-.56,3.62-2.92-.26-.45-.9-.84-1.18-.82h0ZM92.07,72.92c-.79,0-1.29.65-.3.85,3.54.7,1.17,4.76-1.33,2.67-2.25-2.24-5.26-2.23-5.3-.64,0,.4.01.41.55.53,1.26.26,3.13.89,3.85,1.29.42.23.87.45.99.49,1.5.6,3.43-.18,3.81-1.58.35-1.28.07-3.61-2.25-3.61h0ZM47.63,85.97c.47,0,.98.46,1.34,1.13.83,1.55,1.84,4.16,2.49,5.59.16.36.17.69.16.86.05.84.31,1.16.76.78.45-.37,1.06-1,.34-1.1-.73-.61-1.13-1.5-.68-2.04.33-.4.2-.66-.07-.67-1.02-.02-2.54-3.37-1.83-4.09.97-.97,2.04.23,4.32,5.22,1,2.2,1.05,4.61.19,3.42-.29-.3-.23-.15-.58.8-.26.71-.47,1.05-1.45,2.09-1.2,1.27-1.92,2.27-1.95,2.49-.05.42.65.03,1.16-.7,1.14-1.23,1.18-1.55,1.17.07,0,1.47-.08,1.74.16,1.73.37-.02.57-1.18.75-2.58.21-1.26.8-1.9,1.79-2.61.27-.19.28-.33.22-.88-.18-1.79.74-5.12,1.16-4.29.06.19.24.62.34.92.08.47.35,1,.76,1.04.51.42.51.65.68,2.19.06.5.26,1.26.4,1.66.26.75.5,1.18.35,1.41-.09.11-.29.32-.29.32l-8.29,5.43s-.65.4-.89.51c-.66.33-1.06.09-1.38-.46-1.76-2.89-2.96-6.14-4.2-9.13-.74-1.78-.02-2.95.94-1.52.37.56.18.91,0,1.99-.03.19.13.12.44.18.48-.06.72.42.7,1.23-.31,1.16.12.53.32.48.38,0,.47.26.68.74.13.68.41.48.8.03.33-.37.33-.36-.33-1.23-1.14-1.36-2.72-4.44-3.13-6.31-.11-.52-.07-.93.01-1.2.51-1.28,1.23-1.28,2.01.5.13.3.39.79.58,1.09.3.48.49.89.48,1.65-.23.64-.27.65-.07.74.5.22,1.38,1.2,1.41,2.09.04.9.18,1.37.82.84.73-.61.42-.85-.3-1.63-.75-.99-.8-1.85-.35-2.56.07-.24.04-.31-.23-.28-.88.09-1.73-1.13-1.12-2.06.28-.55.25-.69-.15-.7-.21,0-.55.04-.71-.07-.26-.54-.8-1.28-.79-1.9.26-.86.65-1.21,1.07-1.2h0ZM99.61,86.02c1.44.97,2.86,1.99,4.48,2.45-3.74,7.44-9.77,11.43-14.81,12.99.17.95.29,1.9,1.13,2.49-.03-.14-.4-1.83-.32-2.18,6.94-1.96,13.05-9.46,14.62-13.33l30.51-.37c-22.62,23.95-23.52,57.65-5.07,85.9l-2.12,1.37c-14.22-23.51-14.07-46.16-9.81-61.33,3.02-10.76,8.45-18.97,12.57-23.67,0,0-16.54-.25-24.77.08-1.2,2.02-2.31,3.67-3.92,5.58,0,0,4.18-4.46,4.07-5.23,7.63,0,15.5-.49,23.12.1-8.92,11.78-13.31,23.94-14.07,35.38-.03,1.49-.11.66-.56,1.2l-1.41,2.41-1.13-2.51c-.77-.27-2.28.17-2.92-.09-3.14,15.45.03,34.09,4.16,46.26,0,0-1.04.64-2.31.53-1.4-.34-1.74.08-2.95.35-1.39.29-1.88.29-2.18.68-.17.22-.48.52-.83.73-3.39,1.36-7.36,6.45-7.36,6.38l-3.73-1.85c3.44-7.45,7.47-10.13,14.56-13.44l-.66-3.33c-7.55,3.11-12.36,6.82-16.15,14.05-4.6-.07-23.23-.22-23.24-.15,7.6-9.54,13.59-23.92,14.24-35.14.16-2.18-.12-1.13.76-1.79l1.38-1.81,1.08,1.78s.78,1.1,1.28.18c1.39-15.64-.08-33.47-6.91-45.91,1.21-.09,2.42-.13,3.58.63,2.67,6.68,4.24,14.92,4.93,21.1.86,7.82.74,16.65-.14,24.14l.46.07c1.33-9.74.88-20.1-.34-29.15-.63-4.72-2.65-12.11-4.03-15.52-.38-.94-.68-1.19-.32-1.33,8.32-.77,12.14-3.84,15.13-8.73h0ZM76.54,86.84c.64,0,1.15.57,1.15,1.27s-.52,1.27-1.15,1.27-1.15-.57-1.15-1.27.52-1.27,1.15-1.27ZM139.08,87.49c-2.44,2.43-4.39,4.96-6.45,7.64,6.08,9.24,12.85,19.25,18.53,27.25,0,0,1.97-1.29,1.96-1.45,0-.08-.16-.51-.19-.42-.08.22-1.59,1.15-1.59,1.15l-17.99-26.07s.98-1.29,1.28-1.69c1.4-.51,5.29-5.83,5.48-5.72,3.05,2.58,12.24,13.5,15.78,16.85l.05,30.33c-.37,1.21-10.17,5.89-17.09,23.34-3.48,2.15-7.34,3.31-10.92,5.18,0,0,.91,1.58,1.36,2.02-.55-1.31-.64-1.56.6-2.11l25.9-11.65-.05,2.35c-2.6,2.22-19.77,15.93-25.06,19.17-24.78-38.14-8.99-70.76,5.46-86.01l2.96-.18ZM58.37,89.55c.68.01.51,1.74.26,2.34-.5.43-1,.05-.99-.76,0-.26-.04-.51-.1-.56-.37-.26.25-1.03.84-1.02ZM73.51,90.63c.57.48.78,1.11.99,1.75-.77-.13-2.82-.78-1.86-1.29l.87-.46ZM69.76,92.88c17.87,29.84,17.07,61.53-2.87,85.56l25.24-.04c3.21-7,8.56-11.26,15.41-13.89l.6,2.2c-7.87,2.79-11.85,7.41-15.02,13.82h-30.1c11.56-13.74,16.86-25.34,17.7-41.03.79-14.95-2.65-28.6-13.11-45.03l2.16-1.58ZM74.8,93.22l4.22,2.2-.62,4.78-4.42-2.25.82-4.73ZM67.2,94.56c22.54,37.64,12.87,64.12-5.12,86.16l-3.32.06-7.73-7.93.14,48.16s-7.54,8.15-8.4,9.13c-.86.91-1.5-.49-1.5-.49l.02-63.84.33-2.5.1-13.76,4.8-2.8,18.01,26.06s-.72,1.18-1.06,1.39c.38.95,1.66-1.42,1.77-1.8-6.53-8.93-18.68-26.43-18.68-26.43l-5.06,2.91s.15-11.42.06-15.81c.19-1.03.9-.76,1.37-1.22,6.58-4.72,12-11.49,16.61-23.05,3.5-1.26,7.18-3.05,10.7-4.65l-5.07-8.4,2.01-1.2ZM53.39,95.04c-.19,0-.67.24-1.33.9-1.21,1.21-2.8,3.2-2.81,3.58.32.13.61-.08.87-.37,1.01-1.65,2.57-2.29,3.49-3.73.14-.27,0-.38-.22-.37h0ZM64.74,96.79s3.5,5.62,4.39,7.12c-9.22,4.03-18.86,9.35-27.4,12.79v-2.25s16.04-13.28,23.01-17.65ZM78.45,100.51l3.45,1.97-.97,4.29-3.48-2.15,1-4.11ZM81.29,107.65l2.83,2.28-1.29,3.64-2.85-2.17,1.31-3.75ZM58.18,110.32s-.44,1.69-1.17,3.2c-3.51,6.72-6.94,12.7-14.02,17.89-.27-.26-1.04-1.76-1.04-1.76l-.07-1.99c3.76-3.33,7-5.78,11.98-15.55l1.44-.65,1.23.59.83-1.64.82-.08ZM72.92,110.34c-3.27,7.65-6.48,15.54-11.68,21.5l14.24,21.94c4.69-15.49,2.95-30.01-2.56-43.44ZM55.01,112l-.68,1.31,1.18.75.68-1.31-1.18-.75ZM53.07,112.14c-2.58,6.37-6.45,11.27-11.53,14.79l-.2-9.34,11.73-5.45ZM53.98,114.05l-.68,1.31,1.18.75.68-1.31-1.18-.75ZM83.09,114.32l2.57,2.69-1.53,2.97-2.63-2.4,1.59-3.25ZM122.41,115.64s0,0,0,0c-4.51,15.48-3.16,30.26,3.03,43.13,3.04-8.34,5.53-13.92,11.46-22.81-3.65-5.28-14.12-20.5-14.48-20.33h0ZM52.97,115.89l-.72,1.28,1.16.79.72-1.28-1.16-.79ZM72.66,117.69c4.07,10.73,3.71,20.41,1.55,28.79l-10.16-14.16c3.72-5.1,6.19-9.93,8.61-14.63ZM51.93,117.73l-.77,1.25,1.13.85.77-1.25-1.13-.85ZM50.79,119.51l-.84,1.19,1.08.93.84-1.19-1.08-.93ZM84.26,120.78l2.3,2.41-1.45,3.13-2.34-2.36,1.49-3.18ZM49.46,121.37l-.88,1.15,1.04.98.88-1.15-1.04-.98ZM123.66,121.71l10.25,14.59c-3.43,4.5-6.28,9.81-8.82,15.53-2.86-9.88-4.14-19.58-1.43-30.12ZM48.02,123.19l-.95,1.09.99,1.04.95-1.09-.99-1.04ZM71.96,124.65l-4.69,7.48,5.38,7.58c.58-4.1.71-8.86-.69-15.06ZM46.5,124.89l-1.01,1.02.92,1.11,1.01-1.02-.92-1.11ZM45.02,126.35l-1.06.95.86,1.17,1.06-.95-.86-1.17ZM85.06,127.12l1.93,2.48-1.95,2.56-1.83-2.27,1.86-2.77ZM109.54,127.57l1.31.05c-2.14,23.35,2.07,35.17,5.8,45.44,0,0,0,.41-.13.53-.61.23-1.84.48-2.82-.48-5.02-14.24-6.11-31.77-4.15-45.55h0ZM43.29,127.87l-1.11.88.8,1.22,1.11-.88-.8-1.22ZM125.25,128.7c-.33,0-.62,9.61.63,14.3l4.72-7.05-5.35-7.24ZM113.06,130.28l1.58,2.34-1.67,2.52-1.71-2.38,1.81-2.47ZM42.01,130.92c.08-.01.21.23.46.42.24.27.2.25-.06.48-.41.36-.54.3-.53-.26.04-.47.07-.63.13-.64h0ZM85.16,132.67l1.74,2.75-1.93,2.74-1.65-2.88,1.84-2.61ZM112.92,136.16l1.84,2.47-1.58,2.71-2-2.59,1.75-2.59ZM155.42,136.68l.16,2.85-.63-1.04-1.17.99.81,1.19,1.02-.88.06,1.15c-6.46,5.16-9.25,11.08-11.88,15.52l-1.17.54-1.33-.46-.65,1.27-1.13.29s2.27-5.45,6.2-10.98c3.5-4.93,9.67-10.49,9.69-10.44h0ZM156.17,141.14l.06,10.12-11.57,4.93c3-5.65,6.54-10.89,11.51-15.05ZM153.3,139.91l-1.06.96.91,1.15,1.05-.96-.91-1.15ZM151.67,141.43l-1.02,1,.95,1.12,1.02-1.01-.95-1.11ZM113.04,141.99l2.18,2.56-1.6,3.03-2.27-2.4,1.69-3.19ZM150.03,143.07l-.96,1.08,1.05,1.11.96-1.08-1.05-1.11ZM148.52,144.77l-.92,1.12,1.11,1.06.92-1.12-1.11-1.06ZM147.01,146.68l-.85,1.18,1.16.99.85-1.18-1.16-.98ZM113.79,148.49l2.73,1.95-1.33,3.58-2.72-2.29,1.33-3.25ZM145.69,148.51l-.8,1.23,1.23.93.81-1.27-1.24-.89ZM144.46,150.44l-.74,1.27,1.25.88.74-1.31-1.24-.84ZM143.36,152.36l-.68,1.31,1.29.81.68-1.32-1.29-.8ZM142.37,154.34l-.68,1.31,1.43.68.57-1.25-1.31-.74ZM115.26,155.14l2.79,2.09-1.24,3.75-2.95-2.3,1.39-3.54ZM155.65,158.84v77.32h-30.5s-1.44-2.8-4.44-9.25c-1.27-2.73-2.35-3.89-2.46-6.05.12-1.27-.42-2.71-1.36-3.29-.32-.19-.85.04-.67-.5.19-.6-.4-1.52-.57-1.71-.19-.35-.07-.43-.09-1.72-.02-1.24-.08-1.76-.32-2.7-.61-2.37-.75-3.56-.4-4.79.91-3.12,1.85-5.52,3.08-8.43.71-1.7.6-2.37-1.58-3.61-1.63-.93-1.85-.92-1.65-2.27.1-.63.19-1.03.07-1.34-.07-.19-.35-.45-.5-.6-.21-.2-.15-.62.07-.93.21-.3.22-.74,0-1.46-.45-1.52.56-3.53,2.47-4.92.84-.61.82-.49,1.7.53,2.57,2.98,6.4,1.11,6.4-3.1,0-1.31-.4-1.23.72-1.85,3.81-2.67,11.62-7.54,11.57-7.4.51,1.14.68,2.12,1,3.36.28,1.06.24,1.14.14,3.2-.09,1.86-.14,2.29.25,2.41,2.26.27,2.77-.61,3.2-2.21.19-.71.55-.57.77-.27.86,1.72,1.94,3.52,2.66,4.74.89,1.56,2.39,2.34,3.18,1.6.17-.61.3-.63,1.3-.38,1.21.3,1.9-.44,2.01-1.42.05-.39-.21-.38.43-.76,1.6-1.31.99-3.1.75-4.18.02.06.69-.45.7-1.45.08-5.24-4.04-12.78-3.94-12.59l6.01-3.97ZM116.94,161.85l3.26,1.74-.77,4.3-3.35-1.66.86-4.38ZM148.7,163.45c1.88,2.41,3.24,6.42,3.94,9.03.35,1.3.39,2.79.08,2.99-.31.2-.45-.01-.39-.79.05-.65.07-1.15-.19-1.14-.73.21-.76-1.01-.68-1.3.05-.19.14-.33.18-.43.18-.47-.29-.41-.78-.42-.43.01-.54-.28-.52-.73-.01-.5-.61-.4-.95-.02-.31.35-.25.75.18,1.04.61.41,1.18,1.42,2.59,4.89.82,2.02.58,3.45-.4,3.43-.68-.02-1.47-2.07-2.1-3.58-.16-.39.25-.83.39-1.04.37-.54.32-.71-.24-.72-.52,0-.74.04-1.06-.67-.12-.27-.2-.67-.16-.93.27-.78-.28-.97-.82-.67-.67.31-.67.97.36,2.06.66,1.2.49,1.12-.14,1.92-.13.29-.05.46.22.46.8-.27,1.66,1.31,1.43,1.85-.24.23-.91,1.08-.27.91,1.31-.39,2.11,1.72,1.34,2.44-1.15.64-1.42.44-3.2-3.47-.55-1.21-1.21-2.52-1.29-2.65-.08-.13-.12-.49-.11-.78.08-.71-.2-.87-.75-.59-.42.11-.79.49-.27.85.62,1.18.84,1.37.5,1.66-.77.68-.44.65.43.84.42.14.64.38.76.67.45,1.11,1.24,2.67,1.32,2.99.26.81-.21,1.18-.86,1.14-.68.02-.99-.57-1.32-1.08-1.23-1.89-2.12-3.76-3.38-5.91l.17-2.01s.33.08.51-.02c.36-.19.58-.82.78-1.65.33-.72,2.28-2.37,3.03-3.26.14-.1.25-.27.26-.37,0-.32-.85-.11-1.4.59-.81.8-1.16.52-1.14-.5-.08-1.26-.78-.63-.81.6-.09.97-.4,1.56-1.01,2.11-1.16,1.03-.97.77-.91,2.19.09,2.48-.77,4.53-1.34,3.17-.2-.48-.44-1.03-.95-1.05-.36-.02-.54-.41-.73-1.37-.29-1.55-.7-2.56-1.08-3.99l10.79-6.75ZM119.77,168.8l3.76,1.65-.7,4.34-3.73-1.57.67-4.42ZM148.44,169.2s-.05,0-.09.02c-1.06.88-2.04,1.88-3.19,2.64-.43.28-.94,1.01-.94,1.21,0,.19.51.19,1.02-.06.48-.23,3.21-3.06,3.21-3.32.19-.23.17-.5,0-.49h0ZM113.91,174.47c.89,0,.37.29-1.57,1.77-1.89,1.45-5.02,6.04-5.38,7.74-.16.77.28.83.78-.23,2.3-4.88,6.65-9.34,10.63-9.14,1.95.1,3.01.68,1.39.93-4.43.6-7.74,3.39-10.63,8.94,0,.12.26.12.57-.1,2.65-3.58,5.64-8.32,10.89-7.93,3.79.25,4.86,5.22,1.72,6.92-2.74,1.48-5.27-2.12-2.99-4.26.74-.69,1.2-.39.49.32-1.52,1.52.34,4.23,2.19,3.2,1.13-.52,1.58-2.3.59-3.64-2.21-2.99-6.97-.72-10.28,4.11-.35.51-.65,1.61-.36,1.49.51-.23.83-.68,1.13-1.18,1.18-1.81,2.09-2.72,3.7-3.69,1.24-.75,1.31-.61.85.69-.19.55-.35.73-.83,1.07-2.02,1.52-3.27,3.56-3.32,4.86-.04.95.59,2.19-.09,2.44-1.16.6-4.31.11-5.16-1.09-.61-.86-.85-.36-.39,1.04.3.93.29,1.45.75,1.36.58-.34.98-.26,2.1.42.54.33,1.5.63,2.09.78,1.07.27,1.29.16,1.27.67,0,.16.04.6,0,.87-.17,1.53.99,2.06,2.57,3.07.92.59.56,1.2-.51,4.12-.56,1.32-1.03,3.1-1.72,4.44-.64,1.51-.7,3.16-.28,5.04.77,3.49,1.32,5.27-.05,5.58-3.52.59-11.3.56-15.55-1.24-1.09-9-6.84-22.35-6.1-25.8,1.47,2.45,7.65,1.8,5.79-5.05,0,0,.51-.84,1.51-1.96,2.59-2.9,3.23-3.38,2-.83-.95,1.97-2.15,4.53-2.18,5.03-.02.4.26.49.48.17.16-.23.35-.8.52-1.24,1.55-3.99,4.19-7.59,6.01-8.46.47-.22.45.01.12.45-2.14,2.94-3.78,5.66-4.94,9.21-.05.37.42.52.57.17,2.01-4.65,2.61-5.7,5.08-8.98.97-1.29,1.87-1.94,2.59-1.87.62.06.44.17-.14.85-.44.52-1.09,1.24-2.15,2.7-1.86,2.58-3.73,6.78-3.04,6.56.12.35.71-.77,1.2-1.83,1.36-2.52,2.8-5.84,6.03-8.03.67-.31,1.41-.48,2.06-.49h0ZM51.52,175.29l5.74,6.34,11.56-.16c-1.91,3.27-.89,8.34.16,11.3,2.06,5.8,5.08,15.39,4.85,15.53,0,0-1.68.48-1.83,1.65-.23,1.74.46,1.61-.53,3.19-.22.35-.08,1.02.16,1.55.16.39.31.98.01,1.43l-10.19,20.05h-19.53v-3.89l9.87-10.82-.12-7.96c5.28,1.73,7.1,7.75,7.55,12.21,9.54-9.61,9.31-24.08.29-33.16-1.76,9.6-8.05,11.59-7.91,11.4l-.09-28.64ZM123.38,176.42c.62.05,1.45.16,2.02.5-.38.25-.66.55-.91.86-.31-.61-.73-.94-1.11-1.36ZM139.39,176.49c.51,0,1.15,1.66.78,2.05-.2.22-.87.3-1.1.14-.3-.25-.15-2.18.32-2.19ZM121.17,179.38c.66,0,1.2.59,1.2,1.33s-.54,1.33-1.2,1.33-1.2-.59-1.2-1.33.54-1.33,1.2-1.33ZM70.35,181.26l.87.02c-1.57,2.32-1.79,4.32-1.23,7.22.63,3.26,5.41,15.52,5.72,18.89.01.15.03.58.03.58l-1.18.09s-.09-.35-.12-.48c-1.65-6.11-3.29-10.77-4.43-14.34-1.14-3.84-2.89-9.54.34-11.99h0ZM76.68,181.29s.02,0,.02,0h.83s-1.24,2.89-1.33,4.63c-.1,1.97.33,4.12.92,6.23,1.4,4.58,3.44,9.69,4.58,15.47.01.07.14.63.14.63l-1.23-.18s-.12-.59-.13-.67c-.85-5.09-3.22-10.37-4.64-15.38-.72-2.28-1.23-5.07-.97-7.21.18-1.51,1.55-3.49,1.81-3.52h0ZM86.74,181.3c-.88,1.51-1.68,3.39-1.74,4.87-.05,2.75.68,5.08,1.4,7.51,2.23,7.49,3.32,11.44,4.43,17.44l-1.19-.56s-.05-.34-.07-.43c-.63-3.76-.67-3.43-4.4-16.08-.87-3.03-1.7-5.7-1.54-8.22.04-1.44,1.17-4.29,2.37-4.52h.73ZM88.16,181.3h1.11s-.61.71-.79.98c-1.93,2.96-1.37,6.14-.41,9.93,1.32,5.21,3.77,11.04,5.04,18.99.02.15,0,.91,0,.91l-1.32-.59c-1.2-7.29-4.15-14.84-5.58-21.39-.84-3.85-.6-6.28,1.34-8.38.48-.41.61-.46.61-.46h0ZM74.65,181.34h.83s-1.38,2.51-1.38,3.99c-.23,2.65.64,5.57,1.63,8.63,1.53,4.71,3.55,10.4,4.17,13.4.02.12.11.66.11.66l-1.45-.08s-.08-.73-.16-1.06c-1.67-6.44-3.29-10.61-5.21-16.49-.29-.89-.75-4.41-.21-6.69.43-1.79,1.67-2.34,1.67-2.34h0ZM72.43,181.35l.89.03s-.13.27-.48.91c-1.63,3.26-.9,6.23.11,9.55,1.35,4.42,3.46,9.82,4.79,14.93.07.29.18,1.16.18,1.16l-1.29-.02s-.26-1.04-.28-1.15c-.73-4.74-4.65-12.63-5.67-18.64-.56-3.22-.08-5.22,1.75-6.76h0ZM84.4,181.35s-1.41,2.7-1.54,4.2c-.25,2.95.59,5.39,1.56,8.71,1.67,5.73,4.03,12.46,4.24,15.54,0,.1.04.48.04.48l-1.45-.57s-.07-.32-.09-.43c-1.27-5.57-2.76-11.11-4.78-17.36-.5-2.11-1.15-4.23-1.09-6.04.29-2.42.67-3.07,1.97-4.51l1.13-.02ZM90.79,181.35l1.17.03s-.35.21-1.18,1.19c-4.61,4.65,2.87,17.8,4.6,29.76.02.13.07.58.07.58l-1.29-.51c-.12-.6-.21-1.32-.36-1.97-1.4-6.12-3.27-12.41-4.98-18.11-.96-4.16-1.31-7.82.41-9.86.54-.71,1.56-1.1,1.56-1.1h0ZM78.76,181.36l1.25.04c-.9,1.25-1.43,3.19-1.48,4.91-.05,2.04.45,4.03,1.06,6.13,1.25,4.31,3.03,8.99,4.26,14.8.07.38.13.63.16.8.05.27.19.69.19.69l-1.31-.29s-.14-.38-.22-.58c-.13-.3-.25-.68-.36-1.13-.64-3.03-2.98-9.91-4.41-14.74-1.13-3.04-1.44-8.36.88-10.64h0ZM94.31,181.41c1.59-.06,3.03,1.43,3.37,2.83.33,1.49-.09,3.17-1.58,4-2.41,1.35-5-2.23-3.1-4.2,1.44-1.49,3.57-.39,3.11,1.52-.3,1.24-2.01,1.32-2.29.07-.08-.42-.27-.84-.4-.61-.89,2.29,2.09,3.37,3.33,1.23.73-1.71-.66-3.92-2.72-3.5-2.82.57-3.14,4.52-1.97,9.12,1.63,7.27,5.52,17.05,5.51,21.54,0,.06.01.24.01.24l-1.24-.41s0-.08-.02-.14c-.74-6.27-4.96-16.65-6.17-24.63-.52-3.64.76-6.28,3.65-7,.17-.04.33-.07.5-.07h0ZM82.09,181.47c-.87,1.28-1.43,3.2-1.46,4.57-.03,2.01.63,3.96,1.17,6.06,1.36,5.16,4.55,14.7,4.44,16.49.03.19.12.78.12.78l-1.23-.4s-.05-.09-.14-.33c-.41-1.77-2.36-9.37-4.55-15.94-.84-2.64-1.25-4.7-1.19-6.45.18-2.42.8-3.42,1.76-4.77h1.09ZM105.55,190.03c-3.19.2-2.89,4.5-.91,5.23.71.22,1.12.03,1.24-.14.13-.19-.02-.49-.48-.56-1.34-.49-1.82-2.23-.61-2.96.66-.38,1.72-.14,2.99.91,2.28,1.86,5.07,1.98,4.71.1-.09-.46-.27-.52-1.94-.77-1.36-.2-1.97-.68-2.56-1.03-.93-.55-1.75-.78-2.45-.76ZM59.84,194.02c8.25,8.89,7.03,22.83-.02,29.81-.15-.56-.45-1.94-.49-1.9,5.3-6.09,7.8-16.06.12-26.29.04.04.17-.74.38-1.61h0ZM111.53,194.26c-.08,0-.15.01-.21.03-2.14.64-2.58,2.98-1.19,3.93.85.59,1.5.23.45-.48-.91-.61-.46-2.21.64-2.19.48,0,.81.24,2.03,1.23,1,.82,1.95.88,2.16-.22.13-.66-.07-.95-.71-.78-.28.08-.45-.11-.83-.4-.85-.65-1.78-1.13-2.33-1.12h0ZM58.99,196.01c7.44,9.53,5.05,19.46.03,25.28-1.38-4.48-4.75-7.28-4.75-7.28,1.27-3.11,2.03-6.37-.35-10.47,2.21-2.21,4.05-4.63,5.07-7.53ZM107.29,199.48c-.35,0-.24.36.59,1,1.96,1.47,2.13,1.74.23,1.7-.48-.03-1.24.35-1.66.5-2.48.91-2.6.84-3.78.53-.4-.1-.8-.28-.97-.11-.27.27-.57.45-.23.85.25.29.7.52,1.26.87,2.88,1.82,3.14,2.26,6.52,2.35.39.01.59-.21.81-.21.55,0,.84.14,1.4.7,1.02,1.03,1.07.28.46-1.07-.32-.71-.6-.88-.44-1.42.36-1.23-.15-1.47-.82-.38-.5.85-.56.83-1.03-.26-.63-1.37-.33-2,.62-1.11.72.68.9.17,1.18-.36.37-.7.31-1.33-.35-1.28-.38.03-.73-.16-1.03-.52-.58-.7-1.7-1.58-2.77-1.79ZM108.11,203.18c.08,0,.13.04.16.13,0,.45-.27,1.37-.5,1.85-.07.22-.2.24-.38.28-.59.12-.63-.08-.53-.49.22-.63.4-1.52,1.16-1.77.03,0,.06,0,.09,0h0ZM106.6,203.5c.24-.02.25.09.15.33-.17.41-.47.79-.7,1.11-.48.34-1.25-.7-.91-.97.48-.21.84-.42,1.34-.46.04,0,.08-.01.12-.02h0ZM53.34,204.17c.13,0,.26.03.39.09,1.8,2.68,1.68,6.76.28,9.02-.1.17-.21.2-.39.13-.6-.39-1.36-.54-1.94-.77v-7.85c.59-.14,1.09-.63,1.65-.63h0ZM100.75,204.81c-.14,0-.19.11-.02.31,2.62,2.1,6.23,4.52,9.56,3.58.31-.07.55-.26.49-.61-.04-.22-.38-.4-.74-.3-.76.22-2.23.25-2.83.14-2.29-.41-4.31-2.03-6.07-2.98-.13-.11-.29-.16-.39-.16h0ZM99.99,206.81c-.12,0-.11.12-.03.37.37,1.21,4.08,4.04,7.01,4.98,2.52.8,6.13.01,5.92-1.31-.11-.69-.57-.85-2.17-.63-3.54.76-6.94-.84-9.53-2.61-.7-.48-1.05-.79-1.2-.8h0ZM76.82,208.47c1.55-.02,3.08.12,4.73.42,3.22.61,6.96,1.71,10.12,3.32,5.37,2.23,12.12,3.94,17.86,3.71,1.4.04,3.93-.09,4.42-.27,1.28-.32,1.63-.02,1.94,1.73.05.38.16.49.6.82.68.51.57,1.01.48,2.13-.07.94.45,1.47,2.52,5.69,2.35,4.8,4.65,10.37,4.65,10.37-20.64-.02-40.33-.86-61.45-.14,1.9-4.97,7.08-13.93,10.32-21.13-.78-2.21.18-2.59-.22-3.12-.66-1.23-.18-2.96,1.21-3.35.97-.12,1.9-.19,2.83-.21Z"/>
        <path id="path6353-8" class="cls-4" d="M62.93,236.42s6.76-15.09,9.61-19.61c4.1-5.74,22.61,2.49,31.81,4.55,3.74.8,12.41.42,12.41.42l7.25,14.42-61.08.22ZM48.88,219.28l-.29-46.99,2.12,1.46.49,47.2-9.15,9.67-.05-2.83,6.89-8.51ZM54.42,213.91c2.18-4.84-.25-10.76-.25-10.76,1.26.34,4.79-7.04,5.1-6.82,5.39,7.3,6.33,18.18-.26,24.92-1.66-4.69-4.56-7.34-4.59-7.34h0ZM58.45,180.68c4.1-4.62,7.35-8.22,10.59-13.4.27-.42-17.29-25.03-17.01-25.46,2.71-3.3,6.34-5.73,9.16-9.72,0,0,14.4,20.8,14.73,20.62,1.46-6.51,2.53-12.4,2.25-19.21-.89-17.41-7.63-28.07-7.68-27.86-2.28,16-24.68,40.22-29.09,38.5l-.03-11.18c.27.56,14.19-9.89,17.86-23.7.26-.99,11.07-4.81,10.99-4.95-.46-1.3-5.18-8.68-5.18-8.68,0,0,1.91-.98,2.12-.98,6.13,8.41,10.75,19.49,12.32,30.03,1.91,11.36,3.14,32.72-17.5,56.05l-3.54-.07ZM120.32,151.29c-3.23-11.06-3.14-22.52-1.66-30.52,2.27-14.49,10.56-24.87,17.22-32.78h2.89s-3.45,3.94-4.71,5.38c-2.16,2.73-5.28,8.42-5.28,8.42l17.22,24.85,9.82-2.34s-.3,11.12,0,11.12c-7.63,6.97-13.11,13.28-17.05,23.44-2.41.98-10.41,4.79-10.41,4.79-3.8-1.03,11.31-27.19,8.44-27.63-1.18-1.08-14.3-20.6-14.55-20.56-6.04,20.43-.15,41.88,10.49,56.86-1.21.86-2.3,1.54-2.2,1.33-4.55-6.98-8.55-15.3-10.23-22.36h0ZM88.86,141.05c.68,1.16,3.75-24.93-4.31-45.82.77-.64,7.41-2.04,7.41-2.04l1.79,6.25-4.53,2.12.84,2.93c3.52-1.88,11.14-4.67,15.83-13.26,0,0,22.77-.22,23.26-.17.47.04-4.64,5.46-9.5,16.42-2.22,5.01-3.98,11.48-4.35,19.08-.07,1.5-5.21-7.06-5.21-7.06,1.28-7.23,4.71-14.35,8.12-21.48,0,0-5.24-.33-8.9-.21-5.69,6.86-9.26,10.48-17.84,13.76,3.13,11.06,22.27,16.38,18.01,15.37-.87-.23-1.97,10.17-1.05,21.88.18,9.37,4.74,24.98,4.9,24.85,0,0-3.04.76-3.29.22.51-.14-4.53,1.27-4.53,1.27l-1.8-5.82,4.88-2.48-.79-3.28s-10.76,3.59-16.03,13.94l-23.54.03c9.08-10.87,12.78-21.63,14.75-35.84,1.93.38,5.87-.66,5.87-.66h0ZM146.74,47.18c2.96-2.73,8.9-9.85,8.9-9.85l.08,3.65-6.74,7.74.07,47.78-2.28-2.41-.02-46.9ZM143.63,64.67c-1.21.64-3.63,3.78-4.79,7.31-7.81-7.7-4.59-21.86-.32-24.8,1.24,3.09,4.83,7.19,4.75,7.1-.83,3.24-1.46,6.52.36,10.39ZM74.48,32.59l60.23.12c-3.44,7.47-6.59,13.5-10.24,20.86-1.9,2.53-43.03-8.17-43.23-7.1l-6.77-13.87Z"/>
        <path id="path6355-9" class="cls-2" d="M41.92,226.91l-.4-62.74,6.85,7.34.41,48.18-6.85,7.22ZM73.34,214.76c-1.42.24-.61-1.21-.36-2.59.14-.77-.53-1.49-.52-1.72.02-1.36.94-1.94,5.13-1.88,9.87.76,14.98,4.25,20.64,5.87,5.42,1.55,10.8,1.52,16.79,1.37.44.28,2.04,4.84,1.74,5.3-13.54,2.95-30.82-8.03-43.42-6.34h0ZM97.74,182.27c-1.43-1.14-2.77-1.35-4.09-1.6,2.32-4.51,5.13-8.62,9.83-11.19l2.19,5.97c-2.76,1.57-5.47,3.43-7.93,6.82h0ZM69.22,166.77s-2.03,3.66-3.94,5.44c-5.69-8.42-18.4-26.33-18.4-26.33l-5.4,3.02s-.02-3.47.1-3.71c14.57-8.29,24.57-23.96,28.97-38.63,0,0,2.35,2.64,2.04,3.76-3.94,11.57-10.68,23.18-20.59,31.88l17.21,24.58ZM87.39,149.7l18.4.03.81,7.06c-7.04,2.61-12.86,7.93-18.29,14.09l-8.73-.17c2.86-6.92,6.84-13.94,7.81-21.01h0ZM155.5,119.96c.6,1.99,0,4.14.22,4.05-22.04,12.03-28.33,38.43-28.33,38.43,0,0-2.09-3.66-2-4.22,11.41-27.98,19.04-28.82,20.5-31.86l-17.35-24.78,3.92-5.89,18.61,26.73c1.85-.94,2.9-1.73,4.42-2.46ZM144.64,156.16c3.74-7.42,7.59-11.73,11.43-14.7l-.19,9.79-11.25,4.91ZM41.61,127.04l.1-9.5,11.35-5.39c-3.14,7.55-7.4,11.6-11.45,14.89ZM92.18,118.5l-.67-6.68c6.89-3.32,12.98-7.76,17.89-13.83,5.28-.28,8.89.11,8.86.04,0-.01-5.02,8.13-8.35,20.96l-17.72-.49ZM149.27,48.33l6.27-7,.2,62.55-6.3-6.74-.17-48.82ZM94.15,99.16l-1.99-6.19c3.13-1.29,5.5-4.12,7.71-6.91,1.5,1.48,3.43,2,4.1,2.28.92.24-6.35,9.86-9.82,10.82ZM82.39,52.29s-.78-.5-.7-1.2c.26-.91-.84-2.98-.84-2.98,13.36-4.47,32.81,8.11,44.35,5.47-.1.89.04,1.95-.29,2.79.36,1.78.62,1.84-.96,2.93-8.11,2.53-16.66-2.87-24.58-5.45-6.46-2.25-11.71-1.67-16.99-1.55h0Z"/>
        <path id="path6357-5" class="cls-3" d="M73.79,31.71l2.44,5.07-.42.32c.66,1.22,1.23,2.6,1.91,3.81l.49-.06c.8,1.69,1.13,2.32,2.17,4.33h-.47c.24.89.87,1.48.88,2.12,0,.8-.18,1.61.26,2.15.53.64.59.82.48,1.19-.29.99.53,2.1,1.36,2,5.84-.86,11.79-.13,17.74,1.85,4.28,1.49,8.07,3.16,11.67,4.33,1.13.37,3.42.96,5.4,1.12,5.47.44,8.54-.79,7.62-3.3-.07-.2-.24-.35-.25-.45-.03-.19,0-.4.31-.68.9-1.01.4-1.75-.15-2.87,0,0,7.02-13.85,10.53-20.75l-61.96-.18ZM134.61,32.96l-5.13,9.77c-2.74-.55-3.38,2-3.43,2.35-3.56-1.01-3.01,4.09-1.23,4.43.12.74-2.93,1.66-4.53-.07,2.46.36,3.33-3.23.33-4.03,3.97-3.25-3.47-8.13-3.56-1.39-3.5-.68-3.04,4.42-.82,4.82-1.14,1.38-4.47,1.42-6.22-1.49,2.97,1.7,4.57-2.69,1.49-3.92,3.8-3.68-3.65-7.08-3.47-1.13-2.81-1.84-4.74,2.85-.99,3.56-.21.84-5.12.85-6.37-1.33,3.48.88,3.64-3.8.57-4.18,3.08-4.32-4.74-6.5-3.43-.61-3.02-1.32-4.17,2.84-1.22,4.18.16.66-4.77,1.23-6.5-1.16,3.79-.63,2.46-4.68,0-4.36,0,0,.04-.12.17-.51,1.16-4.07-5.07-4.41-4.21-.09.14.4.29.93.29.93-1.72-.39-2.77.39-2.64,2.17.43,2.36,1.56,2.19,3.01,1.72.61.7-3.49,3.04-6.06.95,3.15-1,1.55-5.07-1.08-4.52-.11-1.3-1.39-3.12-3.06-2.23l-1.77-3.84h59.85ZM139.76,87.24l-3.7.06c-2.6,2.93-21.42,22.07-18.25,50.98,1.36,12.36,4.48,23.06,12.85,35.7l2.23-1.45.34.25,23.17-14.72v-4.47s-26.89,12.46-26.89,12.46c-.53-.63-.85-1.33-1.3-2.1l10.78-5.06s.26-.72.34-1.06c3.54-9.9,10.74-17.06,17.01-22.6-.03-9.75-.07-30.15-.07-30.15l-16.21-17.82c-2.08,2.1-3.92,4.26-5.77,6.6l18.61,27.04-1.65,1.19-18.41-26.9c2.18-2.89,4.55-5.42,6.91-7.96h0ZM156.29,104.82s-.09-46.42-.21-68.84h0s-9.66,10.94-9.66,10.94l.04,47.05,9.83,10.85ZM155.47,40.4l-6.82,7.77.08,47.83-1.75-1.91v-46.54s8.52-9.86,8.52-9.86l-.02,2.71ZM89.07,39.24c.2.4.12.95-.21,1.4-1.4,1.91,2.99,5.23,6.14,4.65,2.4-.44,4.45-2.03,3.56-3.24-.72-.99-.25-1.98.61-1.98.89,0,1.6.79.83,1.85-1.71,2.38.9,5.16,4.89,5.22,2.82.04,3.76-.73,3.61-2.95-.07-1.04.11-1.33.77-1.49,1.05-.25,1.58,1.07.71,2.08-1.88,2.18.26,5.39,3.8,5.6,1.3.08,1.55,0,3-.9,1.13-.71,1.53-1.77.98-2.6-.71-1.06.25-2.34,1.36-1.81.79.37,1.19,1.05.31,2.19-1.15,1.5-.61,2.73,1.62,3.56,1.73.65,2.93.57,3.74-.25.25-.25.81-.78.8-.62-.54,1.04-1.03,2-1.03,2-3.63,1.79-6.46-1.56-6.36-1.68-3.74,2.38-7.05,1.88-9.85-2.12-.73.45-5.94,1.49-9.7-3.06-3.8,2.1-7.32,1.22-10.46-1.13-2.32,2.41-4.76,2.8-7.3,1.64l-.75-1.67c.19-.08,1.01,1.67,4.98.86,1.33-.27,3.63-2.75,2.34-3.95-.59-.92-.61-1.33-.09-1.89.51-.55,1.38-.27,1.68.28h0ZM79.34,41.43c.22.47.25,1.26,0,.79-.13-.25-.8-1.36-.77-1.4.31-.03.62.33.76.61h0ZM155.48,41.81l.04,61.72-5.81-6.36-.28-48.35,6.05-7.01ZM88.18,44.8l1.83,1.27-3.28-.02,1.45-1.25ZM98.47,45.86l1.54,1.65-3.23-.75,1.69-.9ZM127.25,46.72l-.69,1.55c-.4-.49-.51-1.53.69-1.55ZM138.86,72.38c1.17-2.89,2.73-6.57,5.25-7.74-1.88-4.12-1.64-8.25-.3-10.51-1.91-1.96-3.87-4.31-5.08-7.68-6.03,5.87-7,17.94.13,25.93ZM138.68,47.57l.41,1.13c-5.37,7.25-3.71,16.77.18,21.85l-.56,1.28c-4.75-5.53-6.83-17.22-.03-24.26ZM106.59,51.68c6.22,2.01,11.2,5.15,18.39,2.36l.03,1.55c-4.58,3.24-13.69-.18-19.85-2.69-9.9-4.03-17.61-3.8-23.11-3.34-.48-.1-.87-1.5-.09-1.51,10.29-.13,8.63-1.54,24.63,3.64ZM108,48.94l2.04,2.39c-1.53-.53-3.03-1.12-4.41-1.85l2.37-.54ZM139.17,49.53l.4.61c.17.26-1.13.4-.91.09l.51-.7ZM104.08,53.91c7.42,3.08,15.6,6.15,20.96,3.39,0,0,.03,1.17-.58,1.5,0,0-.57.51-2.46.79-8.68.79-14.32-3.18-21.32-5.53-2.66-.89-6.93-1.97-11.31-2.17-2.6-.13-6.59.28-6.59.28-.87-.08-.86-.65-.86-1.2,7.55-1.11,14.49-.28,22.16,2.92ZM139.98,50.96c.1,0,.19,0,.29.02l.76,1.07-.9,1.58s-.79-.81-1.2-1.6c-.22-.51.38-1.04,1.05-1.07ZM118.11,51.26l2.35,1.96c-1.77.1-3.76.17-5.73-.69l3.38-1.26ZM138.02,52.26c.19,0,.38.21.61.64.44.82.38.98-.47,1.28-1.12.4-1.2.31-.84-.8.25-.75.47-1.12.7-1.13ZM141.59,52.76l1.59,1.47c-.88,2.52-1.45,5.72.31,10.31-.2.01-1.34,1.26-1.7,1.47-1.01-.47-3.22-9.57-.2-13.26h0ZM139.78,54.69l-.4,2.79c-.03.23-1.76-1.32-1.6-2.09.31-.92,1.36-.72,2-.69h0ZM136.93,55.67c.21,0,.54.56.94,1.29.31.57.25.78-.45,1.47-1.02,1.14-1.22.77-1-1.17.11-.96.27-1.59.5-1.59h0ZM139.05,58.2c.14,0,.26.04.35.12l.12,2.72c.01.25-1.92-.1-2.17-1.13-.32-.66.96-1.72,1.71-1.7h0ZM136.5,60.49c.14-.02.57.3.98.56.71.47.73.67.11,1.54-.72,1.02-1.08.86-1.19-.92-.04-.65-.08-1.16.09-1.18ZM139.33,61.53c.06,0,.12.02.17.06.34.32.87,3.04.65,3.33-.31.4-1.96-.13-2.33-.77-.35-.61.92-2.62,1.52-2.62ZM137.31,64.74c.19-.01.53.13,1.05.4.31.16.83.48.94.74.2.47-.13,1.16-.57,1.73-.29.38-.55.1-1.11-1.17-.45-1.02-.63-1.67-.31-1.7ZM140.64,65.95s.07,0,.1.03c.56.34.47,1.36-.2,2.12-.8.91-1.49.22-.94-.93.35-.73.77-1.21,1.03-1.22h0ZM94.34,91.28c-.49.02-1.24.51-1.57.98-.42.59-.78.52-1.25.47-.55,0-1.39.13-2.53.7-.64.32-.94.4-1.88.45-.62.03-1.23.13-1.37.21-.14.08-.58.25-.98.38-.82.27-.53.52-.06,1.7,2.41,6.81,4.13,14.74,4.76,21.2.71,7.41.49,16.4-.45,23.26-2.3.02-3.75-.11-6.17-.07-1.65,14.84-6.14,26.63-15.11,37.23l24.25.07c2.78-8.18,15.45-14.42,15.87-13.96l.67,2.98s-9.12,1.44-15.26,14.21c.63-.42,2.92-.13,4.43,1.6,3.02-4.22,7.96-6.98,8-6.91l.17-.51s.91-.34,1.7-.51c.26-.05.78-.16,1.13-.3.54-.21.8-.43,1.64-.35,1.73.18,3.46-.37,3.43-.38-5.15-15.67-6.36-29.81-4.35-46.24,1.9.02,6.05.1,6.05.1.42-4.62.95-9.24,2.23-13.59,1.65-5.6,3.64-10.8,6.84-15.55,1.81-2.99,3.39-5.11,5.26-7.91l-23.73.06c-3.14,5.83-9.19,10.69-14.06,12.72-1.66.69-1.89.58-2.16-.27-.49-1.54-.47-1.47.83-1.88.43-.14,1.82-.94,3.97-2.06,4.58-2.57,7.73-7.27,9.59-10.44.74-1.25.24-.97-1.02-.98-1.15-.1-1.68-.49-2.72-1.56-.38-.39-.55-.67-.72-.65-1.35,2.15-3.63,4.98-5.4,5.82h0ZM99.91,86.32c1.07,1.26,2.33,2,4,2.24-2.66,4.61-5.91,8.22-9.65,10.41l-1.9-5.9c4.66-2.39,5.9-4.79,7.55-6.75ZM138.59,88.19c-25.1,25.62-23.62,57.91-6.05,84.14l-1.84,1.22c-16.51-24.42-19.5-60.54,5.73-85.47l2.16.11ZM122.77,91.32h6.15s-4.19,5.98-4.19,5.98l-5.62-.02,3.66-5.96ZM121.8,91.37l-3.42,5.96-9.23.13c-5.52,7.52-11.46,11.18-17.5,13.69l-1.18-6.42s9.56-2.55,15.76-13.44l15.57.08ZM112.42,91.86l-2.14,2.61,2.22,2.49,2.03-2.53-2.11-2.57ZM117.27,91.8l-2.17,2.49,1.69,2.5,2.25-2.43-1.77-2.56ZM106.58,92.25l-.37,3.91,2.79,1.01.41-3.34-2.83-1.58ZM123.54,92.4l-2.02,3.49,3.05.05,2.13-3.48-3.15-.07ZM91.69,93.29l1.97,6.04-1.73.92-1.76-6.31,1.52-.66ZM89.36,94.26l2.04,6.25-1.7.62-1.87-6.51,1.54-.37ZM91.79,118.94c.23,8.69.34,13.93-.98,21.57-.07.4-1.48.05-1.48.05.18.07.8-8.63.75-14.1-.09-10.41-1.69-20.7-5.39-31.01.71-.48,2.44-.72,2.44-.72,2.33,7.82,4.4,16.23,4.66,24.21h0ZM67.15,94.84c8.1,11.87,13.89,27.97,12.93,43.85-.93,18.47-7.27,29.12-18.41,41.91l-2.87.07c13.19-13.96,19.03-25.91,19.49-41.67.53-18.13-4.49-30.19-12.93-43.03l1.81-1.13ZM41.23,111.15l.03,4.32,27.61-13.07-3.98-6.47-23.65,15.22ZM105.93,96.99l-3.01.17.1,3.35,3.13-.08-.23-3.43ZM132.72,96.35l17.89,25.9-4.43,3.63-17.05-24.33,3.59-5.19ZM118.7,98.12l5.35.09-2.07,3.79-5.18-.05,1.89-3.84ZM117.71,98.22c-2.46,5.05-5.86,10.82-7.77,20.13l-17.63.02c-.03-2.13-.28-4.25-.57-6.38,7.6-3.07,13.48-7.66,17.81-13.72l8.15-.05ZM120.97,98.48l-2.3,1.46,1.4,1.78,2.53-1.07-1.64-2.17ZM99.99,100.35l-.76,3.3,2.86,1.21.53-3.92-2.63-.59ZM116.43,102.81l5.14.03-2.16,4.77-5.09-.08,2.12-4.72ZM128.66,102.19l16.93,24.22-1.59,1.39-16.54-23.68,1.2-1.93ZM118.38,103.19l-2.32,2.13,1.74,2.22,2.14-1.88s-1.56-2.47-1.56-2.47ZM95.91,103.37l-.71,3.21,2.97.87.53-3.44-2.79-.64ZM91.8,105.5l-.6,3.16,2.8.83.59-3.04-2.78-.95ZM68.69,105.19c.14-.03-.47,3.76-1.37,4.44-.43.33-.65.25-1.03-.19-.26-.31-1.42-2.4-1.42-2.4l.99-.55c1.21,2.13,1.21,1.1,1.66-.72l1.16-.58ZM64.06,107.37c.39,0,.87.54,1.41,1.58.78,1.51.75,1.61-.53,2.05-2.31.67-3.17.84-2.46-.85.76-1.81,1.07-2.78,1.57-2.79h0ZM70.93,107.07l1.58,2.98c-6.33,17.8-16.55,30.57-30.61,38.3l-.03-2.96c16.58-10.42,23.38-22.72,29.07-38.33ZM113.99,108.35l4.99.1-1.33,4.21-5.3-.04,1.65-4.27ZM62.56,108.17c-4.06,10.68-9.6,19.99-20.69,27.85l-.04-2.84c12.45-8.28,17.83-23.8,17.83-23.8l2.9-1.21ZM125.57,108.15c2.95.09,6.06,3.64,5.74,6.57-.22,2.06.14,3.59.65,2.75,1.12-1.87,4.44-.63,4.41,1.62-.02,1.19-.74,1.39-1.15.31-.61-1.59-2.33-1.63-2.59.04-.24,1.56.96,2.71,4.17,3.99,3.76.97,6.02,4.69,4.69,6.83-.46.57-.74.7-.83.41-.03-.08-.12-.53-.2-.98-.43-2.24-1.4-3.18-2.58-2.41-.59.39-.52.9-.17,1.57.46.9.17,1.25-.65.79-1.3-.72-1.73-2.43-.47-3.22,1.5-.66.99-.8-.92-1.52-4.08-1.54-5.83-4.36-6.04-9.74.08-2.45-.23-3.33-1.27-3.66-.96-.31-2.04,1.03-1.35,1.74.37.38.68.73.48.94-.63.68-2.22-.42-2.2-1.61,0-.77.28-.93,1.32-1.84.29-.25.04-.73-.38-.74-1.6.57-1.49-1.77-.63-1.85ZM116.33,108.77l-2.49,1.58,1.3,2,2.76-1.43-1.57-2.15ZM67.84,110.33c.29,0,.52.26.52.57s-.23.58-.52.58c-.29,0-.52-.26-.52-.58s.23-.57.52-.57ZM72.95,110.58c5.26,12.67,6.51,27.16,2.85,41.65l-14.21-20.4c5.45-6.77,9.11-14.53,11.36-21.24h0ZM53.73,111.51l-12.68,5.88-.07,10.49c7.08-5.34,10.09-10.8,12.75-16.37ZM65.92,111.42c1.25-.04.63,3.68-.99,4.95-.59.5-1,.44-1.19-.57-.1-.52-.6-1.63-1.23-2.52-.73-1.04-.72-1.06.35-1.13,1.18.02,2.14-.61,3.06-.73h0ZM64.68,113c-.92-.01-1.2.46-.65,1.11.46.55.83.43,1.14-.36.19-.48.02-.74-.49-.75ZM41.82,126.61l.03-8.9,10.84-5.04c-2.17,5.2-6.2,10.36-10.87,13.94h0ZM138.12,133.8l-1.44,1.6-13.99-20.14.88-2.54,14.56,21.08ZM61.43,113.43c.47,0,1.53,1.8,1.83,3.09.22.96-.01,1.16-1.66,1.43-.68.21-2.52,0-2.37-.53.27-.78,2.03-3.99,2.19-3.99h0ZM112.12,113.64l5.11.06-1.17,4.62-5.35-.09,1.41-4.6ZM114.38,113.92l-2.38,1.82,1.88,2.05,2.52-1.72-2.02-2.14ZM122.39,115.91l14.16,20.28c-4.22,5.93-8.44,12.74-11.21,21.75-5.04-13.01-6.89-25.68-2.95-42.03ZM64.89,117.64c.29,0,.52.26.52.57s-.23.58-.52.58-.52-.26-.52-.58.23-.57.52-.57ZM63.27,118.41c.88.07.05,3.18-1.28,4.31-1.05.89-1.5.48-1.74-1.16-.09-.59-.65-1.59-1.15-2.39-.55-.89-.33-1.03,1.08-.67.98.21,2.19-.05,3.09-.1ZM110.58,119.17l5.35.04-.82,7.02-4.53-7.06ZM58.41,119.49c.84.87,1.91,3.91,1.36,4.13-.64.26-3.51-.11-3.84-.48q-.22-.25.25-.95c.26-.38.75-1.14,1.1-1.69.31-.4.66-1.49,1.13-1.01ZM61.39,119.6c-.82.03-.87.15-.48,1.12.32.79.53.86,1.08.34.75-.72.44-1.5-.59-1.47ZM155.37,120.21l.19,3.46c-20.58,11.27-28.29,37.87-28.4,37.87l-1.49-3.07c9.44-25.69,22-33.13,29.7-38.27h0ZM58.39,124.3c1.23-.03,1.58-.12,1.58.38.01,1.35-1.13,3.26-2.52,3.98-.94.49-.96.5-1.07-.72-.08-.94-.36-2.15-.8-3.11-.14-.36-.67-1.18,0-.94.67.23,2.05.43,2.81.41h0ZM61.14,123.99c.29,0,.52.26.52.57s-.23.57-.52.57c-.29,0-.52-.26-.52-.57s.23-.57.52-.57ZM54.58,124.78c.22,0,.43.5.69,1.24.55,1.61.72,2.49.56,2.86-.25.58-3.63.21-4.2-.45-.11.09,2.48-3.33,2.96-3.66ZM57.01,125.18c-.48.04-.23.36.13,1.29.25.65.58.75.97.3.51-.61.58-1.09.26-1.34-.48-.21-.83-.24-1.36-.24ZM155.51,128.68l.02,1.16c-.8-.26-1.3-.64-2.21-.97-.56-.21-.89-.36-.4-1.01.78-1.02,1.61-1.66,2.55-2.29v1.31c-1.5.74-1.36,1.42.04,1.8h0ZM96.02,127.5h5.69v4.14h4.45l-.35,4.72h-4.1v4.14h-5.69v-4.14h-4.06l.33-4.72h3.73v-4.14ZM108.86,127.52c-2.88,15.75-.24,32.47,4.2,46.09l-2.24.27c-3.46-10.89-6.22-26.4-3.42-46.35,0,0,1-.02,1.45,0h0ZM151.07,127.82c.29,0,.52.26.52.57s-.23.57-.52.57c-.29,0-.52-.26-.52-.57,0-.32.23-.57.52-.57ZM51.04,129.14c.19,0,.77.27,1.28.43.77.24,1.38.34,2.08.35,1.41.03,1.6.02.99,1.3-.44.92-1.42,2.15-2.12,2.52-.98.58-1.35.5-1.29-.56,0-.72-.28-1.97-.65-2.86-.29-.69-.61-1.16-.3-1.17ZM57.02,129.65c.29,0,.52.26.52.57s-.23.58-.52.58c-.29,0-.52-.26-.52-.58s.23-.57.52-.57ZM152.69,129.57c.4,0,1.09.26,1.71.6,1.66.89,1.62,1.1-.63,2.86-1.64,1.37-2.02,1.52-2.08-.64-.06-1.82.12-2.8,1-2.82h0ZM50.19,130.09c.66.01,1.39,3.8.8,4.14-.92.53-3.78-.5-3.77-1.36,0-.28,2.68-2.78,2.97-2.78h0ZM150.71,129.94c.39-.02.45.32.41,1.53-.02.64.08,1.68.12,2.17.08,1.01,0,1.08-.72.63-.46-.29-1.4-.76-2.42-.86-.83-.08-.9-.46-.64-1.07.74-1.35,2.07-2.29,3.25-2.4ZM52.64,130.51c-.58,0-.43.33-.08,1.28.25.67.69.74,1.14.16.63-.8.51-1.23-.41-1.38-.19-.03-.52-.06-.66-.06h0ZM149.94,131.41c-.24.02-.57.23-.72.35-.54.37-.76.64.02.94.7.26,1.07.38,1.01-.29-.03-.4,0-.98-.31-1h0ZM96.57,131.9v4.13h4.53v-4.13h-4.53ZM145.9,132.26c.29,0,.52.26.52.57s-.23.57-.52.57c-.29,0-.52-.26-.52-.57,0-.32.23-.57.52-.57ZM61.16,132.91l14.28,20.23-.95,2.64-14.71-21.36,1.38-1.51ZM155.6,132.81l.03,2.64c-1.61,1.3-11.86,9.5-17.16,23.29l-2.77,1.3c3.91-11.87,12.26-22.04,19.9-27.24h0ZM46.97,133.93c.93.31,1.82,1.03,2.69,1.15,1.01.14,1.36.06,1.08.64-.61,1.29-1.77,2.64-2.98,3.08-.87.32-1.28.2-1.15-.4.26-1.12.3-2.04.27-3.05.14-.56-.29-1.33.09-1.42h0ZM45.88,134.17c.59.56.48,4.09-.19,4.86-.35.4-1.35.03-2.85-.91-.98-.62-1.17-.99-.68-1.37.83-.56,3.27-2.71,3.72-2.58h0ZM147.9,134.24c.31,0,.69.05,1.15.17,1.78.44,2.18.89.66,2.22-.56.49-1.16,1.1-1.33,1.34-.82,1.1-1.38.3-1.56-1.7-.13-1.4.07-2.2,1.08-2.02h0ZM145.67,134.43c.29,0,.47.17.47.56,0,.51.32,2.7.51,3.31.32,1.03.09,1.26-.68.81-.56-.33-2.05-.59-2.85-.52-.92.08-.89-.19-.62-1.04.47-1.5,2.31-3.12,3.18-3.12h0ZM47.84,135.16c-.35,0-.36.52-.12,1.7.08.38.37.35.92-.08.66-.51.63-.83-.11-1.32-.3-.2-.53-.31-.69-.31h0ZM51.88,135.29c.29,0,.52.26.52.57s-.23.57-.52.57c-.29,0-.52-.26-.52-.57s.23-.57.52-.57ZM143.98,137.51c.25.27,1.17.26,1.32.1.24-.25.13-1.39-.07-1.53-.52-.19-1.56,1.01-1.25,1.44ZM58.27,139.7c.31,1.63,2.39,1.54,2.16-.16-.14-1-.17-.97.28-.95,2.15.12,1.78,3.86-.7,3.57-.52.07-.59.3-.15.5.43.2,2.1.67,2.36.67,2.7-.01,6.59,4.57,6.49,8.63-.06,2.66.75,4.57,1.59,4.78.66.17,1.63-.49,1.54-1.31-.11-1.12.71-.77,1.19.03.73,1.11-.21,2.72-1.94,2.59-.74.16.54.67,1.49.98.86.05.13,1.22-.03,1.43-.48.62-2.07.15-3.32-.96-1.53-1.36-2.19-3.19-2.37-6.78-.12-2.31-.27-2.78-.88-1.82-1.09,2.12-3.71,1.08-4.04-1.16-.18-1.19.76-2.04,1.07-.97.81,2.24,2.8,1.7,2.47-.52-.21-1.46-1.54-2.27-4.16-3.09-3.15-.98-4.09-2.17-4.71-5.03-.27-1.26-.23-1.93.38-2.59.3-.33.68-.66.68-.66,0,0,.42,1.92.6,2.81h0ZM140.77,137.88c.29,0,.52.26.52.57s-.23.57-.52.57-.52-.26-.52-.57.23-.57.52-.57ZM41.78,138.43c.94.38,1.75.93,2.71,1.3.63.24.46.79-.19,1.58-.73.95-1.44,1.41-2.44,1.94v-1.6c1.23-.47,2.01-1.6-.04-1.96l-.03-1.26ZM143.21,139.32c.36,0,.86.02,1.45.15,1.5.34,1.67.49.77,1.65-.33.43-.83,1.08-1.1,1.44-.88,1.36-1.36.89-1.77-.86-.51-1.84-.63-2.54.65-2.38ZM46.47,139.97c.29,0,.52.26.52.57s-.23.57-.52.57c-.29,0-.52-.26-.52-.57s.23-.57.52-.57ZM141.7,141.22c.14.58.36,1.32.52,1.84.81,1.98.3,1.21-1.16,1.04-.98-.12-2.54.06-2.92-.24-.17-.24-.01-.88.3-1.59.44-1.01,1.24-1.87,1.84-2.26,1.52-.77,1.16.21,1.41,1.2h0ZM54.27,140.52l16.31,23.81-1.28,2.01-16.78-24.48,1.75-1.34ZM156.5,140.6c-8.48,6.76-11.74,14.97-12.4,16.05l12.43-5.29-.03-10.75ZM140.31,141.38c-.46.14-1.13,1.09-.85,1.47.17.19.86.22,1.18.09.5-.2.16-1.56-.34-1.55h0ZM68.83,167.13l-3.47,4.83-18.1-25.85,4.57-3.64,17.01,24.66ZM155.59,142l.13,8.88-10.63,4.89c3.56-6.64,7.05-10.74,10.5-13.78ZM82.89,142.76l4.26,6.12-5.2-.13.95-5.99ZM136.74,143.26c.29,0,.52.26.52.57s-.23.57-.52.57c-.29,0-.52-.26-.52-.57s.23-.57.52-.57ZM139.86,144.7c1.95.03,2.6.15,2.03,1.2-.76,1.03-1.2,2.01-2.03,2.97-.48.53-1.07-.57-1.57-2.33-.4-1.42-.2-1.78.56-1.8.76-.01.89-.04,1-.04ZM137.61,146.63c.16.56.53,1.49.83,2.05s.63,1.19.61,1.3c-.05.26-.28.29-.79.07-1.11-.55-3.72.03-3.79-.24-.39-.61.19-2.27,1.29-3.42.54-.56,1.03-.93,1.31-.93.28,0,.33.43.54,1.17h0ZM46.62,146.19l18.42,26.41-1.27,1.71-18.63-26.92s-2.94,1.59-3.81,2.12l.12,13.66-.5-.03.08,69.18,10.28-11.31-.13-46.94c2.18,2.26,4.05,4.68,6.54,6.9l4.27-.04c11.16-12.53,17.27-23.25,18.61-42.45.9-12.85-2.97-29-13.22-44.65l-2.5,1.68,4.95,8.23-10.48,5.13c-4.17,9.71-9.12,18.68-18.17,23.81l-.05,12.57-.16.26.12,3.95,5.55-3.27ZM136.69,147.1c-.49.04-1.25,1.21-.9,1.6.41.22,1.05.2,1.32-.19.18-.38.14-1.19-.41-1.41ZM81.74,149.82l5.41.03-1.41,5.12-5.27-.11,1.27-5.05ZM133.13,149.79c.29,0,.52.26.52.57s-.23.57-.52.57c-.29,0-.52-.26-.52-.57s.23-.57.52-.57ZM105.56,149.95l.7,6.65c-5.9,2.37-12.26,6.39-17.83,13.77-.95-.07-8.54.07-8.54.07.19.03,7.03-14.22,7.82-20.4l17.85-.1ZM84.14,150.57l-2.48,1.88,1.94,2.28,2.57-1.92-2.03-2.24ZM135.77,150.6c.53,0,1.23.07,1.8.18.91.2,1.05.21.74,1.05-.41,1.11-1.34,3.1-1.57,3.26-.84.57-2.7-3.54-2.07-4.25.17-.15.52-.23,1.1-.23h0ZM133.4,151.86c.24-.02.56.49.65.93.11.54.96,1.9,1.49,2.55.67.82.63.93-.32,1.02-1.14.1-2.26.35-2.9.61-1,.4-1.13.31-1-.97.19-1.94,1.36-4.06,2.08-4.13h0ZM132.52,155.86c.12.37,1.67-.31,1.76-.76-.01-.2-.62-1.37-.99-1.42-.62.11-.88,1.65-.77,2.19h0ZM80.32,155.6l5.11.05-1.68,4.65-5.05-.02,1.62-4.69ZM82.61,156.22l-2.45,1.71,1.91,2.04,2.35-1.79-1.8-1.96ZM134.61,157.07c.43,0,.89.04.99.22.27.49-.83,3.25-.83,3.25l-1.8.79c-.39-.88-1.05-1.8-1.21-2.75-.06-.42.13-.57.54-.83.62-.39,1.59-.67,2.31-.68h0ZM129.78,157.29c.29,0,.52.26.52.57s-.23.57-.52.57c-.29,0-.52-.26-.52-.57s.23-.57.52-.57ZM106.46,157.37s1.11,6.89,1.16,6.13c-8.53,3.55-13.52,8.78-15.88,13.88h-16s3.57-6.13,3.57-6.13l9.47-.05c4.58-6.13,10.23-11.02,17.67-13.83h0ZM104.41,159l-.79,2.78,2.39,1.68.9-2.99-2.5-1.48ZM130.62,159.05c.2-.02.4.36.81,1.16.3.6.7,1.46.7,1.46l-.72.29c-.58-2.18-1.11-1.37-1.17.55l-.98.43s.11-1.85.67-2.93c.32-.62.5-.95.68-.97h0ZM78.47,160.95l4.96.07-2.07,4.74-5.04-.15,2.16-4.66ZM100.1,161.33l-.39,3.52,2.67.62.37-3.34-2.64-.8ZM80.58,161.38l-2.45,1.75,1.61,2.33,2.36-1.75-1.51-2.33ZM96.27,164.46l-.51,3.24,2.5.63.57-3.26-2.57-.61ZM41.83,164.65l6.27,6.86.35,47.86-6.23,6.9-.38-61.62ZM75.94,166.4s5,.16,5,.16l-2.01,4.01-1.72-.08,2.26-1.7-1.45-2.05-2.32,1.67,1.29,2.07-3.39-.08,2.34-3.99ZM108.27,167.58l1.7,6.21-2.05.39-1.54-5.84c.63-.36,1.25-.54,1.88-.76h0ZM92.19,167.97l.03,3.72,2.73.26.11-3.49-2.87-.49ZM105.78,168.57l1.56,5.9-1.3.41-1.86-5.6c.51-.33,1.04-.58,1.6-.71ZM103.4,169.78l2,5.78c-2.76,1.24-5.63,3.89-7.79,6.53-1.6-1.3-2.54-1.43-3.53-1.73,2.72-5.6,5.94-8.54,9.32-10.58h0ZM73.2,171.23l5.26.18-3.66,6.03h-5.95s4.35-6.2,4.35-6.2ZM88.85,171.46l-.34,3.53,2.82,1.84.43-3.62-2.9-1.74ZM85.46,171.95l-2,2.33,2.13,2.68,1.95-2.8-2.07-2.22ZM80.98,172.07l-2.38,2.41,1.89,2.72,2.17-2.74-1.69-2.39ZM50.7,174.32l.23,46.75-8.73,9.34-.07-2.51,6.94-8c0-15.81-.04-31.63-.09-47.44l1.71,1.86ZM73.94,172.81l-2.41,3.63h2.86s2.07-3.51,2.07-3.51l-2.52-.12ZM59.06,195.43c-.95,3.78-5.34,7.87-5.41,7.81,2.17,3.43,2.1,8.33.18,10.74,0-.05,3.49,3.13,3.98,4.79.28.66.39,1.46.73,2.12.09.17.39.6.39.6,8.5-9.52,4.45-20.67.13-26.06ZM59.19,196.42c8.26,11.31,2.81,21.65-.07,24.54l-.55-1c6.13-7.87,3.53-17.54-.04-22.11l.66-1.42ZM58.3,198.62c.06.18.38.72.14.68l-.41-.09.28-.59ZM58.23,199.88c.18,0,.33.06.41.2.17.31-.68,2.91-1.21,2.3-.16-.34-.35-.64-.49-1-.17-.42-.06-.63.33-1.05.27-.29.66-.45.96-.45h0ZM59.42,200.59c.42.04,1.01,1.49,1.07,2.52.03.11-1.41-.24-1.79-.73.05-.42.41-1.5.72-1.79ZM56.19,201.77c2.49,5.52,2.33,9.83.14,13.79l-1.71-1.62c1.15-3.01,1.72-6.23-.22-10.32l1.79-1.85ZM57.87,203.15c.17-.02.7.07,1.17.24,1.66.59,1.73,1.79.12,2.67-.66.37-.87.2-1.25-1.63-.19-.91-.33-1.24-.05-1.27h0ZM61.08,205.26c.32,0,.47.67.51,1.82.04,1.1-.17,1.18-.97.4-.86-.84-1.01-1.05-.22-1.74.23-.2.54-.48.69-.48h0ZM58.81,207.07c.16-.02.62.31,1.07.69,1.14.96.89,1.61-.41,2.08-.9.32-.85.36-.83-1.35.01-.85-.03-1.39.17-1.41ZM73.87,208.63c-1.39.39-1.97,1.76-1.51,2.99.21.56.53.56.15.91-.42.53-.64,1.76-.18,2.21.54.34.68-.25.11.91l-10.46,21.2,62.77-.13-7.54-15.6s.6-2.57-.6-2.88c-.39-.1-.61-.5-.69-.88.1-1.09-.35-1.55-.72-2.11-5.97.93-11.15.47-15.43-.6-6.17-1.53-10.58-4.18-13.44-5.02-3.95-1.15-8.72-1.65-12.45-1.01h0ZM77.25,208.77c4.86-.03,10.31,1.61,14.12,3.43,3.95,1.8,8.14,3.15,12.37,3.84,3.49.48,6.98.24,10.32-.05.37-.06.74,0,1.02.31.69.85.22,1.38-1.51,1.56-2.78.25-6.23.14-9.29-.36-4.84-.61-9.98-2.23-14.41-4.26-5.54-2.29-10.62-3.06-14.64-2.38-2.21.37-2.53.43-2.52-.22.02-1.28.97-1.86,4.55-1.86h0ZM61.31,212.48c-.21.54-1.73-1.23-1.71-1.73.03-.22,1.26-1.1,1.74-1.46.23-.2.22-.1.22.14,0,.67-.04,2.39-.25,3.05ZM58.99,211.17c.7.1,1.85,2.18.83,2.51-.89.29-1.71.47-1.82-.19.46-1.63.63-2.27.9-2.31.03,0,.06,0,.08,0h0ZM99.58,218.27c4.46.85,10.3,1.36,14.13,1.03,2.19-.24,2.65-.17,2.64.84,0,.63.05.62-2.77.61-2.35.17-4.47-.11-6.74-.24-4.71-.26-8.99-1.15-12.94-2.66-4.39-1.26-8.18-3.67-12.48-4.17-3.94-.43-7.48.34-8.22.8-.25,0-.38-.41-.36-.78.01-.37.14-.66.41-.89,11.28-3.14,17.32,3.59,26.33,5.46h0ZM60.46,214.11c.38,0,.26.62-.36,1.92-.52,1.11-.73,1.1-1.02-.03-.32-1.21-.29-1.35.34-1.52.37-.1.68-.31,1.04-.36h0ZM57.83,214.73c.44,0,1.07,2.21.75,2.62-.25.33-1.17.11-1.44-.28-.43-.62.12-2.35.69-2.34ZM77.55,215.33c1.75-.02,3.49.19,5.1.49-.92.38-1.84.72-2.8,1.34-.66-.63-1.41-1.24-2.3-1.83ZM79.82,218c6.18-3.81,8.79,1.45,9.69,2.3,5.41-1.32,6.46-.67,9.48,2.93,5.41-2.92,8.04-.44,10.3,1.13,2.65-2.73,6.01-2.81,7.76-1.44.33.6.78,1.37.82,1.6.03.18-.22-.03-.83-.51-3.18-2.51-8.46.62-7.05,3.93.38.89.32,1.28-.25,1.63-.81.6-1.8-.4-1.24-1.42.94-1.7.23-3.13-2.05-4.44-3.22-1.86-8.47.22-7.39,2.96.69.87.05,1.49-.86,1.46-1.03-.04-1.38-.8-.72-1.61.83-1.04.61-2.1-.35-3.3-2.89-4.54-8.73-2.74-7.96,1.24.34.99-.63,1.39-1.63.95-.64-.28-.54-1.37.16-1.75.8-.09.92-1.37.82-2.2-.14-1.2-1.74-2.38-3.33-3.01-1.15-.45-2.21-.55-3.05-.47-1.78.18-2.77,1.51-2.47,3.5.17,1.18-.13,2.4-1.38,1.75-.68-.35-.51-1.21.19-2,2.46-2.65-2.49-5.87-5.48-3.65-.51.46-.88.54-.88.54,1.87-5.15,7.74-.33,7.69-.12h0ZM87.97,217.31l3.73,1.55c-.86.19-1.47.46-2.08.72l-1.66-2.27ZM78.21,218.98c-3.45-.72-3.63,3.53-1.39,4.22-3.09,4.69,5,6.5,3.52.72,4.1.82,3.36-4.33.31-4.29.71-1.92,6.34-.46,6.1.96-3.8.45-2.28,4.27-.64,4.28-3.98,4.16,3.98,7.99,3.77,1.72,3.19.74,3.57-3.94.5-4.25,1.12-1.75,5.14-.65,6.25,1.35-3.17.46-2.97,3.54-.49,4.03-3.14,4.42,4.59,6.05,3.79.91,2.77,1.05,4.29-3.03.7-4.2,3.68-2.42,7.67,1.19,7.24,1.26-4.2-.27-3.36,4.37-.32,4.12-1.93,4.82,5.73,5.09,3.78.09,3.45.07,3.14-4.34-.16-4.63,2.08-1.67,4.42-1.82,5.93-.25-3.14.91-1.84,4.94,1.32,3.83.29,3.37,2.78,2.66,2.83,2.56l2.22,4.58-60.23.11,5.14-10.47c3.04.17,2.93-3.06,2.8-3.14,2.02,1.59,4.19-2.37,1.24-3.5,2.41-2.79,6-.21,5.78-.01h0ZM58.61,218.69c-.13.14-.16.23-.37.02-.53-.66.9-.72.37-.02ZM71.06,220.44c.27.24.08.9-.13,1.12-.54.64-.73.59-.25-.52.14-.34.27-.61.38-.6h0ZM97.45,220.74l3.13.84-1.49.93c-.55-.66-1.08-1.23-1.64-1.76ZM107.23,222.13l3.41.24c-.45.34-.89.65-1.44,1.27-.43-.5-1.24-1.01-1.96-1.51ZM118.58,225.97c.19.44.94,1.95.87,1.99-1.1.21-1.4-1.6-.87-1.99Z"/>
      </g>
      <g id="Center_Symbols_K" data-name="Center Symbols K">
        <use width="23.64" height="32.54" transform="translate(50.59 40.39)" xlink:href="#Diamond"/>
        <use width="23.64" height="32.54" transform="translate(146.69 228.89) rotate(-180)" xlink:href="#Diamond"/>
      </g>
      <g id="Corner_Symbols_K" data-name="Corner Symbols K">
        <use width="23.64" height="32.54" transform="translate(21.28 46.74) scale(.5)" xlink:href="#Diamond"/>
        <use width="23.64" height="32.54" transform="translate(176 222.54) rotate(-180) scale(.5)" xlink:href="#Diamond"/>
      </g>
    </g>
    <g id="Diamond_Corner_Characters" data-name="Diamond Corner Characters">
      <g>
        <use width="18.68" height="33.12" transform="translate(179.42 254.75) rotate(-180)" xlink:href="#Red_K"/>
        <use width="18.68" height="33.12" transform="translate(17.86 14.53)" xlink:href="#Red_K"/>
      </g>
    </g>
  </g>
  <g id="Clubs">
    <g id="Club_Corner_Characters" data-name="Club Corner Characters">
      <use width="181" height="253" transform="translate(8.14 8.14)" xlink:href="#boundary"/>
    </g>
  </g>
</svg>