<?xml version="1.0" encoding="UTF-8"?>
<svg xmlns="http://www.w3.org/2000/svg" xmlns:xlink="http://www.w3.org/1999/xlink" viewBox="0 0 197.28 269.28">
  <defs>
    <style>
      .cls-1 {
        fill: #262964;
      }

      .cls-1, .cls-2, .cls-3, .cls-4 {
        stroke-width: 0px;
      }

      .cls-2, .cls-5 {
        fill: #d2232a;
      }

      .cls-3 {
        fill: #000;
      }

      .cls-6 {
        fill: none;
        stroke: #000;
        stroke-miterlimit: 10;
      }

      .cls-5 {
        font-family: ArialMT, Arial;
        font-size: 28px;
      }

      .cls-4 {
        fill: #e1cf20;
      }
    </style>
    <symbol id="Diamond" viewBox="0 0 23.64 32.54">
      <path id="path6413-1" class="cls-2" d="M11.82,32.54c-3.51-5.81-7.2-11.45-11.82-16.27C4.62,11.45,8.31,5.81,11.82,0c3.51,5.81,7.2,11.45,11.82,16.27-4.62,4.82-8.31,10.46-11.82,16.27Z"/>
    </symbol>
    <symbol id="Red_J" data-name="Red J" viewBox="0 0 14 33.12">
      <text class="cls-5" transform="translate(0 24.03)"><tspan x="0" y="0">J</tspan></text>
    </symbol>
    <symbol id="boundary" viewBox="0 0 181 253">
      <rect class="cls-6" x=".5" y=".5" width="180" height="252" rx="15" ry="15"/>
    </symbol>
  </defs>
  <g id="Diamonds">
    <g id="Diamond_Symbols" data-name="Diamond Symbols">
      <g id="Jack_Face" data-name="Jack Face">
        <path id="path6263-5" class="cls-1" d="M40.14,238.14V31.14h117v207H40.14ZM82.26,65.56c-4.18-1.25-4.08,3.31-1.02,3.48,3.43.32,4.9-6.1,3.26-8.63,0,0-1.43,4.84-2.24,5.15ZM55.11,91.37l-5.02,2.46-.02,4.12c2.1-1.83,3.73-4.06,5.04-6.58h0ZM89.41,215.16c-.99-.55-2.18-1.73-2-1.93.09-.1.63.08,1.11.32,3.93,1.82,6.97,1.7,11.66-.17.35-.14.88.6.69,1.01-2.07,3.37-8.78,2.17-11.46.77h0ZM87.34,210.1c-.9-1.49.29-.36.7.06,2.9,2.97,6.84,3.97,10.22,1.18.16-.19.18-.37.13-.5-.1-.27-.1.02-1.54.57-3.24,1.33-5.98.24-8.64-2-1.1-.93-1.61-1.39-1.61-1.63,0-.22.21-.36.57-.29.23.04.87.19,1.33.23.81.07.75.03,1.58-.39,1.78-.9,3.41-1.23,5.27-.86.43.08.97.24,1.04.21.42-.15-.2-.75-1.77-2.12-.31-.27-.7-.5-.82-.73-.2-.36.02-.46.24-.46.65,0,3.55,2.68,4.55,4.26.3.48.51.53.51,1.03-.06.52-.13,1.02.38,1.75.37.52.72,1.36.73,1.4,0,.05-.07.31-.41.07-.15-.03-.23-.21-.51-.17-.24.04-.64.25-1.08.48-4.07,2.88-7.83,1.47-10.88-2.08h0ZM96.26,209.9c.08,0-.28-1.65-.69-2.13-.81-.96-2.04-1.14-2.79-.15-.42.55-.88,2.1-.88,2.1,0,0,.65.21.84.21.03-.35.03-1.31.68-1.88.32-.28,1.01-.27,1.27-.04.53.29.76,1.45.76,1.9.29.1.96,0,.81,0h0ZM91.34,207.52c-.57.28-1.32.47-1.49.89-.23.56.57.73.99.91.57.3.59.19.77-.29.12-.3.27-.7.41-1.06.43-.91,0-.78-.68-.45h0ZM97.55,209.1c.33-.36.39-.6.1-1.02-.13-.19-.51-.38-.93-.53-.53-.2-.76-.44-.43.36l.48,1.13c.25.54.46.4.78.06h0ZM43.2,170.46c.2,0,2.21-.72,2.92-1.07.71-.3.79-.29.51-.72-.11-.16-.19-.62-.14-1.11l.05-.69c-1.24-.28-3.08.48-3.72,1.42-.45.61-.41,1.96.37,2.17h0ZM42.95,173.85c.38.41.48.43,1.61-.03.39-.29,1.22-.65,1.8-.69,1.36-.4,1.36-.24.97-1.19-.18-.44-.23-.8-.18-1.21.07-.48.12-.55-.13-.63-.65-.22-3.67,1.02-4.21,1.98-.38.68-.33,1.26.14,1.78h0ZM113.2,206.56c.06.76.07,1.95.07,2.58-.03,1.24.42,1.53.91.85.48-1.62.67-4.18,1.8-5.47.84-.27,1.88.2,2.48-.44,1.38-1.47.3-3.14-.97-3.26-2.59-.05-4.48,3.41-4.29,5.73h0ZM119.52,202.58c.09,1.57-1.34,2.64-2.79,2.28-.59-.16-.76-.01-1.16.91-.86,2.53-1.19,5.06-1.42,6.72-.1,1.49-.6,5.38-.24,6.61,4.13,5.61,8.48,11.45,13.25,17.23h28.42v-36.65l-8.14-8.55.02-13.55c-8.81,4.56-17.59,9.18-26.38,13.78,1.92,6.75-4.58,8.16-6,3.64-1.23,1.24-2.24,7.94-1.79,8.27,0,0,.16.24.44-.29.45-.88,1.04-1.52,1.67-1.95,1.83-1.25,4.01-.63,4.14,1.55ZM96.97,201.9c-1.39-1.21-.65-3.07.51-3.62.61-.29,1.59-.25,2.68.17.95.48,1.52.41,2.49.28.65-.08.53,1.41-.15,1.79-.48.27-1.57.14-2.89-.69-2.29-1.43-3.29.42-1.88,2.1.79.92-.56.18-.76-.03h0ZM49.88,179.71c1.22-.86.72-2.39-.42-2.64-1.53.04-1.92,1.97-.83,2.64,0,.23-.55.04-.84-.2-.46-.38-.04-1.85-.47-1.91-.32,0-3.49,1.24-3.83,1.48-1.42.89-.09,2.89.74,2.66,1.72-.48,4.05-.9,5.65-2.03h0ZM42.79,176.85c.03.89.26,1.29.79,1.3,1.11-.21,2.15-.8,3.19-1.17.81-.29,1.14-.62.52-1.18-.19-.24-.35-.57-.26-1.22.21-.74.05-.77-.23-.81-.28-.04-.93.26-2.59.96-.87.37-1.04.53-1.27,1.06-.1.4-.16.65-.15,1.06h0ZM52.03,188.36c.19-.25.62-1.8.62-2.19-.09-.64-.52-.79-.9-.37-.47.46-.34,1.15-.62,1.68-.1.18-.2.44-.17.54.15.56.78.66,1.07.33h0ZM55.67,179.9c14.2-16.61,23-39.59,7.61-71.3-.94-1.02-2.26,2.27-2.42,2.4l-1.97,1.88c10.42,19.73,8.61,42.42-4.13,58.56v1.02c.04,2.25.63,2.16,1.5,1.1.91-1.06.3-.2-.07.24-.32.37-.83,1.12-.97,1.32.17,1.35.94,3.87.45,4.77h0ZM54.72,174.91c-.15-.45-.3-1.47-.38-2.26-.05-.51-.07-1-.09-1.5-.15-1-.52-3.29-.82-3.79-.32-.54-1.12-.94-2-1-.76-.05-.82-.04-.98.23-.28.46-.09,2.81.19,3.67.32,1.01.13,1.56-.13,2.56-.09.36-.12.39.04.41.71-.05.94-1.01,1.22-.72.09.1-.15.89-.48,1.68-.35.83-.45,1.99-.04,3.4.23.79.13,1.04,0,1.52-.09.32-.26,1.3-.26,2.27.33,1.22.16,1.77-.03,2.17-.42,1.04-.75,2.44-.52,3.23.1.35.36.05.55-.54.3-1.17.65-1.43,1.52-1.43.64,0,.7.25.91-.07.48-.71,1.65-3.23,1.67-3.93.45-1.79.47-3.33-.36-5.89h0ZM61.51,186.66c.39-.16.98-1.06.98-1.37,0-.34-2.38-2.88-3.37-3.59-.45-.32-.66-.09-1.46,1.08-.71,1.04-.8,1.05-.67,1.25.16.24,2.58,1.97,3.39,2.47.28.17.75.31,1.13.15h0ZM65.98,182.14c-.36-.3-3.2-3.77-4.05-3.94-.32-.07-1.35,1.22-1.35,1.52,0,.2,1.78,2.19,3.04,3.4.36.35.76.63.88.63.4-.23,1.43-1.14,1.48-1.6ZM69,178.86c0-.21-.31-.63-1.08-1.46-1.95-2.11-3.04-3.07-3.39-3.07-.37.14-1.05,1.39-1.09,1.82.13.26,3.4,3.52,3.82,3.83.52.55,1.67-.74,1.74-1.13h0ZM72.07,175.5c.08-.31-.08-.57-.49-1.01-.29-.31-1.34-1.43-2.32-2.49q-2.06-2.22-2.72-1.19c-.68,1.07-.68,1.08,1.33,3.23,2.14,2.29,2.64,2.75,2.97,2.75.51-.26,1.06-.69,1.23-1.29ZM49.16,173.49c-.36-.12-.69-.05-.97.2-1.51,1.41.63,3.23,1.52,2.1.59-.64.56-2.01-.55-2.3h0ZM75.21,172.01c0-.24-.44-.77-1.97-2.37-3.78-3.96-3.61-3.81-4.03-3.57-.26.15-.77,1.22-.77,1.61,0,.3.36.71,3.16,3.58,1.64,1.68,2.13,2.11,2.41,2.11.45-.24,1.17-.77,1.19-1.37h0ZM49.25,172.16c.74-.35.88-1.24.46-1.93-.81-.78-1.93-.14-1.95.87.14.94.87,1.34,1.49,1.06h0ZM78.32,168.69c0-.47-6.47-7.12-6.93-7.12-.31,0-.54.28-.83,1.03-.25.65-.23,1.04.09,1.38.47.49,1.72,1.76,2.9,2.94.7.7,1.51,1.53,1.79,1.85.67.75,1.4,1.33,1.68,1.33.4-.26.96-.6,1.3-1.41h0ZM48.92,167.83c0-.27-.06-.54-.23-.74-.44-.52-1.27-.25-1.48.44-.19,1.62,1.65,1.69,1.71.3ZM53.71,116.09l1.27-4.25,3.87-.11.54-4.23,3.98-.63.06-4.37,3.81-.57-.24-4.67,3.53-.92-.18-4.33,3.21-1.08-.13-3.77.55-.47-1.39-1.55-1.19.43-.02,3.87-3.2,1.13.34,4.28-3.24.81-.04,4.66-3.72.46-.27,4.11-3.63.79-.54,4.03-3.52.26-1.07,3.54-2.33.03v2.37l3.55.18ZM95.78,192.14c-.12-.32.2-.27.75.11.58.4,1.42.74,2.02.74.25,0,1.14-.17,1.98-.39,1-.4,1.9-.43,2.94-.18.78.11,1.56.21,1.74.21.52.08,1.4-.62,1.63-1.07.64-1.2.49.98.49,1.23.01,1.12.14,2.4-.59,1.8-.43-.24-1.18-.46-1.78-.02-.6.44-1.1.54-1.81.07-.58-.25-.89-.3-1.32.14-.48.49-1.66.32-2.29.09-1.08-.2-1.69-.37-2.41.26-.39.24-.49.06-.78-.88-.29-.94-.52-1.99-.57-2.11h0ZM98.54,191.35c-.07-.12.51-.75.9-.97,1.15-.65,3.44-.62,5.07.04.85.35.98.94.15.81-1.72-.4-3.89-.72-5.56.15-.13.08-.54.03-.57-.03h0ZM100,188.39c-1.18-.48-1.76-.99-1.76-1.16,0-.18.25-.14,1.18.13,1.26.52,2.76.79,4,.31.9-.36,1.34-.59,1.34-.38,0,.23-.37.83-.99,1.18-1.23.55-2.84.29-3.78-.09h0ZM125.6,184.79l.88-.13-.3-4.01,3.22-1.05-.23-3.99,3.44-1.3-.2-4.49,3.57-.77.47-3.93,3.37-.26.7-4.28,3.62-.14.75-3.55,2.41-.02v-2s-3.76.01-3.76.01l-.79,3.85-3.54.11-.75,4.23-3.71-.03-.48,4.56-3.49.63v4.91l-3.37.96.26,4.19-3.37,1.35.38,4,.94,1.16ZM148.12,90.64c-.48.38-.66,1.12-.51,1.73.47,1.38,2.14.95,2.34-.05.1-.43-.16-1.09-.62-1.23-.08-.02-.36,0-.51-.16-.11-.12.56-.49.95-.35.49.18.89.89.89,1.5,0,.24-.06.59.02.71.81-.02,1.73-.51,2.6-.77,1.46-.45,1.99-1.37,1.67-2.45-.27-.9-1.11-1.26-2.21-.8-1.51.63-3.29.92-4.61,1.88h0ZM85.64,189.15c4.96-3.82,7.87-6.01,14.23-6.39-2.27-1.03-2.64-2.37-3.28-3.66-7.88.82-12.06,3.58-15.81,6.16,1.55.8,3.16,1.73,4.85,3.89h0ZM113.26,183.85c-2.4-1.87-5.26-2.99-8.23-3.86l-2.27,2.59c-.13-.09,6.58.07,10.5,1.28h0ZM136.33,159.3c-15.5-26.16-5.09-49.18,5.69-63.85.35-.48.43-.51.35-.89-.1-.5-.23-3.05-.15-4.52-19.92,21.69-20.43,49.94-7.94,72.36.89-.88,2.69-2.04,2.05-3.11h0ZM138.66,157.06c-2.54-4.65-16.1-29.85,4.6-57.97,0,0-.07-1.43-.23-1.97-.28-.97-.71-1.35-.71-1.35-8.69,14.33-21.33,32.27-5.55,63.42l1.88-2.13ZM126.81,109.64c.31-.28.76-1.29.76-1.7,0-.37-.24-.68-2.58-3.28-3.11-3.47-3.65-4-4.05-4-.38,0-1.36,1.02-1.36,1.42,0,.19.92,1.27,3.08,3.64,4.01,4.4,3.82,4.22,4.15,3.93h0ZM129.67,103.25c0-.21-.29-.62-.97-1.39-1.8-2.03-4.37-4.61-4.59-4.61-.29,0-1.07.7-1.28,1.14-.15.31-.14.38.03.67.32.54,4.33,4.73,5.47,5.78.69.69,1.31-1.06,1.34-1.58h0ZM131.22,100.65c.32-.19.92-1.43.85-1.74-.03-.15-1.05-1.35-2.26-2.68-2.4-2.62-2.53-2.71-3.13-2.13-.54.53-.88,1.06-.81,1.28.08.26,3.67,4.26,4.4,4.91.58.51.65.54.96.35ZM149.5,100.46c1.13-1.19-.15-2.49-1.08-1.89-.39.27-.63.85-.51,1.24.2.64,1,1,1.59.65ZM151.73,100.15c1.91-.55,2.82-.92,3.22-1.57.28-.45.31-.73,0-1.47-.29-.68-.62-.89-1.81-.17-.82.49-2.64.73-3.28,1.14-.26.24-.13.24.07.38.46.32.68.54.63.96-.11.92-.02,1.06,1.18.71h0ZM149.71,96.87c.93-.52.74-1.77-.29-2.27-1.36-.39-2.24,1.41-1.13,2.29.3.23,1.06.19,1.42-.01ZM152.79,96.37c1.34-.5,1.85-.9,2.24-1.71.31-.64.18-.93.13-1.55-.06-.94-.49-.84-1.74-.34-.61.26-3.52,1.16-3.56,1.49,1.41.88,1.05,1.35,1.06,2.47.07.26.73.07,1.87-.36h0ZM134.55,94.86c0-.43-3.74-4.45-4.13-4.45-.62,0-1.5,1.05-1.37,1.63.06.26,3.57,4.14,4,4.42.61.39,1.46-.97,1.5-1.61ZM136.7,92.36c.16-.14.45-.5.64-.8.4-.64.37-1-.11-1.34-.18-.12-.96-.9-1.74-1.73-.78-.83-1.52-1.55-1.65-1.6-.64-.09-1.81,1.04-1.69,1.62.07.3,2.93,3.4,3.57,3.87.41.3.61.3.97-.02ZM141.76,86.37c0-.11-.65-.57-1.69-1.2-3.18-1.9-3.24-1.91-4.23-1.02-.34.31-.62.65-.62.77s.69.93,1.57,1.85c1.83,1.9,2.27,2.31,2.53,2.31.53-.42,2.36-2.18,2.45-2.71ZM146.22,84.58c.39-.52.83-2.31.62-2.67-.19-.21-.69-.18-.93.06-.25.24-.85,2.49-.76,2.76.1.27.72.14,1.06-.15h0ZM111.45,160.83c.3-.04.89-.45,1.75-1.26.92-.86,3.82-2.79,4.14-3.56.14-.44.04-1.07-.26-1.12-.23-.04-.28.16-2.21,1.69-1.3,1.03-3.59,2.87-3.94,3.27-.15.42.19.95.52.99ZM111.18,173.15c1.99-1.52,3.6-3.08,6.19-4.84.2-.29.23-.72.11-1.07-.15-.44-.36-.26-1.14.33-1.91,1.41-3.88,3.08-5.52,4.31-.53.39-.97.61-.86.83.15.29.96.38,1.23.43h0ZM113.11,174.08c1.31-1.17,2.87-2.3,4.27-3.43.2-.21.25-.94.05-1.23-.16-.23-.03-.19-.41.05-.57.35-3.95,2.88-4.58,3.46-.37.33-.67.5-.58.62.42.3.87.48,1.26.54h0ZM114.75,174.99c.27-.2,2.59-1.83,2.78-2.05.21-.25.15-1.36-.06-1.45-.59.51-3.69,2.59-3.69,2.92.32.31.73.6.97.57h0ZM117.24,175.22c.36-.36.43-.42.44-.82.01-.73-.15-.7-1.1.04-.66.47-1.06.8-.94,1.08.47.81,1.14.17,1.61-.3h0ZM117.49,176.71c.19-.08.19-.18.16-.44-.03-.28-.07-.27-.35-.27-.75.03-.07.78.19.71ZM108.44,172.63c.34-1.24.82-2.22,1.6-3.15,3.13-3.04,2.17-6.79.2-9.84,2.55-3.93,5.11-8.09,7.3-11.9v-6.2s.29.03.29.03c-.1,13.53.46,35.71.46,35.71l2.54,2.13-.34.19c.42-.07-7.39-5.44-12.04-6.97h0ZM110.74,171.08c2.16-1.79,4.27-3.2,6.41-5.11.23-.21.36-.22.37-.69.01-.89-.15-.9-.95-.27-.36.28-1.66,1.28-2.89,2.19-1.29.96-2.48,1.8-2.72,2.11-1.21,1.54-1.65,2.26-1.53,2.48.13.23.37-.02,1.31-.71h0ZM113.1,166.74c1.11-.8,3.77-2.83,4.01-3.08.42-.43.49-1.13.11-1.21-.19-.04-2.24,1.47-3.98,2.92-.85.7-1.04.87-1.04,1.53,0,.4.22.32.89-.16ZM114.21,163.58c3.41-2.66,3.32-2.44,3.25-3.43-.03-.33-.09-.49-.23-.51-.11-.02-.71.45-1.39.98s-1.49,1.23-1.89,1.54c-1.18.9-1.58,1.15-1.58,1.66s.13.83.33.83c.08,0,.75-.48,1.51-1.07ZM113.72,161.52c1.57-1.22,3.3-2.59,3.53-2.92.29-.4.23-1.26-.13-1.26-1.57,1.16-3.47,2.68-4.8,3.88-.17.17-.39.33-.46.54-.01.28.31.65.44.66.26,0,.66-.32,1.42-.91h0ZM112.7,157.4c1.2-.89,2.29-1.95,3.48-2.85.89-.67,1.15-.88,1.09-1.72-.03-.49-.42-.21-1.93.9-1.11.81-1.62,1.13-2.01,1.69-.28.7-1.19,1.36-1.24,2.16,0,.3.18.16.61-.18h0ZM116.37,152.04c.92-.67,1.01-.68.91-1.57-.13-1.11-.23-1.05-1.11.43-.58.97-.78,1.25-.69,1.43.15.31.32.13.89-.28h0ZM113.02,143.85c-.1-.5-.24-.39-.7.06-.85.82-.99,1.42-.46,1.73.28.17.5.15.67-.26.36-.88.46-1.18.49-1.53ZM108.25,151.63c-.11-.45-.61-1.07-1-1.29-.38-.22-.61-.18-.97.33-.33.47-.18.74.32,1.44.37.51.52.67.81.67.35-.15.91-.67.84-1.16h0ZM89.77,171.15c-.24-.52-.76-1.06-1-.97-.25.1-.5.49-.5.74.1.51.49.85.79.86.56-.09.91-.2.7-.63ZM92.02,170.36c-.49-.56-1.45-1.81-1.61-1.81-.25,0-.83.68-.83.96,0,.33.88,1.68,1.17,1.78.74-.08,2.09.02,1.27-.93ZM94.8,170.52c-.05-.27-2.79-3.47-2.99-3.47-.26,0-.78.63-.78.92,0,.23.88,1.5,1.7,2.44.41.47.44.53.94.45.54-.09,1.25.04,1.13-.34h0ZM99.64,169.8c0-.65-.31-1-1.54-2.47-.45-.53-1.21-1.46-1.69-2.06-.92-1.16-1.32-1.51-1.69-1.52-.29,0-.74.52-.74.85,0,.21,2.28,3.08,4.34,5.51.46.54.66.7,1.1.44.25-.19.21-.51.21-.76h0ZM96.08,162.12c-.46.42-.64.59-.64.87,0,.42,3.93,5.17,4.28,5.17.21,0,.17-.03.3-.54.24-1.55-.14-2-1.16-3.02-.68-.68-2.06-3.04-2.78-2.47h0ZM103.01,158.95c-1.1-1.44-1.7-2.1-1.93-2.1-.15,0-.38.16-.63.46-.41.43-.37.41-.11.92.13.26.51.78.84,1.15.6.69.91.9,1.21.57.26-.29.89-.63.62-1h0ZM102.44,155.35c-.27,0-.72.53-.72.81,0,.24.89,1.47,1.51,2.08.5.49.74.63,1.09.3.26-.42.2-.8.04-1.12-.44-.56-1.42-2.06-1.92-2.08h0ZM105.52,155.71c0-.42-1.13-2.02-1.49-2.18-.3,0-.92.76-.92,1.1,0,.19.24.6.65,1.12.8,1.02,1.01,1.25,1.18,1.09.29-.26.59-.72.58-1.13ZM106.79,153.9c.07-.35-.12-.71-.57-1.33-.56-.77-.84-.83-1.36-.23-.2.22-.29.41-.29.52,0,.3,1.18,1.94,1.39,1.94.5-.07.66-.47.83-.9h0ZM104.72,157.97c-.11.53-.31.88-.77,1.12-3.59,2.84-3.47,7.47-4.24,11.75-5.81-.06-15,2.56-14.95,2.69l30.9-34.23s.38.1.15.4c-2.5,1.97-2.34,5.81-3.99,7.74-2.75,3.65-5.3,6.81-7.09,10.53h0ZM87.95,171.95c.05-.39-.27-.49-.56-.18-.28.31-.17.54.23.49.21-.03.3-.12.33-.31h0ZM97.47,170.51c.11-.33-.16-.63-1.81-2.65-1.68-2.04-2.06-2.52-2.35-2.52-.25,0-.85.67-.85.94,0,.13.26.54.59.92.32.38.93,1.13,1.36,1.66.73.92,1.08,1.36,1.36,1.57.27.21.48.2.92.2.6,0,.73.02.78-.13ZM100.33,164.09c.11-.4.28-.76.28-.91,0-.28-2.11-2.65-2.47-2.9-.43-.3-1.23.69-1.03,1.27.06.16.68.97,1.4,1.81.91,1.06,1.36,1.56,1.51,1.53.15-.03.17-.28.32-.8h0ZM101.22,161.6c.15-.25.28-.58.28-.73,0-.17-.35-.65-.86-1.27-.94-1.17-1.19-1.3-1.7-.76-.51.54-.34.79.56,1.92,1.13,1.41,1.26,1.58,1.72.84h0ZM109.31,150.47c.35-.46.36-.69.04-1.11-.14-.18-.34-.44-.44-.58-.29-.38-.67-.32-1.07.18-.19.24-.31.48-.31.56,0,.08.2.41.45.73.56.72.9.79,1.34.23h0ZM110.55,148.71c.24-.4.13-.84-.32-1.29-.42-.43-.63-.44-.93-.08-.4.49-.33.65.09,1.17.48.59.87.68,1.16.2h0ZM111.54,147.26c.33-.36.32-.67.03-1.09-.28-.39-.57-.49-.86-.32-.51.3-.46.81.05,1.39.3.35.45.39.78.02h0ZM87.9,220.28c6.33.78,13.12,1.32,25.11-.72l.06-4.47c-3.74,3.2-8.64,1.01-8.93-2.68-.03-3.28.77-7.07,1.44-9.77.5-2.01.64-2.78.18-3.17-1.03-.64-2.87-.72-3.34-2.05-.22-.7-.25-1.46.08-.92.15.25,1.34.86,2.28,1.08,1.62.4,1.88.53,2.07,1.26.12.46-.15,2.06-.58,3.5-.31,1.03-.66,2.69-.66,3.01,0,.35.25.41.53.31.12-.04.69-.67,1.05-1.02,1.56-1.53,2.01-1.48.68.01-.53.59-1.26,1.41-1.26,1.48,0,.32.27.28.87.04.92-.37,3.08-.32,4.04.21,1.2.66,1.25.63,1.22-1.37-.22-3.74-.77-8.16-1.88-11.61-1.69-5.26-5.2-10.15-10.39-9.93-6.32.36-10.14,3.13-14.44,6.44,2.6,6.33-1.16,11.18-2.52,11.82-.13.06,1.7,6.44,2.49,9.67.71,2.94,1.91,8.88,1.91,8.88h0ZM114.82,67.57c-.15-.42-3.66-13.01-4.65-18.27-9.51-.61-16.54-1.47-24.91,1.14,0,0-.18,3.55-.09,3.72.09.44.37.43.61.28,3.87-2.33,8.06-1.28,8.35,4.47.11,2.2-.56,3.75-.68,5.83-.11,1.82-1.41,4.25-.62,5.63.1.17.66.51,1.42.86,1.42.67,1.98,1.28,2.08,2.3.15.7-.24,1.18-.36.45-.08-.46-.15-.86-1.9-1.52-1.71-.64-2.17-1.39-2.34-1.78-.23-.54-.19-.92.03-1.79.47-1.84.93-3.71.89-4.59-.02-.32-.34-.16-.75.22-.52.49-2.75,2.1-2.81,2.03-.03-.03.37-.68.99-1.34.76-.79,1.7-1.76,1.7-1.93,0-.31-.11-.1-.84.14-1.28.39-2.75.33-3.74-.15-.84-.41-1.43-.64-1.55-.42-.31,5.61.45,11.39,2.59,15.9,1.92,4.1,5.91,9.23,11.9,8.08,6.2-1.19,12.22-6.66,12.01-6.67-2.31-5.75.32-10.03,2.69-12.6h0ZM65.7,220.65c-2.75-3.02-9.67-6.31-14.42-7.81-.38-.09-.76-.29-.76.21l-.06,10.37-8.55,8.75v4.17h18.24l11.97-19.28s.58-.11.64-.23c-2.2-10.24-5.51-18.41-7.61-22.51.04.05-3.02,2.71-5.71-.6-1.51-1.86-.58-5.12.85-6.32-1.21-.98-3.71-2.75-5.35-3.26-.34-.09-.85.67-1.02,1.35-.3,1.12-.8,2.11-1.13,3.24-.37.94-.72,1.08-1.27.82-.85-.28-1.08-.38-1.08-.38l.03,12.18c6.56,2.5,13.31,8.91,15.24,19.29h0ZM92.98,90.44l1.94-2.32c-3.08-.41-6.3-1.02-10.07-2.32,2.62,2.14,5.36,3.46,8.13,4.64ZM82.29,83.91c3.43,1.26,7.77,4.18,13.18,3.08-4.94-2.15-8.69-7.18-10.28-17.41-.35,1.99-1.07,6.12-2.21,6.56-1.6-6.79-8.02-2.84-5.45,2.7-6.51,4.91-14.34,7.69-21.44,11.48,0,0-1.07,3.6-6.39,8.54-1-5.79.19-14.37-.43-20.18l-8.34-8.65c.13,1.65.07,2.67,0,4.6.23.34.54.51.87.72.54,33.33-.19,66.28-.18,96.55-.08,18.55.36,37.88.12,55.4l-.31.63v4.19s8.53-8.9,8.53-8.9c0,0-.4-6.32.05-11.15,5.37,1.19,10.38,3.96,14.88,7,.57.17-2.76-12.13-14.84-17.59,0,0-.02-3.84-.02-12.2s-.11-8.91-.28-9.04c-.49.58-6.67,2.87-6.99,2.49.17.06-1.74-14.26-.09-16.44l5.91.14c1.69,1.5,1.01-.33,1.99-.63.59-.17,3.32,1,3.32,1,11.27-14.62,10.15-38.65,2.06-52.18-2.07,1.85-4.28,4.35-6.35,5.43-.03-.08-.04-7.46-.04-7.46,10.77-7.59,22.49-29.59,21.74-29.67,0,0,3.33,3.57,4.63,5.59l-10.63,16.92c2.44,5.39,4.9,10.27,6.5,15.01.22.64.88.62,1.05,1.3.14.58-.5,1.38-.41,2.01,2.24,9.43,2.75,19.43.54,28.49-.47,2.04.39,3.69,1.53,5.23.09.13-1.07-1.1-1.17-1.17-.4-.26-1.06.66-1.2,1.82.09.71.44.84.91,1.41.82.75,4.08,4.28,5.52,5.89,1.28,1.43,1.61,1.49,2.46.48.24-.25.49-.59.73-.8.04.08.36-.29.47-.4l19.2-20.59c2.23-2.39-19.17,21.6-19.17,21.6,0,0-10.38,11.19-12.93,13.95-2.63,2.85-2.99,3.47-3.09,3.69-.19.38.85.37,1.32.29.04,0-.4.11-.83.11-2.7-.4-3.62,2.62-5.33,3.28-4.51,3.52-1.48,9.16,2.83,7.3l1.05-.55c2.61,5.33,6.38,15.03,8.14,23.46l-.71.36-11.36,18.71h64.41c-4.63-5.06-8.56-11.27-12.57-15.92-6.42,2.11-25.85,1.68-25.54.76,0,0-2.94-13.08-4.6-19.5,5.28-4.97,4.74-12.8-2.93-16.32,5.58-4.84,11.2-6.48,16.67-6.87,1.78,4.96,5.96,5.28,7.93.73.01-.05,7.41,2.5,10.13,5.25-4.04-.46-8.03-1.34-12.08-1.56,3.56,1.54,7.18,5.58,8.35,10.19.57,1.65,1.44,7.08,1.67,7.1,0,0,1.35-6.28,2.39-5.93,2.67,6.12,7.27,1.52,5.33-3.36,6.79-3.56,14.44-7.54,20.69-10.84,1.82-3.02,6.31-8.76,6.6-8.78,0,0,8.25-51.91,8.25-69.27-.27-20.86.33-44.09-.49-63.6v-5.56h-17.38l-12.44,20.05s-.09.32-.09.46c1.7,8.11,3.88,15.01,7.29,22.5,4.72-3.91,8.69,2.53,5.15,6.27-.66.7-.49.88.18,1.37.65.48,5.13,2.96,5.34,2.96.81-1.32,1.04-3.27,1.59-4.76.14-.57.53-.64,1.31-.54,1,.13,1,.59.96-6.42l-.03-6.02c-6.05-3.06-14.05-10.84-14.43-18.93,3.5,2.79,11.53,6.86,13.68,7.22.94.29.8-1.51.83-2.24.26.19.35,2.97.35,2.97-3.55-1.18-5.41-.94-14.27-6.58,1.52,7.96,8.77,14.23,14.03,17.09,0,0,.22,3.78.21,8.01-.03,12.91.08,13.48.08,13.48,0,0,2.89-.81,3.7-1.25,1.43-1.26,3.73-.29,4.05.64.47,4.87.02,9.39-.08,14.04-2.45.19-3.79.76-5,.81-.79-.12-1.26-.12-1.67-.61-1.17-2.78-1.09-1.02-1.24,1.07-.11.62-3.04-.46-3.33-.64-12.66,16-11.58,34.43-2.98,51.49,1.42-1.05,3.87-3.06,6.31-4.38.06,2.17.09,6.64.09,6.64-9.91,7.99-21.77,29.14-21.37,29.2l-4.03-5.28s2.53-4.42,3.43-5.59c.1-.13.17-1.51.17-1.51l6.15-9.77c-2.62-6.52-6.22-11.53-7.15-17.9-4.1-20.37.34-30.5.02-31.27,0,0-.05-.41-.14-.49-.13-.12.04-.24.19-.53.29-.56.76-1.72.6-2.06-.12-.25-3.45-3.91-6.3-6.92-1.5-1.58-1.44-1.76-2.22-.9-.29.32-.99,1.23-.99,1.23-10.31,10.48-18.49,20.02-28.84,31.17l-.5-.5c15.05-16.43,30.24-32.7,45.14-49.29l-2.62.05c.07-.21.18-.4.34-.46,1.41,0,2.85-.47,3.9-1.12,2.13-1.73,5.18-4.06,5.42-6.34-.15-4.4-3.53-5.04-5.98-2.89-3.39-6.7-6.08-14.75-7.52-22.27-.07-.37-.55-1.02-.62-1.44.73-2.5,12.25-19.75,12.25-19.75h-64.73l12.32,16.11c0-.64,17.56-2.92,25.6-.23l4.9,19.11c-4.45,4.72-5.76,12.49,2.42,16.54.16.38-.78,1-.78,1,.13-.23.36-.47.26-.69-2.2-1.06-4.57-3.74-4.57-3.74-4.92,4.22-9.52,6.57-14.03,6.78,0,0,2.38,1.77,2.84,3.72,0,0-.22-.03-.28-.11-.49-.66-1.61-2.78-2.56-3.4-1.6-.42-2.55-.12-3.82.84l-1.71,1.82c-3.93-1.31-8.3-3.46-10.71-6.72h0ZM81.64,130.67l1.79-1.94c.21-1.44.56-3.28,2.08-5.28,1.68-2.22,3.54-4.3,4.91-6.28,1.64-2.37,2.54-4.52,2.11-5.51,2.45-.48,4.7-2.86,4.77-7.17.03-2.27,1.02-5.57,1.1-5.52,0,0,17.11-.64,28.88-12.96,0,0,.82.2.63.36-4.46,4.91-9.2,8.52-14.81,10.83l-30.92,33.92-.55-.43ZM85.06,126.78c.46-.51.57-.67.3-.91-.4-.36-1.17.39-1.17,1.14,0,.48.35.34.86-.23h0ZM86.66,125.05c.37-.39.35-.67.05-1-.42-.46-1.03-.18-1.23.56-.21.75.6,1.05,1.18.44h0ZM88.07,123.49c.19-.24.34-.48.34-.54,0-.26-.59-.86-.85-.86-.33,0-.92.61-.92.95,0,.29.59.87.88.87.11,0,.36-.19.55-.43ZM89.4,120.57c-.42-.39-.7-.39-1.04-.01-.4.44-.36.93.12,1.39.37.42.52.38,1.02.04.42-.47.49-.9-.09-1.43ZM90.95,120.32c.45-.42.39-.77-.11-1.31-.52-.57-.92-.58-1.3.03-.14.23-.16.46-.16.52,0,.22.86,1.06,1.09,1.06.12,0,.29-.13.48-.3h0ZM92.45,118.69c.39-.44.34-.76-.22-1.39-.47-.53-.79-.57-1.2-.15-.42.43-.34.89.14,1.42.49.53.85.62,1.28.12ZM94.15,116.8c.28-.33.21-.3,0-.66-.31-.55-1.22-1.47-1.48-1.47-.32,0-.61.57-.61,1.13,0,.56.25.79.9,1.34.43.37.3.4.63.19.18-.12.43-.36.55-.54h0ZM95.5,115.45c.61-.76.49-.91-.98-2.61-.5-.58-.6-.64-.96-.61-.34.03-.36.12-.54.51-.32.72-.08,1.09.84,2.17.95,1.11,1.09,1.21,1.63.53ZM97,113.67c.23-.23.39-.49.39-.66,0-.3-1.19-1.74-1.61-2.01-.3-.19-.61-.08-1,.29-.23.22-.23.27-.17.52.09.4,1.62,2.17,1.87,2.17.1,0,.31-.09.53-.3ZM98.5,112.08c.25-.28.45-.63.45-.77,0-.32-1.28-1.95-1.68-2.18-.34-.19-.53-.11-.87.4-.38.59-.23.86.53,1.82.72.91.95,1.19,1.09,1.19.04,0,.23-.18.48-.46ZM99.91,110.42c.32-.22.75-.67.57-1.04-.18-.38-2.42-2.99-2.67-3.13-.47-.28-.46.12-.46,1.42v.67l1.03,1.11c1.5,1.62,1.17,1.22,1.52.98h0ZM101.73,108.58c.18-.2.35-.53.34-.65-.93-1.25-3.64-5.18-4.13-5.04-.05.02-.07.02-.11.13-.12.39-.17,1.21-.09,1.87.86.9,2.87,3.84,3.33,4.02.27.12.39-.05.65-.34h0ZM103.19,106.9c.17-.18.31-.42.31-.54s-.3-.53-.62-.95c-.32-.41-.95-1.25-1.39-1.86-2.55-3.5-2.74-3.76-3.13-3.4-.26.23-.32,1.06-.19,1.36.22.53,3.01,4.22,3.91,5.17.57.61.68.67,1.11.21ZM104.65,105.36c.22-.23.4-.52.4-.66s-.41-.71-.84-1.26c-.43-.56-1.15-1.5-1.59-2.11-1.14-1.55-1.15-1.6-2.01-1.7-1.29-.15-1.12.17.34,2.05.35.45,1.03,1.35,1.49,2,1.09,1.51,1.57,2.06,1.78,2.06.1,0,.21-.14.43-.37h0ZM106.15,103.75c.66-.61.53-.81-1.63-3.26-.71-.8-.76-.93-1.31-.93s-.73.13-.73.42c0,.18,2.81,3.85,3.02,3.94.28.12.31.15.65-.17h0ZM107.72,101.98c.18-.21.32-.48.32-.6,0-.26-.61-1.12-1.18-1.67-.27-.26-.61-.53-.82-.53-.37,0-1,.23-1.1.42-.07.12.76,1.26,1.59,2.21.54.63.76.68,1.2.16h0ZM109.1,100.47c.35-.38.34-.73-.01-1.24-.26-.37-.34-.41-.87-.41-1,0-1.03.28-.26,1.19.58.68.74.89,1.13.46ZM110.58,98.88c.39-.55.06-.84-.58-.52-.15.08-.23.27-.27.37-.2.57.47.68.85.16ZM85.9,103.48c-1.43.99-3.83,2.87-5.46,4.12-.04.27-.07.95,0,1.49.92-.69,3.9-2.78,5.24-3.95.07-.44.17-1.22.21-1.66h0ZM88.52,98.94c-.05-.27-.21-.1-.63.29-.55.51-5.25,4.33-6.49,5.29-.47.37-.92.67-.97.8-.05.12-.09,1.16.09,1.42,1.02-.85,5.84-4.41,5.91-4.53.5-.87,1.61-2.4,2.09-3.28h0ZM87.98,110.45s-5.76,7.6-7.61,11.39c0,0-.01,4.33-.07,6.83l-.31.1s-.03-6.68-.1-13.94c-.19-18.13-.36-22.53-.36-22.53l-1.87-1.5-.08-.71s8.29,6.38,12.34,7.4c-2.96,5.09-5.69,7.05-1.95,12.98h0ZM81.15,119.54c.12-.31.04-.29-.2-.28-.17,0-.27.19-.28.38,0,.22,0,.27.17.24.11-.02.26-.19.32-.34ZM82.53,117.28c.83-1.12,1.51-1.85,1.64-2.67-.53.1-3.58,2.45-3.63,2.7.03,1.24-.23,1.39.7.85.41-.24.74-.54,1.29-.87h0ZM82.79,114.51c.89-.81,4.14-2.73,4.51-3.68.14-.43-.32-.84-.39-.8.06.06-4.65,3.15-6.37,4.78-.15.21-.11.57-.01.86.19.54.56.1,2.26-1.17h0ZM81.71,113.01c.97-.71,3.26-2.45,3.83-2.88.97-.74,1.16-.99.81-1.53-.14-.22-.33-.35-.65-.19-2.8,2.14-3.05,2.51-5.17,4.01-.14.42-.11,1.05.11,1.27.16.01.43-.21,1.07-.67h0ZM81.7,110.7c2.55-2.03,3.93-3.05,4.02-3.28.1-.25.13-1.21-.04-1.32-.95.79-3.49,2.5-5.23,4.05-.05.32-.1,1.03.04,1.19.35.16.46-.05,1.2-.64h0ZM81.4,103.38c1.86-1.51,3.58-2.83,5.51-4.25,1.64-1.2,1.91-1.46,1.28-1.82-.22-.12-.65-.32-.93-.21-2.18,1.93-4.6,3.78-6.91,5.66-.06.28,0,.83-.01,1.08-.02.38.44.06,1.06-.45h0ZM81.14,101.21c.15-.15,1.13-.86,2.16-1.68,2.78-2.21,3.11-2.43,3.11-2.66,0-.64-.8-.78-1.53-.12-1.34,1.2-4.54,3.38-4.55,3.69-.01.46-.08.91.04,1.11.15.25.38.04.77-.34h0ZM81.95,98.22c2.83-2.17,2.72-2.07,2.72-2.46,0-.34-.28-.19-.71-.22-.41-.03-.42.09-1.19.74-1.65,1.37-2.26,1.75-2.43,2.15-.05.13-.09.63,0,.74.2.22.43-.05,1.6-.95ZM82.13,96.06c.55-.51,1-.88,1.04-.98.08-.23-.34-.64-.65-.64-.34,0-.61.19-1.45.99-.75.71-.9.56-.84.96.03.23.04.74.11.83.18.24.57-.03,1.8-1.16ZM80.99,94.66c.6-.55.72-.67.29-1.15-.4-.43-.86-.54-1.1-.28-.13.2,0,1.34-.02,1.57-.02.37.42.23.83-.15h0ZM93.8,82.73c0-.24,1.04-1.07,1.82-1.26,1-.24,2.25-.12,3.12.36.75.41,1.57,1.41.36.8-1.11-.54-3.5-.55-4.36-.11-.64.36-.94.45-.94.21h0ZM93.03,78.55c.08-.09,1.12.21,1.69.37,1.54.44,2.8.18,4.41-.33.38-.12.57.17.33.38-.82.62-1.88.98-2.79,1.08-2.01.21-4.18-.92-3.64-1.5h0ZM83.16,75.28c.86-.46,1.91-6.93,1.57-8.05-1.05,1.76-2.23,2.56-3.91,2.25-2.75-.5-2.85-4.22-.73-4.59.85-.15,1.89.46,2.06.32.91-.47,1.62-3.81,1.84-4.89.16-1.06.4-4,.44-4.93.08-1.99,0-4.92,0-4.92l-13.38-17.65h-29.13s-.07,24.56,0,37.16l8.1,8.75.1,14.14c9.27-4.44,18.25-9.11,27.03-14.16-1.02-1.34-.99-4.71.87-5.98,2.74-1.88,5.01.61,5.14,2.56h0ZM90.5,78.28c.06-.8.6-1.45.64-2.26,0-.18.13-.39.57-.14.57.33.74.1,1.39-.23,1.14-.58,1.47-.56,2.35-.18.57.33.74.33,1.28.03.73-.53,1.5-.7,2.15-.45.96.37,1.29.57,1.84.28.27-.15.62-.69.68-.65.39.64.31,1.65.56,2.22.44.96.27,1.65-.25,1.18-1.1-1-1.96-1.02-3.54-.59-.92.25-1.39.45-2.41.31-3.17-.41-3.39-.31-4.03.16-.63.46-1.11.51-1.21.32h0ZM99.02,71.97c-.92-.25-1.96-1.17-2.72-.92-.93.07-1.47-1.14-.99-1.8.82-.88,2.09,0,2.59.42,1.07.9,1.23.97,1.66.97,1.78-.04,1.44-1.87.58-2.54-.51-.59-.56-.97-.45-1.11.18-.23.69-.04,1.24.61,1.07,1.1,1.09,3.3-.22,3.96-.65.4-1.08.59-1.7.42ZM102.74,65.62c-.83-.66-2.31-2.14-2.69-2.67-.65-.89-.91-1.46-.83-2.18.06-.56.14-.89-.19-1.07-.35-.2-.68-1.04-.61-1.48.02-.12.41-.05.65.28.3.05.24-.14.56-.38,3.39-2.5,6.11-2.02,9.33-.3.93.49,3.37,2.52,2.07,1.86-.08-.04-.93-.45-1.8-.92-2.79-1.47-5.9-2.36-8.43-.47-.44.33-.7.59-.36.59,1.42-.3,2.83-.95,4.29-.85,2.18.03,3.5,1.21,5.13,2.03,1.77.87,2.12,1.17,1.47,1.89-.18.22-.33.22-1.19.14-.92-.08-1-.05-1.52.32-1.36.96-3.12,1.48-4.69,1.33-1.85-.17-2.04-.33-2.08-.04-.02.19.37.51.92,1.06.41.42.97,1.03,1.02,1.13.15.3-.55.15-1.06-.25ZM102.22,62.38c0-.24-.41-1.28-.65-1.55-.23-.26-.42-.16-.91.23-.37.29-.41.52-.07.85.73.71,1.64.89,1.63.48ZM105,62.52c.75-.4,1.5-1.8,1.16-2.26-.2-.27-.38-.01-.77.75-.19.36-.51.83-.65.93-.61.47-1.41.03-1.75-1-.2-.62-.42-1.02-.66-.78-.43.43.06,1.97.91,2.37.5.24,1.24.27,1.76,0ZM107.32,62.29c.76-.26,1.12-.63,1.05-.99-.05-.3-.6-.65-.97-.65-.17,0-.49,0-.61.16-.26.38-.67,1.52-.68,1.64.09.25.34.13,1.2-.16h0ZM109.93,56.1c-3.77-1.58-6.75-2.22-10.33-.54-1.15.55-1.8.6-1.86.16-.05-.38.78-1.49,1.67-2.01,2.5-1.26,5.51-1.38,8.02-.05.94.51,3.58,2.57,3.58,2.75,0,.21-.24.05-1.09-.32ZM154.04,102.49c.9-.52,1.31-1.54.76-2.15-.16-.18-.39-.18-.57-.18-.31,0-2.67.69-3.13.96-.3.18-.19.48.09.76.13.13.23.41.25.72.03.39-.05.75.19.69.48-.12,1.24-.24,2.41-.81h0ZM150.69,103.43c.26-.51.15-1.21-.52-1.64-.35-.2-.63-.09-.91.35-.67,1.34.99,1.91,1.43,1.29ZM147.33,104.06c.14-1.71.07-6.76.07-6.76,0,0-.84.78-1.36.8.19-.74.4-1.01.7-1.73.17-.77.27-2.12.22-2.9-.05-.85-.6-.87-.04-2.4.29-.78.34-1.6-.03-2.56-.16-.48-.21-.75.21-1.35.39-.56.23-.84.23-2.01,0-1.62,0-1.89-.45-.58-.67,1.08-.97.88-1.99.75-.98,2.42-2.13,4.96-2.18,7.05-.03,1.31-.04,1.51.7,4.26.28,1.02.37,1.37.39,2.6.02,1.18.1,1.6.26,2.25.29,1.16,1.48,3.08,3.28,2.58h0ZM113.11,212.96v-2.43s-3.54,1.2-5.34.46c-1.85-.55-1.85-.65-1.81-.43.07.39,1.44,1.19,2.71,1.52.9.23,2.69,0,3.57-.29.5-.16.55,0,.35.16-2.17,1.87-4.93,1.01-6.66-.54-.93-1-1.55-1-1.05.34,2.38,5.3,8.29,2.17,8.23,1.22h0ZM110.72,209.35l.81.02s-.25-1.54-.67-1.99c-.86-.92-2.06-.78-2.83.12-.35.41-.62,1.88-.62,1.88h.65c.24-.67,1.26-3.88,2.66-.03h0ZM107.49,207.01c-.46-.14-1.46.36-1.95.71-.18.22-.18.25.03.56.47.68,1.19,1,1.24.75.21-.36.73-1.89.68-2.03h0ZM112.82,208.73c.11-.47-.3-1.29-.94-1.57-.27-.07-.55-.14-.47.2.09.37.28.98.46,1.39.13.31.21.46.48.34.21-.08.39-.15.46-.36h0ZM147.41,176.45v-4.12c-1.89,2.11-4.37,5.65-5.12,6.98l5.12-2.85ZM89.51,62.81c.8-.38,1.39-1.53,1.19-2.11-.13-.36-.46-.07-.8.46-.54.86-.68.96-1.16.96-.51,0-.71-.14-1.06-.89-.24-.71-.41-.82-.63-.51-.11.14-.1.34.04.86.36,1.35,1.28,1.78,2.42,1.24ZM91.7,62.39c.89-.34,1.07-.44,1.03-.77-.04-.34-.75-.8-1.15-.71-.29.19-1.04,1.5-1,1.73.1.18.4.02,1.12-.25ZM86.56,61.81c-.03-.3-.07-.6-.14-.7-.29-.38-.89-.11-.89.37,0,.37.47.78.86.78.27,0,.23.07.18-.45ZM91.6,59.35c1.27.52,1.91.58,1.22-.13-.95-1.15-5.29-2.47-7.62-.59-.17.26-.13,1.26.05,1.2,1.9-1.4,4.32-1.33,6.35-.48h0ZM87.26,55.37c-1.06.39-2.06,1-2.19,1.57-.21.92.17.93,1.56.45,1.79-.64,3.8-.35,5.33.62,1.16.93,1.5.62,1.31-.16-.65-2.58-4.28-3.04-6-2.47h0Z"/>
        <path id="path6265-7" class="cls-4" d="M155.61,38.81l-7.83,8.52.11,10.09c.79,1.58-12.09-4.52-14.12-6.37.24,6.74,8.61,14.42,14.05,17.22l.15,21.57c2.25-1.26,5.03-2.02,7-2.23,1.07-14.67,1.98-33.75.63-48.81ZM112.05,49.37c-.76.01-1.22.24-1.21.78-.23-.04,2.89,12.59,4.32,17.87-2.77,3.07-5.66,8.41-1.52,13.34.88,1.05,2.5,1.95,4.03,2.96.68.73-8.4,7.17-16.5,7.17-2.59-6.25-6.22-2.79-8.21-.61-1.56-.15-7.39-3.96-10.37-6.14-.05-.03-.02-.94-.01-1.1.21,1.49,11.68,4.7,12.19,3.21-.33,0-5.14-3.58-6.53-7.1-1.76-3.98-3.18-9.45-3.18-9.45-.64,2.02-.42,4.82-2.19,5.83-.53-6.58-9.08-3.22-4.82,3.21-2.39.77-4.44,2.13-6.76,3.26,4.86,7.26,11.54,12.09,18.61,14.94-.93,2.18-6.43,7.09-1.91,12.87.2.18-4.32,5.59-6.54,9.83-1.67,3.19-1.17,5.64-.98,5.71,6.12-7.71,9.57-14.23,9.57-14.23-.05.9,7.27.41,7.15-6.83.16-1.95.48-4.07,1.17-5.89,11.17.58,20.78-3.79,28.9-12.97,0,0,1.65.52,2.7.7,2.87-.09,4.51-1.69,5.84-3.12,1.22-1.08,2.43-2.12,2.86-3.24,1.6-7.54-5.42-4.59-5.75-4.19-4.01-5.99-7.4-23-7.95-23.13-2.24-.5-9.9-3.71-12.89-3.66h0ZM84.53,60.93c-.3.02-1.37,5.29-2.33,5.25-4.03-2.85-4.12,3.05-.65,2.78,2.93-.23,4.57-5.42,2.99-8.03,0,0,0,0-.01,0h0ZM41.43,70.94c.13,32.01.66,64.02,1.34,96.02,2.63-.71,4.55-1.26,7.13-.02.24-9.1-.49-32.06-.31-54.29,9.85-8.41,16.76-17.69,21.62-29.81l-15.03,7.73s-4.91,7.73-6.48,8.23c-.22-1.1-.47-14.19-.27-19.81l-8-8.06ZM74.83,90.74l-2.95,4.69s.07,16.12.24,23.89c.12,1.55,1.4,2.97.38,4.35.62,0,3.35,20.92.76,29.4-.46,1.52-.03,2.59.7,2.94,3.71,4.51,5.74,8.83,10.62,6.27,5.33-5.35,12.9-14.73,12.9-14.73l-20.01-20.78c-1.72-5.04-2.63-36.04-2.63-36.04h0ZM147.75,157.98c-9.08,8.92-17.39,18.07-20.79,29.19,4.86-2.15,9.48-4.77,14.21-7.18,2.29-3.02,4.05-5.94,6.67-8.81,0,0,.28,13.12.05,19.7,2.36,1.93,7.98,7.96,7.98,7.96,0,0,1.55-93.2-1.8-95.56-3.25.69-4.88,1.99-6.09-2.14-.86,18.98-.23,56.85-.23,56.85h0ZM116.29,105.53c-3.49,3.14-15.51,16.08-15.48,16.22,3.19,5.87,15.77,17.63,21.8,24.2l.87,33.48c.89-1.31,1.53-2.54,2.5-3.86,0,0-.16-16.95-.53-24.9-.11-2.35-.6-4.2-.45-4.42-1.7-9.65-2.4-20.31,0-30.65-5.7-5.39-7.51-8.97-8.71-10.07h0ZM117.23,143.77s-.02.01-.03.02c-2.95,4.61-8.59,14.63-8.99,14.61-.12-.3-5.83-.02-6.91,3.93-.91,2.94-.98,5.64-1.64,8.67-11.46-.41-19.84,3.57-28.67,12.51-4.33-.03-7.54,1.07-9.04,3.07-2.24,1.78-2.85,3.31-2.74,5.17.2,3.38,5.63,3.86,5.91,1.48.28,0,5.32,12.65,5.81,14.8,1.19,3.48,2.46,10,2.61,10.01,2.03.14,13.42,3.65,13.46,2.38,1.07-.51-3.96-18.6-3.96-18.6,8.8-8.11-.9-16.78-3.18-16.46,5.01-3.92,10.76-6.56,17.1-6.9.98,3.87,5.53,5.86,7.82.72,0,0,9.86,3.87,9.82,5.16-4.06-.67-7.4-1.02-11.46-1.45,7.79,4.64,8.03,10.76,9.61,16.85.22-1.08,2.27-5.79,2.27-5.79,2.64,6.43,7.66,1.97,5.59-3.22l6.25-3.18c.72-.4-9.34-12.83-18.49-14.59.46-.93.64-1.8,1.12-2.55,2.29-2.47,4.07-6.09.56-10.42,2.32-3.55,7.68-12.13,7.34-12.29,0,0,.1-4.01-.17-3.9h0ZM41.99,183.31c-.09,0-.25,29.75-.06,44.52-.22.61-.37,3.88-.37,3.88l8.33-8.6.25-11.11c2.18-.57,15.74,6.99,14.65,6.95,1.04-.48-6.26-15.61-14.77-17.29-.16-8.57-.24-18.28-.46-20.89-2.95.62-7.57,2.56-7.57,2.54ZM115.97,201.21c-2.33.76-3.31,6.15-2.55,8.76.14.48.05.59.42.11.91-1.47.62-4.39,2.23-5.93,4.24,1.41,3.82-4.65-.1-2.95Z"/>
        <path id="path6267-4" class="cls-2" d="M61.99,236.29l11.03-18.3c13.17,4.83,26.61,4.92,40.2,2.54l12.14,15.77h-4.96l-7.64-11.99c-2.77.7-5.65,1.01-8.52,1.44l3.58,10.55h-3.89l-2.81-10.43c-6.59.28-11.08-.36-15.66-.95l-1.65,11.38h-3.96l2.67-11.75c-3.11-.64-6.26-1.19-8.86-2.11l-8.1,13.86h-3.57ZM74.62,225.52l4.58,1.36-2.24,9.41h-8.38s6.03-10.77,6.03-10.77ZM86.45,236.29l1.29-8.31c3.08.67,7.09.8,11.32.75l1.99,7.56h-14.6ZM108.12,228.59l3.61-1.05,5.42,8.76h-6.58l-2.45-7.71ZM55.42,175.69c17.62-22.51,15.28-46.14,5.54-65.2l2.07-2.34c11.26,20.32,13.65,49.21-7.09,71.59-.22-1.35-.52-4.06-.52-4.06ZM125.69,150.45c2.53,4.73,4.08,9.52,6.75,14.28l-6.35,9.42-.41-23.7ZM49.88,165.36c-.16-14.85.04-44.95.04-44.95l5.94-4.99c7.11,9.48,11,34.48-1.78,51.12-.93-.74-3.46-.43-4.21-1.18h0ZM134.29,162.36c-16.31-30.21-7.93-52.27,7.78-71.83.05,1.51.07,3.05.19,4.55-13.49,16.97-18.89,42.06-5.66,64.76l-2.31,2.52ZM104.76,157.97l7.43-11.11s1.41-4.42,2.59-5.73l1.36-1.32c.45.48,1.39,1.49,1.39,1.49l-.82,3.43c-2.75,4.65-5.64,9.3-8.68,13.95,0,0-2.64-.51-3.26-.71ZM144.26,104.02c.23-.29,3.18,1.06,3.18,1.06l.19,45.67-5.9,4.16c-1.71.96-15.09-29.02,2.53-50.9h0ZM82.09,123.26c2.69-4.02,5.52-7.5,8.12-11.19.67.25,2.44.3,2.44.3.19.11-.6,3.06-2.52,5.1-5.29,6.95-6.49,8.23-6.68,11.1-.06.92-1.93,1.98-1.93,1.98l-1.34-1.55c.41-2.28,1.05-4.02,1.91-5.73h0ZM65.33,105.75l6.07-8.72.43,22.68-6.5-13.96ZM84.69,48.96l-11.71-16.07h5.67l6.97,11.37,8.35-1.05-2.94-10.33h3.46l2.44,10.16c5.12.13,10.13.57,14.99,1.11l2.5-11.27h3.52l-3.2,11.79,9.43,2.72,8.4-14.51h4.17l-11.91,18.73c-15.57-5.14-28.07-4.55-40.16-2.66h0ZM118.44,42.23l2.67-9.36h7.98s-6.11,10.7-6.11,10.7l-4.54-1.34ZM99.13,39.95l-1.69-7.07h14.07l-1.82,7.9c-3.71-.69-7.11-.82-10.56-.83h0ZM82.27,32.88h5.61l2.19,7.32-3.24.4-4.56-7.72Z"/>
        <path id="path6269-8" class="cls-3" d="M71.14,31.85l13.56,17.82c2.82-1.11,17.06-2.89,25.6-.75,1.49,6.4,3.06,12.87,4.73,18.7,0,0-.53.68-.92,1.12-5.45,6.9-1.59,13.57,3.4,15.75-.9,2.05-10.46,7.16-16.29,6.56,0-.06-1.79-4.69-5.43-3.13-1.25.53-1.76,1.56-2.72,2.57-3.48-1.15-8.07-3.67-10.46-6.43,4.47,2.44,8.87,3.76,13.29,3.11,0,0-.55-.5-1.17-.81-.37-.19-1.27-.78-2-1.32-2.05-1.52-3.42-3.35-4.82-6.49-1.62-3.18-1.88-6.59-2.77-9.61-.47,1.54-.67,5.62-1.9,6.47-.32.23-.38.16-.61-.7-.94-3.14-4.36-2.74-5.49-.51-.57,1.92-.49,2.76.23,4.55l-2.08,1.27v.38l-1.28.67-.27-.2c-5.95,3.15-11.77,6.44-17.84,9.46,0,0-3.22,5.87-6.17,8.21l-.11-19.94-8.73-8.66-.04,4.74s.42.48.63.72c.12,33.38.02,66.21.04,96.51l.04,27.89-.53.03-.03,3.25.6.15-.08,4.59-.31.02-.05,2.91.48.08v16.42s-.48.67-.48.67v4.69s9.13-9.51,9.13-9.51l.2-10.82c7.19,1.49,14.71,7.17,14.71,7.17-1.27-9.06-10.01-16.53-15.03-18.02l.02-21.47s-3.73,1.71-5.58,1.97c-.91.14-1.27-.01-1.7-.73-.32-.53-.33-1.01-.04-2.1.13-.51.13-.64-.04-1.16-.24-.72-.24-1.05,0-2.32.24-.75.14-1.15-.12-1.84-.27-.74-.29-.88-.18-1.31.31-1.12.32-1.31.16-1.81-.31-.98-.32-1.69-.03-2.33,1.34-2.48,4.36-1.87,5.99-1.78.83,1.01,1.32,1.58,1.4.11.58-1.75,2.83.04,3.88.79,8.95-13.17,13.36-30.99,2.14-53.3l-6.24,5.49v-6.87c8.29-5.84,17.6-19.13,21.64-29.6,1.34,1.73,2.88,3.42,4.33,5.16l-.95,1.74-.28-.17c-2.57,5.38-9.54,15.56-9.65,15.46,2.58,5.25,4.88,10.56,6.83,15.93l.51-.25.46,1.62-.9.3c3.05,11,3.15,21.19.86,30.59l.54,2.5s3.23,3.44,4.1,4.45c2.28,2.42,4.81,5.12,4.81,5.12l2.95-3.17-.17-.27,25.86-28.2,1.61,1.69c-15.84,17.52-43.34,47.76-43.34,47.76l-.95.15c-.54.09-1.34.13-1.85.09-.84-.06-.94-.04-1.62.31-.76.4-1.39.98-2.23,2.09-.38.51-.65.72-1.07.89-5.39,3.53-.52,10.64,4.07,6.9,3.36,7.05,6.21,15.27,7.78,23.39,0,.06-.6.29-.6.29l-12.08,19.68h4.65l.49-.91h-3.48l11.12-17.63c14.14,4.23,27.12,4.83,40.29,2.31l11.47,15.32h-4.55l.65.91,5.89.1-13.48-17.47c-4.83,1.42-17.55,2.56-25.54,1.07-1.22-6.51-3.24-13.6-4.72-19.23,7.62-6.55,1.9-15.2-2.8-16.4-.23-.47,9.54-6.99,16.49-6.54,1.99,5.25,6.35,4.48,7.92.57,2.88,1.16,6.63,2.33,9.6,4.92-3.96-.95-8.56-1.48-12.33-1.54,7.19,3.06,9.21,9.51,10.09,15.6.16,1.01.65,2.31.65,2.31.61-2.2,1.11-4.47,2.32-6.35.55,2.15,2.59,3.82,4.65,2.54,1.19-.95,1.61-2.58,1.23-4.83-.1-.63-.16-.97-.16-.97l1.6-.95.21.19s1.75-.82,2.62-1.29c.14-.07-.16-.37-.16-.37l16.15-8.37c-.06-.04,4.07-6.23,6.44-8.62.07,7.43.05,10.48.05,19.29l.91.98c.81.87,2.57,2.67,6.55,6.68.89.9,1.52,1.35,1.52,1.35l-.12-129.86h-.13v-2.5h.19v-6.51l-.17-.11v-2.05l.22-.18.02-17.54-.26-.05-.02-4.21-9,10.46.07,9.86c-4.02-.57-8.99-3.39-12.41-5.67-1.11-.74-1.72-.94-1.69-.51.48,5.87,8.22,14.85,14.17,17.2v22.09s1.41-.77,2.27-1.17l.13.39,1.92-.87.16-.45,1.66-.23c.02.37.08.32.08.32,1.48.45,2.14,1.56,1.54,2.81-.21.42-.25,1.01-.08,1.17.64,1.11.81,2.09.03,3.14-.3.54-.3.84,0,1.41.8,1.77.35,1.66-.26,2.71-.14.8.66,1.32.4,2.07-.12.5-.6,1.08-.92,1.34-.38.3-.69-.26-.69-.26,0,0-1.2.57-2.06.75-.85.3-2.31.84-2.81-.41-.29-.72-.06-1.37-.08-2.18l-1.24-.15-.05,3.65c-.71.42-3.54-1.17-3.54-1.17-12.14,17.29-11.8,36.47-2.8,52.53.09.26,6.35-4.7,6.35-4.7,0,0-.01,4.07.04,6.27-7.96,7.23-15.64,16.95-21.14,28.94l-3.4-4.43c.59-.57.61-1.47.6-2.15l2.47-4.05.02-1.05,6.43-9.86c.1.59-6.63-13.24-7.53-17.74l.45-.13c-3.02-12.55-2.4-21.34-.22-31.58l-.62-.66-8.48-9.3c-.69.7-1.37,1.4-2.06,2.1-.1.11-.62.04-.73.15-4.46,4.59-8.75,9.21-13,14-.11.12.08.63-.03.76-4.25,4.81-8.66,9.38-12.96,14.18l-1.57-1.65c15.24-16.73,43.95-47.81,43.95-47.81,0,0,.12-.25.32-.25.8-.03,1.51-.23,2.3-.48.95-.24,1.1-.32,1.5-.77.24-.28.64-.66.89-.86.42-.34,1.37-1.21,2.85-2.63.91-.87,1.47-2.13,1.45-3.26-.04-2.01-1.25-3.72-2.81-3.97-.65-.1-1.92.27-2.56.75-.49.36-.72.53-.93.37-3.11-6.93-6.14-15.64-7.42-22.83-.07-.45-.03-.59.31-1.16.21-.35.66-1.14,1.02-1.74,3.88-6.63,7.85-12.2,11.24-18.3h-4.8l-.59,1.04h3.95l-11.74,18.56c-21.64-7.77-39.37-2.84-39.79-2.74l-11.7-15.82h5.35l-.65-1.04h-6.86ZM81.67,31.85l.6,1.04h5.61l-.32-1.04h-5.89ZM91.03,32.88h3.46l-.2-1.04h-3.55l.29,1.04ZM97.22,31.85l.22,1.04h14.07l.25-1.04h-14.54ZM114.42,32.88h3.52l.27-1.04h-3.54l-.24,1.04ZM121.4,31.85l-.3,1.04h7.99l.6-1.04h-8.29ZM155.57,39.01l.12,2.88-5.76,6.67v9.31s-1.67-.43-1.67-.43l-.07-9.62,7.37-8.81ZM153.95,45.14c.05,2.85-.37,5.59.32,8.49.34,1.43,1.02,3.11,1.11,4.8l-1.9-.05c-.24-.85-.33-1.8-.62-2.85-.7-2.59-1.27-5.32-.75-8.07l1.85-2.33ZM112.48,49.8c.07.14.3,1.35.51,2.46,1,6.14,2.33,10.69,3.7,15.32,1.73,5.84,4.3,13.19,6.79,16.59.33.42.49.91.37,1.12-.2.36-1.22-.14-1.9-.93-.28-.32-.82-1.23-1.21-2.04-.87-1.79-2.04-4.4-2.16-4.81-.05-.17-.51-1.46-1.02-2.86-.9-2.46-1.44-4.15-2.19-6.88-.6-2.17-1.15-4.44-1.82-6.73-1.09-3.74-1.72-6.72-2.33-10.16-.09-.51-.24-1.1-.19-1.22.34-.27,1.28-.16,1.45.14ZM113.09,50.03c-.11-.1.99-.12,1.34.21.1.11.29.83.45,1.76.99,5.64,2.49,11.48,4.23,17,1.39,4.42,2.9,8.67,4.79,12.11.59,1.15,1.39,2.37,2.42,3.7.57.74.62.85.46,1.05-.19.25-.52.22-1.16-.11-.59-.31-1.24-.99-1.84-1.95-.21-.33-.52-.82-.7-1.1-2.79-5.29-4.48-10.32-6.01-15.42-1.57-5.23-2.98-10.53-3.94-16.63-.01-.2-.02-.41-.03-.61h0ZM116.59,50.82c.24.27.38.79.6,1.88,1.16,5.23,2.11,9.91,3.48,14.2.74,2.31,1.38,4.62,2.17,6.8,1.26,3.48,2.81,6.64,4.71,9.28.63.87,1.76,1.94,2.72,2.56.66.43.76.54.72.79-.06.22-.7.32-.92.3-1.04-.2-2.59-1.09-3.03-1.74-3.19-3.79-5.48-9.99-7.14-15.09-2.86-8.76-5.16-19.71-4.73-19.37-.03-.25,1.14.04,1.43.38h0ZM117.96,51.14c.1,0,.22.02.35.06.6.18.67.27.82.99,1.02,5,2.1,9.42,3.31,13.61,1.23,4.27,2.49,8.3,4.46,12.53,1.44,3.08,3.27,5.21,5.24,6.29.56.31,1.07.61,1.12.66.05.06.04.22-.03.36-.1.21-.22.26-.7.25-.89-.02-1.52-.32-2.47-1.03-2.51-1.9-4.71-6.21-5.67-8.65-1.18-2.98-2.27-6.08-3.25-9.45-1.76-6.06-2.85-10.07-3.66-15.18,0-.29.18-.45.49-.45h0ZM155.58,59.32l-.02,1.77c-6.32.46-12.8-2.47-18.01-5.12,3.92,5.72,8.11,10.79,18.01,11.84l.02,1.83c-12.89-.2-21.97-14.54-21.49-18.11,5.3,3.76,14.88,8.11,21.49,7.79h0ZM120,51.81c.31.02.73.16.89.34,1.05,4.32,1.82,9.12,3.56,13.93,2.14,5.92,3.33,11.14,7.3,16.01,1.23,1.39,3.65,1.35,3.65,1.35,0,0-.31.75-.72.88-.85.14-1.47.18-2.09-.04-2.3-1.07-4.06-3.76-4.96-5.59-.85-1.37-2.92-7.01-4.63-12.77-1.86-6.26-3.4-12.78-3.22-14.09.07-.03.12-.04.22-.03ZM122.13,52.53c.15,0,.35.06.6.19.26.14.37.22.51.75.09.35.07.89.23,1.76.9,4.51,2.13,8.17,3.36,11.74,1.17,3.39,2.42,6.72,3.96,9.73.78,1.52,1.55,2.93,2.04,3.47,1.33,1.46,3.58,1.53,4.25.08.37-.82.29-2.13-.44-2.8-.56-.59-1.85-.34-1.88.37,0,.19.32.11.78.05,1.29-.16,1.69,2.34.03,2.76-2.1.53-3.55-2.59-1.7-4.5,3.14-2.34,5.54.86,4.79,3.93-.72,1.82-1.92,2.74-3.5,2.81-2.05.07-2.89-.62-4.99-3.97-2.41-4.24-3.45-8.38-5.15-13.02-1.6-4.39-2.67-9.07-3.17-13.15.04-.13.15-.19.3-.19h0ZM124.12,53.26c.19,0,.58.11.75.23.1.07.25.23.25.23,2.82,11.31,5.18,18.09,7.57,22.87,0,0-.04.88-.2,1.13-.29.45-.43.34-.8-.37-1.51-3.21-2.94-6.75-4.28-10.39-1.57-4.29-2.97-8.74-3.56-12.97.03-.54-.08-.7.27-.73h0ZM143.16,59.73c.4,0,.72.35.72.79s-.33.8-.72.8-.72-.36-.72-.8.33-.79.72-.79ZM84.51,59.58c-.84,1.25-1.52,5.74-2.39,5.79-.96-.02-2.12-.62-2.87.33-.91,1.16-.35,2.43.77,3.14.52.28,1.62.35,2.29.14,2.74-1.01,3.78-5.89,2.21-9.4h0ZM145.9,60.76c.58,0,1.04.52,1.04,1.15s-.47,1.15-1.04,1.15-1.04-.51-1.04-1.15.47-1.15,1.04-1.15ZM84.56,61.3c.94,2.59-.1,5.68-1.24,6.72-1.05.96-2.7,1.08-3.64.15-.78-.81-.44-2.75,1.03-2.61.49.02,1.08.51,1.41,1.03.95.11,2.05-5.19,2.45-5.29h0ZM149.54,61.93c.65,0,1.18.58,1.18,1.29s-.53,1.29-1.18,1.29-1.18-.58-1.18-1.29.53-1.29,1.18-1.29ZM153.71,62.85c.66,0,1.2.59,1.2,1.32s-.54,1.32-1.2,1.32-1.2-.59-1.2-1.32.54-1.32,1.2-1.32ZM114.88,68.86c.18,0,.31.19.42.57.24.79.24.88-.14,1.41-3.7,5.62-.33,11.38,5.03,12,.45.04.68.59.92,1.24-.03.31-.04.31-1.25.33-.8.02-1.43-.04-1.83-.16-1.88-.56-4.18-2.42-5.12-4.15-1.08-1.99-1.26-4.05-.6-6.79.43-1.76.97-2.92,1.82-3.88.34-.38.57-.57.75-.57ZM149.95,69.48l.06,19.3-1.87.75.08-20.52,1.73.48ZM153.49,70.23c2.33,6.36,2.43,12.19.33,17.49l-2.13.34c2.92-7.47,1.68-12.82.03-17.98l1.77.15ZM41.66,71.28l7.57,7.85.26,87.42-1.21-.47-.48-85.98-6.15-6.19v-2.62ZM115.58,71.54s.03,0,.04,0c.2.03.39.31.56.84.2.63.2.64-.03,1.26-1.04,2.8-.19,5.46,2.37,6.3.61.21.71.32,1.07,1.15.23.54.34.73.25.85-.13.11-.46.16-1.42-.07-3.82-1.43-5.2-6.02-3.47-9.66.22-.42.41-.64.6-.67.01,0,.03,0,.04,0h0ZM85.19,71.19s.8,3.09.72,3.8c-.2,1.36-1.96,3.52-3.49,4.31-1.42.6-3.57.3-4.47-.74-3.27-4.2,2.83-8.42,4.36-4.04.92,2.87-2.82,3.55-2.99,1.34,0-.57.17-.75.65-1.12.43-.33.38-.62.01-.62-1.41.57-1.45,2-.81,2.9,1.27,1.46,2.85.61,3.94-.46,1.46-1.45,1.75-3.52,2.09-5.37h0ZM116.8,74.38c.07,0,1.57,3.93,1.77,4.49-.05.39-.44.37-1.11-.15-.68-.52-.88-.89-1.17-2.09-.09-.43-.23-1.99.51-2.25ZM86.41,76.04c.33,0,.67,1.33.52,2.01-.27,1.18-3.08,3.17-5.06,3.58-.4.08-.82.17-.94.19-.41.08-.89-.17-1.38-.73-.35-.39-.52-.78-.43-.88.07-.08.97.1,1.74.08,2.15.03,3.81-1.67,5.09-3.69.19-.32.4-.58.46-.58h0ZM43.62,77.02s1.46,1.45,2.23,2.28c-.08,3.85-1.38,8.03-1.38,11.48.03,3,1.8,5.49,1.98,8.1.11,1.69-.35,4.19-1.1,6.09-.7,1.77-1.08,3.65-1.07,5.48.09,4.26,2.87,8.91,1.9,13.13-.92,3.96-1.97,6.24-1.69,8.35.53,4.05,2.5,7.65,1.98,11.02-.49,3.14-1.78,6.28-1.64,9.11.16,3.27,1.27,6.01,1.59,8.99.2,1.94-.29,4.97-.29,4.97l-2.04.19c1.12-4.59-.55-8.75-1.19-13.17-.55-3.76.99-6.75,1.45-9.96.28-1.99-.04-3.89-.94-6.43-1.78-4.68-1.14-7.74.14-11.82,1.58-4.34-.59-7.78-1.14-11.95-.28-3.59-.06-6.12,1.16-9.31.91-3.07,1.17-4.85-.19-7.8-.86-1.86-1.09-2.96-1.09-5.41.45-4.86,1.64-7.59,1.35-13.34h0ZM87.38,78.96c.32,0,.47.25.47.74,0,.91-1.23,2.06-3.41,3.18-1.13.58-1.79.67-2.45.33-.62-.32-.59-.6.09-.82,1.7-.55,2.91-1.29,4.29-2.65.44-.43.89-.78,1.01-.78h0ZM77.52,79.59c5.62,6.61,11.13,10.01,15.34,11.6l-.66,1.73c-5.54-2.36-11.18-5.63-15.97-12.67l1.29-.65ZM88.35,80.67c.15,0,.72.8.72,1.01,0,.12-.21.52-.46.88-.37.52-.7.79-1.63,1.35-1.26.76-2.02.94-2.56.62-.54-.32-.36-.58.99-1.45.7-.45,1.63-1.18,2.07-1.62.44-.44.83-.8.87-.8ZM73.47,81.64c4.6,6.92,10.53,11.52,17.5,13.97l-1.1,1.63c-6.37-2.41-12.6-6.77-18.28-14.44l1.88-1.15ZM89.55,82.5c.23,0,.75.64.75.93,0,.14-.1.39-.23.56-.25.34-1.53,1.41-2.08,1.72-.43.24-.75.24-1.22-.02-.55-.3-.46-.56.44-1.2.44-.31,1.11-.89,1.49-1.29.38-.39.75-.72.84-.72h0ZM71.02,83c-.13.18-6.78,16.91-20.86,28.76l-.07-2.78c7.8-6.8,13.47-16.1,17.75-24.23l3.18-1.76ZM90.88,84.2c.21,0,.36.15.51.46.18.37-.02.71-.8,1.36-.49.41-.67.49-1.08.48-1.05-.02-1.02-.3.13-1.43.6-.59.97-.87,1.24-.88h0ZM118.08,85.03l2.94.25c.79.6-11.47,9.42-19.98,8.63l.23-2.11c7.47.23,17.02-6.38,16.82-6.77ZM92.9,85.85c.67.42,1.51.91,1.31,1.07-.31.21-2.3.08-2.76-.19-.34-.2-.32-.31.15-.89.58-.71.68-.37,1.31.02ZM66.73,85.33c-4.65,9.02-10.19,17.24-16.61,22.61l-.09-4.77c6.1-5.16,10.73-14.59,10.74-14.62l5.96-3.21ZM125,85.9l1.42.91c-8.87,9.02-18.45,12.91-27.66,11.93l.74-1.83c14.94,1.3,24.86-10.84,25.5-11.02h0ZM127.15,86.22s.48-.07.43.04c-2.95,3.17-6.99,6.56-9.64,8.44-12.54,14.15-23.28,25.31-34.21,37.92l-1.75-2.01,1.58-1.84c0-3.63,4.05-7.7,6.45-10.84,1-1.24,2.88-4.43,2.67-5.77-.07-.31-.08-.42-.08-.42,3.8-.83,4.7-4.21,4.79-7.2.18-2,.42-3.81,1.03-5.46,17.18,1.51,28.25-12.38,28.73-12.87ZM97.21,88.31c1.95,0,3.42,1.69,3.42,4.09-.02,1-.34,1.77-1.58,4.42-1.2,2.27-1.36,3.65-1.83,6.28l-1.22-1.21-2.22,2.2.03-3.2s.77-1.07,2.01-2.6c1.57-1.91,2.99-4.38,2.93-5.77-.04-1.39-1.37-2.51-2.74-1.61-1.18.91-1.73,2.55-2.43,7.47-.12.87-.24,1.9-.3,2.12-.17.61-1.89,2.38-1.89,2.38-.15,0-.82-3.61-.82-3.61l-1.73.31c2-2.39,3.56-5.27,4.57-8.29.93-1.86,2.11-2.98,3.81-3h0ZM59.57,89.08s-3.45,7.86-9.49,12.97l-.04-3.08c3.51-2.99,6.19-8.15,6.19-8.14l3.34-1.76ZM142.48,89.28c-11.96,13.6-27.56,38.64-8.2,73.82l2.56-3.24c-15.6-31.82-4.54-48.31,5.72-64.86l-.09-5.72ZM77.82,90.4c3.5,2.73,7.16,5.45,11.88,7.17-.25.92-6.75,6.93-2.09,12.48.19.29-.3,1-1.06,2-2.23,3.34-4.45,5.72-6.31,9.49l-.08,7.07-1.86-1.8-.49-36.41ZM142.02,91.05l.08,4.03c-17.77,23.72-15.77,45.07-5.72,64.74l-1.92,2.14c-16.46-31.12-6.19-54.58,7.57-70.92h0ZM98.19,93.43c-.78,2.27-4.21,6.17-4.21,6.17,0,0,.45-3.79.74-4.99.22-.91.71-2.15,1.2-2.74,1.38-1.67,2.76.23,2.27,1.56ZM74.61,91.3l.33,31.78-2.5-2.77-.37-24.3,2.53-4.71ZM71.24,97.52l.5,21.58c-2.49-6.46-6-13.54-6.07-13.47,0,0,2.87-4.18,5.57-8.1ZM90.97,104.27s.38-.35.98-1.1c1.3-1.44,1.41-1.45,1.29.49-.05.75,0,1.7,0,1.7.76-.48,2.55-2.8,3.05-2.38.39.4.71,1.24.71,2.55-.04,2.55-1.36,4.9-3.45,5.67-5.76,1.96-9.62-5.33-5.62-9.96.4-.46,1.53-1.31,2.07-1.14.67,1.35.65,2.85.96,4.18h0ZM148.09,101.98c.33,1.01.76,2,1.93,2.45-.18,30.9-.05,85.6-.05,85.6l5.66,5.83-.04,2.55-7.5-7.54s-.4-64.51,0-88.89h0ZM153.7,103.41c.2,2.99-.26,6.14.21,9.21.46,2.12,1.16,4.04,1.22,6.13.05,1.91-.06,3-.8,5.67-.52,1.86-.57,2.16-.69,4.02-.28,2.59.48,4.94,1.07,7.01.78,2.74.56,6.05-.68,10.42-.45,1.57-.53,2.23-.47,3.66.17,2.99,1.14,5.83,1.64,8.77.27,1.68,0,3.88-.95,7.61-.35,1.39-.72,3.81-.72,4.72,0,.98.29,2.83.56,3.62,1.31,3.78,1.37,4.45,1.44,6.72,0,1.7-.44,3.43-.99,4.93-.92,2.4-.31,4.86,0,7.55l-2.25-2.12c-.67-2.31-.43-4.46.19-6.18.88-2.69,1.1-2.94,1.08-4.49-.02-2.05-1.09-4.48-1.53-5.93-.79-2.56-.79-5.08,0-7.79.38-1.33.94-3.94,1.06-5,.24-2.04.06-3.65-.87-7.74-.45-1.99-.55-2.77-.58-4.75-.03-1.84.21-3.75.75-5.97.77-3.52.77-5.64-.24-8.91-.82-2.7-1.04-4.53-.84-6.69.12-1.25.43-2.42.95-3.59.97-2.65,1.11-5.18.4-7.71-1.24-5.18-1.22-7.81-1.09-12.48l2.16-.69ZM147.37,105.1c-.2,21.17,0,45.41,0,45.41,0,0-5.71,4.39-5.69,4.16-7.36-13.33-10.16-32.96,2.69-50.67,0,0,2.07.97,2.99,1.09h0ZM60.52,110.15c10.41,21.36,11.77,42.93-5.45,65.07.55,1.96.46,3.78.19,5.57,3.36-2.87,30.28-32.4,7.61-73.53l-2.34,2.89ZM113.59,108.41l5.11.33.34,4.83-1.65,1.8s-.03-1-.05-1.89c-.03-1.09-.17-2.05-.26-2.01-.09.03-.18,1.31-.25,2.7l-.08,2.07-.57.63c-.76.84-.92.77-.95-.41-.06-2.56-.06-2.74-.23-2.55-.1.11-.15.98-.17,2.31-.02,1.05-.09,2.06-.15,2.24-.13.37-1.1,1.32-1.35,1.32s-.22-.37-.23-1.96c0-1.35-.13-2.08-.33-1.59-.05.12-.13,1.45-.15,2.54-.02,1.09-.08,2.08-.14,2.2-.21.44-1.22,1.37-1.39,1.29-.25-.11-.32-.9-.31-2.24,0-.65.1-1.2-.13-1.38s-.27.58-.21,2.5l-.02,2.09-.64.77c-1.02,1.15-1.09,1.09-1.09-.89.05-1.57,0-2.26-.29-2.14-.28.12-.17.88-.11,2.43.05,1.38.03,2.08-.05,2.25-.07.14-.4.55-.73.91-.33.36-.74.85-.79.85-.08-1.67-.21-5.26-.21-5.26l-5.33-.26s1.09-1.42,1.56-1.7c.24-.14.62-.16,1.95-.1.91.04,2.14-.04,2.25-.09.4-.17-.43-.32-1.61-.4-.79-.06-.99-.04-1.86-.18l.78-.88.58-.64,1.7.06c1.03.04,1.79.03,1.91-.04,1.01-.22.06-.47-1.08-.47-1.12,0-1.75,0-1.75-.27s1.25-1.53,1.61-1.61c.18-.04,1.1-.08,2.03-.09,1.6-.01,2.18-.04,2.09-.33-.09-.29-1.15-.21-1.85-.24-1.96,0-2.05-.08-.71-1.37l.65-.62,1.23.04c1.85.06,2.75-.02,2.75-.22,0-.17-1.21-.34-2.23-.34-.61,0-1.11.01-1.11.01.46-.65.95-1.18,1.48-1.77l1.65-.03c1.21.02,1.95.07,1.97-.17.02-.24-.43-.24-.99-.24-.75,0-1.64-.08-1.76-.21-.13-.14.11-.53.63-1.04l.54-.54h0ZM62.95,108.48c14.31,25.67,9.14,53.42-6.81,70.68l-.47-3.37c15.06-20.12,17.69-40.89,5.51-65.33l1.77-1.98ZM89.56,111.92c-2.57,4.24-6.5,8.43-7.98,11.89-.3.39-.4,1.27-.87,1.44-.23,0-.31-.49-.25-1.62.04-.85.12-1.14.49-1.97,2.03-4.07,4.38-6.99,6.97-10.85l1.64,1.1ZM90.16,112.33l2.37.17c-.53,1.84-1.24,3.16-2.08,4.36-1.08,1.54-2.37,3.08-3.88,4.97-2.19,2.74-3.28,5.52-3.18,6.75-.55.63-.93,1.07-1.62,1.72l-1.38-1.4c1.03-5.79,6-11.1,9.78-16.56h0ZM119.21,114.68l.77.05c2.63.17,4.28.35,4.37.47.06.08.14.52.17.99.06.71,0,1.17-.34,2.86-.22,1.11-.47,2.09-.55,2.18-.3.34-.42,0-.56-1.57-.09-.95-.12-1.64-.23-1.56-.05.04-.17,1.05-.14,1.81.09,1.97.08,2.46-.48,3.05-.98,1.04-1.03.94-1.11-.91-.03-.77-.2-1.89-.25-1.94-.21-.23-.28.83-.28,2.63v1.92l-.46.56c-.61.72-.8.83-1.03.59-.14-.15-.09-.48-.09-1.58,0-1.28-.2-2.02-.43-1.78-.04.05-.05,1.29-.06,2.37,0,1.08-.02,2.04-.03,2.13-.04.26-1.15,1.48-1.34,1.48-.23,0-.42-1.41-.42-2.57,0-.77-.15-.91-.3-.48-.04.11-.07,1.19-.07,2.16v1.77l-.65.74c-.87.99-1.01.93-1.02-.42,0-1.17-.07-1.79-.29-1.79-.12,0-.15.55-.15,1.87,0,.9-.05,1.79-.12,1.98-.06.19-.35.6-.63.92-.28.32-.58.58-.65.58-.12,0-.29-1.11-.25-1.58,0-.1,0-.8,0-1.55-.02-1.79.09-1.72-2.52-1.81-3.06-.11-3.1-.13-2.18-1.1.87-.93.75-.89,2.78-.75,1.63.12,1.83.11,1.99-.07.1-.11.16-.23.12-.26-.03-.03-.65-.1-1.38-.14-2.02-.12-2.19-.28-1.34-1.22l.48-.53h2.06c1.39,0,2.34-.07,2.39-.16.13-.24-.42-.3-1.74-.38-.71-.05-1.38-.11-1.49-.14-.34-.11-.21-.48.36-1.07l.55-.56h1.82c1.69,0,2.52-.12,2.52-.37,0-.17-.34-.24-1.2-.26-1.23-.02-2.05-.15-2.1-.33.3-.64.71-.99,1.2-1.52l1.85.07c1.86.07,2.45,0,2.45-.36,0-.19-.8-.32-1.83-.25-.66.04-1.47-.13-1.47-.39,0-.11.27-.5.6-.85l.6-.65,1.81.08c1.01.04,2.09.03,2.17-.03.3-.23-.4-.4-1.54-.48-1.76-.11-1.87-.26-.94-1.23l.59-.62ZM56,115.75c9.39,18.47,7.98,35.87-2.02,50.69-1.15-.73-2.37-1.13-3.68-1.29l-.25-44.6,5.95-4.8ZM123.17,122.97c.19-.03.18.31.13,1.02-.04.58-.12,1.18-.18,1.34-.11.31-.19.33-1.11.18-1.04-.16-1.02-.37.12-1.6.55-.6.87-.92,1.03-.94h0ZM72.75,123.8s1.24,0,1.86.02c0,0,.1,3.46.35,5.45l4.02.21-1.56,1.79-3.05-.11s-.93-4.91-1.61-7.36h0ZM120.72,125.89c.57-.01,2.05.27,2.23.46.14.15.14.52.02,2.75-.04.8-.09,2.53-.1,3.84-.02,2.37-.02,2.37-.27,2.41-.33.05-.37-.08-.45-1.63-.05-.88-.16-1.65-.25-1.68-.11-.04-.1.73-.1,2.33v2.07c-.32.29-.62.68-.98.88-.23,0-.35-.39-.46-1.47-.11-1.07-.22-1.83-.35-1.59-.03.06-.02,1.23.05,2.19l.11,1.75-.71.78c-.73.8-.82.87-.93.66-.27-.8.11-4.44-.54-4.9-.1-.06-.97-.09-1.98-.13-1.7-.08-2.66-.11-2.9-.34-.14-.14.66-1.16,1.07-1.36.3-.15.63-.16,2.03-.05,1.62.12,2.44.11,2.23-.12-.06-.06-.88-.19-1.53-.26-1.3-.14-1.76-.29-1.76-.55.3-.59.68-.94,1.12-1.45l.63.07c.35.04,1.17.13,1.82.22s1.98.1,1.45.05c.17-.19-.5-.39-1.44-.51-1.77-.24-1.93-.46-1.04-1.42l.55-.59c.93.08,1.87.1,2.79.26.67.12,1.04.08,1.04-.18,0-.18-.34-.17-1.15-.35-.3-.06-1.82-.04-1.84-.53.36-.55,1-1.54,1.65-1.59h0ZM79.47,130.08c.27-.02.28.71.31,2.62.03,2.09.06,2.45.23,2.63.16.17.55.23,2.22.32,2.56.14,2.63.18,1.72,1.14-.63.66-.65.58-1.17.51-1.35-.17-3.33-.13-3.41,0-.13.24.01.28,1.25.39,1.5.13,1.92.18,1.92.46,0,.12-.26.49-.57.81l-.57.58-1.58-.07c-1.67-.07-2.52-.1-2.52.15,0,.15.95.32,2.46.48.39.04.79.05.81.12.05.18-.71,1.22-1.18,1.6-.38.31-.51.14-2.18.1-1.71-.04-1.85.03-1.54.38.08.08.36.09.99.14,1.04.08,1.55.25,1.55.54s-.94,1.34-1.38,1.57c-.39.2-.56.21-1.42.08-.68-.1-.81-.26-.79-.96,0-.32.06-2.36.11-4.54.1-4.22.13-4.43.64-4.35.22.03.27.32.33,1.75.06,1.52.12,1.82.35,1.82.09,0,.1-.6.05-2.07-.08-2.28-.09-2.61.54-3.27.28-.29.5-.53.64-.32.27.9.19,1.88.27,2.78,0,.91.31,1.1.39.23-.04-1.37-.05-2.6-.06-4.06l.77-.84c.41-.44.66-.72.82-.73h0ZM74.48,131.78c.31-.06,2.02-.02,2.27.04-.43.75-1.35,1.72-1.98,2.15-.16,0-.32-1.81-.29-2.19ZM123,135.92l.36,2.81-2.8-.21,2.43-2.6ZM85.31,136.38s.04,0,.05,0c.2.09.26.63.34,3.24.04,1.23.11,2.19.18,2.28.08.11.43.16,1.08.16.53,0,1.52.04,2.2.08,1.5.09,1.54.16.64,1.13l-.6.65-1.88-.08c-1.92-.09-2.24-.05-2.24.24,0,.2.33.29.94.27.24,0,.86.03,1.36.08,1.12.11,1.15.21.31,1.2l-.6.71-.59-.09c-.94-.14-3.42-.11-3.56.05-.23.25.07.36,1.2.44,1.75.12,2.05.17,2.05.39,0,.11-.25.47-.55.8l-.54.6-2.22-.13c-1.56-.03-2.09,0-2.12.11-.06.19.19.25,1.8.43,1.54.17,1.76.35,1.18,1.15-.64.88-.88.98-2.1.85-1.33-.14-2.7-.14-2.89,0-.31.21,0,.36.96.43,1.44.12,2.27.29,2.27.52,0,.26-.48.93-.94,1.32l-.38.32-1.64-.19c-1.63-.19-2.47-.1-2.24.16.07.07.68.18,1.35.23,1.23.1,1.84.27,1.84.55,0,.08-.31.49-.7.91-.39.42-.82.7-.82.7l-5.05-.5s-.26-.99.25-3.68c.46-2.42.64-2.97.86-2.52.06.13.12.71.16,1.12.1.97.32,1.58.45,1.58.15,0,.15-.58-.05-1.94-.27-1.9-.3-1.97.36-2.73.56-.65.88-.81,1.06-.51.05.08.12.94.18,1.66.12,1.27.19,1.56.34,1.39.1-.11.17-.47.06-2.35l-.14-1.83.74-.83c.67-.76.75-.81.89-.61.09.13.2.92.25,1.85.07,1.38.17,1.84.36,1.64.09-.1.04-3.24-.05-3.96-.06-.47-.03-.54.52-1.22.65-.8.99-1.13,1.17-1.14.23,0,.36.78.36,1.83,0,1.12.08,1.56.18,1.7.24.36.27-.9.21-2.15l-.07-2.28.67-.74c.64-.7.69-.73.87-.53.15.16.14.55.2,1.7.09,1.59.37,2.36.45,1.26.04-.25.04-.74-.01-1.08-.05-.35-.09-1.13-.09-1.74,0-.93.04-1.18.25-1.55.3-.53,1.18-1.36,1.46-1.39h0ZM114.46,138.11s1.13,1.06,1.13,1.36c0,.13-.45.72-1.05,1.37-1.11,1.2-1.22,1.41-1.35,2.7-.05.48-.27,1.12-.78,2.25-.39.87-.96,1.89-.96,1.89-1.78,2.33-3.46,4.47-6.57,9.4-.18.45-.19.91-.37,1.28-.14.28-.46.51-.59.57-.21.09-.62.37-.92.62-1.16.98-1.91,2.26-2.25,3.86-.18.86-.29,1.64-.61,4.31-.13,1.1-.57,3-.57,3-6.7-.1-12.97,1.17-18.56,4.63l33.46-37.24ZM123.41,139.24l1.49,7.44-1.54-.03-.15-5.4-4.79-.5,1.71-1.82,3.28.32ZM116.14,139.92c.41.46.92.96,1.29,1.46-1.28,4.7-5.34,10.8-9.37,16.86l-2.95-.35c-.05-.13,4.09-6.48,6.07-8.88.76-1,1.27-1.96,1.94-3.44.24-.54.67-1.92,1-3.37.7-.92,2.02-2.27,2.01-2.28h0ZM117.73,141.57l2.23,2.49.55,35.2c-3.44-2.97-7.5-5.17-11.83-6.84l.75-1.89.83-.98c2.94-3.5,2.29-7.26.05-9.93,2.73-4.37,5.2-7.62,7.28-11.89l-.03-2.92c-.02-2.7.17-3.24.17-3.24h0ZM91.02,143.04c.23-.03.26.62.32,2.47.06,1.73.12,2.54.23,2.72.14.24.27.26,2.13.32,1.96.07,2.36.13,2.36.36,0,.07-.25.4-.56.73l-.56.61-1.74-.03c-.93.03-2.03.01-2.06.04-.15.16.43.37,1.28.37.53,0,1.37.1,1.47.14.33.14.18.5-.54,1.26l-.72.76-1.58-.03c-.87-.02-1.93.01-2.07.06-.48.18-.24.32.55.33,1.33.02,2.25.14,2.29.37.02.11-.23.52-.55.9l-.59.7-2.33-.11c-2.2.02-2.5.2-.66.4.7.08,1.81.27,1.85.27.04,0,.1.1.14.2.08.22-.81,1.32-1.28,1.59-.24.14-.41.15-.84.04-.5-.12-2.63-.1-2.86.05-.19.13.23.27.82.29.89.02,1.95.3,1.95.54,0,.19-.45.81-.93,1.27-.22.21-.75.02-2.23.08-1.01.04-1.68.14-1.68.21,0,.07.5.28,1.14.34.64.05,1.51.22,1.57.28.15.16-.98,1.64-.98,1.64l-4.84-.07-.45-5.63.41-.52c.93-1.18,1.13-1.01,1.31,1.1.14,1.55.24,2.02.44,1.79.07-.08.04-.96-.03-2.26-.06-1.07-.11-2.04-.11-2.16,0-.29,1.1-1.56,1.32-1.52.21.04.33.57.44,2.01.09,1.19.14,1.51.36,1.28.1-.11.11-.73.01-2.23l-.13-1.96.47-.61c.94-1.22,1.12-1.09,1.24.9.08,1.34.19,2.04.42,2.04.08,0,.08-1,.03-2.51l-.07-2.27.59-.65c.32-.36.65-.65.73-.65.23,0,.36.57.5,1.92.16,1.51.21,1.77.35,1.62.06-.06.04-.97-.03-2.15l-.16-2.25.71-.8c.39-.44.79-.78.88-.76.21.05.35.72.37,1.69.02.9.15,1.67.34,1.87.09.1.12-.45.09-2.06-.04-2.47-.09-2.65.92-3.81.27-.31.45-.51.57-.52h0ZM117.17,144.05l.02,3.44c-1.26,2.95-4.16,7.28-7.1,11.92l-1.54-.91c3.68-5.3,6.76-10.24,8.62-14.45h0ZM75.14,145.13c.07,0,.15,0,.23,0,.79.05.82.35.08,1.11-.31.32-.66.57-.8.57-.23,0-.24-.04-.17-.69.09-.81.18-.99.66-1h0ZM123.11,147.62l2.17,2.35.54,25.21-2.28,4.09-.43-31.65ZM125.83,150.94c1.96,5.06,3.99,9.8,6.24,13.64l-5.8,9-.44-22.64ZM106.31,158.8c2.67-.04,5.12,2.28,5.43,4.63.58,2.7-.69,5.62-2.77,6.51-.73.29-1.15.31-1.15.31-.25-1.63-.14-3.2-.48-4.86,0,0-1.25,1.81-1.95,2.44-.36.22-.53.28-.48-.24.02-.92.09-2.95.09-2.95l-3.08,3.5s-.25-.38-.55-1.25c-.97-2.85.29-5.82,2.27-7.18.87-.62,1.78-.9,2.67-.91h0ZM147.31,158.58l.06,3.08c-4.84,4.12-11.73,12.8-17.65,24.11l-2.6,1.21c4.01-10.53,12.48-21.25,20.19-28.39h0ZM147.36,162.64l.05,4.59c-4.27,4.51-7.97,9.16-11.2,15.15-1.88.99-5.37,2.88-5.37,2.88-.44-.12,9.51-17.12,16.52-22.63h0ZM104.32,166.57c.19,0,.18.41.12,1.01-.14,1.36-.28,1.85-.73,2.51-1.56,2.03-4.05,4.78-4.38,7.35-.17,1.37.8,2.65,1.76,2.52,2.97-.41,3.29-6.21,3.54-9.07.1-.71.15-1.3.26-1.53.63-.88,1.3-1.73,2.14-2.43l.36,4.43,1.67-.61c-4.72,7.05-3.36,7.49-5.85,10.38-2.31,2.68-6.8-.37-5.65-4.45,1-2.74,2.54-5.5,2.96-8.44.11-.87.18-1.48.18-1.48l1.07,2.46c.55-.59,2.14-2.55,2.55-2.65h0ZM147.54,168.09v3.16c-2.21,2.72-4.11,4.81-6.36,8.58l-3.57,1.79c2.33-4.88,6.16-9.44,9.93-13.53h0ZM103.9,170.88s.24,1.48-.29,4.16c-.25,1.27-1.36,4.99-3.12,4.11-1.5-1.45.33-4.14,1.25-5.42.71-.91,1.48-1.9,2.16-2.85h0ZM99.2,171.26l-.97,2.29c-8.75.03-17.25,3.47-24.81,10.49l-1.91-.69c8.01-8.33,17.95-12.37,27.7-12.09ZM108.4,173.02c9.86,3.63,14.42,8.92,18.15,14.47l-1.56.88c-3.91-5.56-8.73-10.64-17.72-13.58l1.13-1.77ZM97.1,176.44l-.42,1.96c-5.52.18-11.35,2.33-17.02,6.66l-2.05-.36c5.71-4.92,12.23-7.73,19.49-8.26ZM122.34,189.69l-1.75.91c-5.23-7.45-9.95-9.57-15.32-11.47l.58-1.65c7.22,2.1,12.51,6.13,16.5,12.21h0ZM49.45,180.91l.15,19.88-1.26-.28-.18-19.22,1.29-.38ZM46.54,181.98c-2.4,9.89-.54,12.45.33,18.22l-1.99-.35c-1.94-5.84-2.14-11.16-.5-17.37l2.16-.5ZM106.98,183.5c.15.16-.12.64-.49.88-.36.23-.28.2-.85-.03-.56-.22-1.27-.8-1.27-1.02.41,0,2.26-.01,2.61.17h0ZM108.68,183.64c.33.04,1.28.02,1.34.35.02.2-.35.51-1.12,1.08-1.16.87-1.55,1.04-1.9.63-.32-.39-.23-.8.32-1.35.53-.54.84-.72,1.36-.72h0ZM69.06,183.86c.66,0,1.85.9,2.57,1.95.73,1.25,1.56,2.53,2.24,3.8,1.54,2.88,2.72,5.79,3.71,8.78,2.6,7.1,4.12,13.99,5.39,20.83-.02.58-.48.57-.85.43-.19-.07-.39-.21-.43-.32-.54-1.68-.72-3.39-1.13-5.07-1.03-4.21-1.39-6.62-3.37-12.55-1.03-3.08-2.51-7.36-4.13-10.66-1.04-2.11-2.24-4.06-3.8-5.79-.41-.45-.93-.86-.93-.95,0-.29.26-.45.73-.45h0ZM111.21,184.09c.62.17,2.1.36,1.54.9-2.09.88-2.77,1.84-3.88,2.81-.17,0-.83-.9-.83-1.12.9-1.21,2.03-1.73,3.16-2.59ZM72.09,184.1c.87-.03,1.73,1.21,2.13,1.99,2.69,4.34,4.99,10.54,6.88,16.61,2.04,6.53,3.33,12.82,3.89,17.27-.05.14-.3.19-.59.19-.55,0-.63-.14-.77-.63-1.4-7.37-3.28-14.99-5.56-21.45-1.22-3.44-2.61-6.9-4.56-10.37-1.33-2.14-2.09-3.27-2.03-3.43.04-.11.26-.17.52-.17.03,0,.06,0,.09,0h0ZM66.08,184.23c1.18,0,3.13,1.53,4.45,3.51,2.81,4.23,4.42,9.17,6.08,13.96,1.91,5.49,3.3,11.6,4.12,16.4.14.69.37.99-.22,1.21-.9-.28-.88-.25-1.13-1.45-.35-1.29-.46-2.59-.79-3.89-1.89-7.48-4.01-15.79-7.54-22.54-4.23-7.44-5.46-5.37-6.14-6.68.05-.3.52-.5,1.16-.51h0ZM76.26,186.04c3.64,6.95,5.24,11.21,6.34,15.41,1.68,6.36,3.66,11.44,4.53,18.86,0,0-.96.02-1.34-.15-.16-.17-.33-.91-.43-1.52-.87-5.24-2.29-11.45-3.81-16.34-1.63-5.44-3.57-10.62-6.43-15.62-.75-1.35-.89-1.88-.43-1.9.82.06,1.18.75,1.56,1.25h0ZM114.14,185.3c.17,0,.24-.03.54.09.48.18.63.3.66.51.04.3-.26.4-1.19.64-.73.19-2.16,1.02-3.15,1.93-.46.42-.86.87-.97.87-.23,0-.77-.66-.77-.93.76-1.28,3.18-3.03,4.87-3.11h0ZM64.04,185.47c3.08.1,5.49,4.03,6.75,6.68.49,1.04,1.13,2.16,1.61,3.35,2.5,6.13,4.62,13.83,5.65,18.74.5,2.36,1.07,4.1.87,4.56-.25.18-.79.04-1.04-.19-.16-.15-.24-.69-.52-1.68-.72-2.53-1.91-9.77-5.01-17.38-.07-.17-1.57-4.98-4.16-9.55-1.05-1.86-2.76-3.03-4.32-3.41-.78-.14-1.02-.04-.97-.5.03-.3.11-.38.53-.52.19-.06.38-.1.59-.11h0ZM83.28,201.16c-.21,0-.4-.44-.54-1.17-.07-.36-.16-.61.44-1.03,3.82-4.46.54-11.01-4.26-11.58-.44-.07-1.02-.08-1.19-.14-.24-.15-.69-1.1-.88-1.48,6.63-1.77,13.67,8.66,6.43,15.4h0ZM116.31,186.59c.4.11,1.25.99,1.15,1.18-.13.23-.87.24-1.94.45-2.28.44-3.26,2.08-4.32,3.29-.24.08-.44-.1-.66-.49-.16-.29-.28-.64-.28-.78,1.19-1.9,4.36-3.81,6.05-3.64h0ZM62.48,187.15c1.94,0,3.88,1.03,4.97,2.71,3.98,6.54,8.45,21.09,9.52,28.26-.11.23-.39.26-.94.08-.31-.1-.27-.21-.46-.87-1.25-5.23-2.62-10.3-4.23-14.95-.83-2.4-1.81-4.74-2.73-6.85-.58-1.33-1.75-3.7-2.2-4.43-1.05-2.16-3.16-2.79-4.49-2.1-1.38.82-1.55,2.78-.5,3.65.87.67,2.25.56,2.75-.48.17-.37.12-.82,0-.94-.11-.11-.3-.08-.34.04.07,1.27-1.4,1.35-2.05.85-1.03-.85-.34-3.52,2.46-2.44,1.08.63,1.45,1.81.93,3.06-.53,1.29-1.34,1.87-2.6,1.86-1.53-.03-3.26-1.21-3.27-3.32,0-1.58.67-2.89,1.92-3.77.46-.33.64-.38,1.27-.38h0ZM78.9,188.13c4.71.24,6.87,6.32,4.39,9.99-.63.88-1.03.72-1.3-.41-.13-.47-.28-.53.1-.89,2.2-2.32.39-6.83-3.24-7.01,0,0-.68-1.08-.75-1.66.24-.1.57-.01.79-.01h0ZM118.13,188.55c.36.1,1.11.89,1.11,1.17,0,.33-.15.27-.98.11-1.98-.39-3.96.87-5.62,3.61-.8,1.65-.9,1.49-1.32.07-.22-.73-.22-.71.62-2.06,1.57-2.21,3.89-3.22,6.19-2.91h0ZM119.97,191.34c1.66,1.65.88,5.29-1.35,5.67-1.97.25-3.73-2.09-2.48-3.69.81-.96,1.82-1.06,2.44-.23.64.85.37,2.02-.54,2.14-.11.04-.19.13-.19.2,0,.21.81.15,1.09-.09.56-.67.57-1.7.07-2.44-.44-.65-1.38-1.17-2.13-.83-1.33.52-2.68,2.5-3.45,4.99-.22.7-.34,1.36-.44,1.51-.19.32-.18.31-.35.19-.15-.11-.44-1.63-.44-2.21,0-.44.35-1.61.8-2.6,1.44-2.93,4.67-4.9,6.98-2.59h0ZM79.63,190.6c1.93.13,3.45,3.12,2.61,5.21-.26.38-.63.64-.81.4-.06-.09-.36-1.07-.77-2.11-.41-1.04-.79-2.05-.9-2.31-.31-.72-.53-1.21-.13-1.2ZM66.54,192.34c2.19,4.27,4.03,9.17,5.55,13.95,1.19,3.72,2.16,7.38,2.72,10.61.05.33.13.5,0,.64-.22.24-1.26-.35-1.26-.35-1.84-6.95-3.32-13.91-7.69-22.76,0,0-.19-.35-.24-.58-.06-.55.09-1.25.4-1.65.12-.15.29-.16.53.14h0ZM41.91,200.41c10.38.77,18.41,5.57,22.7,18.26-1.52-.94-9.25-7.46-22.58-8.32l-.02-1.76c9.55-.09,18.87,5.38,18.68,5.3-3.55-8.05-12.48-11.31-18.8-11.52l.03-1.95ZM113.92,202.97c-.65,1.13-.63,1.08-.94,2.05.04.31.09,2.28.13,3.43.06,1.46.09,2.1.2,2.24.18.24.54.27.7.06.06-.08.17-.4.24-.7.86-3.55,1.26-4.89,1.6-5.33.23-.32.3-.29,1.24-.18,2.12.21,2.83-2.56,1.45-3.68-1.85-1.13-3.81.76-4.63,2.1h0ZM116.15,203.73c-1.51,1.37-1.56,3.33-2.01,5.15-.25,1.22-.59,1.86-.73.02-.26-2.55.07-4.46,1.07-5.95.62-1.1,1.65-1.84,2.57-1.91,1.98-.15,2.18,1.57,1.63,2.5-.4.67-1.51.96-2.53.2h0ZM44.66,204.55c.75,0,1.35.66,1.35,1.48s-.61,1.48-1.35,1.48-1.35-.66-1.35-1.48.61-1.48,1.35-1.48ZM48.97,205.56c.67,0,1.21.59,1.21,1.32s-.54,1.33-1.21,1.33-1.21-.6-1.21-1.33.54-1.32,1.21-1.32ZM52.89,207.02c.54,0,.98.48.98,1.08s-.44,1.08-.98,1.08-.98-.48-.98-1.08.44-1.08.98-1.08ZM55.68,208.96c.42,0,.76.38.76.84s-.34.83-.76.83-.76-.37-.76-.83.34-.84.76-.84ZM45.92,211.62c-.29,1.61-.06,3.26.27,4.41.77,2.46.42,6.86.42,6.86l-2.25,2.48c.16-2.31.41-4.73.3-6.67-.08-1.29-.61-2.49-.75-3.78-.13-1.2.07-3.59.07-3.59l1.95.3ZM49.57,212.36l.08,10.49-7.71,8.21v-2.17s6.56-7.16,6.56-7.16l-.14-9.72,1.21.35ZM68.59,236.29l-.51.91h8.7l.18-.91h-8.38ZM79.85,236.29l-.2.91h4.03l.13-.91s-2.12,0-3.96,0ZM86.45,236.29l-.13.91h14.95l-.22-.91h-14.6ZM103.92,236.29l.24.91h3.98l-.33-.91h-3.89ZM110.58,236.29l.29.91h6.85l-.57-.91h-6.57Z"/>
      </g>
      <g id="Center_Symbols_J" data-name="Center Symbols J">
        <use width="23.64" height="32.54" transform="translate(50.59 40.39)" xlink:href="#Diamond"/>
        <use width="23.64" height="32.54" transform="translate(146.69 228.89) rotate(-180)" xlink:href="#Diamond"/>
      </g>
      <g id="Corner_Symbols_J" data-name="Corner Symbols J">
        <use width="23.64" height="32.54" transform="translate(21.28 46.74) scale(.5)" xlink:href="#Diamond"/>
        <use width="23.64" height="32.54" transform="translate(176 222.54) rotate(-180) scale(.5)" xlink:href="#Diamond"/>
      </g>
    </g>
    <g id="Diamond_Corner_Characters" data-name="Diamond Corner Characters">
      <g>
        <use width="14" height="33.12" transform="translate(176.51 254.75) rotate(-180)" xlink:href="#Red_J"/>
        <use width="14" height="33.12" transform="translate(20.77 14.53)" xlink:href="#Red_J"/>
      </g>
    </g>
  </g>
  <g id="Clubs">
    <g id="Club_Corner_Characters" data-name="Club Corner Characters">
      <use width="181" height="253" transform="translate(8.14 8.14)" xlink:href="#boundary"/>
    </g>
  </g>
</svg>