<?xml version="1.0" encoding="UTF-8"?>
<svg xmlns="http://www.w3.org/2000/svg" xmlns:xlink="http://www.w3.org/1999/xlink" viewBox="0 0 197.28 269.28">
  <defs>
    <style>
      .cls-1 {
        stroke-width: 0px;
      }

      .cls-1, .cls-2 {
        fill: #d2232a;
      }

      .cls-3 {
        fill: none;
        stroke: #000;
        stroke-miterlimit: 10;
      }

      .cls-2 {
        font-family: ArialMT, Arial;
        font-size: 28px;
      }
    </style>
    <symbol id="Diamond" viewBox="0 0 23.64 32.54">
      <path id="path6413-1" class="cls-1" d="M11.82,32.54c-3.51-5.81-7.2-11.45-11.82-16.27C4.62,11.45,8.31,5.81,11.82,0c3.51,5.81,7.2,11.45,11.82,16.27-4.62,4.82-8.31,10.46-11.82,16.27Z"/>
    </symbol>
    <symbol id="Red_5" data-name="Red 5" viewBox="0 0 15.57 33.12">
      <text class="cls-2" transform="translate(0 24.03)"><tspan x="0" y="0">5</tspan></text>
    </symbol>
    <symbol id="boundary" viewBox="0 0 181 253">
      <rect class="cls-3" x=".5" y=".5" width="180" height="252" rx="15" ry="15"/>
    </symbol>
  </defs>
  <g id="Diamonds">
    <g id="Diamond_Symbols" data-name="Diamond Symbols">
      <g id="Center_Symbols_5" data-name="Center Symbols 5">
        <use width="23.64" height="32.54" transform="translate(50.59 40.39)" xlink:href="#Diamond"/>
        <use width="23.64" height="32.54" transform="translate(86.82 118.37)" xlink:href="#Diamond"/>
        <use width="23.64" height="32.54" transform="translate(123.05 40.39)" xlink:href="#Diamond"/>
        <use width="23.64" height="32.54" transform="translate(74.23 228.89) rotate(-180)" xlink:href="#Diamond"/>
        <use width="23.64" height="32.54" transform="translate(146.69 228.89) rotate(-180)" xlink:href="#Diamond"/>
      </g>
      <g id="Corner_Symbols_5" data-name="Corner Symbols 5">
        <use width="23.64" height="32.54" transform="translate(21.28 46.74) scale(.5)" xlink:href="#Diamond"/>
        <use width="23.64" height="32.54" transform="translate(176 222.54) rotate(-180) scale(.5)" xlink:href="#Diamond"/>
      </g>
    </g>
    <g id="Diamond_Corner_Characters" data-name="Diamond Corner Characters">
      <g>
        <use width="15.57" height="33.12" transform="translate(177.87 254.75) rotate(-180)" xlink:href="#Red_5"/>
        <use width="15.57" height="33.12" transform="translate(19.41 14.53)" xlink:href="#Red_5"/>
      </g>
    </g>
  </g>
  <g id="Clubs">
    <g id="Club_Corner_Characters" data-name="Club Corner Characters">
      <use width="181" height="253" transform="translate(8.14 8.14)" xlink:href="#boundary"/>
    </g>
  </g>
</svg>