<?xml version="1.0" encoding="UTF-8"?>
<svg xmlns="http://www.w3.org/2000/svg" xmlns:xlink="http://www.w3.org/1999/xlink" viewBox="0 0 197.28 269.28">
  <defs>
    <style>
      .cls-1 {
        fill: #272964;
      }

      .cls-1, .cls-2, .cls-3, .cls-4, .cls-5 {
        stroke-width: 0px;
      }

      .cls-2, .cls-6 {
        fill: #d2232a;
      }

      .cls-3 {
        fill: #dfce21;
      }

      .cls-4 {
        fill: #000;
      }

      .cls-5 {
        fill: #d12328;
      }

      .cls-7 {
        fill: none;
        stroke: #000;
        stroke-miterlimit: 10;
      }

      .cls-6 {
        font-family: ArialMT, Arial;
        font-size: 28px;
      }
    </style>
    <symbol id="Heart" viewBox="0 0 25.56 32.54">
      <path id="path9714-6-6" class="cls-2" d="M12.78,32.54s-3.16-5.19-7.42-11.29C2.51,17.16.23,12.74.02,8.93-.23,4.58,2.07.22,6.24,0c4.16-.21,5.85,3.35,6.54,6.29C13.47,3.36,15.16-.2,19.32,0c4.16.21,6.47,4.58,6.22,8.93-.21,3.81-2.49,8.23-5.34,12.31-4.26,6.1-7.42,11.29-7.42,11.29Z"/>
    </symbol>
    <symbol id="Red_J" data-name="Red J" viewBox="0 0 14 33.12">
      <text class="cls-6" transform="translate(0 24.03)"><tspan x="0" y="0">J</tspan></text>
    </symbol>
    <symbol id="boundary" viewBox="0 0 181 253">
      <rect class="cls-7" x=".5" y=".5" width="180" height="252" rx="15" ry="15"/>
    </symbol>
  </defs>
  <g id="Hearts">
    <g id="Heart_Symbols" data-name="Heart Symbols">
      <g id="Jack_Face" data-name="Jack Face">
        <path id="path2993-7-5-1" class="cls-3" d="M155.59,40.92l-8.21,5.89-.11,6.87c-4.87-2.57-6.99-6.79-7.75-11.72-1.38,1.91-1.1,11.57-1.1,11.57-1.25.72-1.71,1.65-2.51,2.49.79,1.43,3.01,3.86,3.01,3.86-.02-.04-1.02,10.06.19,10.46,1.11-4.3,2.59-8.06,8.03-12,0,0,.08,16.03-.27,31.52-2.3-1.74-7.17-4.88-10.31-8.08,4.08-5.79-.08-13.33-6.16-8.32-3.94-2.35-4.55-13.45-5.52-19.26-.19-1.17-1.11-4.59-1.11-4.59,0,0-12.99-3.96-18.57-3.63,4.69,13.45,3.78,29.83-16.96,32.9-9.94,5-21.42,10.58-32.58,21-2.06,15.51-9.32,23.15-14.46,27.38.04,6.29-.04,12.51.2,18.86,0,.04,4.68-3.39,5.42-2.76,3.92,28.04,18.27,33.6,16.83,34.38-.23.13-4.7,5.18-4.7,5.18l-17.51-12.7c-.6,19.39-.25,39.16,0,58.58,3.09-1.92,8.78-6.53,8.78-6.53l.09-6.6c-.03-.63,7.96,5.49,7.98,12.79.62.47,1.99-10.49.74-11.68l3.28-3.72-3.53-3.74s.9-6.21-.93-9.78c-1.18,8.18-7.36,10.74-7.36,10.74,0,0-.12-29.91-.28-29.94l11.01,7.67c-5.96,8.94,4.53,11.84,5.76,7.49,6.77,6.95,4.16,15.25,7.12,25.1l19.21,3.88c-7.92-16.17.67-34.6,16.22-33.28,2.91-1.34,5.55-3.26,5.55-3.26,0,0-1.93-3.48-4.37-6.71l-33.27-.6,15.51-32.02-10.2-.36s8.29-19.36,6.5-20.92c-.63-.55-.37-6.79-.37-6.79l9.11.37c.36-4.47-4.41-21.49-11.13-32.63l37.4.37-21.05,32.33,11.31.36-6.75,15.26,1.08,11.9-10.03.36c1.73,16.5,12.86,33.89,16.78,39.26,6.47-1.69,18.55-11.87,26.05-18.2.97-11.07,4.43-20.5,13.49-27.53l.03-18.23s-5.17,3.67-5.17,3.42c.02-3.95-1.85-12.16-5.29-19.48-3.7-7.86-9.77-14.97-11.16-15.42,3.21-5.35,4.58-5.83,4.53-5.91l17.49,12.35.06-58.18ZM67.45,79.79s-3.4,1.43-6.36,1.38c-5.3.3-9.34.77-11.48,5.55-.44,1.46.52,1.99,1.22,2.37,3.99-5.46,14.6,1.75,16.62-9.31ZM43.94,104.84c0,.77.78,2.03,1.17.72.34-.93.41-2.45.03-3.38-1.06-.66-1.19,1.9-1.2,2.66ZM101.29,131.24l-5.17.03-.03,6.68h5.21s0-6.71,0-6.71ZM152.1,164.51c-.11.66-.67,3.65.59,3.13,1.49-1.26.22-7.07-.59-3.13ZM147.23,181.29c-.61-.98-2.5,1.46-4.05,1.55-6.89.41-11.97-.61-12.83,7.33,3.97-2.79,9.54-1.52,13.13-2.42,2.59-.95,5.57-3.53,3.75-6.45Z"/>
        <path id="path3504-0-2-5" class="cls-1" d="M40.14,238.14V31.14h117v207s-117,0-117,0ZM45.49,103.99c.1-1.99-.64-2.82-1.29-1.45-.15.32-.65,3.78.54,3.9.78.08.71-1.6.75-2.45ZM43.61,106.32c0-.47-.27-.67.31-4.77-1.11-.47-2.07-2.46-1.26-3.71.32-.49.22-.6.09-1.01-.32-1.02-.15-1.85.71-2.49.55-.41.57-.52.4-1.07-.45-1.41-.03-2.78,1.19-3.24.85-.32.68-.37.77-.96.2-1.32.86-2.12,2.07-1.99,1.12.12,1.19.12,1.29-.48.27-1.67,2.1-3.49,4.5-4.72,1.19-.61,3.16-1.05,6.94-1.04,2.16-.04,4.86-.36,6.38-1.82.25-.26.6-.93.72-.84.28.21.21,1.87-.34,3.39-1.61,4.41-3.79,5.62-9.96,5.58-1.84-.1-4.55.18-5.69,1.46-.34.4-.57.78-.44.98,2.55.4,5.18,1.67,6.7,7.22,4.63-3.61,12.01-9.15,21.17-14.16-1.1-6.63,4.12-7.65,7.05-6.33,0,0,.07-.43-.04-.93-.11-.49-.27-1.13-.81-1.95-.14-.3-.96-.87-.8-1.32.27-.74.15-.94-.41-1.62-.36-.44-.12-1.39-.03-1.77.12-.71.54-1.72.16-2.11-.58-.59-2.56-1.59-3.57-2.39-1.12-.9-1.15-1.71.5-4.67.75-1.72,1.46-3.57,2.06-4.81.91-1.87,1-3.1.45-4.18-.72-1.4-.6-3.06-.58-3.02,0,0-6.77-10.43-9.55-14.6h-31.79v79.39s5.47-5.73,5.47-5.73l-1.48-1.93c-.21,1.12-.02,2.21-1.27,2.28-.43.02-.82-.18-.89-.64ZM62.41,212.55c.18-3.15-1.19-8.31-3.25-11.88.09,2.71.27,6.03-.23,8.68l3.48,3.2ZM112.36,220.77c-.25-.09-2.33-.23-3.63-.3-4.33-.25-7.13-2.54-9.01-5.7-.46-.78-.27-.74.75.14,2.87,2.47,5.56,3.95,7.92,3.58,3.35-.53,5.15.83,4.69,2.4-.08.28-.11.1-.72-.11ZM101.03,213.75c-.67-.64-.72-.93.08-.34,2.43,1.78,5.36,4.69,8.99,2.98.75-.53.06-.46-1.2-.31-1.92.23-4.27-.85-7.15-3.04-1.41-1.07-.79-1.97.8-1.13.49.26.99.45,1.3.47,1.56-1.14,4.84-1.13,4.76-1.12.37-.35-.85-.92-2.67-1.67-1.18-.49-1.47-.69-.59-.73.77-.03,1.98.39,2.86,1.01,1.46,1.03,2.19,1.6,2.63,1.67.72.06,1.44.18.22.8-.56.28-.51.36-.44,1.05.1,1.08.16,1.07.61,1.67.76.92,1.09,2.64,0,1.57-.23-.12-.26.11-.9.39-3.76,1.17-6.55-.65-9.29-3.26h0ZM107.96,214.05c.21-.3.52-1.08.57-1.3-.07-.5-.48-.35-.68-.06-.35.47-.84,1.17-.44,1.41.19.11.38.21.55-.05ZM106.68,213.73l.83-1.64c-.21-.11-3.03.54-2.59.98.39.4,1.76.65,1.76.65ZM109.86,208.23c-1.29-.76-1.66-2.39-.7-3.48.81-.91,2.18-.83,3.82.28.58.39.93.59,1.33.43.66-.27.91.14.86.71-.12,1.26-1.9,1.56-3.02.13-1.48-1.9-3.09-.57-2.62.8.24.7.71.81,1.24,1.07,0,.14-.54.28-.91.06ZM103.99,199.78c2.13-.63,5.31,1.85,7.03,1.51.75-.18.64,1.01-.13,1.44-.91.5-2.19.16-4.92-1.4-2.25-1.34-4.07.88-2.56,2.53.32.33.79.54,1.37.51.76-.04.98.19,0,.47-.56.16-1.61-.09-2.12-.66-1.21-1.35-.91-3.94,1.34-4.39ZM58.83,192.52c-.06-2.79,1.29-4.34,1.33-4.36l-9.59-7.16.14,28.61c4.75-3.32,6.31-7.51,6.58-12.91,9.38,11.57,6.45,25.65.59,33.67-.24-4.91-1.57-10.71-6.99-13.68v5.85s-9.12,7.02-9.12,7.02v6.88s21.32,0,21.32,0l10.23-16.78c-1.85-7.46-1.57-13.66-2.82-17.08-.94-2.81-2.72-6.43-3.87-5.87-3.9,3.4-7.73-.57-7.8-4.2ZM66.9,195.83c3.32,2.63,4.21,6.94,4.89,10.76.02.03,1.74,12.97,1.8,13.14.22.71.15,1.42-.42,1.96-3.07,4.63-9.06,14.57-9.06,14.57l58.78.38c-3.14-5.02-5.59-9.99-8.56-14.12.13-.22-.23-3.04-.73-3.95-.51-.94-.63-1.43-.28-2.29.86-2.12,1.74-4.41,2.54-6.35,1.52-3.72,1.69-3.75-.38-4.96-2.46-1.58-2.9-2.09-2.38-3.89.19-.66.21-.92-.55-1.09-.35-.08-1.21-.31-1.79-.48-1.66-.58-1.18-.22-1.79.25-.46.25-.86-.71-1.4-1.86-.62-1.31-.78-1.34.25-.67,1.91,1.25,5.3.76,4.11-.68-.58-.71-1.12-1.07-1.06-2.67.06-1.59.08-2.05-.9-2.27-1.96-.44-4.09-.26-5.91.24-5.55,1.52-10,6.82-11.69,10.76-.38.69.49.65.87.65,1.82-.18,3.11,3.01,1.92,4.44-.55.64-1.1.25-.51-.58.67-1.37-.33-3.18-1.79-2.72-1.84.58-1.89,3.2-2.12,5.03-.63,5.27,1.8,12.3,2.4,13.74,0,0,.13.21.09.21s-.34.3-.46.14c-.43-.53-1.5-4.84-2.09-7.92-1.13-8.51.87-16.34,7.3-20.78,5.7-4.53,8.57-3.55,11.8-3.76,1.1-.44,2.64-1.1,3.8-1.73,10.15-5.83,19.39-11.52,27.9-19.09,6.22-5.17,9.19-9.36,14.52-14.64l-.54-29.5s-.54-.49-.53-.96c.35-1.97-2.8,1.32-4.82,2.42-1.27-13.53-7.92-26.84-15.98-34.62l.33-.5s2.7,1.96,4.04,2.89v-1.89s-3.24-2.24-3.24-2.24c-.14-.69-.06-.8.64-.8l2.6,2.11v-1.72s-2.1-1.48-2.1-1.48l.67-.93,1.13.8c-.48-1.36.2-1.32.89-.41.29.41.66.94.82,1.45.06.19.24.66.24.66l1.84,1.51s-.07-.74,0-.96c.31-1.07,2.54,2.38,2.26,2.46l1.89,1.5c.45-.75,2.13.74,2.2,1.48.15.32,6.51,4.82,6.51,4.82l.07-2.49.69-.98.31-57.46-8.44,5.94-.09,6.96c-3.99-1.42-7.44-7.78-7.95-11.75-.26-.16-1.41,7.82-.8,11.32-1.05.86-2.83,2.88-2.82,2.89l3.2,3.85s-.64,5.9-.49,8.83c.13,1.39.15,1.53.53,1.53.31,0,.58-.36.58-.68.75-3.51,3.22-8.98,7.49-10.85.28,0-.02,31.3-.02,31.3l-10.59-7.96c-.53-.5.69-.47,1.44-3.12,1.92-6.83-4.74-9.25-7.31-5.29-.42,0-2.19-2.41-2.46-3.41-1.96-4.35-2.33-9.27-2.72-13.23-.23-1.8-.83-4.74-1.33-6.52-.27-.95-.29-1.63.28-2.51,2.46-5.59,7.2-9.43,9-15.07l-58.93-.21c3.73,3.39,6.97,12.86,10.37,14.07-1.63.23-1.08,1.8-.44,3.49.78,2.07.69,2.5-1.28,6.78-2.89,6.26-3.05,5.71-.16,7.65,1.78,1.26,2.11,1.53,1.84,3.24-.26,1.71-.34,1.18,1.14,1.32.79.07,1.41.23,1.77.41.4.2.7.48,1.22.29.87-.31.89-.08.93.62.01.3.43.92.55,1.15.34.61.18.71-.44.28-1.89-1.31-5.06-.75-3.9.68.48.59.96,2.55,1,3.52.07,1.74,1.1,2.36,3.26,2,4.14-.34,13.48-6,15.65-12.36-4.78,1.79-3.8-4.67-2.1-4.47,0,0-.46,1.15-.47,1.8-.05,2.31,1.71,2.49,2.92.85.53-.86,1.17-4.05.85-7.66-.38-4.37-1.99-9.25-2.28-10.46,6.84,17.98.56,25.88-9.05,31.04-3.68,1.69-4.19,1.68-6.36,1.79-1.48.13-2.82.94-4.25,1.46-8.22,4.32-18.33,9.71-27.37,17.75-6.49,5.29-11.64,10.05-16.76,16.16l-.02,31.72c1.54-.26,4.04-1.92,5.52-2.87,1.7,11.85,7.23,25.56,16.39,33.77,0,0-.22.45-.22.44-1.31-.95-2.61-1.9-3.87-2.64l-.07,1.51,3.08,2.33c.08.36-.53.87-.53.87l-2.55-1.94-.02,1.54,1.97,1.38c.53.59-.65.89-.65.89l-1.17-.93s.08.75.05.88c-.3,1.13-1.99-1.37-2.3-2.62l-1.66-1.08c.24.74-.36.84-.83.66-1.25-.7-1.18-1.87-1.44-2.56l-2.21-1.54c-.38,2.32-2.62-.95-2.27-1.73l-2.83-2.12c.16.06-1.08.35-1.5.05-.48-.35-.65-1.76-.65-1.76l-1.7-1.16v2.03s17.46,13.42,17.46,13.42l-.25.52-18.21-13.72.74,59.54,8.88-6.76c-.17-2.23.2-4.22.04-6.76,4.56,3.13,6.1,5.25,8.11,11.82,1.3-3.74,1.07-7.32.49-10.64,1.17-1.05,2.3-2.07,2.89-3.66-1.1-1.66-2.17-2.13-3.33-3.67-.09-1.88.91-7.48-.43-9.33,0,0-2.45,8.14-7.74,10.59-.16-8.59.02-30.2.02-30.2,0,0,5.43,4.13,8.2,5.8,1.3.77,2.21,1.24,2.23,1.79,0,.28-.51.63-.74,1.02-.14.24-.74,2.57-.51,4.38.11,1.34.68,2.19,1.23,2.83,1.74,2.04,4.93,1.08,6.2-.5ZM77.41,180.62l20.89-32.17c2.48,11.84,6.68,22.68,12.15,32.51l-33.04-.34ZM87.74,146.8s1.46-3.18,2.13-4.87h-2.56s1.53-1.89,1.53-1.89h3.81s-2.04,4.78-2.04,4.78h1.62s2.24-4.78,2.24-4.78h5.94s-2.08,4.78-2.08,4.78h1.37s2.22-4.78,2.22-4.78h5.52s-1.94,4.78-1.94,4.78h1.29s1.13-2.41,1.13-2.41l.28,4.39h-5.48s2.17-4.87,2.17-4.87h-1.77s-2.45,4.87-2.45,4.87h-5.14s2.23-4.87,2.23-4.87h-1.95s-2.45,4.87-2.45,4.87h-5.61ZM104.66,129.67l2.21-5.15h-1.75s-2.45,5.04-2.45,5.04h-5.47s2.15-4.99,2.15-4.99h-1.36c-.92,1.58-2.4,4.77-2.4,4.77h-5.81s1.64-3.39,2.29-5.04h-1.43s-1.17,2.05-1.17,2.05c-.41-.76-.14-2.79-.21-3.65h5.47s-2.2,4.94-2.2,4.94h1.75s2.4-4.94,2.4-4.94h5.78s-2.35,4.94-2.35,4.94h1.37s2.33-4.67,2.33-4.67h5.88s-2.06,4.67-2.06,4.67h1.82s-.8,2.03-.8,2.03h-3.98ZM99.25,120.7l-1.11.23c-1.42-13.35-8.13-26.96-10.97-32.58l33.38.52-21.31,31.83ZM138.44,43.63s-3.18,4.51-3.4,12.07l3.03-2.67c-.19-7.67.36-9.4.36-9.4ZM135.08,56.26c-.05,5.63,1.29,9.21,2.98,12.02.03-3.62.36-7.29.56-8.25l-3.54-3.77ZM52.44,163.9l-10.79-8.19v1.79s12.83,9.59,12.83,9.59l-2.03-3.2ZM50.49,159.51c-2.89-1.6-8.85-6.55-8.85-6.55v1.64s9.48,7.34,9.48,7.34c.19.2.44.15.52-.08-.37-.69-.82-1.64-1.16-2.35ZM47.84,152.4l-6.2-4.76v1.48c1.59,1.57,6.82,5.3,6.82,5.3l-.62-2.02ZM41.64,146.55l5.83,4.15-.36-1.84-4.14-3.1-1.33.78ZM146.47,89.01l.31-29.58c-6.08,3.16-7.28,12.39-7.08,12.68-6.05-6.87-8.33-21.67.16-31.62.64,3.19.85,7.82,6.86,12.06l.15-6.27,8.38-5.92v-7.4h-20.22c-3.13,4.36-6.26,9.44-9.35,14.07-1.16,1.74-1.45,2.55-1.23,3.46,2.04,8.05,1.63,17.97,5.9,22.66,5.73-5.93,11.1,3,6.65,8.51l9.47,7.35ZM59.3,216.93c.78,2.69.24,8.13.19,8.13.93-.55,3.44-8.42,2.81-11.38M91.51,69.2c-1.43-.45-2.5-1.12-4.01-.96-1.19.14-1.59-.3-.87-1.01.95-.88,1.86-1.25,3.62-.24,5.28,3.04,5.44-1.4,3.06-1.71-.67-.09-.64-.56.03-.44,3.69.16,2.56,5.54-1.83,4.36ZM85.34,64.77c-.7-.28-1.54-.75-1.85-.66-.78.23-.81-.24-.72-.8.23-1.36,1.48-1.11,3.15.06,2.38,1.67,3.3-.73,1.13-2.03-.73-.44-.5-.56-.08-.58,1.13-.05,2.19,1.64,1.89,3.03-.76,2.22-2.6,1.35-3.52.98ZM92.32,60.67c-1.54-.29-3.77-2.58-4.81-2.73-.58-.07-1.27,0-1.45-.25-.57-.79,1.04-.79,1.15-1.07,0-.66.04-1.08.02-1.31-.28-.42-1.41-2.12-1.37-2.95.03-.05.59.46.88.46,2.75-1.6,4.63-.89,6.96.24.96.47,3.44,2.58,3.47,2.92.05.57-1.05-.5-1.91-1.13-2.13-1.63-4.04-2.78-6.7-1.82-.42.16-.34.24,1.02.15,1.34-.09,2.43.36,4.14,1.59.42.3.94.82,1.24.98,2.15,1.13,2.61,2.23,1.25,1.93-.29-.06-.86-.4-1.42-.62-.98-.38-.63-.27-1.58.22-.33.17-1.13.53-1.78.61-.5.09-2.13.08-1.41.83.76.84,2.03,1.46,2.9,1.85.63.31.14.24-.59.1ZM92.5,57c1.01-.41.22-1.34-1.06-1.54-.29-.05-.92,1.48-.93,1.8-.01.24,1.44-.03,2-.26ZM89.73,57.17c.23-.16,1-1.39,1-1.59,0-.79-.91-.57-1.12.25-.26,1-.28,1.61.12,1.33ZM86.52,50.81c-.83-.4-1.95-2.16-.66-1.86.28.07,1.72.15,2.65.16,3.17.02,6.32,1.6,8.33,3.89,1.12,1.28,1.19,2.23.06,1.34-4.02-3.97-6.48-3.23-10.37-3.53ZM117.81,187.64l-1.12.66c0,.68.23.58.72,1.06,0,0-.69.12-1.19.09-.82-.06-1.01-.04-.64.59.17.29.4.73.4.73,0,0-.44.11-1.11-.1-1.01-.31-1.53-.15-1.15.47.11.17.31.49.31.49-.74-.18-2.1-.91-2.1-.91l-.96.32c1.91,4.11,8.71,1.52,6.84-3.39h0ZM150.95,181.78c1.05-.97.54-2.16-.99-3.03-.64-.36-.58-.37-1.61.3-1.28.83-1.37.87-.46,1.93,1.1,1.28,2.29,1.52,3.06.8ZM147.05,179.04c.97-.47.61-.39.54-1.5-.28-1.28.38-1.37.7-2.57.13-.65-.37-.41-1.34.59-.8.74-1.04.93-1.04.56.09-.3-.55-1.08-1.13-1.18-.49-.09-.44-.21.03-.89.83-1.18,1.17-2.66.61-3.97-.7-1.65-.93-1.9-2.48-.45-.79.8-1.92,1.42-2.46,2.42-.39.73-.16,1.44.45,2.88,1.53,3.59,3.9,5.2,6.11,4.12h0ZM152.48,179.07c1.7-.73,1.02-2.76-1.65-4.8-1.6-1.23-2.06-1.22-.7.12.87.85,1.01,1.15.63,1.77-.31.51-.64,1.11-.33,1.58.49.74,1.32,1.65,2.04,1.34ZM56.57,175.7l-1.86-1.29v1.77s1.86,1.22,1.86,1.22v-1.7ZM149.37,177.3c.37-.29.68-1.09.69-1.44.08-.82-1.13-.62-1.71.28-.65,1.02.12,1.86,1.02,1.16ZM153.53,174.52c.85-.98.43-2.02-1.3-3.25-.67-.48-1.01-.8-.93.16.03.29-.27.68-.45.91-.6.74-.33.87,1.38,2.07.87.61.83.66,1.31.11ZM56.57,172.64l-1.86-1.23v1.6s1.86,1.38,1.86,1.38v-1.75ZM52.51,174.24l.02-1.61-2.41-1.76-.03,1.79,2.42,1.58ZM147.11,173.59c-.31.92.94.5,1.01.41.22-.47.03-.51-.08-.56-.22-.1-1.07.06-.93.15ZM147.66,172.43c.43-.15.48-.09.42-.94-.09-1.28.09-1.38.86-1.95.62-.45.62-.38.61-1.17-.01-.95.05-1.36,1.18-1.55.46-.08.73-.2.77-.61.06-.68-.92-1.82-2.15-2.48-.18,0-2.93,2.63-3.7,3.54l-.47.56.56,1.16c.87,1.8.73,2.47.22,4.86-.11.64.34.55.46-.22.15-.72.24-.98,1.24-1.2ZM151.85,166.05c-.21,1.45.47,2.35,1.12,1.62.35-.39.65-3.6.4-4.11-1.33-1.56-1.47,2.14-1.52,2.48ZM130.5,190.11c4.93-3.18,11.26-.58,14.83-3.19,1.66-2.02,3.34-3.31,2.39-4.7-.73-1.08-1.21-1.25-1.21-1.25.05.08-2.6,2.54-6.45,1.97-6.41-.24-9.45,1.97-9.56,7.17ZM138.92,182.54c3.14.12,5.69-.48,6.86-1.48.72-.62.83-.73-.3-.83-2.44-.22-4.91-3.33-5.68-6.35-.16-.62-.34-1.29-.34-1.29-6.49,5.71-20.79,14.69-20.79,14.69.95,4.86-2.25,7.75-6.58,6.03-.75-.08-.66.99-.51,1.43.24.72.76,1.32.86,1.42.64.61.76,1.01.67,1.59-.1.58-.09.56.28.77.65.38.62.93.26,2.06-.38,1.59-.41,1.98.63,2.74,1.33.94,3.95,1.97,3.56,3.39-.87,3.21-2.31,5.98-3.57,8.98-.47.83-.37,2.21,0,2.85.46.98.41,2.16,1,3.06,3.28,5.36,6.11,10,9.1,14.85h30.9s0-79.04,0-79.04c0,0-5.21,5.23-5.2,5.6.02.44,1.13,1.13,1.61,1.22.02-.24,0-1.18.06-1.51.04-.48,1.44-.35,1.9.06.32.29.22,2.19-.1,3.74-.27,1.27-.23,1.28.26,2.01.6.89.81,1.65.73,2.66-.04.55-.04.99.1,1.35.33.86.24,2.07-.13,2.63-.53.82-.54.94-.43,1.38.44,1.51.27,2.8-1.26,3.46-.2.08-.41.46-.54.78-.67,2.42-1.92,2.42-3.63,1.72-1.21,5.21-6.15,6.51-9.7,6.36-3.7-.16-7.47.14-9.14,2.81.39-6.32,2.96-9.36,9.13-9.13h0ZM150.09,172.05c.63-.26.71-.98.18-1.44-.81-.71-1.74.01-1.36,1.04.21.58.57.65,1.18.4ZM52.62,169.76l-2.47-1.88v1.68s2.47,1.74,2.47,1.74v-1.54ZM57.27,171.14l-1.74-2.3c-5.14-3.46-9.6-7.34-13.88-10.46l-.03,2.14,1.22.68s.1-.47.19-.74c.16-.51,1.57.92,2.02,2.07.11.29.36.92.36.92l1.65,1s.02-.51.03-.66c0-1.09,1.77.41,2.57,2.2.19.43.45.89.45.89l1.55,1.04c.61-.92,2.17.34,2.57,1.46.51,1.42,1.4,1.54,1.43,1.55l1.62.22ZM47.98,170.83v-1.64s-2.57-1.86-2.57-1.86l-.03,1.66,2.6,1.84ZM153.83,170.97c.07-.43-.32-2.1-.89-2.19-.36-.06-.93.54-.93.96,0,.55,1.75,1.7,1.82,1.23ZM151.74,168.98c.56-.68-.15-1.56-1.01-1.25-1.02.36-.67,1.38.47,1.4.25,0,.41,0,.53-.15ZM47.85,167.78v-1.56s-2.37-1.73-2.37-1.73l-.05,1.53,2.41,1.76ZM43.18,167.23l.02-1.5-1.56-1.2v1.8s1.54.9,1.54.9ZM43.24,162.73l-1.59-1.14v1.63s1.67,1.05,1.67,1.05l-.07-1.53ZM49.71,157.78c-.17-.48-.84-2-.84-2l-7.23-5.56v1.71s8.09,5.99,8.09,5.99l-.02-.14ZM46.33,144.58l-.08-.7-.64.38.73.32ZM44.8,144.75l-1.01.6,3.05,2.19-.25-1.55-1.8-1.23ZM150.85,126.32l.79-.63-1.39-1.04-.1,1.05.71.61ZM152.26,125.32l1.03-.94-3.46-2.69.25,1.67,2.18,1.96ZM154.72,123.92v-1.15s-5.61-4.17-5.61-4.17l.39,2.1c.99.63,2.2,1.55,3.46,2.53.8.62.8.86,1.76.7ZM154.72,121.79v-1.82s-6.49-4.75-6.49-4.75l.53,2.14,5.97,4.43ZM154.72,119.06v-1.91s-7.86-5.72-7.86-5.72l.86,2.53,7,5.1ZM154.72,114.26l-9.91-7.3,1.27,2.8,8.64,6.36v-1.86ZM154.72,111.47l-12.44-9.11,1.4,2.55,11.04,8.22v-1.66ZM154.72,108.51h-.47c-.04,1.3-1.32.36-1.8-1.08-.36-.96-.45-1.2-.45-1.2l-2.5-1.86c.05.38.2,1.46.2,1.46l-1.69-1.13s-.49-1.8-.5-1.81l-2.88-2.16c.06.37.11.97-.08,1.01,0,0-.88-.41-1.28-1.05-.42-.67-.48-1.34-.48-1.34l-2.35-1.68-.59.07s-.32-.24-.61-.5c-.56-1.1-1.21-1.26-1.99-1.71,0,0,1.66,2.13,2.54,3.38.81,1.16,1.8,1.99,1.8,1.99l13.14,9.65v-2.04ZM154.72,105.54l-1.02-.67.07,1.76.94.7v-1.79ZM52.3,101.66c.06-.11-.2-.24-.48-.93-.71-1.71-.78-2.31-.4-4.11.18-.86-.53-1.23-.85-.31-.25.71-.65,1.11-1.02,1.06-.36-.05-.43.12-.28.66.19.75-.22,1.72-.79,1.99-.58.16-.68.56-.52,1.14.27.96-.68,1.78-1.42,1.73-1.15-.07-.7,1.08.69,2.17.51.41.74.63,1.14.42,1.05-1.09,2.99-2.65,3.93-3.83ZM151.9,105.19l-.06-1.68-2.89-2.15.36,2.25,2.59,1.58ZM154.72,104.48v-1.69s-1.19-.84-1.19-.84l.06,1.8,1.13.73ZM46.04,101.86c.28.31.55.34.99.04.51-.29.31-.73-.22-1.02-.49-.29-1.19.59-.77.97ZM45.18,101.12c-.04-.35.35-.83.62-.85.59-.04.49-.39-.19-.84-.32-.21-.88-.71-1.09-.87-1.01-.81-1.99.44-1.24,1.5.63.89,1.56,1.41,1.89,1.06ZM151.61,102.17l-.22-1.87-2.61-1.91.21,2.06,2.63,1.72ZM56.82,97.61c.14-.26.19-.51.17-.82-.05-1.18-.6-2.56-1.38-3.72-.57-.86-1.27-1.6-1.98-2.03-1.99-1.13-4.66-.64-4.27.81.28.98.21,1.81-.55,2.3-.52.34-.59.79-.04.79.4,0,1.46-.4,1.9-1.17.62-1.08.98-1.71.84.05-.06.74.03.68,1.06.62,1.41-.08,1.15.21.32.91-1.2,1.02-1.44,2.74-.83,4.2.37.91.63,1.39,1.12,1.27,1.06-.76,2.78-2.3,3.62-3.23ZM147.01,99.79l-2.57-1.86.1,1.99,2.77,1.8-.31-1.93ZM48.51,97.97c-.94-1.31-2.04.36-1.33,1.09.52.5,1.83-.01,1.33-1.09ZM46.29,98.16c-.12-.41.56-1.06.67-1.32.31-.76-2.47-2.86-3.34-1.62-.6.86-.18,1.72,1.43,2.9.97.71,1.44.71,1.24.04ZM146.76,96.9l-2.37-1.63.04,1.72,2.52,1.67-.19-1.76ZM142.58,98.43v-1.75s-2.39-1.83-2.39-1.83l-.04,1.82,2.43,1.77ZM49.66,96.36c.43-.47.29-.63-.55-.58-.53.03-.69-.07-.73.2-.08.59.83.86,1.28.38ZM47.67,95.69c.04-.12-.26-.36-.75-.81-.93-.86-1.04-1.4-.14-2.07,1.28-.96-.06-2.32-1.55-1.77-1.2.45-1.2,1.78-.49,2.63.98.72,2.75,2.78,2.93,2.02ZM142.58,93.94l-2.35-1.77v1.73s2.35,1.51,2.35,1.51v-1.46ZM48.11,94.05c1.05-.59,1.1-2.06.05-1.52-.43.22-1,.83-1,1.1,0,.53.41.72.95.42ZM48.88,90.67c1.36-.8,1.15-1.55-.2-2.48-1.65-1.04-2.81.96-1.45,2.31.71.71.88.62,1.65.17ZM50.64,89.22c2.21-2.61,3.67-2.48,6.58-2.41,7.51.07,9.81-3.88,9.58-6.65-3.65,2-6.91.92-10.38,1.5-6,1.47-6.7,4.58-7.12,6.35l1.34,1.2ZM80.76,80.34c1.94.02,1.85.08,1.05-1.67,1.88.28,2.64,1.28,2.02-.79,1,.39,1.6.69,2.63,1.07l.66-.42c-3.99-4.27-8.41-.65-7.24,3.66l1.48-.78-.6-1.07Z"/>
        <path id="path3502-5-8-1" class="cls-5" d="M90.49,236.49l.93-4.95,8.28.44s.96,3.1,1.35,4.5h-10.55ZM71.38,236.37l4.39-7.98,6.23,1.86-1.43,6.24-9.19-.12ZM83.51,236.49l1.89-8.52c-3.57-.86-6.93-1.43-10.87-2.6l-6.39,11.12-3.84-.11c3.31-4.86,9.36-14.67,9.36-14.67,13.88,5.26,27.86,6.14,41.95,3.37,0,0,5.19,7.54,7.05,11.62l-3.66-.2-4.55-8.38c-3.17.38-6.28.84-9.58.99l2.26,7.39h-3.63s-2.06-7.37-2.06-7.37c-3.96-.17-7.29.17-12.04-.65l-1.67,8.01h-4.21ZM109.69,236.5l-1.25-5.24,4.47-.57s2.07,4,3.21,5.81h-6.42ZM69.61,187.81c5.55-9.3,25.15-39.09,25.15-39.09l2.88.13s-17.55,26.91-26.01,40.48l-2.02-1.51ZM41.29,173.35l6.84,5.42.05,42.22-6.95,5.39.06-53.03ZM69.68,104.27l4.14,8.92c-17.59,18.35-14.14,39.89-4.72,55.25,0,0-1.22,3.44-3.87,7.09-12.75-9.26-16.63-33.32-16.53-33.58,14.05-13.8,15.95-18.19,20.98-37.68ZM141.58,170.05c.91-13.59,6.94-22.47,13.71-27.89l.35,13.82c-4.43,4.68-9.11,9.51-14.05,14.07ZM123.21,156.36c15.41-15.84,15.93-38.34,4.71-54.85l4.59-7.06c6.51,7.67,12.9,15.71,15.61,34.4-9.76,8.47-18.38,22.46-20.67,36.58l-4.24-9.06ZM101.98,137.93l-.03-6.47,5.76-.03-.16,6.46-5.57.04ZM89.79,137.88l-.08-6.45,5.7.05-.09,6.54-5.53-.13ZM99.66,120.6s19.1-29.43,26.59-40.05l1.59,1.29-25.4,38.93-2.79-.16ZM55.05,100.02c-.02,11.61-6.78,20.81-13.69,26.82l.09-13.22,13.59-13.6ZM155.39,43.98l.04,51.54-6.45-4.28.55-43.22,5.87-4.04ZM124.63,47.04c-14.57-4.17-27.84-5.42-41.79-2.13-1.82-2.39-7.93-12.33-7.93-12.33l3.53.06,4.99,8.8,9.51-1.37-2.45-7.16,3.92.02,1.95,7.02c-.02-.06,7.74.08,12.05.65.69-2.61,1.96-7.78,1.96-7.78h4.32c-.55,2.49-2.05,8.41-2.05,8.41,3.54.54,10.1,2.38,10.16,2.46,2.3-3.58,4.44-7.16,6.52-10.75l4.21-.02c-1.24,2.31-8.67,14.25-8.91,14.14ZM121.94,40.86l-6.44-1.65,1.68-6.25h9s-4.24,7.9-4.24,7.9ZM84.98,38.6l-2.99-5.8h5.76s1.91,5.1,1.91,5.1l-4.67.69ZM98.05,37.42l-.87-4.62h10.46s-1.07,4.92-1.07,4.92l-8.52-.3Z"/>
        <path id="path3500-9-6-1" class="cls-4" d="M74.14,32.41l9.3,14.78s5.21-1.13,10.29-1.41c5.05-.27,11.07.08,11.12.24,0,0,1.59,5.28,2.13,7.88.71,3.47.64,7.45-.11,10.1-1.1,3.88-1.68,5.04-4.14,7.71-1.82,1.95-4.4,4.06-7.06,5.19-3.68,1.69-4.06,1.68-6.22,1.79-1.43.07-1.58.14-2.36.58-.24.09-.4.37-.62.45-.18.07-.53,0-.53,0-11.96,5.77-21.33,12.21-28.4,17.96-.08.07-.14.37-.21.44-.58.52-1.11.92-1.68,1.39-.08.07-.25-.05-.33.01-8.32,7.06-13.04,12.78-14.77,14.44l.17,32.87s3.79-2.14,5.73-3.45c1.36,12.73,7.13,25.09,16.24,33.68l-3.95,5.99-18.2-13.8.25,60.65,9.68-7.4v-6.4c2.88,2.14,5.7,2.97,7.75,12.71,1.64-3.42,1.49-8.51.76-11.92.01,0,2.46-2.22,3.21-3.93l-3.6-3.51s.93-8.5-.76-10.22c-1.34,3.86-2.41,7.95-7.42,10.93l-.06-29.54c2.5,1.74,4.86,3.7,7.33,5.49l.34-.08,2.56,1.93s-.27.6-.52,1.02c-3.1,5.18,2.07,11.54,6.28,7.72,1.65-1.5,4.74,4.73,5.32,10.72.59,3.87.91,8.68,1.87,12.04.3.98.18,1.53-.45,2.13-3.23,5-9.71,15.06-9.71,15.06h4.67l.34-.59h-3.44c2.97-4.34,5.8-9.41,8.87-13.65,11.46,4.75,30.24,5.85,41.58,2.97,2.34,3.62,4.62,7.41,6.87,11.09h-3.26l.45.77h4.41l-9.29-15.06c-6.41,2.1-22.02,1.28-21.74,1.11,0,0-.04-.12-.58-1.82-2.68-9.53-2.93-17.99,3.8-24.82,3.57-3.5,7.56-5.8,12.02-5.37,1.99-.04,2.03-.16,2.86-.57.46-.23,1.41-.46,1.41-.46l4.51-2.76.6-.13,1.3-.75.27-.35,2.1-1.17.24.02,2.84-1.8.04-.25,1.12-.76.27.31c.31.03,11.12-7.78,15.63-12.14l.28.11c5.26-4.69,12.42-12.08,14.54-14.89l-.11-14.07-.18-.17-.07-15.58h-.41l-.02-1.92c-2.33.95-4.89,3.33-5.06,3.23-1.48-13.19-7-25.34-16.01-34.26l3.84-5.84,17.82,13.2.05-3.86h.22c.22-14.79.34-53.13.34-53.13l-.18-.02v-3.06s-9.11,6.4-9.11,6.4l-.13,6.47c-4.04-1.45-6.6-6.8-7.45-11.56-1.18.52-1.72,5.53-1.29,11.88-1.25.82-2.05,1.72-2.81,2.8.99,1.37,2.09,2.5,3.3,3.65-.25.6-.79,9.07-.26,10.12.24.78,1.08.66,1.09-.15,1.23-6.61,6.92-10.94,7.24-10.54l-.14,30.47-10.11-7.81c2.12-2.64,2.57-7.09-.1-9.27-2.68-2.18-5.31-.33-5.93,1.06-3.28-2.36-4.39-11.09-4.87-14.5-.12-1.66-.51-3.92-.95-5.96-.28-1.28-.61-2.5-.66-3.64-.02-.54.04-.77.48-1.45l9.83-15.36-5.02-.02-.05.09h3.95s-8.87,13.88-8.87,13.88c-13.34-4.61-27.17-5.73-41.97-2.8l-7.31-11.32,3.32-.02-.13-.24h-4.17,0ZM81.86,32.54l.14.28,5.75-.02-.09-.23s-5.79-.02-5.8-.02ZM90.38,32.58l.11.33,3.92.02-.12-.33-3.91-.02h0ZM110.39,32.7l-.04.15h4.32s.04-.14.04-.14h-4.32ZM97.15,32.7l.04.19h10.42l.04-.18h-10.5ZM117.22,32.8l-.04.16h9s.08-.16.08-.16h-9.03ZM155.18,41.25l.03,2.09-6.04,4.23c-.15,8.92-.38,43.22-.38,43.22l-1.45-1.04.28-42.95s5.35-3.78,7.56-5.53h0ZM139.33,42.93h.2l.06.48h-.35l.09-.48h0ZM139.75,44.19l.16.65h-.88s.15-.64.15-.64l.58-.02h0ZM155.01,44.53v1.36l-5.21,3.59v-1.35l5.21-3.6ZM138.91,45.66l1.36.02.23.75h-1.72l.13-.77ZM105.43,46.06l.91.15c2.09,5.49,2.63,10.2,2.99,15.11.83,6.37,2.51,12.75,3.68,15.46l-1.34-.02c-.15-.02-2.98-9.24-3.57-14.68-.16-1.08-.09-2.08-.14-3.08-.3-4.21-.82-7.37-2.54-12.94h0ZM107.14,46.28l1.16.13c.81,3.9,2,7.58,2.48,11.49.77,6.26,1.18,12.66,3.93,18.83h-1.09c-1.66-4.18-2.69-8.54-3.36-13.24-.52-2.7-.52-4.73-.8-7.17-.33-2.93-1.36-6.66-2.33-10.05h0ZM108.91,46.47l1.16.19c.77,3.87,2.08,8.13,2.43,11.63.71,7.13,1.72,13.76,3.77,18.48l-.82-.03c-3.15-6.73-3.2-12.72-4.09-19.02-.52-3.71-1.62-7.42-2.46-11.25h0ZM110.77,46.77l1.03.17c.72,3.85,2,8.21,2.3,12.12.53,6.91,1.64,12.15,3.98,17.73l-.96.02c-2.82-5.44-3.2-12.11-4.08-18.87-.49-3.73-1.58-7.49-2.26-11.17ZM155.01,46.77v1.69l-5.21,3.69v-1.66l5.21-3.71ZM112.45,47.1l1.07.18c.69,3.71,1.98,7.68,2.28,11.29.52,6.18,1.55,12.42,3.87,18.17l-.99.07c-2.45-5.81-3.51-11.09-3.98-17.76-.26-3.74-1.57-8.3-2.26-11.95ZM140.85,47.12l.37,1-2.5.13.03-1.12h2.09s0-.01,0-.01ZM114.22,47.47l1.28.27c1.35,5.92,1.71,11.53,2.63,17.16,1.15,7,2.37,10.51,3.36,11.82l-1.06.04c-2.58-6.06-3.49-12.08-4.09-18.32-.35-3.68-1.45-7.31-2.12-10.97h0ZM116.17,47.87l.97.22c1.16,4.84,1.68,9.37,2.2,13.75.93,8.32,3.45,14.65,3.98,14.95l-1.07-.05c-2.33-3.55-3.19-9.58-4.34-18.1-.5-3.75-1-7.27-1.74-10.76h0ZM117.74,48.22l1.09.3s.99,4.26,1.73,9.91c.62,4.71.94,13.98,5.6,19.31,2.32,2.66,6.41,4.97,9.2,2.46,1.19-1.12,1.96-2.91,1.24-4.83-1.21-3.21-5.29-2.66-3.93.71.15.81-.81.84-1.48.05-.7-.84-.53-1.8-.03-2.69,1.05-1.86,3.86-2.05,5.51-.39,2.64,2.84,1.5,7.72-1.84,9.26-3.84,1.8-8.8-1.91-10.76-5.45-3.25-6.17-3.75-12.02-4.51-18.25-.39-3.36-1.13-6.9-1.83-10.39h0ZM119.38,48.71l1.11.3s1.22,6,1.62,9.55c.5,4.38,1.05,9.55,2.75,13.54,1.06,2.48,2.6,4.57,4.16,5.78,1.34,1.04,2.54,1.71,4.33,1.28,2.06-.49,2.15-4,.18-4.01-1,0-.35-1.07.48-1.1,2.96-.11,3.05,5.03.26,6.18-3.19,1.31-6.65-1.16-8.79-4.27-3.74-6.4-3.59-12.23-4.42-17.39-.22-2.72-1.61-9.72-1.69-9.85ZM141.8,48.89l.68,1-3.76-.02.02-.95,3.07-.03h0ZM121.03,49.22l1.06.41s1.07,4.65,1.71,10.14c.76,5.3,1.01,9.7,3.5,13.53,1.04,1.59,2.99,3.71,4.23,3.97.76.18,1.55,0,1.75-.64.32-1.05,1.13-.57,1.15.38,0,.66-.45,1.35-1.2,1.59-3.66.7-7.01-4.36-8.03-6.93-1.38-3.73-1.97-7.91-2.56-13.1-.25-2.2-1.46-9.21-1.61-9.35ZM155.01,49.41l-.02,1.68-5.2,3.61v-1.63l5.21-3.65ZM122.63,49.74l1.19.36s.99,4.09,1.58,9.14c.6,5.12,1.89,11.07,4.29,14.15.22.29.37.5.46.68.17.42-.03,1.13-.21,1.13-4.29-2.46-5.3-12.33-5.67-15.67-.54-5.16-1.65-9.78-1.65-9.78ZM139.3,50.53l3.78.12.9.98-5.01-.05c-.53-.6-.2-.53.32-1.05ZM155.01,51.89v1.39l-5.21,3.64v-1.42l5.21-3.61ZM139.43,52.33l5.53.11,1.94,1.27-8.46-.08.98-1.3h0ZM155.01,54.1v1.67l-5.21,3.6v-1.57l5.21-3.7ZM137.38,54.41l9.4.11.02,1.12-10.2-.29.77-.94ZM136.16,56.33l10.64.03.03,1.24-9.67-.1-.99-1.17h0ZM155.01,56.52v1.74l-5.21,3.56v-1.65l5.21-3.65ZM138.16,58.35l8.15.04-.89,1.04-6.15-.07-1.12-1.01h0ZM155.01,58.96v1.64l-5.21,3.61v-1.62l5.21-3.63ZM144.29,60.22l-.99,1.06-4.23-.06.14-.96,5.07-.03ZM155.01,61.37v1.76l-5.21,3.51v-1.53l5.21-3.74ZM139.02,62.01l3.49.08-.53.81-3.05.02.1-.91h0ZM107.67,63.42c.53,4.43,3.45,13.36,3.44,13.36h-1.15c.06.1-2.09-5.61-2.86-11-.09-.51.22-2.25.57-2.36h0ZM138.79,63.67l2.68.05-.58,1.14h-2.19s.09-1.2.09-1.2h0ZM155.01,63.94v1.54l-5.21,3.53v-1.4l5.21-3.67ZM138.71,65.5l1.78.06-.42,1.06-1.38-.04.02-1.07ZM155.01,66.33v1.64l-5.21,3.56v-1.59l5.21-3.62ZM106.57,66.68c.52,3.23,2.75,9.71,2.92,10.13h-.99c-.04.16-2.31-5.8-2.55-8.35-.12-.53.14-1.59.62-1.79h0ZM138.69,67.36l1.05.05-.18.6-.85.02-.02-.68h0ZM138.78,68.82l.55.02-.13.57h-.34l-.08-.59h0ZM155.01,68.85v1.33l-5.21,3.63v-1.26l5.21-3.7ZM105.27,68.99c.79,2.59,1.58,5.22,2.52,7.75l-1.17-.03c-.77-1.82-1.32-3.86-1.92-5.87-.17-.84.19-1.55.57-1.84h0ZM104.1,70.72l1.94,5.97h-1.1c-.45-1.2-.96-2.54-1.32-3.78-.37-1.28-.33-1.33.48-2.19ZM155.01,71.09v1.58l-5.21,3.55v-1.36l5.21-3.77ZM102.79,72.36c.25-.03.27.33.5,1.04l1.06,3.31-1.36-.04c-.4-1.04-.64-1.95-.74-2.96-.04-.49-.12-.98.19-1.19.15-.1.26-.15.35-.16h0ZM101.35,73.61c.23,0,.32.46.5,1.15l.57,1.94-1.27-.04c-.37-.92-.52-1.58-.4-2.53.29-.36.48-.52.61-.52h0ZM155.01,73.62v1.65l-5.21,3.45v-1.53l5.21-3.57ZM100.04,74.8l.53,1.91-1.15-.03c-.19-.45-.07-.99-.08-1.5l.69-.38ZM98.54,75.78s.03,0,.04.02c.16.84,0,.9.01.89h-1.6s1.3-.92,1.55-.91h0ZM155.01,76.27v1.32l-5.21,3.58v-1.33l5.21-3.56ZM93.02,78.36l31.33.1,1.04,1.62s-3.05.09-13.03.02c-8.4.12-25.29-.2-25.29-.2l1.64-.85c2.27-.06,4.34-.71,4.31-.7ZM155.01,78.55v1.45l-5.21,3.48v-1.4l5.21-3.52ZM66.85,79.94c-2.52,1.23-4.87,1.53-6.63,1.37-3.78-.34-9.57,1.4-10.73,5.41-.37,1.41-.37,1.45.32,2.17.34.36.68.63.74.6.61-.59,1.42-1.7,2.28-2.02,1.14-.38,1.75-.43,3.62-.52,4.02-.2,4.92-.38,5.92-.67,2.2-.64,4.41-3.02,4.55-5.68.02-.3-.07-.66-.07-.66ZM66.74,80.3c-.42,5.53-5.87,6.26-8.26,6.1-4.85-.32-6.76,1.28-7.53,2.26-.25.27-.4.2-.36-.04.56-3.06,5.06-3.18,7.32-3.15,5.55.28,6.95-2.67,6.8-2.7-.42.21-.73.39-1.16.61-.18.08-.15-.04-.62-.34,0,.04-.56,1.41-1.26.11.02.06-.5,1.15-1.47.14,0,.11-.58,1.04-1.53.09-.89.84-1.31.38-1.7-.21-.28.19-1.1,1.41-1.79.09-.73.51-1.04,1.07-1.67.73-1.47.29-2.74,1.95-3.26,3.47-.16.52-.49.61-.53.03-.17-1.59,2.2-4.34,4.58-5.1,1.85-.59,3.11-1.02,7.19-.85,2.32.1,5.25-1.26,5.25-1.26ZM126.18,80.72l1.47,1.1-25.56,38.8-2.26-.06,26.34-39.83h0ZM85.18,80.75h2.91v5.29h-2.51l-.89-1.46c.23.15.5.24.79.24.86,0,1.56-.77,1.56-1.71s-.7-1.71-1.56-1.71-1.56.76-1.56,1.71c0,.08,0,.17.02.25l-.94-1.53s.4-.26,1.35-.73c.25-.12.84-.34.84-.34ZM94.14,80.75h4.92v5.29h-4.92v-5.29ZM104.92,80.75h5.1v5.32l-5.1-.03v-5.29h0ZM115.93,80.75h5.09v5.29h-5.09v-5.29ZM154.93,80.88l.08,1.65-5.21,3.49v-1.63l5.14-3.51ZM118.29,81.42c-.91,0-1.65.81-1.65,1.81s.74,1.81,1.65,1.81,1.65-.81,1.65-1.81-.74-1.81-1.65-1.81ZM96.61,81.52c-.91,0-1.65.81-1.65,1.81s.74,1.81,1.65,1.81,1.65-.81,1.65-1.81-.74-1.81-1.65-1.81ZM107.35,81.55c-.91,0-1.65.81-1.65,1.81s.74,1.82,1.65,1.82,1.65-.81,1.65-1.82-.74-1.81-1.65-1.81ZM112.9,81.77c.76,0,1.38.68,1.38,1.52s-.62,1.52-1.38,1.52-1.38-.68-1.38-1.52.62-1.52,1.38-1.52ZM91.05,81.79c.76,0,1.38.68,1.38,1.52s-.62,1.52-1.38,1.52-1.38-.68-1.38-1.52.62-1.52,1.38-1.52ZM123.8,81.85c.33,0,.63.14.85.36l-1.51,2.25c-.37-.25-.62-.69-.62-1.21,0-.78.57-1.41,1.27-1.41ZM102.16,81.85c.76,0,1.38.68,1.38,1.52s-.62,1.52-1.38,1.52-1.38-.68-1.38-1.52.62-1.52,1.38-1.52ZM85.47,81.96c.57,0,1.03.51,1.03,1.13s-.46,1.14-1.03,1.14-1.03-.51-1.03-1.14.46-1.13,1.03-1.13ZM82.31,82.03c8.78,12.31,13.45,24.79,15.5,38.39l-1.47-.08c-2.44-14.79-7.93-27.48-15.38-37.72l1.35-.6h0ZM118.29,82.04c.6,0,1.09.54,1.09,1.2s-.49,1.2-1.09,1.2-1.09-.54-1.09-1.2.49-1.2,1.09-1.2ZM96.61,82.13c.6,0,1.09.54,1.09,1.2s-.49,1.2-1.09,1.2-1.09-.54-1.09-1.2.49-1.2,1.09-1.2ZM107.35,82.16c.6,0,1.09.54,1.09,1.2s-.49,1.2-1.09,1.2-1.09-.54-1.09-1.2.49-1.2,1.09-1.2ZM134.67,83.03c.58,4.87-.56,8.02-3.94,8.53-4.3.65-4.86,1.01-4.89,5.49-.03,5.32-.74,6.85-4.16,7.27-3.85.47-4.74.97-4.4,6.24.25,3.84-1.12,5.48-4.09,6.19-2.32.56-4.32,1.41-5.18,3.98l-2.12.03c.55-4.05,4.25-5.98,6.62-6.12,2.55-.67,3.09-1.61,2.67-6.54-.31-3.71.92-4.84,4.88-5.69,3.17-.69,3.94-1.69,3.77-4.54-.37-6.11,0-7.03,3.15-7.77,1.61-.42,4.22-.61,5.22-1.96,1.14-1.54.85-2.85.74-4.74l1.71-.39h0ZM155.01,83.19v1.6l-5.21,3.54v-1.56l5.21-3.58ZM78.38,84.14c-1.11,5.3,2.72,6.45,5.05,7.35,2.71,1.04,3.37,2.55,3.06,7.81-.23,3.98.17,4.86,2.51,6.23,3.58,2.04,4.55,4.93,2.95,9.16-.98,2.61-.47,3.34.15,5.62l-1.74-.02c-.13.04-1.59-2.84-.34-5.95,1.48-3.68,1.44-5.53-1.87-7.18-2.56-1.28-3.34-2.49-3.5-5.13-.07-1.11-.06-1.66.18-4.08.3-3.04-.69-4.35-4.77-6.02-1.82-.75-3.06-2.48-3.43-5.23-.1-.77,0-1.66,0-1.66l1.75-.9h0ZM139.5,84.71l15.54,11.39-.11,2.53-16.49-12.13,1.05-1.79ZM129.49,84.96c.75,0,1.36.67,1.36,1.5s-.61,1.5-1.36,1.5-1.36-.67-1.36-1.5c0-.83.61-1.5,1.36-1.5ZM80.59,85.62c.68,0,1.23.61,1.23,1.36s-.55,1.36-1.23,1.36-1.24-.61-1.24-1.36c0-.75.55-1.36,1.24-1.36ZM154.96,85.77l-.05,1.53-5.12,3.48v-1.53l5.17-3.48h0ZM86.13,86.78h35.41l-.91,1.35-33.83-.38-.67-.97ZM73.85,86.84c4.7,6.75,9.32,13.69,12.88,26.79l-1.52.64c-2.94-10.54-7.47-19.3-12.8-26.54l1.44-.89h0ZM155.01,88.04v1.67l-3.92,2.63-1.15-.83,5.08-3.47ZM71.77,88.22l.69,1s-.75.65-1.6,1.32c-2.32,1.83-2.62,2.03-2.78,3.22-.37,2.82,2.27,4.22,4.92,2.58.95-.48,3.03-1.93,3.03-1.93l.6.97s-2.98,2.46-4.73,3.02c-3.84,1.23-6.71-4.13-3.87-7.31.43-.49,1.35-1.14,2.08-1.66.75-.53,1.66-1.22,1.66-1.22ZM87.57,88.89l32.63.21-20.84,31.36-.93-.06c-1.62-11.73-5.62-21.98-10.87-31.51h0ZM73.35,90.22l1.91,2.93s-1.24,1.31-3.3,2.54c-1.65.99-3.43-.81-2.39-2.43,1.06-1.61,3.78-3.04,3.78-3.04ZM155.01,90.52v1.53l-2.26,1.52-1.03-.73,3.29-2.33ZM73.11,91.69c-.9.05-2.4,1.18-2.92,2.16-.22.42-.14.77.06,1.06.31.44.67.41,1.76-.23,2.22-1.3,2.63-2.07,1.65-2.83-.13-.11-.3-.15-.48-.16-.03,0-.05,0-.08,0h0ZM73.04,92.32c.14-.02.31.03.45.02.38.17.27.7-.13.82-.09-.15-.75-.17-.71.57-.16.42-.16.39-.64.45-.32-.09-.54.16-.6.32-.34.2-.75.14-.83-.09-.07-.22.2-.84.44-.84.11,0,.31-.18.52-.33,0-.41.43-.47.55-.46.12.03.54.03.74-.34.06-.08.14-.11.22-.12ZM155.01,92.68v2.36l-1.64-1.15,1.64-1.21ZM64.48,92.98c5.94,7.73,10.22,15.95,12.95,27.33l-1.19.91c-1.8-7.98-4.57-16.41-12.77-27.37l1.02-.86ZM134,93.11c2.69,2.52,13.72,13.94,15.82,34.22l-1.48,1c-1.18-10.7-5.01-22.97-15.29-33.85l.95-1.37ZM128.68,93.81c.75,0,1.36.67,1.36,1.5,0,.83-.61,1.5-1.36,1.5s-1.36-.67-1.36-1.5.61-1.5,1.36-1.5ZM62.82,94.4s1.25,1.41,1.25,1.75c0,.67-.49,1.04-3.36,2.2-.48.19-2.6.73-2.6.73l-.08-1.13c1.08-.43,3.99-1.2,4.2-1.88.1-.27-.41-.94-.3-.94l.89-.73ZM82.62,94.69c.68,0,1.23.61,1.23,1.36s-.55,1.36-1.23,1.36-1.24-.61-1.24-1.36.55-1.36,1.24-1.36ZM132.63,95.08c8.98,9.66,13.93,21.6,15.08,33.92-10.46,9.37-17.57,21.14-20.39,35.87-1.4-2.56-2.58-5.5-3.87-8.38,13.96-13.5,16.9-37.83,4.82-54.87l4.36-6.54h0ZM77.7,96.92l.63,1.07s-.13.13-2.09,1.47c-2.86,1.96-3.33,3.23-2.38,5.23.98,2.05,2.07,2.15,5.14.52,1.09-.58,2.01-1.19,2.01-1.19l.49,1.12s-1.38,1.23-4.02,2.3c-2.49,1.01-4.85-.71-5.29-3.88-.32-2.3.59-3.54,4.23-5.81.41-.24,1.29-.84,1.29-.84ZM120.5,97.43c.75,0,1.36.67,1.36,1.5,0,.83-.61,1.5-1.36,1.5s-1.36-.67-1.36-1.5.61-1.5,1.36-1.5ZM64.99,97.48l.82.85s-.35.57-2.38,1.92c-1.82,1.21-2.01,1.01-1.1,1.85,1.69,1.57,4.03,5.05,4.02,5.95-.01.87-.72,1.67-2.07,2.34-.74.37-3.67,1.52-4.1,1.6-.85.1-1.1.48-.24,1.34,1.45,1.83,2.69,5.76,2.19,6.96-.56,1.35-1.24,1.58-6.62,1.85-.61.03-.91-.16-.57.7.24.63.49,1.49.97,4.15.43,2.38.35,3.44-.48,3.93-.48.28-4.22.18-5.77-.15-1.77-.38-1.96-.41-1.68.86.37,1.75.6,6.45-.6,7.35-.5.36-1.04.27-3.24-.54-1.4-.52-2.62-1.12-2.62-1.12l.03-1.46c1.14.52,4.27,2.01,5.16,1.54,1.06-1.67-.41-7.51-.97-8.76-.68-1.49.03-1.82,1.59-.89.82.63,7.86,3.69,7.46.96-.43-2.6-1.2-5.55-2.68-7.41-1.37-1.72-.69-2.42.84-1.67,2.71,1.33,8.3,1.01,8.02-.38-.37-2.25-2.22-5.29-4.76-7.65-.71-.66-.73-.94.1-1.1,2.37-.21,9.15-.97,8.2-2.73-.81-1.43-1.9-3.02-2.82-3.87-1.52-1.4-3.05-2.01-3.73-2.3l.04-1.07c3.09-.28,4.69-1.3,6.96-3.06h0ZM57.52,98.54c-1.11,12.77-5.96,23.3-15.98,30.64l-.06-1.43c8.81-7.28,13.04-17.64,14.18-27.65l1.85-1.56h0ZM66.03,99.15l.82.81s-.21.35-1.4,1.4c-.92.78-.6.47.03,1.4.56.74,1.55,2.22,1.55,2.22l-.3,1.97c-1.04-1.63-1.91-2.82-3.46-4.57-.79-.89-.74-.92.38-1.56.84-.51,1.53-1.13,2.36-1.68h0ZM78.87,99.34s0,0,0,0c0,0,1.61,3.19,1.61,3.48-.96.98-3.47,2.4-4.49,2.07-1.58-.56-1.83-2.42-.31-3.51,1.31-1.05,2.95-1.97,3.17-2.03,0,0,.01,0,.02,0h0ZM88.52,100.42c.68,0,1.23.61,1.23,1.36,0,.75-.55,1.36-1.23,1.36s-1.24-.61-1.24-1.36.55-1.36,1.24-1.36ZM78.53,100.53c-1.18.34-2.33,1.5-2.98,2.01-.24.19-.05,1.12.18,1.44.29.41.83.34,1.47-.05.27-.16.76-.43,1.08-.6.9-.46,1.28-.8,1.25-1.19-.14-.52-.51-1.65-1-1.61ZM54.84,101.03c.25,1.43-.53,3.95-.98,5.37-2.64,3.79-6.46,5.74-10.09,7.06-.81.3-1.89.15-1.89.15,5.03-5.69,9.34-9.87,12.96-12.58ZM78.59,101.12c.33.02.57.48.46.76-.57.34-.88.05-.81.52,0,0,.06.74-.77.75-.2-.1-.55-.08-.73.11-.58.26-1.09-.3-.46-.61.17-.09.59-.23.71-.52.06-.35.33-.64.62-.44.16.01.5.04.61-.23-.04-.3.15-.33.29-.34.02,0,.04,0,.07,0h0ZM44.53,101.76c-.14-.01-.25,0-.28.05-.24.25-.63,4.21-.38,4.49.35.4,1.33.5,1.42.03.31-1.55.23-2.71.38-4.02.03-.24-.71-.52-1.14-.56h0ZM44.92,102.19c.13.03.23.22.31.55-.01.65-.08,2.01-.31,2.76-.14.59-.56.45-.71-.09-.16-.56-.03-2.16.28-2.82.16-.31.31-.44.43-.41ZM68.19,102.2l.86,1.18c-1.82,19.06-14.19,35.55-27.39,42.09l-.04-1.26c15.1-8.73,24.19-23.27,26.57-42h0ZM127.95,102.28l1.64,2.48-2.34.08.71-2.56ZM57.72,103.08c.81,0,5.11,2.92,4.54,4.37-.46,1.16-4.06,1.25-5.71,1.09l.25-1.11s.5.19,2.42-.03c2.01-.15,1.87-.91-.44-2.52-.99-.68-1.22-.85-1.22-.85l.17-.94h0ZM69.64,104.65c1.33,2.47,2.59,5.26,3.78,8.38-16.26,16.9-15,39.91-4.75,55.01l-4.42,6.57c-8.84-9.28-13.65-20.7-15.27-32.83,12.9-10.22,18.96-25.46,20.66-37.13h0ZM130.04,105.4l.97,2.04-2.33-.04,1.36-2ZM119.97,106.42c.75,0,1.36.67,1.36,1.5s-.61,1.5-1.36,1.5-1.36-.67-1.36-1.5c0-.83.61-1.5,1.36-1.5ZM82.13,106.82l.46,1.16c.02.15-3.29,1.3-4.36,2.78-.98,1.37-.89,2.79-.34,3.78.94,1.4,1.61,1.6,3.21,1.06,1.3-.44,2.25-1.03,3.54-1.75l.2.59s-1.85,1.2-3.26,2.07c-.53.33-1.17.47-1.72.45-3.21-.09-4.91-4.65-2.27-7.35.39-.39,1.7-1.19,2.8-1.81.74-.42,1.72-.97,1.72-.97ZM124.66,107.54c10.61,16.85,3.35,35.3-3.5,41.84l-.18-1.98c11.53-14.46,7.52-31.35,2.72-38.86l.97-.99h0ZM131.49,108.3l.83,2.08-2.46-.29,1.63-1.79ZM88.73,108.98c.68,0,1.24.61,1.24,1.36s-.55,1.36-1.24,1.36-1.23-.61-1.23-1.36c0-.75.55-1.36,1.23-1.36ZM123.39,109.25c9.3,14.87,4.11,38.58-13.62,45.81l-.09-1.66c18.08-8.32,19.86-30.48,12.59-42.98l1.12-1.16h0ZM83.09,109.34l1.17,3.49c-1.48,1.09-2.06,1.28-3.71,1.72-1.31.33-2.32-2.16-1.32-3.11,1.14-1.09,2.38-1.56,3.86-2.1ZM52.94,109.35c.22-.01-.01.58-.57,2.08-1.24,3.3-1.32,3.37-4.43,3.91-1.62.28-2.83.35-3.98.23-1.74-.18-2.48-.72-1.36-.99,3.26-.79,6.87-2.65,9.22-4.45.61-.48.97-.78,1.12-.78ZM112.03,109.75c.84,0,1.53.75,1.53,1.68,0,.93-.69,1.68-1.53,1.68s-1.53-.75-1.53-1.68.68-1.68,1.53-1.68ZM65.82,110.22l-.13,1.3s-1.89,1.1-2.78,1.51c-.68.3-.73.37-.51,1.07.44,1.39,1.29,3.12,1.29,3.12l-.79,1.97c-.48-1.77-.99-3.64-1.87-5.28-.84-1.29-1-1.45.31-1.72,1.69-.62,3-1.08,4.48-1.96ZM82.66,110.64c-.92.04-2.85.9-3.04,1.71-.11.46.01,1.11.37,1.25.96.39,2.89-.48,3.39-1.27.16-.24-.08-.75-.25-1.07-.13-.24-.1-.64-.47-.63ZM82.71,111.34s.03,0,.05,0c.16-.02.73.78.09.71-.22-.02-.42.07-.6.27-.02.38-.52.52-.76.4-.18-.1-.43.1-.45.22-.36.28-.81.27-.87.07-.12-.14.24-.72.56-.7.07,0,.29-.16.5-.36.1-.4.48-.33.72-.31.27.12.52-.27.77-.3h0ZM132.65,111.4l.68,2.08-2.44-.24,1.75-1.84ZM121.36,111.86c.82.26,1.27,1.1.82,1.94-.5.71-.97.71-1.7.68.6.79.87,1.87.28,2.58-.89,1-2.61-.53-2.48-.67l3.09-4.53ZM55.17,112.62s3.75,3.56,3.78,5.15c.01.61-.17.8-.61.97-1.47.54-5.58-.84-5.58-.84l.53-1.1c.65.2,3.82,1.1,4.1.66.28-.46-2.65-3.62-2.66-3.62l.44-1.2ZM73.79,114.11l.45,1.72-1.53-.42,1.08-1.3ZM133.69,114.41l.4,2.38-2.46-.63,2.06-1.75ZM86.86,114.45l.37,1.4c-16.29,8.32-21.05,27.42-12.56,43.19l-.96,1.45c-11.37-20.29.15-40.89,13.15-46.04ZM49.76,115.86c.32,0,.38.2.38.41,0,.29-1.65,2.6-2.18,3.12-1.16.51-5.61-1.54-6.28-3.12-.13-.46.31-.26,1.3-.04,2.5.79,5.04-.29,6.78-.36h0ZM93.17,115.88c.68,0,1.24.61,1.24,1.36s-.55,1.36-1.24,1.36-1.23-.61-1.23-1.36.55-1.36,1.23-1.36ZM72.18,115.91l.22,2.12-1.89-.12,1.67-2ZM41.84,117.56c1.24,1.23,3.06,2.24,4.68,2.6,1.01.24.71.36-.22,1.42-.87,1-.8,1.13-1.69.64-1.48-.83-3.1-2.71-3.03-3.73.03-.43.09-.92.26-.92ZM134.4,117.79l.31,2.26-2.32-.89,2.02-1.37ZM69.88,118.6l.76,2.02-2.06-.06,1.3-1.96h0ZM120.85,119.09c.97-.05,1.35.78,1.35,1.45,0,.28-.06.76-.06.76,1.21-.85,2.82-.15,2.77,1.22-.07,1.93-.93,1.95-2.33,1.69.77,1.4-.14,2.75-1.59,2.24-1.32-.47-1.06-2-.45-2.91-3.11.56-3.94,5.42-.35,6.87-.72-1.23-.9-2.7.66-2.94,1.45-.23,2.07.98,1.44,2.44,1.36-.52,2.65.34,2.24,1.8-.5,1.77-1.92,1.64-2.77.57.6,1.6-.79,2.76-1.85,2.13-1.66-.98-.84-2.72.27-3.19-4.28-.49-5.28,6.04-2.12,6.97-.81-.56-.9-3.13.95-2.78,1.82.4,1.38,2.26.22,3.11,1.41-.33,2.73,1.02,1.87,2.39-1.01,1.61-2.4.46-2.92-.63.16,1.47-.69,2.41-1.78,1.86-1.88-.95-.49-3.32.98-3.17-2.98-1.94-7.03,2.13-4.65,5.5-.09-1.53.6-2.79,1.55-2.61.84.1,1.58,1.16,1.34,1.99-.22.71-.95,1.25-1.72,1.42,2.28.28,2.47,2.05,1.53,2.93-1.6,1.49-2.35-.23-2.72-1.23-.33,2.49-3,1.64-3.09-.16-.09-1.97,1.98-1.93,2.36-1.82.05-.07-1.6-1.87-3.36-2.12v-1.14c6.95-4.79,9.34-13.15,7.13-21.08l.42-.53c1.13.95,2.27,2.99,4.36,2.24,0,0-.49-.38-.73-.64-1.08-1.17-.47-2.55,1.03-2.62h0ZM75.14,120.53l.72,1.16c-10.52,13.57-8.6,29.09-2.55,39.37l-.88,1.17c-5.35-7.56-9.73-25.88,2.72-41.71h0ZM41.79,120.7c.87.55,1.45,1.39,2.26,2.11.63.56.62.66.1,1.19-1.16,1.24-1.82-.55-2.2-1.29-.46-.98-.51-1.98-.16-2.02h0ZM82.82,120.78c.79.08,1.32.93,1.28,1.63-.01.3,0,.55,0,.55,0,0,.23-.31.41-.68.9-1.65,2.83-.7,2.51,1.2-.15.89-1.51,1.24-1.88.98.35,1.06,1.31,1.31,2.47,1.77.41.09,1.1.3,1.1.3l.03.72c-6.31,4.38-9.88,11.8-7.57,21.95l-.7,1.04c-1.27-3.37-2.43-3.3-4.53-3.43,0,0,.52.4.82.79.63.83.35,2.26-.53,2.41-2.03.35-2.05-1.24-1.79-2.32,0,0-.36.34-.54.46-.81.58-1.81-.02-1.91-1.17-.09-1.08.25-1.78,1.25-1.91.34-.04.86.05.86.05,0,0-.2-.42-.31-.66-.48-1.04.58-1.93,1.55-1.71,1.53.41,1.41,1.86.52,3.01,2.38.2,3.63-1.52,3.45-3.22-.21-2.07-1.08-3.19-2.95-3.56,0,0,.3.52.43.77.48.94-.21,2.08-1.22,2.08-1.03,0-1.69-1.05-1.3-2.08.1-.25.48-.56.43-.59-.04-.02-.57.16-.72.19-1.24.21-2.04-.99-1.52-2.19.37-.85,1.48-1.08,2.28-.66.13.05.28.25.31.21.02-.04-.08-.32-.11-.52-.25-1.1.22-1.69,1.31-1.61,1.51.11,2.08,1.47,1.06,2.69-.26.32-.67.78-.67.78.05.24,2.16.42,3.24-.83,1.25-1.44,1.44-4.43.19-5.41-.21-.16-.62-.48-.62-.48.6,1.32-.5,2.83-1.47,2.55-1.94-.51-1.77-2.26-.5-2.81,0,0-1.29-.53-1.66-1.1-.53-.81-.35-1.56.28-2.13.8-.7,1.92-.24,2.47.63.33-1.1.79-1.85,2.17-1.25.96.5.95,1.92-.11,2.68-.34.25-.94.47-.94.47,0,0,.91.57,2.01.58,2.13.03,3.82-2.74,2.96-4.86-.17-.43-.61-.98-.61-.98,0,0-.05.74-.18,1.02-.49,1.06-1.63,1.07-2.3.41-.61-.6-.43-1.41.04-1.96.36-.42.68-.5,1.18-.76-.57-.21-1.2-.36-1.48-1.01-.26-.62-.08-1.38.6-1.85.31-.18.6-.23.86-.21h0ZM134.94,121.04l.14,2.39-2.42-1.02,2.28-1.37ZM68.2,121.18l.87,2.18h-2.25s1.38-2.18,1.38-2.18h0ZM115.2,121.19c2.11,8.6-.86,14.78-6.5,19.61l-.62-.9c4.41-4.12,7.71-8.98,6.25-17.64l.87-1.07ZM50.39,121.21s3.27,4.66,2.61,6.23c-.86,1.5-6.02-1.73-5.95-1.9l.65-.68c.82.37,3.36,1.91,3.93,1.67.2-1.41-1.31-3.23-1.87-4.44l.63-.87ZM89.28,121.22l24.8.5-.74,1.44h-1.93s-3.83,7.47-3.83,7.47h-17.82s-.47-9.41-.47-9.41h0ZM61.46,121.97l-.86,1.71c-.8.27-3.22.32-3.42.5.29.87.61,3.44.61,3.44l-.95,1.34c-.25-1.65-.68-3.74-1.05-5.28-.32-1.3-.23-1.01,2.28-1.23,1.13-.07,2.29-.23,3.39-.49h0ZM66.54,124.03l1.02,1.99-2.07.02,1.05-2.02ZM41.71,124.16c.11-.05.75.74.86.97-.05.52-.78.8-.89.62-.05-.07-.06-1.24.01-1.56,0-.01,0-.02.01-.02ZM135.25,124.19l-.02,2.49-2.46-1.2,2.48-1.3ZM154.75,124.75l-.03,1.62c-8.91,4.79-22.2,17.65-25.99,40.72l-.78-.94c3.79-22.02,16.86-35.05,26.8-41.39h0ZM65.15,126.98l1.11,1.84-2,.24.89-2.08ZM135.29,127.68l-.2,2.21-2.42-1.48,2.61-.73ZM88.76,128.14c0,.52.05.9.08,1.43-5.49,3.91-7.34,10.07-6.43,17.82l-.76,1.24c-1.79-7.03.02-15.68,7.11-20.48ZM43.83,128.45s2.09,5.18,1.27,6.4c-.8.72-2.66-.48-3.5-.97l-.02-1.24s.64.36,1.29.65c1.33.65,1.33-.12.6-2.29-.26-.76-.51-1.64-.51-1.64l.87-.91ZM152.4,128.6c.56.36,2.37.95,2.37.95l-.02,1.47-3.74-1.48,1.38-.94h0ZM63.84,130.2l1.43,1.65-1.99.5.56-2.15ZM150.61,130.39c.13-.01.28,0,.42.01,1.27,0,3.71,1.13,3.71,1.13l-.02,1.63c-1.24-.4-2.68-1.15-3.99-1.37-1.04-.16-.97.48-.98,2.09,0,2.18.49,4.15,1.44,6.33.78,1.81.38,2.29-.91,1.48-2.31-1.74-7.22-3.06-7.98-2.04-.78,1.04.75,6.23,2.53,8.71.72,1.01.76,1.17.43,1.56-.27.32-.71.34-1.49.06-2.55-.9-6.25-1.1-7.32-.34-1.06.75,1.69,5.95,4,7.63,1.5,1.18,1.21,1.76-1.21,1.82-3.95.02-7,.99-6.83,2.18.29,2.02,2.85,4.79,5.79,6.26,1.8.81,1.05,1.13-.15,1.6-2,.74-3.92,1.93-5.8,3.05l-.9-1.27s1.89-1.33,3.95-2.6c.48-.3.46-.41-.22-1.03-2.19-2.02-3.8-4.28-4.14-5.8-.33-1.48.34-2.41,2.34-3.25,1.23-.52,1.68-.67,2.77-.93,1.57-.39,1.59-.44.92-1.77-.3-.59-.79-1.58-1.09-2.18-2.33-4.39-1.1-5.98,4.31-6.07,1.33-.08,1.58-.08,1.51-.59-.29-2.07-1.12-4.44-1-6.2.25-2.64,2.72-3.28,7.06-2.09,1,.28,1.07.22.9-.67-.79-3.77-.07-7.2,1.95-7.36h0ZM135.1,130.68l-.38,2.56-2.31-1.69,2.69-.87ZM48.66,131.29l6.38.46-1.01,1.31-3.85-.08-.14,3.62-1.23,1.16-.13-6.47ZM89.98,131.56h5.25l-.04,6.11h-5.23l.03-6.11h0ZM96.23,131.56h4.88v6.11l-4.84.06-.04-6.17h0ZM102.08,131.56h5.24l-.05,6.11h-5.19v-6.11s0,0,0,0ZM147.82,132.05c-.12,1.57.18,4.41.3,5.63-.08.36-.31.31-1.69-.03-.95-.35-3.59-.45-3.59-.45l1.1-1.29c.9.12,1.62.11,2.55.24-.01-1.03.03-2.99.03-2.99l1.29-1.1h0ZM63.01,133.26l1.47,1.62-1.88.53.41-2.15ZM134.59,133.79l-.58,2.61-2.12-2.1,2.71-.51ZM151.76,133.86c1.06-.03,1.95.37,2.93,1.32v1.33s-2.08-1.03-2.08-1.03c-.02,1.52,1.2,4.27,1.2,4.27l-.99.51c-.86-1.54-1.46-2.93-1.5-4.67.01-.63-.07-1.7.45-1.73h0ZM62.29,136.5l1.74,1.14-1.93.86.19-2ZM133.93,137.08l-.85,2.69-1.86-2.33,2.72-.36ZM41.58,137.94l4.7,1.75-.84.98-3.9-1.36.04-1.37ZM107.51,138.65l.39,9.53-24.83-.23.86-1.35,1.61-.02,4.25-7.89,17.71-.05ZM61.96,139.39l1.85,1.43-1.92.93.07-2.37ZM154.8,140.23v1.56c-5.99,4.88-12.47,13.28-13.57,28.14l-1.62,1.52c.79-14.51,6.28-24.51,15.19-31.22h0ZM132.93,140.29l-.87,2.42-1.72-2.25,2.6-.17ZM140.07,140.74c-.04,1.44,1.02,5.9,1.02,5.9-1.63.09-3.22-.12-4.98.43l.83-1.63s.77-.09,1.44-.24c1.39-.3,1.25-.12.92-1.45-.3-1.25-.32-1.51-.32-1.51,0,0,.99-1.51,1.09-1.5ZM144.65,141.04c1.63.01,4.07,1.62,5.17,2.54l-.58.71c-.16.06-2.45-1.29-4.25-1.6.59,1.28.87,2.24,2.17,4.27l-.84.91c-.25-.06-3.51-5.36-2.65-6.55.26-.19.59-.28.97-.27ZM48.44,142.28c2.14,14.31,7.27,24.13,15.36,32.97l-.82,1.18c-9.51-9.58-14.69-21.77-16.05-33.23l1.52-.92h0ZM61.82,142.88l1.75,1.05-1.8,1.15.05-2.2ZM154.77,142.92v2.1s-1.11-1.22-1.11-1.22c.3-.29.65-.59,1.11-.88h0ZM131.73,143.35l-1.19,2.41-1.56-2.28,2.75-.13ZM153.08,144.39c1.59.24,2.09,3.73,1.57,4.41-.24-.42-2.43-1.92-3.42-2.55-.06-.18,1.53-1.75,1.85-1.86ZM127.59,146.18l2.54.27-1.35,2.3-1.19-2.57ZM61.85,146.18l1.98,1.06-1.79,1.39-.18-2.45ZM151.07,147.2c.33,0,.7.16,1.16.44,1.79,1.1,2.72,2.3,2.62,3.36-.05.49-.29.59-.58.23-.52-.64-2.28-1.48-3.79-1.8-1.15-.25-1.25-.35-.91-.94.52-.89.95-1.29,1.5-1.29ZM120.51,148.22c2.75,11.45,7.58,20.27,13.64,27.52l-1.26,1.18c-4.6-5.82-9.67-12.62-13.8-27.33l1.42-1.37ZM125.99,148.83l2.54.42-1.49,2.08-1.05-2.51ZM90.2,148.95c.29.01-.87,4.89-4.91,5.22-2.55.47-2.84.94-2.88,5.31-.05,5.93-.92,7.32-5.32,7.68-2.92.24-3.3.9-2.81,5.5.47,4.39-1.04,6.62-4.75,6.62-3.22.29-4.55,1.95-4.54,5.23,0,1.33.02,1.65.02,1.65l-2.08.18s0-2.16.16-3.21c.63-4.25,2.29-5.95,5.77-5.93,2.69-.23,3.11-.71,3.02-5.2-.1-4.57-.16-4.54.92-5.73.7-.77,1.49-1.12,2.91-1.26,4.4-.46,4.75-.78,4.74-5.75-.41-4.13.63-6.65,3.01-6.86,4.82-.42,4.7-3.3,4.49-3.42l2.24-.04s0,0,.01,0h0ZM100.05,148.95c2.83,16.78,11.77,32.49,16.67,38.29l-.96.56c-7.15-9.78-13.65-21.01-16.87-38.83l1.15-.03h0ZM94.95,148.96l2.24.03-25.75,39.9-1.36-1.13,24.87-38.8h0ZM98.07,148.98c2.42,9.67,4.32,19.13,11.93,31.78l-32.27-.23,20.34-31.55ZM106.98,149.02c.19-.1.95,4.89-.18,7.2-1.02,3.12-.52,4.87,1.69,6.01,3.79,1.95,4.75,3.9,4.27,8.69-.34,3.35.58,4.97,3.44,6.05,3.41,1.29,4.9,3.31,4.88,6.61,0,.51-.18,1.09-.18,1.09l-1.9,1.23s.02-.45.1-.99c.5-3.67-.13-4.66-4.07-6.39-3.72-1.63-4.64-3.52-4-8.24.21-1.54-.08-3.09-.66-4.26-.97-1.91-3.12-1.89-4.67-3.63-1.28-1.49-1.42-3.57-.33-7.14.67-2.21.78-3.05.25-4.89-.35-1.21-.48-1.32-.48-1.32l1.83-.03ZM62.17,149.55l2.19.67-1.65,1.88-.54-2.55ZM149.1,150.05c.75-.02,2.2.27,3.39.92,2.73,1.5,3.23,2.72.83,2.06-1.35-.37-3.29-.29-5.16.22-1.98.54-1.93.56-1.25-.75.86-1.67,1.09-2.42,2.18-2.45ZM139.26,150.68c1.66-.03,3.32.49,4.89,1.14l-.5.94c-1.08-.2-2.23-.78-3.88-.64.68,1.43,1.48,2.16,2.56,3.42l-.4.94c-.1.13-3.15-2.67-3.76-4.56-.28-.85-.03-1.22,1.08-1.25ZM103.39,150.9c.82,0,1.48.73,1.48,1.63s-.66,1.63-1.48,1.63-1.48-.73-1.48-1.63c0-.9.66-1.63,1.48-1.63ZM134.02,150.95s2.41,5.25,2.26,5.45c-1.49.73-3.12,1.1-4.77,1.76l.31-1.53s.55-.04,2.38-.81c.88-.37-.96-3.06-.96-3.06l.77-1.81ZM124.23,151.34l2.5.49-1.67,2.05-.83-2.55ZM77.51,151.36c.59-.05,1.5,1.21,1.5,1.21l-3.03,4.61c-1.44-.32-1.13-2.72.19-2.8.3,0,.86.06.86.06,0,0-.41-.24-.64-.59-.88-1.18-.05-2.39,1.12-2.5ZM117.35,152.5c3.52.03,3.56,4.78,2.89,6.36-.49,1.08-1.23,1.68-3.49,2.8-1.95.97-2.17.91-2.17.91l-.47-1.15s1.14-.55,2.36-1.1c2.53-1.12,3.14-1.98,2.87-4-.39-2.85-2.39-3.29-6.26-1.38-.45.22-1.02.44-1.02.44l-.27-.57c.06-.06,3.1-1.81,4.8-2.24.27-.04.52-.06.75-.06ZM62.95,153.02l1.99.72-1.45,1.57-.54-2.29ZM151.6,153.63c1.76,0,3.21.32,3.2,1.01,0,.33-.07.36-1.65.6-2.4.37-6.41,2.62-8.67,4.71-1.34,1.24-.99.95-.43-.85.56-1.79,1.4-3.92,1.85-4.25,1.13-.81,3.7-1.22,5.69-1.23ZM122.84,153.88l1.69.41-1.1,1.18-.59-1.58ZM117.17,154.89c.61,0,.9.3,1.14.94.52,1.38,0,2.19-1.96,3.12-.89.44-1.68,1.05-2.66,1.25l-1.23-3.64s.39-.16,1.67-.74c1.46-.67,2.42-.91,3.03-.92ZM111.45,155.33c3.92,12.2,8.71,20.12,13.78,26.68l-1.23.84c-5.39-7.01-10.34-15.23-13.91-27.33l1.36-.19ZM154.72,155.71c.17.02.26.09.23.22,0,.51-7.05,7.86-11.07,11.6-1.83,1.7-1.77,1.69-1.93,1.48-.1-1.27.68-5.79,1.16-6.58,2.69-3.14,6.84-5.69,10.88-6.65.32-.07.57-.1.74-.08ZM116.88,155.76c-.47.01-1.19.33-2.13.73-1.38.59-1.5,1.29-.88,2.17.27.38.55.3,1.88-.28,1.35-.59,1.94-.85,2.02-1.39.12-.77-.27-1.26-.88-1.24ZM117,156.17c.25,0,.47.25.47.56,0,.24-.31.47-.64.46-.11,0-.39.07-.57.27-.17.28-.29.55-.6.48-.18-.04-.52-.05-.65.08-.62.59-1.23.1-.95-.49.07-.15.32-.23.53-.23.18,0,.58-.04.63-.28.07-.28.47-.36.74-.35.3.04.54-.12.62-.26.11-.11.24-.22.37-.23.02,0,.04,0,.05,0h0ZM85.16,156.27c.82,0,1.48.73,1.48,1.63s-.66,1.63-1.48,1.63-1.48-.73-1.48-1.63c0-.9.66-1.63,1.48-1.63ZM63.75,156.3l2.24.34-1.41,1.99-.83-2.33ZM108.51,157.56c.82,0,1.48.73,1.48,1.63s-.66,1.63-1.48,1.63-1.48-.73-1.48-1.63.66-1.63,1.48-1.63ZM64.76,159.4l2.43.17-1.39,2.05-1.04-2.22ZM77.6,159.79c.82,0,1.48.73,1.48,1.63,0,.9-.66,1.63-1.48,1.63s-1.48-.73-1.48-1.63.66-1.63,1.48-1.63ZM138.36,160.81c1.01-.02,2.19.09,2.19.09l-.29,1.25c-1.24.13-2.82-.25-4.15.36.49.89,3.38,2.14,3.7,2.45.03.13-.24,1.33-.24,1.33.08.3-4.89-2.22-5.05-4.35,0-.72,2.14-1.11,3.84-1.14ZM121.29,162.11c2.82.03,4.21,4.36,3.12,6.28-.43.87-1.41,1.9-2.71,2.8-.62.44-2.27,1.32-2.27,1.32l-.74-1.26s.66-.29,1.27-.66c1.55-.97,4.71-3.03,3.18-5.83-.86-1.52-2.14-1.81-4.79-.33-1.99,1.11-2.44,1.21-2.44,1.21l-.5-1.01c.13.08,3.96-2.45,5.87-2.54ZM130.38,162.27c1.35,2.87,3.65,5.04,4.28,5.56,0,0-2.3,1.62-3.67,2.66l-.8-1.04,1.97-1.86-2.22-3.4.44-1.91ZM66.23,162.56h2.21s-.95,2.2-.95,2.2l-1.27-2.2h0ZM151.99,162.96c-.25,1.42-.29,2.92-.39,4.58.49.49.92.73,1.3.7.43-1.49.74-3.18.53-4.92-.41-.35-.94-.31-1.44-.36ZM152.65,163.39c.06-.02.12-.02.18.01.28.15.25.37.26.64,0,.93.11,2.1-.25,3-.21.51-.68.32-.69-.38-.02-.94.15-1.73.2-2.59.02-.37.13-.62.3-.68ZM121.12,164.68c1.45.12,2.01,1.46,1.48,2.42-1.31,1.85-2.66,2.18-4.38,3.25l-1.72-3.54s3.35-2.08,4.62-2.13ZM121.08,165.47c-.96.12-1.57.64-2.38,1.08-.99.53-1.31,1.36-.64,2.11.74.91,3.33-1.26,3.75-1.78.26-.45.22-.86-.15-1.18-.16-.14-.36-.22-.59-.22ZM68.04,165.62l2.17.03-1.17,1.82-1-1.85ZM121.03,165.9c.09,0,.18.04.24.09.37.29.34.8-.18.95-.26.07-.72.08-.73.46,0,.29-.41.39-.63.35-.23-.04-.63-.06-.7.26-.2.44-.35.44-.63.14-.3-.33-.16-.75.43-.82.25-.03.47-.23.56-.44-.01-.27.16-.43.44-.37.39,0,.64-.16.92-.56.1-.05.2-.07.29-.06ZM108.61,166.04c.82,0,1.48.73,1.48,1.63s-.66,1.63-1.48,1.63-1.48-.73-1.48-1.63.66-1.63,1.48-1.63ZM77.02,169.04c.82,0,1.48.73,1.48,1.63s-.66,1.63-1.48,1.63-1.48-.73-1.48-1.63c0-.9.66-1.63,1.48-1.63ZM139.31,170.42v1.23c.05.06-2.29,1.19-3.66,1.88-.44.27-.27.79-.24,1.32l-.66.49s-.91-.73-1.03-1.2c-.33-1.48,3.96-3.26,5.6-3.71h0ZM41.64,170.48l16.94,12.75-1.16,1.86-15.73-11.78-.05-2.83h0ZM126.68,170.9c1.1,0,1.95.7,2.77,2.11,1.63,2.8.81,5-2.57,7.25-1.57,1.05-1.58,1.06-1.58,1.06l-.8-1.08s1.14-.74,1.62-1.07c2.78-1.93,3.56-3.64,2.34-5.57-1.18-1.86-2.41-1.71-5.85.7-.69.49-1.52.87-1.52.87l-.75-1.13s1.94-1.1,2.61-1.56c1.52-1.07,2.76-1.57,3.74-1.57ZM114.86,171.74c.82,0,1.48.73,1.48,1.63,0,.9-.67,1.63-1.48,1.63s-1.48-.73-1.48-1.63.66-1.63,1.48-1.63ZM68.96,172.19c.82,0,1.48.73,1.48,1.63s-.66,1.63-1.48,1.63-1.48-.73-1.48-1.63.66-1.63,1.48-1.63ZM126.62,173.49c.56-.02.98.38,1.21,1,.59,1.58-.21,2.74-3.1,4.53-.24.15-.76.46-.76.46l-2.13-3.24s.75-.57,1.46-1.03c1.59-1.14,2.6-1.68,3.32-1.7ZM126.34,174.27c-.14,0-.29.06-.48.18-.74.47-1.98.98-2.57,1.84-.34.52-.19,1.04.46,1.71.55.4,3.39-1.9,3.46-2.57-.24-.71-.47-1.17-.88-1.16ZM41.76,174.44l.47.35-.47.41v-.76ZM126.37,174.84c.17.01.34.07.42.18.21.28.08.76-.36.84-.22.04-.56.11-.66.47-.09.24-.4.45-.7.44-.35-.09-.53.14-.55.31-.17.32-.6.38-.86.07-.2-.24.16-.92.4-.91.04.02.3.09.62-.38.06-.34.42-.55.68-.53.26.1.42-.22.52-.4.12-.07.31-.11.48-.1ZM42.88,175.26l.68.51-1.81,1.41v-1.14l1.13-.78ZM44.2,176.21l.93.68-3.37,2.66v-1.44l2.45-1.9ZM45.93,177.42l.98.71-5.15,3.83v-1.48l4.17-3.07ZM47.78,178.46v1.23l-6.03,4.63v-1.25l6.03-4.62ZM48.47,179.34l1.3.98.33,41.77-8.12,6.14v-1.83s6.83-5.43,6.83-5.43l-.33-41.63h0ZM146.45,180.47c-1.82,2.29-4.27,2.44-6.4,2.38-5.74.09-9.31.43-10.04,7.96,2.34-1.93,4.82-2.17,7.69-2.08,3.64,0,5.27-.27,6.75-1.08,2.37-1.3,3.88-3.64,3.59-5.28-.28-.35-1.02-1.82-1.59-1.9ZM47.78,180.84v1.44l-6.03,4.45v-1.47l6.03-4.42ZM116.62,180.97c.82,0,1.48.73,1.48,1.63s-.66,1.63-1.48,1.63-1.48-.73-1.48-1.63c0-.9.66-1.63,1.48-1.63ZM77.27,181.14c10.65.36,33.27.22,33.27.22l1.21,1.91-35.57-.41,1.09-1.73ZM146.69,181.21c.33-.02.37.46-.3,1.19-1.27,1.38-2.6,2.05-6.79,1.97-4.43-.09-6.15.68-7.3,2.85-.33.63-.33.88.16.4.4-.53,1.32-1.55,1.7-.58.75-.54,1.4-1.37,1.8-.32.22-.05,1.49-1.46,1.8-.21.61-.75,1.13-.98,1.42.08.87-.45,1.33-1.31,1.82-.13.7-.55,1.23-1.24,1.63-.19.6-.19,1.2-1.39,1.55-.44.06.02,2.22-1.4,2.83-2.81.5-1.24.96-.42.39.85-1.46,3.11-3.95,4.25-9.68,4.26-3.48,0-4.91.38-6.01,1.08-1.75,1.13-.81-1.71.42-3.43,1.55-2.17,3.31-2.81,8.15-2.61,2.64.02,4.33-.39,5.05-1.02.61-.54,1.04-.9,1.37-.93ZM68.13,181.87c.82,0,1.48.73,1.48,1.63s-.67,1.63-1.48,1.63-1.48-.73-1.48-1.63.66-1.63,1.48-1.63ZM47.78,183.07v1.47l-6.03,4.53v-1.5l6.03-4.5ZM76.93,183.78h4.68v5.43h-4.68v-5.43ZM87.42,183.78h5.03v5.43h-5.03v-5.43ZM98.62,183.95h4.86v5.26h-4.86v-5.26ZM109.14,184.06l3.23.12s1.8,2.51,2.55,3.67l-2.39,1.35h-3.4s0-5.15,0-5.15h0ZM79.18,184.43c-.91,0-1.65.81-1.65,1.81s.74,1.81,1.65,1.81,1.65-.81,1.65-1.81-.74-1.81-1.65-1.81ZM89.94,184.61c-.91,0-1.65.81-1.65,1.81s.74,1.81,1.65,1.81,1.65-.81,1.65-1.81-.74-1.81-1.65-1.81ZM100.94,184.66c-.91,0-1.65.81-1.65,1.81s.74,1.82,1.65,1.82,1.65-.81,1.65-1.82-.74-1.81-1.65-1.81ZM74.68,185.02c.32.25.54.67.54,1.14,0,.78-.57,1.41-1.28,1.41-.25,0-.48-.08-.68-.21l1.42-2.34ZM79.18,185.04c.6,0,1.09.54,1.09,1.2s-.49,1.2-1.09,1.2-1.09-.54-1.09-1.2.49-1.2,1.09-1.2ZM106.32,185.09c.73,0,1.32.65,1.32,1.46s-.59,1.46-1.32,1.46-1.32-.65-1.32-1.46.59-1.46,1.32-1.46ZM111.89,185.09c-.91,0-1.65.81-1.65,1.81s.74,1.81,1.65,1.81,1.65-.81,1.65-1.81-.74-1.81-1.65-1.81ZM84.52,185.14c.73,0,1.32.65,1.32,1.46s-.59,1.46-1.32,1.46-1.32-.65-1.32-1.46.59-1.46,1.32-1.46ZM89.94,185.22c.6,0,1.09.54,1.09,1.2s-.49,1.2-1.09,1.2-1.09-.54-1.09-1.2.49-1.2,1.09-1.2ZM47.78,185.24v1.46l-6.03,4.64v-1.44l6.03-4.66ZM100.94,185.27c.6,0,1.09.54,1.09,1.2s-.49,1.2-1.09,1.2-1.09-.54-1.09-1.2.49-1.2,1.09-1.2ZM95.42,185.42c.73,0,1.32.65,1.32,1.46s-.59,1.46-1.32,1.46-1.32-.65-1.32-1.46.59-1.46,1.32-1.46ZM111.89,185.7c.6,0,1.09.54,1.09,1.2s-.49,1.2-1.09,1.2-1.09-.54-1.09-1.2.49-1.2,1.09-1.2ZM65,186.96c2.81-.04,5.85,1.53,7.56,4.14,2.59,3.82,4.33,8.68,5.11,15.07.39,3.16,1.73,12.67,2.49,14.91l-1.05-.22c-.14.07-1.49-5.98-2.33-13.97-.31-2.96-.88-6.78-2.45-10.27-1.78-3.98-4.81-8.2-8.85-8.54-2.35-.2-4.56,1.43-4.8,3.72-.34,1.81.62,3.49,1.89,4.05,1.24.55,2.72.14,2.89-1.72.03-.31,0-.61-.1-.9.57-.1,1.01.18,1.24.72.12.02,0,2.7-1.91,3.23-2.31.83-4.98-1.69-5.19-4.25-.16-2.16,1.34-4.83,3.22-5.56.72-.28,1.48-.41,2.27-.42ZM47.78,187.8v1.49l-6.03,4.58v-1.5l6.03-4.57ZM65.13,188.74c3.37-.11,6.66,4.03,8.05,6.76,1.45,2.85,2.6,7.36,3,11.62.67,7.23,1.93,13.15,2.2,13.42l-.92-.22c-.19.14-1.46-6.39-2.23-13.66-.43-4.08-1.81-8.12-3.44-11.23-1.51-2.87-3.54-5.02-5.95-5.33-1.51-.17-3.06.31-3.37,2.06-.16,1.03.33,2.04,1.43,2.12.26.02.51.04.56.05.59.11-.33,1.16-.94,1.07-2.16-.33-3.16-3.51-1.45-5.2,1-.99,2.04-1.42,3.07-1.45ZM72.35,189.8l37.87.42s.03.75-2.32.62c-2-.1-3.3.2-4.63.67l-29.75-.07-1.16-1.65ZM47.78,190.29v1.39l-6.03,4.64v-1.53l6.03-4.5ZM65.38,190.87c.73-.01,1.47.2,2.03.55,4.69,2.99,6.48,10.42,7.1,15.09.84,6.92,1.82,13.35,2.09,13.51l-1.02-.25c-.14,0-1.25-6-1.95-12.72-.56-5.44-2.25-10.9-5.6-13.19-2.15-1.61-2.57-1.77-3.57-.83-.86.81-1.73-.41-1.01-1.4.5-.51,1.21-.74,1.94-.75ZM47.78,192.75v1.14l-6.03,4.62v-1.35l6.03-4.41ZM75.35,192.78c.08-.08,3.26,5.87,4.26,15.24.53,4.93,2.04,13.35,2.29,13.42l-1.1-.13c-1.13-4.96-1.75-9.66-2.35-13.89-.68-4.79-1.23-9.04-3.94-14.6l.84-.03s0,0,0,0h0ZM76.07,192.83l.99.02c1.68,3.53,3.48,9.01,4.09,14.51.53,4.75,1.07,9.58,2.62,14.61l-1.06-.32c-1.33-4.08-1.8-9.01-2.51-14.13-.79-5.65-2.02-10.57-4.13-14.69h0ZM82.15,192.84c1.72,4.91,2.84,7.26,3.63,13.3.61,4.69,1.47,10.56,3.44,16.78l-1-.05c-1.46-4.29-2.57-10.04-3.08-15.56-.69-7.5-3.75-14.5-3.78-14.46l.79-.02h0ZM80.45,192.85c.09-.15,3.29,6.88,4.02,14.61.49,5.14,1.58,10.23,3.09,15.14l-1.02-.03c-1.18-1.5-2.06-8.6-3.03-15.23-.99-6.77-2.39-10.93-3.94-14.48h.87s0,0,0-.01h0ZM77.88,192.86h.9c2.37,5.7,3.35,9.09,4.08,14.6.92,6.97,1.81,13.25,2.79,14.89l-1.1-.08c-1.52-5.02-2.21-10.04-2.75-15.06-.59-5.44-2-10.1-3.91-14.35h0ZM82.87,192.91l1.08.02c1.85,4.13,3.39,9.16,3.93,14.9.3,3.11.82,7.9,2.94,15.27l-.86-.06c-1.74-4.95-2.79-10.77-3.41-15.85-.63-5.12-1.74-9.35-3.68-14.28h0ZM89.49,192.94c1.02,2.86,1.85,5.71,2.4,8.64l-.61,1.31c-.95-3.87-2.02-6.88-3.09-9.92l1.3-.02ZM84.59,192.95l1.31.03c2.25,5.75,3.41,11.83,3.72,13.87,0,0,.31,1.8.33,2.4-.08,5.02.71,8.61,2.41,14.01l-.78-.06c-1.97-6.28-2.5-10.73-3-14.99-.42-5.35-2-10.87-3.99-15.25h0ZM87.61,192.99c1.34,3.68,2.36,7.24,3.29,10.79-.04.81-.11,1.69-.59,2.34-1.09-4.35-2.01-8.87-3.7-13.13h1s0,0,0,0ZM90.09,193.02l1.04.02,2.07,6.52-.81.99c-.61-2.16-1.23-4.53-2.29-7.52ZM96.14,193.07l.76,1.96-.82.76s-.83-1.83-1.05-2.7l1.11-.02ZM97.67,193.07l.38,1.13-.68.57-.53-1.68.84-.02ZM91.74,193.09h1.07c.43,1.38,1.58,4.73,1.58,4.73l-.77.89s-1.44-4.24-1.88-5.61h0ZM93.39,193.09h.95c.28.9,1.17,3.36,1.17,3.36l-.65.68-1.46-4.05ZM98.34,193.14l.94.05-.11.25-.58.32-.24-.62ZM67.64,194.59c3.92,2.28,5,9.09,5.43,12.84.74,6.54,1.57,11.86,1.75,12.01l-.87-.15s-.64-3.36-1.09-6.56c-.37-2.66-.66-4.89-.76-5.91-.06-.64-.16-1.38-.21-1.65-.55-2.69-.72-3.3-1.43-4.94-.68-1.57-.92-1.96-2.04-3.36-.43-.54-.85-.93-1-1.27-.21-.49.23-1.01.23-1.01ZM47.78,194.94v1.29l-6.03,4.69v-1.47l6.03-4.5ZM47.78,197.19v1.48l-6.03,4.38v-1.31l6.03-4.55ZM47.78,199.71v1.37l-6.03,4.63v-1.42l6.03-4.58ZM57.85,201.1h.53l.04.96-.82-.06.25-.91h0ZM47.78,202.29v1.47l-6.03,4.38v-1.37l6.03-4.48ZM57.23,202.85l1.27.02v1.01s-1.65-.06-1.65-.06l.38-.96h0ZM56.49,204.47l2.09.04v.96l-2.59-.05.5-.95h0ZM47.78,204.67v1.54l-6.03,4.41v-1.55l6.03-4.41ZM55.42,206.28l3.06.04-.02.8-3.66-.03.61-.81ZM47.78,207.17v1.51l-6.03,4.25v-1.35l6.03-4.4ZM54.14,207.89l4.21.06-.1.78-4.8-.02.69-.82h0ZM47.78,209.52v1.45l-6.03,4.32v-1.39l6.03-4.38ZM52.57,209.52l5.54.14,1.17,1.17-8.62.06,1.91-1.37h0ZM50.89,211.66l9.52.13.66.68-10.22.04.03-.85h0ZM47.78,211.99v1.54l-6.03,4.35v-1.4l6.03-4.48ZM50.9,213.34l10.55.05-.76.93-9.8.03v-1.02s.01,0,.01,0ZM47.78,214.51v1.41l-6.03,4.5v-1.62l6.03-4.29ZM50.64,215.24l9.12.03-1.07.92-6.3.16-1.75-1.12h0ZM47.78,216.98v1.34l-6.03,4.75v-1.51l6.03-4.59ZM53.31,217.15l5.36.03.1.79h-4.61s-.85-.82-.85-.82ZM54.79,218.78l4.11.05.19,1.02-3.66-.05-.65-1.02h0ZM47.78,219.5v1.25l-6.03,4.63v-1.38l6.03-4.5ZM59.18,220.52l.05.97-2.45.1-.69-1.02,3.1-.06h0ZM59.16,222.25l-.02,1.02-1.71.03-.38-.99,2.12-.07h0ZM57.64,224.07h1.35s-.11.8-.11.8l-1.04.02-.19-.81h0ZM58.05,225.96h.66l-.11.62h-.34l-.21-.62ZM71.38,236.38l-.31.44h9.42l.1-.44h-9.21ZM83.53,236.38l-.17.6h4.25l.12-.6h-4.2ZM90.48,236.49l-.13.57h10.87l-.18-.57h-10.56ZM103.49,236.49l.22.69h3.66l-.24-.69h-3.64ZM116.11,236.49h-6.42s.23.77.23.77h6.64l-.45-.77h0Z"/>
      </g>
      <g id="Center_Symbols_J" data-name="Center Symbols J">
        <use width="25.56" height="32.54" transform="translate(49.63 40.39)" xlink:href="#Heart"/>
        <use width="25.56" height="32.54" transform="translate(147.65 228.89) rotate(-180)" xlink:href="#Heart"/>
      </g>
      <g id="Corner_Symbols_J" data-name="Corner Symbols J">
        <use width="25.56" height="32.54" transform="translate(20.81 46.74) scale(.5)" xlink:href="#Heart"/>
        <use width="25.56" height="32.54" transform="translate(176.47 222.54) rotate(-180) scale(.5)" xlink:href="#Heart"/>
      </g>
    </g>
    <g id="Heart_Corner_Characters" data-name="Heart Corner Characters">
      <g>
        <use width="14" height="33.12" transform="translate(176.51 254.75) rotate(-180)" xlink:href="#Red_J"/>
        <use width="14" height="33.12" transform="translate(20.77 14.53)" xlink:href="#Red_J"/>
      </g>
    </g>
  </g>
  <g id="Clubs">
    <g id="Club_Corner_Characters" data-name="Club Corner Characters">
      <use width="181" height="253" transform="translate(8.14 8.14)" xlink:href="#boundary"/>
    </g>
  </g>
</svg>