<?xml version="1.0" encoding="UTF-8"?>
<svg xmlns="http://www.w3.org/2000/svg" xmlns:xlink="http://www.w3.org/1999/xlink" viewBox="0 0 197.28 269.28">
  <defs>
    <style>
      .cls-1 {
        fill: #262964;
      }

      .cls-1, .cls-2, .cls-3, .cls-4 {
        stroke-width: 0px;
      }

      .cls-2, .cls-5 {
        fill: #d2232a;
      }

      .cls-3 {
        fill: #000;
      }

      .cls-6 {
        fill: none;
        stroke: #000;
        stroke-miterlimit: 10;
      }

      .cls-5 {
        font-family: ArialMT, Arial;
        font-size: 28px;
      }

      .cls-4 {
        fill: #e1cf20;
      }
    </style>
    <symbol id="Heart" viewBox="0 0 25.56 32.54">
      <path id="path9714-6-6" class="cls-2" d="M12.78,32.54s-3.16-5.19-7.42-11.29C2.51,17.16.23,12.74.02,8.93-.23,4.58,2.07.22,6.24,0c4.16-.21,5.85,3.35,6.54,6.29C13.47,3.36,15.16-.2,19.32,0c4.16.21,6.47,4.58,6.22,8.93-.21,3.81-2.49,8.23-5.34,12.31-4.26,6.1-7.42,11.29-7.42,11.29Z"/>
    </symbol>
    <symbol id="Red_K" data-name="Red K" viewBox="0 0 18.68 33.12">
      <text class="cls-5" transform="translate(0 24.03)"><tspan x="0" y="0">K</tspan></text>
    </symbol>
    <symbol id="boundary" viewBox="0 0 181 253">
      <rect class="cls-6" x=".5" y=".5" width="180" height="252" rx="15" ry="15"/>
    </symbol>
  </defs>
  <g id="Hearts">
    <g id="Heart_Symbols" data-name="Heart Symbols">
      <g id="King_Face" data-name="King Face">
        <path id="path3876-2-1-7" class="cls-4" d="M76.82,219.79c12.5,1.6,25.31,1.97,38.49.92,3.41,5.22,10.26,15.85,10.26,15.85l-62.03.56,13.28-17.32ZM60.71,223.42c1.66-3.72,1.99-7.3,1.67-12.46-.25-3.96,1.99-7.04,4.3-5.86,1.79.91.96,4.66-.88,3.87-.71-.3-1.33-.03-1.23,1.75.16,4.39,1.22,9.33.31,13.53-.63,4.09-5.7,2.2-4.16-.83ZM45.13,217.69c-1.96-3.26,1.55-6.31,3.75-4.8,1.04.54.9,1.72-.42,1.09-1.83-.87-3.81,2.22-2.21,3.46.73.57,1.01.5.46-.22-1.49-1.92,2.32-2.76,2.21-1.5-.26,1.54-.29,2.18-.42,2.49-.77,1.34-2.26.66-3.36-.51h0ZM50.59,204c-2.12-2.93.31-5.23.28-5.14.63-.75-5.04-12.46-4.33-12.54,7.16-.84,14.4-.21,21.58.04,0,0-3.83,7.62-5.35,11.39-.61,1.52.82,3.31.23,4.44-1.85,2.24-.7,4.71-1.85,4.83-2.95-.61-6.1-.97-9.91-.05-.29-.03-.24-1.98-.64-2.97h0ZM81.6,122.65c3.62,20.42-1.72,42.06-13.96,56.34-1.73-1.84-3.05-5.33-4.78-7.61-4.78-1.59-8.23.28-11.58,2.12-2.98-1.9-6.34-3.02-9.61-2.97l-.11-3.16c3.31-.08,6.81.26,9.76,2.28l4.61-2.07-14.39-16.53.2-2.82,17.46,19.51,2.25.09c-4.94-14.55-.62-37.65,20.15-45.17h0ZM105.94,148.26l2.52,13.33s-14.15,15.54-21.59,23.47l-6.22-.63c3.1-5.12,4.87-10.29,6.93-15.45l18.35-20.73ZM156.1,166.54c-5.93,7.35-13,12.02-20.87,17.17-3.14-3.89-6.96-8.17-9.16-12,6.86-4.06,13.4-7.21,20.11-14.31-.37.46-8.57,3.54-8.54,3.19-.3,1.52-.12,2.45-1.45,2.85-1.58-2.44-3.11-4.43-5.6-5.52-1.04.1-2.43-.66-2.43-.66.7-.16.39-9.54,0-9.64.77-.28,1.54-.93,2.59.36.49.36,5.21-4.91,6.82-6.71,6.32-.58,11.91.11,18.14-.07-.05,8.35.39,17,.38,25.35h0ZM115.98,145.4c-.16-.35-1.75-14.18-.24-22.86,4.16-14.6,3.1-18.66,13.85-33.02.71-.77,3.18,1.7,5.03,5.98,5.36,3.74,12.24-1.09,12.24-1.09,0,0,2.67,2.41,8.71,3.73l-.1,2.6c-.03.76-6.79-.8-8.24-2.31,0,0-5.06,1.87-5.06,2.21,0,1.46,13.48,15.26,13.48,15.26l-.08,3.24c.09,0-18.49-21.35-18.73-19.11,5.26,25.08-3.69,37.78-20.85,45.37h0ZM93.64,141l-.3-13.26,11.38.15.47,13.4-11.55-.29ZM41.58,126.66c.3-.47-.44-24.72-.4-24.72,7.24-7.99,14.32-12.45,21.42-17.3,3.21,3.53,5.94,6.5,8.3,10.77l-9.8,6.69c.37,1.63-.59,2.22,5.72,8.56.11-.43,2.19-1.73,2.55.21-.86,4.08.38,7.55.54,9.74-.86,1.29-2.79-.09-2.79-.09-1.25-1.44-6.14,5.68-7.53,6.47-6.09-.25-18.37.21-18.03-.32h0ZM110.03,83.54c.04.08,6.26.01,6.21.17-1.13,3.08-3.71,9.2-6.3,15.97-2.16,3.94-17.61,20.36-17.61,20.36-.73-4.76-1.83-9.41-2.98-14.04l20.68-22.46ZM136.87,60.68c2.24,1.06,8.53.5,9.53.03,1.28.96.48,2.25.32,2.96,1.31,1.84,2.03,2.5.54,5.47-.34,0,4.59,12.3,4.72,12.31,0,0-5.21-2.74-7.04-4.59l-3.59,5.3-4.17-5.98c-.02.54-8.04,6.44-8.14,6.16-.25-.28,7.33-9.33,5.82-14.64-.36-1.28.47-2.58,1.03-3.71.39-.77-.13-2.27.98-3.3h0ZM132.71,59.57c.34-.43-1.95-11.56.53-16.05,1.05-1.63,2.95-1.72,3.74-.38.61,1.86-1.2,4.45-1.56,5.71-1.17,3.52.57,8.17-.28,11.49-2.55,7.27-7.07-.72-2.43-.78h0ZM149.68,54.63c-1.34.07-.41-4.39-.18-5.67,0-.25,2.46-.89,3.35.86,1.43,2.62-.29,5.92-3.16,4.81h0ZM133.65,32.17l-12.66,17.08c-12.8-1.63-25.65-2.67-38.74-.45l-10.53-16.29,61.93-.34Z"/>
        <path id="path3874-3-1-4" class="cls-1" d="M157.14,31.14H40.14v207h117V31.14ZM133.53,32.21l-14.02,19.14-.35.13c.93,3.04,2.27,6.82,3.54,9.7,2.03,4.65,7.13,13.19,3.95,20.02-.31.59-.6.87-.99.87-.54,0-.53-.35-.21-1.04.71-1.51,1.19-5.09.91-6.98-.18-1.21-.79-3.07-1.94-5.89-5.33-10.92-6.99-16.74-6.69-16.74-.07-.05-.19-.12-.38-.17l-.52-.19c1.85,6.9,4.85,12.71,7.22,18.08,1.95,4.99,2.16,6.93,1.14,10.57-.39,1.41-1.11,2.31-1.81,2.31-.53,0-.5-.12-.14-.83,1.87-3.72,1.43-7.78-.89-12.5-3.37-7.8-5.39-12.73-6.59-17.73-.03,0-.61-.22-.83-.28,1,5.21,3.79,11.21,6.39,17.36,2.15,4.73,2.77,8.18,1.99,10.9-.25,1.18-1.06,2.94-2.09,2.99-.4,0-.46-.23-.09-.84,1.59-3.03,1.88-5.83-.97-12.19-2.62-5.85-5.25-12.4-6.15-18.12-.06-.47-1.2-1.03-.95-.25,1.41,6.76,4.21,13.67,7.18,20.42,1.68,4.19,1.85,6.87.59,9.21-.7,1.31-.88,1.61-1.41,1.62-.62.01-.61.04-.27-.76,1.52-3.52,1.27-6.62-.76-11.71-2.79-6.98-5.13-12.75-6.13-18.89-.18-.06-1.12-.46-.99-.16,1.39,5.85,3.18,11.28,5.47,16.77.8,1.91,2.1,5.61,2.52,7.47.79,3.54-1,8.39-3.34,8.63-.87.09-.77-.39.21-1.4,1.68-1.73,2-4.49,1.43-7.7-.43-2.47-1.16-5.12-2.17-7.81-2.05-5.44-4.27-11.14-4.98-16.16.02-.45-.91-.45-.65.02.51,3.53,1.71,7.55,3.04,11.29,1.45,4.09,3.6,8.67,4.31,13.68.58,4.1-1.73,7.98-4.53,8.21-3.37.28-4.03-3.43-3.22-5.16,1.32-2.59,5.16-1.11,4.02,1.54-.66,1.53-2.66,1.13-2.58-.55-.02-.15.19-.61.15-.64-.07-.04-.36.25-.46.44-.68,1.36,1.37,3.17,2.79,2.08,4.77-2.87,1.55-11.63-.53-16.97-2.01-4.98-3.49-9.49-4.13-14.1-.17-.13-.96-.36-.85-.2.58,2.46.84,4.54,1.42,6.61.9,3.24,2.52,6.87,3.84,10.51,1.2,3.58,2.4,6.62,1.85,10.35-.05.34-.18.76-.39,1.01-.21.25-.39.21-.45-.74-.02-.13-.17-.3-.19-.46.12-1.4.03-2.79-.29-4.11-.28-1.1-.81-2.23-1.93-4.38-.44-.8-1.6-3.24-1.19-1.55.23.95,1.03,3.08,1.85,4.61.51.95,1.05,3.56.89,4.06-.17.49-.56.52-.74.35-.16-.15-.16-.85-.21-1.28-.17-1.77-1.8-4.86-2.93-6.07-.81-1.01,1.91,4.28,2.11,5.69.08.6.25,1.08.07,1.38-.12.19-.37.19-.61.13-.23-.07-.22-.24-.47-1.15-.42-1.55-.93-2.34-2.01-3.74-.37-.48-.61.12-.03.9.81,1.42,1.42,2.33,1.62,4.16-.52.83-.78.67-1.88-1.43-.73-1.38-1.16-1.74-1.35-1.73-.48.03-.03.69,1.32,3.05.7,1.26.72,2.05-.08,2.04-.27,0-1.78-1.85-2.16-2.65-.31-.66-.7-1.17-.7-.36,0,.32.94,2.02,1.58,2.85,1.01,1.3,1.3,1.56,1.43,2.14.06.27.18.75.27,1.07.26.94.13,1.2-.4.71-.24-.69-.43-.77-1.08-1.3-.55-.45-1.31-1.62-1.81-2.44-.19-.31-.35-.7-.54-1.02-.49-1.02-1.14-1.11-.67-.08.22.48.58,1.26.96,1.84.64,1,.5,1.53-.25,1.52-.32,0-1.22-1.32-1.79-2.34-.37-.67-.94-1.14-.87-.48.02.17.46,1.34,1.13,2.26.72,1,.82,1.53.12,1.53-.48,0-.89-.51-1.5-1.55-.58-.98-.94-1.33-1.11-1.22-.21.14.83,2.09,1.69,3.16.81,1.01.22,1.58-.71.69-.5-.49-1.52-1.94-1.8-2.63-.51-1.23-.83-.9-.51.08.36,1.08.92,2.25,1.6,3.02.36.4,1.09.71,1.45,1.06,1.02.98,1.66,1.88,1.58,2.04-2.9.18-5.28-3.25-5.93-5.33-.46-1.37-.99-1.57-.49.36,1.41,4.79,5.82,7.29,8.86,5.14,1.84-1.3.21-4.67-1.29-3.59-.41.3-.43,1.13.09.69.98-.84,1.96,1.24.89,1.85-1.5.86-3.16-.83-2.14-2.88,1.01-2.11,5.04-.9,4.25,2.5-.48,1.53-2.57,3.44-4.37,3.47-3.34.07-5.64-2.77-6.93-5.58-.16-.36-.46-1.07-.7-1.65-.21-.5-.38-.87-.4-.87.37,3.41,3.3,7.62,5.93,8.32,4.36,1.14,5.55-1.75,8.41-4.73,0,0,2.08.3,2.16.25.19-.13,4.06-.32,4.17-.2-15.61,31.44-14.43,68.76-1,97.09.89,2.07,1.04,1.68-.43,1.26-1.52-.44-2.9.24-4.13-.08-2.55-.58-3.1,1.36-5.06,2.39-2.45,1.03-1.89,2.91-2.48,4.74-.18.28-.32.51-.22.48.16-.06.68-.6.72-1.07.1-1.21.49-2.16.93-2.64.42-.46.72-.69.82-.49.08.15.02.7-.19,1.13-.59,1.25.19,5.41.24,2.45.04-2.35,1.32-4.97,3.12-6.05,1.44-.78,1.88-.7.71.5-1.33,1.57-2.23,3.41-2.29,5.69-.02.95.32,1.74.44.89-.05-4.35,3.86-9.19,8.05-6.78.21.17.39.48.32.66-4.06-.76-7.6,1.71-7.08,7.54,0,0,.36-1.14.57-2.28.64-3.57,4.28-5.14,6.83-4.16.48.22.86.98.79,1.08-3.12-1.09-6.55,2.19-6.75,5.74-.06,1.15-.04,2.14.49.06,2.02-7.89,8.23-4.31,7.47-3.67-4.81-.64-6.56,2.96-6.44,7.12.07.38.24.51.39.86.64,1.57.93,2.91.98,5.75-.05.73.5,5.4-.05,5.2-1.75-.72-3.08-1.57-6.11-.05-.27.02-.36-.15-.27-.41.13-.35.6-1.05,1.43-2.08,1.86-2.2.79-1.61-.74-.08-.99.99-.77.31.16-3.06.38-1.37.14-1.53-1.48-2.45-1.67-.94-2.83-1.09-1.41-.1.56.38,1.15.77,1.78,1.05.74.45.66.64.11,2.61-1.06,3.82-1.43,5.22-1.37,7.79.14,6.26,5.5,5.64,8.56,4.23l.13,4.12,11.51,18s-40.24-.05-61.77.35c1.23-3.28,14.24-17.16,15.02-19.65.07.01-1.44-5.08-2.24-7.29-3.76-10.45-8.71-14.84-5.85-21.71.62-1.36.72-1.82,1.19-1.82.64,0,.84.47.12,1.8-3.08,5.73,3.49,15.61,5.7,21.92.36,1.01,1.84,5.74,2.1,7.33.03.49,1.07.65.78.08-.82-3.22-1.84-6.74-2.32-8.01-1.75-4.65-3.6-7.83-5.3-12.38-.95-2.87-1.46-6.19.02-9.18.54-1.09.69-1.69,1.05-1.74.31,0,.49.12.51.4.02.3-.15.8-.55,1.57-2.59,4.89,2.01,12.79,4.29,18.42,1.48,3.67,2.81,7.53,3.27,11.02,0,.24.29.88.86.44-.99-6.51-3.88-12.81-6.42-18.89-2.17-4.75-2.98-8.89-.08-12.8.25-.27.79-.23.83.18.02.27-.17.79-.62,1.83-2.55,5.92,1.4,10.74,3.25,16.38,1.81,4.72,3.49,8.69,4.16,13.72.51.22.76.49.82-.23-1.32-7.11-4.17-13.5-6.65-19.66-1.14-2.68-1.55-3.96-1.62-5.75-.11-2.46,1.01-5.58,2.01-6.4.26-.21.42-.25.66-.11.33.2.26.33-.38,1.68-1.23,2.58-1.33,5.48-.19,8.54,1.97,4.7,3.62,8.57,4.8,12.03,1.28,3.78,2.01,7.07,2.3,10.03,0,0,.87.43.74-.21-.55-4.15-1.78-8.45-3.11-12.1-1.26-3.44-2.83-6.75-4.11-10.16-1.55-4.09-.27-8.56,2.91-10.79l1.46.04c-.09-.04-3.33,1.39-3.5,6.54-.16,4.91,1.93,7.93,3.45,12.09,1.85,5.02,3.5,9.42,3.89,14.78.14.19.94.23.93.15-.39-3.61-1.34-7.04-2.7-11.25-1.44-4.48-2.87-6.47-4.21-11.17-.9-3.18-.78-7.49,1.23-9.46,3.01-3.38,7.22-.97,6.16,2.9-.81,2.72-4.17,2.18-4.15-.37,0-1.65,1.82-2.09,2.43-.85.14.24.23,1.3.3,1.34.06.04.25-.83.25-1.03,0-1.35-1.65-2.49-2.88-1.81-1.69.94-2.78,3.1-2.67,6,.12,3.08.62,5.07,2.89,9.9,2.64,5.63,3.52,11.72,4.09,15.83.24-.11.54.03.63,0-.39-5.6-2.04-11.35-4.11-16.13-2.5-5.79-3.2-9.33-2.37-11.93.12-.38.24-.67.39-.69.28-.05.37.45.63,1.49.08.32-.02.82-.08,1.21-.22,2.38,1.28,7.31,2.67,9.51.41.63.93.6.48-.51-1.44-2.87-2.31-5.47-2.42-8.96-.03-1.03,1.04-.56,1.07-.05.08,1.67.23,3.63.94,5.03,1.46,2.76,2.27,2.89.78-.2-.33-.72-1.28-3.74-.9-4.79.21-.21.47-.25.6-.04.42,1.71,1,3.41,2.03,4.72.54.69.63.38.35-.48-.47-.99-1.96-4.31-1.28-5.05.22-.2.09-.09.69.99.83,1.51,1.29,2.11,1.7,2.55.54.59.67.19.11-.84-1.11-2.07-1.75-3.78-1.36-4.22.39-.43.48-.23,1.36,1.43.39.74.96,1.83,1.15,2.09.19.26.37.32.37.11-.21-2.01-1.76-4.3-2.38-4.69-.09-.19-.06-1.77-.06-1.77,2.33,1.33,2.43,2.84,3.97,5.16.16.17.39-.04.32-.36-.05-.43-.97-2.36-1.54-3.21-.45-.66-.47-1.05-.09-1.24.62-.31,1.48.71,2.4,2.53.43.84,1,1.33,1,.89,0-.24-.79-2.42-1.34-3.05-.91-1.05-.46-1.78.6-.81.48.44,1.13.77,1.8,2.37.39.94.73,1.06.73.31,0-.84-1.27-2.89-2.12-3.46-.66-.44-1.04-.93-.85-1.26.58-.95,2.93,1.47,3.73,3.71.24.66.65,1,.75.71.18-.15-.3-1.77-.78-2.51-.81-1.71-2.71-3.37-3.84-3.17-.22.04-.82-1.36-.82-1.36,2.88-.52,5.67,3.31,6.17,4.74.94,2.71,1.42,2.4.6.02-1.61-4.65-6.62-7.26-9.4-5.01-1.58,1.28-.64,4.35.99,3.83.65-.27,1.27-1,.14-.76-1.27.14-1.67-2-.38-2.43,2.08-.69,2.55,2.98.88,3.8-1.74.83-3.47-.41-3.31-2.53.31-4.01,4.75-5.16,9.13-1.92,1.23.91,2.75,3.88,3.27,5.76.17.62.75.84.82.76.17-.18-1.22-3.49-1.67-4.33-1.91-4.84-8.8-5.08-8.8-4.83,0,0-2.7,1.89-5.1,4.99l-6.16-.63c15.7-27.97,16.94-69.1.83-98.21.21.15,3.1.98,4.09.11.74-.39.95-.53,1.76-.2.91.36,1.88.04,2.87-.97.75-.76.76-1,1.25-.93,1.43.21,2.38-.72,2.67-3.01.12-.9.2-1.83.08-1.7-.07.08-.23.86-.34,1.35-.29,1.34-.56,1.84-1.03,2.27-.78.72-1.23.32-.9-.78.31-.71.56-2.53.14-3.35-.07-.15-.09.41-.2.86-.85,3.58-1.74,5.4-3.28,5.82-.72.2-1.06.08-.82-.39,2.71-3.21,2.53-6.76,2.33-6.46-.58,2.06-1.65,5.12-3.41,6.38-1.52,1.09-3.75,1.19-4.99.28-.7-.52.36-.67,1.95-.7,2.68-.04,5.19-4.01,4.77-7.36-.1-.62-.25.05-.47,1.06-.99,3.63-2.69,6.17-6.56,5.41-.3-.06-.51-.28-.67-.41-.63-.49-.4-.82.85-.64,2.8.41,5.24-2.51,5.23-6.03,0-1.69-.23-1.67-.47-.41-.34,1.77-1.59,7.22-6.12,5.44-.82-.49-1.26-1.12-.97-1.21,2.64.59,5.07-.05,6.01-3.91.41-1.66.31-3.29-.1-4.65-.13-.92-.41-1.63-.51-2.57-.25-2.52-.61-5.29-.51-8.05.22-.24.25-.19,1.02.37,1.49,1.1,2.63.85,4.14.19,1.96-.78,1.78-.64-.27,1.92-.43.53-.86,1.19-.91,1.29-.52,1.08.46.29,1.19-.73,1.02-1.42,1.23-1.74,1.43-1.74.07,1.53-.43,3.39-.69,4.64-.34,1.39-.33,1.71.47,2.07.35.15,1.01.46,1.38.66,1.67.89,1.52.16.18-.67-1.8-1.13-1.82-1.07-1.3-2.95.6-2.2.9-4.1,1.23-6.28.81-5.38-2.85-8.34-7.71-6.46-.28.16-.6-2.83-.55-3.62.04-.28-.73-.22-1.37-1.09.19-.19-7.16-10.42-10.59-16.62,21.33.06,42.34-.43,61.64-.37h0ZM117.73,51.42s.08.06.08.06c-.03-.04-.06-.06-.08-.06ZM134.39,32.69h21.17v49.46l-2.09.05s-3.44-6.57-4.35-9.67c-.23-.77-.62-1.84-.78-2.26-.35-.95-.59-1.07-.13-1.65.93-1.16.75-3.51-.16-4.64-.28-.37-.42-.24-.41-1.14.01-.77.08-1.26-.11-1.65-.31-.66-.51-.71-.08-1.44.46-.76,1.07-2,1.32-2.97.41-1.57.12-1.86,1.05-1.49,2.32.82,4.26-1.02,4.2-3.61-.05-2.18-1.89-4.13-4.03-3.53-.49.14-.59.09-1.35-.44-.22-.15-.55-.47-.83-.59-.35-.15-.64-.14-.79-.42-.29-.55-1.18-1.42-2.27-1.36-.67.03-1.53-.23-1.76-.37-.38-.22-1.45-.04-2.8-.27-.6-.1-1.09.16-1.38.16-.84.01-.49-.1-.65-.81-1.05-3.67-4.1-3.23-5.51-.47-.51,1.08-.89,2.69-1.08,4.35l-8.23-.14,11.05-15.11ZM70.66,32.8c3.08,4.34,6.02,9.21,9.12,13.64,3.82,5.37,3.94,5.99,2.92,11.39-.57,3.05-.82,3.76-1.98,3.53-1.09-.22-2.01.73-2.16,1.94-.28,2.26,1.69,3.65,3.66,2.52,1.04-.6,1.08-.66.73,1.31-.5,2.82-1.49,5.26-2.13,5.18-1.65-3.9-5.68-1.12-4.34,2.93-.42.71.13,1.6.34,2.34,0,0,0,.09-2.29.93-11.29,3.71-25.07,13.39-32.71,22.48V32.99l28.85-.19ZM135.44,42.08c.47-.01.93.15,1.31.53.98.98.75,2.35-.61,4.93-1.43,3.6-1.04,6.43-.71,10.21,0,2.19-.68,4.28-1.74,5.18-1.72,1.46-3.85-.5-2.95-2.48.46-.98,1.43-.41,1.66-1.34.32-3.43-.45-6.94-.51-10.31.02-1.51.46-3.41,1.08-4.83.6-1.18,1.57-1.87,2.48-1.9h0ZM138.15,47.95c-.39.36-1.04.37-1.12-.08,0-.47.33-1.98.57-2.15,1.41-.37.96,1.84.55,2.23ZM140.26,45.6c1.17-.05,1.94,3.26.92,5.2-.19.04-1.61.03-1.61.06-.02-.35.07-1.04.17-1.7.09-.57.14-1,0-1.6-.38-1.52-.63-1.8.53-1.96h0ZM142.49,45.64s.09,0,.14,0c1.18,0,1.86,2.55,1.49,5.32-.05.4-.08.82-.22.91-.5-.15-1.87.4-1.89.39-.13-.15-.08-.94.1-1.65.32-1.32.42-2.19.03-3.55-.27-1.18-.28-1.4.35-1.42h0ZM145.44,46.37c1.3.24,1.39,4.25.85,5.55-.13.19-.62.15-.79.22-1.11.35-.86.54-.73-1.42.09-1.34.11-2.39-.07-3.49-.09-.49-.12-.83.19-.86.18-.04.38-.03.55,0h0ZM138.94,47.94c.52.79.1,2.62-.29,3.29-.45.75-.63.81-.39,1.14.1.14.32.85.19,1.14-.25.55.39.65.97.98.94.55,1.39,1.55,2.1,3.38.24.64.75.44.5-.25-.21-.59-.29-1.45-.43-2.03-.15-.59.01-.89.63-.72.93.26.8.02,1.14-.12.74-.46,1.24.19.79.55-.26.21-.81.33-1.42.52-.52.16-.4.71.12.71.48,0,1.86-.43,2.75-.73,2.57-.87,2.66-1.33,2.42.3-.32,2.15-1.37,3.77-3.12,4.31-1.52.48-5.03.38-6.59-.17-1.48-.75-1.58-1.27-2.03-2.72-.61-1.99-.98-5.36-.27-7.32.62-1.65.56-1.48,1.16-1.4.53.21,1.24-.02,1.4-.38.08-.17.28-.49.37-.48h0ZM148.8,49.13c.15.89.16,1.8-.12,2.48-.16.32-1.06.3-1.41.31-.21.05-.19-2.99.03-3.32.52-.87,1.2-.17,1.49.53h0ZM122.69,48.61l2.55.03v.69l-3.01-.02.46-.7ZM131.61,48.72v.9h-3.84v5.62l4.29.02.02,1.17-5.74-.02.02-7.67h5.25s0,0,0,0ZM151.11,48.54c3.93.96,2.18,5.8.7,6.1-1.84.37-3.4.14-2.89-1.67.51-1.22.16-2.74.3-3.85.35-.37,1.28-.73,1.88-.58ZM121.46,50.24l3.79.04v.93h-4.33s.54-.97.54-.97ZM129.87,51.1c.6,0,1.09.55,1.09,1.22s-.49,1.22-1.09,1.22-1.09-.55-1.09-1.22.49-1.22,1.09-1.22ZM140.54,51.58c.7.09.76,1.29.48,1.64-.37.41-1.06.23-1.27-.39-.19-.56.23-1.27.79-1.25ZM120.4,52.1l4.84.02v.75l-4.89.05-.13-.48.18-.33ZM147.66,52.43c.67-.02,1.08.61.66,1.15-.63.78-1.92-.41-.66-1.15ZM96.06,54.07c-1.08,1.02-.22,2.02,1.22,1.06,3.1-2.08,7.66-.43,10.64,1.3.58.33.66-.44.09-.98-2.75-2.7-8.61-4.24-11.95-1.37h0ZM142.98,52.65c.76,0,.75,1.05.26,1.43-.49.23-.57.17-.89.03-.44-.19-.11-1.45.63-1.46h0ZM145.66,52.66c.9.05.8,2.06-.56,1.33-.49-.59-.17-1.34.56-1.33ZM120.63,53.7l4.71.05v.85l-4.4-.05-.3-.85ZM90.22,55.71c1.29,1.14.89,1.21-1.24.37-1.39-.35-2.78-.13-3.65.26-1.03.45-1.27.32-.82-.45,1.2-1.5,4.51-1.2,5.72-.18h0ZM96.41,57.59c-.13.35-.57-.28-1.17-.16-.85.18-.6.22.29,1.36.9,1.14,1.19,1.41,1.14,1.85-.08.65.08,1,.66.93.28-.03.61.32,1.03.75,1.47,1.49,2.22,2.23,2.69,2.46,1.95.94,1.07-.12-.17-1.08-2.08-1.6-2.8-2.66-1.32-2.09,1.57.61,4.06.26,5.29-.56.6-.41.99-1.03,1.84-.73,1.2.43,1.66-.36,1.32-.8-.54-.39-1.78-.85-2.96-1.73-2.52-1.42-5.17-1.38-6.93-.24-1.04.68-1.4.2-.38-.47,4.09-2.46,7.33-.1,9.95,1.66.45.31.77.28.77.06-.07-.71-1.23-1.15-1.71-1.47-3.65-2.47-7.48-3.26-10.34.25h0ZM121.25,55.41h4.09v.9l-3.79-.02-.3-.88ZM87.97,56.56c1.13,0,3.6,1.13,3.56,2.07-.05.36-.66.04-1.2-.33-1.04-.71-2.63-.89-4.12-.58-1.15.24-1.52.45-1.68.3-.4-.99,2.4-1.45,3.45-1.45ZM132.19,57.23v1.61c-2.21.18-2.67,2.93-1.25,4.46,1.17,1.26,3.1.76,4.07-1.02.17-.32.19-.51.29-.35.07.1.12.4.17.69.15.85-.06,1.06-.57,1.79-.81,1.17-.92,2.65-.41,3.75.14.3.43.73.38.93.28,0-2.52,8.74-6.62,13.14-.69.51-1.18-.09-.83-.91,3.34-8.5-3.05-16.39-5.53-23.99l10.28-.1h0ZM102.52,58.7l.58.06c-.47,3.92-3.88,3.29-4.01.1l.49-.02c.66,2.97,2.94,1.75,2.94-.13h0ZM83.26,58.78s.25.44.25.68c0,.91-.01,2.23-.03,2.63-.2,3.77-4.49,4.47-4.16,1.24.26-1.37,1.81-1.52,2.19-.28.56,1.56.66-.38.66-.98.45-.95.79-2.1,1.1-3.29h0ZM103.93,59.05c.18,0,.49.18.74.47.28.34.18.51-.48.88-.71.41-1.04.37-.78-.45.16-.51.3-.91.52-.9ZM136.03,59.24c.1,0,.35.15.29.56-.1.68-.63,1.07-.77.91.09-.36.19-1.32.48-1.47ZM98.81,60.57c-.08.28-.23.16-.61-.2-.41-.39-.39-.64.03-.92.61-.41.65.87.57,1.12h0ZM85.82,59.54c.72,2.52,2.18,2.2,2.83.12h.63c-.14,3.23-3.83,3.18-3.86.04l.4-.16ZM84.53,59.86c.22-.04.06.8.06.8,0,0-.61-.35-.25-.72.04-.05.16-.08.19-.09ZM89.95,60.07c.07,0,.22.06.37.17.36.26.3.42-.11.8-.63.59-.92.26-.57-.53.13-.29.22-.44.32-.45ZM137.04,60.62c.27-.02.64.12,1.43.35,2.18.65,5.1.62,7.59-.14.78-.24,1.37,1.29.94,2.41-.19.49-.15.55.42,1.22.81.94.94,2.45.32,3.83-.45,1-.42.91.11,2.63,1.14,3.72,2.82,7.19,4.58,10.59l-2.35-.98s-10.62,10.17-18.1,10.55l2.71,4.71c4.27,1.9,8.34,1.42,12.25-1.31-.1.39,4.75,3.03,8.72,3.32l.02,3.17c-2.95-.37-5.94-.44-8.68-2.37,0,0-2.52,1.17-5.04,2.05l14.14,16.29v2.72s-6.03-6.28-12.24-13.35l.13,34.79,12.23.27c-.38,9.05-.23,14.81-.15,25.18-5.78,6.61-13.73,13.22-21.08,17.19-3.47-3.73-6.33-7.76-8.84-12.08-.05-.09.25-.27.2-.36-.08-.13-.51-.18-.59-.31-1.53-2.54-5.08-9.57-4.52-9.73,1.09.08,6.12-.61,7.13-3.97,0-.21-.11-.81.03-1.52.35-1.82.54-4.59-.07-6.35-1.08-3.17,2.17-2.16,2.28-1.94v-11.98c-4.24,3.79-8.51,7.51-14.18,9.07-3.52-19.79,2.06-44.4,17.99-61.09l-.87-.08c-16.37,18.87-20.66,39.62-17.87,61.47,0,0,.1.68.12.91.04.54-.08.75-.51,1.14-.41.3-.79.63-.75,1,.07.7-.54.72-1.33.72-.36-.36-.86.09-1.15.26-.41.07-.61-1.8-1.14-.43-.2.86-.58.93-1.45.5-.55-.18-.56.13-.03.83.73.87,1.35,2.18,1.23,2.58-.27.88-.15,1.77.96,2.27-.06,0-.67,2.68,1.06,2.61.55,0,1.95.32,1.95.32.09.51-.06.8-.27,1.03l-1.2-.67-.31,1.6-1.6-.13,3.9,5.37.45-4.19,4.56.64c.73,2.12,5.34,13.85,14.15,22.62-.1.29-6.06,3.03-6.06,3.03l-.94-3.26-.76,1.21-1.35-.38-.16,1.37-1.2.43,2.16,1.56-5.48,1.74c-15.37-27.62-22.29-65.7-3.15-106.27l4.84.07-.94,1.8,1.37-.24.39,1.31,1.01-.53,1.02,1.42,1.15-3.79s3.43.09,3.85.04c.34-.04,7.24-6.5,7.09-6.74-.11-.18-7.52,5.86-7.77,5.63,0,0-.74.2-.16-.58,1.04-1.39,1.78-2.44,2.83-4.44,1.75-2.65,2.53-5.88,2.94-8.06,0-.15.04-.5-.07-.76-.67-1.47-.52-2.43.68-4.17.42-.61.44-.76.32-1.13-.27-.84-.01-1.56.54-2.13.22-.22.36-.33.57-.35h0ZM96.3,66.49c3.03,1.39.6,4.46-1.66,1.78-1.18-1.4-2.11-1.32-2.76-.29-.29.46.13,1.28.51,1.02.35-.24.7-.52,1.21,0,3.84,3.94,6.59-1.57,3.29-2.95-.41-.21-.99.26-.59.44h0ZM83.8,66.36s.06.02.11.05c.14.1.15,1.49,0,2.08-.48,2.96-2.38,9.85-6.27,6.48-1.55-1.34-.14-4.7,1.71-3.56,1.44.89.47,3.02-1.09,1.8-.76-.59-.52.63.12.98,1.09.63,3.05-.45,3.98-2.39.37-.77.71-2.13,1.1-4.1.2-.99.21-1.33.34-1.34h0ZM84.13,71.49c.32,2.14-1.14,5.9-3.23,6.45-1.6.42-3.57-.73-3.43-1.81.04-.31.16.1,1.6.37,2.02.37,3.3-.84,4.47-3.64.37-.88.52-1.35.59-1.37h0ZM89.15,72.52c0,.24-.1.88-.19,1.3-.22,1-.35,1.39.64.89.65-.33,1.61-.67,2.59-.06,1.09.67,2.13.55,3.41-.06,1.11-.41,1.66-.42,2.28-.02,1.13.73.74.26.6-1.57-.1-1.29-.42-1.12-.82-.63-.27.32-.81.39-1.41.03-.72-.43-1.71-.23-2.05.08-.34.3-.82.35-1.48-.15-.44-.33-.68-.16-1.21.11-.88.44-1.22.2-1.7-.21-.43-.35-.64-.24-.64.28h0ZM84.78,74.06c.11,0,.13.49.05,1.49-.37,3.68-2.95,5.72-5.99,3.94-1.33-.85-1.15-1.44.16-.91,2.09.84,4.2-.34,5.24-3.36.26-.77.45-1.16.55-1.16ZM92.2,76.68c1.5.69,3.17.47,3.59-.14.48-.69-.25-.58-.64-.47-1.32.35-2.22.22-2.75-.04-1.56-.67-1.46.06-.21.66ZM76.52,78.74c1.95,2.66,2.21,3.18,3.88,6.2,12.27,23.21,16.2,52.55,8.14,79.19-2.21,7.35-5.34,14.84-8.84,20.86l-4.2.05,1.44-1.83-1.96.16-.12-1.21-1.48.53-.71-1.83-1.34,4.19-7.79.02c18.24-19.75,21.84-43.69,18.43-62.91,0,0,1.52-1.06,1.74-1.68.05-.15.17-.79.27-.89.68-.49,1.13-.97,1.46-.88.19.05.29.15.43.38.64,1.05.78,1.21,1.13.16.25-.76.14-1.03.97-.89.48.29,1.13.28,1.07.17-.04-.08-.73-.98-1.06-1.49-.77-1.21-.99-1.43-.92-1.95.11-.81-.47-1.68-.83-1.89.1-2.17-.64-2.39-2.76-2.87-.01-.37.05-.68.19-1.01l1.24,1.1.45-2.05,1.69.1-4.9-5.28c.02,1.49.09,3-.03,4.43-2.3-.14-4.56-.96-4.59-.81-3.37-8.84-8.51-16.32-13.93-22.16l5.42-2.9,1.54,3.26.38-1.85,1.34.26.23-1.18,1.48-.23-1.64-1.73,4.18-1.52ZM108.77,82.55c.21.29.37.31.65.58l-.55.44c.03-.41,0-.63-.1-1.01h0ZM72.74,83.64c-.46,0-.83.42-.83.93s.37.93.83.93.83-.41.83-.93-.37-.93-.83-.93ZM77.25,83.79c-.46,0-.83.42-.83.93s.37.93.83.93.83-.42.83-.93-.37-.93-.83-.93ZM62.7,84.47c2.68,2.48,5.15,5.72,8.14,10.78l-.06.68.91.38s4.97,7.3,4.71,10.54c-1.71.4-3.27-.12-6.32,3.06-1.44-.86-2.3-.59-3.79-.1,0,0,.03.72.54.96.99-1.3,2.08-.7,2.66-.37-.21.1-.75,7.35.3,8.89.79,2.46-1.28,1.99-2.72,1.39l.41,11.51c4.73-6.01,14.73-10.03,14.02-9.59,5.02,29.52-6.91,49.22-19.39,63.65l6.54.04s-5.64,10.08-6.06,12.87c.32.93,1.21,2.84-.29,4.19-.51.62-.56,3.43-.56,3.43-3.44.13-6.42-1.2-10.39.35-.41.15-.5-2.41-.52-2.87-2.22-2.19-.19-5.95.11-5.67-1.79-5.85-5.39-12.84-5.39-12.84,0,0-2.17-.13-3.49-.21-.28-.26-.45-7.08-.17-7.25,9.8.87,25.15-.13,25.15-.13l-4.12-6.41c-5.07-2.2-12.04,1.56-11.7,1.76.02.02-5.57-3.39-9.44-2.91l.13-3.35c3.44-.02,6.62.7,9.39,2.52l4.71-1.95-14.44-16.88.17-2.78c4.71,4.85,12.42,14.23,12.42,14.23v-35.43s-12.4-.03-12.4-.03l-.33-7.15-.32-.62-.15-5.13.35-.52-.12-2.19-.12-.31-.16-5.24.27-.44.04-3.3c6-6.54,21.49-17.55,21.49-17.55h0ZM73.3,85.47l1.45,7.06.97-1.34,1.49.52.1-1.63,1.36-.53-5.37-4.09ZM122.63,86.64c-.46,0-.83.42-.83.93s.37.93.83.93.83-.42.83-.93-.37-.93-.83-.93ZM118.72,87.22c-.46,0-.83.42-.83.93s.37.93.83.93.83-.42.83-.93-.37-.93-.83-.93ZM70.89,88.05c-.46,0-.83.42-.83.93s.37.93.83.93.83-.42.83-.93-.37-.93-.83-.93ZM121.72,88.61l-5.81,6.08,1.63-.08.29,1.78,1.46-.74,1.18,1.21,1.25-8.25ZM124.19,90.65c-.46,0-.83.42-.83.93s.37.93.83.93.83-.42.83-.93-.37-.93-.83-.93ZM78.01,91.85c-.46,0-.83.42-.83.93s.37.93.83.93.83-.42.83-.93-.37-.93-.83-.93ZM81.62,92.62c-.46,0-.83.42-.83.93s.37.93.83.93.83-.42.83-.93-.37-.93-.83-.93ZM78.35,94.01c.16,2.49.42,5.43.48,7.93l1.1-1.21,1.27.58.45-1.53,1.38-.08-4.69-5.69ZM114.1,96.08c-.46,0-.83.42-.83.93s.37.93.83.93.83-.42.83-.93-.37-.93-.83-.93ZM75.95,96.24c-.46,0-.83.42-.83.93s.37.93.83.93.83-.42.83-.93-.37-.93-.83-.93ZM117.41,96.47c-.46,0-.83.42-.83.93s.44.93.83.93.83-.42.83-.93-.37-.93-.83-.93ZM116.91,98.48l-4.81,5.52,1.58.16.5,1.57,1.01-.95,1.22,1,.51-7.29ZM119.55,99.66c-.46,0-.83.42-.83.93s.37.93.83.93.83-.42.83-.93-.37-.93-.83-.93ZM81.6,101.38c-.46,0-.83.42-.83.93s.37.93.83.93.83-.49.83-.93-.37-.93-.83-.93ZM61.04,102.13l-1.22,1.04c1,.43,1.57,1.37,1.57,1.37,0,0-.14-.55-.35-2.41h0ZM85.55,102.76c-.46,0-.83.42-.83.93s.37.93.83.93.83-.42.83-.93-.37-.93-.83-.93ZM79.57,104.09c-.46,0-.83.42-.83.93s.37.93.83.93.83-.42.83-.93-.37-.93-.83-.93ZM114.04,105.96c-.46,0-.83.42-.83.93s.37.93.83.93.83-.42.83-.93-.37-.93-.83-.93ZM110.75,107.32c-.46,0-.83.42-.83.93s.37.93.83.93.83-.42.83-.93-.37-.93-.83-.93ZM144.36,107.55l1.73,2.1v30.72l-1.69.04-.04-32.86ZM76.87,107.77c1.41,0,2.99.23,3.49,1.18.78,1.07-.88.66-2.27.89-1.29.18-.54.47,1.28.59,2.51.17,3.49.24,3.87.88.21.6.06,1.01.1,1.65l-2.85-.15c-1.48,0-2.35-.03-2.78.1-.35.1-.25.41-.13.54.06.07,1.2.09,2.52.13,3.56.1,4.35.24,4.61,1.52.19,1.17-.67.99-4.33.55-1.63-.15-2.51.28-2.74.41-.4.22,1.16.44,1.68.34.32-.06,2.67.23,3.54.41.73.12.09.1-.28.59-.24.41-.17.88-.55,1.11-.47.28-1.39.27-3.05.27-1.9,0-2.78.51-.18.64,1.68.08,1.78.05,1.92.59.38,1.34-.43,1.57-2.15,1.87-.82.16-2.04.07-2.96,0-3.63-.29-4.89-1.25-5.38-3.04-1.83-6.66.43-10.72,5.72-11.05.29-.02.61-.03.94-.03h0ZM113.59,108.07l-4.1,6.65,1.58-.69.75,1.8,1.27-1.01,1.26.87-.76-7.63ZM82.89,108.88c.21.29.12.51-.23.72-.3.18-.8.05-1.14-.11-.44-.21-.49-1.09-.12-1.18.52-.12,1.17.15,1.49.58h0ZM53.18,108.54l-1.88,2.29s1.73-.69,2.66-1.1l-.78-1.19ZM116.14,109.56c-.46,0-.83.42-.83.93s.37.93.83.93.83-.42.83-.93-.37-.93-.83-.93ZM146.69,110.36s2.09,2.3,2.95,3.27h-.78s.02,1.81.02,1.81l2.47.03,1.36,1.48-3.78-.02v1.85h4.67s-.02-.79-.02-.79l1.85,1.86.22,20.6-8.91-.03c-.03-10.14,0-19.92-.05-30.06h0ZM85.58,112.59c-.13.45-.41.45-.9.22-.72-.33-.62-1.22-.07-1.31,1.03-.13,1.23.4.97,1.09h0ZM88.38,112.98c-.46,0-.83.42-.83.93s.37.93.83.93.83-.42.83-.93-.37-.93-.83-.93ZM85.44,113.7c.33.02.65.21.83.41.46.51.29.99-.22,1.29-.57.33-.98-.12-1.14-.88-.11-.51.15-.81.52-.82ZM111.63,116.13c-.46,0-.84.42-.84.93s.38.93.84.93.84-.42.84-.93-.38-.93-.84-.93ZM84.06,117.27c.72.03.94.85.56,1.28-.54.59-1.38.34-1.49-.23-.04-.64.43-1.06.93-1.06ZM108.64,117.64c-.46,0-.83.42-.83.93s.37.93.83.93.83-.42.83-.93-.37-.93-.83-.93ZM111.61,118.26l-3.73,6.98,1.51-.67.92,1.35.94-.92,1.43.78-1.06-7.52ZM82.31,119.43c.67,0,.86.59.37,1.12-.33.36-.7.38-1.08.04-.58-.51-.13-1.17.71-1.16ZM114.22,119.51c-.46,0-.83.42-.83.93s.37.93.83.93.83-.42.83-.93-.37-.93-.83-.93ZM87.04,120.24c-.46,0-.8.42-.8.93s.37.93.83.93.83-.42.83-.93-.41-.93-.87-.93h0ZM148.9,120.45v1.97h4.71s0-1.97,0-1.97h-4.71ZM87.1,122.2l-1.8,7.33,1.51-.96.94,1.07.88-1.2,1.57.46-3.09-6.71ZM90.3,123c-.46,0-.83.42-.83.93s.37.93.83.93.83-.42.83-.93-.37-.93-.83-.93ZM84.43,123.37c-.46,0-.83.42-.83.93s.37.93.83.93.83-.42.83-.93-.37-.93-.83-.93ZM148.9,123.95v1.77h4.71v-1.76h-4.71ZM110.18,126.27c-.46,0-.83.42-.83.93s.37.93.83.93.83-.42.83-.93-.37-.93-.83-.93ZM148.9,127.26v1.91h4.71v-1.91h-4.71ZM51.88,127.49l1.66.03.03,33.27-1.61-1.9-.07-31.41ZM51.19,127.56l-.08,30.41-3.14-3.67h.83v-2.08l-2.72-.02-1.16-1.26h3.87s0-2.03,0-2.03l-4.59-.02v1.23l-2.26-2.68.04-19.86,9.2-.02ZM110.3,128.49l-2.51,7.24,1.58-1,.82.9.84-.85,1.44.78-2.17-7.06ZM44.22,128.83l-.02,1.95h4.64v-1.95h-4.61ZM113.15,129.23c-.46,0-.83.42-.83.93s.37.93.83.93.83-.42.83-.93-.37-.93-.83-.93ZM107.47,129.33c-.46,0-.83.42-.83.93s.37.93.83.93.83-.42.83-.93-.37-.93-.83-.93ZM87.83,129.68c-.46,0-.83.42-.83.93s.37.93.83.93.83-.42.83-.93-.37-.93-.83-.93ZM148.9,130.43v2.05h4.71v-2.05h-4.71ZM87.73,131.58l-.7,1.2-1.6-.61,2.18,7.34,2.73-7.66-1.57,1-1.05-1.28ZM44.22,132.11v1.94h4.61v-1.94h-4.61ZM148.9,133.85v2.03h4.7v-2.03h-4.71,0ZM44.22,135.55v1.95h4.61v-1.95h-4.61ZM110.24,135.92c-.46,0-.84.42-.84.93s.38.93.84.93.84-.42.84-.93-.38-.93-.84-.93ZM85.12,136.89c-.46,0-.84.42-.84.93s.38.93.84.93.84-.42.84-.93-.38-.93-.84-.93ZM90.48,137.06c-.46,0-.84.42-.84.93s.38.93.84.93.84-.42.84-.93-.38-.93-.84-.93ZM148.9,137.19v1.83h4.7v-1.83h-4.71,0ZM110.23,138.05l-1,1.17-1.43-.45,3.25,6.75,1.64-7.26-1.43,1.02-1.03-1.22ZM44.22,138.73v2.21h4.61v-2.21h-4.61ZM87.76,139.73c-.46,0-.84.42-.84.93s.38.93.84.93.84-.42.84-.93-.38-.93-.84-.93ZM87.71,141.66c-.36.28-.51.78-.89,1.03l-1.53-.72.92,9.19,4.23-8.69-1.94.36-.8-1.18ZM44.22,141.96v2.3h4.61v-2.3h-4.61ZM113.51,143.02c-.46,0-.84.42-.84.93s.38.93.84.93.84-.42.84-.93-.38-.93-.84-.93ZM108.09,143.13c-.46,0-.84.42-.84.93s.38.93.84.93.84-.42.84-.93-.38-.93-.84-.93ZM44.22,145.29v2.3h4.61v-2.3h-4.61ZM111.11,145.81c-.46,0-.84.42-.84.93s.38.93.84.93.84-.42.84-.93-.38-.93-.84-.93ZM122.94,145.88c4.49.16,5.14,1.77,5.17,7.32.02,4.43-1.16,6.16-4.06,7.02-1.05.31-5,.02-6.12-.38-.02-.38-.58-1.26-.7-1.94.28-.09,1.19.05,2.89.23,1.38.15,1.74-.1,1.3-.4-2.6-.68-4.38-.5-6.88-1.03-.04-.83-.64-1.8-.64-1.8.14-.06,3.86.39,5.82.32.86-.04.34-.49,0-.58-2.29-.36-3.78-.31-6.2-.65.07-.69-.25-1.32-.64-1.84,0,0,1.22-.01,3.75.03,1.33.02,2.48.08,3.06.06.98,0,.89-.51.04-.58-1.03-.13-5.09-.16-5.09-.16.3-.16.7-2.18.54-2.2,0,0,1.05.02,1.72,0,3.25-.14,3.81-.08,3.87-.21.43-.44-.73-.61-1.93-.6-.52,0-1.27.13-1.27-.19,0-.29,0-.88-.27-1.49,1.99-.86,3.83-.99,5.62-.92h0ZM84.26,147.02c-.46,0-.84.42-.84.93s.38.93.84.93.84-.42.84-.93-.38-.93-.84-.93ZM116.26,147.21c.55,0,.73,1.11.21,1.28-.8.27-1.23.06-1.2-.47.02-.3.64-.82,1-.82h0ZM89.73,148.18c-.46,0-.84.42-.84.93s.37.93.84.93.84-.42.84-.93-.38-.93-.84-.93ZM113.59,149.23c1.9-.02.91,2.85-.54,1.82-.72-.51-.21-1.81.54-1.82ZM83.61,151.52s-.06.04-.05.14l.44,8.73,4.56-8.16-1.81.75-.78-1.32-.98.86c-.4.35-1.16-.99-1.37-1.01h0ZM111.83,152.42c.85.13,1.42,1.08.83,1.54-1.33.65-2.04-1.47-.83-1.54ZM109.79,154.33c-.46,0-.84.42-.84.93s.38.93.84.93.84-.42.84-.93-.38-.93-.84-.93ZM113.01,155.12c.72-.01,1.07,1.16.35,1.53-.15.08-.61.13-.81-.03-.85-.7-.41-1.42.46-1.5h0ZM81.64,156.56c-.46,0-.84.42-.84.93s.38.93.84.93.84-.42.84-.93-.38-.93-.84-.93ZM145.64,157.73l-3.1,1.16v1.64c1.36-.48,2.13-1.71,3.11-2.8h0ZM116.54,158.52c.54.25.68,1.06.22,1.34-.36.22-1.35.18-1.6-.17-.63-1.12.72-1.44,1.37-1.16h0ZM87.27,158.85c-.46,0-.84.42-.84.93s.38.93.84.93.84-.42.84-.93-.38-.93-.84-.93ZM83.84,160.46c-.41,0-.74.37-.74.82s.33.82.74.82.74-.37.74-.82-.33-.82-.74-.82ZM118.66,161.85c-.46,0-.84.42-.84.93s.38.93.84.93.84-.42.84-.93-.38-.93-.84-.93ZM81.14,161.9l-.04,8.25,4.94-6.75-1.71.42-.73-1.67-1.06.77-1.4-1.01ZM112.48,163.8c-.46,0-.84.42-.84.93s.38.93.84.93.84-.42.84-.93-.38-.93-.84-.93ZM137.19,163.83l-.81,1.54,2.3-1.42-1.49-.12ZM115.82,164.93c-.46,0-.84.42-.84.93s.38.93.84.93.84-.42.84-.93-.38-.93-.84-.93ZM118.65,165.93l-1,1.59-1.32-.47-.39,1.52-1.58-.06,5.15,4.99-.85-7.56ZM78.53,166.57c-.46,0-.84.42-.84.93s.37.93.84.93.84-.42.84-.93-.38-.93-.84-.93ZM155.56,168.81v67.83h-28.7l-12.05-18.59c-.25-2.99-.1-6.05,1.02-10.06,1.18.91,3.76.41,3.67-3.11-.06-2.31-3.25-3.49-4.84-1.75.08-2.23.9-5.58,2.07-6.57.8.81.98,2.02,2.8,1.68,1.29-.24,2.31-1.85,1.75-3.72-.14-.48-.22-1.05-.22-1.44,0-.39.03-1.07-.03-1.46-.09-.51-.12-1.06-.12-1.06,13.41-3.4,25.11-12.45,34.65-21.75h0ZM84.4,169.08c-.46,0-.84.42-.84.93s.38.93.84.93.84-.42.84-.93-.38-.93-.84-.93ZM80.45,170c-.46,0-.84.42-.84.93s.38.93.84.93.84-.42.84-.93-.38-.93-.84-.93ZM121.91,170.45c-.46,0-.84.42-.84.93s.37.93.84.93.84-.42.84-.93-.38-.93-.84-.93ZM77.44,171.44l-1.31,8.69,5.7-6.5-1.55-.04-.31-1.48-1.45.52-1.09-1.2ZM116.23,173.3c-.46,0-.84.42-.84.93s.38.93.84.93.84-.42.84-.93-.38-.93-.84-.93ZM119.92,174.31c-.46,0-.84.42-.84.93s.38.93.84.93.84-.42.84-.93-.38-.93-.84-.93ZM73.89,175.44c-.46,0-.84.42-.84.93s.38.93.84.93.84-.42.84-.93-.38-.93-.84-.93ZM123.26,176.15l-1.36,1.15-1.26-.85-.29,1.85-1.07.62,4.49,3.51-.51-6.28ZM126.57,178.63c-.46,0-.84.42-.84.93s.38.93.84.93.84-.42.84-.93-.38-.93-.84-.93ZM79.2,178.95c-.46,0-.84.42-.84.93s.38.93.84.93.84-.42.84-.93-.38-.93-.84-.93ZM75.48,180.17c-.46,0-.84.42-.84.93s.38.93.84.93.84-.42.84-.93-.38-.93-.84-.93ZM124.43,182.64c-.46,0-.84.42-.84.93s.38.93.84.93.84-.42.84-.93-.38-.93-.84-.93ZM120.92,183.47c-.46,0-.84.42-.84.93s.38.93.84.93.84-.42.84-.93-.38-.93-.84-.93ZM88.48,184.8s.01,0,.01,0c.09.11.39.96.13,1.39-.13-.07-.74-.69-.58-.91.07-.1.36-.5.44-.5h0ZM69.47,186.26s.81.05.99.13c0,.23-.19.73-.41,1.3-1.09,2.82-1.26,5.98-.15,9.03,1.74,4.14,6.66,13.92,6.3,14.82l-10.87.05.05-1.84c3.06-.13,3.54-2.22,2.77-3.94-.53-1.19-2.01-1.87-3.36-1.25-1.95.9-2.07,1.98-2.77,3.65l-.31-.44c.59-.87.78-1.7.73-2.66-.05-.93-.07-.68.22-1.19,1.7-2.04.59-4.69.59-4.69-.2-1.63,5.09-12.02,6.23-12.98h0ZM44.6,186.53c3.09,2.74,5.77,11.98,5.61,12.12-.14-.13-2.49,2.97.04,5.85,0,0-.15,1.73.33,2.63-1.12,2.58-1.31,2.78-1.41,4.9-.02,0-.19-.03-1.23-.03-5.12-.03-5.36,7.23-.24,7.63.7.05.94-.12,1.36.34.43.59.81,1.19,1.55.88.17,0,.46.18.75.49.49.74,1.21,1.27,2.23,1.07.36.04.73.15,1.12.31.45.39,1.23.69,1.84.4.18-.09.53-.12.81.03.74.38,1.49.14,1.77-.1.69-.4.84.24.81.83-.35,1.34.42,2.6,1.59,3.1,2.46.85,3.7-.84,4.23-4.18.13-.73.25-1.6.25-1.6l8.24.24-11.83,15.22h-20.59v-50.13c.89-.06,1.91.02,2.79.02h0ZM118.67,189.25c1.5.65,1.62,1.83.13,1.31-2.43-.83-5.04.82-5.59,3.19-.1.44-.21.77-.27.85-.34.46-.32.04-.22-1.27.2-2.55,1.81-4.39,3.92-4.47.69,0,1.44.16,2.03.39h0ZM117.93,191.06c.63,0,1.29.21,1.79.69.56.69.4,1.15-.04,1.12-2.04-.95-4.62.2-5.64,3.06-.62,1.76-.73.82-.46-.54.51-2.46,2.19-4.28,4.34-4.33h0ZM103.77,191.74c-.89,0-1.73.2-2.16.65-.82.86-.14.87,1.34.3.72-.28,2.1-.15,2.99.19.74.29,1,.41.96.15-.04-.77-1.65-1.3-3.13-1.29h0ZM120.37,194.61c.37.96.13,2.64-1.18,2.81-1.54.2-2.34-2.68.48-2.18-.36-1.15-1.63-.83-2.25-.54-1.27.62-2.14,2.01-2.92,4.57-.23.76-.4,1.15-.49,1.08-.15-.13-.22-1.31.12-2.72.61-2.56,2.11-4.1,3.69-4.15,1.03-.17,2.22.31,2.54,1.14h0ZM98.29,193.5c-.14.03.1.57.48,1.41.21.46.35,1.06.35,1.18,0,.45.31.57.77.27.53-.34.61-.59,1.36-.22.71.41,1.4.67,2.05.26.35-.23.58-.22,1.26-.02.81.24.92.27,1.52,0,.77-.36,1.69-.11,1.88.13.19.23.08-.09.5-1.17.19-.5.47-1.11.4-1.28-.1-.23-.81.02-1.57.25-.41.12-.81.09-1.6-.16-1.67-.53-2.72-.37-3.77.18-.58.31-2.05-.12-3.53-.79-.04-.02-.07-.02-.09-.02h0ZM101.58,198.49c-.75-.01-1.44.52-1.75,1.24-.36,1.01.25,2.83,1.2,2.98.84.14.81-.43.38-.59-.64-.23-1.39-1.25-.9-2.14.33-.61,1.34-.61,2.05.15,1.41,1.51,3.03,1.61,3.34.3.09-.52-.27-1.22-.82-1.03-.43.15-1.42.19-2.24-.43-.43-.32-.86-.47-1.25-.48h0ZM116.52,203.29c3.61-.24,2.06,5.25-.03,3.84-.74-.5-.41-2.35,1.56-2.32-1.94-1.68-3.26.37-2.79,2.67-.44.75-.56,2.18-.84,2.99-.44.92-.78-1.5-.34-3.84.43-2.26,1.16-3.26,2.43-3.34h0ZM96.1,203.48c-.75,0,.02.9.14,1.01,2.25,1.97,3.35,3.18,1.54,2.53-2.94-.78-3.7.15-5.93,1.25-.41.22-.53.08-1.02-.08-1.97-.65-1.82.73.23,1.97,3.1,1.87,5.66,2.29,8.07.89,1.55-.9,1.63-.31.19.69-2.47,1.6-5.06,1.36-9.05-1.41-1.29-.89-1.47-.3-.15.64,3.01,2.03,7.06,3.86,10.37.87.65-.64.78-.98,1.28-.7,1.32.74.89-.55-.01-1.75-.32-.43-.55-.77-.53-1.06.07-1.05-.45-1.04-.92-1.02-.57.03-.5-.18-1.2-1.03-1.02-1.24-2.26-2.57-3-2.8h0ZM66.06,209.05c-1.25.11-1.54.17-1.23,3.03.06.54.27,2.14.33,2.75.74,7.47.14,10.77-1.73,11.69-.67.33-1.33.21-1.83-.01-1.18-.53-1.67-2.13-.81-4.03.23-.51.51-1.31.62-1.76.11-.46.36-1.46.56-2.23.47-1.87.73-4.72.45-7.45-.19-1.85-.15-2,.27-3.25.91-1.84,1.49-2.79,3.4-2.81,2.14.25,2.74,3.85-.04,4.08h0ZM111.99,208.88l-.58.03c-.7-2.61-2.17-1.77-2.42.07h-.5c.09-3.49,4-2.55,3.5-.1h0ZM57.08,206.94c3.99.44,4.72,1.54,5.03,6.91.03,2.6-.13,4.17-.48,4.76-.6.32-1.17-.28-2.02.32-.47.32-.38.35-.58,0-.19-.33.03-1.7.34-2.79.29-1.04-.21-1.65-1.53-2.99-.36-.36-.67-.87-.99-1.59-.69-2.05-1.04-1.15-.46.62.28.76.35,1.14-.51.81-.51-.19-.95.04-1.34.27-1.1.31-2.04-.36-1.09-.76.58-.24,1.61-.6,1.94-.6.23,0,.35-.06.35-.18,0-.51-2.11-.46-3.72.16-1.98,1.01-2.09.83-1.91-.74.46-4,3.81-4.49,6.99-4.22h0ZM96.11,207.28c1.02-.05,1.96,1.25,1.77,2.36l-.49-.03c-.23-2.08-2-2.17-2.47.16l-.7.02c.45-1.8,1.18-2.47,1.88-2.5h0ZM107.97,207.33c.4.27.12.99-.31,1.13-.16.04-.68-.35-.55-.6.23-.29.58-.45.86-.53h0ZM112.55,207.68c.28,0,.64.16.69.58.02.62-.4.49-.54.43-.28-.29-.38-.99-.15-1.01h0ZM98.56,208.17c.75.1,1.02,1.15.17,1.21-.38.09-.4-.96-.17-1.21ZM94.01,208.29c.09,0-.05.86-.24.99-.37.25-.84-.02-.82-.28.04-.62.72-.71,1.06-.7h0ZM107.06,210.37c1.42.6,3.28,1.18,5.02.51.64-.27,1.14-.59,1.14-.28,0,.31-.5.79-1.42,1.08-1.88.59-3.24.36-4.52-.72-.36-.3-.49-.58-.22-.58h0ZM106.47,211.27c2.31,1.5,4.4,1.65,6.28.56.76-.29.79-.02.78.52-3.38,3.31-7.61-.13-7.06-1.08h0ZM49.74,213.56c-.57,1.29-.88,4.46-1.82,5.4-6.39-.41-2.28-9.79,1.82-5.4ZM89.31,212.51c-.36.21-.04,1.22.53,1.49,4.88,2.34,7.39,2.62,10.17,1.54,1.15-.45,1.78-1.49,1.84-2,.07-.61-.68-.67-1.98-.02-3.96,1.73-6.44.38-9.64-.96-.3-.12-.6-.17-.91-.05h0ZM70.61,212.58l-.02,7.93-4.65-.09.05-1.17,3.48.11-.05-5.67-4.04-.04v-1.05s5.22-.02,5.22-.02h0ZM71.69,212.6h4.64s.23.82.23.82h-4.87v-.82h0ZM52.97,215.12c-.31.3-.84.37-1.06.13-.49-.55,0-1.57.79-1.56.79,0,.85.85.27,1.44h0ZM55.1,213.83c.7,0,.93.73.4,1.32-.36.37-.55.39-.87.12-.41-.4-.2-1.42.47-1.44ZM50.53,214.03c.18,0,.35.01.47.22.43.97-.97,1.65-1.27.92-.22-.59.33-1.12.8-1.14ZM76.77,214.13l.27,1.02-5.35.03v-1.02l5.08-.03ZM57.62,214.43c.8.11.67,1,.3,1.4-.64.66-1.25.44-1.09-.44.1-.55.42-.95.79-.96h0ZM53.32,217.35c-.28,1.12.32,3.38.14,3.61-.39.51-1.02.25-1.3.07-.97-.69-1.03-4.75-.09-4.99.6.34,1-.26,1.28-.35.27-.09.09.46-.03,1.65h0ZM67.46,215.69c.53,0,.95.48.95,1.06s-.43,1.06-.95,1.06-.95-.48-.95-1.06.43-1.06.95-1.06ZM71.69,215.82h5.47c.33.51.29.85.2,1.2h-5.67s0-1.2,0-1.2h0ZM55.62,215.96c.25,0,.37.59.21,1.27-.3,1.23-.29,2.9-.08,3.63.14.5.28.84.19.99-.28.5-1.15.16-1.52-.5-.9-1.86-.76-5.32.32-5.05.4.23.63-.13.88-.33ZM50.8,216.43c-.26.47-.08,3.11-.1,3.33-.03.27-.71.13-1.09-.06-.93-.49-.68-1.72-.5-2.71.2-.78.65-.84,1.2-.91.3-.04.71,0,.49.35h0ZM58.24,216.57c.3-.01.34.23.27,1.21-.05.76-.08,1.42.03,2.14.24,1.53.27,1.95-.08,2.25-.41.36-.96.25-1.39-.17-.88-.78-.94-4.58-.25-4.91.64.18,1.05-.39,1.41-.51h0ZM77.14,217.72l-.79,1.2h-4.66v-1.2h5.45s0,0,0,0ZM60.5,219.34c.73,0,.61,1.44.22,2.34-.33.54-.58.6-1.07.09-.57-.58.11-2.44.86-2.43ZM75.78,219.74l-.66.67h-3.42s0-.66,0-.66h4.08s0,0,0,0Z"/>
        <path id="path3872-3-7-5" class="cls-2" d="M51.99,191.55l-5.67-4.95c6.74-.16,13.48,0,20.23.14l-6.73,5.35c-1.38-1.68-2.19-3.93-4.15-5.02-1.46.67-2.45,2.98-3.67,4.49ZM101.45,189.75c-.16-.11-.26-.35-.37-1.15-1.68-8.75-9.96-8.13-9.9-7.87-.06-.34,10.28-10.75,16.36-18.92,1.84,6.24,7.41,20.49,7.18,20.44,0,0-1.61.01-5.79-.1-3.8,1.91-6.45,3.78-6.33,6.47-.02.95-.23,1.35-.51,1.26-.23-.03-.43-.1-.64-.15ZM120.3,161.68c5.38-.09,6.4-3.02,7.01-3.38,3.53-.65,5.72,1.92,7.27,4.66,1.98,1.33,1.73.1,2.14-1.97l4.92-1.61v1.75c-1.53.91-3.78,3.25-3.78,3.25l-1.5-.1-.86,1.28c-3.42,2.06-6.78,4.52-10.38,6.11,0,0-4.32-6.23-4.82-10h0ZM53.25,162.22l-.06-34.58c2.23-.17,6.32-.15,6.32-.15,1.71-3.37,4.05-4.95,6.46-6.91.34,4.26.47,8.33.39,12.6-6.38,8.67-9.92,19.35-5.99,35.3l-2.36-.29-4.77-5.97ZM88.49,164.16c1.82-7.21,3.23-14.53,3.81-22.08l12.14-.2.24,4.63-16.19,17.65ZM129.83,148.42l-.23-12.94c8.86-11.79,9.38-22.08,6.1-35.08,2.93.75,4.43,3.29,7.22,6.8v33.73c-1.94.32-6.74.64-6.74.64-.15,1.58-4.21,5.36-6.35,6.85h0ZM92.31,128.03l-.54-5.7,15.78-16.79c-1.3,7.27-2.88,14.74-3.34,22.49h-11.9ZM66.14,110.21c-1.13.82-5.28-3.98-5.96-7.21,1.04-1.57,10.17-6.55,10.17-6.55,0,0,5.34,7.63,5.12,10.82-2.37.7-4.43.9-6.23,3.06-1.03.1-1.39-1.19-3.11-.11ZM58.93,103.76c1.27.23.46,2.14.26,3.54l-6.71,2.22c2.31-2.19,3.94-4.06,6.45-5.75h0ZM80.79,86.88c1.38-.05,2.82.59,3.88.11.4-.17,1.19-.44,2.06-.26,2.01.69,2.71-1.77,3.99-1.78,1.66,0,2.57-1.29,2.58-3.87,0-1.12.09-1.24.28-1.35.56-.33,1.17.13,1.24.75,1.19,4.76,4.18,9.04,8.91,8.7-3.76,4.27-15.21,17.41-15.21,17.41-2.06-7-4.8-13.52-7.74-19.71h0ZM129.5,82.78l6.9-5.58,4.13,5.6,3.57-5.33c2.1,1.67,6.87,5.41,6.87,5.41,0,0-14.3.24-21.46-.1h0Z"/>
        <path id="path3870-4-7-1" class="cls-3" d="M134.18,32.02l-63.4.45,12.32,18.33c13.09-2.97,24.48-1.04,36.31,1.26l14.77-20.05ZM132.56,32.95l-4.22,5.84c-1.17-1.18-3.77-.75-3.4,1.82-3.23-1.87-3.92,3.27-1.17,3.06-.34,1.01-3.12,1.28-3.9-.56-2.85,1.78-3.72.05-4.47-1.07,3.62,2.74,5.38-2.89,1.4-3.2,1.56-3.53-4.02-5.13-3.69-.54-3.68-.93-2.84,4.84-.13,3.66-1.76,2.94-4.64.97-5.22.39-1.48,1.24-4.28,1.28-5.06-.7,4.1.92,3.65-5.09,0-3.71,1.94-4.61-4.51-3.99-2.94-.21-3.67-.16-2.86,4.89.37,4.03-2.86,3.01-5.01.2-5.46.14-1.7,2.08-4.67.94-5.08-.29,2.92,1.29,3.88-4.18.2-3.85.94-3.52-4.35-3.95-3.19.05-2.92-.74-3.08,4.47.19,3.66.2,1.43-2.37,2.79-3.95,1.41-1.16.71-2.43,1.81-3.94.18,2.3-.41,2.68-4.75-1.04-3.81.18-2.66-1.19-2.81-2.89-2.13l-2.71-4.1,60.31-.08ZM88.82,39.48c-.2.5-.54.83-.46,1.21.07.31.35.74.75,1.32,3.17,4.61,9.6,4.45,11.54-.3.39-.88.31-1.08-.16-1.83-.57-.91.07-1.87.78-1.79,1.05.12,1.23,1.14.73,1.86-1.09,1.54,1.91,5.01,4.91,5.56,3.85.7,7.5-2.32,6.99-5.02-.03-.16-.1-.3-.13-.46-.41-2.26,2.81-1.18,1.65.26-.44.52-.67.68-.61,1.25.93,4.79,6.16,5.29,8.65,3.81-3.21,5.83-8.3,1.34-9.19-2.74-4.51,7.25-9.92,5.75-12.94-.63.36.4-5.95,11.42-13.1.12-3.03,9.1-8.55,2.95-8.17,2.58,2.54,1.57,7.14,1,7.59-3.86.06-.6-.35-.64-.58-1.11-1.2-2.41,2.67-2.42,1.78-.23h0ZM76.9,40.08c.57.06.67.33.57.98l-.57-.98ZM126.1,41.79l-.83,1.16c-.2-.57-.2-1.09.83-1.16ZM135.14,42.18c-1.97.09-3.5,3.13-3.4,7.18.05,1.96.36,6.89.48,7.62.17,1.02-.02,2.41-.34,2.56-.85.39-1.17.64-1.41,1.09-.6,1.18-.1,2.51,1.16,3.11.9.43,2.04-.16,2.82-1.45.43-.71.53-1.03.91-2.83.17-.83.16-2.2-.04-3.46-.45-2.86-.12-6.42.77-8.1,1.58-3,1.55-4.97-.08-5.59-.3-.11-.59-.16-.87-.15h0ZM135.03,42.64c2.3,0,2.23,2.56.96,3.35-.49.25-1.1.3-1.7-.14-.68-.44-.59.06.12.63.82.67,1.17.62.73,2.19-.41,1.45-.63,4.6-.4,6.39.62,4.89.1,7.32-1.75,8.17-.91.42-1.89-.17-2.14-.99-.4-1.27.31-2.37,2.05-2.06,0,0,.12-.41-.33-4.65-.63-5.9-.38-10.02.59-11.46.52-.77,1.19-1.43,1.88-1.43ZM150.6,48.72c-.54,0-1.11.17-1.7.54,0,0-.06,2.65-.13,3.06-.39,2.24-.28,2.51.66,2.83,2.28.77,4.15-.91,4.07-3.55-.05-1.48-1.28-2.89-2.89-2.87ZM150.91,49.07c1.25-.04,2.38,1.58,2.25,3.11-.07,1.83-1.64,2.83-3.04,2.51-.42-.07-.85-.16-.98-.51-.28-.48.17-.66,1.12-.66,1.04,0,1.23-.15,1.57-.8.68-1.28-.19-2.91-1.3-2.6-.38.1-.43.3,0,.43,1.36.68.86,1.64.38,2.03-.56.46-1.49-.17-1.65-.55l.1-2.48s.45-.47,1.55-.48h0ZM136.87,60.55s-.52.28-.77.53c-.55.57-.67,1.42-.4,2.27.12.37.1.44-.32,1.04-1.19,1.73-1.35,2.6-.74,4.16q.28.71.02,1.65c-1.12,4.02-3.34,8.58-5.71,11.73-.37.49-.51.99-.51.99,0,0,.55-.03.86-.2,2.45-1.36,5.03-3.98,7.43-5.71-3.8,3.43-7.85,6.51-7.85,6.51l5.17.31c-1.3,1.48-23.97,22.89-17.95,61.28,7.08-1.96,10.37-5.21,14.14-8.98.04,3.09.1,11.42.12,11.42.07-.14-3.27-1.4-2.48,1.67.47,1.68.71,5.95-.13,8.35-.04.1.36.26.32.36-.05.11-.54.11-.54.11-1.29,2.67-4.59,3.26-6.23,3.18-.6-.06-.36.86-.28,1.19.3,1.38,1.73,4.32,4.38,9.05l.7.1-.4.42c.31.64,1.15,1.83,1.15,1.83l.04.41s1.46,2.26,2.24,3.32c.05.07.18-.1.23-.03.43.58.95,1.23,1.4,1.81.03.04-.07.21-.03.25.83,1.01,2.46,3.05,2.46,3.05l.32-.09,1.28,1.61c10.65-5.4,21.78-17.34,21.67-17.31l.09-25.69-12.61-.04-.05-34.04,12.6,13.88-.08-3.98c-2.86-3.03-14.34-15.94-14.34-15.94,1.67-.26,3.29-.86,4.86-1.81,2.74,1.68,5.67,2.69,9.02,2.19v-3.78c-3.82,0-6.19-1.41-7.9-3.11l-2.35-.09c-4.35,3.68-7.42,1.97-10.72,1.25l-2.28-3.67,23.4-.13-.17-8.9-3.55.09-2.31-1.9,2.68,1.26s-.04-.49-.58-1.42c-1.44-2.63-3.27-6.49-4.37-9.86-.53-1.71-.53-1.64-.08-2.64.62-1.38.48-3.05-.33-3.99-.57-.66-.55-.8-.37-1.3.76-1.95-1.07-2.67-1.08-2.55-3.92,1.68-9.18-.05-9.08-.1h0ZM145.99,61.26c.78,0,.87.38.87,1.02-.07,1.19-1.46,1.62-2.09,1.79-3.01.77-8.25.31-8.59-1.25-.25-1.15.39-1.79,2.53-1.22,3.43.82,5.56-.06,7.28-.35ZM136.28,64.57c.31,0,.69.35.79.93.09.49-.37,1.95-.76,2.28-.96.83-1.82-.46-1.18-1.86.37-.81.74-1.35,1.14-1.35h0ZM146.54,64.74c.14,0,.4.04.56.17.76.6.83,2.66.12,2.96-.72.3-1.39-.53-1.38-1.85,0-.81.27-1.29.7-1.28h0ZM144.14,65.17c.15,0,.32.03.49.11.63.32.94,2.49.31,3.18-.49.54-1.53.51-1.83-.61-.36-1.33.2-2.64,1.04-2.69h0ZM138.81,65.23c.92,0,1.13,2.3.23,3.24-.76.79-1.91.01-1.55-1.55.18-.78.6-1.63,1.32-1.69ZM141.43,65.59c1.35.26,1.24,3.95-.53,3.58-1.01-.78-.98-3.52.53-3.58ZM135.52,69.54l1.91.2s-3.04,7.05-5.72,8.92c1.47-2.73,2.76-5.98,3.81-9.12h0ZM146.98,69.58c1.12,3.32,2.26,6.68,3.79,10.07-2.32-2.49-4.37-6.31-6.26-9.9l2.47-.18ZM137.99,69.9l1.27.02c.42,2.15,1.15,3.52,2.01,4.69.74-1.4,1.21-2.93,1.67-4.56l1.01-.02c.38.26-1.18,6.73-2.72,7.52-1.63-1.47-3-5.45-3.22-7.65ZM137.46,71.43c-.11.15,1.97,5.7,3.72,7.48,1.65-1.79,2.71-4.14,3.41-6.94l5.43,8.5-5.3-4.04c-1.06,1.96-2.18,3.83-3.53,5.38-1.45-1.75-2.71-3.83-4.03-5.81-2.04,1.69-3.48,3.49-6.13,5.06.01.07,5.2-6.23,6.43-9.63ZM136.95,77.47l3.7,5.03-9.84-.16,6.15-4.88ZM144.96,77.55l6.21,4.76-9.25.11,3.04-4.87ZM95.48,79.9s.05.3.11.48c1.1,5.01,4.14,9.17,8.72,8.68l-15.04,16.75s-2.48-9.39-7.51-19.01c0,0,.92.21,1.63.37.67.11,1.18.08,1.69-.07.38-.06.68-.34,1.02-.43.58-.14,1.31.1,1.69.25,1.03.22,1.74-.43,3.03-1.7.34-.34.48-.26.91-.26,1.62,0,2.65-1.54,2.47-3.95l-.08-1.07-.21,1.2c-.39,2.26-.66,3.24-2.67,3.33-.49.02-.67.39-1.44,1.12-1.08,1.03-1.84,1.12-2.6.72-.78-.41-.85-.17-1.59.22-.84.45-2.07.39-3.17.04-1.54-.49-1.35-.33-1.35-.33,8.94,17.72,12.07,34.71,11.88,49.81-.28,21.51-7.04,38.87-12.96,49.34,0,0,1.02-.12,1.92-.26.44-.14.77,0,1.2.16.4.16.71.15,1.1.1.31-.04,1.06,0,1.55.08,1.1.18,1.17.02,2.37-1.28,3.4-3.68,3.18-3.54,5.64-3.45,3.69.13,6.65,2.85,7.88,7.25.16.56.36,1.34.39,1.34l-.24-1.17c-1.08-5.9-5.61-8.06-9.39-7.98l15.96-17.83c-.08.02,3.7,13.57,6.99,19.61,0,.04-1-.48-2.84-.22-1,.14-2.12,0-2.74-.12-.81-.02-1.3.24-2.3,1.17-.42.4-.79.83-1.61,1.22-1.94.91-2.72,1.86-2.73,4.23,0,.43-.06.98-.05,1.2,0,.06,0,.16,0,.16.03,0,.08-.09.12-.15.1-.16.29-.59.44-1.58.27-1.77.6-2.39,2.11-3.18.45-.24,1.4-.88,1.83-1.25,1.39-1.23,1.85-1.52,2.98-1.22.64.17,1.19.25,2.05.14,1.02-.14,1.08-.2,2.18.12.74.21,1.66.42,1.66.42-15.47-34.62-14.96-66.71.31-99.26,0,0-4.52.06-4.71.19-.07.05-.62,0-1.22-.13-1.23-.25-.96-.08-3.86,3.17-3.59,4.02-9.33.81-11.06-5.93-.09-.35-.17-.57-.3-.82-.04-.08-.16-.21-.16-.21h0ZM110.1,83.85c.66.08,1.16.27,1.08.97l-21.31,23.25-.33-1.5,20.56-22.72ZM114.6,84c-.26.58-.97,1.3-1.29,1.84l1.16,1.61-.64,1.3-1.78-1.67-3.39,3.73,2.83,3.54-2.68,3.01-.89-1.12,1.42-1.65-2.2-2.29-3.87,4.2,3.16,3.57-2.31,2.47-.92-.98,1.21-1.49-2.06-2.37-3.61,4.1,2.86,3.54-2.21,2.44-.98-1.1,1.06-1.23-2.04-2.38-3.68,4.04,2.98,3.6-2.19,2.18-.77-.91,1.06-1.27-2-2.39-2.28,2.31-.38-1.58,22.56-24.97,1.89-.06ZM115.9,84.36l-.95,2.13-.74-.9.96-1.1.73-.13ZM62.68,84.5c-.58.16-14.02,8.5-21.67,17.65l-.02,3.41-.28.41.14,5.28.19.28.07,2.15-.3.57v5.91l.41.08.07,7.23,12.56.04v34.55s-7.39-9.04-12.7-14.37l.02,4.04,14.05,16.18c-.97.15-2.22.41-4.12,1.58-4.56-3.17-9.83-2.2-9.83-2.2l.02,4.11c3.35-.36,6.38.15,9.9,2.79,2.9-2.19,6.4-3.52,11.61-1.78,1.15,2.02,2.29,4.11,3.44,5.47l-24.88.21.03,8.33c1.1.02,3.86,0,3.86,0,1.4,3.06,4.15,7.23,5.29,12.47-1.57,2.1-1.44,3.79.08,5.9-.01.95-.27,2.01.69,3.07,3.17-1.72,6.74-.96,9.4-.08.9.3,1.24-.85,1.21-2.29-.08-.82-.08-1.18.49-1.73,1.35-1.31.51-3.99.3-4.05-.08-2.36,6.7-14.16,6.7-13.94l-1.35.54-5.79.03c15.24-16.37,21.6-35.04,20.27-56.12-.3-5.31-1.04-7.75-1.04-7.75-5.37,2.66-9.78,4.59-14.06,9.7l-.28-10.99c.24.52,1.83,1,2.54.34.49-.36.54-.74.09-2.07-.65-1.94-.81-6.09-.32-7.5.06-.16.11-.6.15-1.03.06-.58-.06-.61-.11-.6.12-.03.65.08.71.02,1.83-1.79,3.79-2.92,6.2-3.03l.06-1.31c-1.79-5.03-3.3-7-4.92-9.81,0,0-.46-.17-.75-.1l.37-.44c-2.27-4.01-5.5-7.67-8.47-11.13,0-.01,0-.02-.02-.01h0ZM62.58,85.18l1.61,1.66c-7.69,4.12-15.27,10.15-22.74,18.33l.1-3.01c8.44-8.84,14.81-13.09,21.02-16.98h0ZM111.94,88.19l.97,1.07-1.34,1.73.87.99-.49,1.32-2.23-2.58,2.22-2.54ZM63.96,88.33c.51,0,.92.46.92,1.02s-.41,1.02-.92,1.02-.92-.46-.92-1.02.41-1.02.92-1.02ZM129.73,89.74c15.67,19.43,7.62,47.67-13.29,54.45l-.23-1.6c21.1-7.92,26.05-34.41,12.36-51.07l1.17-1.79ZM66.67,89.87l1,1.29c-8.93,4.75-17.65,11.87-26.07,22.15l-.08-2.59c7.91-9.26,16.37-15.97,25.15-20.84h0ZM60.91,90.26c.51,0,.92.46.92,1.02s-.41,1.02-.92,1.02-.92-.46-.92-1.02.41-1.02.92-1.02ZM58.12,92.18c.51,0,.92.46.92,1.02s-.41,1.02-.92,1.02-.92-.46-.92-1.02.41-1.02.92-1.02ZM67.41,92.85c.51,0,.92.46.92,1.02s-.41,1.02-.92,1.02-.92-.46-.92-1.02.41-1.02.92-1.02ZM107.21,93.56l.92,1.08-1.45,1.62,2.07,2.41,1.99-2.13-1,3.18-17.55,19.54-.37-2.05,1.38-1.55-2.12-2.35-.37-1.57,2.08-2.17.87,1-1.22,1.57,1.96,2.15,3.56-3.65-2.94-3.59,2.42-2.61.84.91-1.16,1.33,2.04,2.47,3.65-3.9-3-3.53,2.41-2.65.91.97-1.21,1.62,2.08,2.24,3.58-3.94-2.94-3.44,2.56-2.93ZM55.39,94.24c.51,0,.92.46.92,1.02s-.41,1.02-.92,1.02-.92-.46-.92-1.02.41-1.02.92-1.02ZM69.84,94.44l.7,1.29c-10.63,5.99-17.99,11.98-28.87,25.76v-1.73c8.4-11.49,17.14-18.9,28.17-25.31h0ZM64.5,94.6c.51,0,.92.46.92,1.02s-.41,1.02-.92,1.02-.92-.46-.92-1.02.41-1.02.92-1.02ZM146.77,94.99c1.88,1.86,5.82,3.71,8.35,3.52l.07,2.24c-4.43.47-8.3-2.69-8.3-2.69-3.41,2.32-6.88,2.61-10.5,1.6l-1.39-3.32c5.37,2.77,10.4.13,11.77-1.35h0ZM125.58,95.59c.2.4.86.87.86.87,4.13-1.2,5.42,3.55,3.49,6.26l.55,1.99c.74.15,1.38.44,1.91.84,1.01.78,1.56,2.12,1.43,3.53.14,1.53-1.91,2.95-2.02,2.85l-.03,2.19c.58.54,1.27,1.05,1.72,1.81.99,1.85.6,3.71-.93,4.88-.91.68-1.89.77-1.93.7l-.95,2.48c.84.53,1.08,1.43,1.21,2.07.29,1.39-.59,3.21-1.69,3.87-1.39.85-3.28.09-3.28.1l-1.35,1.51c.35,1.31.44,2.09.26,2.85-.46,1.9-2.24,2.64-3.68,2.5-1.13-.11-1.97-1.03-1.97-1.03l-1.5.64s.02,2.12-.74,2.77c-.24.27-1.08.88-1.08.88l-.2-1.46c.59-.48.96-1.63.84-2.48l3.24-1.77c0,.13.89,1.09,1.49,1.23,1.24.28,2.54-.8,2.55-2.07,0-.74-.38-1.25-.49-1.85l2.75-3.17c1.14.44,1.94.51,2.45.18.96-.62,1.22-1.9,1.04-2.66-.22-.91-.95-1.5-1-1.58l1.54-4.32c.72,0,1.16-.13,1.72-.53,1.14-.83.99-2.45.51-3.22-.59-.93-1.45-1.11-1.51-1.09l.11-4.49s1.55-.83,1.72-1.83c.25-1.48-.31-2.41-1.94-2.83-.9-.23-.85-.04-.85-.04l-1.29-4.07c2.04-1.38,1.39-3.59.36-4.32-1.09-.78-2.63-.06-2.63-.06,0,0-.7-.77-1.23-1.4l.56-.72ZM71.06,96.42c1.34,2.01,3.61,6.02,4.87,9.62.06.16.03.95.03.95-3.62.35-4.86,1.93-6.14,3.04-1-.57-1.42-1.24-3.22.02,0,.06-4.59-3.09-5.47-7.37,3.28-2.25,6.4-4.4,9.93-6.26h0ZM52.7,96.44c.51,0,.92.46.92,1.02s-.41,1.02-.92,1.02-.92-.46-.92-1.02.41-1.02.92-1.02ZM61.39,96.64c.51,0,.92.46.92,1.02s-.41,1.02-.92,1.02-.92-.46-.92-1.02.41-1.02.92-1.02ZM124.11,97.9c1.58,2.32,3.96,6.7,4.53,10.58.8,5.46.27,11.18-1.98,15.18-4.07,8.55-11.14,10.37-11.14,10.67l-.07-1.75c.07.39,5.4-2.11,9.03-7.76,2.24-3.83,3.51-9.3,3.08-13.58-.27-6.16-4.19-11.83-4.22-11.85l.78-1.49ZM49.84,98.73c.51,0,.92.46.92,1.02s-.41,1.02-.92,1.02-.92-.46-.92-1.02.41-1.02.92-1.02ZM58.52,98.75c.51,0,.92.46.92,1.02s-.41,1.02-.92,1.02-.92-.46-.92-1.02.41-1.02.92-1.02ZM136.77,100.47c2.03.25,4.52,4.35,6.78,6.7l.02,33.49-6.76.15c-.88,2.36-2.92,4.69-6.18,6.98v-12.55c11.09-13.24,8.08-27.74,6.13-34.78h0ZM47.35,100.85c.51,0,.92.46.92,1.02s-.41,1.02-.92,1.02-.92-.46-.92-1.02.41-1.02.92-1.02ZM55.71,101.03c.51,0,.92.46.92,1.02s-.41,1.02-.92,1.02-.92-.46-.92-1.02.41-1.02.92-1.02ZM141.54,101.11l13.82,15.53-.05,2.28-15.58-17.63,1.8-.17ZM60.78,102.57l.37,1.95c-.45-.78-.46-1.07-1.24-1.21l.87-.74ZM53.29,103.14c.51,0,.92.46.92,1.02s-.41,1.02-.92,1.02-.92-.46-.92-1.02.41-1.02.92-1.02ZM45.02,103.43c.51,0,.92.46.92,1.02s-.41,1.02-.92,1.02-.92-.46-.92-1.02.41-1.02.92-1.02ZM122.78,103.43l2.73,2.15-.89,3.88-2.79-2.8.95-3.24ZM59.72,103.74l.49.32-.56,2.66-6.28,2.53c2.02-1.92,4.1-4.02,6.36-5.5h0ZM60.75,104.98c.45,1.97,1.42,4.88,2.6,7.34-.81.46-3.7,2.29-3.7,3.14.41,1.54,3.47,2.95,3.47,2.95-1.16,2.1-2.26,4.57-3.17,7.41-.52-.99-.58-4.91.54-6.53-1.11-.49-2.63-1.6-3.79-2.76.75-2.94,3.92-4.69,4.06-4.72-.06.15-.94-6.14-.03-6.84h0ZM50.55,105.47c.51,0,.92.46.92,1.02s-.41,1.02-.92,1.02-.92-.46-.92-1.02.41-1.02.92-1.02ZM120.52,105.56c4.08,8.46,1.65,15.82-4.85,21.09l.15-2c4.49-3.63,7.39-10.77,4.12-17.58l.58-1.51ZM42.81,105.8c.51,0,.92.46.92,1.02s-.41,1.02-.92,1.02-.92-.46-.92-1.02.41-1.02.92-1.02ZM108.04,105.85c-2.99,12.43-2.92,18.12-3.27,21.49l-11.62.11-.45-4.48,15.33-17.12ZM61.63,106.2s2.52,2.61,4.78,4.88l-.27.59-2.2.33c-1.68-3.69-2.31-5.8-2.31-5.8ZM59.54,107.56h.02s.14,1.86.14,1.86c-.75-.03-8.92,3.77-15.2,9.84.94-1.84,2.51-3.6,4.04-5.1,3.25-3.55,11-6.6,11-6.6h0ZM47.93,107.98c.51,0,.92.46.92,1.02s-.41,1.02-.92,1.02-.92-.46-.92-1.02.41-1.02.92-1.02ZM53.08,109.15l.47.53-2.17,1.25,1.7-1.78ZM68.19,109.69s.06,0,.09,0c.34.05.47.22.67.4-.42-.1-.84-.15-1.24-.13.1-.13.27-.27.48-.28h0ZM59.89,110.08l.2,1.38c-4.7,2.98-10.29,5.79-18.43,14.36v-2.85c5.11-5.27,11.06-9.69,18.23-12.89h0ZM66.22,110.21c.29.08.55.08.82.01,0,0-.17.38-.37.38-.21,0-.45-.4-.45-.4h0ZM68.21,110.29c.59-.04.99.56.88,1.34-.45,2.63-.44,5.29.05,7.15.38,1.45.48,1.96.16,2.2-2.77,2.13-4.29-7.47-1.98-10.19.31-.33.62-.48.89-.5h0ZM45.58,110.62c.51,0,.92.46.92,1.02s-.41,1.02-.92,1.02-.92-.46-.92-1.02.41-1.02.92-1.02ZM125.21,110.86l1.72,3.22-2.4,2.99-1.46-3.48,2.14-2.74ZM65.91,112.61l-.09,1.11c-1.24.42-2.32,1.01-3.24,1.89-.18.17,2.87,1.7,3.19,1.35v1.18c-.05.39-5.04-1.38-5.38-2.7.57-.88,3.73-2.92,5.53-2.84h0ZM43.17,113.2c.51,0,.92.46.92,1.02s-.41,1.02-.92,1.02-.92-.46-.92-1.02.41-1.02.92-1.02ZM56.8,114.37c-.35.75-.88,1.75-.98,2.84-3.43,2.32-6.94,4.48-11.22,9.79l-2.3-.02-.05-.67c4.67-4.96,9.73-9.25,14.55-11.94h0ZM65.62,114.69l.02,1.4c-.8.01-1.23-.28-1.83-.61.5-.35.89-.7,1.8-.78h0ZM91.41,114.84l.64.75-.4.42-.24-1.17ZM56.69,117.75l1.27.88c-3.27,1.9-6.71,4.71-9.68,8.37h-2.51c3.17-3.83,6.59-7.27,10.93-9.25h0ZM124.37,118.76l.25,3.8-3.19,1.95.06-4.01,2.87-1.74ZM63.76,118.77l2.19.27.23,1.03c-1.84,1.3-3.44,2.83-4.97,4.42.59-2.04,1.5-4.07,2.55-5.72h0ZM58.51,119.18l.94.48-.37,1.79c-2.69,1.33-4.82,3.13-7.12,5.55h-2.58c2.26-2.7,6.01-6.09,9.13-7.82h0ZM66.66,120.86s.01,0,0,0l.34,11.72c-9.47,12.35-8.95,24.29-6.19,35.12l-1.81-.09c-2.1-2.91-4.89-5.86-4.89-5.86v-34.09s6.52.03,6.52.03c1.54-3.97,5.77-6.79,6.01-6.82h0ZM58.95,122.5l.08,1.56c-1.35.89-2.5,1.88-3.48,2.93h-2.45c1.69-1.76,3.38-3.53,5.85-4.49ZM81.21,123.27l.36,1.84c-21.98,8.86-25.95,34.6-12.98,52.28l-.88,1.1c-14.89-17.82-8.36-46.93,13.5-55.22ZM59.13,125.11s.12,1.41.16,1.88h-2.46c.55-.72,1.05-1.47,2.3-1.88ZM120.97,125.71l-1.42,3.68-3.78.06,1.72-3.68,3.48-.06ZM97.05,128.22h3.44v3.67h-3.44v-3.67ZM82.14,128.59l.06,1.61c-1.53.87-1.14,2.25-1.53,2.23-.94.27-3.42,1.73-3.42,1.73-.88-.89-2.06-.66-2.62-.23-.76.56-.93,1.85-.71,2.95l-2.63,3.43c-1.27-.6-2.51-.57-3.13.38-.7,1.07-.43,2.39.72,3.87l-1.43,4.1c-.16-.25-2.56.54-2.6,2.13-.03,1.68,1.98,2.78,1.98,2.9l-.1,4.52c-.09-.22-2.06.68-1.79,2.84.25,1.99,2.68,1.75,2.73,1.92l1.32,4.32c-.09-.13-1.79,1.73-.75,3.49.87,1.47,3.4.52,3.38.42l.7,1.1-.78.94s-.34-.45-.52-.41c-1.47.31-3.12-.06-3.91-1.37-1.07-1.85.12-4.73.51-4.71l-.91-2.49c-1.66-.04-3.06-1.69-3.14-3.07-.16-2.89,1.98-4.1,1.98-4.08l.06-2.7c-.13.16-2.11-1.4-2.06-3.19.03-1.31,1.02-2.85,2.24-3.47.35-.18.9-.48.9-.48l.82-2.21s-1.17-1.88-.87-3.77c.56-2.87,3.92-2.67,4.45-2.39l1.56-2.17c-.77-1.98.56-4.28,2.29-4.66.77-.14,2.92.43,2.92.43l1.99-1.15c-.03-1.21,1.15-2,2.26-2.74h0ZM93.48,132.6h2.95v3.67h-2.95v-3.67ZM101.34,132.6h3.33v3.67h-3.33v-3.67ZM82.38,133.52l-.04,1.4c-19.05,10.29-11.26,31.6-8.54,34.08l-.61,1.51c-3.34-2.27-11.96-26.86,9.19-36.99h0ZM97.05,137.23h3.58l.03,3.77h-3.58l-.03-3.77ZM81.56,139.06l-1.14,3.43-3.5.33,1.29-3.43,3.34-.34ZM153.04,141.57l2.39.02c-4.48,5.83-9.3,9.81-14.07,11.98,0,0-.02-.52.13-.93.12-.33-.07-1.15-.07-1.15,5.3-2.91,8.94-6.29,11.62-9.92h0ZM140.77,141.62c-.62.82-1.32,1.55-2.19,2.09l-.35-2.12c.73,0,2.54.03,2.54.03ZM144.99,141.57c.24.68-6.28,4.6-6.31,4.27l.02-1.31,3.52-2.91,2.77-.05ZM146.39,141.57h1.85c-1.66,2.93-10.43,8.22-10.07,7.47l.35-2.13c2.83-1.39,5.39-3.27,7.86-5.34h0ZM149.49,141.57h2.42c-3.64,5.16-7.32,7.03-10.86,9.25-.21-.03-.12-.12-.78-.1l-1.21-1.05c.23.23,8.13-4.93,10.43-8.09ZM81.88,141.76l-.08,1.55c-5.09,4.87-7.13,11.1-4.48,18.33l-.63,1.54c-2.85-7.71-2.01-15.21,5.19-21.42h0ZM105.04,142l.27,4.2-15.79,17.12c2.4-9.57,3.07-15.34,3.71-21.3l11.8-.02ZM155.6,142.99v2.33c-6.22,7.64-12.49,11.06-17.91,12.45l-.12-.9,2.51-1.72c8.09-3.93,11.63-7.88,15.52-12.16h0ZM136.71,143.05c.11,1.68-1.24,4.86-2.77,6.65h-2.63s-.29-1.28-.29-1.28c2.18-1.31,4.2-3.09,5.7-5.37h0ZM137.5,143.55c.97,1.73-.48,6.22-.54,6.04-.12.31,8.27,2.28-.35,6.91.19,1.36,1,4.26.37,6.05-.19-.69-1.69-5.34-2.85-6.53,2.69-.85,4.63-2.69,4.42-3.29-.44-.86-1.64-1.92-3.67-2.69,1.73-2.67,2.24-4.67,2.62-6.49h0ZM75.9,144.4l.27,3.54-3.06,2.05-.24-3.88,3.03-1.71ZM129.2,147.69c.24,0,.46.07.57.21,1.51.68,1.62,8.91.25,9.75-1,.7-1.7-.42-1.67-.62.66-3.79.25-6.12-.03-8.77.03-.38.47-.56.87-.56h0ZM155.6,147.81v2.93c-8.9,10.28-18.49,18.38-28.27,22.93l-.89-1.69c11.89-6.12,21.83-14.86,29.17-24.16ZM154.03,148.07c-4.12,6.39-9.14,10.57-16.02,12.46l-.13-1.81c8.57-2.17,16.37-10.65,16.15-10.65ZM41.87,149.11c5.37,6.11,10.87,12.17,16.33,18.45l-2.17.13-14.23-16.44.07-2.13ZM105.77,149.42l.19,1.51-1.56,1.91,2.47,2.96.13.7-2.12,2.47-.96-1.06,1.17-1.47-1.99-2.33-3.69,3.95,3.04,3.68-2.29,2.43-.9-1.04,1.17-1.51-2.04-2.4-3.76,4.17,2.85,3.5-1.9,2.34-.9-1.06.97-1.25-2.06-2.37-3.61,3.88,2.98,3.67-2.42,2.68-.94-1.01,1.36-1.65-2.23-2.37-1.79,1.88s.67-1.87.77-2.18c.14-.46.74-.83,4.5-4.96,4.49-4.98,9.09-9.64,13.57-15.08h0ZM131.51,150.42c1.31.02,3.54.38,4.63,1.01,2.01,1.18,1.38,2.11.07,2.8-1.56.83-2.84,1.23-4.61,1.29l.05-.96c1.02-.28,2.09-.55,2.99-1.11.62-.38.78-.69.78-.69,0,0-.61-.69-1.57-1.08-.71-.29-1.72-.28-2.27-.38l-.08-.88ZM72.81,151.69l1.65,2.76-1.96,3.65-1.88-3.15,2.18-3.26ZM106.12,151.99c.06.52.65,2.54.34,2.15l-1.1-1.38.76-.77ZM131.62,152.26c.91.09,1.87.12,2.54.48-.77.67-1.65.82-2.52.98l-.02-1.46ZM154.53,153.64c.55,0,1,.5,1,1.11s-.45,1.11-1,1.11-1-.5-1-1.11.45-1.11,1-1.11ZM103,155.57l.85.92-1.1,1.43,2,2.34,2.47-2.58.33,1.64-23.16,25.39-1.29-.1,1.47-1.94-1.68-1.91.69-1.37,1.98,1.96,3.62-3.86-2.93-3.44,2.51-2.87.95.91-1.44,1.74,2.1,2.39,3.79-4.15-2.96-3.59,2.37-2.51.87.92-1.1,1.3,2.16,2.51,3.19-3.7-2.91-3.57,2.58-2.8.79.88-1.19,1.48,2.17,2.5,3.48-3.99-2.87-3.47,2.26-2.45ZM152.21,156.23c.55,0,1,.5,1,1.11s-.45,1.11-1,1.11-1-.5-1-1.11.45-1.11,1-1.11ZM133.38,156.28c1.57,2.06,2.52,4.35,2.71,6.81-1.26-2.12-2.86-4.01-4.95-5.65l.36-1.03,1.88-.13ZM155.6,156.45v2.48c-7.02,8.86-15.54,15.54-24.28,20.18l-1.49-2.02c10.34-5.15,17.83-11.54,25.77-20.65ZM145.27,158.18l-2.85,2.46v-1.07l2.85-1.39h0ZM130.61,158.37c2.42,1.32,4.45,3.54,5.66,6.84-3.31,2.31-6.94,4.19-10.4,6.05-1.66-2.98-3.33-5.77-4.64-9.61,5.33-.04,6.8-3.29,6.84-3.32,1.29.54,1.55.61,2.54.03h0ZM149.78,158.85c.5.01.99.43,1.01,1.07,0,.61-.45,1.11-1,1.11s-1-.5-1-1.11c.11-.77.55-1.08.98-1.07h0ZM142.39,159.58v1.07c-1.35,1.33-4,3.48-4,3.48l-1.09-.06.36-3.05c1.66-.37,3.26-.91,4.74-1.44h0ZM72.71,159.71l2.61,2.39-.8,3.71-2.57-2.18.76-3.93ZM107.8,160.41l.24,1.07-21.46,23.64-1.22-.22,22.44-24.5ZM147.4,161.32c.55,0,1,.5,1,1.11s-.45,1.11-1,1.11-1-.5-1-1.11.45-1.11,1-1.11ZM155.32,161.32c.12,0,.26,0,.26.11v2.05c-.1.04-.22.06-.34.06-.55,0-.92-.5-.92-1.11s.45-1.11,1-1.11ZM152.9,163.8c.55,0,1,.5,1,1.11s-.45,1.11-1,1.11-1-.5-1-1.11.45-1.11,1-1.11ZM144.51,163.81c.55,0,1,.5,1,1.11s-.45,1.11-1,1.11-1-.5-1-1.11.45-1.11,1-1.11ZM137.29,164.15l1.03.04-1.91,1.26c.35-.49.68-.86.88-1.3h0ZM155.59,164.67v2.29c-4.9,5.47-11.1,11.14-20.58,16.61l-1.21-1.36c7.73-4.11,14.98-9.86,21.78-17.53h0ZM141.65,165.92c.55,0,1,.5,1,1.11s-.45,1.11-1,1.11-1-.5-1-1.11.45-1.11,1-1.11ZM150.53,166c.55,0,1,.5,1,1.11s-.45,1.11-1,1.11-1-.5-1-1.11.45-1.11,1-1.11ZM51.09,170.47c3.39-2.19,6.11-2.45,9.99-1.79l1.16,2.55c-3.78-.75-7.76-.68-11.16,2.25-3.53-2.48-6.21-3.2-9.11-2.8l-.05-2.69c3.78-.59,7.16.85,9.17,2.47h0ZM138.9,168.04c.55,0,1,.5,1,1.11s-.45,1.11-1,1.11-1-.5-1-1.11.45-1.11,1-1.11ZM148.03,168.5c.55,0,1,.5,1,1.11s-.45,1.11-1,1.11-1-.5-1-1.11.45-1.11,1-1.11ZM135.9,170.16c.55,0,1,.5,1,1.11s-.45,1.11-1,1.11-1-.5-1-1.11.45-1.11,1-1.11ZM145.21,170.81c.55,0,1,.5,1,1.11s-.45,1.11-1,1.11-1-.5-1-1.11.45-1.11,1-1.11ZM132.82,172.13c.56,0,1.01.5,1.01,1.13s-.45,1.13-1.01,1.13-1.01-.5-1.01-1.13.45-1.13,1.01-1.13ZM142.54,173.06c.55,0,1,.5,1,1.11s-.45,1.11-1,1.11-1-.5-1-1.11.45-1.11,1-1.11ZM129.86,173.83c.55,0,1,.5,1,1.11s-.45,1.11-1,1.11-1-.5-1-1.11.45-1.11,1-1.11ZM85.72,174.84l2.48,2.53-2.57,2.87-.94-1.01,1.43-1.67-.97-1.45.56-1.28ZM139.78,175.08c.55,0,1,.5,1,1.11s-.45,1.11-1,1.11-1-.5-1-1.11.45-1.11,1-1.11ZM136.91,176.97c.55,0,1,.5,1,1.11s-.45,1.11-1,1.11-1-.5-1-1.11.45-1.11,1-1.11ZM133.78,178.86c.55,0,1,.5,1,1.11s-.45,1.11-1,1.11-1-.5-1-1.11.45-1.11,1-1.11ZM82.43,182l.81.74-1.27,1.71-.97-.02,1.43-2.43ZM66.75,186.61c-2.83,1.56-4.17,2.55-6.15,4.46l-2.83-4.37,8.98-.09ZM47.49,186.64l7.54.12-2.51,3.95c-1.65-1.94-3.33-3.26-5.03-4.07ZM56.47,187.07c.82.29,2.95,3.68,3.96,5.54,2.14-1.9,4.24-4.02,6.53-5.16-2.72,3.2-5.11,6.52-6.81,9.72-.48-1.44-1.82-5.58-3.52-7.38-2.68,2.79-3.74,6.15-3.74,6.15-1.44-2.74-3.18-5.48-5.18-8.04-.33-.5,2.44,1.42,5.19,4.4.77-2.17,2.84-5.14,3.57-5.23h0ZM47.41,189.2c1.29,1.15,4.81,6.18,5.22,9.2l-1.69.12c-.9-3.11-2.4-6.21-3.53-9.32h0ZM66.16,189.72c-1.27,2.91-2.86,5.89-3.99,9.11l-1.67-.08c1.82-4.44,2.49-5.25,5.66-9.03ZM56.61,191.01s.03,0,.04.01c1.58,2.41,2.33,4.75,2.8,7.59l-1.22-.05s-.85-2.86-1.44-3.87c-.38-.62-.68-.54-.95-.03-.6,1.21-.83,2.42-1.17,3.73l-1.41-.11c-.26-2.16,2.86-7.22,3.35-7.28h0ZM56.38,199.31c.57,0,1.17.7,1.17,1.91.04.57-.35,1.83-.78,1.9-.8.47-1.74-1-1.5-2.22.2-1.04.62-1.6,1.12-1.59h0ZM53.61,199.54c1.13.11,1.37,2.94.92,3.52-.53.58-1.92.17-2.05-.84-.45-1.28.37-2.67,1.13-2.68h0ZM59.19,199.52c1.23.19.92,3.3.28,3.75-.99.58-1.75-.39-1.41-1.85.27-1.18.67-1.87,1.13-1.9ZM62.04,200.03c1.41.18.6,2.91-.02,3.46-.9.78-1.76-.38-1.33-1.77.33-1.08.89-1.7,1.35-1.69h0ZM50.65,200.12c1.03.18,1.62,2.77,1.01,3.51-.32.42-1.25-.19-1.67-.9-.51-.85-.03-2.61.66-2.61ZM61.57,205.75c.12,1.36-.8,1.36-3.45.7-1.34-.33-3.71-.12-4.92.12-2.04.41-2.33.25-2.33-.67,0-1.07,1.15-1.68,3.8-1.77,1.89-.07,6.61-.09,6.9,1.63ZM65.7,204.96c-3.16.33-4,4.74-3.65,6.37.28,2.72.16,5.57-.31,7.45-.34,1.35-.64,2.78-1.18,4-.83,1.84-.62,3.21.62,3.94,1.01.6,2.26.4,3.04-.54,1.41-1.69,1.58-5.27.71-13.4-.3-2.87-.14-3.44,1.11-3.28,2.62-.02,2.52-4.53-.34-4.53h0ZM65.32,208.66c-.71-.3-1.18.41-1.09,2.19.02.79.15,1.68.24,2.39,1.02,7.8.64,13.03-1.51,13.29-1.87.33-3.14-1.2-2.23-2.79.52-.9.96-1.02,1.97-.55,1.38.96,1.04-.44-.21-1.46-.8-.63-.86-.63-.43-2.6.58-2.66.77-4.55.56-7.91-.3-2.38.41-5.53,3.13-5.71,2.75-.09,1.92,4.25-.43,3.16h0ZM45.94,218.94c.89.48,1.76.4,2.61,0,.33-1.66.35-3.04,1.35-5.29-1.67-1.86-4.48-1.13-5.27.82-.79,1.95-.05,3.74,1.3,4.47h0ZM48.62,213.18c1.01.24.86,1.42-.09,1.04-2.27-1.19-4.12,2.39-2.29,3.74.93.58,1.35.25.42-.55-.38-.49-.28-.69-.05-1.17.48-.98,2.2-.83,2.08-.11-.39,2.27-.65,2.92-1.27,2.93-3.52.2-4.19-7.15,1.2-5.87h0ZM78.55,217.26s-10.5,13.23-15.56,20l63.38-.33-12.06-18.54c-10.35,2.66-22.5,1.89-35.77-1.13ZM78.24,221.49c1.58.02,3.38,1.3,4.94,5.57.08.04,6.97-11.65,12.93.45.97-2.72,6.59-9.81,13.08-.71,2.31-6.09,7.62-4.03,8.12-1.91-.11-.46-5.07-1.77-7.21,2.27-.4.85-.42,1.66.04,2.15,1.07,1.13-.1,2.76-1.32,1.83-.48-.36-.54-1.11-.17-1.66,1.08-.89-1.13-3.68-2.94-4.68-2.49-1.37-5.96-.77-7.63,1.2-.9,1.06-1.45,2.01-1.58,2.78-.07.35-.03.54.16.77.72.97.25,2.31-.73,2.15-1.28-.21-1.11-1.55-.25-2.28.26-.14.16-.32.08-.57-2.34-7.36-11.08-5.95-12.03-.86-.03.19-.11.38-.07.57.1.49.35.9.26,1.28-.4,1.56-2.16,1.12-2.24-.18-.04-.59.54-.77.81-1.31.17-.34.24-.75.08-1.12-2.37-5.53-6.43-4.37-8.45-3.12-.04.03,1.8-2.65,4.12-2.63h0ZM75.61,224.69c.87-.03,1.65.44,2.39,1.39,2.48-1.46,4.25,1.07,3.95,1.31-3.51-2.54-4.66,3.38-1.19,3.16-1.52,3.51,3.91,5.01,3.3.53,3.35,1.3,3.91-3.83.51-3.75,1.1-2.12,3.95-1.53,5.15-.21,1.42-1.93,4.9-.09,5.24,1.56-3.9-2.23-4.3,4.58-.52,3.13-1.12,4.33,4.89,3.72,3.23-.02,3.74,1.37,3.23-4.86-.44-3.6-.22-.32,2.91-3.93,5.18-.54.31-.6,3.86-2.55,5.81.52-4.21-1.59-3.42,4.73-.4,3.47-.81,4.19,4.64,3.51,3.25-.06,4.22,1.19,2.35-5.98-.61-3.33.48-2.88,4.03-1.69,3.99-1.24,0,0,1.88-2.27,3.99-.61-3.3.31-2.17,5.26.94,3.85-.03,1.68,1.22,2.8,2.92,2.23l2.66,4.15-60.76.43,4.85-6.45c1.62,1.5,3.31.79,3.51-1.56,3.53,2.41,4.45-3.32,1.14-3.57.67-.51,1.3-.77,1.89-.8h0ZM72.22,226.55c.21.17-.08.96-.54.73l.54-.73ZM119.59,228.22c.18.29.31.47.49.76.09.26-.95-.14-.49-.76Z"/>
      </g>
      <g id="Center_Symbols_K" data-name="Center Symbols K">
        <use width="25.56" height="32.54" transform="translate(49.63 40.39)" xlink:href="#Heart"/>
        <use width="25.56" height="32.54" transform="translate(147.65 228.89) rotate(-180)" xlink:href="#Heart"/>
      </g>
      <g id="Corner_Symbols_K" data-name="Corner Symbols K">
        <use width="25.56" height="32.54" transform="translate(20.81 46.74) scale(.5)" xlink:href="#Heart"/>
        <use width="25.56" height="32.54" transform="translate(176.47 222.54) rotate(-180) scale(.5)" xlink:href="#Heart"/>
      </g>
    </g>
    <g id="Heart_Corner_Characters" data-name="Heart Corner Characters">
      <g>
        <use width="18.68" height="33.12" transform="translate(179.42 254.75) rotate(-180)" xlink:href="#Red_K"/>
        <use width="18.68" height="33.12" transform="translate(17.86 14.53)" xlink:href="#Red_K"/>
      </g>
    </g>
  </g>
  <g id="Clubs">
    <g id="Club_Corner_Characters" data-name="Club Corner Characters">
      <use width="181" height="253" transform="translate(8.14 8.14)" xlink:href="#boundary"/>
    </g>
  </g>
</svg>