<?xml version="1.0" encoding="UTF-8"?>
<svg xmlns="http://www.w3.org/2000/svg" xmlns:xlink="http://www.w3.org/1999/xlink" viewBox="0 0 197.28 269.28">
  <defs>
    <style>
      .cls-1 {
        fill: #262964;
      }

      .cls-1, .cls-2, .cls-3, .cls-4 {
        stroke-width: 0px;
      }

      .cls-2, .cls-5 {
        fill: #d2232a;
      }

      .cls-3 {
        fill: #000;
      }

      .cls-6 {
        fill: none;
        stroke: #000;
        stroke-miterlimit: 10;
      }

      .cls-5 {
        font-family: ArialMT, Arial;
        font-size: 28px;
      }

      .cls-4 {
        fill: #e1cf20;
      }
    </style>
    <symbol id="Heart" viewBox="0 0 25.56 32.54">
      <path id="path9714-6-6" class="cls-2" d="M12.78,32.54s-3.16-5.19-7.42-11.29C2.51,17.16.23,12.74.02,8.93-.23,4.58,2.07.22,6.24,0c4.16-.21,5.85,3.35,6.54,6.29C13.47,3.36,15.16-.2,19.32,0c4.16.21,6.47,4.58,6.22,8.93-.21,3.81-2.49,8.23-5.34,12.31-4.26,6.1-7.42,11.29-7.42,11.29Z"/>
    </symbol>
    <symbol id="Red_Q" data-name="Red Q" viewBox="0 0 21.78 33.12">
      <text class="cls-5" transform="translate(0 24.03)"><tspan x="0" y="0">Q</tspan></text>
    </symbol>
    <symbol id="boundary" viewBox="0 0 181 253">
      <rect class="cls-6" x=".5" y=".5" width="180" height="252" rx="15" ry="15"/>
    </symbol>
  </defs>
  <g id="Hearts">
    <g id="Heart_Symbols" data-name="Heart Symbols">
      <g id="Queen_Face" data-name="Queen Face">
        <path id="path3054-4-0-3" class="cls-1" d="M157.14,31.14H40.14v207h117s0-207,0-207ZM142.72,32.81h12.58v79.8s-1.04-.02-.97-.58c.1-.75,0-2.14-.48-2.73-.2-.25-.53-.64-.65-.92-.32-.71-.86-1.45-1.28-1.65-.21-.1-.46-.15-.49-.32-.03-.15-.1-.65-.19-1.1-.23-1.14-.43-1.11.23-2.25,2.28-3.94,3.16-7.57,2.87-11.17-.09-1.12-.35-2.58-.47-2.78-2.2,2.44-3.8,5.46-5.3,7.69-.33-3.19-.29-5.59-.33-8.14,1.18-.37,1.89-1.06,2.4-2.84,0,0,1.26,1.09,2.04.94l-.51-2.06c3.38-1.15,3.84-6.01-.15-7.04l.36-2.56s-1.2.45-1.73.73c-.26.12-.33.03-.51-.4-1.86-3.2-4.75-2.52-6.02.64l-1.56-.73c.17.87.37,1.76.23,2.63-3.27,1.61-2.46,6.01.15,6.59l-.23,2.06,1.96-.7c.29.97.14,1.52,1.71,2.61-.04,4.31-.1,7,.02,10.83-2.04-2.31-4.02-3.92-7.48-5.1,0,0-.03.93.17,2.34.07.46.05.4-.14.4-.45-.01-2.48-3.61-2.48-3.61,0,0-.24,0-.44.23-.24.26.31.75,1.08,2.03.91,1.49.82,1.43.11,2.09-4.05,3.8-9.9,18.25-8.92,19.66-2.56.17-12.54,5.58-14.35,16.73-.11.5-.32,1.15-.32,1.15l-2.89-.79c1.74-9.13,5.67-27.7,5.67-27.7,0,0,2.76-.87,4.38-1.06l-.02-.72-3.8.98.18-1.59,3.59-.78v-.38s-3.81.56-3.81.56l.62-2.65s-8.53,1.38-11.58,1.28c.19,10.3-.54,18.86-.15,29.96l-4.17-2.79c-.37-7.73-.48-27.25-.48-27.25l-11.51-2,.38,3.07c-9.54-4.18-19.12-8.03-26.16-16.2,4.34-3.68,11.58-7.33,11.58-7.33l-.24-.59c-17.81,10.15-24.27,17.2-33.21,25.94V32.81h48.2l-.16,13.27s-.06.34-.16.46c-.59,3.19,1.11,8.86.77,11.62.16.85.1,2.44.1,2.44-2.9,4.39-4.44,8.56-5.73,13.67-.5.22-1.24.67-1.76.83l-.15.7c1.14-.69,4.37-1.82,4.37-1.82,14.38,7.75,24.95,5.85,36.26.1-1.8,7,2.12,15.89,8.57,17.76.74.21,2,.4,2.72.19.72-.23-1.63-6.17-2.67-6.39-3.12-1.49-4.4-5-4.07-9.02l-.52-.96c-1.06,4.88,1.49,9.84,5,11.05l.94,2.28c-6.36-2.11-9.07-8.69-6.95-15.2.04-4.06-2.34-5.86-3.44-7.61-5.53-2.33-6.56-8-5.59-12.57,2.58,1.21-1.74-4.02-1.74-4.02-1.9,4.54-2.69,10.28,1.65,16.1-2.81,4.11-6.43,7.36-10.47,10.14-5.91,3.41-10.35,1.11-13.21-6.44-1.72-4.53-2.33-9.06-2.32-13.79,0-2.93.04-3.02,1.03-2.52.93.47,2.96.53,4.17-.16,1.65-.94,1.57-.37-.22,1.67-.49.55-1.01,1.05-1.01,1.16,0,.6.77.09,1.86-1.1.4-.44.69-.86.82-.85.14,0,.13.57-.03,1.18-.06.23-.26,1.22-.45,2.19s-.44,2.11-.56,2.54c-.49,1.68-.35,2.46,1.11,3.24.77.41,2.09,1.81,2.08,1.81,0,0-.31-1.53-.2-2.02.14-.59.78-.17,1.43.17,1.43.76,2.27.78,3.04.07,1.06-.98.76-3.18-.55-3.75-.96-.42-1.13-.03-.17.71,1.44,1.11-.18,2.83-1.41,1.76-.96-.83-2.62-.93-2.81-.23-.18.66-.36.54-1.02.11-1.03-.67-1.04-.78-.18-4.45,1.63-6.95,1.47-9.51-.69-11.62-1.6-1.56-4.25-2.29-7-.55v-2.37c4.03-1.78,6.97-4.81,9.34-9.75h.46c2.36,5.64,6.17,9.77,13.33,12.74,2.8,3.06-3.55-8.78-1.52-3.93-3.8-1.63-7.19-4.87-9.06-8.81h1.04c1.09,1.74,3.31,5.01,7.25,7.21,1.72.01-2.53-5.75-3.14-7.21h33.03c-1.05,8.89-2.52,18.41,3.28,35.72-2.72-1.58-13.65,1.79-11.72,2.45.97-1.23,7.93-3.05,13.08-1.71-.43-.41-7.85-19.5-3.53-36.47h0ZM146.26,69.28s.02.01.02,0c0,0-.01,0-.02,0ZM120.74,103.59l.03,1.39.26-.07-.15-1.36-.14.03ZM90.92,32.81h1.45c-.32.72-.78,1.35-1.49,1.8l.04-1.8ZM93.41,32.81h1.56c-1.22,2.14-2.51,3.52-4.07,4.53l.03-1.67c.9-.87,1.76-1.86,2.48-2.85h0ZM95.99,32.81h1.44c-1.95,3.32-3.96,5.63-6.53,7.04v-1.36c1.59-1.36,3.83-3.45,5.09-5.68ZM98.19,32.81h1.16c-2,4.21-4.79,7.21-8.45,8.83v-1.01c4-2.36,5.76-5.07,7.28-7.81ZM101.37,32.81h1.4c1.92,4.21,5.9,8.28,10.28,10.03l.67,1.71c-5.77-2.29-9.59-5.71-12.35-11.74h0ZM105.42,32.81h1c1.05,1.62,2.32,3.02,3.81,4.11l.91,1.94c-2.01-1.49-4.25-3.39-5.71-6.04ZM107.24,32.81h1.12l1.48,2.87c-.98-.61-1.73-1.94-2.59-2.87h0ZM105.96,43.83c-1.53,0-2.92.46-3.93,1.37-1.06.96-.28,2,1.25,1.22,2.61-1.34,5.61-.74,8.84,1.22,2.72,1.65,1.77-.07-.77-1.9-1.74-1.27-3.66-1.89-5.39-1.9ZM93.66,45.99c2.19.02,4.71,1.09,4.77,2.52-1.46-1.35-4.38-2-7.19-.62-.21-.05-.24-.89-.12-1.2.6-.49,1.54-.71,2.53-.7ZM106.95,46.91c-1.39,0-2.66.4-3.24,1.26-.3.41-.38.45-.71.39-.65-.12-.61.29.13,1.42.36.55.3,1.17-.18,1.91-.55.85-.44.89,1.19,1.75,1.25.67,2.25,1.62,3.39,2.41.81.51.97.06.22-.61-.26-.23-1.02-.83-1.7-1.32-1.16-.83-2.01-1.68-1.09-1.3.42.15.53.21,1,.3,1.19.29,2.37.44,3.37.22.72-.16,1.65-.68,2.42-1.42.2-.1.39,0,.87.03,1.82.08,1.42-.51-1.2-2.09-2.59-1.56-4.63-1.85-6.28-.99-.7.36-1.1.45-1,.22.11-.24.3-.52.62-.72,2.68-1.77,4.83-.3,7.2,1.03,1.01.67,1.29.84,1.41.63.15-.27-1.13-1.28-2.85-2.24-1.01-.58-2.33-.89-3.55-.89h0ZM98.38,48.96c.45.2.25.77-.16.59-2.48-1.23-2.97-1.83-5.92-.69-.97.38-1.36.04-.16-.52,2.61-1.21,4.5-.39,6.25.62ZM96.68,50.41c-.67,3.76-4.06,2.6-3.68.02h.62c.05,2.28,2.11,2.26,2.46.03l.59-.05ZM116.4,50.41l.91,2.16c-2,5.43.71,12.75,6.61,14.51,0,0,.95,1.62.76,1.82-11.07-2.71-10.21-14.37-8.29-18.48ZM105.91,50.56l.31.02c.96,2.62,2.34,1.12,2.61,0l.71.02c-.22,2.72-3.94,3.18-3.63-.05h0ZM97.38,50.63c.45-.06.6.69.48.82-.03.04-.85.92-.95.4-.15-.76.29-1.18.48-1.22h0ZM92.22,50.71s.08,0,.12,0c.28.23.38.93.24,1.29-.16.19-.83-.07-.96-.35-.2-.41.03-.96.6-.95h0ZM110.17,50.96c.22,0,.82.3.76.62-.02.08-.85.76-1.04.65-.36-.21.14-1.19.21-1.25.01-.01.04-.02.07-.02h0ZM105.28,51.08s.01,0,.01,0c.06.05.6.42.14,1.1-.03.05-.64-.19-.65-.27-.05-.4.41-.8.49-.83ZM118.69,55.84c-.13,3.12.6,6.16,3.69,8.1l-.66-1.34c-.79-.7-2.45-2.68-2.24-5.05l-.78-1.71ZM90.97,61.43l.35,2.06c-1.7,3.12-2.99,6.18-4.06,9.77l-1.6.65c1.27-4.52,2.45-8.1,5.31-12.47ZM91.65,64.63l.45,1.77c-.83,1.7-1.73,3.62-2.26,5.85l-1.77.72c.8-2.96,1.97-5.83,3.58-8.34ZM97.27,65.36s-.05,0-.08.01c-.02.35-.02,1.31.05,2.9.01.3.28.17,1.03-.25.66-.37.59-.43,1.23-.19,1.76.67,2.57.38,3.25.18,1.05-.3,1.48-.18,2.09.23.34.22.79.39.89.42.48.19.3-.04-.03-1.48-.37-1.62-.21-1.8-.8-1.38-.13.09-.5.32-.71.35-.51.07-1.37-.63-1.88-.41-1.24.54-1.23.39-2.38.08-.57-.16-1.12.23-1.62.34-.29.04-.65-.79-1.04-.79ZM118.32,66.2c2.09,2.12,4.24,2.84,6.57,3.65-.28,1.05-.84,2.24-1.11,3.62-12.13,7.09-24.32,6.87-35.83.43l5.97-2.52c3.26,6.24,7.44,7.91,12.14,5.87,5.25-2.7,9.14-6.46,12.25-11.04ZM92.4,67.45l.52,1.53-.77,2.31-1.46.65c.28-1.57.82-2.86,1.72-4.49ZM103.36,69.22c-.36.02-.91.29-2.16.3-.68,0-1.21-.06-1.47,0-.54.12.09.39,1.31.78,1.22.38,2.71-.2,2.9-.78.05-.14-.12-.31-.58-.29h0ZM93.25,69.98l.32.78-.55.22.23-.99ZM125.51,70.41l.91,2.28c-1.57,3.75-2.61,14.04,7.87,17.24l.46,1.47c-7.13.15-14.28-9.86-9.23-21h0ZM101.52,71.19c-1.02-.01-2.1.27-2.79.88-.62.55.14.89.95.45,1.05-.57,2.81-.52,3.84.19.79.59,1.2.49.67-.41-.41-.71-1.51-1.09-2.67-1.11h0ZM147.26,73.75c2.74-.05,3.02,4.28,2.49,4.66.15-.06.62-.21,1.29-.19,2.01.06,3.05,1.28,3.17,3.07.12,1.8-1.12,2.8-2.92,2.7-.67-.04-1.13-.11-1.1.02.33,1.44-.07,3.6-1.79,4.14-.2.06-.48.37-.49.48-.13,2.28.46,10.1.46,10.1,0,0,3.23-6,3.95-6.9,1.42-2.14,1.93-1.94,1.68,1.61-.35,4.91-1.03,6.06-3.58,10.22-1.13,1.79-3.8.85-3.55,2.06.05.27.49.75.92,1.2.28.29.56.47,1.21.45,1.14-.04,1.58-.3.9.8-.54.87-2.43,1.04-2.64,1.5-.5,1.05-.16.82-1,1.74-.65.79-.42.39-.13,1.03.46.83.27,2.5-.19,3.62-.37.91-.33,1.57-.33,1.57,0,.08,1.05-1.19,1.37-2.66.26-1.22.57-1.83.57-1.15,0,.86.13,2.03.84,2.48.56.35.64.71.54,1.14-.1.45.34.85.77,1.22.1.11.44.26.4.49-.11.75.16,1.63.66,1.78.22.12,1.63-.01,1.86-.89-.02-.28,0-1.43-.56-1.49-.4-.2-.35-.32.24-.72.9-.59,1.55-1.01,1.99-1.1.59-.09,1.16-.8,1.16-.8l.11,47.16c-5.31,6.01-11.13,11.99-18.81,17.86-4.46-4.11-9.33-8.27-14.51-11.38l-1.79-1.17.64-.91-3.1-4.52,3.49-3.11.89,1.24-1.65,1.77,2.48,3.03,5.57-6.01-3.67-3.88,1.91-3.95,1.22.66-.92,2.51,2.79,1.95,3.5-7.67-4.43-2.23,1.12-5.15,1.37.16-.45,3.71,3.45.76,1.41-8.75-5.07-1,.43-4.99,1.42.02-.21,2.76,3.58.56.67-7.63-4.97-.91.64-5.89,1.14.18-.22,3.63,3.65.69c.4-2.46.73-5.56,1.32-7.97l-4.7-1.93,1.66-4.94,1.06.41-.92,2.68,3.47,1.63,2.92-6.38-4.08-3.19c.92-1.68,1.83-3.27,3.14-4.63l.8.77s-.29.29-.75.99c-.55.84-.72,1.27-.65,1.48.07.22,2.6,2.28,2.79,2.28.22,0,1.06-.84,1.49-1.41.46-.61.7-.66,1.18-.29.1.08.23.23.33.35.11.15.16.28.17.38.01.1-.01.16-.03.2.04-.04.13-.12.32-.23.34-.21-.66-1.19-1.49-1.7-2.46-1.53-5.36-4.41-6.03-8.01-.25-1.62,3.54.33,6.14,3.2.39.43,1.86,2.01,1.86,2.01-.21-4.16-.52-8.39-.35-12.61l-.58-.44c-.81-.62-1.11-1.64-1.19-2.66-.05-.7.5-1.06-.75-1.02-2.59.03-4.09-2.67-2.52-4.98.56-.86,2.95-1.28,2.95-1.26-.61-2.76,1.22-4.24,2.58-4.38h0ZM146.32,105.83,149.75,78.41s-.07.03-.07.03c.03,0,.05-.01.07-.03ZM63.41,87.42c7.24,6.74,11.86,11.27,26.6,16.35l.37,2.41c-8.48-2.16-17.72-6.54-28.71-17.43l1.75-1.34ZM61.23,88.97c4.59,4.73,9.29,8.34,14.04,11.36l1.67,1.11-.86.97,2.8,4.46-3.6,3.25-.86-.94,1.88-2.04-2.68-2.91-5.45,6.1,3.74,3.66-2.17,3.68-.79-.39,1.15-2.57-3.47-2.09-3.88,7.88,4.94,2.49-1.12,4.84-1.15-.06.39-3.79-3.72-.73-1.25,8.86,4.78.83-.11,5.1-1.27-.02.09-2.88-3.77-.19-.34,7.43,4.65.67-.46,6.03-1.14-.32.13-3.92-3.54-.38-1.22,8.33,4.78,1.51-1.69,5.19-1.04-.63.68-2.68c-.87-.42-3.32-1.55-3.32-1.55l-3.12,6.47,4.05,3.05-2.49,4.83-.96-.71,1.72-2.82-3.36-2.33-1.91,2.89c-.81-.78-2.27-1.86-2.83-2.59-.6-.6-1.05-.69-1.81-.49-.6.16-1.19.28-1.05.04.07-.12,1.21-.97,2.97-2.2.49-.34.88-.64.87-.95,0-.23.27-.59.62-.83.39-.26.3-.51.24-.78-.34-1.45-.13-3.72.54-5.25.44-1.02.58-1.21.29-1.21-.85.12-1.89,3.54-2.09,4.5-.07-.08-.16-.98-.22-1.32-.11-.63-.19-1.01-.64-1.13-.54-.14-.37-.43-.43-.88-.09-.73-.4-1.2-.97-1.46-.55-.25-.61-.35-.58-.95,0-.47-.45-1.27-.78-1.53l-1.89.74c-.15.55.05,1.27.36,1.53.95.99-.44,1-1.39,1.65-.26.18-.57.59-.77.45-.61-.22-.56,1.78-1.15,1.53l.14-47.97c5.08-5.81,19.86-17.92,19.86-17.92h0ZM137.94,97.46l.73.89c-2.26,2.82-3.91,5.72-5.72,9.26-1.54,3.02-2.88,7.25-3.58,11.86-.54,2.82-.62,5.7-.96,8.59-.34,3.11-.41,7.29-.94,10.58-.99,9-3.28,13.79-8.25,18.9-2.19,2.25-8.99,6.49-9.17,6.44l-1.61-.44c13.94-7.89,17.43-13.33,18.94-32,.29-23.43,9.94-32.51,10.57-34.08h0ZM139.31,99.03l.75.8-4.07,6.35,4.01,3.13-1.59,4.11-1.22-.5.86-2.8-3.37-1.57-2.73,8.16,4.81,1.67-.79,5.32-.97-.29v-3.62l-3.57-.8-1.04,9.12,5.26.81-.39,4.7-1.24-.1-.05-2.8-3.65-.21-.83,7.9,5.18.97-.94,5.61-1.1-.29.25-3.7-3.47-.51-2.01,7.58,4.36,2.43-2.15,4.86-.92-.71,1.19-2.87-3.39-1.85-3.27,6.27,3.55,3.86-3.47,4.02-.77-1.1,1.79-2.13-2.68-2.93-5.57,4.89,2.84,4.14-.33.52-2.93-1.3-1.41-2.05-1.68.81-1.33-.56c8.22-4.76,13.57-10.29,15.78-18.62,1.21-4.61,1.57-9.63,1.97-14.7.2-2.63.42-5.27.76-7.87.41-4.25.99-7.81,2.55-11.9,1.89-4.97,4.19-8.47,7.02-12.26h0ZM95.08,102.17l5.64,3.29-.08,2.18-5.22-2.89-.34-2.58ZM96.67,102.23l4.02.61.02,1.79-4.04-2.4ZM78.53,102.29l2.35,1.17,1.99,2.54,1.49-1.08,1.62.67c-5.11,2.91-9.65,6.38-13.19,12.38-3.94,6.68-4.38,15.43-4.88,23.88-.84,11.65-2.65,19.83-9.65,29.28l-1.03-.72,3.78-6.64-4.26-3.05,1.94-3.92.98.37-.76,2.34,3.53,2.06,2.7-8.37-4.97-1.71.83-5.23,1.25.12-.33,3.75,3.55.62,1.02-8.85-4.79-.81.11-4.67,1.17.13v2.84s3.77.22,3.77.22l.29-8.07-4.7-.57.58-5.7,1.32.15-.3,3.42,3.62.57,1.72-7.38-4.7-2.34,2.53-4.98,1.14.58-1.16,2.76,3.26,1.75,3.42-5.77-3.63-3.85,3.56-4.12.87.95-1.94,2.46,2.68,2.74,5.31-4.93-2.59-4.31.5-.66ZM112.31,102.56l-.17,2.07-5.66,3.55v-2.03l5.82-3.59ZM142.68,102.63l1.25.86-.91,1.19-1.09-.76.75-1.28ZM109.93,102.92l-3.39,2.16v-2.15h3.39ZM149.9,104.94c.18,0,.34.05.46.14.34.25.29.85-.09,1.15-.5.39-1.88.36-2.01-.04-.2-.58.87-1.27,1.64-1.25h0ZM95.81,105.79l4.86,2.9-.02,2.04-4.68-2.84-.17-2.1ZM111.65,105.86l-.29,2.66-5.01,2.93-.04-2.31,5.33-3.29ZM87.42,105.91l1.99.56c-7.38,3.64-14.68,8.92-17.52,18.13-.89,2.76-1.48,5.82-1.87,9.75-.18,4.14-.67,8.22-.84,11.67-.36,7.03-2.46,16.56-9.69,26.68l-.69-.6c4.44-6.05,6.75-11.53,8.17-17.32,2.26-9.22,1.14-19.39,3.55-28.66,1.47-5.64,4.52-10.69,9.09-15.05,3.18-2.73,7.81-5.16,7.81-5.16h0ZM90.77,106.68s.03,0,.03,0c1.79,6.67,4.01,18.82,4.01,18.82-4.74-2.53-12.63-2.07-12.63-2.07,0,0-4.44-6.33-5.3-6.85,3.55-5.29,13.21-9.87,13.89-9.91h0ZM151.8,107.73c1.09-.04,1.01,1.79-.37,3.04-.71.64-1.03.55-1.55.04-.15-.23-.6-.39-.92-.35-.77,0,.76-1.77,2.12-2.5.28-.15.52-.22.73-.23h0ZM96.38,109.22l4.34,2.46.04,2.03-4.01-2.41-.37-2.08ZM111.08,109.5l-.23,2.23-4.51,2.6.02-2.05,4.72-2.77ZM153.33,110.33c.15-.02.27.05.38.18.62.76-.55,3.05-1.88,3.74-.51.26-.82.22-1.25-.18-.21-.2-.51-.45-.69-.43-.76.09-.34-.85.27-.91.17-.02,1.23-.89,2.04-1.63.54-.5.88-.74,1.13-.77h0ZM148.74,111.22c.96-.03,1.31.86.17,1.24-.81.27-1.26.08-1.26-.52.17-.62.66-.69,1.08-.72h0ZM96.98,112.41l3.85,2.13.02,2.18-3.53-2.04-.33-2.28ZM110.74,112.72l-.27,2.07-4.14,2.35v-1.71s4.41-2.71,4.41-2.71ZM154.17,113.58c.26.02.34.34.34.91,0,.95-.57,1.82-1.43,2.25-.63.31-1.07.29-1.38-.08-.14-.17-.34-.3-.44-.31-1.34-.06-1.12-.44.16-1.03.45-.21,1.34-.89,1.76-1.22.47-.37.79-.54.99-.53h0ZM149.26,114.26c.66,0,1.23.51.87.85-.28.26-1.34.38-1.55.15-.4-.44-.04-1,.68-.99ZM97.62,115.73l3.28,1.95-.02,2.08-3.13-1.96-.13-2.07ZM110.19,115.89l-.08,2.13-3.76,2.05-.02-2.03,3.86-2.15ZM150.69,116.77c.64.05.56.73.04,1.06-.38.29-.88.14-1.08-.21-.46-.96.58-.85,1.04-.86ZM151.97,118.95c.11.24.05.66-.16.79-.28.13-1,0-1.12-.24-.09-.19-.07-.29.11-.49.3-.26.96-.45,1.17-.06ZM98.09,118.99l2.8,1.69-.02,2.04-2.57-1.65-.21-2.08ZM109.73,119.05l-.14,1.96-3.26,1.79.04-1.91,3.35-1.83ZM75.63,120.28c.7,0,1.24.52.83,1.4-.26.55-.45.75-1.57,1.62-.46.36-.85.68-.88.72-.03.04-.32.26-.51.41-1,.77-.65-.83.6-3.19.36-.68,1-.97,1.54-.97ZM109.49,122.03l-.26,2.16-2.91,1.64v-2.08l3.17-1.72ZM98.53,122.24l2.36,1.29.03,2.1-2.14-1.24-.25-2.15ZM126.83,122.4c.08,0,.14.03.19.1.19.3.22,1.59.03,2.32-.33.86-.97-1.31-.9-1.86.14-.25.45-.55.67-.56h0ZM77.31,122.79c.95-.02,1.64.7,1.32,1.77-.37,1.03-2.52,1.68-3.49,2.39-.63.35-.79-.03-.59-.64.09-.28.16-.5-.32-.58-1.17-.19-.46-.82,1.69-2.42.47-.35.96-.51,1.39-.52h0ZM124.55,123.46c.34,0,.75.21,1.18.73.74.89,1.27,2.76.87,3.24-.31-.04-.46.47-.48.67-.05.59-1.02-.49-1.94-2.18-.74-1.37-.38-2.45.36-2.46h0ZM84.88,123.78c2.9-.02,8.45.64,16.12,5.95.98.68,1.96,1.43,3.07,2.03,2.91,1.74,5.31,2.91,9.07,3.68l-.11,2.15c-.03.68.98,4.6.51,6.81-.69-.01.66.65.66.65l.88,1.99s-4.61-.04-6.7-.5c-3.37-.61-9.53-3.77-12.51-6.25-3.09-2.51-7.76-4.59-11.76-5.4l-.06-1.85s-.4-6.32-.72-7.19l-.74-2c.18.08.95-.07,2.27-.08h0ZM109.1,125.17l-.22,2.12-2.56,1.32v-1.82l2.78-1.63ZM121.84,125.26c.72,0,1.8.93,3.03,2.77.28.42.49.78.53,1.03.04.23-.09.36-.3.33-.49-.1-.67-.29-.8.38-.03.17.05.47-.11.41-.87-.28-3.35-3.05-3.2-3.93.11-.66.41-.99.84-.99h0ZM99.08,125.4l1.86,1.1.08,2.09-1.66-.79-.29-2.4ZM79.06,126.04c.57-.02.93.23,1.11.72.44,1.18-.34,1.89-2.64,2.43-2,.53-1.96.56-1.68-.26.19-.54-.43-.61-.78-.75-.58-.24-.11-.32,1.57-1.24,1.06-.58,1.85-.87,2.42-.89ZM72.4,126.6c.06,0,.12.05.22.19,2.91,3.9,2.16,9.57-1.52,12.38-.42.31-.43.02-.39-.59l.07-1.16c.02-.23,4.23-3.09,1.12-9.45l.26-.9c.08-.29.14-.47.23-.48h0ZM119.94,127.81c1.15,0,4.37,3.24,3,3.35-.16.01-.11.24-.11.39,0,.15,0,.43-.04.53-.1.28-.48.23-1.05-.15-1.47-.96-1.8-1.27-2.31-1.8-1-1.04-.71-2.33.51-2.33h0ZM108.59,128.36l-.02,1.74-2.3,1.23v-1.58s2.32-1.4,2.32-1.4ZM79.48,129.62c1.55-.06,2.42,1.64.87,2.54-.62.36-2.65.11-3.6.02-1.07-.1-.44-.45-.38-.56.15-.27.26-.31-.3-.67-.44-.51-.7-.64.41-.8.54-.08,1.84-.22,2.29-.38.24-.09.48-.13.7-.14ZM126.54,130.03c.11,0,.1.2.06.75l-.08,1.16c-.7.12-4.2,4.93-1.36,10.52l-.24.99c-.11.49-.14.56-.51.26-2.13-1.63-2.82-9.91,1.59-13.33.29-.21.45-.35.54-.35ZM118.23,131c.41,0,.91.14,1.49.43,1.34.68,2.24,1.22,2.45,1.58.13.22-.07.41-.34.49-.33.1-.37.26-.28.68,0,.25.06.52-.22.54-.52.03-1.68-.37-2.85-1.07-1.98-1.18-1.71-2.68-.24-2.65ZM108.18,131.03v2.12l-1.89-.96,1.89-1.16ZM76.55,132.85c.2,0,.46.05.81.11.43.07,1.09.15,1.43.14,2.15-.04,3.04,1.61,1.27,2.46-.49.23-.69.21-2.01-.22-.64-.2-1.41-.42-1.73-.52-.64-.2-.86-.42-.44-.58.39-.15.43-.45.18-.85-.06-.4.06-.55.5-.53h0ZM126.53,132.85c-.3,3.28-.55,5.84-1,9.06-.33-.14-2.65-6.2,1-9.06ZM117.48,134.42c.7.01,1.88.31,3.03.81,1,.41,1.13.52.44.85-.42.2-.37.37-.24.68.19.23.55.68-.02.59-.68.06-2.45-.05-2.99-.16-1.62-.31-2.06-1.93-.73-2.68.11-.06.29-.09.52-.08ZM75.83,135.25c.15,0,.42.09.92.26,2.91,1.01,4.09,2.24,2.67,3.44-.41.35-1.06.2-2.27-.55-1.24-.76-1.86-1.18-2.09-1.45-.23-.27-.1-.58.25-.55.48.04.41-.23.37-.68-.03-.31-.04-.46.15-.46ZM83.68,135.55l2.23.56-5.57,26.93c-1.9.61-3,.87-4.34,1.66l3.85-.73-.33,1.93-3.5.73-.08.57,4.01-.8s-.14,1.84-.28,2.55c3.83-.34,7.6-1.52,11.45-1.55,0,0,.09-21.26.08-23.57-.02-2.5,0-5.5,0-5.5l3.86,2.41.64,26.79,12.08,2.17c-.08-.45-.41-2.52-.41-2.52,8.96,2.92,18.04,7.23,26.08,16.15-3.74,2.24-7.28,4.46-10.91,6.61l-.53.84c9.22-4.76,23.18-14.65,33.29-25.58v71.04h-48.15v-6.62l.03-5.92c-.2-3.8.4-7.98-.65-11.17l-.21-3.34c2.98-3.84,4.6-8.67,6.02-13.62,0,0,1.44-.61,2.14-.89l.24-.97c-1.39.78-4.57,2.1-4.57,2.1.34-.3-6.77-3.61-11.17-4.39-7.25-1.28-17.01.04-24.78,4.3-.38.3-.54.29-.45-.1,1.81-7.26-2-14.55-8.67-16.66-1.42-.45-2.58-.45-2.58-.45l.12.64c10.91,1.36,13.47,14.1,9.27,20.02-1.1,1.95-1.27,2.52,1.04,2.46,9.34-.08,12.59,11.45,8.33,17.84.01-.05.34.74.34.74,2.66-3.87,3.36-11.23-1.34-16.41,3.48-4.29,10.16-11.15,15.93-10.75,2.1.15,4.18,2.96,5.56,5.2,2.93,4.75,3.68,11.39,3.88,15.18.05.99.17,1.71.17,2.23,0,1.52-.26,1.33-1.14,1.08-1.11-.32-2.64-.33-3.76.05-1.81.61-1.52.26.09-1.95.95-1.3,1.08-1.7.69-1.79-.12-.03-.52.42-1.05,1.32-1.59,2.7-1.47,1.59-.32-2.62.75-2.74.67-2.93-1.36-4.64-.67-.56-1.5-1.11-1.57-1.28-.38-.9-.54.23-.2.97.34.72-.38,1.06-1.63.31-2.94-1.8-4.86,1.85-2.23,3.43.62.37.96.07.49-.42-1.62-1.65-.49-3.04,1.69-1.58,1.26.85,1.74.57,2.17-.48.23-.43,2.2,1.12,2.19,1.72,0,.4-.23,1.66-.45,2.51-.63,2.39-.8,3.13-1.07,4.69-.49,2.81-.48,4.25.05,5.49,1.18,2.77,4.16,4.08,6.75,2.96.38-.16,1.1-.3,1.1-.3l.03,2.03c-5.1,2.13-8.78,8.79-8.61,9.02h-1.82c-2.41-5.29-6.66-9.28-12.06-11.48-1.05-1.01.26,2.7,1.47,3.52,2.56,1.44,5.96,3.99,7.83,7.96l-1.29.02c-1.57-2.65-3.6-4.43-5.53-5.99-.45-.11.33,4.8,2.18,6.31l-33.23.64c2.27-9.81,2.7-20.69-2.61-34.95,4.41.3,8.31-.75,11.89-2.47l-.32-1.02c-4.08,2.15-8.56,2.58-13.04,2.07,3.4,6.96,6.37,21.4,3.48,35.42h-12.59v-76.22s.7.48.85.65c.38.42.64,1.06.75,1.52.14.59.29.62,1.05,1.25.36.3.58.57.58.72-.02.17-.03.71.22,1.04.67.9.55,1.47.05,2.05-2.34,2.69-3.8,8.34-2.62,14.3,2.77-2.06,5.63-7.46,5.72-7.47l.27,7.37c-.25-.06-1.94,1.05-1.96,2.5-.77.25-1.7-.17-2.48-.42l.56,2.17c-2.85,1.25-3,5.56.3,6.79,0,0-.3,1.68-.56,2.59l2.14-.36c1.24,4.11,6.02,2.79,6-.07,0,0,1.45.6,2.01.87l-.54-2.8c5.43-3,1.37-6.92.13-6.86.02-.78.34-1.03.64-1.94l-2.19.15c-.4-1.45-1.88-2.63-1.93-2.47l-.3-10.55c1.66,1.6,3.29,3.24,5.49,4.51,2.03,1.17,2.24.91,1.94-1.12-.14-.91-.12-1.51-.12-1.51.76.2,2.68,2.96,2.59,4.32.7,1.01,1.34-1.71-.47-4.03,4.82-5.58,8.49-14.82,9.27-21.11l6.41-2.82.07-.92c4.36-3.23,6.64-7.72,7.84-12.79h0ZM89.01,137.2l1.47.73-1.67.92.2-1.64ZM74.81,137.64c.28.14.71.46,1.31.94,1.25,1.02,1.98,1.71,2.01,2.33.01.3-.19.7-.51.88-.76.44-1.48.08-3.12-1.77-.53-.6-.88-.92-1.04-1.18-.19-.31-.05-.6.26-.48,1.33.66.18-1.18,1.09-.72h0ZM119.95,138.02c.27,0,.49,0,.62.04.35.08.46.3.24.52-.34.34-.24.68.1.86.24.12.14.39-.14.57-.17.11-.42.22-.77.34-2.01.7-3.49.49-3.88-.55-.45-1.19.41-1.77,2.87-1.77.37,0,.69,0,.97,0h0ZM90.67,138.73l-.02,1.59-2.09,1.11.23-1.62,1.88-1.08ZM72.93,139.23c.18.01.48.32.92.91,2.01,2.73,2.28,3.25,1.63,3.97-.78.86-1.88.03-3.06-2.36-.16-.32-.35-.73-.47-.88-.43-.56-.24-.74.31-.69.3.03.44-.09.45-.43,0-.36.08-.53.22-.52h0ZM121.17,140.61c.37,0,.34.14.18.61-.13.42-.33.55.2.81.09.05.28.31.11.43-.42.31-2.3,1.26-2.98,1.51-1.32.48-2.13-.7-1.36-1.88.32-.49,2.56-1.39,3.67-1.47.07,0,.13,0,.18,0h0ZM71.87,142.19c1.34,2.2,1.5,3.24.62,3.88-.56.47-1.75-.2-2.02-1.63-.21-1.09-.3-2.23.02-3.14.49-1.37,1.24.66,1.38.89h0ZM90.66,141.28v1.72s-2.53,1.41-2.53,1.41l.23-1.9,2.29-1.23ZM95.83,141.34l2.39,1.71.14,1.47-2.47-1.5-.06-1.68ZM122.45,143.04c.06,0,.1.03.1.11,0,.2-.05.92.31.99.7.13.54.37-.07.96-.67.65-1.27,1.42-2.08,1.9-2.07.85-2.72-1.57-.76-2.83.68-.43,1.29-.73,1.75-.88.34-.11.62-.26.76-.26ZM95.89,143.93l2.77,1.8.1,1.81-2.75-1.55-.11-2.07ZM90.56,144.1v1.58s-2.69,1.71-2.69,1.71l.22-1.76,2.47-1.52ZM101.74,145.38c.76.39,10.58,3.41,13.83,2.38,0,0,2.78,4.43,4.84,6.02-3.19,5.17-13.97,10.23-13.97,10.23l-4.69-18.63ZM123.82,145.49c.18,0,.22.19.22.56-.04,1.07-1.64,5.02-2.91,3-.35-.75,0-1.53,1.12-2.46.88-.74,1.34-1.08,1.57-1.09h0ZM70.39,146.12c.24.29.13,1.19-.39,1.13-.15-.02-.17-.93-.07-1.42.15-.08.38.2.46.29ZM90.59,146.62l-.02,2-3.2,1.93.34-2.23,2.88-1.7ZM95.89,146.9l3.17,1.87.37,2.21-3.52-2.01-.03-2.07ZM90.59,149.62v2.02l-3.6,2.04.24-1.99,3.35-2.07ZM95.95,149.79l3.55,2.23.46,2.1-3.96-2.26-.05-2.07ZM45.67,149.86c.58,0,.79.68.35,1.11-.29.3-1.11.24-1.18,0-.37-.4.14-1.1.83-1.11ZM46.76,151.99c.09,0,.17,0,.24.02.42.12.68.79.42,1.17-.47.7-1.72.22-1.54-.67.05-.24.51-.49.88-.51ZM90.53,152.67v1.8l-3.92,2.28.25-2.02,3.67-2.07ZM96.06,152.92l4.04,2.4.31,2.02-4.34-2.5v-1.92ZM44.84,152.97c.2-.01.35.05.43.21.07.14.16.51.44.69.52.34.58.41-.42.89-.42.2-1.24.82-1.53,1.04-.88.65-1.24.43-1.3-.34-.08-.98,1.52-2.43,2.37-2.49h0ZM47.87,154.45c.2-.01.4.03.54.13.34.25.35.74.03.99-.74.52-1.9-.19-1.28-.82.17-.18.44-.28.71-.3h0ZM90.52,155.43l.02,2.34-4.37,2.55.29-2.38,4.06-2.51ZM45.71,155.7c.29-.02.56.06.8.25.26.36.57.47.75.48.75.03.51.33-.28.73-1.08.55-1.84,1.24-2.62,2.04-.81.83-.87,1.01-1.14.67-.99-1.27.94-4.08,2.49-4.17h0ZM96.13,155.73l4.58,2.77.39,2.34-4.97-3.06v-2.05ZM48.72,157.38c.19,0,.36.04.5.17.33.29.14.86-.31,1.12-.38.22-1.01.12-1.19-.08-.43-.48.35-1.19,1.01-1.21h0ZM46.51,158.55c.28-.03.53.36.76.79.08.11.39.06.62.06.86,0,.98.41.14.92-.24.15-1.04.82-1.57,1.32-1.44,1.52-2.22,1.16-2.03-.39.18-1.49,1.34-2.62,2.09-2.7h0ZM96.13,158.7l5.05,3.06.49,2.52-5.54-3.3v-2.28ZM90.56,158.74l-.02,2.32-4.75,2.78.37-2.35,4.4-2.74ZM96.2,161.69l5.65,3.78.21,2.46-5.86-3.73v-2.52ZM90.55,162.1v2.27s-5.25,2.95-5.25,2.95l.27-2.15,4.98-3.07ZM47.89,163.61c.13,0,.26.02.37.07.62.31.45.85-.47,1.41-.94.57-1.27.47-1.47-.17-.17-.54.85-1.3,1.58-1.32ZM106.94,163.92c9.83,2.49,19.46,7.87,28.8,17.26l-1.95,1.53s-8.19-10.32-26.39-16.38l-.46-2.41ZM96.26,165l2.73,1.78v.45s-2.73-.25-2.73-.25v-1.98ZM49.8,165.02c.21.01.39.15,1.36.66,3.91,3.12,5.48,5.01,6.45,8.43.58,2.05.57,1.97-1.34.85-1.8-1.06-4.27-2.81-5.86-5.08-.26,5.34.3,11.97.3,11.97,2.44,1.33,1.65,4.8,1.65,4.78,6.29-1.9,4.91,7.28.22,5.3,1.12,6.89-6.02,6.33-5.28.42-5.68-.24-4.67-7.08.04-6.14-.49-2.11.19-3.54,1.92-4.45l-.27-9.01s-4.63,7.34-5.4,7.22c-.45-.07-1.14-.91.01-7.35.6-3.35,3.81-7.43,5.61-7.56.32-.02.45-.06.58-.05h0ZM54.32,165.08l.83.63-.78,1.54-.86-.69.82-1.48ZM90.53,165.53l-.03,1.35-2.55.17,2.58-1.52ZM63.88,181.7c6,1.03,9.67,9.13,6.89,15.01-.34.26.18,1.54.52,1.06,2.93-4.58.75-15.85-7.79-16.92-1.73-.23-.16.34.38.85h0ZM64.85,183.86c-.48,1.46-.61,1.81.63,1.21,2.18.89,4.54,4.82,3.78,8.77-.24.46.18-.3.47,1,1.08-2.89,0-9.12-4.88-10.98ZM92.57,191.21c6.14-.02,12.21,1.46,17.05,4.53-1.64,1.01-6.88,2.42-6.88,2.42-2.95-3.65-4.45-7.31-9.77-5.44-5.58,1.59-10.6,6.93-13.43,10.47-2.83-1.87-4.37-2.32-6.88-2.48-.15,0-.36.7-.18-.44.72-1.22,1.21-2.61,1.69-4.01,5.27-3.31,11.88-5.03,18.41-5.05ZM111.65,195.9c-1.22,4.37-2.8,8.68-5.48,12.47l-.33-1.9c2.52-4.27,3.71-8.16,4.25-9.86l1.56-.71ZM109.27,197.04c.16.28-2.44,7.12-3.72,8.37l-.5-1.77c1.05-1.75,2.59-5.96,2.55-6l1.68-.61ZM93.43,197.04c-.08,0-.11.09-.11.26,0,.63.59,1.12,1.67,1.39,1.46.37,3.5-.19,3.51-.96,0-.44-.28-.47-1.12-.05-1.05.54-1.97.43-3.34-.37-.31-.18-.5-.29-.61-.28h0ZM106.42,198.14c-.41,1.66-1.01,2.88-1.78,4.15l-.25-.87c.53-.95.88-2.04,1.33-3.09l.69-.18ZM104.89,198.67c-.2.58-.41,1.24-.86,1.76l-.59-1.37,1.45-.39ZM95.66,199.94c-.99.02-1.97.37-2.05.95-.04.28.34.17,2.18-.08.97-.13,1.43.5,2.32.44.45-.06.03-.52-.11-.66-.49-.46-1.46-.68-2.34-.66ZM91.44,201.21c-.1.02.01.3.38,1.01.2.39.25,1.17.29,1.66-.05,1.21-.04,1.17.5.47.34-.37,1-.29,2.05.02.68.2.84.27,1.31-.05.54-.38.67-.19,1.14-.08.45.1.86-.1,1.36-.25.6-.18.72-.14,1.25,0,.8.42.69.38.75-1.12.07-1.48,0-1.59-.78-1.09-.75.48-1.27.7-2.42.26-1.26-.48-1.44-.36-2.33-.06-1.08.36-1.57.48-2.43-.1-.57-.38-.94-.69-1.06-.66h0ZM73.87,203.45l.48.87c4.35,1.72,7.29,5.65,5.55,12.27l.41.73c2.18-6.67-.31-12.19-6.45-13.87h0ZM75.21,206.27l.59,1.34c3.27,1.75,3.08,6.56,2.89,6.37l.51,1.25c.82-3.11-.67-7.71-4-8.96h0ZM88.88,213.45c-.13,0-.21.05-.25.15-.08.24.17.38,1.66,1.53,1.28.98,2.28,1.71,2.2,1.85-.05.09-.85-.12-1.42-.31-1.49-.49-3.7.1-4.93,1.06-.31.23-.84-.02-1.29-.15-.18-.06-.58-.11-.78-.05-.93.27-.03,1.26,2.26,2.54,2.81,1.57,4.32,1.71,6.03.76,1.13-.65,1.54-.17.3.57-2.16,1.29-4.23.89-7.65-1.71-1.58-1.2-2.21-1-.85.14,2.39,2.06,6.98,4.58,9.8,1.5.11-.04.37-.02.49-.02.59,0,.61-.2,0-1.27-.37-.64-1.11-1.32-.21-2.11.69-.6.64-.88-.19-1.16-.22-.07-.2.09-.53-.2-2-1.78-3.95-3.12-4.64-3.12h0ZM89.74,216.96c.84.03,1.68.74,1.95,2.02.02.11.04.23.06.35l-.71.03c-.59-2.61-2.37-1.75-2.55-.22l-.64-.09c.24-1.46,1.07-2.12,1.9-2.09h0ZM104.53,219.19l-.48.08c-.31-.96-1.72-2.26-2.39.09l-.6-.03c.42-3.18,3.03-2.68,3.46-.14h0ZM100.88,217.87c.19.3-.15.82-.35,1.05-.19.22-.61.03-.79-.19-.15-.22-.04-.65.22-.8.27-.15.72-.29.92-.07h0ZM92.53,217.96c.2.49-.36.86-.43.69-.12-.05-.27-.86-.2-.91.18,0,.55.06.63.22h0ZM105.09,217.88c.3.03.63.18.69.56,0,.25-.26.52-.55.53-.13,0-.63-.4-.54-.98.11-.21.23-.13.4-.11ZM87.63,218.04c.11.18-.09.71-.14.78-.02.04-.66,0-.65-.05.01-.05-.06-.45.1-.75.18-.13.56-.19.69,0h0ZM99.27,219.76c.08,0,.19.04.31.13,1.79,1.29,4.1,1.87,5.76.94.37-.21.61-.19.61,0,0,.22-.41.66-1.18.92-1.71.57-4.54-.18-5.51-1.34-.29-.34-.25-.66,0-.65h0ZM83.55,221.11c-.17,0-.23.11-.19.33.11.77,4.91,3.81,6.92,4.22,1.65.34,2.93.19,3.93-.46,2.45-1.57,1.82-3.69-.58-2.09-1.61,1.08-5.68.58-8.11-.97-1.08-.69-1.69-1.03-1.97-1.04h0ZM105.15,222.22c.61-.28.87-.38,1-.26.62.57-.39,1.46-2.24,1.81-1.47.27-2.36.32-4.04-1.06-1.3-1.06-.69-1.58.06-1.1,1.99,1.29,3.47,1.33,5.22.6h0ZM83.97,225.55c4.24,1.68,9.07,5.73,11.21,10.65h-1.31c-1.46-2.82-4.34-6.39-9.09-8.9-.42-.38-.64-1.07-.81-1.75h0ZM106.26,227.85v1.54c-2.62,1.46-4.82,3.71-6.48,6.81l-1.48-.02c1.7-3.33,4.25-6.44,7.96-8.32h0ZM106.26,230.2v1.89c-1.66,1.07-3.04,2.49-4.01,4.11h-1.76c1.41-2.63,3.34-4.73,5.77-6h0ZM86.83,231.65c1.26.8,3.36,2.94,4.12,4.59l-.67.03c-.69-.97-1.79-2.08-2.68-2.96-.57-.74-.76-1.67-.76-1.67h0ZM106.26,232.86s.02.01,0,.05v1.5s-1.26.95-1.79,1.8h-1.43c.98-1.96,3.02-3.35,3.22-3.34h0ZM106.26,235.35v.85h-.9c.06-.09.56-.7.9-.85h0ZM88.78,235.57c.27.16.47.71.47.71l-.24.03-.23-.74Z"/>
        <path id="path3052-2-5-5" class="cls-4" d="M52.51,202.35c2.95.09,9.18-1.13,9.08-1.01,0,0,19.32,35.49,18.54,35.14-.25.44-24.75.42-24.75.42-.53,0,5.2-13.15-2.86-34.55ZM61.28,177.35c9.42-8.62,19.28-8.69,29.87-9.87l.24-29.31,3.83,2.54.08,26.85c13.98,1.16,26.04,6.82,36.4,16.72.13.22-14.99,9.15-21.61,11.52-5.14-4.17-18.71-6.8-27.7-3.59-2.47.88-5.5,2.29-8.46,3.33,2.14-14.15-7.86-16.24-11.37-16.89-.44-.08-.97-1.13-1.29-1.3ZM49.19,181.92c.16-3.01-.01-6.03-.22-9.11-.05-.7-5.51,9.17-5.81,6.78-.76-6,1.93-13.62,6.16-14.55.42-.63,8.81,5.1,8.42,10.06-.12,1.61-7.48-5.45-7.51-5.03-.17.83.22,11.89.44,11.87,2.12,1.32,1.66,3.01,1.89,4.41,5.67-.92,5.36,6.03,0,5.82.33,8.22-6.58,4.51-5.21.13-6.95-.36-3.53-7.54-.07-5.96-.21-1.81.2-3.7,1.89-4.39h0ZM57.17,147.05c-.4-.18-14.84-.99-14.84-.99l.76-38.85c7.37-18.7,35.11-9.96,30.69-5.98-13.25,9.6-15.27,27.1-16.61,45.82ZM83.8,131.09l-.44-4.31c-1.13-2.68,29.51,12.96,29.86,13.3l.89,4.6c.18,2.02-19.49-8.19-30.31-13.59ZM139.58,123.44c-2.29,19.36-2.16,38.84-15.14,45.58,9.76,10.45,17.92,2.4,30.21-4.37.33,0-.41-41.46-.61-41.43-4.87.28-9.68.41-14.46.23ZM146.35,104.54c-2.41-.41-8.03-6.84-6.87-8.79.04-1.46,6.99,4.13,7.71,5.64-.36-.45-.41-13.66-.52-13.14-.26.16-2.12-1.32-1.64-4.07-5.33,1.3-5.04-6.35-.38-6.04-.6-6.96,7.1-4.41,5.05.26,6.59-1.34,5.45,6.83.47,5.5.42,3.1-.73,3.96-2.35,4.57.1,1.3.54,9.96.54,9.96,0,0,4.87-8.25,5.22-7.54,1.24,1.99-.76,15.65-7.24,13.64h0ZM123.78,74.12c-2.2,8.37,3.82,17.93,9.51,17.91,1.14-.2,3.34.48,2.58,1.16-8.98,8.03-29.92,9.7-29.92,9.35.22,9.86-.18,19.83-.39,29.69l-3.84-2.55c-.12-9-.32-18.2-.51-27.19-13.42-1.93-25.48-6.72-35.01-16.89,6.33-5.18,13.89-8.42,21.15-11.69,9.14,5.25,21.87,8.28,36.43.22h0ZM117.15,34.35c-.42-.2,1.45-1.74,1.45-1.74,0,0,15.59.23,23.33.11-2.82,12.78-.82,24.23,2.81,35.23-.97-.25-7.37.32-8.93,1.1-.25.28-18.46-34.39-18.65-34.7Z"/>
        <path id="path3050-3-4-7" class="cls-2" d="M80.64,236.43l-18.85-35.17,2.83-1.36,19.43,36.58-3.41-.05ZM47.1,189.41l2.72-3.1,2.73,3.06-2.86,2.93-2.6-2.89ZM107.58,169.68l-.38-2.51c10.86,2.94,19.75,9.11,26.14,15.83l-1.52,1.23c.47-.14-15.43-13.32-24.24-14.54h0ZM76.38,167.39l3.1-.74-.1,2.11-3,.66v-2.04ZM139.6,165.54l-1.88-1.67,1.35-1.77,1.82,1.59-1.3,1.85ZM75.82,148.49c4.66-2.44,8.3-12.28,7.85-12.93l2.54.67-5.87,26.96-4.06.98c-.02-5.16-.46-10.52-.46-15.67ZM106.5,163.75c-1.58-5.67-4.69-18.51-4.69-18.51.11.42,10.11,3.56,13.68,2.42,1.52,2.3,3.2,4.33,4.96,6.18-3.7,4-8.3,7.34-13.95,9.91ZM148.41,143.09l-1.76-1.69,1.58-2.14,1.93,1.63-1.75,2.2ZM125.4,141.96c-1.44-2.85-1.53-6.07,1.13-9.25l-1.13,9.25ZM70.65,137c-.05-2.9.29-5.66.91-8.32,1.54,3.08,1.52,6.17-.91,8.32ZM110.92,134.34s3.87-19.83,5.55-27.6l4.28-1.09-.19,16.06c-4.26,3.84-7.25,12.98-7.11,12.98l-2.53-.34ZM48.69,131.04l-1.87-1.93,1.58-1.91,1.65,1.86-1.36,1.98ZM82.18,123.31c-1.35-2.17-3.2-4.4-5.14-6.64,3.18-4.89,8.46-7.72,14.06-9.94l3.79,18.63c-4.28-1.43-8.9-2.97-12.71-2.05h0ZM55.93,106.71l1.32-1.81,1.72,1.5-1.31,2-1.73-1.69ZM117.87,101.26l2.67-.66.1,2.28-3.2.65.43-2.28ZM63.93,87.02l2.03-1.4c7.14,7.09,15.03,11.98,23.64,14.76l.29,2.64c-9.7-3.31-18.58-7.9-25.96-16h0ZM147.4,84.19l-2.65-2.88,2.38-2.93,2.83,2.7c-.93,1.56-2.57,3.11-2.57,3.11ZM132.75,70.16l-19.8-37.34,2.86-.03,19.49,35.96-2.54,1.4Z"/>
        <path id="path3048-5-8-9" class="cls-3" d="M112.76,32.2l-4.73.02,26.86,59.7s-.73.14-2.15-.28c-6.45-1.87-10.43-9.4-8.97-16.79.15-.57.19-1.07.19-1.07-16.63,8.32-26.92,5.25-36.52-.04l-4.09,1.74c.27-2.73,3.33-13,7.91-17.83v-5.18s-.12-2.44-.12-2.44l-.36-4.43c-6.81,7.08-14.75,18.24-15.74,34.07,0,0-6.2,3.52-11.49,7.41.29-.04,8.24,10.74,27.33,16.8l-.84-3.44c2.84.88,6.87,1.58,10.89,2.14l.54,27.03,4.56,2.98.16-29.93c.14.12,7.27-.28,11.11-1.29l-.54,2.89,3.8-.83v2.1l-4.16,1.08-5.92,27.97,3.45.85c1.01-5.63,3.56-10.19,7.26-12.99l-.04-1.07c2.37-1.88,7.3-3.37,7.33-3.34,1.68-9.07,5.59-15.36,9.75-21.34l-1.98-2.97,7.59-3.08-10.54-19.82c4.06-3.09,12.1-1.94,12.1-1.94-3.45-10.28-6.48-20.89-3.07-36.46l-29.32.03-.21-.25ZM122.38,32.84c0,2.6-3.08,2.33-3.46-.01h3.46ZM141.22,32.76c-1.87,11.92-1.25,23.53,3.08,34.57,0,0-.63.04-.71.02-.06-.01.07-.6.04-.75-.09-.41-.71-.22-1.23.17-.23.17-.49.36-.65.45-.54.3-3.25.27-3.25.27.89-.66,2.13-2.53,1.41-3.62-.16-.23-.26-.13-.42.18-.77,1.52-1.16,1.75-2.19,1.74-1.62-.02-2.78-1.13-2.64-2.8.13-1.62,2.29-2.48,1.97-.91-.09,1.4,1.17,1.68,1.41.28.09-.52.02-.28.12-.89,2.52-1.48,1.13-4.49-1.22-3.86-.55.16-.62.22-1.01,0-.73-.41-1.33-.28-1.6.3-.24.51.13.92.66.92.56,0,.67.3.66.67,0,.86-1.35,1.28-2.24.77-2.35-1.33-1.48-4.77,1.25-4.76.83,0,1.18.06,1.21-.14.1-.56-1.17-1.52-1.88-1.38-.61.13-.98.31-.65-.59.2-.92.19-1.34.02-2.03-.44-.99-.43-.48-.7.32-.9,1.65-2.25,2.01-3.42,1.11-1.08-.84-1.05-2.43-.02-3.56.72-.79,1.48-.25,1.05.63-.18.36-.04.82.28.91.65.18,1.05-.24,1.05-1.1-.01-.48-.13-.58.64-1.07,2.01-1.27.51-4.74-1.76-3.62-.5.24-.61.48-.84.37-.95-.99-2.31.26-1.5.92.35.19.77.26.89.27.2.12.13.43-.16.82-.94,1.22-3.07.62-3.58-1.11-.58-2,1.27-4.1,2.69-2.94.42.34.78.38.79-.13,0-.8-.9-1.71-2.06-1.62-1.17.09-1.05.26-.41-.91.47-1.04.41-2.06,0-2.68-.32-.47-.64-.57-.61-.07.26,1.55-1.38,3.03-2.73,2.38-1.3-.64-1.94-2.24-1.3-3.64.59-1.28,2.01-1.42,1.77-.05-.11.87.49,1.33,1.07.82.21-.19.26-.35.28-.92.02-.63-.21-.81.15-1.18.96-.14,1.02-2.4.87-2.49l15.43-.08h0ZM124.02,32.84c.61,0,1.12.23,1.12.9s-.49,1.22-1.1,1.22-1.11-.54-1.11-1.22.48-.9,1.09-.9ZM113.2,32.92h2.45l19.37,35.69-2.29,1.23-19.53-36.92ZM117.23,34.17c1.17.74,2.26,1.35,3.73,1.51-.43.97-.82,2.02-.9,3.83l-2.83-5.34ZM121.18,41.36c1.2.47,2.23,1.19,4.2.47-1.05,1.03-1.64,2.26-2.09,3.55l-2.11-4.02ZM131.25,45.67c.56,0,1.02.51,1.02,1.13s-.46,1.13-1.02,1.13-1.02-.5-1.02-1.13.46-1.13,1.02-1.13ZM124.98,48.49c.86.35,1.77.58,2.77.53-.5.76-.67,1.9-.7,3.22l-2.08-3.75ZM127.94,54.11c.8.43,1.75,1.06,3.43.86-1.11,2.09-.87,2.66-.99,3.57l-2.44-4.43ZM137.65,58.25c.59,0,1.07.53,1.07,1.18s-.48,1.18-1.07,1.18-1.07-.53-1.07-1.18.48-1.18,1.07-1.18ZM131.64,60.91c.73.46,2.18.72,2.19.59-.09-.08-.42,1.54-.47,2.56l-1.72-3.15ZM135.01,66.99c1.04.68,2.19.61,2.87.69-.72.16-1.41.36-2.18.7l-.69-1.39ZM147.28,73.66c-2.51.18-3.09,2.3-2.79,4.46-1.91-.34-4.05,1.67-3.45,4.12.57,2.32,2.52,2.4,3.87,2.25-.1.56-.39,2.46,1.69,4.07l.28,12.06s-.91-.93-1.51-1.59c-2.61-2.87-6.53-4.95-6.28-3.33.04.24.12.84.18,1.34.41,2.73,3.73,5.68,6,7.17.81.5,1.31,1.03,1.31,1.03-4.23,5-6.51,10.34-7.07,15.63-.53,4.92-.95,9.35-1.37,13.87-1.73,22.66-10.53,28.36-10.94,29.47l-.17,3.02-2.46-.2-2.83,2.71c9.27,5.3,14.68,11.69,14.6,11.81,7.4-5.36,13.79-11.31,19.83-17.47l-.12-50.46s-.5.2-.63.2c-.46,0-.52.23-.67,1.19-.09.52-.36.99-.58,1.33-.41.64-.27.32.25.55,1.19.53-.35,2.94-2.04,3.23-1.22.21-1.89.46-2.1.77-2.56,2.47-5.11,2.87-7.04,1.96-.95-.45-1.98-1.1-2.33-2.19-.79-2.48.86-6.05,1.83-8.11,1.77-3.78,4.72-6.62,4.72-6.62l-.48-.58s.58,0,.69-.03c2.54-1.02,2.7-1.04,3.17-1.78.47-.75,1.65-2.87,1.89-3.57,1.31-3.76,1.48-4,1.48-6.47,0-2-.12-3.33-.47-3.44-2,1.7-4.03,5.66-5.21,8-.41-3.46-.53-9.51-.53-9.51.42-.52,2.83-.23,2.3-4.56,2.12,1.06,4.35-.56,4.26-2.81-.15-3.51-2.59-3.41-4.58-2.96.95-2.12-.85-4.68-2.67-4.55h0ZM147.24,73.96c2.62.09,3.14,3.29,1.53,5.1,0,0-1.04-.88-1.59-1.39-.52.45-.67.85-1.25,1.32-.68-.56-1.09-1.54-1.1-2.49.03-1.48,1.39-2.57,2.41-2.53h0ZM87.45,74.06c10.59,6.54,23.87,7.01,36.03.34l-.15,1.11-1.33.83.75,1.53.42-.22v1.01c-10.01,5.98-26.79,7.22-39.93-2.71l1.14-.59s.26.2.51.37c.48.33,1.27.85,1.79,1.11l.8-1.27s-1.21-.82-1.1-.87l1.08-.64h0ZM88.39,76.06l-.61,1.52,1.52.89.58-1.53-1.49-.88ZM82.63,76.23c16.31,11.31,31.49,7.95,40.61,3.32l.12,1.21c-11.77,5.53-27.24,7.02-41.97-3.92l1.24-.6ZM121.01,76.96l-1.45.64.58,1.47,1.49-.7-.62-1.4ZM80.68,77.23c13.25,9.45,27.47,11.29,42.79,4.37l.59,1.81c-14.92,6.62-30.66,5.86-45.05-5.4l1.68-.78ZM90.86,77.29l-.59,1.58,1.64.69.48-1.55-1.53-.72ZM118.73,77.94l-1.44.51.45,1.51,1.49-.56-.5-1.47ZM93.37,78.38l-.35,1.59,1.68.52.29-1.6-1.62-.51ZM154.06,81c.23,2.71-3.4,4.01-4.76,1.49l1.2-1.61-1.07-1.1c1.45-2.54,4.42-1.32,4.64,1.22h0ZM78.63,78.46l3.95,3-2.87,4.93-4.26-3.16,3.18-4.78ZM147.15,78.6l2.51,2.41-2.3,2.98-2.36-2.63,2.15-2.76ZM145.59,79.42l-1.41,1.81,1.53,1.8c-1.81,2.13-4.52.81-4.49-1.79.02-1.99,2.77-3.92,4.37-1.82h0ZM116.33,78.72l-1.51.5.34,1.46,1.56-.45-.4-1.51ZM95.98,79.18l-.28,1.57,1.73.41.29-1.56-1.75-.42ZM113.84,79.45l-1.6.38.28,1.56,1.61-.37-.28-1.58ZM147.32,79.82l-1.32,1.44,1.32,1.51,1.33-1.51-1.33-1.44ZM98.76,79.86l-.2,1.58,1.81.27.14-1.6-1.75-.25ZM110.98,80.08l-1.63.21.17,1.55,1.69-.24-.23-1.52ZM101.35,80.26l-.02,1.63,1.59.14v-1.61l-1.57-.16ZM108.36,80.41l-1.6.06v1.57s1.64-.11,1.64-.11l-.04-1.52h0ZM79.21,80.43c-.94,0-1.7.84-1.7,1.88,0,1.04.76,1.88,1.7,1.88s1.7-.84,1.7-1.88c0-1.04-.76-1.88-1.7-1.88ZM105.68,80.48l-1.57.02v1.59s1.63,0,1.63,0l-.06-1.61h0ZM147.32,80.49l.69.76-.69.75-.71-.75.71-.76ZM79.21,81.09c.62,0,1.12.55,1.12,1.23s-.5,1.24-1.12,1.24-1.12-.56-1.12-1.24.5-1.23,1.12-1.23ZM73.16,81.18l2.26,2.04c-.72,1.52-3,4.74-3,4.74l-4.18-3.7,2.19-1.37c-.12.25-.19.54-.19.85,0,1.02.75,1.85,1.67,1.85s1.67-.83,1.67-1.85-.69-1.78-1.56-1.84l1.13-.71ZM71.89,82.49c.62,0,1.12.56,1.12,1.24s-.5,1.24-1.12,1.24-1.12-.55-1.12-1.24.5-1.24,1.12-1.24ZM148.79,83.08s.62.26.77.51c1.21,2.06-.05,4.51-2.08,4.46-2.38-.06-3-3.35-1.37-4.69l1.33,1.39,1.36-1.67ZM87.02,83.92l4.68,1.99-1.78,5.63-5.12-2.32,2.21-5.29ZM67.77,84.5c19.11,19.03,46.25,20.4,65.98,7.77l1.2-.03.64.72c-22.48,14.69-50.42,11.5-69.28-7.42l1.46-1.05ZM120.38,85.64l1.51,5.56-5.18,1.51-1.16-5.63,4.83-1.44ZM65.81,85.84c5.8,6.18,14,11.59,23.63,14.66l.24,2.28c-10.22-3.39-17.94-7.92-25.46-15.79l1.6-1.15ZM88.26,85.93c-.92,0-1.67.83-1.67,1.85s.75,1.85,1.67,1.85,1.67-.83,1.67-1.85-.75-1.85-1.67-1.85ZM79.93,86.34l4.83,2.82-2.41,5.33-5.13-3.04,2.71-5.11ZM88.24,86.53c.62,0,1.12.56,1.12,1.24s-.5,1.24-1.12,1.24c-.62,0-1.12-.55-1.12-1.24s.5-1.24,1.12-1.24ZM96.24,87.29l4.64.75-.21,5.69-5.42-.72c.21-2,.99-5.71.99-5.71ZM118.66,87.43c-.92,0-1.67.83-1.67,1.85s.75,1.85,1.67,1.85,1.67-.83,1.67-1.85-.75-1.85-1.67-1.85ZM118.64,88.04c.62,0,1.12.56,1.12,1.24s-.5,1.24-1.12,1.24c-.62,0-1.12-.55-1.12-1.24s.5-1.24,1.12-1.24ZM80.9,88.12c-.92,0-1.67.83-1.67,1.85,0,1.02.75,1.85,1.67,1.85s1.67-.83,1.67-1.85c0-1.02-.75-1.85-1.67-1.85ZM110.57,88.13l.66,5.71-5.07.28-.3-5.7,4.7-.29ZM146.91,88.64h.72c.07,4.92.42,10.61.93,14.82.08.63.11.81.06.92-.5.97-1.08-.25-1.3-3.05-.06-.77-.14-1.89-.23-2.63-.26-2.23-.18-10.06-.18-10.06h0ZM61.23,88.73c-7.62,5.26-20.3,17.81-20.23,18.1l.05,48.24.99.05.82-1.77c-1.27-.35-.91-2.98,1.52-3.51.41-.09,1.68-.56,1.99-.82,1.84-1.55,4.84-2.47,6.94-1.86,3.06.87,3.69,3.36,2.22,7.69-1.16,3.41-3.46,7.78-5.63,9.02-.18.1-.56.31-.56.31,0,0,.5.51.69.64,5.96-3.8,8.96-17.45,8.8-25.94.24-8.7,1.6-17.42,4.77-23.77,5.25-10.49,12.19-14.71,12.16-14.75,0,0-9.36-6.28-14.53-11.62ZM80.88,88.73c.62,0,1.12.56,1.12,1.24s-.5,1.24-1.12,1.24-1.12-.55-1.12-1.24.5-1.24,1.12-1.24ZM127.18,88.93l1.81,5.31-5.02,2.27-1.81-5.58,5.03-2ZM98.28,88.96c-.92,0-1.67.83-1.67,1.85s.75,1.85,1.67,1.85,1.67-.83,1.67-1.85-.75-1.85-1.67-1.85ZM108.49,89.42c-.92,0-1.67.83-1.67,1.85,0,1.02.75,1.85,1.67,1.85s1.67-.83,1.67-1.85c0-1.02-.75-1.85-1.67-1.85ZM98.26,89.56c.62,0,1.12.56,1.12,1.24,0,.68-.5,1.24-1.12,1.24s-1.12-.55-1.12-1.24c0-.68.5-1.24,1.12-1.24ZM108.47,90.03c.62,0,1.12.56,1.12,1.24s-.5,1.24-1.12,1.24-1.12-.55-1.12-1.24.5-1.24,1.12-1.24ZM125.56,90.66c-.92,0-1.67.83-1.67,1.85,0,1.02.75,1.85,1.67,1.85s1.67-.83,1.67-1.85-.75-1.85-1.67-1.85ZM125.54,91.27c.62,0,1.12.56,1.12,1.24,0,.68-.5,1.24-1.12,1.24s-1.12-.55-1.12-1.24c0-.68.5-1.24,1.12-1.24ZM90.05,91.36l5.02,1.42-1.17,5.82-5.67-1.66,1.81-5.58ZM153.57,91.21c.82,2.84-.69,6.49-.76,6.73-.91,2.86-2.01,5.2-2.41,5.33-.34.14-.49.05-.49-.3,0-.54,1.12-4.2,2-6.56.22-.58.72-2.32.72-2.61,0-.44-.39.28-.8,1.38-.81,2.2-1.99,4.56-2.24,6.69-.18,1.74-.48,1.5-.7-.58-.3-2.88.27-4.36,3.2-8.37.7-.96,1.42-1.95,1.49-1.7h0ZM116.68,92.69l1.45,5.7-5.93,1.12-.92-5.78,5.4-1.04ZM91.86,93.26c-.92,0-1.67.83-1.67,1.85s.75,1.85,1.67,1.85,1.67-.83,1.67-1.85-.75-1.85-1.67-1.85ZM100.73,93.63l5.37.34.05,5.92-5.83-.28.41-5.98ZM91.84,93.87c.62,0,1.12.56,1.12,1.24s-.5,1.24-1.12,1.24-1.12-.55-1.12-1.24.5-1.24,1.12-1.24ZM114.38,94.4c-.92,0-1.67.83-1.67,1.85s.75,1.85,1.67,1.85,1.67-.83,1.67-1.85-.75-1.85-1.67-1.85ZM103.25,94.87c-.92,0-1.67.83-1.67,1.85,0,1.02.75,1.85,1.67,1.85s1.67-.83,1.67-1.85c0-1.02-.75-1.85-1.67-1.85ZM114.36,95.01c.62,0,1.12.56,1.12,1.24s-.5,1.24-1.12,1.24-1.12-.55-1.12-1.24.5-1.24,1.12-1.24ZM103.23,95.48c.62,0,1.12.56,1.12,1.24s-.5,1.24-1.12,1.24-1.12-.55-1.12-1.24.5-1.24,1.12-1.24ZM139.84,95.84c.09,0,.2.02.28.02,1.2-.02,5.24,3.19,6.28,5.14.86,1.72.41,2.4-.58.86-1.37-1.68-3.89-4.17-4.21-4.18-.34,0,.13.54,1.74,2.27,1.59,1.72,3.27,3.95,3.27,4.35,0,.26-.32.23-.77-.08-.99-.68-1.86-1.36-2.3-1.82-.27-.28-.77-.79-1.13-1.13-1.49-1.44-3.18-4.76-2.7-5.39.02-.03.06-.04.12-.04h0ZM64.93,96.31c1.03-.03,2.2.69,2.25,2.03.03.94.09,1.01.86,1.03.73.01,2.85.29,2.85.29v2.63s-1.01,0-2.19-.07c-2.01-.11-2-.11-2.26.87-.1.39-.25.59-.65.88-1.8,1.31-3.54-1.07-2.42-3.31.38-.77.41-1.03.14-1.5-.54-1.34.18-2.78,1.41-2.85h0ZM65.37,97.66c-.22,0-.47.11-.69.35-.3.33-.3,1.26,0,1.8.28.52.28.66-.06,1-.58.6-.6,1.79-.03,2.24.52.41,1.07-.13,1.07-.96,0-.91.58-.89.58-.89l3.78.07v-.68s-2.73-.15-2.73-.15c-.38,0-.78-.04-1.07-.26-.31-.24-.67-.65-.33-1.15.48-.7.05-1.37-.52-1.36h0ZM57.19,99.21l1.79,3.36,2.09.08.18,2.05,2.54,1.81-2.6,1.68-.13,2.06-1.97.27-1.83,2.53-1.75-2.53h-1.93s-.03-2.1-.03-2.1l-2.66-1.89,2.91-1.81-.03-2.41,2.06-.15,1.36-2.95h0ZM120.44,100.74l.09,2.03-2.93.57.38-2.07,2.46-.54ZM101.66,102.79l3.95.13-.23,28.53s-.78,0-.93,0l-.02-1.11-1.26.05-1.28-.86-.23-26.73ZM57.19,103.52l-2.32,3.24,2.81,2.71,2.47-3.17-2.96-2.78ZM102.84,103.95v1.31h1.66v-1.31h-1.66ZM57.24,105.07l1.63,1.32-1.24,1.82-1.57-1.51,1.18-1.63ZM120.52,105.82l-.05,15.61c-5.43,4.71-7.12,13-7.12,13l-2.21-.14,5.61-27.51,3.77-.96ZM91.1,106.16c-4.88,2.57-9.81,4.51-14.65,10.64,1.88,1.87,3.86,3.77,5.62,6.95,4.03-.66,8.52.13,13.41,2.26l-4.38-19.85ZM102.84,106.51v1.36h1.66v-1.36h-1.66ZM47.95,108.47c.12.42.16.86.16.86,3.58-.33,2.67,4.26.39,4.42-.27.04.22.81.75,1.06,1.36.63,2.33.23,3.22-1.08.68-1,.72-1.15.72-1.15l2.21,1.29s.06-.04-.33,1.08c-.71,2.04.33,4.54,1.13,2.72.43-.97,1.68-1.52,2.55-1.12,1.01.47,1.37,2.47.65,3.73-.22.38-.22.46-.09.81.2.53.32,1.9.11,2.34-.27.57-.58.7-1.19.24-.83-.64-1.3-.91-2.75-1.35-2.55-.53-3.05-1.52-4.06-3.84-3.02,1-7.53-1.09-6.93-6.04.27-1.09.35-3.19-.16-3.62-.99-.84.1-2.05,1.58-2.25,1.22-.13,1.81,1.14,2.03,1.9h0ZM90.64,107.04l3.93,18.17c-4.31-1.74-8.54-3.11-12.28-2.09-1.71-3.02-3.17-4.51-5.08-6.47,3.7-4.94,8.41-7.7,13.43-9.6h0ZM46.22,107.93c-.25,0-.54.12-.84.41,0,0,.27.25.41.58q.23.53-.03,1.71c-1.2,4.73,1.64,7.87,5.68,6.5.99-.34.95-.3,1.24.99.47,2.12,1.83,3.21,4.52,3.62.17.02.44.08.66.23,1.19.84.7-.28.38-.71-.23-.34-.65-.67-.65-.67,0,0,.36-.26.53-.36.76-.45,1.04-2.19.42-2.57-.57-.34-1.55.17-1.55.82,0,1.18-1.36,1.31-2.54.33-1.52-1.26-.17-4.45-.16-4.44l-.86-.42c.11.11-1.8,3.12-4.16,2.07-1.65-.73-2.81-2.84-2.04-3.44.56-.16,1.22.17,1.65-.19.84-.73.16-2.01-1.04-1.96-.25,0-.83.13-.83.13.06-.6.2-1.02.13-1.59-.07-.58-.43-1.03-.92-1.04h0ZM102.86,109.31v1.12h1.64s0-1.11,0-1.11h-1.64ZM102.84,111.62v1.15h1.66v-1.15h-1.66ZM102.84,114.1v1.18h1.66v-1.18h-1.66ZM102.84,116.42v1.25h1.66v-1.25h-1.66ZM102.84,118.75v1.16h1.66v-1.16h-1.66ZM102.84,121.12v1.18h1.66v-1.18h-1.66ZM48.99,122.27l1.39,2.6,1.66.08.07,1.79,2.82,2.38-2.46,1.95-.18,1.93-1.95.07-1.58,2.95-1.95-2.58-1.56-.28-.18-2.35-2.41-1.99,2.26-2,.18-2.09,1.84.18,2.05-2.63ZM140.65,123.51c.15,0,.31.05.49.15.59.33.77.36,2.29.45,1.76.1,2.39.27,3.26.92.53.39.56.39,1.12-.03,2.48-1.81,5.3-.16,5.51,3.21.05.89.13,1.25.45,1.99.22.52.44.92.31,1.25-.4,1.01-2.3,1.07-3.34-.42-.19-.23-.37-.32-.63-.32-.52.21-1.84-.94-1.82-.99-.12.8-.18,1.43-.31,2.6l-2.31-.04s-.05-.47-.16-2.1c-.12-1.88-.55-2.43-1.09-1.41-.93,1.75-3.42.98-3.56-1.1-.05-.7-.08-.8-.43-1.09-1.17-.99-.83-3.09.23-3.06h0ZM102.84,123.62v1.04h1.66v-1.04h-1.66ZM140.92,124.73c-.46.04-.2.94.56,1.41.43.27.43.27.38,1.1-.1,1.5,1.21,2.24,1.79,1,.1-.21.14-.48.1-.67-.24-1.09,1.89-.79,2.4.33.12.26.25.95.31,1.64.06.66.08,1.42.08,1.42h.68s0-.46.03-.89c.17-1.86.92-3.04,1.92-3.04.43,0,.45.09.14.7-.51,1.04-.02,1.79,1.17,1.8.75,0,.75,0,1.03.6.31.65.54.85.83.73.2-.08.21.04-.06-2.17-.39-3.3-2.13-4.19-4.53-2.32-.68.53-.83.51-1.43-.13-.9-.96-1.47-1.18-3.24-1.26-.84-.03-1.67-.13-1.84-.2-.14-.06-.25-.08-.33-.08h0ZM84.01,125.68c-.39,0-.85.1-1.24.14.44,2.55.64,5.1.84,7.65,2.02-.39,4.64-.03,8.09,1.75,2.12,1.09,4.7,2.96,7.41,5.06,2.93,2.28,6.37,3.62,9.3,4.33,3.57.86,6.43.78,6.35.6-.16.03-1.29-6.25-1.14-7.6-4.94-.5-9.7-2.52-13.34-5.26-4.82-3.62-10.4-6.77-16.28-6.66ZM102.84,125.89v1.06h1.66v-1.06h-1.66ZM48.49,126.1l-2.62,3.02,2.85,2.98,2.42-3.04-2.65-2.96ZM48.42,127.47l1.48,1.57-1.2,1.68-1.67-1.59,1.38-1.66ZM85.37,127.72c.35,0,.69.27,1.85.99.97.74,1.74,1.2,1.46.04.22-.33,1.29.75,2.56,1.44,1.52,1.35,1.53,1.02,1.73.35.2-.49.49-.16,1.7,1.09,1.6,1.64,1.46,1.64,1.78,1.23.36-.77.49-.76,1.79.9,1.36,1.67,1.64,2.03,1.93,1.31.45-.37.68-.01,2.52,1.9.91,1,1.12.84,1.29.17.18-.69.22-.54,1.75.8,1.77,1.57,1.94,1.68,2.02,1.14.12-.86.67-.56,2.49.89,1.1.87,1.52,1.11,1.76.9.24-.47-.6-1.37,1.18-.52l.49,2.85-.62-.19c-.38-.12-1.21-.43-.9.46.18.51-.27.45-1.65-.46-1.98-1.3-2.35-1.6-2.49-1.34-.26.98-.23,1.04-1.56-.12-1.55-1.3-1.87-1.66-2.08-1.22-.03.98-.46.78-1.91-.6-1.23-1.18-1.49-1.8-2.03-.9-.15.31-.3.24-.5.07-.71-.58-2.15-2.25-2.55-2.73-.32-.38-.5-.26-.76.06-.24.3-.26.2-1.05-.6-1.89-1.91-2.24-2.39-2.5-2.13-.22.45,0,1.06-1.46-.21-1.82-1.45-2.61-2.09-2.49-1.14-.31.42-.09.51-1.91-.61-1.73-1.06-1.95-1.38-2.2-1.01-.17.57-.75.37-.75.33l-.35-2.9h.62s.6-.26.87-.26h0ZM71.48,127.96c-.14.45-1.09,3.04-1.11,9.63.11.16,2.37-2.38,2.48-4.75.1-2.24-1.37-4.89-1.37-4.89ZM102.84,128.14v1.2h1.66v-1.2h-1.66ZM71.6,129.1c2.11,3.69-.22,7.17-.79,7.41,0-2.77.37-5.38.79-7.41ZM126.85,132.2c-3.46,2.41-2.9,8.94-1.2,10.61.12,0,1.22-7.05,1.2-10.61ZM126.38,133l-.93,8.4c-1.21-1.48-1.42-5.9.93-8.4ZM148.21,134.42l1.83,2.54,1.63.13.36,1.83,2.37,2.14-2.38,1.78-.21,2.03-1.77.2-1.75,3.04-1.71-2.98-1.64-.19-.05-1.96-2.58-2.1,2.46-1.63.05-2.21h1.93s1.46-2.62,1.46-2.62ZM83.45,135.21c-1.16,6.11-3.94,10.28-7.85,13.09l.02.62-6.59,2.92c-1.44,7.45-4.04,14.72-9.49,21.53l1.52,3.41-7.37,2.8,10.54,19.99c.73,0-5.11,3.05-12.15,2.26,4.46,12.06,5.38,24.55,2.91,35.49l34.52-.16-26.38-57.22-.43-.93c-.37-.75,14.02,2.24,10.97,16.99-.04.34.06.38.24.24,2.8-2.66,21.38-10.02,36.21-.3l4.41-2.02c-2.1,8.12-4.48,13.7-8.5,18.59l.68,11.55c7.11-6.44,14.83-18.26,15.87-33.97,3.2-1.73,5.99-3.68,8.97-5.53l.4.14,1.93-1.28c-6.2-7.49-18.85-14.65-26.95-16.54l.48,2.54c-4.47-1.33-7.82-1.62-11.3-2.03l-.53-26.88-4.5-2.93-.14,29.65c-3.37.05-11.11,1.51-11.11,1.51l.35-2.54-3.55.81-.06-2.47,4.01-1.27,5.81-27.24-2.92-.84ZM83.93,135.82l1.85.41-5.75,26.71s-3.23.99-3.43.85c-.26-5.01-.35-15.21-.35-15.21,5.68-5.23,6.57-8.94,7.68-12.76h0ZM44.44,137.78c.87-.01,1.8.69,1.86,1.31.15.39.27.55.51.59,1.45.22,1.5.65,1.54,1.57-.2,1.77.87.28,1.17-1.48.03-.18.01-1.53.01-1.53l1.78-.02s.06,1.41.09,1.63c.16,1.36.68,2.47,1.05,1.74,1.25-2.48,4.11-1.22,3.66,1.18-.11.57-.1.6.24,1.03.57.7.78,1.44.59,2.09-.18.63-.58.73-1.44.35-.4-.18-.89-.24-2.2-.29-1.85-.06-1.97-.1-2.69-.87l-.45-.49-.79.51c-1.31.85-2.5.88-3.88.1-.9-.51-1.42-1.73-1.56-3.64-.03-1.01-.28-1.74-.85-1.99-.31-.32.04-.95.56-1.53.24-.19.52-.27.81-.28h0ZM148.06,138.07l-2.44,3.36,2.9,2.87,2.7-3.51-3.16-2.72ZM91.5,138.55l3.38,2.14.43,26.5-3.82-.12v-28.52s0,0,0,0ZM44.53,138.92c-.26.03-.1.48.09,1.18.17.62.21,1.01.16,1.44-.36,2.9,2.65,4.38,4.83,2.37.58-.73.67-.68,1.16.1.6.83,1.46,1.1,3.29.97.83-.06,1.38.44,1.74.11.26-.21,0-.76-.5-1.08-.31-.2-.32-.23-.26-.91.15-1.72-1.13-2.17-2.04-.72-.75,1.2-1.89.41-2.25-1.57-.22-1.52-.39-1.5-.55-.17-.18,1.61-2.1,3.36-2.87,2.57-.21-.23-.21-.18,0-.99.28-1.04.06-1.43-.97-1.7-.17-.04-.36-.2-.43-.34-.54-.93-.52-1.26-1.41-1.26h0ZM148.3,139.54l1.55,1.48-1.35,1.76-1.65-1.4,1.45-1.84ZM92.56,140.48v1.25h1.45v-1.25h-1.45ZM92.56,143v1.32h1.45v-1.32h-1.45ZM101.27,144.52c1.62,6.65,3.26,13.3,4.88,19.95,1.54-.68,10.45-5.05,14.65-10.64-.16.01-3.82-3.94-5.1-6.51-4.2.77-9.03-.21-14.43-2.81h0ZM92.56,145.31v1.23h1.45v-1.23h-1.45ZM102.19,145.65c3.83,1.26,8.73,3,13.25,2.12,1.16,2.31,2.85,4.22,4.75,5.97-3.42,4.11-8.36,7.24-13.47,9.66l-4.53-17.75ZM138.52,146.12c.19,0,.39.08.58.27.61.6,1.07.8,2.31,1.02,1.99.36,3.51,1.74,3.95,3.57.18.77.28.81,1.27.54,3.76-1.05,6.66,2.4,5.77,7-.31,1.61-.41,1.8.03,2.44.96,1.14,1.16,1.15.12,2.16-.95.95-2.85.49-3.25-1.05-.38-.84-.38-.91-1.01-1.02-2.46-.43-2.35-4.19-.04-4.62.19-.04.34,0,.43-.04.66-.33-.72-2.04-1.85-1.78-1.39.32-2.08,1.31-2.63,2.85l-2.19-1.38c.55-1.26.95-2.87.48-3.87-.39-.84-.87-.88-1.02-.07-.35,1.9-2.49,2.47-3.89.92-.78-.86-.88-1.79-.3-3.05.37-.81.38-.87.22-1.21-.55-1.19.2-2.69,1.03-2.68h0ZM92.56,147.67v1.28h1.45v-1.28h-1.45ZM138.79,147.78c-.45,0-.44.48-.03,1.07.37.41.44.6-.07.95-.63.65-.77,1.63-.33,2.37.66,1.12,2.17.5,2-.82-.12-.92.54-1.34,1.58-.99,1.52.51,2.24,2.38,1.65,4.27-.11.36-.34,1.19-.34,1.19l.45.3s.53-.94.74-1.23c1.73-2.35,5.81-1.16,5.35,1.78-.07.92-.07,1.05-.97.76-.6-.34-1.19.37-1.17,1.26.03.8.66,1.45,1.53,1.32.69-.14.87-.12.82.91.07.72.31,1.19.74,1.44,1.03.47,1.56-.18.74-1.13-.5-.58-.47-1.47-.16-2.31.38-1,.18-3.2-.4-4.44-.83-1.79-3.15-2.54-5.09-1.64-.89.52-.98.65-1.07-.27-.49-2.28-2.04-4-3.97-4.16-.74-.06-1.52-.51-1.99-.62h0ZM92.56,150.11v1.18h1.45v-1.18h-1.45ZM92.56,152.42v1.31h1.45v-1.31h-1.45ZM92.56,154.97v1.31s.79-.02,1.45,0v-1.31h-1.45ZM139.8,157.06l1.58,2.59,1.75.13.21,2.09,2.66,1.83-2.3,1.59-.02,2.02-2.2.21-1.94,2.85-1.65-2.51h-1.65s-.39-2.23-.39-2.23l-2.93-1.64,3-1.89-.08-2.36,2.04-.02,1.92-2.66h0ZM92.56,157.37v1.34h1.45v-1.34h-1.45ZM92.56,159.82v1.32h1.45v-1.32h-1.45ZM138.91,160.81l-2.27,3.34,3.06,2.79,2.43-3.38-3.22-2.76ZM92.56,162.15v1.45h1.45v-1.45h-1.45ZM139.14,162.32l1.58,1.35-1.13,1.58-1.57-1.32,1.12-1.61ZM92.56,164.83v1.21h1.45v-1.21h-1.45ZM49.51,164.98c-2.79.01-5.43,5.01-6.06,7.37-.75,3.03-.86,8.51-.15,8.66,2.5-1.99,3.68-5.36,5.56-7.88.29,2.92.25,8.54.25,8.54,0,0-1.11.65-1.71,1.67-.43.85-.57,1.86-.2,2.81-1.39-.5-3.91.06-4.05,2.9.09,3.99,4.04,3.43,4.05,3.38-.08-.02-.78,4.25,2.72,4.7,1.26.16,3.47-.85,2.81-4.74,2.21.4,4.12-.94,4.14-3.29.03-1.61-1.08-3-2.99-3-.4,0-1.24.2-1.24.2.03-.23.76-2.73-1.8-4.54l-.4-11.56s.89,1.07,1.28,1.47c1.7,1.73,2.82,2.61,4.78,3.75,1.91,1.12,1.68.84,1.35-1.28-.9-3.18-2.79-5.59-6.79-8.6-.51-.39-1.04-.56-1.55-.56h0ZM49.79,165.23l.56,16.35h-.83s-.71-16.34-.71-16.34l.98-.02ZM131.85,165.77c.07,0,.15,0,.23,0,1.8.17,2.27,2.4,1.46,3.39-.32.39-.43.48-.27.72.77,1.08.34,2.8-.42,3.06-2.43.84-2.8-.64-2.8-2.37l-3.76-.16.02-2.42,4.15.09c-.31-1.1.29-2.27,1.39-2.32h0ZM48.05,165.8s.03,0,.04,0c.39.04-.01,1.19-1.1,2.94-.73,1.19-1.76,3.28-2.06,4.12-.67,1.85-1.12,5.16-.67,4.55.4-1.39.44-1.96.79-2.96.46-1.3,2.6-5.57,3.02-5.99.36-.36.46-.14.45,1.06-.02,2.7-1.18,5.55-3.94,8.88-.46.56-1.08,1.16-1.12,1.16-.27,0-.26-.61-.25-1.9.02-5.11,1.73-9.67,4.37-11.63.21-.15.36-.23.47-.24h0ZM50.85,166.03c1.21.39,3.39,2.54,4.29,3.65,1.04,1.24,2.43,4.67,2.19,5.2-.08.23-.26.2-.86-.18-3.86-2.4-6.62-5.36-5.9-6.32.2-.27,1.03.28,2.14,1.42.75.74,1.53,1.49,2.22,2.24,1.08,1.18,1.33,1.35.67.04-.59-1.18-2.25-3.16-4.26-4.83-.82-.68-1-1.23-.48-1.22h0ZM132.08,166.72c-.05,0-.1,0-.13.03-.76.35-.45,1.44-.52,2.28l-4.17-.16-.02.64,3.92.24c.07.65-.24,2.06.27,2.3,1.1.5,1.69-1.06.76-1.99-.33-.33-.69-.47.23-.93.61-.57.7-1.69.18-2.19-.14-.14-.35-.21-.5-.21h0ZM79.28,166.91l-.21,1.71-2.42.67-.06-1.83,2.69-.56ZM107.83,167.52c8.94,2.66,18.87,8.7,25.33,15.53l-1.29.94c-6.7-6.84-15.55-12.04-23.67-14.62l-.36-1.84ZM92.43,167.78c14.72-.04,28.14,6.28,38.96,16.49l-1.77,1.23c-9.88-9.02-20.82-15.04-35.54-15.76-9.62-.47-20.6,2.26-31.42,8.84l-.81-1.62c10.51-6.33,20.83-9.16,30.58-9.19h0ZM91.27,170.23l5.79.19-.36,5.94-5.26-.19-.17-5.94ZM85.05,170.65l.82,5.73-5.04,1.04-1.43-5.75,5.65-1.02ZM103.37,171.41l5.75,1.69-1.9,5.84-5.05-1.59,1.19-5.95ZM94.16,171.49c-.91,0-1.65.82-1.65,1.83s.74,1.83,1.65,1.83c.91,0,1.65-.82,1.65-1.83,0-1.01-.74-1.83-1.65-1.83ZM94.16,172.13c.61,0,1.1.53,1.1,1.2s-.49,1.2-1.1,1.2-1.1-.54-1.1-1.2c0-.66.49-1.2,1.1-1.2ZM82.74,172.14c-.91,0-1.65.82-1.65,1.83s.74,1.83,1.65,1.83,1.65-.82,1.65-1.83-.74-1.83-1.65-1.83ZM82.74,172.77c.61,0,1.1.53,1.1,1.2s-.49,1.2-1.1,1.2c-.61,0-1.1-.54-1.1-1.2s.49-1.2,1.1-1.2ZM105.51,173.5c-.91,0-1.65.82-1.65,1.83,0,1.01.74,1.83,1.65,1.83.91,0,1.65-.82,1.65-1.83s-.74-1.83-1.65-1.83ZM73.46,173.72l1.7,5.59-4.88,2.18-1.83-5.52,5-2.25ZM105.51,174.14c.61,0,1.1.53,1.1,1.2,0,.66-.49,1.2-1.1,1.2s-1.1-.54-1.1-1.2c0-.66.49-1.2,1.1-1.2ZM115.07,175.48l5.18,3.02-2.68,5.34-4.82-2.78,2.32-5.59ZM71.73,175.96c-.91,0-1.65.82-1.65,1.83s.74,1.83,1.65,1.83,1.65-.82,1.65-1.83-.74-1.83-1.65-1.83ZM91.28,176.14l.24,5.64-4.58.36-.83-5.61,5.18-.39ZM96.78,176.43l5.22.8-1.23,5.44-4.73-.84.73-5.39h0ZM71.73,176.59c.61,0,1.1.53,1.1,1.2s-.49,1.2-1.1,1.2c-.61,0-1.1-.54-1.1-1.2s.49-1.2,1.1-1.2ZM88.85,177.32c-.91,0-1.65.82-1.65,1.83s.74,1.83,1.65,1.83,1.65-.82,1.65-1.83-.74-1.83-1.65-1.83ZM80.5,177.55l1.35,5.49-5.04,1.59-1.55-5.28,5.23-1.8ZM98.79,177.64c-.91,0-1.65.82-1.65,1.83s.74,1.83,1.65,1.83c.91,0,1.65-.82,1.65-1.83s-.74-1.83-1.65-1.83ZM88.85,177.95c.61,0,1.1.53,1.1,1.2s-.49,1.2-1.1,1.2c-.61,0-1.1-.54-1.1-1.2s.49-1.2,1.1-1.2ZM98.79,178.27c.61,0,1.1.53,1.1,1.2s-.49,1.2-1.1,1.2-1.1-.54-1.1-1.2.49-1.2,1.1-1.2ZM116.47,178.28c-.91,0-1.65.82-1.65,1.83s.74,1.83,1.65,1.83,1.65-.82,1.65-1.83-.74-1.83-1.65-1.83ZM107.52,178.81l5.05,1.91-2.01,5.21-4.83-2.03,1.8-5.09ZM116.47,178.91c.61,0,1.1.53,1.1,1.2s-.49,1.2-1.1,1.2c-.61,0-1.1-.54-1.1-1.2s.49-1.2,1.1-1.2ZM78.49,179.11c-.91,0-1.65.82-1.65,1.83,0,1.01.74,1.83,1.65,1.83.91,0,1.65-.82,1.65-1.83s-.74-1.83-1.65-1.83ZM78.49,179.74c.61,0,1.1.53,1.1,1.2,0,.66-.49,1.2-1.1,1.2s-1.1-.54-1.1-1.2c0-.66.49-1.2,1.1-1.2ZM109.08,180.81c-.91,0-1.65.82-1.65,1.83s.74,1.83,1.65,1.83c.91,0,1.65-.82,1.65-1.83s-.74-1.83-1.65-1.83ZM109.08,181.44c.61,0,1.1.53,1.1,1.2s-.49,1.2-1.1,1.2-1.1-.54-1.1-1.2.49-1.2,1.1-1.2ZM49.94,182.07c1.32.06,2.31,1.37,2.37,2.74.05,1.04-1.15,2.4-1.15,2.4l-1.39-1.43-1.34,1.36c-.23.08-1.27-1.87-.95-2.88.41-1.32,1.26-2.24,2.46-2.19h0ZM125,182.07l4,3.62s-1.76,1.18-2.08,1.39c.04-.16.06-.32.06-.49,0-1.01-.74-1.83-1.65-1.83-.91,0-1.65.82-1.65,1.83,0,.87.55,1.59,1.28,1.78-.41.26-.96.6-.96.6l-2.11-1.96,3.12-4.93ZM118.67,191.74l-1.77.8c-10.89-7.9-25.78-12.23-42.81-4.27l-.59-1.56c12.64-5.82,28.59-7.63,45.16,5.03ZM117.7,183.84l4.28,2.9-2.72,4.62-4.18-2.96,2.62-4.56ZM116.41,192.79l-1.8.75c-13.29-9.44-27.45-8.93-40.11-3.28l-.2-1.33c14.9-7.13,29.86-4.86,42.1,3.86h0ZM125.33,185.39c.61,0,1.1.53,1.1,1.2s-.49,1.2-1.1,1.2-1.1-.54-1.1-1.2.49-1.2,1.1-1.2ZM48,187.55l-1.48,1.65,1.35,1.68s-.43.4-.74.59c-1.77,1.06-3.7-.62-3.61-2.43.13-2.64,3.02-3.9,4.48-1.48h0ZM118.32,186.29c-.91,0-1.65.82-1.65,1.83s.74,1.83,1.65,1.83,1.65-.82,1.65-1.83-.74-1.83-1.65-1.83ZM53.98,186.37c1.32.01,2.34,1.13,2.46,2.41.1,1.02-.38,2.01-1.42,2.7-1.41.94-3.05-.58-3.02-.68l1.19-1.3-1.43-1.62s.94-1.53,2.22-1.52ZM49.87,186.68l2.43,2.68-2.58,2.65-2.39-2.65,2.53-2.69ZM114.08,193.82l-1.37.69-1.86-1.24-.55,1.17,1.04.73-1.08.45c-12.42-7.71-26.45-5.48-35.77-.36,0,0,.08-.79.09-.79l1.02-.57-.38-1.42-.54.18-.04-1.57c13.32-6.63,28.43-5.11,39.46,2.75h0ZM118.32,186.92c.61,0,1.1.53,1.1,1.2s-.49,1.2-1.1,1.2c-.61,0-1.1-.54-1.1-1.2s.49-1.2,1.1-1.2ZM49.82,187.88l-1.3,1.43,1.29,1.52,1.26-1.47-1.25-1.48ZM90.46,188.2l-1.7.08.09,1.53,1.66-.05-.05-1.57ZM91.62,188.21l.03,1.53h1.54s0-1.52,0-1.52h-1.57s0-.01,0-.01ZM94.36,188.23l-.08,1.53,1.53.08.11-1.52-1.57-.08ZM87.75,188.43l-1.74.21.19,1.54,1.65-.21-.1-1.54ZM97.21,188.45l-.12,1.58,1.57.2.21-1.51-1.66-.27ZM49.82,188.46l.76.89-.75.83-.8-.87.8-.85ZM84.81,188.93l-1.68.29.18,1.59,1.64-.36-.14-1.52ZM100.05,188.93l-.28,1.47,1.56.41.25-1.5-1.54-.38ZM82.05,189.57l-1.41.41.31,1.55,1.49-.4-.39-1.56ZM102.74,189.63l-.3,1.49,1.59.48.32-1.43-1.62-.54ZM79.72,190.37l-1.48.58.38,1.43,1.5-.56-.41-1.45ZM105.48,190.54l-.49,1.44,1.38.61.61-1.3-1.5-.75ZM77.28,191.38l-1.4.64.58,1.42,1.33-.67-.51-1.39ZM48.39,191.42l1.42,1.57,1.69-1.68c1.47,1.44,1.45,4.8-1.16,5.36-2.27.49-4.35-3.27-1.95-5.25h0ZM108.01,191.72l-.54,1.32,1.53.74.53-1.27-1.51-.79ZM64.5,200.17l19.25,36.17-3.04-.06-18.63-34.95,2.42-1.15ZM61.34,201.55l1.06,1.83c-2.08-1.83-5.15-.29-5.02,2.02.1,1.03.89,1.66.9.67-.09-1.04,1.24-1.94,2.2-1.9,1.78.03,2.87,2.56,1.64,3.82-.81.82-1.91.79-1.54-.34.06-.39.03-.53-.14-.7-.51-.52-1.46.16-1.23.89.15.49.2.6-.33,1-2.04,1.58-.62,4.71,1.85,3.28.51-.2.71-.23.94-.13,1.03.44,1.73-.55.75-1.06-.57-.3-.58-.81-.03-1.21,1.17-.86,2.98.48,2.98,2.21,0,1.22-1.46,2.12-2.85,1.77-.83-.21-.93.41-.17,1.05,1.47,1.25,3.68.21,4.34-2.03.21-.71.18-.85.18-.85l1.96,3.59s-.61-.32-.98-.44c-1.85-.62-3.92.7-3.93,2.51,0,.85.45,1.18.71.51.6-1.56,1.89-2.16,3.22-1.51,1.23.61,1.79,1.98,1.31,3.21-.5,1.29-2.19,1.67-2,.45.09-.58-.23-.93-.79-.88-.21.02-.49.71-.41,1.04.07.31.02.38-.7,1-1.72,1.48-.4,3.89,1.75,3.19.36-.12.49-.11.82.06.77.41,1.59.16,1.59-.5,0-.45-.18-.63-.67-.63-.73,0-.58-.92.24-1.37,2.04-1.13,4.12,1.72,2.88,3.93-.53.95-.87,1.05-2.78.82-.31-.04-.45.2-.26.47.56.88,2.24,1.16,3.22.67,1.05-.53,1.7-1.86,1.77-3.28l2.15,4.16c-1.68-1.94-4.57-1.2-5.03,1.58,0,.7.58,1.07.78.49.87-2.5,4.18-1.74,4.17.97,0,.43-.08.68-.33,1.06-.61,1.3-2.16,1.62-1.88.45.13-.36-.12-.75-.55-.86-.42-.11-.69.28-.68.99,0,.53.01.69.01.69-.77.36-1.27,1.07-1.44,2.11l-15.08.04c1.79-11.55,1.37-21.98-2.06-31.85-.3-.86-.72-2.1-.72-2.1l2.66.08c.64.62,3.07.38,4.02-.57l1.49-.41ZM63.9,206.09l1.56,3.09c-.64-.41-1.3-.68-2.3-.77.52-.86.57-1.63.75-2.32ZM59.8,209.37c.57,0,1.03.51,1.03,1.13s-.46,1.13-1.03,1.13-1.03-.51-1.03-1.13.46-1.13,1.03-1.13ZM70.54,218.61l1.5,2.95c-.73-.34-1.35-.68-2.49-.71.41-.54.77-1.44.99-2.24ZM66.22,221.77c.54,0,.97.48.97,1.08s-.44,1.07-.97,1.07-.97-.48-.97-1.07.43-1.08.97-1.08ZM77.08,230.97l2.21,4.34c-.87-.55-1.81-1.25-2.98-1.12.56-1.32.86-2.04.77-3.23ZM74.14,236.39h-2.38c.47-2.29,2.4-1.69,2.38,0ZM76.39,235.28c.81.05,1.5.35,1.94,1.13h-2.99s.02-1.13,1.05-1.13h0Z"/>
      </g>
      <g id="Center_Symbols_Q" data-name="Center Symbols Q">
        <use width="25.56" height="32.54" transform="translate(49.63 40.39)" xlink:href="#Heart"/>
        <use width="25.56" height="32.54" transform="translate(147.65 228.89) rotate(-180)" xlink:href="#Heart"/>
      </g>
      <g id="Corner_Symbols_Q" data-name="Corner Symbols Q">
        <use width="25.56" height="32.54" transform="translate(20.81 46.74) scale(.5)" xlink:href="#Heart"/>
        <use width="25.56" height="32.54" transform="translate(176.47 222.54) rotate(-180) scale(.5)" xlink:href="#Heart"/>
      </g>
    </g>
    <g id="Heart_Corner_Characters" data-name="Heart Corner Characters">
      <g>
        <use width="21.78" height="33.12" transform="translate(180.98 254.75) rotate(-180)" xlink:href="#Red_Q"/>
        <use width="21.78" height="33.12" transform="translate(16.31 14.53)" xlink:href="#Red_Q"/>
      </g>
    </g>
  </g>
  <g id="Clubs">
    <g id="Club_Corner_Characters" data-name="Club Corner Characters">
      <use width="181" height="253" transform="translate(8.14 8.14)" xlink:href="#boundary"/>
    </g>
  </g>
</svg>