<?xml version="1.0" encoding="UTF-8"?>
<svg xmlns="http://www.w3.org/2000/svg" xmlns:xlink="http://www.w3.org/1999/xlink" viewBox="0 0 197.28 269.28">
  <defs>
    <style>
      .cls-1 {
        fill: #262964;
      }

      .cls-1, .cls-2, .cls-3, .cls-4 {
        stroke-width: 0px;
      }

      .cls-2 {
        fill: #d2232a;
      }

      .cls-3, .cls-5 {
        fill: #000;
      }

      .cls-6 {
        fill: none;
        stroke: #000;
        stroke-miterlimit: 10;
      }

      .cls-4 {
        fill: #e1cf20;
      }

      .cls-5 {
        font-family: ArialMT, Arial;
        font-size: 28px;
      }
    </style>
    <symbol id="Black_Q" data-name="Black Q" viewBox="0 0 21.78 33.12">
      <text class="cls-5" transform="translate(0 24.03)"><tspan x="0" y="0">Q</tspan></text>
    </symbol>
    <symbol id="Spade" viewBox="0 0 26.08 32.54">
      <path id="path153-6-3-1-6-92-7-2-9-8" class="cls-3" d="M13.04,0C6.79,8.92.11,14.05,0,21.01c-.04,2.25,1.18,6.08,4.99,6.82,2.47.47,5.88-1.53,5.95-5.6-.01-.81.86-.79.85.32-.12,3.21-1.13,6.95-2.84,9.99h8.18c-1.71-3.04-2.72-6.78-2.84-9.99,0-1.11.86-1.13.85-.32.07,4.07,3.47,6.07,5.95,5.6,3.81-.73,5.03-4.56,4.99-6.82-.11-6.96-6.79-12.09-13.04-21.01Z"/>
    </symbol>
    <symbol id="boundary" viewBox="0 0 181 253">
      <rect class="cls-6" x=".5" y=".5" width="180" height="252" rx="15" ry="15"/>
    </symbol>
  </defs>
  <g id="Spades">
    <g id="Spade_Symbols" data-name="Spade Symbols">
      <g id="Queen_Face" data-name="Queen Face">
        <path id="path4075-4-3-9" class="cls-4" d="M91.84,236.78l16.75-33.59s3.99,1.73,8.72,3.08c-4.54,13.02-.03,30.2-.03,30.2,0,0-25.45.28-25.44.31ZM45.94,179.42c-.95-14.26.55-26.36,1.15-39.46.04-.18-5.44-3.91-5.44-3.91l12.88-7.99c1.28.73,2.02.6,2.32-.75-1.3-4.86-1.55-9.56,1.42-13.59,2.23-2.94,7.32-1.43,8.8-1.44,1.15,0,3.89-10.04-.74-12.99-.98-.63-1.45,5.85-2.12,8.58-2.98-1.92-8.5-3.53-9.24-6.92-.38-1.88,5.04-5.48,3.98-7.6-1.55-3.08-5.55-7.68-7.27-6.42-1.62,1.61-5.48,4.9-5.46,7.15,1.21,4.04,4.28,4.32,5.89,8.14.4.83,3.37,4.3,3.37,4.3-1.11,1.87.69,5.15.77,4.65l-14.05-6.74s3.22,26.67-.18,30.62c-.36.42,3.01-1.05,3.07-.82,1.02,1.43,12.37,9.37,15.62,12.22,5.77-8.85,7.87-12.75,15.31-20.6,1.63-1.48,5.27-4.2,7.35-7.45,1.67-2.62,2.36-5.56,2.06-7.85-.39-2.96-.63-4.98-2.29-7.34-3.83-5.45-9.93-10.64-9.82-10.74l2.08-1.87s7.52,6.84,10.7,11.88c2.14,3.39,1.18,7.28,3.03,7.97.44.17,3.48-.11,4.48.1.12.03,22.12,17.11,18.13,18.1-5.52,1.36-14.32.47-14.32.47-6.29-6.75-9.32-8.97-13.06-6.86,0,0-9.49,9.14-14.97,16.3-3.12,4.08-8.07,12.61-8.07,12.61-.37-.18-11.24-9.63-10.78-8.57,0,0,2.61,25.9,1.45,35.38-.8,8.05-1.88,16.7-2.37,24.12,1.54-.37,3.82-.85,4.25,1.74.38,3.53-3.76,2.71-3.85,2.41,0,0,2.31,5.45,2.31,5.45,0,0-3.58,6.8-3.48,6.5.06-.18-3.26-6.04-3.26-6.04,0,0,2.46-4.91,2.83-5.91.25-.68-3.77,1.79-3.93-1.79-.16-3.69,4.2-2.81,3.97-2.34-.54-7.89-1.74-16.05-2.5-22.7h0ZM99.8,197.17c.1-.08-9.5-4.24-18.33-3.85-3.11-1.33-8.18-2.73-11.56-.24-3.8-2.84-7.09-5.96-10.43-9.05.93-.01,4.96-25.42,6.73-33.44-1.02-10.73,8.37-10.72,9.18-2.13,10.11,11.51,22.5,23.42,35.27,35.13-2.03,4.64-9.36,8.17-10.86,13.58h0ZM121.91,121.29c-11.53-12.94-35.67-36.07-35.67-36.07l11.3-12.14c5.93,1.95,12.02,3.57,18.91,3.65.03.03,7.55,3.77,11.56,0l10.43,9.09s-4.33,25.04-6.87,33.78c.05,3.46-1.14,7.68-4.24,8.3-2.65.53-4.69-3.6-5.42-6.6h0ZM145.22,91.32c1.2-8.14,1.45-14.06,2.29-23.56-5.2,1.68-5.13-6.04-.02-4.01l-2.37-5.74,3.51-6.47,3.22,6.14-2.77,5.45c5.76.31,4.37,6.2-.59,4.78.94,9.1,3,18.29,2.9,27.28,1.78,14.42-2.19,34.49-1.54,34.97l5.62,4.25-.96,31.38-8.87-4.28-2.64,1.96c.85,1.85,1.93,3.62,2.29,5.62,0,0,6.11,5.53,5.26,7.26.39.25-4.35,7.16-5.74,6.99-2.65-.33-5.73-4.11-6.62-6.79-.75-2.7,5.49-5.35,4.7-7.33-.94-2.37-3.32-3.5-5.42-4.2-2.9-.96-4.23-3.49-4.36-3.49,0,0-1.13,10.03-2.21,9.23-4.37-3.23-1.38-13.46-.57-13.17,0,0,1.91.48,4.16.72,7.94.92,7.41-9.83,5.87-15.03-.55-2.04,1.8-1.38,2.81-1.69,3.86-1.25,9.82-5.63,9.82-5.63-6.21-3.79-11.69-8.11-16.61-12.21,0,0-4.56,8.57-9.97,14.52-3.94,4.33-4.58,5.8-11.17,11.37-.13.11-4.99,6.51-2.68,13.99,1.98,6.4,11.51,13.32,11.44,13.79l-1.88,1.97c.08.11-13.49-9.26-13.18-19.35-.02-.38-6.17-.51-6.17-.51l-17.88-18.23,15.15-.07,7.78,6.99,4.86.28c.32.31.49-1.41,4.77-4.93,8.18-6.71,18.31-23.94,18.31-23.94,0,0,10.71,8.29,10.72,8.29-.54-12.45-2.36-25.84-1.25-36.57h0ZM106.22,32.48s-11.13,23.01-17.23,33.84l-8.65-2.73c3.62-10.58.15-30.75-.76-31.25l26.64.14Z"/>
        <path id="path4073-4-2-4" class="cls-1" d="M40.14,31.14v207h117V31.14H40.14ZM121.02,181.28c5.54-5.67,11.03-10.35,16.15-13.75,1.99-1.32,2.59-1.51,3.37-.73,1.27,1.28,2.07,2.39,1.65,3.28-.09.2-.39.54-.39.54l-3.06-1.28.99,3.82c-2.76,1.23-2.71,4.52-.05,6.25l-1.83,4.63,4.25-2.06c.16,1.01,3.2,3.45,5.08,0l3.84,2.06-1.32-5.18c1.26-1.32,2-3.44.01-5.38l.91-4.06-3.47,1.24c-.87-1.31-1.37-1.22-1.57-1.57-.06-.49-.07-1.62-.65-2.67-.48-.87-1.02-1.78-1.53-2.43-.27-.5-.05-.55,1.33-1.37.65-.39,1.19-.78,1.19-.78,0,0,6.79,3.77,9.57,5.2v69.36h-37.25c-4.21-13.84-1.19-25.86-.07-30.89-1.96-.18-12.09-3.79-12.39-5.03,4.01-7.02,9.46-13.39,15.23-19.21h0ZM48.15,201.48c-4.88-1.74-4.93,4.74-2.44,5.24.65.13,1.32.24,2.33-.12.25.06-2.93,5.43-2.93,5.43,0,0,2.54,5.09,3.76,7.25l3.85-7.51-2.51-5.2c3.94,2.21,5.98-4.37,1.84-5.23-1-.15-2.1.4-2.1.4l2.17-22.5c1.75,1.31,4.95,3.94,4.95,3.94.73,12.4.19,22.73,6.49,40.76l.06,12.49h-21.93v-65.45l4.01,2.98c.08.37-.6.12-.23,4.68.33,4.12,1.47,11.26,2.67,22.85h0ZM125.76,33.06c.17.27.16.68.31,1.23.87,3.21,3.92,7.06,6.34,8.07.85.35,1.18.89.69,1.43-.62.68-3.17-1.18-5.06-3.6-1.71-2.2-2.85-4.01-3.11-5.39-.15-.82-.23-1.34-.11-1.77.31-.48.7-.34.95.03h0ZM128.78,32.72c.32,0,.75.41,1.01,1.17.62,1.82,1.6,3.18,3.12,4.35.4.31.57.78.36,1.05-.08.1-.18.15-.29.19-1.19.37-4.32-3.62-4.57-6.1-.05-.54.12-.65.37-.65h0ZM132.68,32.77c.63,0,.94,1.45.57,2.21-.24.24-.76-.13-1.23-1.08-.4-.82-.24-1.12.66-1.13ZM130.56,32.79c.14,0,.43-.09.58.14.24,1.5,1.27,2.59,2.09,3.46.14.28.2.88-.1,1.04-.72.35-2.88-2.36-2.9-3.93,0-.47.13-.7.32-.71h0ZM127.81,33.74c.76,2.74,2.6,4.98,4.24,6.14,1.18.82,1.63,1.29,1.09,1.71-.14.1-.27.18-.3.18-2.76-1.16-6.14-5.55-6.26-8.66.6-.85,1.13.1,1.23.63h0ZM118.27,45.64c-1.45,0-3.22.37-4.67,1.09-2.01,1-2.51,1.67-2.22,1.91.21.17,1.5-.44,2.15-.53,3.49-.95,5.89-1.19,8.17-.09,1.76.84,1.77.46.59-.95-.86-1.02-2.38-1.42-4.03-1.42h0ZM130.58,47.75c1.16-.01,2.34.28,2.75.88.33,1.92-.54,1.04-1.25.66-1.01-.51-2.17-.96-3.26-.78-.7.12-.72.08-.32-.17.6-.4,1.44-.58,2.07-.59h0ZM116.89,48.5c-3.3.28-4.45,2.12-6.58,4.02-.88.73-.68,1.3.39,1.11,1.32-.24,1.85-.18,3.65.5,1.96.74,3.37,1.04,4.45.59,2.04-.86,1.86-.72-1.05,2.39-1.56,1.38-.93,1.31.65.11,1.17-1.03,1.97-1.68,2.21-2.24.12-.27.13-1.25.35-1.25.74,0,.36-1.02-.31-1.45-.44-.35-.34-.71.23-1.38.9-1.04.59-1.51-.38-.86-.17.1-.26-.22-.85-.61-.94-.63-1.74-.92-2.74-.91h0ZM119.28,49.86c.8.74.46.94-1.29.93-1.47-.02-2.73.15-4.47.79-1.99.72-2.11.74-.94-.35,1.6-1.51,4.86-3.02,6.7-1.37ZM129.59,49.23c.8-.02,1.48.11,2.09.48,1.66,1.01,2.03,1.89.18,1.17-1.16-.45-2.73-.38-3.82-.05-1.12.34-1.31.46-1.16-.2.19-.82,1.37-1.36,2.71-1.39ZM116.51,52.2c.39,2.18,1.89,1.46,2.04.15h.55c-.23,1.75-2.39,3.21-3.23-.15.18,0,.96.05.64,0h0ZM128.47,52.24h.41c.27,1.65,1.68,2.2,2.29.11h.49c-.38,3.49-3.72,1.8-3.19-.11h0ZM115.36,52.4c.27.11.39.92.35,1.14-.09.45-1.42-.03-1.7-.46.28-.32.93-.83,1.35-.67ZM133.36,52.77v.61c-.61.16-.86.54-1.44.42.03-.39-.03-.92.3-1.38.42-.24.91.05,1.13.35h0ZM120.03,53.48c-.28.24-.66.27-.66.27-.06-.58-.15-1.24.51-1.24.43.14.4.73.15.98ZM127.66,52.51c.23.02.5.65.54,1.02-.07.61-1.43.37-1.43-.24,0-.26.57-.78.89-.79h0ZM115.2,75.56c-1.05-.58-9.02-5.91-11.06-15.33l-.41.96c.86,2.26,2.14,5.92,2.14,5.92-.05-.32.33,2.46,1.14,7.16-.43,0-.91-.13-1.37-.27-1.05-4.31-1.3-7.68-2.18-11.9l-.38,1.18s1.11,7.56,1.86,10.52c-.43-.04-1.22-.24-1.22-.24-.63-3.19-1.11-5.33-1.7-8.53l-.54.77c.78,2.63,1.08,4.97,1.47,7.49-.53-.09-1.07-.15-1.58-.46,0,0-.8-4.59-.91-4.65-.31.34-.43.78-.43.78-.03-.04.7,2.54.65,3.61-.51-.09-1.4-.37-2.02-.61-.33.24-.5.64-.75,1,.31,1.46,18.59,4.62,17.49,3.41,0,.13,8.06,3.89,12.56.69,0,0,7.83,6.39,10.89,8.95,0,.29,1.06,1.64,2.16,2.51l3.1,2.63c.9.77,1.26.21,1.4-1.24.15-1.62,1.22-12.5,1.47-14.82.93-7.82.93-7.74-.15-7.38-1.65.55-3.13-.16-3.13-2.02,0-1.14.48-2.08,1.58-2.52.31-.12.72-.13,1.19-.12.21.04.61.07.65.08.53-.03-2.03-5.13-2.03-5.13,0,0,2.45-4.8,3.62-6.59l3.17,6.32-2.59,5.57c5.05-.42,4.55,6.57-.39,4.23,0,0-.03,2.08-.02,1.92.05-.59.04-1.1.21-1.21,4.79,2,5.76-5.69.6-5.34.85-1.63,1.8-3.31,2.68-5.11l-3.73-7.49-4.21,7.72,2.12,4.82c-.48-.14-.86-.05-1.37,0-3.12.7-2.45,6.24,1.12,5.48.41-.09,1.02-.43,1.02-.43l-2.3,22.6s-.23.2-1.15-.53c-1.07-.85-3.3-2.69-3.45-2.88.8-14.45-2.48-29.65-6.23-39.17-.24-.73-.1-15.07-.1-15.07h21.45v66.64c-1.11-.77-2.43-1.79-3.57-2.68-.34-.31-.55-.67-.41-1.25-.38.89-.15,1.26-.15,1.26l4.69,4.13-.19,65.53s-7.58-4.3-12.24-6.37c-2.1-.95-2.2-.67-2.2-.67,0,0,1.49,3.67,1.06,4.34,1,1.06,2.69,3.28,2.77,5.46.9.86,1.15.96,1.82,2.19l2.82-1.12-.64,3.23c2.99,2.31.11,5.41-.44,5.13,0,0,1.32,3.12,1.62,4.54-.47-.04-2.84-1.45-3.5-1.79-1.72,3.72-4.62.6-4.64.05l-3.22,1.58,1.14-4.03c-2.07-1.39-3.47-3.49-.12-5.75l-.77-3.15,2.76,1.19s.51-.91.91-1.57c-1.03-4.94-7.81-4.01-9.99-8.45,0,0-.53,5.55-1.08,7.56-.21,5.31-3.59-.06-3.59-5.68,0-1.27,1.45-5.53,1.94-5.74.51-.08,5.35,2.5,8.6-.06,1.48-1.69,4.03-6.46,1.58-13.92-.81-1.72,1.54-1.94,2.31-1.36,0,0,7.07-4.07,10.26-6.03-5.35-3.24-16.49-11.86-16.48-12.27-1.49,2.6-3.19,4.77-5.58,8.44-3.88,5.03-6.91,9.8-11.83,13.82-6.92,5.55-8.54,11.13-6.61,17.68.78,2.83,2.35,5.71,4.93,6.7,1.31,1.46,6.57,6.94,6.57,6.94-8.79,8.81-14.82,16.05-19.05,24.06,3.57,2.07,12.18,5.06,12.18,5.06-3.2,11.7-1.74,21,.37,30.34,0,0-25,.04-37.97-.41-.11.12-1.51.04-1.53-.06-.05-1.04,2.34-3.91,3.05-3.51.36-.39,1.12-.59.98-1.07-1.79-.23-4.51,3.17-4.61,4.58h-1.07c-.22-.21,1.94-5.75,6.26-6.19-.05.2.58-.43.11-.7-5.04.66-7.38,6.81-7.23,6.89h-.78c1.71-6.05,6.17-7.96,8.75-8.22.03-.01.84-.32.62-.85-5.7,1.09-8.55,3.81-9.92,9.08h-1.03c.74-5.34,5.73-10.03,11.38-9.87.18-.12.39-.27.3-.88-6.26.78-9.39,3.08-11.96,9-2.3-6.58-8.7-9.7-8.77-9.73,0,0-.15-1.84.2-1.77,5.46,2.17,7.54-3.04,7.31-6.07-.13-1.69-.04-2.62-.55-5.05-.46-2.17-.79-3.63-.76-4.57.04-.93.3-1.12.93-1.43,1.17-.58,1.9-2.7,1.64-2.96-.6,1.54-2.19,1.8-2.92,2.84-.58.85-.33,2.21.71,6.91.63,2.87-.12,1.55-1.6.65l-.99-.62c.66.75,1.36,1.46,2.04,2.19.6.61.27.98-.6.63-1.25-.69-3.65-.4-4.58.46-.36.28-.49.25-.58,0-.4-7.31.29-11.8,2.49-17.29,1.42-3.73,3.54-6.53,6.36-6.73,2.84-.26,6.93.84,10.64,3.61,4.36,3.26,8.61,8.22,9.06,14.3.02.07.34-.52.48-.83.2-.72-.53-2.9-1.66-5.41-.21-1.89-.8-5.21-1.27-7.46.35-.18,1.11-.08,1.32.21.8,3.71,1.37,6.61,2.05,11.58,0,.49.58-.72.58-1.04-.1-.74-1.98-10.48-1.94-10.26.01-.33,1.79.1,1.54.41,0,0,1.35,8.17,1.45,7.91l.46-.69s-1.29-5.97-1.13-7.12c.11-.18,1.11.18,1.43.37.4.59.65,2.72.82,4.17.46.39.55-.73.52-1.02-.33-.58-.68-2.73-.42-2.85.21-.09,1.35.41,1.57.63.26.25,1.26-1.27,1-1.53-5.4-2.28-12.21-3.61-17.34-3.7-1.19,0-1.66-.18-3.49-.91-4.65-1.85-8.5,0-9.06.58-5.68-4.35-12.02-10.42-17.07-14.29-.24-.17-.8-.28-.87-.28-.8,6.74-1.36,14.54-2.04,20.77-.28,2.46-.31,2.66-.21,2.73.09.06.26-.04.33-.08,1.66-.67,3.16-.24,3.96,1.42.4,2.36-1.48,3.92-3.46,2.8-.73-.42-.84-.33-.51.45.58,1.42,2.25,5.15,2.25,5.15,0,0-2.26,5.07-3.4,6.45-1.11-1.98-2.53-3.98-3.15-6.14.87-1.88,2.53-4.31,3.05-6.17-.07-.06-.52,0-.84.17-2.89,1.5-3.35-1.33-3.31-2.35.08-2.07,1.72-2.51,4.09-1.55-2.57-18.8-3.12-29.51-2.46-28.35,0,0-3.1-2.44-4.65-4.1l.18-136.84h36.83c3.79,11.18,2.74,24.61.48,31.61,4.02.81,8.08,1.85,12.67,4.75-7.75,12.51-19.92,26.03-33.09,34.68-.75.37-3.2-1.31-3.49-2.98-.07-.39.13-1.15.52-1.13.97.35,1.91.82,2.85,1.25,0,0-1.32-3.64-.68-4.19.41-.3.75-.55,1.02-.86.95-1.34.87-2.87-.13-4.04-.4-.47-.87-.79-1.11-.9,0,0,.93-2.84,1.39-4.18l-3.66,1.33c-1.18-1.81-3.36-3.21-4.97-.52-.31.72-.24.61-2.51-.5-1.28-.62-2.07-.95-2.07-.95.48,1.58,1.11,3.06,1.66,4.88-2.52,1.77-1.94,4.75.18,5.64l-1.12,4.03s2.38-.98,3.67-1.36c0,0,1.13,1.25,1.47,2.44.58,2.04,1.88,3.52,2.71,4.36-1.38,1.11-2.06,1.49-3.61,2.31l5.36,2.38c-.33-1.25-1.04-2.17-1.11-3.75-.06-1.35-.13-1.38-.93-2.29-1.46-1.4-1.61-3.06-2.1-4.16-.67-.43-1.1-1.12-1.41-1.85-.35-.81-2.66,1.09-3,.73-.43-.5.74-3.07.61-3.33-.94-.09-3.57-2.35-.44-4.87l-1-4.09s2.39,1.15,3.53,1.79c.79-4.09,4.42-2.13,5.01-.37,0,0,2.87-1.04,2.7-.2-.08.76-.55,2.65-.55,2.65,2.58,2.52,2.05,3.75-.05,5.41-.03,1.34.48,3.41.48,3.41,0,0-1.46-.71-2.42-1.01-.39.42-.82,1.19-.75,1.59.65,3.18,4.22,4.07,9.5,7.32.18-2.06,1.47-4.87,1.62-7.34.09-1.8.15-1.83,1.3-1.25,3.03,2.41,2.1,9.02,1,11.74-.65,1.54-.76,1.5-2.03,1.05-1.76-.62-4.87-.37-6.58.27-2.37,1.07-3.48,6.88-3.51,8.64-.04,1.68.08,3.34.88,5.41.33,1.33-.28,2.35-1.36,1.99-.24-.08-.82-.32-.82-.32l-10.21,5.82,1.92,1.25s-1.42-.93-.54-1.44l8.76-5.03c1.63.7,1.41.84,2.47-.37.63-.72.94-.73,1.79-.64,5.16.55,7.45-.28,8.34-2.66.13-.36.08-.35.61-.64.98-.42,1.44-1.17,1.49-2.12.03-.62.28-.71.71-1.14.8-.81.97-1.83.46-2.88-.24-.49-.42-.65-.32-1.16.17-.86-.12-1.75-.87-2.69-.86-1.09-.85-.9.76-2.56,3.18-3.33,5.98-5.87,9.07-8.88,2.11-2.06,1.89-1.91,2.71-.97,3.03,3.47,4.22,8.88,2.85,13.63-.06.22-.09.2.07,0,.86-1.07.88-6.45.15-8.84-.89-2.93-1.76-4.46-4.71-7.33-1.84-1.83-6.86-7.12-6.86-7.12,7.3-6.97,15.16-15.63,19.57-23.6-2.26-2.67-12.75-5.13-12.75-5.13,1.31-2.98,3.89-16.38-.53-31.23,12.98.66,26.05-.39,39.02.58,0,0,.2-.09.31-.12.36-.1.54.18.45.62-.28,1.13-1.79,3.79-2.85,3.57-.48-.2-.34.8-.55,1.22,1.68-.24,3.65-2.58,4.15-4.91.27-.49.45-.57.72-.48.31.11.23.43-.1,1.56-1.05,2.81-3.19,5.42-5.67,5.16l-.32.96c3.35-.06,5.93-3.51,6.7-6.1.53-1.54.55-1.74,1.09-1.6.44.45.17,1.1.02,1.64-1.68,5.92-6.3,7.5-8.6,7.24-.28-.04-.33.25-.24.74,4.94.36,8.88-4.33,9.44-8.35.27-1.12.74-1.5,1.01-.99.15.45.1.91.03,1.34-1.35,6.35-7.5,9.96-11.26,8.93-.17-.18-.46.7-.05,1.01,7.59-.32,9.93-4.62,11.66-8.43,2.06,3.43,3.75,6.96,8.7,9.04,0,0,.49,1.2.1,1.46-.2.14-.52.08-.97,0-6.03-1.07-8.02,5.13-5.46,14.4.7,2.54.39,2.15-1.11,3.74-.72.76-1.06,2.1-.87,2.13.26-.16.34-.59.97-1.17.27-.25.83-.49,1.25-.8,1.11-.71,1.11-1.2.7-2.88-.3-1.25-1.06-5.06-1.06-5.44,0-.73.16-.65.98,0,1.16.94,1.81.88.41-.33-.54-.47-.89-.83-1.06-1.1-.22-.36-.08-.59.37-.43,2.08.72,3.86.66,5.88-.69.23,6.11-.53,15.39-5.19,22.02-3.57,4.41-10.4,1.07-12.93-.32h0ZM120.67,61.51c-.14,0-.64.12-.94.31-1.37.86-1.04,3.93.45,4.34.6.16,1.15.25,2.16-.28.6-.32,1.44-.56,1.68-.45.5.23.65-.25.76-.8.24-1.22-1.58-1.25-3.02.01-1.82,1.59-3.22-.76-1.5-2.52.57-.41.56-.62.42-.61h0ZM106.51,68.07l1.53,1.95.96,4.64c-.58.11-1.29-.25-1.29-.25-.48-2.1-.94-4.2-1.2-6.34ZM127.35,69.23s-.03,0-.05.02c-.06.03-.35.17-.74.22-.23.03-.57-.15-.82-.13-.67.05-1.3.26-1.46.34-.21.09-.41.13-.58.02-.5-.32-1.96-.23-2.4.05-.52.25-1.11.25-1.54,0-.19-.11-.37-.37-.41-.34-.07.08-.35,1.39-.43,1.9,0,.18-.11.48-.05.51.09.04.36-.24.7-.43.7-.39,1.47-.36,2.84,0,1.68.45,2.34.32,3.33-.24.79-.44,1.27-.55,1.8-.39.13.04.48.24.52.19.09-.1-.16-.65-.38-1.19-.16-.39-.22-.55-.33-.53h0ZM109.18,71.33c1.48,1.54,1.37,1.41,2.3,2.17l-.05,1.49s-1.14.03-1.71-.16c-.18-.58-.95-3.48-.55-3.5h0ZM121.35,72.33c.1.08.25.16.45.23,2.36.97-.11.73-.34,1.65,0,.08.11.1.22.05.81-.35,2.78-.58,3.68-.38,1.17.43,1.24.13.12-.51-.82-.36.17-.6.51-.91.7-.49.22-.7-.67-.23-.89.47-2.46.46-3.18.02-.32-.18-.63-.34-.77-.35-.3-.01-.14.33,0,.44h0ZM112.08,73.99l1.38,1.19-1.41-.15.03-1.04ZM80.86,103.81c-.28,0-.51.25-.51.56s.23.56.51.56.51-.25.51-.56-.23-.56-.51-.56ZM82.7,104.37l-6.32,3.31,1.67.62v1.9s1.53-.54,1.53-.54l.65,1.78,2.47-7.06ZM82.98,105.92c-.28,0-.51.25-.51.56s.23.56.51.56.51-.25.51-.56-.23-.56-.51-.56ZM74.96,109.31c-.28,0-.51.25-.51.55s.23.56.51.56.51-.25.51-.56-.23-.55-.51-.55ZM76.9,110.34l-7.1,3.59,2.1.7-.56,2.38,1.71-.79.96,1.6,2.88-7.49ZM77.11,112.05c-.28,0-.51.25-.51.56s.23.56.51.56.5-.25.5-.56-.22-.56-.5-.56ZM63.03,112.41c2.67,0,5.66,1.11,6.68,3.63.27,1.26-.85,2.01-3.25,1.28-3.96-1.2-4.7-1.33-4.04-.59.09.1.26.34.85.56,1.49.56,4.38,1.21,5.16,1.12,1.06-.16,1.8.39,1.54,1.37-.3,1.11-1.68,1.56-3.76,1.24-2.15-.33-3.34-.61-4.05-.85-.92-.31-.95-.28-.52.43.23.37.25.67.58.74,1.42-.09,2.94.21,4.24.35,2.34.23,2.71.96.99,2.08-.82.53-3.26.38-4.64-.17-.99-.39-3.26-.95-2.39-.19.21.18.14.63.51.77,1.2.18,4.6.44,5.13.97.34.34-.43,1.21-2.01,1.66-2.39.5-5.96.29-6.9-.42-1.75-3.91-.81-10.32,1.93-12.82.87-.75,2.36-1.16,3.96-1.16h0ZM78.68,114.45c-.28,0-.5.25-.5.56s.22.55.5.55.51-.25.51-.55-.23-.56-.51-.56ZM80.79,115.04l-7.33,4.02,1.85.61-.44,2.35,1.72-.78,1.04,1.58,3.16-7.77ZM80.85,117.01c-.28,0-.51.25-.51.56s.23.56.51.56.51-.25.51-.56-.23-.56-.51-.56ZM85.11,121.75c-3.25,3.48-6.91,6.24-10.26,9.62l.72-.03,1.82-1.81,51.34-.18-1.2,1.93.5.24s1.54-2.51,1.43-2.62c-11.28.04-19.99,0-32.36.1-2.25-2.46-4.64-4.76-6.99-7.1l-5.01-.15ZM69.5,123.98c-.28,0-.51.25-.51.56s.23.56.51.56.5-.25.5-.56-.22-.56-.5-.56ZM136.52,124.4c4.43,3.62,9.69,8.07,14.05,10.71,1.75.84,1.58,1.12-.2,2.04-1.74,1.19-4.65,2.73-7.07,4.08-1.05.44-1.51-.13-2.25.02-.54.15-.69.26-1.01.73-.52.76-.38.74-3.19.6-2.83-.14-4-.07-4.6.27-.58.33-1.59,1.45-1.59,1.92s-.32,1.02-.9,1.22c-.68.18-1.46.77-1.43,1.69-.18.69-.57,1-.91,1.38-.81.9-.73,1.6-.49,2.43.11.37.27.29.19,1.39-.19,2.52-.35,2.31,2.1,4.18l-12.53,12.02c-.29.25-.38.23-.64.03-1.53-1.25-2.59-3.31-3.2-5.38-2.12-6.42.47-11.7,3.9-14.93,1.19-1.12,2.79-2.45,3.24-2.79,6.47-6.08,12.1-14.68,16.53-21.59h0ZM71.37,124.87l-7.16,3.72,2.31.43-.44,2.2,1.67-.7.88,1.85,2.74-7.5ZM71.81,126.61c-.28,0-.51.25-.51.56s.23.55.51.55.5-.25.5-.55-.22-.56-.5-.56ZM137.46,129.06l-.81-2.12s-2.26,6.14-2.74,8.22c1.92-1.09,7.53-4.24,7.53-4.24l-2.4-.49.27-2.4-1.85,1.03ZM55.62,129.44c-.28,0-.51.25-.51.56s.23.56.51.56.51-.25.51-.56-.23-.56-.51-.56ZM57.82,129.94s-5.33,2.75-7.74,3.94l2.25.52-.39,2.41,2.03-.87.82,2.38,3.04-8.37ZM58.1,131.76c-.28,0-.51.25-.51.56s.23.55.51.55.51-.25.51-.55-.23-.56-.51-.56ZM133.55,132.16c-.28,0-.51.25-.51.55s.23.56.51.56.5-.25.5-.56-.22-.55-.5-.55ZM142.26,132.66l-2.54,7.76,6.86-3.8-1.86-.56v-1.92s-1.52.49-1.52.49l-.94-1.97ZM61.16,134.53c-.28,0-.51.25-.51.56s.23.56.51.56.51-.25.51-.56-.23-.56-.51-.56ZM136.22,134.67c-.28,0-.5.25-.5.56s.22.55.5.55.51-.25.51-.55-.23-.56-.51-.56ZM63.26,135.24l-7.27,3.91,2.26.58-.25,2.5,1.84-1.15,1,2.28,2.43-8.12ZM63.72,136.89c-.28,0-.48.25-.48.56s.23.55.51.55.5-.25.5-.55-.25-.56-.53-.56ZM139.34,137.38c-.28,0-.51.25-.51.56s.23.55.51.55.51-.25.51-.55-.23-.56-.51-.56ZM129.32,139.94l-.68-2.09-2.69,7.67,7.24-3.65-2.3-.59.04-2-1.61.67ZM121.97,138.29c-.08,0-.16.02-.16.08,0,.18-1.85,2.17-1.85,2.17l-21.35.22s1.78.53,1.78.53c2.8,2.46,7.19,6.84,7.19,6.84l5.3-.23c2.94-3.17,7.35-5.59,9.31-9.51-.05-.05-.14-.09-.22-.09h0ZM141.98,139.87c-.28,0-.51.25-.51.56s.23.55.51.55.5-.25.5-.55-.22-.56-.5-.56ZM125.5,142.54c-.28,0-.5.25-.5.55s.22.56.5.56.51-.25.51-.56-.23-.55-.51-.55ZM136.34,143.34c1.53,0,3.01.05,3.39.37,2.37,2.19,1.24,12.45-1.74,13.74-3.27.81-5.54.96-8.38-1.1-.81-.43-2.4-1.74-2.09-2.82.43-1.33,1.6-1.23,4.95-.08,1.22.42,1.9.34,2.21.07.29-.25-.09-.52-.72-.52-.25,0-1.34-.3-2.24-.6-1.28-.43-1.64-.56-2.47-.61-1.39-.09-1.79-.15-1.79-1.09,0-1.75,2.21-1.98,6.26-.95.49.12,1.36.26,1.58.25.16.07-.31-.58-.39-.96-.15-.14-.41-.2-1.1-.23-2.61-.28-4.78-.48-4.82-.85-.23-1.85,3.15-2.35,6.65-.87.9.38.92.22.91-.06-.01-.53-1.52-1.46-3.74-1.44-2.16.02-1.86-1.18-.08-2.09.61-.31,2.08-.14,3.61-.15h0ZM127.99,145.33c-.28,0-.5.25-.5.56s.22.56.5.56.51-.25.51-.56-.23-.56-.51-.56ZM120.21,149.16l-.46-2.07-2.94,8.06,7.42-4.16-2.45-.51.21-1.7-1.79.37ZM116.43,152.4c-.28,0-.51.25-.51.56s.23.56.51.56.5-.25.5-.56-.22-.56-.5-.56ZM123.82,154.68l-.62-1.96-2.5,7.02,6.33-3.11-1.87-.56.27-2.13-1.61.74ZM118.78,154.7c-.28,0-.51.25-.51.56s.23.56.51.56.5-.25.5-.56-.22-.56-.5-.56ZM120.4,157.38c-.28,0-.51.25-.51.55s.23.56.51.56.5-.25.5-.56-.22-.55-.5-.55ZM117.22,159.03l-2.14,6.65,5.95-3.17-1.74-.63s.1-1.49-.07-1.43c-.1.04-1.22.39-1.22.39l-.78-1.81ZM122.52,159.82c-.28,0-.51.25-.51.55s.23.56.51.56.51-.25.51-.56-.23-.55-.51-.55ZM114.63,163.02c-.28,0-.51.25-.51.56s.23.56.51.56.51-.25.51-.56-.23-.56-.51-.56ZM116.9,165.59c-.28,0-.51.25-.51.55s.23.56.51.56.51-.25.51-.56-.23-.55-.51-.55ZM85.52,196.19c-.27.04-.98-.67-1.12-1,.4-.11.82-.03,1.05.18.19.2.32.7.07.82ZM87.68,195.71c-.1.81.36,2.28.27,2.63-.23.13-1.42-1.27-1.71-1.61-.06-.46,0-1.05.03-1.32.41-.08,1.13-.05,1.41.3h0ZM89.81,196.12c.25,1.8.97,4.69.86,5.67-.11-.09-1.02-1.08-1.69-2.13-.24-.63-.61-2.82-.57-3.87.45-.07,1.06.01,1.41.34ZM75.53,195.92c-.73.41-1.56.7-2.59.7-.83,0-2.27-.48-2.12-.36.38.75,1.37.36,1.39.84-.25.48-.9.44-1.23.9-.07.12.1.23.56.17,1.41-.7,3.25-.69,4.93-.08.35.08.12-.29,0-.39-.22-.18-.58-.36-.88-.4-1.47-.29-.82-.45.16-.93.72-.29.9-1-.21-.44h0ZM78.71,198.2c-.2.02-.68.29-1.22.53-.91.4-1.74.31-2.96-.06-1.06-.32-1.44-.23-2.5.35-.7.49-1.46.63-2.02.29-.72-.45-.71-.3-.36.81.09.28-.09,1.12.23,1.31.24.15.51-.34.7-.41.18-.07,1.34.5,1.98-.13,1.15-.46,1.49.29,2.29.21,1.29-.5,2.1-1.02,3.21-.06.07-.36.32-2.34.74-2.81-.01-.03-.04-.04-.09-.03h0ZM76.36,203.9c-.93.01-1.43.64-2.63.52-.96-.07-1.29.86-.88,1.54.29.48.67.57,1.97-.09.54-.27,1.28-.87,1.72-.82,1.28.14,1.59,1.5.52,2.65-.52.34-.52.7-.36.71.42.02,1.27-.54,1.46-1.18.53-1.76-.42-3.36-1.8-3.33h0ZM80.53,212.04c-1.21.28-2.95,1.81-3.55,2.8-.55.96-1.09,2.05-.7,2.59.32.44.76.87.8,1.11.03.21-.23.42-.47.72-1.06,1.31-.81,1.38.68.53.75-.43,1.11-.6,1.6-.46,1.44.41,3.22.12,4.44-.37.55-.22,1.09-.52,1.13-.37-2.22,2.69-4.98,2.01-5.97,1.85-.17-.05-.3-.04-.3.03,0,.13.29.41.9.71,1.02.5,3.47-.03,5-1.26,3.03-2.18,4.7-4.26,2.31-3.39-1.09.4-1.5.33-2.83-.33-1.99-.99-3.52-1.28-5.17-.65-2.09.8-.49-1.09,1.86-2.74.51-.36.57-.76.27-.76h0ZM69.26,217.7h-.7c-.5-1.84-1.7-1.83-2.23.02l-.58-.05c.57-2.3,2.73-2.78,3.5.02h0ZM81.65,217.86l-.52.03c-.32-1.12-1.44-2.1-2.23-.27l-.36-.08c.64-2.93,3.21-1.3,3.11.33h0ZM78.16,216.17c.33,0,.41.41.04,1.07-.26.47-.57.42-.88.07-.28-.31-.26-.36.04-.67.33-.33.61-.47.8-.47ZM82.02,216.18c.14,0,.41.12.71.24.79.3.98.54.65.9-.32.35-.93.46-1.21.26-.01-.44-.41-.78-.42-1.22,0-.12.13-.17.27-.17ZM69.57,216.2c.55-.03,1.29.33,1.24.68-.06.38-.6.63-1.05.67-.3.04-.29-.09-.37-.33-.07-.21-.16-.48-.21-.69-.12-.4.11-.33.39-.35h0ZM65.8,216.33s-.31,1.01-.45,1.36c-1.15-.07-1.04-.63-.5-1.03.29-.25.59-.25.95-.32ZM64.91,218.74c.21,0,.47.2.83.33,1.02.36,2.72.32,4.04-.02.63-.16.93-.38,1.07-.27.25.2,0,.89-.92,1.33-1.19.48-3.01.75-4.39-.03-1.18-.66-1.31-1.37-.63-1.35h0ZM64.59,220.18c1.08.79,2.16,1.03,3.5.9,2-.08,2.36-.35.67.63-1.56.91-3.96.74-4.42-.24-.27-.56-.09-1.24.25-1.28ZM74.28,221.5s-.01,0-.02,0c.16,1.19,1.97,2.28,2.84,2.53,1.85.9,4.78,0,6.99-1.04,1.61-.77,2.19-1.92.27-1.26-3.09,1.06-6.97,1.14-8.91.32-.63-.33-1.06-.55-1.17-.55h0ZM64.11,225.95c3.87.96,8.54,7.53,8.53,10.4h-1.25c-1.9-7.31-6.84-8.89-7.32-9.32-.22-.9.06-1.1.05-1.08h0ZM64.05,227.8c4.6,2.22,6.23,6.17,6.92,8.55h-1.34c-1-3.27-2.8-5.61-5.59-7.06-.19-.46.01-1.49.01-1.49h0ZM64.04,230.04c2.36.76,4.43,4.18,5.02,6.31h-1.18c-.83-2.39-2.01-3.91-3.89-4.79-.08-.45-.06-.96.05-1.52h0ZM64.01,232.36c1.11.25,2.98,2.14,3.25,3.99h-1.08c-.38-1.25-1.56-2.39-2.16-2.86,0-.23,0-1.13,0-1.13ZM64.12,234.34c.12-.08,1.77,1.56,1.49,2.01h-1.49c-.02-.51-.03-2.02,0-2.01h0Z"/>
        <path id="path4071-9-6-8" class="cls-2" d="M106.25,32.8c-2.8,5.98-17.19,32.91-17.33,33.84l3.68,1.79,17.88-35.5s-3.71-.13-4.23-.14ZM148.56,55.33l-1.56,2.44,1.26,2.79,1.53-2.66-1.24-2.57ZM82.76,82.3s-5.16,5.64-7.17,8.27c4.33,4.76,12.62,10.74,12.68,19.93l5.71.02,18.48,18.2s16.74.13,17.05.05c.34-.09,6.28-9.46,6.28-9.46l10.61,8.51s-.51-9.17-.91-14.79c-.13-3.76-.24-6.07,2.25-7.73-3.43-1.8-3.21-5.11-.69-7.54-.83-1.27-2.07-1.5-2.26-5.99-.52-.62-1.02-.98-1.68-1.51l-.68.67c-2.2,2.18-3.7,4.39-3.95,5.84-.47,2.75,2.07,4.63,3.53,2.62.41-.57.78-.41.78.33,0,1.5-1.71,2.35-3.16,1.57-.34-.18-.64-.3-.67-.27-.05.06,1.44,4.08,1.84,4.96.67,1.47,1.02,2.96,1.07,4.51.06,1.66.03,1.87-.68,4.73-.66,2.69-.35,4.3.83,4.3.67,0,.65.71-.03.96-1.43.55-2.32-.61-2.37-3.09-.03-1.51-.05-1.54-.76-1.18-2.45,1.27-5.11-1-3.95-3.37.24-.5.53-.34.68.37.28,1.33.92,1.92,2.06,1.92,2.64-.01,3.75-4.12,2.22-8.26-.31-.83-.46-.78-.86.27-.63,1.65-1.69,2.13-2.56,1.17-.29-.32-.43-.84-.24-.87.05,0,.34-.02.64-.03,1.54-.05,2.07-1.7,1.35-4.17-.63-2.17-.73-2.57-.92-3.74-.29-1.82-.09-3.2.73-4.97.14-.31,1.05-1.42,2.17-2.67,1.15-1.27,2.13-2.25,2.13-2.25-1.09-1-2.08-1.8-3.31-2.8,0,0-7.87,23.78-7.31,33.04-1,12.21-9.15,8.83-9.75.38l-39.2-37.95ZM82.41,85.87c2.69-.05,4.46,3.86,5.47,11.99.34,2.69,1.83,6.46,2.91,7.35,2.73,2.25,7,.52,7-2.84,0-4.18-5.33-4.8-5.41-.63-.02.98-.48,1.03-.92.1-.39-.83-.04-2.39.72-3.18.49-.5.45-.6-.48-1.17-3.24-1.97-4.62-4.91-2.89-6.16.76-.55,1.79.14,1.32.88-.74,1.15-.75,1.33-.13,2.29.71,1.08,1.54,1.63,3.53,2.27,1.67.54,1.94.64,2.71,1.03,2.25,1.13,3.28,3.62,2.49,6.03-.19.57-.37,1.13-.4,1.25-.08.27.05.27,1.64.03,2.52-.37,5.32.62,6.7,2.37.74.94,1.34,3.06,1.36,4.82,0,.34.1,1.11.21,1.71s.27,1.61.34,2.25c.66,6.04,5.23,9.13,7.2,4.87,1.24-2.68-1.63-5.36-3.09-2.89-.51.87-1.04.47-.75-.56.57-2.01,2.85-2.35,4.4-.66.84.91,1.24,2.99.83,4.3-.21.69-.19.73.27.56,1.04-.4,2.84-.01,3.49.75,1.52,1.79,1.22,3.95-.66,4.65-.85.31-1.82-.01-2.13-1.11-.14-.78.35-1.01.73-.34.71,1.26,2.25.24,1.89-1.25-.41-1.7-1.73-2.06-4.16-1.14-3.86,1.46-5.11,1.34-6.96-.68-1.32-1.44-1.82-2.69-2.17-5.45-.39-3.04-.43-3.12-1.11-2.48-3.27,3.06-7.59-1.57-4.82-4.61.86-.94,1.49-.12.72.93-1.13,1.54.34,3.68,2.18,3.18,3.35-.91,2.66-6.3-.96-7.56-1.1-.38-4.14-.22-6.47.34-6.51,1.57-9.39-1.49-10.73-11.4-.16-1.16-.34-2.01-.96-4.51-.73-2.96-3.23-4.57-4.59-2.96-1.09,1.28-.51,3.01,1,3.02,1.51,0,1.04,1.14-.53,1.3-2.73.27-3.2-4.73-.58-6.16.64-.35,1.23-.53,1.79-.54h0ZM46.8,87.66l.89,3.6,3.37,1.05-1.07-3.38-3.19-1.27ZM55.49,88.77l-.9,3.22,2.51-.96.88-3.08-2.48.83ZM83.19,94.04c.54,0,.97.48.97,1.07,0,.59-.43,1.07-.97,1.07s-.97-.48-.97-1.07c0-.59.43-1.07.97-1.07ZM50.99,95.91l-2.93,1.07-.51,2.55,2.69-.66.75-2.96ZM57.1,97.06l-2.1-.71.5,2.63,2.3,1.03-.69-2.96ZM151.24,96.56l-1.4,1.2c4.07,3.89-.32,7.64-.46,7.39,2.94,2.14,2.42,5.52,2.03,8.62-.7,5.52-.97,10.74-1.73,16.4,0,0,3.54,2.69,5.9,3.73.04,0,.01-33.19.01-33.19l-4.37-4.14ZM101.05,101.56c.54,0,.97.48.97,1.07s-.43,1.07-.97,1.07-.97-.48-.97-1.07c0-.59.43-1.07.97-1.07ZM41.59,104.29l.12,30.98,5.82-11.47-4.01-5.09,3.46-4.07c-2.04-3.32-3.71-6.84-5.4-10.35ZM98.3,109.01c.54,0,.97.48.97,1.07s-.43,1.07-.97,1.07-.97-.48-.97-1.07c0-.59.43-1.07.97-1.07ZM111.52,112.18c.54,0,.97.48.97,1.07,0,.59-.43,1.07-.97,1.07s-.97-.48-.97-1.07.43-1.07.97-1.07ZM149.39,146.69l4.28,4.83-3.39,4.58,5.31,9.83-.08-30.41-6.11,11.17ZM41.54,136.51l.2,33.32,4.57,3.67,1.16-1.21c-2.95-3.47-1.19-6.05,1.04-7.55-3.93-1.01-2.73-6.74-2.5-9.4-.1-4.93,1.55-10.56,1.04-15.3l-5.51-3.54ZM67.88,141.14l-6.56,10.06s-7.2-6.01-10.84-8.72c.39,4.34.74,9.88,1.23,14.54,1.18,6.82-1.89,6.93-1.92,7.59,4.87,4.07.78,7.88.05,7.69,2.6,1.56,2.38,6.28,2.38,6.28l1.23.77s.4-.27.57-.37c1.32-.78,3.46-3.56,3.95-5.39.83-3.11-1.62-5.69-3.16-3.33-.76,1.16-1.36.38-.74-.95.57-1.22,2.05-1.83,3.03-1.25.57.34.44-.54-.44-2.99-.3-.82-.54-1.72-.95-3.53-.4-1.76-.25-3.88.45-6.03,1.01-3.11.65-5.06-.97-5.23-.86-.09-.96-.39-.25-.83,1.57-.98,3.09.41,3.03,2.78-.03,1.28-.02,1.3.59,1.03,3.1-1.37,5.55,2.17,3.38,4.89-.66.83-1.08.3-.64-.81.67-1.72.03-2.95-1.54-2.96-2.29-.02-3.55,3.46-2.65,7.28.28,1.19.32,1.21,1.08.41.67-.71,1.18-.93,1.7-.76,1.08.36,1.37,1.62.33,1.47-1.78-.27-2.25,1.78-1.24,5.44,1.34,4.85-.02,8.8-3.97,11.61-.2.14-.52.42-.52.42,1.53,1.5,2.5,2.35,4.52,3.7l7.2-32.02s-.12-1.82-.3-2.68c0-8.59,7.28-9.42,9.56-1.61.22.75,1.38,2.66,1.38,2.66l37.92,37.05s7.08-7.53,6.98-7.73c-5.38-5.97-12.64-10.19-12.9-19.66-1.29-.04-5.6.05-5.6.05l-18.44-18.62c-5.79.04-10.92-.42-16.92-.22h0ZM78.21,141.84c1.01-.04,2.03.54,2.03,1.47,0,.8-.49.99-.89.34-.57-.91-1.22-.98-1.89-.21-1.85,2.14,1.02,4.1,4.33,2.95,2.02-.7,3.01-.9,3.75-.73,3.12.69,4.63,3.01,4.9,7.53.14,2.3.13,2.29,1.03,1.38,2.2-2.22,5.37-.98,5.87,2.28.21,1.4-1.16,3.17-2.46,3.17-.51,0-.43-.59.12-.88,1.32-.7,1.38-2.99.09-3.89-1.71-1.19-3.96.67-3.93,3.25.03,3.1,2.14,4.53,6.3,4.27.61-.04,2.14-.12,3.39-.18,1.99-.09,4.12-.51,6.14,1.18,2.12,1.86,3.53,5.54,4.13,10.87.95,6.56,1.68,8.32,3.68,8.48,1.19.09,2.19-1.02,2.19-2.31,0-.91-1.1-1.72-1.93-1.41-1,.36-1.21-.83-.22-1.29,1.37-.63,3.04.58,3.41,2.48.22,1.1-.92,3.22-2.1,3.75-3.1,1.38-5.3-1.44-6.03-7.74-.44-2.89-.69-4.84-1.51-7.31-1.5-4.55-3.97-6.43-6.66-5.07-3.05,1.54-2.44,6.56.79,6.52,1.77.15,2.14-1.28,2.18-2.82.04-1.13,1.21-.07,1.31.71.1.95-.67,2.12-1.35,2.67-1.1.81-.71.76.42,1.08,3.02.61,5.27,5.01,3.46,6.51-.94.63-1.94-.3-1.28-1.21,1.03-1.45-.72-3.74-3.9-4.5-4.17-1.01-5.83-4.43-4.33-7.94.5-1.16.54-1.14-1.49-1.01-4.48.28-6.07-.4-7.57-3.26-.45-.86-.65-2.02-.75-4.31-.17-4.1-.51-6.64-.98-7.36-2.33-3.54-7.16-2.48-6.56,1.44.32,2.06,2.25,2.72,3.57,1.22,1-1.13,1.46-.08.49,1.1-2.34,2.85-6.41-.48-5.2-4.25.28-.86.31-.84-1.19-.88-3.34-.11-4.93-3.25-2.77-5.49.38-.39.9-.58,1.43-.6h0ZM86.27,155.34c.54,0,.97.48.97,1.07s-.43,1.07-.97,1.07-.97-.48-.97-1.07.43-1.07.97-1.07ZM99.69,159.13c.54,0,.97.48.97,1.07s-.43,1.07-.97,1.07-.97-.48-.97-1.07.43-1.07.97-1.07ZM96.8,166.09c.54,0,.97.48.97,1.07s-.43,1.07-.97,1.07-.97-.48-.97-1.07.43-1.07.97-1.07ZM139.45,170.23l.61,3.15,2.22.64-.35-2.7-2.49-1.1ZM147.23,171.32l-.05,1.87,1.98.26.7-3.22-2.63,1.1ZM114.03,174.15c.54,0,.97.48.97,1.07s-.43,1.07-.97,1.07-.97-.48-.97-1.07.43-1.07.97-1.07ZM142.43,178.49l-2.32.71-1.12,3.55,2.98-1.19.47-3.08ZM146.97,178.81l.28,2.63,2.86,1.43-.97-3.75-2.18-.3ZM104.76,201.26l-17.78,35.39,4.86-.07,16.78-33.37-3.86-1.95ZM48.84,209.83l-1.57,2.33,1.49,2.7,1.71-2.71-1.63-2.32Z"/>
        <path id="path4069-2-6-0" class="cls-3" d="M79.05,31.91c3.27,10.93,3.58,21.7.74,32.05,1.62.09,8.68,2.08,12.57,4.73-.72,2.04-11.74,16.96-19.22,23.68,2.13,2.32,4.47,4.64,6.93,7.19,3.72,3.89,5.03,6.56,5.28,11.61-.03,2.44-.83,5.44-2.23,7.57-1.06,1.61-2.2,2.84-4.46,4.5-2.09,1.53-5.15,4.81-8.99,9.65-1.47,1.85-3.94,5.21-5.99,8.41-.78,1.16-3.06,4.8-3.06,4.8-7.61-6.84-15.77-12.12-15.98-12.08,0,0,8.23-4.83,9.96-5.81,1.33.94,3.13.14,2.27-1.93-1.67-4.7-.5-9.54,1.54-12.92.49-.81,1.67-1.29,3.58-1.44.83-.06,1.7-.03,2.58-.04.32,0,1.17.13,1.64.42,1.56.93,1.87-.27,2.84-4.32.97-4.03-.59-9.12-2.8-9.14-.52,0-.81.21-.71,1.64.08,1.08-.16,1.64-.41,2.32-.55,1.49-.85,2.95-1.02,4.89.32.07-2.06-2.61-5.8-3.67-2.44-.32-3.67-3.66-3.57-3.66,0,0,.36-.9.68-1.26.83.44,1.65.95,2.64,1.27,0,0-.23-1.34-.31-1.7-.45-1.87-.43-2.15.22-2.54,1.62-.96,1.79-2.68.53-4.24-.32-.4-.59-.66-1.02-.86l.8-3.5s-.73.17-1.32.37c-1.69.57-1.57.59-2.29-.32-1.57-1.97-3.97-1.6-4.33.68-.04.25-.15.65-.15.65l-3.61-1.93c.11.93,1.04,4.09,1.04,4.09-3.16,2.7-.49,5.1.37,5.35,0,0-.74,2.59-.99,3.66l3.57-1.12c.3.75.67,1.32,1.41,1.84.19,2.21,1.74,3.99,2.8,5.06,0,0,.15.81.06,1.32-.23,1.28.96,3.32,1.16,3.44-4.89-2.2-10-4.85-14.92-7.45l.31,66.65s1.15,1.13,3.42,2.93q1.09.86.86,1.86c-.3,1.31-.23,2.31.79,10.93.54,4.56,1.12,9.29,1.65,13.53.21,1.54.24,2.54.24,2.54-1.09-.55-2.67-.61-3.49.4-1.41,1.77-.28,4.62,1.81,4.56.48-.03.8-.18,1.21-.49.28-.17.58-.02.58-.02l-3.12,6.04,3.59,6.66,3.58-7.12-2.61-5.63s.25-.03.61.16c.35.19.82.34,1.15.36,1.82.02,2.19-.9,2.38-2.54,0-2.11-1.53-3.07-3.63-2.27-.33.13-.7.16-.7.16l2.21-23.25,1.18.96.39-.23-1.03-.97c.22-3.72-.89-5.04-2.1-5.95,4.03-2.52,2.28-6.52-.4-7.74,0,0,1.74-1.12,2.09-2.3.3-1.05.19-2.72-.15-5.67-.25-4.56-1.14-13.97-1.14-13.97,3.52,2.92,7.14,6.05,10.54,9.01l6.81-10.43,16.43.13s12.48,12.48,18.77,18.84l5.42.05s.06.64.11,1.06c.51,6.16,4.27,10.39,7.69,13.36,1.39,1.38,4.84,5,4.84,5l-6.38,7.08-39.08-38.44s-.19-.56-.26-.9c-.9-4.07-3.35-5.78-5.58-5.49-2.34.3-4.33,2.84-4.23,7.15.02.67.24,1.84.24,1.84l-7.14,32.75s-2.86-2.4-4.4-3.55l-.34.22,4.18,3.46.31-.15,1.19,1.02.09.7c3.66,2.74,9.86,7.85,9.86,7.85,2.93-2.39,6-1.59,9.08-.69,0,0,2.24.82,3.43.82,6.05.15,11.42,1.44,17.04,3.68l-20.51,40.04,39.08.09c-1.93-8.38-3.97-16.89-.31-31.19-3.85-.86-12.42-4.63-12.42-4.63,0,0-.04-.21.32-.7,1.58-2.49,5.59-9.25,9.34-13.16.46-.36,7-7.35,7.06-7.57.04-.12.19-.6.45-.78.6-.44,2.21-2.11,2.21-2.11l-8.19-7.82s-.36-.04-.48-.11c-1.14-.7-3.21-4.63-3.72-7.26-1.17-6.05.99-10.83,7.08-15.74,5.95-4.48,17.23-21.89,17.26-22.27,6.08,5.54,10.83,8.41,16.18,12.05-3.23,2.04-5.87,3.41-8.13,4.76-1.47.92-1.67,1.11-2.91.73-1.4.01-1.89.61-1.53,1.94,2.13,3.7,1.21,12.31-1.66,13.97-2.5,1.44-4.92,1.05-6.93.23-1.55-.55-1.53-.55-2.22.99-1.52,3.56-1.62,6.56-.21,9.97,1.15,2.74,2.86,3.99,3.07.29.12-2.17.99-4.71.96-7.04,1.74,2.12,2.9,3.09,5.76,3.95,1.92.33,3.96,2.98,3.89,4.06-.53.59-.69,1.33-.77,1.28-.93-.34-2.96-1.28-2.96-1.28l.86,3.35s-.14.15-.56.38c-1.9,1.07-1.78,3.96.22,5.12.41.24.44.35.26.96-.25,1.37-.79,2.3-1.09,3.66,0,0,.27.01,2.55-1.15l.9-.46.54.64c1.18,1.39,2.6,1.38,3.84-.02l.57-.64,1.58.88c1.49.83,1.89,1.01,1.89,1.01,0,0-.86-3.68-1.02-4.1-.09-.23-.26-.46-.39-.51-.21-.09-.18-.14.39-.64,1.44-1.25,1.58-2.98.36-4.3-.47-.5-.53-.61-.53-.61l.74-3.41-3.08,1.12c-.49-1.14-1.26-1.66-1.75-1.89-.05-1.54-.23-3.12-2.63-5.52.81-.81-.15-2.77-.95-3.95,1.35.5,4.73,2.07,4.73,2.07l.51-.02,1.61.85.19.32s5.07,2.64,7.4,3.87c0-.14-.02-2.9-.03-33.27,0-18.11.02-33-.01-33.1-.03-.1-.59-.57-1.17-1.05-1.07-.89-1.29-1.06-2.64-2.06-1.09-.8-1.01-.79-.79-1.71.26-1.06.25-2.51-.09-5.24-.25-2.01-1.17-9.08-1.82-14.79-.45-4-.56-4.89-.67-5.54-.18-1.62.01-2.33-.02-2.35,5.09,2.43,5.5-5.63.39-4.54.98-2.17,1.8-3.18,2.64-5.49-1.07-2.53-3.42-6.79-3.42-6.79l-3.73,7.16,2.2,4.95c-2.53-.5-3.87,1.52-3.4,3.34.51,1.61,1.91,2.06,3.14,1.41.95-.41.95-.52.11,7.33-.25,2.32-1.36,13.17-1.51,14.79-.1,1.08-.17,1.39-.57,1.15-.54-.26-.86-.63-1.4-1.03l-.3.31c.48.43,1.06.99,1.65,1.59-.13,2.87-.08,4.54,2.09,5.94-3.94,2.72-1.64,6.9.68,7.51-1.38.39-2.74,2.35-2.41,6.23l1.12,15.99-10.68-8.73-6.27,9.88-16.51.02-18.63-18.51s-4.08-.06-5.76-.11c.19-.1-.35-5.72-3.05-9.39-2.93-3.84-9.6-10.17-9.6-10.17l7.01-7.83,39.33,38.98s.19,1.1.29,1.57c1.31,6.15,7.67,6.53,9.03.26.22-1.01.48-3.37.38-3.65-.03-.09.17-1.12.44-2.29,2.11-9.13,3.92-17.01,6-25.77.29-1.21.59-2.55.67-2.99.34-1.78.29-1.77,1.98-.37,1.04.86,1.46,1.17,1.46,1.17l.33-.38c-1.16-.99-3.15-2.57-3.15-2.57l.02-.67c-6.39-5.03-7.7-6.37-11.48-9.67-2.93,2.84-7.12,1.69-9.75.69-.68-.29-2.34-.77-2.34-.77-6.54,0-12.29-1.38-17.71-3.33l20.92-41.02h-8.08s-.28.35-.28.35h-4.2v-.35s-27.56,0-27.56,0ZM156.21,166.83,102.9,32.84l2.86.06-16.93,33.26-1.8-.77s.16-.1.16-1.5c0-1.5-.3-2.15-.91-3.04-.52-.77-.73-.81.77-.58,3.09.47,5.28-3.23,4.05-6.11-.47-1.11-.41-1.18.84-1.32,3.44-.38,4.78-5.19,2.35-7.58-.5-.5-.28-.82.66-.6,2.98.71,5.29-2.93,4.1-5.78-.39-.79-.04-.93.51-1.01,2.55-.66,3.42-2.86,3.33-5.04h0ZM80.08,32.84h13.25c-1.78,3.01,1.37,4.79,1.76,4.57-2.86,1.72-2.07,4.14-.59,4.97,1.44.81,3.59.08,3.02-3.41l.71-.34c.69.86,1.37,6.18-3.88,5.44-.94-.13-1.44.83-.66,1.36,4.16,5.26-2.35,7.58-2.63,6.71l-.02-.89c1.76.36,4.01-2.14,2.04-4.36-1.12-1.26-4.38-.65-3.82,3.18-1.92-3.16-4.02-2.21-4.59-.54-.44,1.3.12,3.07,2.04,3.37-2.14,1.98-1.1,4.18.37,4.67,1.62.54,3.28-.19,2.84-3.44.03-.31.59-.21.64-.22,1.68,4.62-2.34,6.31-4.5,5.36-.8-.34-1.22,1.02-.37,1.71,1.29,1.05.89,4.09.74,4.12-2.41-1.01-5.86-1.75-5.73-1.69,2.3-10.02,2.15-20.2-.61-30.57h0ZM101.21,32.85h1.2c.02,1.89-.73,4.21-3.65,4.57.01-.51-.02-.99-.14-1.52,1.1-.27,2.55.06,2.59-3.05h0ZM106.44,32.95l3.82.02-17.99,35.15-2.87-1.63,17.04-33.54ZM97.01,35.61c.68,0,1.22.6,1.22,1.34s-.55,1.35-1.22,1.35-1.22-.6-1.22-1.35.55-1.34,1.22-1.34ZM89.35,50.94c.63,0,1.13.56,1.13,1.25s-.51,1.25-1.13,1.25-1.13-.56-1.13-1.25.51-1.25,1.13-1.25ZM148.55,51.94l3.04,5.84-3.47,6.77-2.9-6.49,3.33-6.12ZM148.5,53.92l-2.14,3.89,1.94,3.99,2.21-3.79-2.01-4.09ZM148.54,55.59l1.11,2.35-1.35,2.39-1.12-2.53,1.36-2.22ZM145.59,63.5c.23,0,.48.05.73.17,2.05.94,1.4,4.38-.79,4.16-.29-.03-.67-.2-.94-.4-1.52-1.37-.6-3.94,1.01-3.93ZM150.6,63.56c1.79.04,2.87,2.78.99,4.07-.91.56-2.27.22-2.81-.77-.46-.85-.26-2.27.77-3.01.37-.21.72-.29,1.06-.29ZM148.11,67.48c.18.02.37.98.55,2.64.07.6.24,2.11.39,3.35.28,2.65.57,5.12.82,7.68.05.5.17,1.57.27,2.38,1.04,8.3,1.27,10.96,1.03,11.66-.65,2.48-3.72,2.67-5.01,1.23-.97-1.09-1.11-2.28-.73-5.39.22-1.8.31-2.7.96-9.57.15-1.61.37-3.75.49-4.75.26-2.69.56-5.2.89-7.85.1-.95.21-1.38.33-1.37ZM97.85,73.65s9.83,3.57,17.31,3.41c1.1,0,1.28-.01,2.64.48.81.29,2.09.69,2.83.88,2.31.49,4.33.35,6.13-.45.28-.13.7-.51,1.11-.37.25.08.63.64.63.64-6.55,1.91-21.87,1.56-31.4-2.86l.75-1.72ZM148.35,74.79s-.08.07-.13.15c-.16.28-.03,2.11.57,7.92,1.14,11.1,1.13,11.34-.25,12.51-.68.57-.78.8-.46,1.01.24.16.22.15.72,0,1.16-.35,1.64-1.37,1.63-3.44,0-1.58-.02-1.77-.47-5.64-.15-1.34-.37-3.23-.47-4.21-.75-6.92-.92-8.36-1.14-8.31h0ZM96.86,75.95c9.79,3.86,20.01,4.95,32.33,2.87,0,0,1.18.85,1.78,1.26l-.41.11.19,1.87,2.09-.37s1.13.99,1.98,1.6c-10.99,3.69-28.74,3.06-39.69-2.3-.42-.26-.66-.48-.66-.48.24-.64.52-1.02.81-1.38l2,.63.58-2.01-1.53-.61.53-1.2ZM99.42,78.35l-.64,1.98,2.8.91.48-2.02-2.63-.87ZM103.7,79.58l-.37,2.25,2.81.57.35-2.19-2.78-.63ZM108.34,80.63l-.22,2.17,2.98.35.18-2.2-2.94-.32ZM128.79,80.67l-2.53.3.16,1.91,2.56-.33-.19-1.89ZM124.32,81.22l-2.51.18.09,2,2.53-.18-.1-2.01ZM113.01,81.26v2.13l2.57.11.03-2.17-2.6-.06ZM120.09,81.53h-2.37s0,2.04,0,2.04h2.4s-.01-2.04-.01-2.04ZM92.57,81.89c.26,0,.84.62,1.08,1.32.48,1.38.26,2.91-.49,3.42-1.01.69-2.21-.39-1.51-1.37.12-.17.32-.35.44-.39.52-.18.64-1.09.36-2.65-.04-.23.01-.33.11-.34ZM96.36,82.41c10.59,3.82,22.61,5.1,35,2.31,0,0-5.87,26.39-6,26.4l-29-28.71ZM91.17,82.49c.56,0,.66,1.04.16,1.6-.64.71-1.87.14-1.61-.75.07-.26,1.09-.85,1.46-.85ZM94.22,83.11c.12,0,.33.24.68.76,1.19,1.76,1.28,3.73.22,4.63-1.25,1.05-2.16-.58-1.12-2.01.27-.37.31-1.05.15-2.56-.06-.54-.04-.81.07-.82h0ZM135.29,83.74c.14,0,.38.11.86.37.76.41,1.02,1.01.66,1.49-.53.7-1.99-.69-1.71-1.64.04-.14.08-.22.19-.22h0ZM134.15,84.66c.19.02.49.4.85,1.18.23.5.36.64.74.8.91.36,1.07,1.39.28,1.7-.87.33-1.51-.35-1.91-2.03-.26-1.1-.2-1.68.04-1.65h0ZM96.26,85.4c.13,0,.38.32.78.96,1.18,1.92.78,5.62-.72,6.48-.66.38-1.12.3-1.64-.28-.77-.85-.58-1.52.56-1.98.97-.39,1.29-1.62.99-3.84-.12-.89-.12-1.33.02-1.34h0ZM101.9,86.01c7.23,6.57,13.76,13.61,22.18,21.83,2-6.77,4.91-20.83,4.92-20.88-.32.29-14.14,2.45-27.1-.95ZM129,86.96s0-.01,0-.02v.02ZM133.49,86.03c.12,0,.47.99.67,1.89.18.82.9,2.18,1.17,2.24,1.43.27,2.03,1.14,1.33,1.92-.52.57-1.64.25-2.18-.62-1.01-1.64-1.71-5.42-.99-5.42h0ZM52.77,86.94c.86,0,1.69.6,1.9,1.84.24,1.43-.49,2.47-1.11,2.31-.68-.28-.91-1.46-.91-1.46,0,0-.16.96-.44,1.45-.61,1.02-1.88-.49-1.65-1.96.22-1.43,1.24-2.18,2.22-2.17h0ZM104.26,87.31c7.88,1.3,14.66,1.64,24.05.52l-4.43,18.93-19.62-19.45ZM98.31,87.34c.12,0,.36.24.73.67,1.22,1.43,1.58,3.4.78,4.38-.48.6-.81.67-1.32.28-.66-.5-.71-1.24-.1-1.58.55-.32.6-1.01.17-2.32-.33-.98-.42-1.44-.25-1.43h0ZM46.92,87.83l2.88,1.31,1.03,2.68-2.87-.82-1.04-3.18ZM57.8,88.19l-.85,2.67-2.21.91.86-2.88,2.21-.69ZM132.88,88.74c.11,0,.26.34.46,1.03.48,1.72.68,2.16,1.11,2.39.71.37.76,1.31.09,1.65-.42.21-.56.17-.86-.27-.47-.68-.85-1.98-.92-3.14-.06-1.09-.01-1.66.12-1.66h0ZM100.84,89.95c.08,0,.21.13.39.37,1.12,1.46,1.24,3.71.24,4.38-.97.65-2.33-.69-1.48-1.47.08-.07.25-.23.39-.34.24-.2.26-.31.28-1.58.02-.94.05-1.34.19-1.35h0ZM109.33,90.1l13.78,13.79,3.16-13.64c-5.44.54-11.13.38-16.94-.15ZM75.48,90.8c4.35,5.06,10.05,9.15,11.4,14.18,2.42,6.93.65,14.96-5.03,19.56-3.13,2.61-6.2,5.36-8.76,8.68-4.19,4.91-6.99,10.28-9.79,14.18-.47.65-1.73,2.72-1.73,2.72,0,0-.61.77-2.66-1.12-5.43-5.32-11.13-9.18-16.94-12.85l2.46-1.51c4.85,3.04,10.87,7.37,16.29,12.42,0,0,4.31-6.93,5.68-8.91,1.99-2.85,3.39-4.68,5.25-6.89,4.74-6.45,9.64-8.58,11.68-11.84,2.98-4.78,3.11-10.45.66-15.29-2.42-4.62-7.13-7.78-10.25-11.61l1.74-1.71ZM116.8,91.17h5.39s-.79.73-1.4,1.17c-.38.28-.83.24-1.66-.14-.81-.38-2.32-1.03-2.32-1.03h0ZM122.97,91.17l1.26.04c-.94,1.3-1.9,2.14-3.16,3.29-.16.08-.25.11-.63-.03-2.57-.94-4.94-2.13-7.44-3.26h2.23s1.08.37,2.69,1.1c1.85.85,2.33,1.11,3.05.59.69-.5,1.26-1.26,2.01-1.74h0ZM125.51,91.17l-.45,1.82c-.75,1.03-2.27,2.22-3.54,3.4-.3.17-.29.2-1.59-.35-4.79-2.05-7.1-3.38-7.1-3.38l-.97-.96s1.25.39,2.07.75c.56.24,1.52.64,2.13.89.61.25,1.96.88,2.85,1.27,2.07.9,1.96.93,3.94-1,2.15-2.09,2.65-2.43,2.65-2.43h0ZM52.98,91.34l2.09,2.64-2.78,2.58-2.1-2.73,2.8-2.49ZM132.26,91.34c.48.99.8,2.16,1.58,2.99.59.62.73,1.09.38,1.44-.91.62-1.07-.38-1.35-1.03-.5-1.15-1.1-2.7-.62-3.4h0ZM56.7,91.61c.05,0,.11,0,.16,0,2.23.04,2.75,3.66.66,4.53-.75.31-1.62.17-2.08-.34-.45-.5-.52-.92-.21-1.18.48-.38,1.63-.4,1.63-.4,0,0-1.04-.39-1.51-.68-.92-.57-.12-1.86,1.34-1.93h0ZM102.58,91.61c.13,0,.34.29.65.85,1.12,2.04,1.06,5.93-.11,6.92-.61.51-1.37.44-1.88-.18-.67-.82-.47-1.65.53-2.13.96-.47,1.16-1.52.77-4.11-.14-.9-.13-1.35.03-1.34ZM48.51,91.67c.67-.03,1.31.26,1.63.84.24.43.12.74-.32.95-.54.24-1.57.45-1.57.45,0,0,1,.18,1.6.45.75.37.7,1.04-.41,1.62-2.13,1.11-4.13-1.93-2.38-3.67.41-.41.94-.62,1.46-.64h0ZM104.39,93.14s.03,0,.05,0c.2.03.56.34.92.86,1.27,1.85,1.49,4.62.41,5.16-1.14.57-1.96-.61-1.14-1.64.58-.73.51-1.8-.26-3.91-.11-.31-.09-.46.02-.48h0ZM131.75,93.23c.1,0,.28.44.57,1.33.64,1.98,1.19,2.8,1.86,2.8.83,0,1.27,1.26.61,1.76-1.3,1-3-1.45-3.12-4.51-.04-.92-.02-1.38.08-1.39h0ZM124.89,94.21l-.38,1.61s-.89.95-1.52,1.55c-1.01.96-1.25,1.15-2.05.85-1.22-.46-2.43-.89-3.71-1.31l-2.94-2.68,6.72,2.89s.58.19.79-.03c.88-.97,1.85-1.72,3.1-2.87h0ZM131.23,95.72c.08-.02.17.1.23.39.3,1.52.75,2.62,1.12,2.79.47.22.65.67.45,1.12-.57,1.32-2.08-1.01-2.08-3.22,0-.63.14-1.05.28-1.09h0ZM106.98,95.83c.08,0,.21.13.42.36.93,1.02,1.21,3.85.46,4.67-1.08,1.19-2.23-.58-1.18-1.81.28-.33.28-.35.21-1.8-.05-1.01-.05-1.41.09-1.42ZM50.7,96.11l-.73,2.65-2.32.66.54-2.18,2.5-1.13ZM53.49,96.38c.18,0,.39.07.61.24.95.75,1.02,2.04.58,2.99-.42.93-1.29,1.19-2.12,1.1-1.09-.13-1.9-.97-1.85-2.24.02-.64.27-1.35.66-1.65.28-.21.5-.13.74.31.22.43.6,1.4.6,1.4,0,0,.01-.99.14-1.5.1-.41.33-.64.63-.65h0ZM55.26,96.61l1.68.63.66,2.51-1.88-.8-.46-2.34ZM151.12,97.08s.48.22,2.78,2.23c.57.5,1.54,1.46,1.54,1.46l-.06,32.81-5.45-3.73.29-2.87s.75-8.68,1.32-13.22c.4-5.07,1.29-6.52-1.8-8.67,3.32-2.29,2.38-5.86.3-7.35l1.07-.66ZM124.08,97.21l-.3,1.5c-1.09,2.06-2.07,1.95-3.74,1l-2.01-1.88c1.3.3,2,.76,3.27,1.2.63.19.86.07,1.3-.37.51-.51.89-.89,1.48-1.45h0ZM109.2,98c.68.82.86,1.62.8,3.61-.13,1.41-.07,2.47-1.13,3.26-.51.37-1.4.37-1.8,0-.95-.7-.43-2.11.82-2.18.79-.02,1.11-2.85.67-4.63-.07-.28-.05-.46.07-.47.12-.01.35.14.57.4h0ZM130.52,97.89c.15,0,.42.43.58,1.14.23,1.02.56,1.59,1.07,1.88.66.37.87,1.08.45,1.5-.84.83-1.69-.17-1.96-2.3-.01-.24-.4-2.19-.14-2.22ZM148.47,98.24c1.86.03,2.92,1.47,2.92,3.21-.02,1.26-.64,2.53-1.79,3.06-2.74.89-4.23-1.13-4.21-3.09.02-1.58,1.22-3.21,3.08-3.18ZM110.83,99.38c1.57,1.73,1.64,5.42.1,5.42-1.84-.67-.41-1.87-.37-2.18.14-1.27-.12-2.09-.39-3.28-.12-.7.48-.17.66.03ZM148.57,99.21c-.33-.01-.31.35.3.93,1.09,1.04.56,2.95-.83,2.96-.64,0-.8.48-.24.72,2.15.95,3.62-2.65,1.69-4.15-.4-.31-.73-.45-.92-.46ZM66.32,99.7c1.73.65,2.33,4.28,2.39,5.56.08,2.23-.86,5.87-1.71,6.6-2.18,1.89-3.2-4.78-1.34-9.07.16-.35.37-.83.29-1.7-.08-.87.06-1.38.36-1.39h0ZM123.51,100.05s-.22,1.09-.45,1.68c-.27.69-.47.71-1.09.12-.35-.33-.92-1.01-.92-1.01.54.09,1.03.4,1.49.15.49-.27.89-.77.97-.95ZM130.08,100.1c.12,0,.28.38.49,1.14.57,2.06,1.07,2.83,1.82,2.83,1.24,0,1.51,1.64.34,2.06-.43.16-.58.15-1.13,0-.83-.24-1.97-3.34-1.81-4.91.08-.74.17-1.11.29-1.1h0ZM53.91,101.3c.45-.01.63.23.9.84.3.69,1.1,1.57,1.77,1.95,1.63.88,3.34,1.57,4.94,2.45,2.08,1.15,3.95,4.68,2.67,5.05-.46.12-1,.12-1.47.08-.15-.09-.46-.47-.67-.86-.95-1.71-2.73-3.39-5.47-4.17-1.93-.55-3.66-3.17-4.03-4.4-.1-.32-.1-.57.16-.65.55-.17.92-.27,1.19-.28h0ZM112.63,101.51c.09-.02.21.11.4.33,1.15,1.35,1.29,3.84.26,4.54-1.12.76-2.1-.5-1.22-1.57q.39-.47.39-1.89c0-.98.03-1.39.17-1.41h0ZM129.37,103.09c.14,0,.35.43.6,1.25.35,1.17.4,1.27.81,1.5.69.39.8.98.29,1.53-.94,1.03-1.89-.63-1.89-3.32,0-.65.07-.97.19-.96h0ZM114.34,103.27c.09,0,.32.22.51.46,1.41,1.84,1.12,6.15-.45,6.79-.52.22-.68.23-1.01.07-1.17-.56-1.03-1.92.42-2.78,1.08-.65.31-4.52.53-4.54ZM42.33,104.63l5.82,3.18s1.59,3.7,2.33,5.08c.5.96,1.51,1.89.47,2.53-1.75,1.31-2.74,2.05-2.73,2.86.01.66.75,1.32,1.75,2.62,1.43,1.86,1.42,1.43.12,4.26-1,1.98-1.84,6.48-1.84,6.48l-5.87,3.33c1.75-4.6,3.81-8.51,6.11-11.3-1.71-1.4-3.15-2.86-4.66-4.8,1.11-1.63,2.57-2.96,3.92-4.38-2.74-3.41-4.46-6.69-5.42-9.86h0ZM115.88,104.69s.02,0,.03,0c.24.02.8.68,1.29,1.76.63,1.38.69,3.13.13,3.74-.97,1.07-2.23-.3-1.32-1.44.64-.51.46-1.78-.04-3.1-.23-.63-.23-.93-.09-.96h0ZM41.69,105.31c1.51,3.54,3.21,6.42,4.94,9.15l-3.78,4.37c1.17,1.49,2.58,3.09,4.56,4.94-2.43,2.98-4.03,7.15-5.63,11.09l-.09-29.55ZM128.72,105.39c.13.01.32.44.51,1.3.24,1.09.41,1.37.98,1.64.92.43.94,1.41.04,1.76-.33.13-.95-.24-1.2-.71-.34-.68-.51-1.6-.51-2.43-.05-1.04.03-1.56.18-1.55ZM149.71,106.04c1.43.44,1.95,2.02,1.67,4.94-.37,3.91-.81,8.26-1.17,11.85-.41,4.14-.75,6.78-.75,6.78l-.35-.3s.1-2.24.24-3.62c.32-3.09.5-5.81.77-8.9.61-6.88.46-9.05-.67-9.69-.87-.49-1.25-.2-.61.47,1.23,1.04,1.19,1.48-.12,18.42-.13,1.75-.19,2.99-.19,2.99l-1.67-1.14s-.12-1.45-.28-3.65c-.38-4.13-.6-8.53-.85-12.49-.27-4.22.45-5.7,2.83-5.8.38-.02.8.02,1.16.13h0ZM119.01,108.5c.18.56,1.01,4.73-1.11,3.53-.57-.35-.6-.9-.18-1.44.47-.6.58-1.46.34-2.69-.14-.75-.31-1.37-.31-1.37.41.16,1.22,1.81,1.26,1.96h0ZM55.88,107.19c1.8.38,3.77,1.53,5.04,2.97.79.92.75,1.67-.48,1.75-1.19.19-1.21.4-1.78-.14-.25-.22-.75-.76-1.32-.85-1.79-.31-2.71-3.99-1.46-3.73ZM128.37,108.28c.19.34.21.99.37,1.47.27,1.32,1.09,2.3,1.83,2.17.5-.07,1.18.1,1.26.75.14.55-.12,1.08-.66,1.32-.61.27-1.31.1-1.83-.44-1.11-1.14-1.78-4.88-.95-5.28h0ZM119.73,108.33c.64.27,1.47,2.54,1.55,4.34,0,1.29-.18,2.91-1.19,3.53-.64.37-1.3.18-1.59-.43-.36-.76-.09-1.54.64-1.9.9-.45,1.19-2.45.64-4.41-.03-.33-.48-1.25-.05-1.12h0ZM51.13,109.27l4.74,2.64c-.69,1.04-1.23,2-1.61,3.09-1.51-1.88-2.3-3.8-3.13-5.74ZM121.51,110.18c.08,0,.35.28.59.54,1.18,1.26,1.69,3.55.98,4.39-.57.67-1.57.62-1.74-.08-.06-.34.27-.99.42-1.3.22-.46.26-1.78-.07-2.74-.15-.43-.29-.81-.18-.81ZM88.59,110.7l5.36.2,17.94,17.79-1.68-.04-16.48-16.54-5.13.02v-1.43ZM57.74,113.9c-2.04,3.58-2.6,8.09-1.35,12.1.95,2.84-1.13,3.01-1.98,1.14-.66-1.4-1.03-3.84-.83-6.43.28-4.2,2.04-8.41,3.45-8.92,1.43-.51,1.12,1.54.71,2.12h0ZM131.25,122.51c-.54,2.8-1.55,4.19-2.98,4.77-5.86,2.38-8.41-10.62-2.98-13.73,5.18-1.9,6.68,5.27,5.96,8.96h0ZM88.26,114.02l5.05.11c4.6,4.61,9.55,8.91,14.48,14.52h-2.38s-.7-.73-.86-.9c-4.45-4.38-7.75-7.95-12.05-12.02l-4.51-.14.27-1.57ZM126.8,114.87c-2.73.12-2.95,4.2-2.87,5.74.2,2.22,1,5.51,3.57,5.25,1.88-.21,2.75-2.66,2.58-5.6-.16-2.77-1.19-5.39-3.27-5.38h0ZM87.8,116.23l4.43.11c3.9,3.75,8.03,7.82,12.14,12.31h-1.93s-.51-.53-.66-.7c-3.32-3.31-6.7-6.99-9.92-9.96l-4.6-.2.54-1.57ZM126.87,116.39c.78.32.91,2.4.23,3.26-.46.59-1.53-.53-1.63-1.94-.06-.86.7-1.61,1.4-1.32ZM53.63,116.64c-.36,1.34-.59,2.86-.74,4.49l-1.85-2.59,2.59-1.9ZM128.28,119.15c.45,0,.82.4.82.9s-.37.9-.82.9-.82-.4-.82-.9.37-.9.82-.9ZM91.04,119.6l8.83,9.14-2.51.03-7.24-7.23-4.6-.19.9-1.73,4.63-.03ZM125.39,119.76c.45,0,.82.4.82.9s-.37.9-.82.9-.82-.4-.82-.9.37-.9.82-.9ZM135.91,119.78c4.98,4.26,12.01,9.91,19.31,14.5,0-.02-1.2,1.04-2.31,1.38-5.68-3.45-12.44-8.31-16.63-12.26-3.95,6.41-11.55,18.06-18.3,23.44-4.26,3.36-6.41,7.49-6.39,12.33.01,5,1.62,8.26,6.09,12.35,2.88,2.64,6.03,6.01,6.03,6.01l-1.66,1.57c-.28-.04-4.83-4.36-9.45-9.46-2.53-2.8-3.66-8.95-3.23-12.27.59-4.51,1.95-7.75,5.84-11.23,1.49-1.27,3-2.26,4.31-3.71,12.07-14.22,16.39-22.65,16.39-22.65h0ZM127.82,122.1c.46,1.03.71,2.39-.72,2.48-.85.05-1.33-1.5-.6-2.88.56-1.09,1.05-.16,1.32.4h0ZM85.27,121.82l4.77.16s4.7,4.51,7.07,7.01h15.97c8.78,0,16,.04,16.04.08.11.12-1.13,1.96-1.13,1.96l-52.67.03s3.25-3.19,4.41-4.08c2.06-1.58,3.94-3.05,5.54-5.16h0ZM53,124.01c.34,1.4.63,2.83,1.23,4.12l-3.66,2.14c.67-2.13,1.44-4.18,2.43-6.25h0ZM154.54,135.65c-.73,2.18-2.63,6.62-4.92,9.99-.46.65-.77,1.15-.77,1.15l4.48,4.72-3.89,4.55c2.18,2.5,4.03,6.33,5,9.39-1.76-.77-2.75-1.23-4.93-2.56-.62-1.7-1.24-3.5-1.93-5.05-1.59-3.54-1.57-3.19-.27-4.24,1.9-1.53,2.46-1.88,1.97-2.65-.35-.54-2.58-3.47-2.72-3.56-.21-.14-.11-.57.27-1.26,1.3-2.56,2.36-5.39,3.02-7.9l4.69-2.59ZM155.39,135.83l.12,29.76c-1.6-3.56-3.27-7.19-5.13-9.46-.07-.15,4.06-4.59,4.06-4.59-1.51-1.54-2.4-2.47-4.51-4.61,2.06-3.27,3.69-7.54,5.47-11.1ZM41.78,136.86l5.14,3.28c-.27,4.2-.61,9.71-1.14,15.3-.44,4.36-.62,6.37.08,7.58.59.89,2.2,1.84,2.2,1.84-2.7,1.2-3.74,4.76-.71,7.41,0,0-.74.64-1.06,1.02l-4.21-3.47-.28-32.97ZM122.17,138.36c-1.28,1.58-3.29,3.92-4.83,5.04-2.06,1.49-4.94,4.36-4.8,4.41,0,0-3.02-.02-5.07-.11l-7.06-6.94s.25-.1-9.36-.02c-12.42.11-22.49-.04-22.49-.04l1.41-2.18,52.21-.17ZM147.35,139.73c-.7,2.46-1.77,4.74-3.14,6.87-.32-1.51-.49-3.12-1.15-4.4l4.29-2.46ZM47.57,140.52l.62.48s-.37,5.14-.49,6.64c-.22,2.78-.32,5.28-.54,8.11-.44,5.62-.37,6.45.63,7.31.77.63,1.3.35.61-.46-.45-.64-.45-.62-.58-1.56-.09-.65-.08-1.62.06-4.26.76-14.84.92-15.34.94-15.35l1.54,1.09c-.09.23,1.41,14.96,1.26,18.62-.18,4.28-5.41,3.34-5.66.16-.1-.73.89-12.75.89-12.75l.74-8.04ZM90.27,141.38l2.05.06,12.68,12.83,4.32.1-.38,1.62h-4.18s-14.5-14.61-14.5-14.61ZM98.13,141.38h1.99l7.25,7.24,4.47.08-.85,1.39-4.44-.14-8.42-8.57ZM95.65,141.39l10.72,10.65,3.66.21-.56,1.45-4.33-.13-12.05-12.15,2.57-.03ZM85.31,141.43h2.23l16.76,16.62,4.39.09-.07,1.5-5.29-.03-18.03-18.18ZM141.72,141.9c.88.24,1.32,1.19,1.94,4.69.73,4.08-.85,10.71-2.82,11.95-1.02.88-2.13-.05-1.41-1.21,2.36-3.77,2.67-9.93,1.27-13.38-.44-1.11.01-2.26,1.02-2.06ZM70.6,142.51c5.36.07,6.74,12.18,1.47,13.88-3.42.56-5.19-2.85-5.68-5.93-.59-3.82.95-7.99,4.21-7.95ZM67.66,149.78c.32,2.43,1.69,5.21,3.67,4.97,2.61-.31,2.94-4.16,2.68-6.09-.31-2.33-1.48-4.45-3.35-4.57-2.78-.17-3.26,3.81-3.01,5.69ZM70.53,145.06c.75-.01,1.3,1.09,1.09,2.45-.13.88-.44,1.97-1.34,1.23-.42-.42-.8-1.66-.7-2.58.07-.61.34-1.08.94-1.1h0ZM144.39,147.86l2.51,3.2-2.86,2.21c.4-1.69.53-3.48.34-5.41ZM72.35,148.15c.45,0,.82.41.82.91s-.37.9-.82.9-.82-.4-.82-.9.37-.91.82-.91ZM69.42,148.71c.45,0,.82.4.82.9s-.37.9-.82.9-.82-.4-.82-.9c0-.5.37-.9.82-.9ZM71.08,149.87c.41.14.67.55.9.92.55.9.62,2.03.23,2.5-.79,1.03-2.02-.07-1.87-1.66.11-1.17.39-1.87.74-1.75h0ZM78.1,153.41c1.18,0,1.51,1.53.49,2.27-.66.49-.8,2.06-.4,4.25.33,1.58.16,1.82-.7.4-1.46-2.58-1.08-6.92.6-6.92h0ZM75.35,154.24c1.03-.04,1.36.82.76,1.49-.35.43-.32,1.57.08,2.5.56,1.35.43,1.76-.62.46-1.44-1.69-1.42-4.4-.22-4.45h0ZM143.55,154.9c1.17,1.71,2.21,3.95,3.15,6.48l-5.07-2.57,1.92-3.92ZM69.39,161.79c-.36-.46-.53-1.94-.83-2.57-.23-.76-.43-1.2-.8-1.18-2.14.2-2.05-2.06-.82-2.48,2.55-.88,3.48,5.89,2.45,6.23h0ZM80.02,159.51c-.36,1.18-.1,1.89-.02,3.15.06.57.09.73-.34.28-1.02-.98-1.56-4.31-.64-4.93,1.23-.83,1.61.57,1,1.49ZM130.87,157.93c.5-.03,1.06.4,1.34,1.18.4,1.13.37,3.89.16,5.36-.31,2.25-.8,4.32-1.01,5.87-.72.94-2.49-2.39-2.65-5.01-.28-2.08.37-6.4,1.83-7.32.1-.05.21-.09.33-.09h0ZM137.72,158.28c.44-.02.34.14.67.52.5.58.7.72,1.41.96,1.46.5,3.06,2.74,2.44,3.42-.49.43-1.81-.38-2.27-.55-.49-.18-1.1-.41-1.35-.51-1.22-.45-2.97-2.93-2.43-3.43.29-.27,1.18-.39,1.53-.41h0ZM134.17,158.69c.9,0,1.15.26,1.66,1.33.76,1.58,2.19,2.7,4.25,3.34,2.63.89,4.91,2.57,4.8,5.68-.63,0-1.26.05-1.89.26-.73-2.26-2.54-3.55-4.1-3.94-3.6-.9-6.94-4.92-5.99-6.52.42-.23.86-.16,1.27-.15h0ZM72.07,158.89l31.1,29.82c-13.13-5.36-25.17-5.25-36.81-3.26l5.71-26.56ZM85.33,160.86c-.06.93-1.22,1.13-1.45,1.36-.58.56-.5,2.16-.26,4.04.19,1.13-.06,1.08-.6.19-.95-1.56-.93-4.27-.3-5.86.81-2.05,2.7-1.03,2.61.27h0ZM67.44,159.4c1.19.14,1.52,1.92,1.57,3.11,0,1.63-.42,1.57-.66,0-.11-.7-.31-.97-.82-1.14-1.16-.38-1.24-1.97-.09-1.97ZM81.9,161.23c-.31.37-.31,2.1-.03,3.26.15.64-.13.69-.53.18-1.29-1.66-1.41-4.48-.21-5.02.97-.28,1.22,1.03.77,1.58h0ZM68.44,164.56c.03,1.66-.31,1.81-.77.22-.12-.37-.32-.74-.47-.85-.85-.64-1-1.14-.51-1.68,1.21-1.08,1.73,1.81,1.74,2.31ZM72.99,163.1l-4.22,19.8c10.38-.96,15.1-1.16,26.18,1.23l-21.97-21.03ZM85.56,163.43c.63.18.85,1.09.11,1.95-.24.34-.47.87-.17,2.27.41,1.92-.28,1.3-1.11-.51-.53-1.16-.29-4.11,1.17-3.71ZM65.71,163.49c1.13,0,2.17,2.02,2.19,4.22.01,1.78-.22,1.65-.82-.05-.42-1.13-.76-1.53-1.53-1.83-1.42-.55-1.3-2.34.16-2.34h0ZM73.33,164.06l19.53,18.79c-8-1.41-15.85-1.52-23.48-.46l3.94-18.33ZM89.58,164.77c1.53,0,2.14,2.08.26,2.81-1.12.43-.64,2.93-.44,4.41.08.56-.08.6-.4.1-1.18-1.92-1.84-6.75.58-7.32h0ZM87.52,167.11c-.28.48-.31,1-.12,1.93.5,2.01.63,2.38-.41,1.36-1.09-1.27-1.57-3.79-.65-4.53,1.03-.84,1.95.09,1.18,1.24h0ZM48.92,165.56c1.81-.01,3.13,1.28,3.06,3.08-.08,1.98-1.21,3.24-2.86,3.34-1.85.1-2.99-1.52-3.04-3.21-.04-1.49.82-3.2,2.84-3.21h0ZM48.89,166.35c-2.07,0-2.85,3-1.13,4.4.74.6,1.32.43.71-.21-1.14-1.19-.68-3.17.82-3.53.74-.18.45-.66-.4-.66h0ZM74.15,166.87l-2.5,13.34c5.11-.87,11.29-.61,16.06-.11l-13.56-13.22ZM65.74,167.37c1.24-.07,1.61,1.99,1.62,2.81,0,1.06-.11,1.61-.29,1.04-.42-1.34-.83-2.07-1.28-2.07-.24-.07-.45-.18-.65-.42-.44-.64-.01-1.34.6-1.36h0ZM74.38,167.9l1.65,1.54c-1.06-.51-1.96.81-1.96.81l.31-2.35ZM91.33,170.42c-.48.66-.47,2.06-.1,3.68.1.45-.28.12-.67-.42-.74-1.02-1.08-2.22-.95-3.2.15-2.48,3.01-2,1.72-.06h0ZM65.28,169.23c1.07.13,1.47,2.58,1.44,3.33-.04.78-.2,1.3-.34.83-.27-1.02-.84-2.49-1.33-2.83-.84-.58-.6-1.24.22-1.32h0ZM146.88,171.98c.04.86-.29,1.75-.77,2.03-.49.29-.8-.1-1.09-1.1-.22-.73-.29-1.01-.29-1.01,0,0-.18.92-.24,1.11-.39,1.27-1.64,1.28-2.17-.14-.56-1.66,1-3.35,2.2-3.29,1.33.07,2.29,1.01,2.36,2.4h0ZM75.7,170.13c.37,0,1.83.72,1.83.72l1.45,1.41s-1.33-.64-1.8-.82c-1.12-.44-1.1-.44-2,.37-.93.84-1.7,1.45-1.7,1.45l.29-1.81s1.36-1.32,1.93-1.32h0ZM66.21,174.57c.21,1.91-.27,2.07-.74.25-.4-1.56-.8-2.13-1.49-2.13-1.26.21-1.69-1.86-.55-2.27,2.14-.66,2.69,3.4,2.78,4.16ZM139.62,170.38l1.98,1.01.42,2.25-1.82-.5-.57-2.77ZM95.35,170.59c1.9-.58,2.14,2.03.68,2.41-.89.23-.88,1.75-.63,3.96.06.5.18,1.11.15,1.2-.14.4-.59-.21-1.2-1.62-.91-2.58-.63-5.44,1-5.94h0ZM149.69,170.56l-.55,2.61-1.67-.13-.06-1.6,2.28-.88ZM93.39,172.25c-.92,1.46-.09,2.81.11,3.95.04.66-.74.01-1.19-.95-.93-2.02-.99-3.65-.15-4.37,1.18-.76,1.72.6,1.23,1.38ZM76.25,171.89c.32,0,.76.2,1.68.59.7.3,2.31,1.02,2.31,1.02l2.13,2.08s-1.87-.76-3.18-1.37c-2.94-1.37-2.52-1.41-4.84.54-.67.56-1.37,1.2-1.37,1.2l.28-1.67s.88-.96,1.97-1.83c.47-.37.68-.56,1.01-.56h0ZM48.92,172.68c1.5-.05,2.49,1.27,2.85,2.74.21.85.03,1.64-.01,2.46-1.04,8.76-1.49,16.88-2.45,24.99-.12.39-.25.24-.4-.45-1.11-7.35-1.82-15.42-2.75-22.71-.21-2.72-.85-6.28,2.28-6.97.17-.04.33-.05.48-.06h0ZM48.83,173.65c-.66.03-1.45.53-1.73,1.18-.57,1.32-.42,4.01.66,12.06.09.67.21,1.79.28,2.49.19,2.14.45,3.84.63,4.15.35.6.4-.04.15-2.14-.13-1.07-.31-2.7-.39-3.63-.49-3.82-.59-6.54-.89-10.02-.15-1.71.48-2.98,1.65-3.32.64-.19.67-.5.08-.71-.13-.05-.28-.07-.43-.06h0ZM148.28,173.76c2.2,0,3,3.39.85,4.59-.8.44-2.14.23-2.47-.47-.16-.55.02-.87.42-1.1.48-.28,1.2-.53,1.2-.53,0,0-1.16-.25-1.49-.85-.71-1.31.59-1.6,1.49-1.62h0ZM65.64,177.41c-.02.64-.32.37-.39,0-.24-.85-.73-1.77-1.15-2.14-.5-.44-.62-1.04-.28-1.42,1.28-1.24,1.81,3.16,1.82,3.55h0ZM140.16,173.75c.56-.02,1.33.19,1.81.72.62.69.59.95-.46,1.37-.51.21-.86.37-.86.37,0,0,.47.2.82.31,1,.37.95,1.01.03,1.77-1.25,1.03-3.27-.34-3.25-2.15.02-1.44.82-2.35,1.9-2.39h0ZM144.8,173.74l2.01,2.43-2.35,2.67-2.21-2.67,2.55-2.44ZM76.62,173.97s.06,0,.09,0c.62.01,1.61.47,4.05,1.55,1.34.59,2.88,1.27,2.88,1.27l2.19,2.13s-3-1.04-4.04-1.62c-.23-.13-.73-.36-1.11-.52-.38-.16-1.33-.57-2.11-.91-1.67-.74-1.69-.74-2.25-.22-.24.22-.83.73-1.3,1.13-.48.4-1.17.98-1.55,1.3-.44.37-1,.93-1,.93l.35-2.06s.32-.34.88-.82c.46-.38,1.24-1.04,1.73-1.46.5-.42.76-.68,1.19-.7h0ZM98.15,175.77c.06.43.03.51-.42,1.01-.56.63-.64,1.68-.23,3.02.11.37.25.81.22.85-.6.66-2.17-3.49-1.79-4.73.45-1.48,1.92-1.5,2.22-.16h0ZM63.71,175.95c.41-.02.89.32,1.13,1.04.65,2,.25,4.45-.41,2.16-.17-.48-.47-1-.7-1.26-.23-.27-.76-.59-.74-1.03.05-.58.36-.88.72-.9h0ZM77.14,176.01c.26,0,.61.15,1.25.44.57.26,2.18.85,3.09,1.23,1.42.6,2.9,1.4,2.9,1.4l-3.21-.2s-1.09-.4-1.74-.69c-2.35-1.06-2.22-1.06-3.39-.08-.42.35-.94.91-.94.91l-1.63.1s.77-.9,1.87-1.81c.36-.3.86-.72,1.1-.94.28-.25.45-.38.71-.37h0ZM102.25,176.71c.89-.19,1.38.75,1.33,1.34-.06.64-.6,1.28-1.44,1.46-.18.72-.67,2.35-.38,4.8.23,1.14-.21,1.17-.65.07-.73-1.78-1.79-7.05,1.15-7.66h0ZM99.7,178.67c-.38.89-.51,1.61-.3,2.73.23,1.25.28,1.56-.36.78-1.25-1.83-1.43-4.75-.28-5.09,1.11-.32,1.36,1,.94,1.58ZM62.25,177.3c1.95.34,2.52,4,2.25,5.56-.52,1.89-.49.61-.67-.18-.48-1.91-1.04-2.94-1.63-3.05-1.6-.29-1.38-2.58.05-2.33h0ZM77.2,178.02s.06,0,.09,0c.64.12,2.36.7,1.62.9l-2.54.02c-.49.02.32-.88.82-.92h0ZM145.48,178.62c.25-.02.58.29.98.74.9,1.01.51,2.61-.71,3.39-1.91,1.23-4.09-1.09-3.04-3.23.58-1.17,1.27-.96,1.86.69.11.2,0-.21.2-.71.2-.5.47-.86.72-.88h0ZM142.27,178.73l-.57,2.54-2.33,1.23.85-3.13,2.05-.64ZM147.12,179.17l1.86.16,1.03,3.31-2.68-1.26-.21-2.21ZM103.22,181.04c1.35.06,1.49,1.47.71,2.08-.43.46-.58,1.12-.49,2.18.04.47.12,1.05.12,1.12-.01.23-.18.19-.42-.09-1.43-1.71-1.24-5.35.08-5.29ZM62.35,181.59c.86,0,1.83,2.7,1.35,3.73-.3.61-.59.46-.7-.25-.08-.51-.35-1.21-1.04-1.34-1-.35-.68-2.15.39-2.15ZM105.69,183.22c.65.37.72,1.2.12,1.66-.46.36-.58.66-.65,1.64.15,2.22-.98.81-1.09-1.21-.06-1.1.48-2.73,1.61-2.09ZM61.63,183.9c.61,0,1.34,1.21,1.18,1.92-.09.56-.35.46-.73.05-.15-.12-.47-.25-.62-.3-.92-.31-.77-1.66.17-1.66h0ZM79.1,184.84c8.31-.04,16.95,1.41,24.13,4.57l-.59,1.17-1.89-.71-.65,1.88,1.55.65-.73,1.74c-8.48-3.07-17.62-5.35-32.81-2.88-.75-.58-2.12-1.72-2.12-1.72l1.21-.29-.16-1.86-3.07.6-.9-1.03c4.8-1.35,10.32-2.08,16.01-2.11h0ZM106.96,185.24c.8,0,1.29.98.71,1.41-.41.29-1.32.38-1.5.13-.38-.5.16-1.54.79-1.54ZM77.92,186.39l-.03,1.93,2.5-.09.05-1.83h-2.52ZM82.3,186.44v1.89s2.44.09,2.44.09l.11-1.85-2.56-.13ZM75.94,186.56l-2.46.18.08,1.77,2.44-.12-.06-1.83ZM86.93,186.86l-.06,1.82,2.47.3.18-1.85-2.59-.27ZM71.36,186.95l-2.47.35.21,1.82,2.4-.29-.14-1.87ZM91.72,187.54l-.24,1.9,2.31.38.3-1.81-2.36-.47ZM96.29,188.6l-.23,1.92,2.35.55.31-1.79-2.43-.69ZM79.69,190.82c7.79-.01,14.89,1.47,20.86,3.97,0,0-.77,1.84-1.05,2.04-4.29-1.89-11.6-3.64-16.54-3.73-1.81-.07-2.21-.13-2.88-.38-3.76-1.36-7.09-1.95-10.15.06l-1.25-.98c3.79-.66,7.47-.97,11.01-.98h0ZM46.8,201.81c1.78.02,2.63,3.03.75,4.29-.5.31-1.17.27-1.7,0-1.52-.8-1.64-3.3.14-4.11.29-.13.56-.19.82-.19h0ZM105,201.91c.64.43,2.99,1.58,2.99,1.58l-16.54,32.92-4,.03,17.55-34.53ZM51.66,201.99c.99-.12,1.69.82,1.95,1.6.35,1.07-.28,2.97-2.02,2.86-2-.13-2.9-4.09.07-4.45h0ZM108.53,203.7c.44.27,2.05.56,2.19.9.06.17-.06.51-.1.94-.09,1.05.15,2.21.73,3.13.94,1.44-.08.78-1.02.77-2.13-.6-4.83,2.59-3.81,5.87.24.73.19.78-.95,1.17-2.59.87-3.71,3.89-2.47,6.59.65,1.41.67,1.33-.47,1.44-3.16.29-5,3.38-3.67,6.54.21.49.07.62-.62.77-2.16.44-3.13,2.43-3.4,4.61l-2.86.03,16.45-32.76ZM111.27,204.86l5.49,1.65c-2.28,8.53-2.59,18.45.15,29.92h-12.62c1.75-1.72,1.06-4.11-.99-4.64,1.99-1.26,1.99-4.6-.39-5-2.1-.35-3.18,1.84-2.25,4.04l-.89.27s-.4-.55-.49-.85c-.79-2.54.86-5.06,3.68-5.05,1.74,0,2.1-.54,1.14-1.71-1.72-2.1-1.18-5.06,1.07-6.23,1.03-.54,1.64-.18,1.64-.18l.05,1.39s-.42.04-.74.1c-2.48.44-2.02,4.79.5,4.75,1.39-.02,2.38-1.18,2.38-2.84v-1.16c1.27,2.4,3.46,2.57,4.39.62,1.1-2.3-.89-3.74-2.89-3.5,0,0,.42-.3.68-.45,2.12-1.2,1.39-4.64-.96-4.64-1.61,0-2.55,1.65-2.03,3.4.08.28.28.73.28.73l-.96.27s-.22-.18-.31-.35c-1.64-2.83,1-5.95,4.32-5.24,1.22.42,1.18-.51.49-1.34-.74-1.21-1.28-2.58-.74-3.95h0ZM49.23,206.1l2.88,5.59-3.23,6.44-3.2-6.03,3.55-6ZM48.95,209.01l-2,3.03,1.96,3.48,1.86-3.52-1.82-2.99ZM48.86,210.15l1.3,1.92-1.31,2.36-1.28-2.21,1.29-2.06ZM108.41,216.19c.61,0,1.1.54,1.1,1.21s-.49,1.21-1.1,1.21c-.61,0-1.1-.54-1.1-1.21s.49-1.21,1.1-1.21ZM100.65,231.35c.63,0,1.14.56,1.14,1.25s-.51,1.25-1.14,1.25-1.13-.56-1.13-1.25.51-1.25,1.13-1.25ZM98.93,232.2c-.1.05,0,1.14.25,1.59-1.64.11-2.07,1.49-2.23,2.66h-1.47c.24-3.95,3.35-4.03,3.45-4.24h0Z"/>
      </g>
      <g id="Center_Symbols_Q" data-name="Center Symbols Q">
        <use width="26.08" height="32.54" transform="translate(49.37 40.39)" xlink:href="#Spade"/>
        <use width="26.08" height="32.54" transform="translate(147.91 228.89) rotate(-180)" xlink:href="#Spade"/>
      </g>
      <g id="Corner_Symbols_Q" data-name="Corner Symbols Q">
        <use width="26.08" height="32.54" transform="translate(20.67 46.74) scale(.5)" xlink:href="#Spade"/>
        <use width="26.08" height="32.54" transform="translate(176.61 222.54) rotate(-180) scale(.5)" xlink:href="#Spade"/>
      </g>
    </g>
    <g id="Spade_Corner_Characters" data-name="Spade Corner Characters">
      <g>
        <use width="21.78" height="33.12" transform="translate(180.98 254.75) rotate(-180)" xlink:href="#Black_Q"/>
        <use width="21.78" height="33.12" transform="translate(16.3 14.53)" xlink:href="#Black_Q"/>
      </g>
    </g>
  </g>
  <g id="Clubs">
    <g id="Club_Corner_Characters" data-name="Club Corner Characters">
      <use width="181" height="253" transform="translate(8.14 8.14)" xlink:href="#boundary"/>
    </g>
  </g>
</svg>