<?xml version="1.0" encoding="UTF-8"?>
<svg xmlns="http://www.w3.org/2000/svg" xmlns:xlink="http://www.w3.org/1999/xlink" viewBox="0 0 197.28 269.28">
  <defs>
    <style>
      .cls-1 {
        fill: #262964;
      }

      .cls-1, .cls-2, .cls-3, .cls-4 {
        stroke-width: 0px;
      }

      .cls-2 {
        fill: #d2232a;
      }

      .cls-3, .cls-5 {
        fill: #000;
      }

      .cls-6 {
        fill: none;
        stroke: #000;
        stroke-miterlimit: 10;
      }

      .cls-4 {
        fill: #e1cf20;
      }

      .cls-5 {
        font-family: ArialMT, Arial;
        font-size: 28px;
      }
    </style>
    <symbol id="Black_K" data-name="Black K" viewBox="0 0 18.68 33.12">
      <text class="cls-5" transform="translate(0 24.03)"><tspan x="0" y="0">K</tspan></text>
    </symbol>
    <symbol id="Spade" viewBox="0 0 26.08 32.54">
      <path id="path153-6-3-1-6-92-7-2-9-8" class="cls-3" d="M13.04,0C6.79,8.92.11,14.05,0,21.01c-.04,2.25,1.18,6.08,4.99,6.82,2.47.47,5.88-1.53,5.95-5.6-.01-.81.86-.79.85.32-.12,3.21-1.13,6.95-2.84,9.99h8.18c-1.71-3.04-2.72-6.78-2.84-9.99,0-1.11.86-1.13.85-.32.07,4.07,3.47,6.07,5.95,5.6,3.81-.73,5.03-4.56,4.99-6.82-.11-6.96-6.79-12.09-13.04-21.01Z"/>
    </symbol>
    <symbol id="boundary" viewBox="0 0 181 253">
      <rect class="cls-6" x=".5" y=".5" width="180" height="252" rx="15" ry="15"/>
    </symbol>
  </defs>
  <g id="Spades">
    <g id="Spade_Symbols" data-name="Spade Symbols">
      <g id="King_Face" data-name="King Face">
        <path id="path4096-2-4-0" class="cls-1" d="M40.14,31.14h117v207H40.14V31.14ZM123.18,236.82c-4.35-8.71-11.23-22.89-11.43-23.01-2.54,1.49-28.47,5.33-40.94,1.62-4.27,7.07-8.45,14.08-12.17,21.09l64.54.3ZM83.36,210.77c-.65.02-1.38.45-1.25.07.08-.22.26-2.45.34-3.25.2-.36.47.58.44,1.44-.02.5.2.14,1.67.23,1.6.09,2.91.42,3.45.55,1.89.45,5.54.13,7.11-1.13.85-.68,1.17.05.29.78-3.95,3.3-7.08,2.04-10.5,1.49-.51-.08-1.03-.2-1.56-.18h0ZM85.04,207.64c-.25-.18-.41-.19-.72-.03-1.21.62-.89-.27-.02-1.17.4-.41.39-.62.08-1.05-.15-.22-.41-.25-.35-.57.26-1.41,2.06-3.55,4.07-4.51.84-.4.97.04-.09.72-1.63,1.05-2.15,1.95-1.23,1.59,1.78-.71,3.41-.21,5.69,1.05.65.36.95.43,1.51.36.41-.38.78.08,1.03.31.16.14.19.21.38.16,1.3-.34.52.58-1.25,2.01-3.18,2.48-6.65,3.65-9.1,1.14h0ZM89.93,208.25c1.3-.43,2.88-1.33,3.86-2.27,1.18-1.14.51-.97-.84-.25-1.97,1.04-3.34,1.34-5.55,1.29-1.85-.05-1.79-.13-1.86.12-.24.89,2.31,1.8,4.4,1.11h0ZM86.34,204.77c.11-.38.19-.9.09-1.06-.17-.3-.54-.08-1.01.57-.29.4-.25.46.03.78.14.11.25.19.34.24.39.19.46-.22.54-.53h0ZM87.15,205.3c.57-2.13,1.84-2.09,2.75-.05h.64c-1.32-3.97-3.87-1.96-3.95.02.3.11.56.03.56.03h0ZM91.91,204.94c.6-.37.51-.62-.25-1.06-.54-.31-.83-.37-.93-.17,0,.44.02,1.07.25,1.42.24.16.57,0,.93-.19ZM83.48,198.86c-.11-.2-.09-.57.33-.78,2.58-1.32.7-4.09-1.29-2.01-.63.57-1.57.84-2.3.5-.68-.33-.7-1.25.21-1.44.3-.06,1.06-.24,1.34-.46,3.46-2.04,5.3,2.4,2.85,3.87-.51.32-1.04.51-1.14.32h0ZM73.78,194.83c-1.41-.7-1.6-3.14-.28-4.09.84-.63,1.7-.8,4.01.46,1.63.89,2.57-.07,2.52.97-.03.63-.06,1.26-1.01,1.42-1.54.25-2.59-2.06-4.57-1.84-1.43.16-1.25,2.04-.22,2.42,1.38.51.54,1.11-.45.67h0ZM99.62,195.18c-.26.13-.38-.49-.27-.82.7-1.83,1.35-3.29,1.99-5.01.51-1.37.85-1.96,1.08-1.96.23,0,.34.2-.05,1.05-.59,1.7-2.74,6.89-2.75,6.74h0ZM88.08,194.7c-.62-.49-.52-1.21.19-.66.91.7,2.4-.58,2.1-1.8-.37-1.47-2.14-1.83-3.62-.51-2.34,2.08-4.91,2.18-4.91.56,0-.46-.05-.57.92-.64,1.13-.08,2.41-.66,3.05-1.08,2.85-1.91,5.88-.59,5.25,2.6-.28,1.5-1.96,2.23-2.97,1.54ZM77.64,190c-.23,0-.65.25-.77.15-.24-.2-.2-.76-.4-1.37-.35-1.08,0-.74.6-.45.83.35,1.61.28,2.31.02.72-.28,1.66-.21,3.17,0,1.22.17,1.9.12,3-.22,1.2-.41.88-.26.68.55-.13.53-.29,1.25-.45,1.42-.83-.51-1.46-.31-2,.03-.89.43-1.53.51-2.26.27-.69-.43-1.1-.4-1.65-.02-.95.51-1.38-.33-2.24-.38h0ZM95.49,187.76c.17-.32.41-.77.64-1.27,1.85-4.05,1.98-5.17.67-6.54-1.75-1.83-3.25-1.04-4.93,2.62-.41.89-.65,1.56-.82,1.83-.19.32-.41.07-.52-.05-.21-.23,1.66-4.12,2.39-4.97,1.91-2.22,5.47-.44,5.24,2.57-.11,1.52-.38,2.35-1.64,5.14-.31.69-.58,1.27-.75,1.56-.59.44-.46-.57-.29-.9h0ZM78.06,187.6c.29-1.44,4.49-2.11,5.59-.22.11.18.04.18-.43.03-2.13-.78-2.56-.73-4.6.16-.31.13-.53.18-.56.03h0ZM94.06,187.33c0-.14.16-.67.39-1.18,1.4-3.05,1.78-3.78,1.36-4.35-.83-1.11-1.95-.15-2.97,3.04-.38,1.19-.64.94-.83.75-.36-.36,1.23-4.06,1.99-4.61,1.73-1.21,3.1.19,2.33,2.68-.6,1.12-1.09,2.85-1.65,3.76-.27.41-.62.29-.62-.07h0ZM87.79,182.38c-.08-.15.08-.36.68-1.78.83-1.95,1.08-2.67.75-3.79-.6-1.98-2.85-2.47-4.22-1.17-.45.42-.75,1-.96,1.52-.49,1.21-.91,2.77-1.2,3.1-.26.28-.61.34-.59-.15.33-1.05.48-1.87,1.25-3.41,1.92-4.59,7.45-2.47,6.16,2.37-.48,1.76-1.03,3.09-1.36,3.52-.18.24-.48.03-.49-.21ZM86.51,181.54c0-.15.21-.58.43-1.18.94-2.55.94-3.33-.42-3.36-.82.12-.94.48-1.65,2.5-.23.65-.36,1.12-.5,1.32-.15.21-.43.09-.54-.04-.29-.33.98-3.63,1.66-4.25,1.55-1.49,3.56.63,2.62,2.52-.44,1.33-.82,2.23-1.08,2.64-.23.36-.52.31-.51-.14h0ZM53.48,151.81l-4.71-.36c.84,5.56.88,11.68.03,16.02-.72,3.71-.73,6.44-.51,9.66.25,3.74,1.69,6.92,2.05,10.89.26,2.88-.32,5.88-.83,8.75-.86,4.78-.68,5.28-.56,10.89.12,5.2-.32,5.02-.59,4.71-.04-.05-.08-.97-.07-2.06,0-1.09-.06-3.77-.11-5.63-.11-3.71.26-6.99.53-8.34.55-2.75,1.17-5.56.79-8.6-.78-3.84-1.87-7.67-2.25-11.37-.47-4.56.69-9.14,1.07-12.45.37-3.2-.02-8.73-.78-11.03-.13-.77-.75-1.76-.75-1.76-.71-.11-1.42-.22-2.42-.22-.06,21.97,0,43.94.02,65.91l4.39,4.5,4.52-4.74.2-64.77ZM53.79,177.01s6.71,4.26,14.1,8.45c-.7-4.79,1.53-5.51,3.63-6.07-.5-9.26,7.18-7.36,8.36.68h.76c1.33-4.01,2.65-6.77,5.68-7.43,2.35-.51,4.67,1.13,5.25,5-.1-.27,7.79-5.11,8.01,5.12,3.58-2.46,6.14-.33,7.18,2.78,1.51-2.55,5.3-2.66,6.51-2.84.42-.54,1.17-.84,2.52-.83,1.16-.07,2.72-1.02,3.52.14,1.22.21,2.15-.03,3.19.86.83.7,1.75,2.25,3.13,1.18,2.63-1.4,5.59-2.03,7.94-3.72,0,0-.62-.89-.44-.76.07.05.36.47.8.66.16.07,1.6-.89,1.6-.89-9.8-12.46-17.86-36.79-12.54-59.3.15-.38-.44-.53-.73-.67.09-.17,1.53.06.92,1.49-.62,4.31-1.31,8.99-1.47,12.56,0,.44.03.83.03.83,21.97,11.19,19.28,35.42,13.63,43.86l.89,1.31c.39.29,17.28-10.58,16.73-11.03l3.2-1.76-.52-47.52-12.64-1.07s.13-.4.29-.5c.12-2.9-.12-7.19,0-10.78.05-10.26.14-13.75.02-14.04-3.9-2.83-9.71-6.98-14.6-8.99.2.06-.08,4.25-.23,4.49-4.58,1.61-2.45,3.67-4.14,5.89-1.14,1.38-3.8,1.64-5.08-.01-1.53-1.64-2.25-5.4-2.25-5.4-2.42,2.86-1.92,6.31-5.17,7.61-5.21,2.85-6.87-5.68-6.56-5.48-2,2.13-7.6,3.85-8.21-5.12-2.52,2.56-5.34,1.29-6.54-1.86-1.54.06-3.26,1.39-4.82,2.11-1.44.71-3.29,1.12-4.66,1.09-1.72.23-3.13.22-4.68-.29-.73.26-2.36-.52-2.87-1.63-.77-1-1.45-1.06-2.18-.88-2.5,1.46-5.19,1.81-8.14,3.33-.18.14.26.41.11.36-.06-.02-1.55.81-1.55.81,14.97,21.73,15.79,43.67,12.65,59.22-.12.54-.19.93.13,1.35-.47-.09-.48.06-.57-.27l1.56-13.05c.05-1.58.22-1.46-1.03-2.05-1.16-.54-2.26-1.07-3.22-1.72-3.65-2.99-7.78-6.66-9.79-11.25-5.74-9.86-3.84-21.62.45-30.94l-1.07-1.23c-12.55,6.94-19.96,14.43-19.96,14.43l.05,46.63,12.9,1.64-.07,25.51ZM47.57,145.87c-.41-.5-1.47-.59-1.91-.21-.1.09-.32.59-.38.57-.58-.17-.99-.3-1.07-.84l.62-1.03c.49-.82,1.2-1.11,2.39-1.42.42-.11,1.06-.21,1.29-.31.9-.43,1.21-1.35.3-.94-.66.2-1.59.13-1.71-.53-.1-.55-.52-.77-1-.7-.87.23-1.67.74-2.45,1.24-.34.23-.99.75-.99.75-.1.18-.48-1.12-.13-1.5.44.06.82.06,1.24-.12,1.07-.47,2.09-1.04,3.17-1.49.69-.3.75-.27.57-.81-.09-.2-.17-.86-.05-1.2.13-.37.11-.55-.1-.71-.48-.36-1.65-.02-3.28.84-.5.26-.83.37-1.14.65.2-.57.08-.68.08-1.27.67.09,1.27-.2,1.8-.51.44-.25.93-.5,2.14-.67.33-.05.18-1.38-.2-1.76-.35-.36-1.1-.37-2-.08-.81.2-1.81.41-2.36,1.37-.7.73.02-1.21,1.29-1.99.56-.01,1.79-.31,2.08-.38.49-.12.57-1.4-.14-1.94-.45-.43,1.63-.44,1.59-.31-.03.08-.05.62.11.76.89.3.89,1.1.96,1.44,1.03,1.86,1.53.69,2.24.05-.15,4.05,1.13,4.51,1.3,4.77-1.76,3.63-.43,3.72,1.22,4.55,0,0-.63.28-1.05.25-.66-.04-1.92.82-2.47,1.32-.3.28-.31.05-1.53,0-1.14-.04-1.23.06-1.75.31-1.03.5-1.02.98-.02.79,1.07-.2,2.12.52,2.24,1.5.08.18,0,.51,0,.5-.22-.05-.73.05-.72-.07,0-.12,0-.56-.2-.87h0ZM49.13,140.96c.29-.2.34-.79.09-1.02-.23-.21-1.21-.1-1.48.17-.62.54.52,1.45,1.4.85h0ZM49.76,138.52c.36-.31.4-1.05.09-1.48-.53-.73-1.91-.29-1.98.63-.08.98,1.14,1.5,1.89.86h0ZM49.31,135.18c.07-.81-.66-1.32-1.33-.94-.83.48-.33,1.48.71,1.42q.58-.03.61-.49h0ZM46.88,131.9c-.39.21-.41.71-.04,1.04,1.46.89,1.01-1.49.04-1.04ZM148.54,136.73c-.64-2.6-2.4-.02-2.4.01-.06-2.66.39-3.85-1.42-4.76,1.82-3.04,1.44-3.46-.49-4.62.18.02,2.56-.57,2.96-2.07.09.07,3.73,1.06,4.19-1.13-1.1.55-3.26.64-3.29-1.73.2-.07.72.05.67.12-.29,1.51,2.21,1.89,2.62.69,0,0,.84.62,1.21.72.04.03-1.14,1.83-2.21,2.11-1.93.71-2.6.9-2.6,1.32,0,.16.32.19.89.32,1.2.09,1.18.38,1.33.82.14.39.28.47.68.43,1.37-.5,2.06-.77,3.02-1.82.12-.03.25,1.11.33,1.15.01-.18-.97.14-2.48,1.11-1.23.8-1.71.91-1.87,1.13-.12.16.18.66.21,1.21.03.46-.25.68-.05.82.24.17.6.14,1.09,0,1.06-.28,1.85-.75,2.8-1.4-.2.43.14,1.5.14,1.5,0,0-.47-.37-.86-.18-.75.36-1.96.86-2.29.94-.32.08-.45.13-.58.24-.15.14-.13.49-.13.99,0,.35-.09.68.11.79.45.16,1.35.11,2.27-.25.39-.19,1.22-.69,1.22-.69l-.26,1.49c-.35-.43-1.35-.11-2.02.18-.34.12-.44.35-.52.68-.15.56.17.94.54,1.12.25.12.62.07.62.07-1.74.73-1.39,1-2.4.44-.44-.52-.87-1.08-1.03-1.76h0ZM150.36,136.73c-.29-.37-.79-.58-1.08-.43-.26.15-.17.47-.08.72.22.68,1.74.46,1.16-.28h0ZM149.35,134.87c.41-.59-.04-1.38-.79-1.39-.52,0-.8.36-.8.81.01.86,1.25,1.07,1.59.58h0ZM148.51,132.63c.75-.23.98-1.03.46-1.62-.37-.42-1.53-.47-1.84-.09-.79.96.1,2.1,1.38,1.71h0ZM149.14,129.67c.44-.25.53-.67.14-1.14-.71-.67-1.95-.15-1.55.83.2.48.87.62,1.41.31h0ZM58.44,107.26c.67-.27,1.15-.84,1.85-1.28.47-.28.33-.24-.27-.63-.48-.24-1.43-1.31-1.52-1.05-.22.45-.19,2.94-.05,2.96ZM75.26,133.28c.03-.51.08-1.27.07-1.83.09-1.07-.08-.76-.61-.41-.39.28-1.01.69-1.25.83-.96.53-.84.56.51,1.27,1.13.56,1.26.51,1.28.13h0ZM73.95,130.78c.92-.64,1.22-.97,1.27-1.68,0-.82-.08-1.12-.74-.55-2.23,1.95-4.53-1.87-2.49-3.99.42-.43.95-1.11.95-1.28.03-1.23-1.22-.04-2.25,1.65-1.13,1.54-1.84,3.46-.85,5.3.8,1.35,2.57,1.62,4.1.55h0ZM68.88,128.3c-.04-.6.11-1.28.18-1.48.25-.7.24-.79-.9-.21-.45.17-.99.3-1.2.3-.93,0-.7.32.63,1.54,1.34,1.23,1.38,1.34,1.28-.16h0ZM72.04,122.4c.14-.37-.15-.51-.43-.44-.02,0-.51.41-1.08.9-1.73,1.51-3.01,1.68-3.87.54-.87-1.17-.51-2.55,1.44-4.13.86-.7,1.07-.75.65-1.05-.31-.23-.33-.2-1.57.73-2.49,1.86-3.24,3.14-2.99,4.99.05.76.41,1.16.76,1.46,2.38,2.33,5.67-.88,7.09-2.99h0ZM74.56,123.5l-.15-2.57c-2.53-2.41-4.94-6.53-5.77-9.95-.85-3.03-.17-9.37-.04-8.9l-1.37-2.86c-1.19,3.04-1.71,7.67-.42,12.4,1.1,4.01,3.3,8.86,7.75,11.88h0ZM63.88,122c.81-1.71.83-1.52-.73-1.54-1.78-.02-1.58-.26-.58,1.42.8,1.34.67,1.46,1.3.12ZM64.95,119.66c1.02-.36.79-.28,2.15-1.25,1.56-1.12,1.62-1.73.06-.87-2.01,1.11-3.77.82-4.43-.62-.58-1.29.63-2.89,2.64-3.52.68-.21,1.05-.4,1.05-.73,0-1.01-3.41.34-4.81,1.86-2.71,2.94-.34,6.44,3.35,5.13h0ZM60.56,115.08c.09-.15.34-.52.56-.9.96-1.23.15-.86-.7-1.2-.45-.18-.91-.37-1.18-.32-.51.09.17,1.17.34,1.88.46,1.57.41,1.52.98.55ZM64.19,112.26c1.72-.19,1.9-.37,1.9-.76,0-.39-.21-.32-1.07-.18-2.29.35-3.8-.29-4.13-1.64-.34-1.39,1.21-2.71,3.28-2.63,1.12.04,1.86-.38,1.18-.8-.35-.21-3.43-.17-4.13.06-2.05.66-2.88,1.91-2.69,3.65.28,2.15,1.35,2.76,3.94,2.61.5-.03,1.13-.25,1.74-.32h0ZM65.53,105.26c0-.34-.49-.38-2.11-.65-2.16-.35-3.13-2.56-1.82-3.89.49-.5,1.67-.72,2.33-.59,1.43.29,2.3.61,2.31.08,0-.48-.41-.51-3.09-1.13-4.04-.94-6.26,3.44-3.03,5.58,1.23.81,5.41,1.28,5.42.61h0ZM66.53,98.99c0-.17-.13-.3-.44-.43-.45-.19-.74-.23-1.75-.97-1.33-.99-1.74-2.93-.85-4.01.86-1.01-.69-2.2-1.93-1.06-1.29,1.18-1.18,3.04.3,4.5,1.37,1.35,4.66,2.76,4.66,1.97ZM59.98,98.73c1.41-.73,2.41-.31,1.34-1.31-.6-.62-1.12-2.37-1.54-.88-.32.89-.56,2.45-.57,2.61.09.11.07-.08.76-.41ZM109.68,94.95c-1.6-.44-2.69-2.49-2.29-4.46.23-1.11,1.18-3.74,1.37-3.9.71-.62.61.2-.04,1.63-.59,1.46-1.05,2.63-.87,3.5.26,1.24.71,2.18,1.88,2.49.82.22,1.59-.16,2.11-.56.69-.54,1.34-1.92,2.12-3.83.25-.54.58-2.19,1-1.18.2.52-1.46,3.99-2.09,4.87-.78,1.11-2.11,1.76-3.2,1.45ZM119.33,93.79c.78.82,2.1,1.24,2.96.94,2.11-.82,3.07-3.02,2.27-6.56-.4-1.98-.75-3.22-1.1-3.46-.17-.12-.36.1-.52.38-.15.25.08.59.32,1.53,1.01,3.93.74,5.71-.49,6.46-1.79,1.09-3.32-.17-3.83-2.97-.08-.43-.33-1.32-.33-1.32-.14-.39-1.24-.3-.84,1,.12,1.01.96,3.42,1.57,4ZM128.39,83.49c-.03-1.38-2.66-7.39-2.84-6.75,0,0-.01,1.4.09,1.96.04.21.18.4.29.62,2.29,4.51,1.94,7.69-.05,8.39-.68.34-.82.67-.52,1.02.61.74,2.15-.72,2.45-1.25.75-1.18.65-3.34.59-3.99ZM90.02,82.47c.86-1.06,2.76-4.74,3.34-6.67,1.8-5.74,3.68-12.34,4.21-18.44.06-.77.09-1.94.13-2.04-.14-.17-1.03-.08-1.33.09-.14.21-.05.66-.1,1.26-.8,6.86-2.29,13.11-4.49,19.47-.96,2.76-1.86,4.58-3.02,6.5-.2.34-.46.68-.56.88-.29.47-.08.77.26.57.6-.38,1.12-1.1,1.56-1.62h0ZM87.07,84.13c2.75-4.19,4.71-9.21,6.23-15.14.96-3.84,1.81-7.72,2.32-11.68.1-.84.19-1.41.04-1.66-.37-.11-1.07-.04-1.31.16-.15.25-.05.74-.19,1.88-.35,2.95-.88,5.9-1.77,9.78-2.35,8.57-4.51,13.37-7.35,17.57-.23.35-.43.58-.41.73.03.22.31.2.76-.11.59-.51,1.26-.96,1.68-1.52h0ZM82.88,86.36c1.35-.84,3.72-4.52,5.4-8.48,1.88-4.67,3.45-9.95,4.49-14.52.45-2,1.08-7.01.99-7.34-.11-.39-1.42-.07-1.24.2,0,0-1.31,8.04-2.72,12.48-2.61,8.23-4.87,13.81-7.31,16.5-.32.35-.95,1.04-.95,1.04,0,0,.01.31.22.35.49.1.81-.06,1.12-.23h0ZM80.81,86.03c3.04-1.88,6.6-10.66,9.51-21.68.5-1.89,1.41-8.2,1.41-8.2,0,0-1.21.05-1.45.33-.23.38-.2,1.35-.54,3.66-1.31,6.97-3.28,13.33-6.24,19.62-1.28,2.79-3.41,5.41-4.76,6.16-.75.42-.97.88-.42.91.93.04,1.01.25,1.68-.15l.8-.65ZM122.48,184.23c-2.28,0-4.22,2.41-5.94,5.45-3.67,6.23-6.14,16.64-6.74,22.18l1.38-.29c-.21.11,2.59-14.73,6.85-21.08,2.3-4.01,2.21-4.07,3.5-4.44,1.63-.46,2.95,1.49,2.13,2.67-.29.4-.62.11-.52-.46.29-1.81-2.1-2.16-2.77-.38-.77,2.05,1.28,3.88,3.27,3.07,1.79-.7,2.53-3.46,1.28-5.5-.64-.69-1.58-1.3-2.44-1.23h0ZM110.48,183.97c-2.73,3.79-4.08,7.69-5.76,13.01-1.68,5.32-2.88,10.52-3.4,16.48l1.47-.21c-.05-3.84,3.75-22.1,9.09-28.94.3-.43.54-.79.52-.89-.3-.92-1.56.19-1.92.55ZM116.51,182.56c-3.54,3.21-6.37,10.21-8.23,16.69-2.02,7-2.92,13.42-2.77,13.42l1.41-.23c-.1-.41,3.95-25.08,11.47-29.57.65-.36.79-.72.24-.88-.85-.13-1.53.18-2.12.57h0ZM120.47,182.57c-7.73,1.13-12.78,27.35-12.95,29.53,0,.03-.03.2-.03.2l1.54-.35s.01-.08.02-.13c1.06-6.7,2.09-11.4,4.5-17.45,1.88-4.49,4.47-10.23,8.34-10.78.31-.05.61.09.5-.31-.24-.64-1.39-.73-1.92-.71h0ZM74.42,174.31c-2.79.79-2.88,4.5-1.02,9.23.14.36.12.55.26.69.32.31.57-.12.6-.4.05-.43-.11-1.01-.41-1.85-1.15-3.28-.87-5.16.27-6,2.92-1.67,3.71,1.75,4.15,3.33.11.38.15.91.34.94.58.09.86-.14.85-.14,0,0-.77-2.95-1.25-4.05-.76-1.79-2.58-2.17-3.79-1.74h0ZM54.16,177.81l-.03,39.04-5.35,5.56c-2.29-2.18-5.31-5.59-5.31-5.59l.09-66-1.72-.15c-.42,28.36,0,57.29-.03,85.7h15.69l13.08-22.64s.17-.27.22-.41c.16-.44.14-1.09.06-3.49-.03-.98.07-1.73-.06-1.96-.13-.23-.41-.07-.67.06-.27.13-.42.09-.28-.26.08-.2.34-.63.57-1.04.73-1.33.91-1.76.67-3.24-.06-.36-.36-.67-.63-1.1-2.2-3.6-3.1-8.93-2.01-12.84.35-1.73.22-2.08-.53-3.42l-13.78-8.21ZM123.36,135.83c-1.44-.82-1.41-.8-1.42.75,0,1.16.03,1.44.42,1.28.57-.32,1.26-.61,1.78-.86,1-.38-.27-.87-.78-1.17h0ZM129.05,139.85c-1.12-.99-.7-.87-1.02,1.35-.19,1.34-.44,1.38.82.93.71-.27,2.18-.1,1.52-1.03,0,.02-1.1-1.05-1.32-1.26ZM84.23,173.99c-1.71,1.15-3.46,6.7-3.46,6.7-5.98.79-8.48,7.3-8.75,12.74-.21,4.29-.47,9.3-.08,9.73,3.92-1.95,5.43.3,5.8-.31.17-.27-.87-1.14-2.17-1.93-.3-.18-.77-.51-.95-.68-.48-.44.95-.06,1.85.62,1.15.87,1.34.69.84-1.85-.54-2.75-.63-3.09,1.28-4.18.76-.44,1.2-.81,1.75-1.49.44-.54.55-.68.39.12-.28,1.38-1.39,1.99-2.39,2.55-.5.28-.7.85-.71,1.34,0,.5.51,3.19.75,4.05.22.82.3,1.64.47,2.47.45,2.16.48,2.59.25,4.16-.13.92-.2,1.44-.15,2,.04.51.11,1.19.11,1.19,0-.02-1.07-1.22-3.41-.19-1.69.74-3.02-.03-3.97-.58-.22.85-.17,1.78-.14,2.75,9.73,1.97,18.05,1.71,25.05.9.18-2.29,1.06-9.59,2.92-16.16.77-2.74,1.64-5.62,2.63-7.55.67-1.31,1.36-2.2,1.6-2.35.08-.05.08-.08.08-.11v-.21c-.02-.43-.12-1.09-.45-1.38-.81-.71-2.1.21-2.52,1.8-.37.95-2.07,5.08-2.19,5.01-.1-.07-.33-.07-.25-.39.65-1.67,1.54-3.44,2.04-4.94.69-2.16,2.2-3.3,3.33-1.94.39.47.54.9.72,1.05.13.11.31.04.42-.15.42-.71-.56-2.32-1.62-2.64-1.52-.47-2.66.77-4.39,4.76-1,2.31-1.18,2.89-1.34,2.71-.04.02-.3.02-.2-.43.21-.96,1.53-3.75,2.49-5.52,1.42-2.62,4.06-2.83,5.17-.56.17.31.18.72.37.99.34.49.9.39,1.04-.41-.15-.53-1.08-2.45-1.72-2.78-1.48-1.13-3.28-.91-4.8.59-.34.34-.7,1.03-1.71,3.29-1.48,3.62-1.52,3.64-1.92,3.05.6-1.76,2.16-4.63,2.79-6.39.12-.26.14-.54.14-.81-.04-1.28.15-3.54-2.29-5.14-2.08-1.24-4.83.06-5.76,2.51-.72,1.87-1.24,3.16-1.6,3.43-.51.37-.41-.15-.36-.34.72-1.69,1.73-3.41,1.9-5.11.1-4.62-4.12-6.32-6.86-3.99h0ZM62.44,87.49c3.29-1.7,5.55-2.55,8.9-3.65.45-.22.53-.27.04-1.33-2.13-4.67,3.71-8.39,5.69-3.81.26.61.33.95.59.66.49-.71,1.07-1.72,1.67-2.86,2.23-3.83,3.24-8.21,4.43-12.07.49-2.27,1.18-4.64,1.38-7.07-4.43-8.55-12.21-24.21-12.21-24.21h-31.11v68.51c8.67-8.02,14.56-10.92,20.62-14.17h0ZM97.33,84.97c.38-.44.7-1.17,2.05-4.24.24-.55.62-1.4.78-1.79.2-.72.96-1.17.59.12-.08.28-.23.66-.46,1.16-.45.89-.87,1.99-1.19,2.7-1.72,3.83-1.64,6.06.28,7.72,1.44,1.53,4.46,1.7,6.07-.77.24-.4.46-.91.52-1.09.7-1.88,1.21-2.82,1.35-3.01.72-1.01.83.24-.24,2.16-1.22,2.2-1.25,4.58-.19,6.26,1.57,2.49,4.55,2.56,6.42.56h0c.97-1.26,1.75-2.87,2.37-4.93.14-.46.28-.79.38-1.06.16-.41.38-.56.96-.69,3.98-.85,7.32-5.38,7.8-10.32.06-.67.23-1.85.3-2.56.12-1.4.13-8.66,0-9.1-.07-.23-.19-.36-.45-.35-.2,0-.48.08-.88.24-1.31.52-1.92.65-3.18.15-.42-.17-.7-.22-.88-.21-.56.05.18.94,1.8,1.92.69.42,1.24.98.68.94-.16-.01-2.12-1.13-2.39-1.32-.89-.61-.66.16-.2,2.17.62,2.7.26,3.45-1.66,4.51-.36.2-.83.61-1.07.87-1.02,1.67-.76.44-.24-.45.88-1.02.34-1.36-1.46-.66-2.05.8-2.97.22-3.55-1.05-.65-1.43.57-3.26,1.59-3.23.33.01.27.14-.22.51-.59.44-.86.87-.92,1.63-.12,1.54.87,2.2,2.26,1.16.66-.49,1.17-.83,1.67-.95.49-.12,1.23.08,1.23.52,0,.18-.02.62.01.72.13.49.84-.2,1.14-.45,1.05-.87,1.01-1.04.73-2.45-.47-1.97-.7-3.78-1.15-5.78-.24-1.05-.28-2.23-.13-3.3.07-.54.26-1.64.3-2.39.04-.75,0-1.83.02-1.83,1.04.88,1.46,1.04,2.48.61,1.57-.71,2.57-.64,3.89.06.49.26.94.44.94.44l.06-2.26s-1.23-.28-3.49-.61c-6.82-.99-20.82-1.2-21.34-.29-.13.23-.26,1.85-.64,4.1-.83,4.67-1.75,9.33-2.99,13.89-.25.93-.5,1.3-.37,1.33.05.01.31-.35.42-.5.66-.85.16,1.17-.85,3.6-.09.22-.16.46-.17.53,0,.15-.63,1.84-1.06,2.86-.27.64-.49.83-.49.42.3-1.4,1.11-3.21,1.23-4.46-.71,1.13-1.73,2.99-2.51,4.11-.14.3,0,.39.13.76.47,1.38,1.6,1.51,2.25.25.36-.7,1.5-3.33,1.89-4.48.41-1.18.69-1.81.82-1.89.27-.16.32.52-.16,1.64-1.46,3.4-2.08,5.3-2.8,6.01-.55.55-1.51.51-2.04-.46-.9-1.65-1.67-1.1-.84.59.86,1.74,2.81,1.91,3.83.34.34-.52,1.92-3.88,2.42-5.24.28-.76.58-1.36.67-1.4.53-.23-.08,1.51-1.6,5-.5,1.35-1.29,2.76-2.37,3.19-2.62.64-2.97-.9-3.88-2.65-.44-.44-.84.26-.67,1.03.27,1.25.79,1.74,1.58,2.36,1.66,1.17,3.96.36,4.8-.97h0ZM109.01,92.26c-.24-.58-.2-1.17-.08-1.73.27-1.24.73-2.45,1.26-3.5.86-.45.2,1.34.1,1.61-1.04,2.4-1.13,3.32-.17,3.6.83.24,1.27-.33,2.06-2.47.4-1.1.56-1.59.71-1.65.3-.13.45,0,.43.34-.52,1.41-.92,2.89-1.78,4.07-.83.77-2.09.78-2.52-.26h0ZM101.23,90.42c-.36-.08-.98-.59-1.41-1.03-1.47-1.49-1.22-3.54.59-7.41.14-.3.67-1.47.84-1.85.3-.69.6-.42.6.04,0,.13-.45,1.2-.91,2.19-2.01,4.35-1.94,6.12.01,7.15,1.9,1.01,2.76.43,4.27-2.89.88-2.49,1.31-2.53,1.26-1.59,0,.35-1.06,2.74-1.75,3.85-.99,1.61-1.85,1.9-3.51,1.54h0ZM101.38,88.32c-.75-.51-1.05-1.79-.61-2.83.4-.86,1.43-4.16,1.91-4.34.78-.03.36.69-.6,2.72-1.14,2.69-1.1,3.4-.22,3.82.81.38,1.2-.4,2.4-3.54.19-.49.45-1.01.61-.9.19-.02.52.14-.11,1.57-.15.34-.4,1.05-.68,1.72-.82,1.94-1.75,2.44-2.7,1.79h0ZM114.86,82.62c-.33-.19-1.87-.86-1.64-1.41.03-.05.12-.01.16.02,1.41,1.05,3.16,1.31,4.99-.14.31-.3.54-.1.37.28-.55,1.22-3.02,1.74-3.88,1.25ZM110.33,80.85c.04-.12.17-.46.28-.93.17-.7.13-1.22.28-1.13.64.38,1.78.39,2.34.01.61-.41,1.86-.54,2.31-.21.65.47.98.25,1.43-.14.51-.44.52-.25,1.45.1.68.26.95.44,1.24.38.11-.02.34-.3.41-.29.22.04.25.74.45,1.54.18.71.08.88-.49.45-.42-.31-1.65-.46-2.91-.03-.94.32-1.16.19-1.85.06-1.72-.32-2.96-.57-4.24.25-.68.44-.93.67-.7-.07h0ZM106.05,77.36c-.83-1.85,1.08-4.3,2.77-3.44.56.29,1.06,1.37.23.88-3.83-.86-2.87,5.36,1.24,2.08,2.73-2.01,4.67-2.32,4.83-.38-.08.71-.65.6-1.08.67-1.13.18-1.55.38-2.87,1-2,.7-3.95,1.27-5.12-.81h0ZM121.04,78.22c-.93-.27-1.75-.67-2.72-.87-.97-.19-1.4-.74-1.23-1.5.18-.78,1.15-.86,2.6.12,1.61,1.09,2.78,1.35,3.37.94,1.19-.83.55-2.18-.59-2.53-.85-.26-.23-.63.69-.33,1.48.62,1.51,3.59-.01,4.2-.51.21-1.41.15-2.11-.04h0ZM107.99,68.4c1.09-.74,2.14-1.41,2.51-1.86.2-.23.74-1.02.32-.78-2.22,1.48-4.79.25-6.66-.76-.9-.46-.68-.26-1.36-.21-.47.03-.84.14-.92-.23-.04-.16-.3-.09-.47-.11-.69-.08-.25-1.09,1.19-2.2,1.71-1.31,3.2-2.17,4.68-2.53,1.54-.37,3.1-.16,4.25,1.07.44.47.4.78.81.5.92-.66.93.22.15,1.03-.53.56-.34.71.31,1.24.31.25.06.49-.12.86-.07.23-.01.47-.05.64-.15.79-3.4,3.59-4.58,4.07-.81.17-.39-.51-.08-.73h0ZM110.25,63.26h-.54c-.61,2.09-1.75,2.8-2.69.3l-.43.05c-.02,2.11,3.26,3.44,3.66-.35ZM106.7,65.21c-.22-.41-.47-1.36-.71-1.38-.63-.03-1.51.1-1.3.53.33.69,2.27,1.33,2.01.85ZM111.05,64.84c.58-.39.71-.66.33-1.09-.49-.55-.75-.27-.9.61-.13.76-.04.88.58.47ZM103.12,63.38c3.92-1.96,5.4-2.22,6.99-1.73.37.11.69.34.9.33.76-.05.28-1-1.09-1.54-1.56-.62-2.55-.34-5.55,1.4-1.76,1.01-3.19,2.52-1.25,1.54h0ZM114.47,61c-.06-.12-.29-.9-.36-1.18-.07-.29-.13-.58-.2-.58-1.82.32-3.41-.05-3.84-.17-2.75-.73-5.4-.58-7.38.28-.48.21-1.08.55-1.14.61-.16.16-.39-.02-.39-.22,0-.24,1.22-1.3,1.98-1.72,2.33-1.28,4.79-1.5,7.5-.69,1.76.75,2.9.63,4.02.08.55-.27.16.39-.01,1.27-.12.61.01,1.13.03,1.47.07.83-.02,1.25-.2.85h0ZM155.39,236.37v-68.69c-15.61,11.91-22.44,14.28-29.77,17.2,2.45,5.54-2.95,10.28-6.05,4.65-3.19,3.97-7.59,17.86-7.74,22.48,0,0,8.49,16.26,12.63,24.36h30.94ZM98.66,213.85c.28-3.46.95-9.32,3.03-16.14.87-2.86,1.92-6.14,3.41-9.08.59-1.03.63-1.42,0-1.05-.4.23-2.21,2.5-2.46,3.07-2.79,6.51-4.07,14.33-5.09,20.3-.23,1.34-.3,3.01-.3,3.01l1.42-.11ZM100.7,213.57c.66-8.4,3.45-19.73,7.64-27.12.39-.7.88-1.31.86-1.56-.05-.72-1.67.52-2.92,2.64-1.4,3.07-2.8,6.34-3.87,9.97-1.51,5.12-2.62,9.84-3.05,16.26l1.33-.19ZM104.72,212.87c.42-4.84,1.78-9.28,2.91-13.72,1.39-5.44,3.25-9.44,5.41-13.04.69-1.16,1.51-2.24,2.29-3.34.1-.13.2-.37.18-.47-.5-.1-.9.07-1.28.31-.54.33-1.3,1.18-1.74,1.8-3.08,4.35-4.74,9.43-6.27,14.56-1.48,4.93-2.54,9.67-2.75,14.13l1.26-.23ZM77.06,209.16c.62-.05,1.02.08,1.2-.11.18-.18.12-.67.18-1.29.12-1.33,0-1.26-.76-.4-1.24,1.42-3.51,1.97-4.86,1.11-.68-.43-1.15-.74-1.22-.37-.07.42.03.74.32.97,1.64.83,3.19.26,5.14.09ZM75.6,208.14c.86-.32,1.74-.83,2.23-1.6.47-.74.46-.85.11-.71-1.75.95-2.9,1.44-4.47,1.17-2.12-.36-2.21-.06-.81.91.92.64,1.68.65,2.94.22ZM72.49,205.16c.33-.27.41-1.36.15-1.42-.27-.06-.66.48-.75.92-.11.59.28.74.61.5h0ZM75.77,205.12l.56-.06c-.29-2.74-2.97-2.86-3.47.27l.43.07c.55-2.49,2.18-2.43,2.48-.29h0ZM77.54,204.68c.82-.51.54-1.13-.57-1.37-.73-.19-.69.47-.31,1.36.19.44.32.36.88.01h0ZM71.22,201.32c0-.3-.12-.8-.25-1.09-.95-2.15-1.47-4.68-1.36-7.83.08-2.26.1-2.96-.32-2.96-.59.32-.94,4.52-.19,8.02.53,2.47,2.16,5.53,2.12,3.87ZM71.2,197.9c-.06-1.18.18-3.82.06-4.4-.15-.76-.56-1.44-.79-1.63-.36-.28-.44.26-.32,1.68.29,3.33.77,5.84,1.05,4.35h0ZM71.5,191.85c.23-.47.14-.96-.37-2.07-2.03-4.38-2.29-7.38-.17-8.46.24-.12.39-.14.54-.24.67-.41.41-1.15-.59-.85-2.76.85-3.3,3.71-.98,9,1.19,2.64,1.37,3.01,1.56,2.62h0ZM72,189.36c.04-.18.11-.9.14-1.05.03-.15-.25-.57-.55-1.41-.78-2.21-.8-3.12.05-3.76.28-.18.56-.19.6-.39.07-.32.06-.85-.11-1-1.22,0-1.78.8-1.99,1.54-.32,1.18.01,2.92.97,5.06.46.67.71,1.89.9,1.01h0ZM72.93,186.51c.65-1.45.03-3.34-.86-2.7-.58.42-.61.86-.25,2.07.43,1.48.69,1.58,1.12.63h0ZM75.21,182.62c.26-.29.03-.7-.45-2.3-.41-1.38-.22-2.32.56-2.59,1.13-.31,1.53,1.73,1.76,2.59.12.66.52.85.87.39.1-.13.13-.24-.04-.96-.73-3.16-1.68-4.17-3.21-3.38-1.42.73-1.23,2.36-.2,5.8.14.46.23.8.33.85.08.04.24-.23.39-.39ZM76.47,181.54c.34-.37.32-.2-.07-1.52-.44-1.5-.67-1.82-1.14-1.3-.29.32-.14.67.19,1.9.38,1.43.49,1.51,1.02.92h0ZM135.36,176.39c2.24-1.71,1.32-4.78-1.63-5.92-.35-.13-.73-.3-.85-.36-1.36-.72-2.41-.94-2.41-.38,0,.33.41.5,1.7,1.2,1.92,1.04,2.36,2.23,1.41,3.74-.68,1.09.6,2.33,1.79,1.72h0ZM137.39,172.65c.19-.88.48-1.63.62-2.14.19-.8-.06-.61-.53-.49-1.24.71-2.12.32-1.52,1.3.67,1.3,1.22,2.3,1.43,1.33ZM137.24,169.58c1.54-1.02,1.88-3.68.45-4.95-.34-.3-.94-.7-1.65-.94-1.46-.49-3.56-.72-4.33-.46-.17.22-.17.56,0,.66.21.09.6.15,1.16.21,2.14.24,3.2.95,3.1,2.63-.11,1.73-1.36,2.4-3.62,1.85-1.22-.29-1.78-.15-1.29.16.58.37,1.83.87,3.06,1.13,1.05.2,2.25.28,3.14-.29h0ZM129.85,169.14c1.73-4.3,2.65-15.59-7.26-23.75l.33,2.26c5.84,5.66,7.24,12.86,6.03,19.47l.9,2.03ZM138.69,161.43c-.62.44-1.14.91-1.93,1.3-.48.24-.49.29.16.68.31.19.83.54,1.03.77.34.41.75.57.9.42-.02-.64.18-2.76-.15-3.17ZM135.76,162.25c2.01-.7,3.08-1.77,2.85-3.55-.34-2.62-2.32-3.17-6.03-2.15-1.78.49-1.94,1.42-.25.94,2.14-.6,3.82.31,3.59,2.04-.13,1.49-1.22,2.36-3.13,2.36-1.01,0-1.32.1-1.18.5.09.27,3.32.15,4.14-.14ZM132.45,156.02c3.28-1.24,4.8-3.18,4.06-5.34-.88-2.55-3.74-2.57-6.62-.2-1.34,1.09-1.14,1.49.16.94,1.69-.86,2.77-.99,3.46-.31,1.25,1.23.41,3.38-1.49,4.15-.92.42-1.21.65-1.21.96,0,.48.16.37,1.64-.19h0ZM137.98,155.98c.08-.75-.69-3.37-1.02-2.77-.09.16-.39.9-.78,1.28-1.13,1.12-.91.69.21,1.04.62.19,1.5.68,1.6.45ZM129.31,150.39c3.32-2.12,4.58-5.16,2.86-7.17-1.54-1.81-4.1-.76-6.48,2.54-1.09,1.51-.27,1.32,1.2-.12,1.71-1.67,3.89-.87,3.88,1.22,0,.89-1.15,2.39-2.23,3.09-.34.22-.38.55-.27.76.13.23.4.08,1.04-.33h0ZM135.12,148.17c-.17-.57-1.42-3.02-1.69-2.94-.28.63-.3,1.46-.64,2.12-.46,1-.4.85,1.07.84,1.1,0,1.23.17,1.26-.02h0ZM125.37,145.4c2.79-3.2,3.03-6.94.42-7.8-1.45-.48-3.76.68-3.76,1.87,0,.74.12.88.71.61,2.46-1.01,4.41,1.6,2.15,4.61-.55.87-.62,1.09-.46,1.27.19.21.34.13.95-.56h0ZM155.39,118.07V33.15h-16.31l-12.95,22.56-.02,5.54c0,.19.29.31.48.07.74-.63.45.03-.39,1.46-.86,1.44-.59,2.63.34,4.16,1.98,3.26,3.02,9.24,2.17,12.41-.32,1.19-.39,1.68-.18,2.34.24.76.38,1.17,1.07,1.66.6.46,5.52,2.58,13.46,8.23l-.04-39.8,5-5.3,5.28,5.59.18,65.72c0,.69,1.91,1.32,1.91.29h0ZM152.52,52.25l-4.42-4.55-4.37,4.49c-.02,21.41.11,65.34.11,65.34l4.34.35s.32-1-.09-3.59c-.61-3.89-.57-8.64.41-15.86.61-4.43,0-8.27-.92-12.32-.8-2.7-.83-5.19-.69-7.6.31-3.85,1.27-6.75,1.38-12.28.07-3.15-.07-6.24.04-10.13.04-.52.24-.46.28.08.13,3.52.26,6.86.29,10.3-.1,4.47-1.08,9.07-1.19,13.16-.08,2.84-.12,3.82.96,7.27,1.7,5.42.58,13.76.56,13.91-.72,5.34-1.25,12.17,1.19,17.28l2.36.23-.23-66.07ZM122.1,92.63c1.3-.66,1.56-1.83.86-4.65-.13-.5-.27-1.1-.32-1.33-.15-.7-.43-.77-.81-.22-.23.33-.02.41.33,1.96.52,2.34.22,3.12-.57,3.11-.7,0-1.24-.64-1.44-2.16-.07-.52-.17-.87-.28-1.08-.19-.35-.42-.29-.6.1-.24.5.21,2.55.8,3.54.65,1,1.09,1.21,2.03.73h0ZM121.75,90.53c.28-.58-.07-2-.25-2.93-.17-.52-.35-.65-.66-.56-.46.13-.44.68-.27,1.61.34,1.88.53,2.11,1.18,1.88ZM125.71,87.14c1.49-.94,1.63-2.56.63-5.52-.41-1.21-.92-2.06-1.21-2.07-.11.77-.21,1.18-.09,1.48.12.28.31.71.45,1.07.85,2.18.62,3.43-.2,4.11-.77.64-.28,1.17.41.92h0ZM76.87,86.01c3.5-.83,6.66-7.05,8.65-12.6,1.81-5.59,3.74-11.73,4.04-16.85,0,0-1.32.07-1.49.37-.15.3-.22.94-.36,1.86-.91,4.71-1.64,8.29-3.23,12.72-1.11,3.07-2.31,6.55-5.3,11.23-.98,1.31-2.11,2.12-3.52,2.33-.36.06-.97-.02-1.12.1-.27.21-.03.68.67.88.62.17,1.25.06,1.66-.03h0ZM125.1,85.28c.53-.63.59-1.37-.01-2.95-.17-.44-.24-.69-.44-.63-.42.13-.92,1.36-.62,2.4.38,1.35.6,1.75,1.08,1.19h0ZM75.65,84.29c1.03-.15,2.32-1.05,3.26-2.47,1.93-2.79,3.26-5.96,4.25-8.43.79-1.99,2.22-6.28,2.6-7.84.82-3.3,1.27-5.43,1.65-7.8.03-.22.07-.56,0-.68-.41-.12-1.3-.05-1.57.25-.49,3.79-1.63,7.59-2.47,10.76-1.41,5.38-5.42,13.98-7.61,14.39-1.18.22-2.53-.91-2.31-2.07.13-.71.22-.98.54-1.16.76-.3,1.21.28.37.65-.97.93.78,2.36,1.85,1.36,1.82-1.69-.85-4.92-3.04-3.44-2.42,1.65-1.8,4.5-.28,5.85.77.68,1.66.78,2.75.62h0ZM92.79,80.43c1.5-1.7,2.62-3.89,3.44-6.64,1.77-6.17,3.24-13.24,3.77-18.78,0,0-1.28-.15-1.56.15-.2.21,0,.41-.55,4.46-.91,5.9-2.24,11.76-4.17,16.84-.79,2.05-1.01,2.3-1.57,3.37-.78,1.51-.49,1.89.64.6h0ZM125.98,67.57c-.14-.08-.13-.03-.19.02-.2.16-.07.94.39,2.16,1.22,2.18,1.36,6.4,1.28,7.99-.02.48-.07.75.06,1.17.13.42.36.9.72.09.4-3.13.09-6.4-1-9.05-.38-.94-.76-1.86-1.27-2.38h0ZM126.91,76.79c.21-.84-.18-4.18-.67-5.35-.2-.47-.55-.51-.51.03,0,1.16-.11,3.35,0,4.01.53,1.36.95,2.22,1.18,1.32h0ZM124.15,63.31h-.58c.02,2.18-1.73,2.79-2.38.17l-.52.13c.69,3.7,3.8,2,3.47-.3h0ZM120.65,64.96c-.3-.97-.18-1.32-.93-.89-.58.33-.93.69-.11,1.12.73.34,1.23.38,1.04-.23h0ZM125.04,64.4c.24-.54.21-1.02-.15-1.02-.28,0-.36.24-.44.77-.14.93.21,1.1.59.26h0ZM125.34,60.77c.22-.08.16-.42.1-.86-.95-1.46-3.29-1.01-4.14-.72-.97.35-1.22.22-1.88-.12-.55-.11-.62.03-.76.32-.12.25-.14.74-.18,1.58-.03.71,0,1.04.22.82.87-.86,1.87-1.94,3.34-2.01,1.78-.08,3.3,1.01,3.3.98h0ZM118.88,62.75c0,.29.22.11.8-.29,2.11-1.38,3.33-1.19,5.13-.53.4.15.65-.32.21-.71-2.14-1.95-4.78-.71-6.15,1.53ZM126.51,53.78l11.42-20.89-63.64-.05,10.81,22.18c8.81-2.26,23.32-5.14,41.41-1.24h0Z"/>
        <path id="path4098-7-2-7" class="cls-4" d="M70.07,217.22c1.35-2.22,8.02,1.74,8.38,3.31,3.95-3.44,8.75-3.69,12.61.62,3.97-4.8,8.22-4.47,12.64-1.69-.49-1.08,5.65-5.87,9.39-2.83l10.1,19.9-64.72.23c3.82-6.35,7.21-13.93,11.6-19.53ZM41.8,113.42c-.35-1.08-1.77-12.13,1.83-12.41,5.82,2.86,13.26,13.07,16.7,19.31,4.27,7.74,8.58,25.52,6.2,24.75-.34-.11,7.35,8.41,7.88,9.24.87,1.37-12.97,26.87-15.26,25.95-.69-.28-5.3-3.32-5.3-3.32l.13-8.51.11-17.17-12.69-1.22.45-3.74c4.25.39,8.62,1.27,12.56.26,2.59-5.25,1.6-13.09-1.52-16.24-1.65-1.11-3.21-.76-4.88-.52-6.79-1.25-3.27-13.92-6.22-16.38ZM155.4,119.1l.04,3.14c-4.47,1.08-12.38-3.11-14.77,3.64.3,7.29,1.77,10.56,2.8,12.76.78,1.98,6.21-.28,8.13,1.72,5.5,7.48,4.2,17.45,4.25,26.42l-2.38,1.33c-16.48-10.75-29.13-44.14-30.88-53.65-.11-6.1,15.12-25.72,15.12-25.72.03-.04,5.55,3.71,5.55,3.71.13.06-.12,25.74-.12,25.62,4.35.25,8.58.72,12.27,1.02ZM122.73,95.62c-19.21,37.19-11.36,64.7,2.78,88.44,0,0-1.22.31-1.36.18-3.1-3.05-5.26-2.51-6.84-2.54-3.03-.05-3.86.95-5.6,1.14-4.43.49-4.07.61-7.84-.96-4.75-4.28-11.1-7.57-16.16-9.29-4.06.4-10.24,2.52-12.58.81,16.27-33.22,13.83-54.48-3.01-89.3,1.4.46,1.61,1.9,2.66,2.25,3.46,1.48,8.23.92,11.09-.46,4.54-2.29,9.4,3.86,23.35,10.63,1.14.65,2.58-.38,3.83-.66,2.57-.58,4.78-1.79,6.7-1.08.62.23,2.97.85,2.97.85h0ZM83.95,52.15c-.83-1.7-9.3-19.54-9.3-19.54l63.01.42-9.45,17.2c-.89.93-5.33,3.54-9.86-2.36-.09.85-6.72,6.08-12.43-.22-3.43,3.45-6.93,5.45-12.71,1.57-.13,1.08-4.63,5.94-9.26,2.93h0Z"/>
        <path id="path4094-0-9-9" class="cls-2" d="M90.84,220.74c-6.11-6.33-12.46-.62-12.32-.25-2.42-2.72-4.78-4.94-7.96-3.85,0,0,0-.95.02-.98,9.5,1.92,24.04,2.42,41.04-1.52l.87,2.02c-4.56-1.79-6.91.63-8.93,3.45-7.32-5.06-9.1-.62-12.73,1.12ZM105.08,147.09l4.32-.09c.81,13.92,11.31,35.21,11.56,35.21-.73-1.12-7.66-.24-7.61-.1-3.81-11.26-7.99-22.51-8.27-35.02ZM79.89,180.1s-1.39-3.99-2.22-5.7c4.53-8.58,8.25-17.46,10.16-27.34l3.09.03c-.92,13.63-10.76,34.34-11.03,33ZM135.46,178.28c6.8-13.6,5.63-33.2-13.67-44.04,0,0,.5-14.37,1.94-14.4.32.11,8.74-.12,8.74-.12,2.2-5.99,5.75-13.24,10.71-18.13l.12,16.06c-3.67.4-5.9,1.7-7.01,4.88l-5.08,1.25c.37,16.13,5.85,31.04,22.1,44.43-3.88,3.7-17.16,11.21-17.11,11.07l-.73-1.01ZM54.02,168.14l.14-16.73c2.46-.59,4.41.2,6.44-4.69,0,0,3.41,1.8,4.55,2.46-3.19,6.33-5.95,13.09-11.14,18.96ZM86.38,138.53l.17-8.49,7.28.23c-.62,2.88-.81,5.76.01,8.64l-7.46-.38ZM102.98,138.42c.5-2.78.85-5.57-.18-8.52l7.88.15-.19,8.46-7.51-.08ZM88,121.82c-1.31-16.65-11.61-35.5-11.75-35.1,1.21.22,3.35.88,4.53.26,1.42.26,2.66.08,2.72-.06.1-.58,9.57,24.18,8.31,34.86-.15.36-3.5.39-3.81.04h0ZM106.21,121.97c1.11-7.69,3.98-21.77,10.76-33.18.77,2.03,1.42,4.11,2.47,6-5.11,8.24-8.26,17.66-10.17,27.27l-3.06-.09ZM59.1,117.82c-3.1-7.01-16-18.05-15.34-16.93,5.34-5.3,11.3-8.67,17.24-12.08,0,0,1.06,1.11.9,1.39-3.66,6.38-5.43,19.91-1.89,27.66,3.4,8.28,9.43,13.17,15.58,17.02-.48,5.18-.71,8.92-1.86,14.06,0,0-3.86-2.25-7.03-3.7-.5-9.78-2.33-18.52-7.6-27.42h0ZM93.27,49.12c4.55,3.07,8.62,2.75,12.57-1.42,4.96,4.98,10.32,2.66,12.58.42,2.1,2.62,4.83,4.07,8.82,3.2l-.99,2.3c.24-1.22-27.54-3.22-40.98.95,0,0-.79-1.74-.7-1.75,1.17-.08,5.06,1.52,8.7-3.7h0Z"/>
        <path id="path4092-7-7-9" class="cls-3" d="M73.72,32.07l11.23,23.18s.33-.07.49-.1c15.56-3.37,27.89-3.83,41.13-1.25l11.77-21.58c-21.42-.27-64.62-.25-64.62-.25ZM74.98,33.05l62.44.08-3.51,6.38c-2.1-.72-3.28.35-3.57,2.58,0,0-.26-.12-.75-.18-3.08-.37-3.47,4.13-.59,4.67.73.14.86-.02.86-.02-2.56,2.39-4.02.78-5.22-.01-.03.28-2.3,2.16-4.43-.09,3.06.34,3.53-3.06,2.07-4.35-.31-.33-.62-.59-.62-.59.72-.69.88-1.62.41-2.67-.93-2.13-3.83-2-4.28.32-.17.9-.18,1.06-.18,1.06-2.35.17-2.82,2.62-2.02,3.99.46.77,1.47.94,2.4.89-1.25,1.97-4.13,1.3-5.41-.32-2.03,2.65-4.35,2.33-5.5.91.79,0,1.33-.02,2.05-.76,1.23-1.26.63-3.5-1.11-4.13-.34-.12-.58-.15-.6-.15.01-.02.05-.14.12-.82.43-3.91-4.85-3.52-4.34.32.06.45.17.68.17.68,0,0-.56-.03-.88.13-2.93,1.5-.91,5.63,1.35,4.57.22-.1.8-.42.88-.41-2.81,3.86-5.17,1.12-5.79.7-1.9,3.12-5.19.99-5.26.77.21.06.82-.08,1.41-.41,1.86-1.07,1.33-3.83-.12-4.43-.44-.17-.98-.19-1.58-.14,0,0,.05-.69-.01-.94-.91-3.76-5.13-1.88-4.09,1.29.09.28.34.56.34.56,0,0-.57.38-.83.64-2.01,2.01.04,5.32,2.39,3.94.3-.18.6-.55.68-.53-1.11,2.24-2.78,3.02-5.18,1.17-1.48,2.59-3.89,1.52-4.56.22,2.25.23,3.71-4.55-.61-4.71-.34-1.3-.32-3.28-3.06-2.94l-3.47-7.26ZM105.47,41.26c.5,0,.9.45.9,1s-.4,1-.9,1-.9-.45-.9-1,.4-1,.9-1ZM119.42,41.38c.53,0,.95.48.95,1.06s-.42,1.05-.95,1.05-.95-.47-.95-1.05.42-1.06.95-1.06ZM92.07,42.53c.51,0,.92.45.92,1.02,0,.56-.41,1.02-.92,1.02s-.92-.46-.92-1.02.41-1.02.92-1.02ZM131.25,43.78l-.8,1.57c-.88-.85-.27-1.97.8-1.57ZM81.15,45.94l-.79-1.62c1.42.11,1,1.23.79,1.62ZM105.35,45.06c5.36,6.77,10.16,4.77,13.31.27,1.35,3.84,4.35,6.49,9.52,3.91-.31.61-1.1,1.7-1.1,1.7-4.57,1.37-6.84-1.02-8.6-3.29-4.65,4.28-9.02,3.24-12.63-.53-3.08,4.3-8.07,5.23-12.69,1.72-2.11,3.46-5.14,4.85-8.95,3.12,0,0-.81-1.41-.88-1.5.55.51,7.57,3.74,9.28-4.03,2.44,4.6,10.45,4.84,12.74-1.37h0ZM105.89,47.85c6.03,6.25,12.35.85,12.51.46.09.35,3.53,4.9,8.5,3.19l-.81,1.53c-9.33-1.75-17.92-2.88-37.58.33,0,0,3.14-1.03,4.73-3.81.88.64,7.7,4.86,12.65-1.71ZM84.76,53.03s2.62.34,2.83.4c.23.2-2.21.94-2.22.89l-.61-1.29ZM90.08,82.86c-.16,0-.36.2-.69.56-.71.78-.87.88-1.56.99-.52.08-1.62.78-2.29,1.46-.18.18-.52.34-.94.41-.36.07-.85.16-1.09.21-.24.05-.51.13-.59.19-.35.24-.92.27-1.56.1-.62-.16-.72-.16-1.4.07-.99.34-1.64.34-2.13,0-.49-.34-1.26-.47-1.75-.29-.73.26-2.61-.99-2.6-1.73,0-.17-1.07-1.06-1.34-1.06-.95-.16-9.33,3.51-9.29,3.72,10.29,14.09,18.94,35.57,12.42,61.84l-1.15-.61c.97-4.78,1.35-9.58,1.65-14.47-19.31-9.25-20.97-30.75-13.48-44.33l-1.27-1.5c-4.54,2.69-9.16,4.21-20.38,14.66l.03,16.91c.03,15.29.02,30.18.02,30.18,4.06.5,8.54.91,12.95,1.33,0,0-.06,15.12-.16,21.03-.09,5,.08,4.69.08,4.69l14.61,8.55c-1.03-4.5,1.51-6.29,3.63-6.1-.94-4.34,1.39-6.33,4.05-5.77,1.79.38,2.42,1.47,3.45,5.1.17.59.4,1.38.4,1.38l1.02-.04c1.28-3.05,2.14-6.94,5.15-7.44,3.95-.66,5.42,2.35,5.42,5.36,3.82-3.74,8.41-.84,8.11,4.74,1.92-1.37,5.18-2.61,7.24,2.68.77-.18,1.17-1.14,2.25-1.43.41-.09,1.33-.64,1.33-.64v-.18s.87-.33,2.01-.54c.98.41.7.39,1.23-.33.59-.34,1.55-.56,2.28-.48.77.08,1.12.14,1.57-.08.71-.34,1.37-.43,1.78.09.3.37.73.19,1.2.17.93-.04,2.17.38,2.56,1.31.57.65,1.82,1.3,1.82,1.3l1.01-.26.12-.41,8.28-3.5c-16.88-20.5-16.44-47.69-12.46-61.46l1.53.81c-.81,4.08-1.73,8.27-1.61,14.35,15.2,7.52,22.76,26.94,13.54,43.9l.97,1.4c3.83-1.78,13.47-7.79,16.81-11.05l.71.06s2.02-1.45,2.91-2.23l.12-45-.71.21-.13-2.63-12.53-1.1c.16-.13.28-.19.32-.45l-.07-24.91c-.47-.79-10.96-7.61-14.86-9.2-.16,0-.05.29,0,1,.19,2.44-1.3,4.62-3.02,4.62-.62,0-.73.29-.7,1.7.04,2-.61,3.34-2.5,4.09-2.25.9-3.76-.4-5.01-5.53-.33-1.35-.97-1.01-1.58.83-.31.91-1.29,3.13-1.88,4.3-.45.9-1.17,1.3-2.15,1.77-.76.42-2.41.35-3.36-.19-1.72-.97-2.39-2.14-2.89-5.03-.07-.38-.29-.34-.85.12-3.04,2.54-7.32-.09-7.29-4.48,0-1.29-.04-1.34-.72-.72-2.06,1.87-4.87.92-5.99-2.02-.26-.69-.4-1-.61-.99h0ZM72.6,84.42c.22-.01.88.98.88.98.62.76,1.45,1.14,2.31,1.7.08-.13,10.07,14.74,11.77,35.25l4.65.03c-.87-19.93-5.82-29.51-8.09-35.65l1.67-.59c3.74,7.94,8.29,24.07,8.14,38.18h-7.68c-1.08-14.14-6.04-27.92-12.97-38.38-.48-.8-.86-1.36-.72-1.51,0-.01.02-.01.04-.02h0ZM69.66,86.53l.78,2.71s.09-.63.33-.87c1.52-1.52,2.97.48,2.28,3.19-.16.83-.46,2.48-.46,2.48,0,0-1.52-.87-2.29-1.15-2.12-1-2.82-2.96-1.2-3.18.27-.04.83-.06.83-.06-.67-.59-2.15-1.93-2.15-1.93l1.89-1.18ZM76.76,86.83c.64.4,2.29.84,3.23.44.77-.32,1.35-.14,2.14-.07.46.04,1.36-.18,1.36-.18,4.54,10.61,7.67,23.19,8.19,34.7l-3.57.02c-1.35-12.22-5.61-24.64-11.03-33.85-.24-.4-.56-1.04-.33-1.06h0ZM91.69,87.01c1.38.02,2.83,1.55,3.62,4.05.44,1.39.61,1.31,1.2,1.08,1.51-.57,3.12,1.26,1.09,1.57-1.99.36-.85,4.67-1.02,5.05-.8.16-2.32-3.51-2.28-4.6.1-2.67-2.16-4.9-3.57-3.78-.67.53-.59.91-.8.72-.63-.59-.76-2.21-.02-3.14.53-.67,1.15-.97,1.78-.96h0ZM132.8,87.93s.08,3.51-.04,4.29c-.24,2.34-2.99,2.59-3.1.72-.45.75-.76,1.68-.94,2.51l-1.95-1.49c.74-.59,1.45-1.11,2-1.84-1.45.12-2.26-1.27-1.29-2.45,1.08-1.36,4.06-1.5,5.33-1.73h0ZM60.92,89.05l.86,1.08c-7.7,15.15-4.99,34.51,13.61,44.68-.12,4.65-.66,9.35-1.66,13.71l-6.86-3.69c.05-17.13-8.69-33.45-22.65-44.18,5.06-4.51,10.67-8.48,16.7-11.6h0ZM117.08,89.17c.33,2,2.03,5.62,2.16,5.41-.02-.12-7.1,10.07-10.18,27.11h-2.63c1.72-11.34,5.17-22.05,10.66-32.52h0ZM138.92,89.65l1.4.94c-7.34,6.82-12.18,15.47-15.73,24.79l-1.86-.97c5.51-13.52,10.95-19.53,16.18-24.75h0ZM140.88,91.16c.38.03.84.57,1.55,1,.69.42.52.64-.78,1.75-1.54,1.31-1.68,1.25-1.67-.62,0-1.24.29-2.06.83-2.13.03,0,.05,0,.08,0h0ZM139.19,93.09c.08,0,.15.02.19.1.11.49.1,1.63-.08,2.74-.15.74-2.12,2.58-2.82,3.31-.28.21-.41.13-.46-.24.02-.58.07-1.35.08-2.14,0-.24-.04-.5.15-.68.97-1.27,2.37-3.07,2.94-3.1h0ZM142.85,93.69s.02,0,.03,0c.18.12.15,2.66.02,2.83-.57.16-2.11-.1-2.51-.34-.09-.29,2.09-2.51,2.46-2.5h0ZM74.08,94.51l.54,2.49s.15-.33.19-.4c1.06-1.8,2.36-.75,2.34,1.76,0,.79-.66,3.95-.66,3.95,0,0-3.99-2.13-4.3-3.06-.31-.92.13-1.73.86-1.8.27-.03.56-.06.88,0l-1.71-1.94,1.87-1ZM119.77,94.84l1.81.74c-3.78,6.81-7.67,13.55-10.51,28.9h-7.59c1.06-9.38,3.21-18.6,7.05-27.58,0,0,1.49-.51,2.33-.81,0,0-6.27,15.92-7,26.16l3.67.09c1.96-9.98,5.62-20.32,10.24-27.5ZM105.4,95.09c1.02-.04,1.77.75,1.71,2.16-.01,1.29-.12,1.48-.94.96-1.08-.68-1.94-.69-2.9.08-.53.42-1.06.77-1.06.77,0,0,.47-2.24,1.18-2.95.69-.68,1.39-1,2.01-1.03ZM101.5,98.41c-.07.76-.28,1.11-.46,1.75,0,0,.59-.26.88-.4,1.35-.7,2.75.59,2.73,2.11.06,1.01-.93,2.22-2.11,2.23-.41,0-.85-.14-1.27-.49.3,1.85.37,2.71-.85,3.63-1.02.75-3.17-.11-3.05-2.18l.08-1.27-1.03.15c-2.88.13-2.93-3.81-.61-4.42.93-.24,1.94.6,1.94.6-.44-.97-.45-2.63.14-3.39,1.46-1.89,3.78-.17,3.6,1.69h0ZM126.68,95.95c.16,1.47.69,3.08.54,4.46-.22,1.76-1.57,2.8-2.63,1.66-.13-.14-.37-.43-.37-.43-.48.67-.78,2.57-.78,2.57l-1.87-1.28s1.3-1.01,1.66-1.59c.1-.16.15-.46.15-.46-1.04.36-1.92-.82-1.64-1.86.56-1.71,3.36-2.34,4.94-3.06h0ZM139.75,97.01c.7-.02,1.78.2,2.64.3.66.13.29.54-1.18,2.13-1.35,1.46-1.31,1.32-2.35,1.31-2.43-.05-2.86.02-1.44-1.68.74-.89,1.39-1.69,1.92-1.99.11-.04.25-.06.41-.06h0ZM135.36,97.32s.06.01.08.04c.16.17.11.93.09,2.05-.02,1.2,0,1.2-.46,1.83-.58.8-1.05,1.62-1.66,2.39-.52.63-.5.56-.82-.95-.3-1.46-.13-1.92,1.56-4.04.57-.82.98-1.33,1.2-1.32ZM142.96,98.15l.02,2.96c-5.02,5.45-8.44,11.58-10.76,18.34l-1.75-.77c3.03-8.63,7.57-15.36,12.49-20.53h0ZM99.41,99.95c-.83,0-1.5.75-1.5,1.67s.67,1.67,1.5,1.67,1.51-.75,1.51-1.67-.68-1.67-1.51-1.67ZM99.4,100.47c.57,0,1.04.52,1.04,1.15,0,.64-.47,1.15-1.04,1.15s-1.04-.52-1.04-1.15.46-1.15,1.04-1.15ZM43.58,101.17c15.67,11.15,22.7,28.44,22.67,43.3l-.88-.44c-.92-20.99-11.2-33.89-22.32-42.24l.54-.61ZM136.36,101.33c.35,0,.84.06,1.54.15,1.3.08,1.46.17.56,1.31-.24.31-.71.96-1.05,1.45-.33.49-.73,1-.92,1.07-.27.1-2.55-.01-3.2-.11-.21-.03.07-.27,1.18-2.03.85-1.35.94-1.79,1.75-1.83.05,0,.09,0,.14,0h0ZM142.89,101.91s.31,9.57.09,15.67c-3.57-.15-5.67,1.36-6.55,4.21l-3.76-2.06c2.76-7.85,6.44-13.31,10.22-17.81ZM131.83,102.13c.2,0,.32.47.38,1.39.24,1.64.21,1.84-.41,2.89-.31.53-.73,1.27-.94,1.65-.36.67-.61.87-.7.54-.49-1.77-.64-2.87-.47-3.23.29-.59,1.62-2.69,1.81-2.96.13-.19.24-.28.33-.28h0ZM42.43,102.3c12.6,8.65,21.81,23.43,22.19,41.28,0,0-2.68-1.4-4.34-2.42l-.09-1.73.87-.03.28,1.96,1.92-.07-.51-4.88-3.01.32-.61-2.77.91-.22.5,1.78,1.96-.57-1.04-4.35-3.02.92-.97-2.94,1-.4.81,1.76,1.84-.71-1.74-4.36-2.78,1.46-1.41-2.85,1.09-.64.87,1.69,1.72-.99-2.13-4.01-2.64,1.64-1.33-2.21.82-.64.91,1.16,1.51-1.19-2.32-3.46-2.53,2.2-1.87-2.4.86-.81,1.29,1.28,1.44-1.39-2.75-3.33-2.41,2.44-1.79-1.73.88-1.08,1.12.95,1.19-1.56-3-2.74-2.25,2.47-2.15-1.58v-1.18c.7.3,1.44.65,2.1,1.04l1.11-1.87-3.22-2.41.69-.81ZM77.51,103.04l.48,3.05c.45-.83.81-1.4,1.79-1.08,1.17.53,1.19,2.49.2,5.5-.18.56-.41,1.04-.41,1.04,0,0-.51-.24-.86-.5-.72-.55-1.93-1.16-2.55-2.24-.65-1.13-.66-2.72.53-2.58.24,0,.7.13.7.13l-1.79-2.53,1.91-.78ZM41.74,103.95l2.18,1.56-.45.91-1.73-.86v-1.61ZM96.43,104.67c.63.98-1.59,3.87,1.32,5.02,0,0,.07.66-.54,1.07-1.42,1.15-3.47-.95-2.83-3.1.41-1.38,1.58-2.98,2.05-2.99ZM102.46,104.76s.88.71,1.05.9c1.62,1.72,1.64,4.19.17,5.06-.98.57-2.08.11-2.46-.72-.18-.39.11-.79.49-.79.7,0,1.23-1.48,1.03-3.04-.08-.62-.27-1.4-.27-1.4ZM121.57,105.34s.19,2.11.47,3.05c.85,2.62-.24,4.22-1.82,3.34-.23-.13-.63-.7-.63-.7l-.16,3.02-2.26-.73c.49-.87,1.19-1.49,1.72-2.47,0,0-.34-.01-.63-.02-1.35.05-1.85-1.61-.43-2.98,1.05-1.01,3.75-2.52,3.75-2.52h0ZM133.39,106.04c.27,0,.61.02,1.08.02,1.43,0,1.8-.21,1.17.78-.25.39-.85,1.46-1.03,1.83-.36.74-.43.98-1.04,1.12-.87.19-1.86.06-2.86.11-.22-.01.23-.84.48-1.35.61-1.25.98-2.11,1.5-2.38.21-.1.41-.13.69-.13h0ZM128.96,107.01c.17-.01.3.33.47,1.05.38,1.66.48,1.7-.14,3.07-.31.69-.85,1.85-1.07,2.34-.56,1.24-.6,1.23-.95.12-.68-2.12-.74-1.91.38-4.29.7-1.49,1.05-2.26,1.3-2.28ZM46.29,107.59l2.03,1.8-.58.62-1.12-.92-1.66,1.97,2.72,2.75,2.3-2.52,1.98,2.29-.6.57-1.16-1.24-1.74,1.64,2.59,3.39,2.61-2.21,1.64,2.38-.67.46-1.07-1.15-1.7,1.31,2.11,3.3,2.66-1.69,1.51,2.76-.84.45-.86-1.51-1.91,1.22,1.8,3.86,2.87-1.33,1.16,2.95-.88.4-.74-1.77-1.93.85,1.3,4.06,2.92-.93.71,3.01-.9.28-.44-1.67-1.86.49.78,4.07,2.97-.21.35,3.29-.92.05-.23-1.96-1.89.03c0,.69.08,2.1.08,2.1l-1.14-.59c-1.7-12.51-7.75-22.94-16.76-30.21l-.05-1.5,2.19,1.54s2.01-1.99,2.36-2.5h0ZM132.89,110.51c.63,0,.35.54-.41,2.15-.85,1.8-1.01,1.84-2.61,2.28-1.95.53-1.89.64-.84-1.85.41-.96.7-1.8,1.07-2.12.49-.42,1.43-.26,2.46-.43.13-.02.24-.03.33-.03h0ZM41.85,111.04c9.36,6.7,15.28,20.56,16.02,28.97,0,0-.25-.19-.76-.45-.71-.36-.88-.6-1.09-1.74-1.85-10.28-7.08-19-14.12-25.15l-.04-1.62ZM126.28,112.76c.4-.09,1.12,3.06.9,3.72-.16.48-1.55-.65-2.05-.89-.25-.12.88-2.78,1.15-2.84h0ZM81.13,112.9l-.04,3.27s.36-.47.54-.62c.7-.56,1.76.22,1.8,1.18.06,1.34-.13,1.88-1.09,3.74-.3.58-.75,1.31-.75,1.31,0,0-1.14-.9-2.39-2.28-1.35-1.49-1.09-3.48.09-3.49.35,0,.67.13.98.24-.25-.96-1.2-2.83-1.2-2.83l2.08-.53ZM117.73,115.35s.61.89,1.31,3.24c.67,2.24-.36,3.93-1.76,3.09-.25-.15-.51-.48-.51-.48-.1,1.09.08,3.04.1,3.06l-2.26-.44s1.24-2.19,1.33-2.73c0,0-.14.12-.76.12-2.27,0-1.8-3,.82-4.66.39-.25,1.73-1.2,1.73-1.2h0ZM130.75,115.39c.49-.02.26.5-.28,1.73-.6,1.36-.45,1.24-1.72.53-1.78-.96-1.67-1.11.58-1.79.71-.29,1.17-.46,1.43-.47ZM98.51,115.79c1.78.01,3.09,1.96,2.83,4.73-.45,4.75-.19,4.46.27,4.93.85.86-.3,1.38-1.31.56-.71-.57-.93-1.14-.9-3.76.04-3.02-.11-3.78-1.08-3.52-.61.16-.8.74-.73,2.77.09,2.85-.08,3.57-1.05,4.49-1.05.9-2.19.1-1.23-.5.44-.55.52-1.25.35-2.97-.19-1.47-.96-6.75,2.85-6.73h0ZM143.2,118.19c3.43.14,12.09.92,12.09.92l.08,2.84c-.39.26-6.85-.83-11.61-.73-1.11.02-1.9.57-2.7.11.77.36.7,4.64-2.7,3.6-2.88-1.15-1.48-5.48,2.21-6.57.95-.15,1.77-.19,2.64-.18h0ZM123.46,120.09l7.4,4.05c1.04,15.41,5.83,31.7,22.17,44.04-2.65,2.1-9.29,7.26-16.87,10.79l-.62-.74c9.01-17,2.2-35.71-13.57-44.17.04-4.72.58-9.37,1.5-13.97ZM149.5,122.67c1.42-.06,1.79.12,1.91.83.11.67.57.83,1.1.62,1.3-.53,2.1,2.04,1.02,3.17-.67.71-.55.98,0,.98,1.36,0,1.32,1.98-.06,3.1-.57.46-.57.68.03,1,1.01.55.8,1.64-.47,2.53-.69.49-.72.61-.14.78,1.44.44-.03,2.72-1.61,2.31-.65-.17-1.26-.01-1.88.44-1.69.78-1.97.94-3.8.68-1.6-.33-2.32-.91-2.73-2.47-.94-3.17-1.95-6.69-1.97-10.16-.14-2.13,3.07-4.05,4.6-4.14,1.24-.21,2.66.29,4.01.3h0ZM48.26,122.73c1.7,0,3.08,1.53,3.08,3.42s-1.38,3.42-3.08,3.42-3.08-1.53-3.08-3.42,1.38-3.42,3.08-3.42ZM82.49,123.73l-.28,2.99s.45-.39.56-.49c.8-.74,2.07.09,1.78,1.24-.09,1.02-1.68,4.05-2.31,4.68,0,0-2.54-3.07-2.82-3.68-.6-1.34.22-2.73,1.32-2.14.16.08.61.46.61.46l-.81-2.83,1.94-.23ZM48.47,123.97c-1.09.04-2.12.78-1.98,1.77.09.42.67-.19,1.24-.59.44-.31.97-.35,1.46-.11.44.17.63.63.89.98.22.3.46.54.59.39.11-.16.07-.35.04-.53-.23-1.35-1.24-1.94-2.24-1.91h0ZM131.41,124.43l1.1.62c1.48,21.78,11.41,34.59,21.84,42.22l-.83.56c-12.8-9.1-21.69-25.4-22.11-43.4h0ZM133.08,125.33s2.76,1.57,4.21,2.29l.06,1.97-.97.04-.33-1.85-2.01.16.63,4.56,3.24-.44.45,2.75-1.1.25-.56-1.69-1.86.5,1.2,4.43,2.92-1.05.92,2.9-.98.4-.63-1.7-1.92.75,1.49,4.32,3.04-1.08,1.23,2.71-.92.45-.88-1.68-1.82,1.03,2.14,4.04,2.75-1.6,1.28,2.16-1.01.75-.92-1.32-1.48,1.08,2.37,3.58,2.37-1.97,1.77,2.26-.78.77-1.21-1.36-1.43,1.42,2.82,3.43,2.45-2.36,1.74,1.8-.51.6-1.17-.81-1.55,1.83,2.96,2.86,2.35-2.86,1.99,1.63v1.2l-1.78-1-1.19,1.99,2.97,2.5-.02.98c-16.97-11.23-21.44-28.66-22.31-41.62h0ZM98.32,125.54c.73-.02,1.51.74,2.79,2.39,3.58,4.6,2.62,11.71-2.05,15.42-.68.54-.96.49-1.79-.3-4.8-4.57-5.07-10.69-.8-16.06.74-.93,1.28-1.43,1.86-1.45h0ZM115.47,126.18c.88,1.5,2,3.04,2.12,4.87-.06,1.8-1.16,2.13-2.29,1.08-.14.95.34,2.79.34,2.79l-2.05-.24s.8-1.56.84-2.53c-1.42,1.1-2.51-.33-2.32-1.49.41-1.97,1.87-3.3,3.36-4.47h0ZM98.38,127.35c-.17.01-.34.14-.61.38-1.25,1.11-2.23,2.49-2.74,3.93-1.08,3.03-.37,6.45,2.05,9.1,1.23,1.35,1.67,1.25,3.55-1.53,1.58-2.33,1.91-5.34.94-7.96-.48-1.28-1.34-2.52-2.37-3.42-.4-.35-.6-.51-.82-.49h0ZM137.84,127.91l1.59.87c2.03,14.86,8.61,23.92,15.99,30.17v1.38s-1.99-1.7-1.99-1.7l-2.37,2.75-1.92-1.75.72-.78,1.09.77,1.4-1.74-2.75-2.72-2.4,2.31-2-2.28.61-.56,1.38,1.34,1.55-1.52-2.68-3.33-2.39,2.01-1.67-2.46.73-.48.87,1.33,1.85-1.27-1.95-3.33-2.78,1.58-1.42-2.85.81-.43.92,1.6,1.73-.92-1.74-3.93-2.84,1.04-1.05-3.09.81-.33.72,1.83,1.92-.68-1.31-4.23-2.94.92-.73-3.11.91-.22.48,1.68,2.02-.45-.74-4.03-3.01.42c-.1-.68-.54-2.53-.54-3.22l.93-.08.29,1.77,2.02-.08-.12-2.21ZM98.49,128.23c1.1.17,2.45,2.52,2.75,3.38.58,1.69.63,3.65.1,5.17-.43,1.24-1.73,3.45-2.56,4.07-.67.4-1.22.1-2.17-1.33-1.88-2.83-2.24-6.23-.76-8.56,1.13-1.78,1.97-2.73,2.63-2.73h0ZM139.97,128.97l.8.42c.98,8.61,5.58,20.42,14.63,27.49v1.08c-7.04-5.6-13.5-15.27-15.43-28.99h0ZM98.35,129.55c-3.15,2.64-2.65,6.76-.26,9.54,2.57-1.89,3.48-6.99.26-9.54ZM50.25,129.73c1.78-.05,2.91.64,3.45,2.01.84,2.12.96,2.53,1.13,3.64.1.64.25,1.6.34,2.13.92,5.77.24,7.95-2.92,8.85-.94.27-2.26.36-3.18.11-.24-.06-1.12-.07-1.82-.1-1.38-.05-1.8-.21-2.49-.83-.25-.22-.49-.4-.79-.46-1.58-.28-2.05-1.88-.85-3.06.68-.67.75-.76.69-.88-.04-.06-.33-.12-.65-.12-1.59-.01-1.57-1.82.03-3.12.76-.62,1.1-1.2.6-1.05-1.45.38-1.96-1.97-.45-2.7.81-.5,1.39-.92.61-.97-.65.06-1.18-.47-.98-1.1.24-.76,1.57-1.46,2.33-1.2.6.2,1.18.39,1.55.09.91-.72,1.31-1.05,2.09-1.16.45-.07.93-.08,1.31-.08h0ZM103.09,130.17l7.31.16-.22,7.95-6.88-.14s1.51-3.55-.21-7.96h0ZM86.72,130.35l7,.1c-1.15,3-.72,6.07-.3,7.81l-6.85-.12.15-7.78ZM98.4,130.37c1.88,1.22,2.4,5.64-.21,7.91-2.49-2.83-1.99-6.28.21-7.91ZM81.14,133.82l1.88.19-.67,2.98s.3-.35.4-.39c2.41-1.26,2.58,1.59.13,4.16-.54.57-1.41,1.34-1.41,1.34,0,0-.68-1.15-1.22-2.18-.62-1.04-1.03-2.16-.93-2.75.15-.86,1.08-1.43,1.68-.9.29.26.63.65.63.65l-.48-3.11ZM114.64,136s.79.9,1.27,1.48c1.66,2.01,1.94,3.89,1.1,4.46-.72.37-1.17.12-1.75-.41.12,1.25,1.01,3.09.99,3.09l-2.47.44s.61-2.5.56-3.44c0,0-.51.43-.73.54-1.61.65-2.41-1.38-1.09-3.41,1.11-1.7,2.13-2.75,2.13-2.75h0ZM148.42,139.77c1.66,0,3,1.49,3,3.33s-1.35,3.33-3,3.33-3-1.49-3-3.33,1.35-3.33,3-3.33ZM149.9,141.3c-.13.03-.24.36-.25,1.09-.15,1.5-1.27,2.1-2.5,1.4-.5-.28-.92-.7-.92-.38,0,.17.4,1.06.68,1.37,1.04,1.04,3.57.79,3.51-1.62-.03-1.14-.31-1.91-.52-1.86h0ZM95.35,142.55c.33-.02.74.13,1,.43.82.62.98,1.42,1.03,4.42.05,2.65,0,2.71.39,3.03.96.79,1.54-.41,1.27-3.09-.27-2.58.57-4.46,1.98-4.45.69,0,.82.46.29,1.03-.55.61-.69,1.35-.51,2.84.45,3.83.06,5.7-1.39,6.48-1.51.81-3.46-.12-3.8-2.24-.22-1.41-.22-3.09-.07-4.66.03-1.66,0-1.85-.53-2.8-.37-.64-.09-.96.33-.99h0ZM57.33,143.79c.84,0,1.7.54,2.22,1.72,1.25,2.87-1.46,5.23-3.95,5.41-4.32.07-9.45-.62-13.78-1.26l.07-2.71c3.98.25,8.46.61,13.29.86-.55-2.52.75-4.03,2.15-4.03h0ZM80.05,144.34l2.4.59-1.53,2.77c.45-.22.77-.37,1.22-.19.98.39.99,1.77.27,3.06-.57.93-2.17,2.05-3.25,2.74-.61-1.46-1.96-4.01-1.43-5.41.29-.74,1.08-1.1,1.81-.7.24.16.71.43.71.43l-.21-3.29ZM85.73,144.42l7.33.1c-1.06,8.22-3.15,19.19-7.25,28.13l-1.73.49c3.62-8.89,6.03-17.22,7.15-26.54h-3.66c-2.11,10-5.22,19.27-10.02,27.32l-2.13-.77c5.12-9.01,9.18-19.06,10.31-28.73h0ZM102.44,144.56h8.17c1.5,16.73,6.6,28.15,14.18,39.44,0,0-.48.12-.76-.02-.79-1.09-1.51-1.75-2.69-2.09-6.37-10.18-10.65-24.41-11.68-35.3h-4.86c.55,13.67,3.97,24.89,8.51,35.75l-2.47.5c-3.65-9.72-7.65-18.17-8.41-38.29h0ZM115.15,146.63c.67.58,1.4,1.14,2.08,1.69,1.84,1.43,1.81,4.14.03,4.12-.19,0-.63-.03-.63-.03,0,0,.73,1.77,1.19,2.67-.74.22-2.3.54-2.3.54,0,0,.22-1.74.18-3.18,0,0-.3.37-.55.5-1.19.55-2.19-.6-2.04-1.96.2-1.83,2.04-4.36,2.04-4.36h0ZM60.59,146.96l4.02,2.21c-2.74,6.92-5.88,13.39-10.41,18.32l.12-15.98c2.48-.08,5.02-.1,6.28-4.55ZM88.07,147.21h2.47c-1.1,12.76-8.7,30.02-10.12,32.1l-.47.39s-.97-3.91-2.11-5.32c4.29-6.42,8.78-18.75,10.23-27.18ZM105.46,147.21h3.73c1.16,10.17,4,21.15,11.18,34.49,0,0-.72.08-1.28-.29-1.22-.84-2.07.27-2.81.23-1.14-.07-1.33-.14-2.51.17-5.93-13.86-7.61-24.78-8.32-34.6ZM65.12,149.49l1.33.7c-2.87,7.36-5.44,13.21-12.23,20.39l-.02-2.14c4.77-5.13,7.99-11.89,10.92-18.95h0ZM67.06,150.52c.63.26,1.35.7,1.94,1.05.2.09.15.29.15.49-.25.7-1.37,1.01-1.79,1.14-.51.16-1.01.27-1.1.3-.58.15-.4-.49.23-1.91.28-.64.4-1.06.56-1.08h0ZM69.73,152.08c.4-.03,2.01.96,2.36,1.32.12.42-.22,1.08-.73,2.3-.78,1.88-.94,1.92-1.17.38-.04-.27-.27-1.14-.41-1.73-.33-1.35-.36-2.13-.03-2.27h0ZM72.64,153.6s.94.51,1.24.73c-4.18,13.9-15.33,25.4-15.27,25.13l-1.74-1.13c7.42-7.43,12.85-16.21,15.77-24.72h0ZM68.22,153.79c.4,0,.05.56-.49,1.9-.52,1.31-.69,1.77-1.17,1.98-.7.28-1.69.29-2.58.46-.38.07-.22-.25.36-1.56.68-1.54.72-1.86,1.8-2.18.62-.11,1.46-.6,2.09-.59h0ZM69.69,156.56c.43,1.72.42,2.06.13,2.66-.54,1.12-1.25,2.43-1.44,2.79-.49.89-.63.7-.92-1.45-.18-1.34-.34-1.94-.2-2.52.24-.66.97-2.21,1.38-3.12.59-1.94.9,1.48,1.05,1.65ZM77.39,155.05l2.19.8-1.72,2.31s.72-.14.81-.11c1.73.13,1.44,2.03.1,3.18-.55.56-3.29,1.94-3.29,1.94-.29-1.7-.9-2.79-.75-4.54.1-.94.18-1.79,1.22-1.82.55-.03.77.59,1.12,1.09l.31-2.85ZM117.18,157.12s1.32.76,2.55,1.8c1.6,1.36,1.87,2.97.27,3.59-.18.07-.71.04-.71.04.44.85,1.49,2.12,1.49,2.12-.52.41-1.26.72-2.08,1.01,0,0-.2-2.12-.4-2.93,0,0-.21.46-.47.64-1.54,1.06-2.75-.94-1.92-3.47.5-1.54,1.28-2.79,1.28-2.79h0ZM100.26,157.47c3.84-.1,1.59,6.88-.33,6.43-.03-.06,1.59-4.13-.59-4.78-1-.3-.14-1.67.92-1.65h0ZM93.95,157.97c1.19,0,2.06.93.92,1.51-1.8.93-.73,3.14-.69,4.4.03.77-1.6-.67-1.94-2.23-.45-2.02-.24-3.51,1.71-3.68h0ZM65.52,158.7c.27,0,.46.02.53.08.11.33-.42,1.36-1.21,2.68-.42.7-.6.9-.85,1.07-.61.38-1.46.28-2.16.33-1.06.01-.87,0,.3-2.03.52-.9.85-1.64,1.16-1.88.06-.04,1.43-.25,2.23-.25h0ZM66.9,160.16c0,2.53.77,3.35.21,4.15-.69,1.24-1.58,2.6-1.9,3.03-.54.72-.48.59-.62-1.31-.1-1.37-.22-2.29-.06-2.72.46-1.24,1.02-1.83,1.59-3.15.45-1.06.79-.88.79-.01h0ZM97.25,161.43c1.12.02,1.81,1.33,1.76,2.54l-.05,1.16c1.44-.61,3.23-.02,3.31,1.55.13,2.66-1.63,2.35-3.13,2.24.15.06.37,2.41-.52,3.3-1.4,1.73-4-.04-3.34-2.58.14-.53.16-.86.16-.86,0,0-.93.37-1.26.36-2.83-.13-2.61-4.57.23-4.05.58.11.97.26.97.26,0,0-.06-.28-.16-.68-.41-1.71.46-3.27,2.02-3.25h0ZM153.88,162.22l1.53.97v1.89l-2.17-1.78.64-1.08ZM62.39,163.48c.6,0,1.07.05.98.21,0,.34-1.32,2.37-2.1,3.29-.66.79-.76.68-2.38.59-.64-.03-1.05-.04-1.04-.23.75-1.09,1.78-2.49,2.49-3.66.28-.09,1.27-.2,2.04-.21ZM63.88,164.37c.11,0,.15.27.14.86,0,.44.06,1.82.11,2.41q.11,1.08-.31,1.73c-.51.61-1.03,1.5-1.69,2.2-.99,1.21-.89,1.28-.87-1.31.01-2.03-.13-2.03.24-2.5.2-.26.83-1.11,1.24-1.78.63-1.01.96-1.6,1.12-1.6h0ZM73.29,164.73l2.03,1.2-2.03,2.29s.51,0,.68.03c1.31.28,1.21,1.82-.11,2.96-.81.57-3.58,1.69-3.58,1.69-.1-1.29-.34-2.48-.29-3.87.02-.64.07-1.33.51-1.89.31-.38.82-.59,1.53-.08.38.37.57.79.57.79l.69-3.13ZM97.25,165.51c-.8,0-1.44.72-1.44,1.6s.64,1.6,1.44,1.6,1.44-.72,1.44-1.6-.64-1.6-1.44-1.6ZM119.94,165.88s2.66,1.11,3.85,2.32c1.12,1.03.59,2.74-.52,2.77-.08,0-.55-.08-.55-.08.38.63,1.64,2.19,1.64,2.19l-2.05.92s-.33-1.75-.58-2.74c-.72,1.83-2.48.64-2.6-.5-.29-1.68.36-3.31.82-4.9h0ZM97.25,166.02c.55,0,1,.5,1,1.11s-.45,1.11-1,1.11-1-.5-1-1.11.45-1.11,1-1.11ZM58.02,168.29c.72,0,1.61.03,2.01.06.3.26-.33,1.07-1.56,2.5-.99,1.15-1.13.99-2.33,1-2.01.02-2.06.03-1.14-1.13,1.01-1.27,1.6-2.09,2.06-2.36.16-.05.52-.06.95-.07h0ZM60.47,169.41c.21-.05.15.55.12,1.91l-.06,2.31-1.56,1.67c-1.81,1.79-1.59,1.91-1.58.23,0-1.33,0-2.27.26-2.86.79-1.05,1.61-1.99,2.51-2.99.14-.16.24-.24.31-.26h0ZM100.14,169.99c.43-.04,1.54,2.06,1.82,3.83.63,4.03,2.81,5.94,4.34,4.32.62-.95.69.09.66.58-.32,5.1-5.53,2.98-6.13-2.09-1.83,1.32-3.54-1.34-2.45-1.3,2.58-.91,1.87-3.53,1.75-5.34h0ZM94.1,170.03c.26,1.76-2.61,4.79-4.23,2.67-.82-1.08-.07-3.3.97-1.93,1.15.95,2.27-.15,3.25-.73h0ZM54.7,172.45c.59-.01,1.44.11,1.81.05.53.06.15.34-.99,1.49-.98.99-1.26,1.43-1.37,1-.05-.67-.03-1.47-.03-2.41.09-.09.3-.13.57-.13h0ZM68.07,173.62l1.75,1.42-1.74,1.77c1.56-.09,1.69,1.53,1.1,2.44-.38.63-1.86,1.3-3.33,1.56-.89.16-1.61.28-1.61.28,0,0-.03-.76-.06-2.02-.05-2.58.11-3.59,1-4.1.64-.36,1.72.21,1.99.86.09.22.32.6.32.6l.58-2.81ZM56.82,173.76s.01,0,.01,0c.1.15-.26,4.35-.26,4.35l-2.53-1.58s2.57-2.72,2.78-2.77h0ZM123.89,174.25c1.81.94,3.16.76,4.37,1.93,1.06.61.74,2.3-.03,2.68-.35.12-.93.05-.93.05.64.87,2.04,1.98,2.04,1.98l-2.22,1.03s-.3-1.66-.59-2.57c-.4,1.35-1.77,1.31-2.56.68-.55-.47-.78-2.04-.52-3.41.07-.36.43-2.38.43-2.38h0ZM112.02,213.32c-21.91,5.76-39.72,2.2-41.48,1.52l-1.4,2.31c-.17.39-.27,1.57-1.22,1.88l-1.42,2.35.28.33-1.26,1.22.31.41-.92,1.48-.36-.04-2.12,3.57.32.4-4.87,8.45,65.84.02c-3.83-8.01-7.92-15.86-11.71-23.89h0ZM111.63,214.36l.39,1.21c-1.09-.15-2.36-.22-3.65-.29,1.14-.26,2.27-.58,3.26-.92ZM107.8,215.41c-2.09,1.07-3.35,2.35-4.31,3.7-1.2-1.03-2.72-1.76-4.54-2.22l8.85-1.48ZM70.8,216l.93.12s-.31.27-.54.21c-.17-.04-.4-.33-.4-.33ZM112.74,216.6l.59,1.3c-1.43-.84-7.53-2.76-9.26,3.97-1.82-2.73-9.33-6.69-13.14,1.73-1.08-2.28-7.39-8.84-13.14-.48-2.27-5.2-4.16-5.63-8.32-4.92,2.96-3.15,7.12.13,8.88,2.81,4.96-4.56,9.11-3.19,12.73.52,4.68-5.65,9.34-4.29,12.62-1.45,2.3-3.76,4.56-4.9,9.03-3.47h0ZM74.44,216.63c2.95.44,5.9.64,8.85.8-1.71.69-3.46,1.29-4.85,2.69-1.05-1.63-2.52-2.58-4-3.49h0ZM95.71,217.16c-1.61.84-3.34,2.1-4.73,3.43-1.5-1.36-3.04-2.53-4.73-3.12,3.09.17,6.5.02,9.46-.32h0ZM114.59,219.83s-.59.11-.79.17c-2.6.77-2.04,4.84.64,4.84.25,0,.89-.11.89-.11-.05,2.76.7,3.43,3.24,3.27l4.3,8.53-63.62-.3,4.04-7.17c2.03.26,3.31-.99,2.86-2.9,0,0,1.25.42,1.6.43,2.3.02,2.89-3.9.69-4.58-.25-.08-.86-.15-.94-.18,1.01-2.79,3.78-1.14,4.57.02,1.79-1.63,3.76-.9,4.61,1.21,0,0-.33-.21-.44-.29-2.09-1.7-4.04,1.82-1.99,3.44.2.16.63.3.63.3,0,0-.25.23-.48.65-1.06,1.98.65,4.4,2.72,3.78,1.59-.69,1.61-2.01,1.61-3.47,0,0,.55.05,1.04.05,1.9.03,2.45-2.68,1.28-3.94-.63-.68-1.45-.63-1.86-.71,2.2-2.39,3.68-.74,5.23.36.23,0,2.69-3.28,5.61-.06-1.42-.41-2.87.61-2.89,2.24.03,1.05.71,1.98,2.17,2.06-.16.53-.26.92-.27,1.44-.03,1.72,1.17,2.79,2.7,2.52,1.28-.18,2.22-1.8,1.77-3.15-.21-.61-.49-.83-.49-.83,3.44.48,3.38-4.35.71-4.65-.63-.07-1.12.24-1.76.88,1.57-3.57,4.45-2.85,5.53-1.39,1.48-1.19,3.51-2.82,5.95.08-.4-.09-.97-.12-1.46.03-1.93.57-1.94,3.29-.41,4.12.43.23.96.37,1.53.34-.51,2.29,1.78,3.92,3.4,2.82,1.16-.78,1.46-2.64.21-4.33,2.11-.1,2.32-3.03,1.1-4.05-.96-.8-2.08-.42-2.9.64-.26-.84,1.83-3.76,4.78-1.66,1.56-1.45,3.11-1.9,4.89-.45h0ZM115.51,222.11l.83,1.67c-.55.06-1.34-.59-.83-1.67ZM104.84,223.8c.52,0,.94.47.94,1.04s-.42,1.04-.94,1.04-.94-.47-.94-1.04.42-1.04.94-1.04ZM66.23,223.86c.12.56.18,1.11-.73,1.22l.73-1.22ZM76.98,224.87c.47,0,.86.43.86.95s-.38.95-.86.95-.86-.43-.86-.95.38-.95.86-.95ZM91.25,225.16c.5,0,.91.45.91,1.01s-.41,1.01-.91,1.01-.91-.45-.91-1.01.41-1.01.91-1.01Z"/>
      </g>
      <g id="Center_Symbols_K" data-name="Center Symbols K">
        <use width="26.08" height="32.54" transform="translate(49.37 40.39)" xlink:href="#Spade"/>
        <use width="26.08" height="32.54" transform="translate(147.91 228.89) rotate(-180)" xlink:href="#Spade"/>
      </g>
      <g id="Corner_Symbols_K" data-name="Corner Symbols K">
        <use width="26.08" height="32.54" transform="translate(20.67 46.74) scale(.5)" xlink:href="#Spade"/>
        <use width="26.08" height="32.54" transform="translate(176.61 222.54) rotate(-180) scale(.5)" xlink:href="#Spade"/>
      </g>
    </g>
    <g id="Spade_Corner_Characters" data-name="Spade Corner Characters">
      <g>
        <use width="18.68" height="33.12" transform="translate(179.42 254.75) rotate(-180)" xlink:href="#Black_K"/>
        <use width="18.68" height="33.12" transform="translate(17.86 14.53)" xlink:href="#Black_K"/>
      </g>
    </g>
  </g>
  <g id="Clubs">
    <g id="Club_Corner_Characters" data-name="Club Corner Characters">
      <use width="181" height="253" transform="translate(8.14 8.14)" xlink:href="#boundary"/>
      <use width="181" height="253" transform="translate(8.14 8.14)" xlink:href="#boundary"/>
    </g>
  </g>
</svg>