<?xml version="1.0" encoding="UTF-8"?>
<svg xmlns="http://www.w3.org/2000/svg" xmlns:xlink="http://www.w3.org/1999/xlink" viewBox="0 0 197.28 269.28">
  <defs>
    <style>
      .cls-1 {
        fill: #262964;
      }

      .cls-1, .cls-2, .cls-3, .cls-4 {
        stroke-width: 0px;
      }

      .cls-2, .cls-5 {
        fill: #d2232a;
      }

      .cls-3 {
        fill: #000;
      }

      .cls-6 {
        fill: none;
        stroke: #000;
        stroke-miterlimit: 10;
      }

      .cls-5 {
        font-family: ArialMT, Arial;
        font-size: 28px;
      }

      .cls-4 {
        fill: #e1cf20;
      }
    </style>
    <symbol id="Diamond" viewBox="0 0 23.64 32.54">
      <path id="path6413-1" class="cls-2" d="M11.82,32.54c-3.51-5.81-7.2-11.45-11.82-16.27C4.62,11.45,8.31,5.81,11.82,0c3.51,5.81,7.2,11.45,11.82,16.27-4.62,4.82-8.31,10.46-11.82,16.27Z"/>
    </symbol>
    <symbol id="Red_Q" data-name="Red Q" viewBox="0 0 21.78 33.12">
      <text class="cls-5" transform="translate(0 24.03)"><tspan x="0" y="0">Q</tspan></text>
    </symbol>
    <symbol id="boundary" viewBox="0 0 181 253">
      <rect class="cls-6" x=".5" y=".5" width="180" height="252" rx="15" ry="15"/>
    </symbol>
  </defs>
  <g id="Diamonds">
    <g id="Diamond_Symbols" data-name="Diamond Symbols">
      <g id="Queen_Face" data-name="Queen Face">
        <path id="path6307-8" class="cls-4" d="M119.3,32.69s18.17,28.9,24.33,34.03c.45.23,8.05-1.36,8.05-1.36-3.89-10.26-6.4-20.87-3.87-32.77l-28.51.1ZM129.4,78.39c-12.53,3.89-25.03,7.55-38.61,1.21l-14.83,15.77c-.12.41,17.91,8.98,18.22,7.98-8.84,26.19,4.94,30.94,13.72,2.14,11.49-1.66,25.27-3.37,36.67-12.07-9.86-6.52-15.18-15.09-15.17-15.01ZM54.06,83.05c-4.75-3.21-8.46,3.39-4.98,6.69-.41,1.92-.55,4.79,1.14,6.05,1.55,1.08,4.45-.04,4.87-.03.03,0,.08,3.46-.17,3.46-.45-.02-2.15-1.61-3.19-1.95-3.54-1.17-8.52-1.74-8.43-1.54.15.34-.88,1.14,3.07,3.86,1.47,1.01,6.1-.13,9.79,1.15,2.25.78,4.27,2.03,5.49,1.38,3.22-.97,4.48-5.6,4.26-5.56-.11-.14-9.73,2.73-8.83,3.23l-.03-4.02c3.8.46,7.22-2.57,3.49-7.76,2.78-3.04-1.11-10.28-6.49-4.95h0ZM69.88,101.43c-9.34,10.36-28.43,29.8-28.43,29.8l.2,14.51,18.65,18.36c1.48-19.49,11.54-37.68,21.13-46.79.88-2.77-9.52-14.91-11.55-15.88ZM136.41,105.01c-1.41,11.99-2.69,28.33-21.16,46.5,3.2,6,7.28,12.11,13.14,15.02.42,1.03,16.95-18.83,27.13-28.22l-.05-12.72-19.05-20.58ZM53.13,107.58c-.04.26-.72,3.41-.9,3.33.01.17,1.89-.77,2.1-1.63.19-.76.62-1.78.65-1.93-.42-3.24-1.22-.94-1.85.23ZM46.21,115.96c-.67,1.78-1.3,5.06-1.07,7.19,3.31,1.82,4.21-5.76,3.32-6.48-.53-.25-1.8-.73-2.25-.71ZM148.38,150.72c-.31,1.51-.24,1.96.37,2.26,1.07.52,1.55-.11,2.41-2.57.51-1.47.97-3.67.56-4.55-2.03-1.56-3.1,3.72-3.34,4.86h0ZM90.52,163.44c-13.58,2.37-27.17,3.83-37.95,13.08,1.22-.16,14.28,13.35,14.96,15.25,19.97-10.74,39.37-2.63,39.37-2.63l14.62-15.5c.56-.29-15.9-7.75-19-9.01,11.21-33.2-6.54-28.21-12-1.19h0ZM143.97,159.65c-.89.79-1.33,1.5-2.03,2.52l.7,1.24,1.79-2.17-.46-1.6ZM131.18,173.62c1.88-.93,8.56-4.5,8.85-3.67l-.14,3.57c-1.02-.37-7.62.83-3.8,8.32-2.4,5.95,2.95,9.02,6.7,5.09,7.86,2.97,6.81-5.69,5.19-7.09,1.28-2.18-.33-6.84-1.13-6.85,0,0,6.86,1.7,6.19.36-.31-.61-.69-1.67-2.21-2.79-1.76-1.29-4.84-.82-7.34-1.4-2.67-.61-4.39-1.67-6.63-1.81-3.39.34-6.55,3.61-5.66,6.28h0ZM54.74,201.71l-9.45,2.78s3.06,7.81,4.11,14.77c1.29,8.51.26,17.77.26,17.77l27.43.15-22.35-35.47Z"/>
        <path id="path6309-7" class="cls-2" d="M79.37,237.07c-12.03-18.9-23.19-36.88-37.99-56.7,0,0,.01-7.66.06-15.26l45.48,71.77-7.56.19ZM103.74,206.55c-.39-3.59-1.05-7.89-2.01-11.58l8.3-8.62c-.9,7.7-2.27,13.61-6.3,20.2h0ZM143.43,179.39c1.86,2.72-1.28,4.22-2.46,3.02-2.4-2.45,1.12-4.98,2.46-3.02ZM61.09,162.29c-1.38.97,2.48-23.69,13.06-36.43,6.44,20.28-4.92,31.66-13.06,36.43ZM113.28,162.2l-7.03-2.09,3.31-10.81s6.79,1.7,6.23,3.95c-1.83,7.31-2.51,8.95-2.51,8.95h0ZM80.75,158.04c1.9-3.44,3.35-7.24,4.68-11.12l7.04-.16-3.54,10.72-8.18.57ZM123.1,142.86c-5.44-11.92.97-30.78,12.8-35.97-.43,12.08-3.83,24.32-12.8,35.97ZM86.55,139.48c.24-4.23-.2-8.67-.73-12.6,7.5,1.9,15.68,3.17,24.73,3.63l.86,11.41c-8.04-1.62-16.23-2.78-24.86-2.44ZM104.52,122.1c.8-3.54,1.83-7,3.23-10.34l8.57-.44c-.04-.18-3.66,6.28-4.52,10.94-1.36-.16-7.27-.16-7.27-.16h0ZM88.27,119.28c-2.5-.97-5.92-1.24-7.25-3.37l2.6-9.07,7.71,2.6-3.06,9.84ZM109.89,32.71l6.04-.06s29.02,40.86,39.89,56.76c-.36,1.62.12,15.33.12,15.33-15.41-23.86-46.06-72.03-46.06-72.03ZM54.25,89.71c-1.62-1.92.96-3.62,2.03-1.9.94,1.51-1.18,2.91-2.03,1.9ZM86.81,83.02c.09-9.47,6.2-20.7,6.13-20.42-.07-.02.87,9.26,2.04,12.17-.32.51-7.89,8.84-8.17,8.24Z"/>
        <path id="path6311-0" class="cls-1" d="M40.14,31.14v207h117V31.14H40.14ZM147.3,32.71c-.95,11.46-1.12,20.33,4.29,32.21-.98,1.13-8.33,1.45-10.65,2.78-.04.32.6.87.6.87,2.42-1.24,11.88-2.37,11.88-2.37-3.96-7.59-7.22-22.3-4.76-33.5h7.1v55.31s.08,10.51.29,16.52c-3.63-5.17-8.31-12.24-11.46-17.6-3.82-5.91-8.07-12.84-12.43-19.34-1.29-2.05-3.12-4.71-4.62-7.1-2.35-3.7-4.29-6.57-6.73-10.54-2.6-4.12-5.1-7.86-8.19-12.64-2.62-4.07-2.74-4.6-2.74-4.6h37.44ZM102.48,32.71c4.42,8.46,12.34,11.42,14.33,11.99l1.16,1.86c-9.34-2.01-14.34-8.61-16.68-12.69-.18-.32-.16-1.17-.16-1.17h1.35ZM98.1,32.71c-1.22,3.19-2.94,5.12-4.56,7.06l.06-2.05c.05.13,2.43-2.87,3.25-5h1.25ZM100.24,32.71s.04.64-.11,1.09c-.94,3.33-6.76,9.65-6.59,8.71l-.06-1.63c-.03.07,4.37-4.7,5.52-8.16h1.24ZM96.01,32.71c-.45.93-2.15,3.83-2.3,3.06l.15-3.06h2.15ZM109.31,32.71c.73,1.17,1.4,2.12,2.17,3.31.14.23.23.5.19.6-.12.33-.47.09-1.43-.85-1.58-1.54-2.66-3.06-2.66-3.06h1.72ZM103.42,32.71h1.43c2.96,5.41,8.27,8.39,10.11,9.02.49.59,1.02,1.68,1.22,1.92-4.96-1.48-10.51-6.19-12.77-10.94ZM106.9,32.71c1.58,2.5,4.05,4.33,5.44,5.53.75.65,1.74,1.96,1.64,2.23-3.1-1.08-6.72-4.95-8.39-7.75h1.3ZM100.82,34.33l.86,1.51c-2.09,3.79-4.7,7.2-8.2,9.89l-.02-1.98c3.96-3.14,5.67-6.29,7.35-9.42h0ZM102.22,36.52c2.49,3.69,7.85,9.4,16.45,11.1,0,0,.49.49,1.2,1.55.9,1.35.92,1.41,1.04,3.63.08,4.06,1.28,9.57,2.47,13.04-.15.86-.29,1.3-1.76,3.5-6.16,9.15-19.27,17.8-25.73,5.99-2.15-3.78-2.36-11.04-2.5-15.56,0,0,.04-.32.06-.4.16-.82.37-.69,1.54-.34,1.18.56,2.41.11,3.67-.27,1.42-.63,1.54-.15.17,1.27-.48.49-1.06,1.23-1,1.2.06-.04.86-.4,1.21-.69,1.1-.92,1.36-.57.95.44-1.73,4.29-2.03,4.47.4,5.66.51.25.85.53,1.14.8,1.66,1.72,1.06.79.6,0-.71-1.24-.07-1.89,1.14-1.12.81.51,1.86.92,2.44.73,1.12-.4,1.46-1.75,1.13-3.23-.27-.82-1.79-2.27-1.44-.75.92-.05,1.71,1.39.91,2.36-.6.89-1.67.41-3.32-.79-.91-.75-2.01-.37-1.97.56.03.62-.77.48-1.29-.31-.29-.44-.09-1.7.45-2.9,3.41-7.55.54-14.87-5.37-12.8-.65.23-1.24.41-1.24.41l-.03-2.89c3.39-2.6,6.99-6.75,8.71-10.17h0ZM105.67,50.07c-.89,1.18-.58,2.24,1.38,1.18,1.59-.86,1.81-.97,3.55-1.03,2.46-.1,4.67.76,7.41,2.61,1.81,1.22,2.08,1.32,1.59.55-1.46-3.08-10.12-7.77-13.93-3.3ZM97.3,50.42c1.71.47,3.35,1.72,3.06,2.23-.1.19-.2.22-.42.1-1.25-.68-3.24-1.79-6.13-.44-.32.15-.49-.08-.49-.5,0-.82,1.25-1.47,2.58-1.52.47,0,.98.03,1.4.14ZM107.24,52.82c-1.02.58-1.37.89-1.8.63-1.03-.62-.82-.13-.17,1.12.45.88.45,1.07.38,1.61-.07.59-.06.61.46,1.24.97,1.41,1.94,2.76,3.4,3.83.45.33,1.06.71,1.11.71.15,0,.09-.12-.17-.4-1.87-1.97-3.34-3.74-1.44-2.99,2.21.79,4.31-.2,6.04-.84.7-.24,1.44-.44,1.62-.44,1.59,0,1.97-.73.95-1.84-3.45-4.25-6.3-5.25-10.38-2.63ZM115.41,53.61c.71.72,1.09,1.12,1.02,1.31-.08.2-.62-.14-1.54-.68-1.85-1.08-3.94-1.34-6.56-.51-2.03.65-1.43-.38.83-1.34,1.81-.92,4.32-.65,6.26,1.23h0ZM96.42,52.15c1.55-.03,3.17.53,4.25,1.56.75.72.2.88-1.02.32-1.86-.84-3.42-.98-4.94-.19-.48.25-1.03.54-1.18.52-.25-.19-.36-.74-.14-1.13.61-.66,1.82-1.06,3.03-1.08ZM122.02,52.74c.11,0,.29.2.54.6.46.72.48,1.07.1,2.33-.47,1.53-.66,1.29-.78-.86-.08-1.39-.08-2.08.14-2.07h0ZM123.56,55.05c.18-.03.38.32.71,1.03.23.5.18.64-.54,2.97-.3.97-.59,1.75-.59,1.75-.22.19-.19.18-.29.04-.51-.72-.48-2.13-.03-3.82.34-1.28.52-1.93.75-1.97h0ZM109.57,55.22c.06,0,.4.08.4.08-.04,3.44,2.38,2.75,2.7.3,0,0,.6-.07.69.1.29.51-.38,1.98-1.37,2.46-.73.36-1.71.27-2.3-.33-.16-.34-.66-1.61-.57-2.14.12-.31.29-.45.46-.47h0ZM108.13,55.63s.05,0,.07,0c.24.01.41.08.5.4l.52,1.75c-.38.5-1.83-.51-1.83-1.28,0-.53.36-.85.73-.87h0ZM98.3,55.62c.37-.04.49,0,.54.38.12,1.14-.91,2.37-2.25,2.44-1.3.16-1.99-.95-1.95-2.02,0-.82.64-.92.71-.27.21,1.87,1.66,1.98,2.32.95.25-.4.19-1.4.63-1.46ZM114.2,56c.1,0,.24.04.44.11,1.34.47,1.37.7.23,1.15-1.36.54-1.45.61-1.13-.44.18-.58.23-.82.46-.83ZM100.04,56.17c.99.07,1.07.99.2,1.3-1.3.63-1.73.59-1.23-.34.27-.66.52-.94,1.03-.96ZM93.85,56.5c.12,0,.25.05.4.17.15.49.4.87.6,1.39-.2.22-.69.22-1-.05-.62-.54-.51-1.5,0-1.5h0ZM124.98,57.57c.38,0,.78.67.9,1.17-1.34,1.9-1.13,5.45-1.44,6.52-.27.87-.36.12-1.11-2.14-.3-.91,1.22-5.44,1.57-5.54.03,0,.05-.01.08-.01ZM126.36,59.51c.3.19.71.62.78,1.3.04.39-.14.92-.25,1.44-.27,1.23-.64,3.56-.77,5.71-.06.91-.05,1.74-.09,1.82-.4.87-1.26-1.47-1.18-3.34.26-1.49.41-6.71,1.52-6.92h0ZM128.25,62.19c.19.29.31.51.37.76.1.43.02.95-.22,2.06-.62,2.94-.53,6.1-.12,9.35.08.68-.35.34-1-.84-.36-.65-.59-1.55-.7-2.6-.23-2.31.21-5.44.58-7.91.16-1.09.28-2.06,1.09-.83h0ZM129.28,63.98l1.08,1.43s-.46,3.29-.46,5.05c-.08.66.54,7.81.74,8.39-.66-.82-.97-1.3-1.7-2.32-.08.01-.71-7.05-.28-9.75.26-1.63.62-2.79.62-2.79h0ZM130.97,66.82c.18,0,.41.22.7.66.26.4.39.73.4,1.24,0,.37-.15.65-.16,1.3-.03,3.89.45,7.56,1.05,11.1.21,1.27-.2.75-.88-.05-.63-.73-.64-1.01-.97-2.06-.07-.21-.73-7.38-.73-7.92.02-2.23.08-3.47.32-4.01.08-.17.17-.26.27-.27ZM127.05,74.64s-1.26.71-1.59.46c-.53-1.59-2.44-5.85-2.48-6.61.03-.25.78-1.37.78-1.37,1.06,2.52,2.01,5.11,3.28,7.51ZM103.41,69.52c-.38.49-.83.29-1.74-.16-.47-.16-.4.05-1.17.5-.6.34-.81.35-1.21.35-.52,0-.71-.21-.71.2,0,.22-.03,1.24-.16,1.76-.17.71-.32,1.03-.22,1.15.27.27.49.1,1.05-.49.93-.99,1.56-.71,2.6-.34,1.18.42,1.43.57,2.51.16,1.53-.59,2.45-.59,3.06-.16,1.05.74,1.37.69.93-1.32-.14-.65-.15-1.66-.24-1.83-.1-.2-.36.37-.64.57-.53.4-.81.39-2.02-.05-.71-.26-1.51-1.1-2.05-.34h0ZM122.79,69.78c.47,1.21,2.32,5.25,2.27,5.7-.36.36-.85.62-1.13.3-.93-1.86-1.21-2.87-1.96-4.96-.22-.5.45-1.77.83-1.04h0ZM132.75,69.64c.13-.02.41.28.61.58.64.94.67,1.05.69,2.05.07,3.63.49,7.91,1.42,11.21.18.65.53,1.44.49,1.55-.31.5-1.76-.84-2.2-2.88-.6-2.59-.96-5.29-1.15-7.05-.24-3.09-.24-5.31.13-5.47h0ZM121.62,71.64c.53,1.13,1.21,3.09,1.66,4.27.21.51-.85.91-1.09.74-.42-.35-.62-1.32-.9-1.91-.88-2.12-1.04-2.17-.55-2.83.3-.46.66-1.02.88-.27ZM134.85,72.94c.08,0,.18.08.31.26.56.73.94,1.28,1.08,1.82.11.39.02.68.06,1.39.1,1.85.54,4.38,1.79,9.55.12.5.29,1.1.27,1.26-.12.95-1.39-.59-1.76-2.18-.43-1.81-1.21-4.11-1.44-6.24-.47-3.38-.73-5.86-.32-5.86h0ZM120.51,74.31c1.05,2.7,1.14,2.7.47,2.91-.7.23-.74.15-1.57-1.69-.6-1.34-.72-1.51-.21-2,.77-1,.97-.05,1.31.77ZM105.85,73.67c-.12,0-.47.3-.83.45-.87.38-2.41.4-3.36.09-1.67-.74-1.2.22.28.8,1.15.42,3.41.1,3.76-.69.22-.25.29-.66.14-.66ZM118.53,75.09c.94,1.6,1.22,2.24,1.06,2.36-.15.17-.89.47-1.2.31-.38-.21-.72-1.19-.89-1.97.12-.38.74-1.06,1.02-.7h0ZM94.99,75.76c.42,0,1.51,1.62,1.29,1.91-.06.15-.47,0-1.43-.28-.32-.13-1.04-.23-.81-.74.11-.23.78-.88.95-.88ZM117.52,77.97c-.09.28-.8.34-1.1.32-.26-.59-.33-.88-.4-1.27.1-.24.58-.85.82-.73.14.14.61,1.38.68,1.67h0ZM137.07,76.42c.15,0,.41.29.79.9.73,1.15.63,1.06,1.15,3.8.59,3.1,1.3,5.31,2.02,8.48,0,.53-.18.39-.71.03-.87-.58-1.15-1.23-1.43-2.91-.47-2.78-1.45-5.35-1.83-8.63-.2-1.09-.22-1.68,0-1.67h0ZM115.22,77.53c.51-.02.44.85.3.99-.37.36-1.41.25-1.58.27-.4-.68.95-1.24,1.29-1.26ZM139.67,80.48c.15.02.55.65,1.31,1.82.73,1.12.57.94,1,2.79.62,2.56,1.63,4.4,2.23,6.75,0,.27-.3.23-.58.11-.55-.25-1.04-.68-1.51-1.1-.32-.38-.32-.86-1.26-4.43-.34-1.29-.43-1.62-.85-3.58-.36-1.64-.51-2.39-.34-2.36h0ZM60.86,88.12c2.47,5,1.56,7.22-3.76,7.92-.38-.06-.02,2.56-.03,3.74,2.66-1.68,5.88-2.07,8.85-3.12-.81,2.85-2.23,6.08-6.52,5.58-4.49-3.82-9.78-1.52-13.36-3.08-1.95-.8-2.7-3.18-2.72-3.59,2.34.26,4.98.81,7.25.63-2.48-2.1-1.75-5-1.4-6.33-2.9-4.02-.48-8.54,3.73-7.49.43.11,1.29.57,1.29.57,4.06-4,8.77-.24,6.68,5.18h0ZM143.01,85.68c.17-.02.54.47,1.28,1.61,2.21,3.4,4.12,6.56,4.09,6.74-.1.59-2.4-.44-2.98-1.28-.66-.96-2.52-5.87-2.52-6.65,0-.26.03-.41.12-.42ZM53.09,100.24c1.15.19,1.47.29,1.46.79.1.42-2.79.48-3.18.16-.31-.25.09-.79.4-.92.45-.15.89-.1,1.32-.03h0ZM132.63,100.69c-16.12,8.38-22.71,30.66-14.58,47.73l-1.12.89c-7.98-18.05-2.04-37.4,10.92-47.17.52-.41,1.69-.73,2.23-1.12,0,0-5.29,1.33-7.08,2.1-.36-.01-1.43.4-2.58,1.77-1,1.02-4.13,5.77-4.03,5.94l-8.32.37v.34s8.17-.21,8.17-.21c-8.41,15.24-6.34,29.74-1.15,39.88l.13.09c.3.22,1.1-.42,2.74-2.13.68-.71,1.53-1.59,1.9-1.95,1.02-1.03,2.47-2.8,3.47-4.08-5.66-12.68-.08-29.39,13.16-36.92.02-.4-.14-1.62-.14-1.62,0,0-.5-.49-.8-.44-14.74,7.15-20.65,24.89-14.66,41.03l-.99,1.18c-7.53-16.71.55-37.6,14.65-43.52,0-.38-.31-.86-.69-.57-15.22,7.78-21.85,27.63-14.4,44.56l-.94.91c-8.48-18.53.46-39.3,14.47-46.39.41-.11-.37-.67-.37-.67h0ZM50.59,100.86s-.11.99.21,1.32c.15.7-.09.63-.63.48-1.34-.35-.29.49.8,1.16,1.08.67.93.64,0,1.3-.63.44-.57.61-.48.94.13.5.21.17.48-.1.55-.56.99-.7,1.48-.69.74,0,.81.65.68,1.16-.29,1.06-1.29,1-2.1.74-1.33-.43-3.51-2.97-3.47-4.47-.09-1.34,1.57-1.91,3.04-1.85ZM56.57,101.19c.52.21,1.17.49,1.88.82.99.35,1.99.91,2.63,1.38,1.96,1.44,1.84,4.32,1.7,4.61l-10.15,10.58s-.57-.31-1.11-.61c-1.71-.96-2.12-1.46-1.17-1.99.46-.26.61-.81.67-1.35.09-.72.05-.6.45-.93.69-.57.72-.81.72-1.77,0-.63.06-.92.27-1.32.17-.32.34-.97.46-1.73.02-.12.03-.43.05-.54.12-.59.29-.77.4-.9.11-.13.3-.59.42-.98.28-.88.23-.75.69-.65.66.14.57.57.5,1.24-.04.33-.23.56-.17.48.09-.1.5-.31.58-.33.21-.05.42.03.48.39.03.2-.05.58-.05.87.01.75.04,1.65.2,2.25.75,2.86.6,2.46.35.08-.06-.57-.13-1.41-.06-2.1.05-.49.18-1.1.35-1.43.45-.85.47-1.02-.5-1.44-.36-.16-.97-.43-1.1-.7-.15-.33-.61-.79-1.21-.94-1.46-.38-2.31-1.93-2.1-2.16.14-.15.73.05,1.1.06,1.33.05,1.61-.02,2.2-.58.31-.3.45-.56.7-.58.26,0,.6.21.79.29h0ZM125.64,102.9c-13.63,12.13-16.02,31.76-9.22,46.91l-1.18,1.02c-8.55-17.77-2.81-36.93,7.69-47.42l2.7-.51ZM46.94,104.35c.24-.02.5.36,1.46,1.49.64.76,1.32,1.42,1.67,1.64.8.42.63.25-.04.94-.68.86-.31,1.57-1.12,1.14-2.12-1.1-3.61-4.32-2.23-5.1.1-.06.18-.1.26-.11ZM45.89,107.74c.05,0,.11,0,.16.02.26.07.58.61.92.99.94,1.04,1.38,1.51,2.13,1.87.74.36.76.45.24,1.08-.19.23-.3.51-.35.66-.04.15-.06.35-.22.39-.83.17-3.57-1.66-3.68-2.92.09-1.18.36-2.06.78-2.1ZM51.7,108.1c.48-.01.76.45.75,1.21,0,.52-.27.74-.82.96-1.17.48-1.88-.44-1.07-1.45.34-.43.81-.71,1.13-.72ZM50.99,111.18c.88,0,1.13.82.49,1.52-.61.66-1.83.66-1.82-.06,0-.57.78-1.46,1.34-1.46h0ZM45.54,112.15c.59.19,2.04,1.34,2.68,1.48.03.39-.39.49.21,1.22.27.33.3.56.06.69-.73.43-3.24-.92-3.41-2.31-.08-.68.12-1.06.46-1.09ZM48.82,113.81c.87.04,1.84.07,1.74.52-.07.33-.38,1.2-.78,1.04-.19-.08-.38-.29-.51-.43-.46-.49-.58-1.14-.45-1.13ZM81.56,117.75c2.52,2.51,11.68,28.75-7.41,47.87l-4.05,1.34c18.33-15.84,15.28-38.32,10.33-48.01,0-.28-.07-.25-.53.2-.4.4-.44.48-.28.56,5.59,9.46,7.68,36.19-14.34,49.09-.37.42.38.36.38.36.04-.35,9.92-2.99,9.22-3.05,9.21-8.95,17.22-30.31,7.24-48.92-.24-.17-.56.58-.56.58h0ZM78.38,120.73l-.13.59c7.99,17.26.36,38.41-14.49,46.23.24.2.52.33.79.47,16.85-9.98,21.71-31.11,14.36-47.47l-.53.18ZM77.04,121.95l-.09.63c6.61,14.69,1.36,35.07-14.42,43.34-.15.89,0,.63.74.59,18.27-10.78,19.98-31.28,14.27-44.59l-.49.03ZM75.91,123.71c-.52.75-1.46,1.14-1.77,2.1,5.31,15.43-1.55,30.29-13.16,36.55,0,.78-.52,2.7.71,2.39,14.34-7.15,20.58-26.15,14.31-41.11,0,0-.08.07-.09.07h0ZM147.95,153.55c.53.04,1,.22,1.49.29,1.78.25,2.94,1.68,2.14,2.55-.26.29-.63.12-1.78-.5-.53-.29-.62-.55-.73-1.2-.13-.77-.27-.85-.45-.25-.18.61-.38.98-.98.83-1.71-.44-1.06-1.73.31-1.72ZM128.89,166.69c-4.28-2.67-9.56-7.49-12.58-12.96-1.5,3.1-3.27,8.74-3.27,8.74l-6.72-2.06-.08.15,6.64,2.1-.65,2.44c-.07.26-1.1,3.04-1.1,3.04l10.37,5.32c-.64,1.11-1.34,1.82-2.23,2.85-.5.58-.52,1.34-.52,1.34l14.37-15.09s1.85,3.03,2.54,3.71c.65.64.85.8.09.99-3.38.54-6,3.36-5.08,7.13.15.42.45.27,1.09-.18,2.24-2.23,7.72-4.3,7.91-3.78l.02,2.4c-5.9.09-5.3,4.87-4.86,7.43,0,.06-1.71,1.7-1.71,1.7.6.35,1.19.71,1.75,1.14-.52,3.18,1.95,7.8,6.79,5.44.42.47.81.95,1.28,1.54.5-.63,1.07-2.12,1.07-2.12,2.41,1.2,7.4-1.48,4.84-7.62l1.41-1.48-1.35-.94c-.04-1.56-.25-2.96-1.1-4.32,0,0,2.27.64,3.95.74h0c1.04.1,1.91.13,1.83-.56-.03-.2-.18-1.2-.28-1.52-.5-1.61-3.1-2.79-5.63-2.95-.41-.03-.86-.01-.94-.13-.16-.22.13-.53.4-.48,1.38.26,2.71-.86,2.95-2.29.05-.25.33-.71.74-1.2.72-.87.78-.84.76-2.1,0-.87.13-1.06.49-1.64.47-.83.69-1.91.45-3.04-.07-.36-.38-.86-.12-1.74.42-1.44-.51-2.76-1.73-3.51-.1-.03-.07.07-.15.18-1.11.38-2.46-.49-2.46-.49-.28-.15.94-7.97,3.48-7.27.42.28.6,1.64.57,1.66.12,0,.18-.8.02-1.33-.17-.56-.56-1.09-1.32-.93-.59.12-1.26.98-1.57,1.41-1.18,1.66-1.2,2.72-1.59,4.48-.19.83-.21.79-1.26-.12-.75-.65-1.12-.85-.86-1.23.12-.17.61-.71.61-.71l9.59-9.71v97.53h-52.26l.36-12.82c.97-8.78-.74-27.23-2.03-28.96,1-1.23,4.1-4.21,3.93-4.35l-.41-.27-1.64,1.66-4.05-1.35c-1.73-1.31-3.49-2.52-5.31-3.04-2.98-.84-8.73,1.84-8.74,1.87-9.18.75-16.53,4.85-16.43,4.82-.4-.4-.93-1.69-.94-1.69-4.73-7.25-9.38-11.31-15.74-16.26l8.05-4.89-19.08-21.93-.17-17.81,27.63-29.07c.16-.5,8.82,6.73,12.04,12.61.62-2.88,1.77-5.49,2.73-8.31.1-.26,5.5,2.2,7.1,2.3.24.02.43-.26.43-.26l-7.12-2.55,1.46-4.59s.51-1.25-.07-1.45c-3.25-1.16-6.29-3.19-9.4-4.93,0,0,1.45-1.77,1.47-1.85.02-.07.61-1.03.47-1.35-1.58,1.69-14.47,14.84-14.47,14.84-.37-2.26-.94-3.05-2.2-4.44.68-.04,1.75-.78,2.37-1.27,1.89-1.51,2.92-4.22,2.67-5.8-1.81.63-3.45,1.38-5.72,1.83-1.28.25-2.49.89-3.22,1.57l-.11-2.52s3.06.59,4.47-1.67c1.22-1.94.72-4.17.44-5.3.03-.25-.04-.22.49-.76.39-.39.99-.9.99-.9.03-.14-1.58-.8-1.85-1.39.43-4.67-2.96-6.47-5.83-5.64-.54.18-.79.29-1.43-.49-.1-.12-.86-1.01-.86-1.01,0,0-.34.86-.51,1.23-.56,1.22-.72.85-1.93.92-3.07.17-4.45,2.9-3.74,6.25.17.79.09.67-.38,1.66-.24.51-.63,1.16-.63,1.16,0,0,.56.34.94.53.56.28.59.6.59,1.22.08,1.36.35,2.27,1.06,3.44-2.41.06-4.26-.19-6.44-.98.33,3.69,2.81,5.06,5.83,5.6,0,0-.32.33-.65.47-.71.23-1.15.91-1.14,1.52-.1.59-.45,1.17-.76,1.49-.47.45-.86,1.08-.67,2.3-.05.89-.24,1.14-.48,1.48-.48.68-.64,1.36-.52,2.25.06.42.17,1.31.09,2.23-.13,1.53.37,2.11,1,3.19.41.7.32.72.23,1.23-.23,1.22-.47,1.84-.71,2.77-.55,2.07-.57,3.65-.12,4.05.68.61,1.45.43,1.8.3,2.68-.91,2.21-3.8,2.36-5.75.08-.5.23-.74.38-.72.76.98,1.56,1.54,2.59,2.15-3.56,3.99-5.85,6.43-10.35,10.79V32.71h51.48s.05.81-.07,4.33c-.22,7.15-.5,14.64-.07,21.93.07,2.52.02,5.01.35,7.51.32,2.43.46,5.05,1.5,7.32.41,1.23.43,1.13-1.15,2.74-.78.79-1.43,1.63-1.41,1.78,0,.05-.03.23.08.13.08-.07.65-.69.72-.78.43-.56,1.15.16,3.59.92.48.15,1.16.65,1.67,1.06,3.65,3.39,8.8,2.33,12.64.48,1.09-.52,1.36-.58,3.11-.81,6.49-.85,13.43-3.97,13.42-3.96l.85,1.53s.32-.06.55.32c3.73,7.76,15.93,16.63,15.71,16.22l-7.97,4.86c5.8,7.89,19.15,21.27,19.15,21.27v19.24c-3.56,3.14-7.08,6.73-10.21,10.24-.9.98-1.54,1.54-1.19,1.56.81-.14,1.52.75,2.18,1.36.42.51.32.47-.17,1.17-.34.49-.46.64-.47.99.01.69,0,1.15-.55,1.67-.35.48-.54.79-.61,1.35-.06.57-.06.93-.41,1.43-.6.14-.66,1.1-.55,1.53.63.69.34,1.43.4,1.27-1.2,1.43-2.46,2.68-1.66.67.36-.75.49-1.36.49-1.36,0,0-.58.66-.88.97-.46.47-.63.19-.65-1.27-.06-1.11-.48-2.65-.65-2.95-.09-.17-.11.12-.07,1.19.06,1.4.21,1.81-.24,3.21-.61,1.89-1.04,2.16-.05,2.09.93-.06,1.72-.07,2.13.54.14.21.31.56.69.77.77.46,1.38.97,1.81,1.48,1.38,1.65.98,3.13-1.68,2.13-1.4-.53-.48-1.19,1.03-1.04.93.1,1.08-.28.28-.55-1.49-.3-1.73-.49-2.72.8-4.14-.45-6.46-2.99-7.57-5.07-.47-.87-.61-1.03-.28-1.52.13-.19.05-.13-.17.13-.22.27-.82.49-1.02.68-1.39,1.52-2.8,3.16-4.05,4.4h0ZM146.89,156c.7.1.69.74.06,1.37-.59.49-.99.59-1.32.22-.58-.65.17-1.59,1.26-1.58ZM148.94,156.45c.57,0,1.29.28,2.14,1.07,1.02.94,1.26,3.2.32,3.59-.39.16-.45,0-1.29-.87-.57-.59-1.18-1.13-1.78-1.44-1.23-.65-1.39-.89-.56-1.33.18-.1.4-.33.51-.52.21-.38.28-.5.67-.5h0ZM147.6,159.47c.16,0,.38.11.73.32,2.08,1.25,3.1,3.21,2.39,4.31-.46.73-1.21.45-1.79-.58-.32-.58-1.18-1.32-2.15-1.86-1.11-.62-1.14-.71-.33-1.13.33-.17.58-.42.74-.73.19-.36.2-.33.41-.32h0ZM148.27,164.14c1.57,1.72,1.39,2.66.37,3.36-.7.48-1.81.6-2.18.2-.59-.57-.58-1.22.08-1.43.61-.14.38-.41-.19-.57-2.04-.64-3.29-1.83-1.07-1.57.64.07,1.25-.47,1.58-.9.48-.64,1.13.6,1.41.91h0ZM41.16,164.8l45.75,71.86h-36.96c1.3-11.43-1.31-24.12-4.77-32.39,3.76-.7,7.34-1.8,10.93-2.88l-.73-1.04c-4.28,1.88-8.23,2.57-11.94,3.04,4.93,9.24,6.69,21.98,5.22,33.28h-7.05v-55.79l-.44-16.07ZM49.35,175.5c.65-.03,2.26,1.23,2.46,2.17.04.19.46,1.35.93,2.43,0,.2,1.6,3.36.9,3.08-1.39-2.08-3.87-5.61-4.5-7.34,0-.23.03-.33.21-.34ZM54.3,178.66c.09.52.57,1.89.95,2.79.99,2.34,2.52,6.02,2.21,7.06-.21.7,0,.67-.56-.2-.27-.43-1.13-1.74-1.34-2.04-.5-.74-.16-.06-.45-1.27-.68-3.41-1.79-5.2-2.5-7.19-.26-.93,1.36.48,1.69.85h0ZM55.18,179.18c.13.1,1.95,1.51,2.13,1.71.64,2.52,3.22,10.59,2.55,12.04-.23-.2-1.21-1.5-1.35-2.17-.3-3.86-1.41-6.64-2.6-9.51-.34-.87-.6-1.73-.73-2.06ZM58.6,182.01c.58.31,1.17,1.02,1.51,1.65.23.43.34.93.55,1.99.66,3.29,1.91,6.63,1.35,10.15-.35.53-1.12-.67-1.23-1.84-.36-3.89-.67-5.76-1.92-10.33-.24-.89-.42-1.58-.26-1.61ZM61.52,185.03c.12,0,.37.26.79.69.82.84.93,1.15.94,2.55.03,2.06.65,4.41.75,6.48.06,1.2.26,4.3.09,4.48-.24.36-1.29-.95-1.21-2.97.13-2.42.03-4.24-.91-8.43-.43-1.94-.65-2.76-.46-2.81,0,0,.02,0,.02,0h0ZM146.15,172.8c3.28,2.31,2.12,6.58,1.42,7.11,4.52,6.29-2.51,9.51-4.74,7.25-3.3,3.61-8.97.58-6.79-5.37,0,0-4.15-8.72,4.03-8.14,0,0,.14-3.52-.09-3.68-2.92-.22-6.89,2.88-8.01,3.73-.62.41-.76.22-.76.22-.16-1.83-.16-2.67.52-3.69,1.18-1.78,3.13-2.38,5.69-3,3.17,1.07,6.18,2.76,9.12,2.5,1.62.01,3.27.3,4.83,1.22,1.06.55,1.61,2.61,1.61,2.61-1.66.95-6.82-.76-6.82-.76h0ZM144.6,159.88c.01-.62.65-1.32,1.29-1.24.87.07.98,1.2.21,1.61-.22.2-.94-.09-.98.13.05.38-.3.22-.37.08-.12-.16-.15-.4-.15-.58ZM144.07,162.34c.32-.25.58-.27.9-.31.49-.07,1.12.02,1.26.58.14.56-.83.88-1.62.9-.4,0-.86.09-.98-.22-.11-.29.27-.82.44-.95h0ZM44.93,122.57c.63-2.42.24-3.77,1.29-6.75l2.56.94s.11,2.92-.41,4.55c-.52,1.63-2.22,2.92-3.45,1.26ZM64.03,187.94c.3.04,1.05,1.2,1.38,2.27.31.99.21,2.24.43,3.3.5,3.64.47,7.29.34,8.4-.07.55-.39.33-.83-.2-.64-.76-.55-.78-.54-2.89,0-1.81-.36-6.29-.53-7.2-.31-1.68-.44-3.29-.37-3.57.02-.08.06-.11.12-.1ZM94.02,188.38c3.3.58,5.94,3.06,7.45,7.14,1.46,4.15,1.82,9.82,2.05,15.03-.02,1.25-.48.93-1.71.16-1.34-.72-1.62-.51-3.57-.02-1.22.31-1.11-.6.9-2.11.68-.49,1.47-1.14,1.21-1.24-.13-.05-.74.13-1.18.52-1.96,1.75-2.5,2.17-1.93.47.14-.43.6-1.62.79-2.19.71-2.13-.11-3.05-2.52-4.4-.6-.34-1-.9-.4.28.49.97-.53,1.74-1.79.61-.88-.79-2.64-.26-3.21.72-.55.95-.26,2.72.83,3.29.96.45,1.32.13.39-.58-1.19-.91-.96-2.44.38-2.44.33,0,.91.41,2.39,1.29,1.06.63,1.81.36,1.81-.58,0-.63.33-.58,1.02-.2.94.51.83.97.34,2.39-.33.99-.5,2.12-.8,3.16-.79,3.5-.89,7.45-.02,8.69,2.32,3.28,4.78,2.93,6.89.77l-.09,3.59c-2.15,1.9-4.66,3.19-8.54,10.23-1.35-1.87-7.15-9.51-16.45-11.23l-2.09-3.15c.04-.2-1.56-11.72-2.61-15.64,0,0,1.15-1.92,2.2-3.34,4.18-5.66,11.23-12.14,18.28-11.22h0ZM81.89,191.65c-.36.12-.47-.66-.28-.81.43-.04.58-.02,1.01.01.33.02.32.43-.73.8h0ZM66.19,191.06c.46.36,1.03,1.34,1.59,2.24.31.49.13,1.31.18,2.12.07,1.15.18,3.04.26,4.2.14,2.27-.05,4.16-.35,4.84-.31.82-.93.25-1.09-.87-.04-.27.17-3.05.17-4.57,0-2.62-.61-5.86-.75-7.96h0ZM80.27,191.05c.16-.01.29,0,.4.15.5.71.7,1.13.25,1.52-.6.56-1.16.42-1.49-.64-.22-.75.29-.99.85-1.03ZM78.41,191.67c.54.4,1.08,1.45,1.13,2.2-.03.21-.2.38-.56.71-.36.36-.47.34-.87-.36-.63-1.08-.92-1.79-.8-2.17.31-.36.72-.5,1.11-.38ZM100.39,191.81c.9.08,1.79.54,2.67.77l-1.34,1.42c-.4-.73-.85-1.46-1.33-2.19ZM76.41,192.55c.49.71,1.36,2.56,1.31,3.25-.13.23-.32.44-.53.57-.16.05-.31-.27-.87-1.35-.97-1.89-1.25-2.42-.75-2.65.26-.03.67-.02.84.18ZM74.45,192.99c.54.53,1.83,3.34,1.87,4.13-.02.22-.08.42-.2.57-.81.96-.61.81-1.82-1.94-1.02-2.26-1.29-2.48-.62-2.73.15-.06.52-.13.76-.03h0ZM72.51,193.72c.35,0,.45.65,1.15,2.14,1.16,2.81,1.59,3.2,1.33,3.51-.32.45-.51.76-.82.22-.7-1.25-1.39-2.85-2.04-4.25-.52-1.05-.57-1.17-.23-1.43.19-.15.48-.18.62-.19h0ZM93.19,194.52c-.44.13-2.19.74-1.11.86.22.02.77-.13,1.15-.16,1.08-.08,3.34.14,3.26-.09-.21-.86-2.71-.78-3.3-.61ZM70.99,194.78s.28.6.56,1.13c1.65,3.5,2.56,4.78,2.27,5.33-.24.33-.61.75-.83.65-.35-.16-.83-1.31-2-3.9-1.22-2.68-1.34-2.88-.72-3.23.26-.13.57-.23.73.01h0ZM69.35,196.02c.76,1.35.66,1.18.65,5.58,0,2.74-.33,4.49-.74,5.17-.22.35-.6.15-.79-.55-.09-.32.16-.79.21-1.29.29-3.3.09-6.6.1-9.72.23-.03.46.58.58.8ZM88.87,197.1c.35.55.27,1,.26,1.74,0,1.05.07,1.13.73.6.59-.47.63-.5,1.68.28.62.46,1.4.52,1.91,0,.36-.36.48-.2.96-.06.52.32.67.37,1.78-.23.75-.37.78-.42,1.23-.16.79.76.9.49.8-.51,0-.35.09-1,.19-1.42.39-1.78-.24-1.8-1.08-.66-.33.44-1.05.63-1.73.27-.98-.51-2.51-.3-3.64-.09-1.34.25-1.96-.16-2.5-.66-.3-.29-1-.54-1.08-.32-.08.22.08.56.5,1.23h0ZM70.91,199.59c.17-.04.42.51.8,1.66.49,1.49-.36,6.69-.87,7.54-.27.45-.44.72-1-.11-.22-.36-.05-.48.17-1.5.33-1.55.61-4.07.63-5.24,0-1.52.08-2.31.27-2.36h0ZM72.62,204.63c.12,0,.26.31.45.9.27.81.14,2.38-.22,3.58-.21.7-.41,1.44-.76,2.07-.12.35-.74.23-.91-.55-.11-.49.26-1.1.44-1.89.18-.79.39-1.79.49-2.29.19-1.23.32-1.84.5-1.82ZM85.83,206.93s-.03,0-.04,0c0,0,0,0-.01.01-.03.03,1.29,1.61,1.64,2.05.18.17,1.77,2.29.78,1.81-2.49-1.13-5.4-.58-7.19,1.32-.22.24-.41,0-1.09-.06-1.39-.11-1.9.49-1.05,1.25.13.12.4.17.52.35.11.17.08.48.14.56,2.69,3.93,7.68,4.7,10.81,2.13.39-.32.61-.44.98-.32.73.24.79-.43.15-1.37-.28-.41-.63-.88-.42-1.02.4-.38.59-.99-.1-1.22-.48-.16-1.01-.74-1.28-1.56-.31-.95-3.38-3.87-3.84-3.94h0ZM73.61,208.65c.59-.02.61,3.79-.03,4.94-.33.44-1.09-.38-.98-1.21.09-.63.71-3.49.85-3.64.06-.06.11-.09.16-.09h0ZM85.54,211.03c.49,0,1.16.24,1.7.77.29.29.79,1.53.58,2.02-.06.25-.67.23-.72.05-.33-2.51-2.18-2.87-2.77-.53,0,0-.38.36-.43-.33.13-1.33.7-1.97,1.64-1.98h0ZM100.43,211.25c.59-.01,1.15.31,1.44,1,.2.48.22.89.14,1.1-.06.16-.26.09-.26.09-.94-2.83-2.22-1.52-2.68.04,0,0-.48.16-.54,0-.06-.17-.02-.49.17-.93.37-.84,1.06-1.29,1.73-1.3h0ZM87.87,211.42c.33-.02.9.28,1.33.75.43.48.47.77.13,1.12-.21.21-.96.43-1.1.05l-.63-1.61c-.06-.15.12-.3.28-.31h0ZM83.35,211.5c.37,0,.45.09-.13,1.59-.12.32-1.62-.14-1.34-.76.43-.49,1.1-.83,1.47-.83ZM98.37,211.62c.15,0,.27.02.32.09-.13.05-.7,1.63-.7,1.63-.54-.07-1.17.01-1.29-.47-.11-.46.11-.73.86-1.05.23-.09.56-.19.81-.2ZM102.76,212.02c.57.23.7.76.63,1.03-.06.21-.32.21-.51.05-.18-.23-.45-.62-.43-.89.06-.26.13-.27.31-.19ZM74.47,213.48c.17.36.49,2.41.12,2.36-.36-.1-.52-.72-.59-1.28-.01-.11.31-1.07.46-1.08ZM80.72,214.57c.17-.03.58.13,1.2.52,2.04,1.08,4.12,1.24,6.34.69,1.28-.37,1.6-.58,1.79-.34.31.41-.18.82-1.98,1.49-1.98.73-4.03.61-6.74-1.49-.73-.56-.82-.84-.61-.87h0ZM103.31,215.14c.34.69-.81,1.34-1.38,1.52-1.23.39-3.09.21-4.14-.49-.09-.06-.17-.12-.25-.19-.85-.7-.5-1.2.45-.66,1.02.58,3.11.69,4.21.1.55-.29.93-.66,1.11-.29h0ZM78.03,216.42c-.11.03.08.34.48.82,2.79,3.44,9.43,5.31,13.16,1.76,1.17-1.21.99-1.75-.85-.79-2.04.74-4.94.84-7.45.43-1.23-.18-3.24-.7-4.26-1.52-.64-.52-.98-.72-1.08-.69h0ZM97.23,216.52c.17.02.47.08,1.11.45.94.54,3.09.36,3.79.07,1.48-.6,1.78.16.38,1.01-1.56,1.04-3.71.63-4.97-.71-.39-.38-.6-.86-.43-.9.02,0,.09.07.12.07ZM78.77,222.61c5.48.55,13.76,6.87,16.99,14.06h-1.86c-3.24-5.66-8.23-10.54-14.15-12.24-.23-.2-1.11-1.57-.98-1.82h0ZM103.12,223.92l-.25,1.99c-.92.83-4.29,3.9-6.79,8.71-.52-.03-.77-.72-.69-1.19,2-4.34,4.39-6.74,7.73-9.51h0ZM80.95,225.48c1.26-.1,9.44,5.07,12.2,11.19h-1.51c-3.1-4.44-6.55-7.67-9.61-8.83-.74-.86-1.56-2.32-1.09-2.35ZM102.86,226.86v2.69c-1.97,2.1-3.4,4.54-4.52,7.11h-1.52s-.34-1.06-.22-1.52c1.73-3.42,3.38-5.92,6.27-8.28h0ZM90.43,236.67h-1.47c-1.24-1.93-3.09-4.12-4.78-5.23-.69-.95-1.47-2.11-1.16-2.3.02-.7,6.53,4.47,7.41,7.53h0ZM102.89,230.87l-.03,1.55c-1,1.4-1.83,2.9-2.63,4.24h-1.25c1.14-2.72,4.02-6.53,3.91-5.79h0ZM86,233.88c.45.13,2.11,2.2,2.06,2.79h-.75c-.42-.58-.92-1.54-1.21-2.13-.18-.38-.3-.73-.1-.65h0ZM102.61,234.36s0,0,.01,0c0,0-.01,2.3-.01,2.3h-1.26c-.14-.03.61-1.82,1.26-2.3h0Z"/>
        <path id="path6313-8" class="cls-3" d="M109.45,32.45l46.87,73.18.04-16.26-15.04-21.36c3.42-1.16,7.6-1.96,10.89-2.29-4.23-10.31-6.34-20-4.48-33.27-13.14-.17-26.33-.14-38.28,0ZM146.95,32.8c-.37,4.69-.85,9.91-.08,15.71-2.44-.98-3.01.69-3.42.87-.46-1.13-2.16-3.07-4.08-.78-1,1.19-.51,3.43,1.81,4.44-2.66.22-4.04-2.28-4.51-4.86-1.44-1.01-2.95-2.01-3.09-5.56l.74.14c-.25,2.48,2.09,3.74,3.46,2.56.89-.75.98-1.9.63-3.69.71-.16,2.38-.93,1.94-3.28-.61-3.25-3.64-2.87-5.03-.73-1.15-1.57-3.26-1.86-4.11.58-.47,1.36.6,2.88,1.82,3.18-2.71.57-4.08-3.54-4.23-6.33l-1.12-2.2c7.33-.05,10.54-.04,19.27-.04ZM110.21,32.88h5.44s39.73,56.57,39.73,56.57l.08,14.08-45.25-70.66ZM123.97,32.88h.87c.68,4.99,3.28,8.6,7.73,10.35.23,4.07,2.01,9.59,8.78,11.46-.2,4.59,2.48,8.98,5.35,11.09,0,0-.78.21-1.38.27-3.86-3.37-4.81-8.33-5.19-10.37-.13-.3-.5-.37-.79-.44-3.3-1.28-6.08-4.27-7.22-7.91l-.71-3.58c0-.46-.08-.24-1.07-.64-2.55-1.03-4.9-4.07-5.96-7.69-.56-1.9-.41-2.54-.41-2.54h0ZM120.47,32.89h3.05s.02.6.06.98c.41,3.57,3.32,8.04,6.29,9.53.42.21,1,.51,1.14.65.83,5.85,3.24,9.37,8.32,11.78.08.09.31.15.38.27.69,3.62,2.21,7.81,5.09,10.11l-1.25.14-23.09-33.46ZM135.37,39.03c.69,0,1.25.62,1.25,1.37s-.56,1.37-1.25,1.37-1.25-.61-1.25-1.37.56-1.37,1.25-1.37ZM93.28,46.53c.07.2-17.06,16.14-15.39,46.14l-.5.61.14.21c-.57.71-1.11,1.27-1.73,1.96,3.55,2.49,9.74,5.21,9.76,5.14l-1.18,3.02,7.4,2.63-.99,2.87s-5.15-1.88-7.28-2.66c-1.05,2.57-1.69,5.28-2.46,7.95-.07.22-.24.11-.5-.31-3.84-7.21-11.74-12.42-11.47-11.9l-28,29.23-.19,18.07,19.38,21.97s-5.61,3.04-8.26,5.03c2.06,1.85,4.4,3.28,6.45,5.03,4.24,3.29,7.11,8.13,9.86,11.41,12.97-7.08,26.03-6.68,37.31-2.39-1.31,1.52-2.78,2.84-4.14,4.49,3.28,9.47,2.23,28.27,2.06,28.78,6.83-7.67,16.98-24.13,15.63-47.29l2.87-3.17c-.05-.16-7.19-4.36-10.16-5.28l.82-2.88-7.12-2.45.79-2.29,7.09,2.26c1.34-3.63,2.76-8.71,2.76-8.71,2.83,4.66,5.95,8.9,12.38,13.22l27.84-29.31-.18-18.84-18.95-20.86,7.89-4.52c-.76-.67-1.86-1.31-2.64-1.99-.06-.05.16-.19.1-.24-.2-.17-.34-.3-.54-.46-.05-.03-.19.19-.23.16-2.68-2.07-5.36-4.1-7.46-6.57-.05-.06.03-.32-.03-.38-1.1-1.29-2.19-2.49-3.3-3.75-.52-.57-1.37-1.94-1.37-1.94l-.05-.45-1.2-1.66c-3.85,2.5-20.29,8.78-36.19,1.83l3.02-3.33c-.8-2.14-1.33-4.52-1.53-6.47-.83-7.83-.51-21.93-.51-21.93h0ZM143.41,50.96c.73,0,1.32.65,1.32,1.45s-.59,1.45-1.32,1.45-1.31-.65-1.31-1.45.59-1.45,1.31-1.45ZM147.53,52.69c.67,3.61,2.15,8.84,3.62,12.37l-1.75.21c-1.43-1.02-2.93-2.51-3.09-4.62-3.86.03-4.98-6.62-3.58-5.82-.18,2.27,1.3,3.17,2.76,2.95,1.25-.19,2.33-2.09.84-4.19.66-.28.99-.5,1.2-.9ZM92.88,63.35c.26,4.61,1.08,7.97,1.85,11.46l-7.62,7.91c.59-7.22,2.52-13.67,5.77-19.37ZM129.42,78.54l.97,1.53c-11.01,7.11-29.8,7.62-41.25,1.62l1.52-1.59c10.07,5,26.46,5.37,38.76-1.55ZM57.92,80.91c-1.11-.02-2.39.45-3.75,1.59-5.05-2.53-8.36,3.39-5.24,7.31-.46,2.82-.81,3.35,1.12,6.2-2.05.29-4.64-.3-6.84-.68.37,4.18,5.81,5.15,8.07,4.69,2.44-.58,4.75.75,4.85.78,1.44.44,2.33,1.2,3.75,1.57,2.34.61,5.76-2.4,6.26-5.26.05-.38.15-.73-.04-.79-1.6.45-3.35,1.08-4.91,1.46-1.52.41-2.67.82-3.83,1.82l-.1-3.45c7.91.41,4.47-7.86,4.02-8.22,1.47-3.27-.3-6.97-3.37-7.01h0ZM129.84,81.17l1.72,4.55-4.57,1.71-1.17-4.46,4.02-1.8ZM57.59,81.31c2.69.03,5.09,3.15,2.51,6.64,5.01,4.86-1.41,10.07-4.47,6.45-4.07,4.1-8.39-.18-6.12-4.65-4.34-4.27,1.01-10,4.67-6.31.9-1.52,2.18-2.14,3.4-2.13ZM88.81,82.98c.64,0,1.17.57,1.17,1.28s-.52,1.28-1.17,1.28-1.17-.57-1.17-1.28.52-1.28,1.17-1.28ZM59.02,83.07c-.07,0-.15.03-.23.12-.13.01-.41.55-1.12,1.45-1.23,1.57-1.37,1.59-1.37,1.59-1.32-.47-2.2-.22-3.06.39,0,0-.99-.21-2.35-1.46-.62-.57-.96-.7-1.07-.39-.12.33.17.65,1.36,1.54,1.65,1.24,1.55,1.14,1.55,1.14-.1,1.09.06,1.97.43,2.79,0,0-.29.77-1.46,2.46-.33.48-.6,1-.6,1.15,0,.66.52.22,1.72-1.45.47-.65,1.11-1.59,1.11-1.59,1.41.54,1.9.21,2.78-.14,0,0,.3.25,1.07.92,1.4,1.23,1.71,1.36,1.88,1.21.23-.21.2-.28-.33-.7-1.58-1.26-2.13-1.99-2.13-1.99.32-1.38-.03-2.52-.38-3.24,0,0,.03-.18.92-1.27.66-.81,1.56-2.08,1.5-2.26.02-.11-.07-.27-.22-.27ZM91.44,83.35l4.12,1.41-.91,4.71-4.39-1.56,1.18-4.56ZM121.24,84.51l1.15,4.6-4.28,1.25-.7-4.88,3.84-.97ZM124.25,84.58c.64,0,1.17.57,1.17,1.28s-.52,1.28-1.17,1.28-1.17-.57-1.17-1.28.52-1.28,1.17-1.28ZM133.99,84.75l3.6,3.53-4,2.22-1.93-4.6,2.32-1.15ZM100.03,85.77l4.18.54-.17,4.95-4.8-.71.79-4.78ZM85.52,85.82l4.66,2.25-1.68,5.16-4.77-2.25,1.79-5.16ZM97.52,86.22c1.72.3,1.25,2.52,0,2.57-.64,0-1.17-.57-1.17-1.28s.52-1.28,1.17-1.28ZM112.57,86.22l.57,4.95-4.34.29-.09-5.03,3.86-.21ZM115.56,86.79c.64,0,1.17.57,1.17,1.28s-.52,1.28-1.17,1.28-1.17-.57-1.17-1.28.52-1.28,1.17-1.28ZM55.09,87.25c.66,0,1.2.59,1.2,1.32s-.54,1.32-1.2,1.32-1.2-.59-1.2-1.32.54-1.32,1.2-1.32ZM106.52,87.21c.64,0,1.17.57,1.17,1.28s-.52,1.28-1.17,1.28-1.17-.57-1.17-1.28.52-1.28,1.17-1.28ZM126.98,87.52l1.69,5.09-4.75,1.68-1.34-5.23,4.4-1.55ZM130.31,87.66c.64,0,1.17.57,1.17,1.28s-.52,1.28-1.17,1.28-1.17-.57-1.17-1.28.52-1.28,1.17-1.28ZM138.52,89.1l3.07,2.39-1.52.93c-.4-1.05-1.1-2.29-1.55-3.32ZM94.68,89.56l4.53,1.08-.69,5.22-4.94-1.08,1.1-5.21ZM81.21,89.85l2.4,1.24-1.59,4.35-3.89-2.28,3.07-3.31ZM91.96,90.13c.64,0,1.17.57,1.17,1.28s-.52,1.28-1.17,1.28-1.17-.57-1.17-1.28.52-1.28,1.17-1.28ZM118.11,90.42l.81,5.22-5.11.79-.32-5.32,4.61-.69ZM137.23,90.52c.64,0,1.17.57,1.17,1.28s-.52,1.28-1.17,1.28-1.17-.57-1.17-1.28.52-1.28,1.17-1.28ZM133.61,90.56l1.69,4.6-5,2.3-1.48-4.6,4.78-2.29ZM120.87,90.89c.64,0,1.17.57,1.17,1.28s-.52,1.28-1.17,1.28-1.17-.57-1.17-1.28.52-1.28,1.17-1.28ZM104,91.41l4.78.1-.06,5.28-5.24-.16.51-5.21ZM142.23,91.78l1.88,1.44c-19.35,13.69-46.54,15.39-67.75,1.91,0,0,.87-.95,1.36-1.51,19.13,12.59,47.05,10.83,64.51-1.84ZM101.4,92.37c.64,0,1.17.57,1.17,1.28s-.52,1.28-1.17,1.28-1.17-.57-1.17-1.28.52-1.28,1.17-1.28ZM111.22,92.66c.64,0,1.17.57,1.17,1.28s-.52,1.28-1.17,1.28-1.17-.57-1.17-1.28.52-1.28,1.17-1.28ZM88.45,93.37l4.99,1.59-.85,4.34-5.47-1.73,1.33-4.19ZM85.15,93.4c.64,0,1.17.57,1.17,1.28s-.52,1.28-1.17,1.28-1.17-.57-1.17-1.28.52-1.28,1.17-1.28ZM123.92,94.33l1.19,4.87-5.52,1.3-.67-4.79,4.99-1.38ZM127.1,95.03c.64,0,1.17.57,1.17,1.28s-.52,1.28-1.17,1.28-1.17-.57-1.17-1.28.52-1.28,1.17-1.28ZM54.98,95.79v3.41c-.93-.83-1.96-1.71-3.02-2.61,1.08.06,2.08-.26,3.02-.81h0ZM43.62,95.87c.25,0,.84.22,1.54.22,2.25,0,6.45.76,7.69,1.89.41.37,1.03.7,1.37,1.31,0,.29-.37.29-.91-.08-1.04-.71-2.77-1.35-5.09-1.7-.42-.06-.47-.05-.47.17,0,.27.39.42,1.61.65,1.58.29,1.92.46,2.27.56.94.28.34.66-.63.76-3.94.41-6.89-1.46-7.48-3.59-.05-.14,0-.19.11-.19h0ZM98.51,95.95l4.96.71-.23,4.57-5.43-.68.69-4.59ZM56.35,96.35c.87.75.27,3.02-.2,3.68-.31.37-1.02.18-1.02-.35.11-.47-.04-2.73.05-3.43.35-.22.85-.16,1.17.1h0ZM113.8,96.55l.26,4.71-5.41.27.04-4.62,5.11-.36ZM95.56,96.86c.64,0,1.17.57,1.17,1.28s-.52,1.28-1.17,1.28-1.17-.57-1.17-1.28.52-1.28,1.17-1.28ZM65.42,96.93c.2,3.45-4.62,5.8-6.43,4.74-.8-.47-.47-.76,1.12-1.11,2.05-.6,3.4-1.18,3.4-1.6,0-.26-.31-.23-1.14.11-1.29.48-2.62.68-3.85,1.29-.92.46-1.28.62-1.48.34-.43-.58,1.61-2.04,3.72-2.42,1.59-.29,3.19-1.22,4.66-1.35h0ZM116.79,97.36c.64,0,1.17.57,1.17,1.28s-.52,1.28-1.17,1.28-1.17-.57-1.17-1.28.52-1.28,1.17-1.28ZM105.95,98.3c.64,0,1.17.57,1.17,1.28s-.52,1.28-1.17,1.28-1.17-.57-1.17-1.28.52-1.28,1.17-1.28ZM131.92,100.48c7.8,8.17,16.35,17.59,23.41,25.33,0,4.05-.03,12.15-.03,12.15l-26.94,28.17c-4.88-3.28-9.01-7.37-12.81-14.65.43-.41.81-.67,1.13-1.11l-1.41.92c-4.97-8.74-7.08-26.17,1.36-40.14l-8.53.34,1.39-3.2,9.28-.56,3.75-4.43s1.19-.24,2.18-.49c.98-.25,2.97-.88,4.44-1.4,1.46-.52,2.71-.95,2.77-.95h0ZM68.95,102.74s8.02,4.79,12.47,14.4c-14.39,13.62-19.81,29.48-21.04,45.99-7.83-8.06-11.79-12.52-18.87-20.35l.26-11.68,27.18-28.36ZM99.22,104.27c-2.07,4.88-3.86,10.23-5.46,15.95l-2.23-.73s1.44-.66,2.09-1.08l-1.16-2.05,2.2-.99-1.3-1.74,2.23-1.42-1.11-1.54,2.04-1.12-1.27-1.6,2.14-1.31-1.12-1.53,2.95-.82ZM99.9,104.28s.29.06.62.13c.08-.03-.4,1.28-.35,1.32.78.18.82.13,1.06.21l.59-1.35.97.2c-1.97,4.88-4.07,10.23-5.28,16.01l-1.15-.26s.34-1.22.34-1.38c-.13-.03-.78-.33-.98-.42-.07.19-.48,1.6-.48,1.6l-.91-.03c1.49-6.32,4.08-13.32,5.56-16.04h0ZM103.64,104.47l2.04,1.86-2.31.99,1.2,1.75-2.45.97,1.41,1.82-2.43.98,1.45,2.2-2.52.94,1.59,1.94-2.28,1.17,1.36,1.49s-1.42.52-1.5.54c-.23.06-1.18-.19-1.18-.19,1.44-5.64,3.22-11.35,5.63-16.45h0ZM54.09,105.4c-.56.4-.24,1.28-.95,2.02-.11.13-.12.44-.17.71-.03.2-.59,2.64-.59,2.64,0,0,.14-.19.36-.96.19-.66.36-1.92.46-2.13.52-.17.6-2.04,1.13-1.79.3.15.25.45.07,1.17-.38,1.43-.52,2.03.12,1.06.96-1.27,1.06-2.42-.03-2.67-.11-.02-.35-.05-.41-.05h0ZM68.64,105.94l-25.17,26.01-.08,9.7,8.76,9.77,6.22,6.63c2.26-14.85,7.43-29.02,20.18-41.28-1.95-3.46-5.3-7.81-9.91-10.83h0ZM136.49,106.2c-14.79,7.65-18.19,23.34-13.61,37.54,7.05-9.97,12.58-19.35,13.61-37.54ZM83.85,107l6.72,2.38-2.53,9.49-6.05-2.02-.62-1.68,2.48-8.17ZM135.74,107.24c-.64,12.69-4.99,25.09-12.56,34.81-3.83-10.39-1.52-26.99,12.56-34.81ZM99.57,107.31l-.42,1.18.93.29.4-1.2-.9-.27ZM98.64,110.1l-.38,1.2.95.36.36-1.22-.93-.34ZM138.26,110.32c-2.07,17.6-10.71,33.63-19.84,41.79,2.91,5.19,6.33,8.53,9.81,11.32l25.72-27.11-.1-9.04-15.58-16.95ZM70.29,114.99c-.16.64-.21.97-.21.97,0,0,.3-.3,1.08-.77,5.05-2.77,3.42,1.44,1.04,3-.53.31-1.08.68-1.08.68,0,0,.51.13,1.05.24,3.07.7,2.41,2.68-.78,2.37-.47-.05-1.03-.14-1.03-.11,0,.03.19.77.41,1.38,1.08,2.99-.93,3.22-2.26,1.32-.18-.26-.6-.99-.6-.99,0,0-.13.55-.21,1.09-1.14,4.68-3.96,4.57-2.91-.19.13-.49.29-1.37.29-1.37,0,0-.63.42-1.32.76-3.65,1.79-4.25-.05-.93-2.75.94-.77,1.26-1.07,1.26-1.07-.59-.05-1.13-.15-1.61-.28-2.65-.73-3.35-2.47.89-2.39.63.01,1.26.06,1.26.06,0,0-.21-1-.43-1.76-1.02-3.49,1.04-3.91,2.78-.78.37.67.48.67.48.67-.05,0,.11-1.19.53-2.29,2.11-4.29,2.93-.37,2.29,2.22h0ZM115.78,111.52c-1.77,3.43-3.31,6.85-4.04,10.41l-6.87-.13c.48-3.16,1.69-6.44,3.14-9.91,2.8-.08,5.32-.22,7.77-.37ZM97.63,113.04l-.4,1.26,1,.34.36-1.23-.96-.37ZM46.24,115.41c-.74,2.11-.98,4.45-1.39,6.33-.17,1.09,0,1.54.6,1.79.84.35,2.06-.13,2.74-1.2.38-.61.66-1.85.72-4.06l.07-1.97c-1.04-.21-1.76-.52-2.74-.89h0ZM96.7,115.69l-.33,1.16.96.39.37-1.17-1-.38ZM141.22,116.12c1.17.03,1.39.15,2.45.84l2.04,2.31c-.54.56-.87,1.36-.87,2.24,0,1.71,1.26,3.1,2.82,3.1.77,0,1.98-.89,1.98-.89l3.24,3.69c-1.89.91-3.74-1.18-4.43-2.01-.16-.19-.21-.33-.21-.33,0,0,.03.1-.04.51-.27,1.64-1.74,6.49-3.15,6.23-1.59-.29.03-7.22.05-7.06-1.09,1.27-6.4,2.62-6.03,1.2.74-2.81,4.71-3.9,5.24-4.39-2.11-1.4-4.79-5.28-3.07-5.44h0ZM46.5,116.21c.67.05,1.13.14,1.59.35.21.06.22.26.25.44,0,.83.19,3.27-.51,3.29-.78-.02-1.51.17-2.02.6-.41.35-.55.1-.44-.79.11-.86.5-2.66.66-3.39.03-.3.24-.51.46-.5ZM67.5,116.24c-1.56,0-2.82,1.39-2.82,3.1s1.26,3.1,2.82,3.1,2.82-1.39,2.82-3.1-1.26-3.1-2.82-3.1ZM67.5,117.33c1.01,0,1.83.9,1.83,2.02s-.82,2.01-1.83,2.01-1.83-.9-1.83-2.01.82-2.02,1.83-2.02ZM82.03,117.36c6.46,12.26,5.71,29.1-1.9,41.35l8.18-.63-1.08,2.31-8.73.94c-1.33,1.34-2.55,2.88-3.86,4.31v.51c-3.01.76-6,1.64-9.05,2.85-1.61-1.74-4.64-5.22-4.62-5.3l.19-1.13c20.75-11.65,14.68-35.01,13.22-36.94,2.23-2.94,4.88-5.71,7.63-8.27h0ZM139.62,119.59c.84,0,1.52.75,1.52,1.68s-.68,1.68-1.52,1.68-1.52-.75-1.52-1.68.68-1.68,1.52-1.68ZM146.39,120.05l2.55,2.89c-.33.36-.79.58-1.29.58-1.01,0-1.83-.9-1.83-2.01,0-.57.22-1.09.57-1.46ZM58.8,120.4c.84,0,1.52.75,1.52,1.67s-.68,1.68-1.52,1.68-1.52-.75-1.52-1.68.68-1.67,1.52-1.67ZM47.48,121.11c.71.26.55,1-.37,1.64-.6.42-1.14.51-1.67.2-.99-.59,1.07-2.22,2.04-1.84ZM59.24,125.21l-9.17,9.76c.58-1.62.6-3.24.64-4.86,2.76.31,3.91-1.23,3.51-4.4,1.78.12,3.63-.09,5.02-.5h0ZM73.94,126.32c4.25,13.34.56,27.46-12.74,35.63.55-12.78,5.42-25,12.74-35.63ZM86.05,127.49c7.3,2.1,15.61,3.08,24.23,3.09.06,3.61.22,7.43.9,11.12-7.35-2.11-15.55-3.1-24.52-2.92.37-3.82-.22-8.15-.61-11.28h0ZM140.16,129.46l-7.77,10,.33-5.46c2.62.37,3.55-1.15,3.16-4.15,1.43.19,2.85-.08,4.28-.39ZM64.65,130.02l-.61,3.99c-1.55.05-3.07.65-3.05,4.46l-4.64-.06,8.3-8.4ZM150.18,130.75c.84,0,1.52.75,1.52,1.68s-.68,1.68-1.52,1.68-1.52-.75-1.52-1.68.68-1.68,1.52-1.68ZM57.6,131.26c.84,0,1.52.75,1.52,1.68s-.68,1.67-1.52,1.67-1.52-.75-1.52-1.67.68-1.68,1.52-1.68ZM146.78,132.98l-.81,6.05c-2.12-.2-3.88.15-3.34,4.25-1.79-.19-4.28.27-5.95.43l10.1-10.73ZM139.19,134.08c.84,0,1.52.75,1.52,1.68s-.68,1.67-1.52,1.67-1.52-.75-1.52-1.67.68-1.68,1.52-1.68ZM46.44,135.37c.84,0,1.52.75,1.52,1.68s-.68,1.67-1.52,1.67-1.52-.75-1.52-1.67.68-1.68,1.52-1.68ZM51.49,137.35c1.94.48,1.04,5.47.61,6.82-.03.04,5.42-3.15,5.75-1.74.21,2.82-4.52,4.78-4.52,4.78,0,0,3.19,3.05,3.28,4.96,0,1.24-1.33,1.01-3.07-.56-.74-.8-1.32-1.41-1.83-1.97.6-.57.97-1.41.97-2.35,0-1.71-1.26-3.1-2.82-3.1-.86,0-1.63.42-2.14,1.09-.4-.43-.86-.93-1.47-1.57-1.01-1.03-1.71-1.86-1.61-2.23,1.33-1.03,3.97,1.73,4.2,1.99-.2-.54,1.26-5.84,2.66-6.13ZM48.83,143.49s.03.05.05.05c0,0-.03-.03-.05-.05ZM131.7,141.25c.92-.01.87,2.3.54,3.5-.23.92-.45,1.67-.45,1.67,0,0,.78-.67,1.12-.85,2.52-1.3,3.45.17,2.19,1.87-.61.88-1.44,1.07-2.12,1.81.96.05,2.07.28,2.9.82.65.43,1.15.94,1.15,1.26,0,.72-1.6,1.1-3.09.92-.64.02-1.83-.36-1.83-.36,0,0,.5.92.68,1.47.56,1.7.36,3.7-.44,3.7-1.35-.4-2.01-2.05-2.54-3.23-.43,1.32-.85,2.74-1.82,3.72-.96.97-1.45.17-1.4-1.49.02-.66.46-2.62.46-2.62-5.67,2.11-5.25-.74-.82-3.24-2.72-1.43-4.38-2.72.25-3.01-.12-.12-.93-2.85-.07-3.49.8-.59,2.52,1.45,2.6,1.55-.03-.2.45-1.8,1.27-2.91.62-.78,1.09-1.09,1.42-1.09h0ZM126.48,147.19s.01,0,.01,0c0,0-.01,0-.01,0ZM151.29,145.39c-.99.1-1.6,1.06-2.06,1.9-.09.17-.26.23-.33.46-.41,1.45-.77,3.18-.98,5.35.63.28,2.04.76,2.66.5.18-.08.12-.58.18-.74.98-2.73,1.47-4.77,1.47-6.02,0-1.01-.32-1.51-.94-1.45ZM49.87,145.27c1.01,0,1.83.9,1.83,2.02,0,.64-.27,1.21-.69,1.58-1.18-1.29-1.78-1.97-2.57-2.83.34-.47.85-.77,1.44-.77ZM151.64,146.22c.25.66-.55,1.38-1.58,1.37-.61,0-.81.09-.54-.49.32-.71,1.64-2.15,2.12-.88h0ZM137.83,145.76c.84,0,1.52.75,1.52,1.68s-.68,1.67-1.52,1.67-1.52-.75-1.52-1.67.68-1.68,1.52-1.68ZM57.54,145.88c.84,0,1.52.75,1.52,1.67s-.68,1.68-1.52,1.68-1.52-.75-1.52-1.68.68-1.67,1.52-1.67ZM129.55,146.56c-1.56,0-2.82,1.39-2.82,3.1s1.26,3.1,2.82,3.1,2.82-1.39,2.82-3.1-1.26-3.1-2.82-3.1ZM91.9,146.97c-.74,3.57-1.88,6.99-3.32,10.37-2.72.18-5.65.32-7.59.62,3.22-6.21,3.3-7.68,4.5-10.97l6.41-.02ZM96.56,147.48c.76.1,1.6.23,2.35.39-1.39,5.37-3.22,10.88-5.59,16.19l-1.43-.24-.68-.92,2.28-1-1.77-1.99,2.94-.98-1.81-1.96,2.9-.8-1.55-2.08,2.61-1.12-1.65-2.35,2.78-.84-1.36-2.29ZM129.55,147.64c1.01,0,1.83.9,1.83,2.02s-.82,2.01-1.83,2.01-1.83-.9-1.83-2.01.82-2.02,1.83-2.02ZM99.44,147.95l.97.17-.3,1.14,1.1.26.36-1.23s.89.09.98.17c-1.16,5.18-5.24,16.03-5.29,15.97l-1.05-.17.28-1.1-.98-.15h0s-.47,1.18-.47,1.18l-1.04-.1c2.53-6.35,4.25-11.23,5.45-16.15h0ZM150.86,148.36c.78,0,.73.44.17,2.05-.53,1.51-.73,2.12-.98,2.31-.61.48-1.93.08-1.82-.62.35-2.26.47-3.22,1-3.53.55-.12,1.09-.21,1.64-.21ZM103.33,148.54l2.53.54-2.11,1.38,1.34,1.73-2.6,1.22,1.58,1.79-2.5,1.13,1.52,1.97-2.6,1.21,1.77,1.69-2.92,1.02,1.11,1.87-1.1.68-1.36-.23c2.25-5.78,3.7-10.54,5.35-15.98h0ZM109.54,149.93l4.95,1.48.99,1.94-2.32,8.62-6.59-2.13,2.98-9.92ZM99.7,150.76l-.47,1.42,1.09.25.42-1.46-1.04-.21ZM98.75,154.01l-.47,1.42,1.02.22.48-1.43-1.03-.21ZM97.78,156.87l-.48,1.41,1,.23.48-1.41-.99-.22ZM144.26,159.46s-.5.4-.64.58c.11.32.43.82.38,1.15-.04.25-.29.44-.67.88-.93,1.19-1.26,1.06-.72-.21.18-.4.26-.77.26-.77-.22.33-.38.73-.52,1.04-.31.65-.59,1.27-.59,1.27.59.23.99.71,1.37,1.03,0,0,.2-.58.33-1.13.19-.77.56-1.09,1.01-1.35.29-.17.56-.47.56-.47-.5-.56-.56-1.36-.77-2h0ZM96.75,159.81l-.51,1.5.99.27.55-1.53-1.03-.24ZM40.78,163.58c-.09,5.97.09,9.91-.1,16.35l14.7,20.96-2.29.85s-.03.29-.15.33c-3.14.95-8.24,1.9-8.24,1.9,3.79,9.52,6.25,21.43,4.55,33.32l38.05-.11-46.52-73.6ZM121.24,173.71l-1.31,1.45c-19.35-11.52-46-11.48-65.44,2.47l-1.59-1.28c21.22-14.96,47.34-14.87,68.34-2.64h0ZM41.49,165.68l44.78,70.78-5.26.08-39.48-56.83-.04-14.03ZM137.59,166.96s-1.29.37-2.38.75c-3.11,1.1-4.57,3.08-4.28,5.83.08.81.28.8,1.54-.08,2.97-2.06,3.15-2.15,6.85-3.34.29-.09.7-.02.7-.02l-.16,3.21c-6.16-.03-5.82,5.36-4.05,8.16-.62,1.29-1.98,5.81,2.49,7.53,2.23.49,4.59-1.5,4.52-1.61,4.11,2.14,8.88-1.45,5.16-7.66,1.4-2.71.41-4.72-.92-6.45,0,0,.23.02,2.17.42,2.95.6,4.08.49,4.08.49,0-2.92-2.2-4.23-6.79-4.63-3.25.5-8.93-2.62-8.93-2.59ZM88.02,167.3c.22,0,.44,0,.66,0l-.22,4.99-5,.25-.33-4.97c1.72-.13,3.32-.27,4.88-.27h0ZM94.01,167.42l5.36.72-.81,4.67-4.94-.58.39-4.8ZM137.49,167.48c.44.06.3.62-.31.75-.96.21-3.44,1.79-3.44,2.2,0,.27.12.23,1.03-.31.45-.27,1.4-.72,2.1-1.01.7-.29,1.5-.64,1.78-.78.83-.41,1.24-.13.94.65-.2.52-.28.56-2.2,1.23-1.74.61-2.06.77-3.17,1.55-.41.29-1.15.76-1.63,1.03-1.14.65-1.37.65-1.37-.22-.06-2.59,2.54-4.53,6.06-5.09.09-.02.21-.01.21,0h0ZM91.09,168.08c.67,0,1.21.6,1.21,1.34s-.54,1.34-1.21,1.34-1.21-.6-1.21-1.34.54-1.34,1.21-1.34ZM77.82,168.43l.4,4.53-4.92,1.39-1.12-4.68c1.88-.51,3.76-.86,5.64-1.24h0ZM141.15,168.78c1.35.23,1.24,3.62.55,4.21-1.06.84-1.71-.92-1.24-3.25.13-.7.38-.95.69-.96h0ZM80.61,168.96c.67,0,1.21.6,1.21,1.34s-.54,1.34-1.21,1.34-1.21-.6-1.21-1.34.54-1.34,1.21-1.34ZM104.62,169.35l5.56,1.67-1.36,4.73-5.21-1.61,1.02-4.79ZM101.6,169.44c.67,0,1.21.6,1.21,1.34s-.54,1.34-1.21,1.34-1.21-.6-1.21-1.34.54-1.34,1.21-1.34ZM147.07,169.84c2.39.03,5.55,1.35,5.56,3.39-.05.58-5.02-.19-7.31-1.21-.81-.36-1.81-1.46-1.8-1.92,0-.27.49-.25.68.01.32.43,1.47.88,4.09,1.61,2.02.56,2.22.58,2.22.24,0-.31-1.19-.73-2.48-.97-.65-.12-1.26-.33-2.25-.43-.47,0-.58-.32-.19-.54.42-.14.94-.2,1.49-.19h0ZM142.84,170.89c.6.31.82.93,1.16,1.26-.41.22-.6.43-1.27.49.01-.49-.11-1.07.11-1.75h0ZM70.05,171.26c.67,0,1.21.6,1.21,1.34s-.54,1.34-1.21,1.34-1.21-.6-1.21-1.34.54-1.34,1.21-1.34ZM66.78,171.64l1.31,4.63-4.7,2.25-1.67-4.59c1.62-.94,3.4-1.62,5.05-2.29ZM88.51,172.39s3.74,0,5.03.02l-.3,5.22-4.67.04-.06-5.28ZM83.51,172.68l.26,5.21-4.5.66-.89-5.25,5.12-.63ZM111.93,172.73c.67,0,1.21.6,1.21,1.34s-.54,1.34-1.21,1.34-1.21-.6-1.21-1.34.54-1.34,1.21-1.34ZM144.47,172.85c2.74.01,5.35,3.48,2.64,7.11,4.44,3.76-.39,10.07-4.31,6.39-5.61,6.06-8.74-2.17-6.42-4.35-3.43-6.2.78-10.11,5.13-7.38.8-1.25,1.89-1.77,2.96-1.77ZM98.64,173l4.93,1.21-.99,5.16-4.82-1.08.88-5.29ZM114.97,173.12l4.51,2.47-3.5,3.7-2.6-1.42,1.59-4.75ZM86.05,173.71c.67,0,1.21.6,1.21,1.34s-.54,1.34-1.21,1.34-1.21-.6-1.21-1.34.54-1.34,1.21-1.34ZM95.79,173.87c.67,0,1.21.6,1.21,1.34s-.54,1.34-1.21,1.34c-1.79-.31-1.31-2.63,0-2.67h0ZM73.33,174.63l1.1,5.16-4.57,1.7-1.63-5.02,5.1-1.83ZM76.47,174.99c.67,0,1.21.6,1.21,1.34s-.54,1.34-1.21,1.34-1.21-.6-1.21-1.34.54-1.34,1.21-1.34ZM144.11,177.37c-.34.47-.8,1.02-.8,1.02-1.14-.52-2.24-.31-2.98.25,0,0-.78-.69-1.5-1.32-1.24-1.1-1.65-1.35-1.65-.89,0,.1.42.57.93,1.05,1.4,1.32,1.68,1.79,1.68,1.79-.34,1.19-.33,2.13.31,3.13,0,0,.03.13-.46.7-.89,1.03-1.81,2.63-1.6,2.87.26.29,1.01-.41,1.94-1.8.67-.99.87-1.01.87-1.01,1.14.34,1.76.64,2.9-.39,0,0,.43.14,1.28.92,1.33,1.21,1.81,1.47,1.96,1.06.12-.33-.06-.56-1.19-1.5-.74-.62-1.55-1.34-1.55-1.34.24-.43.41-1.98-.41-3.03,0,0,.03.07,1.25-1.66.81-1.15.95-1.3.68-1.55-.36-.51-1.55,1.54-1.67,1.7h0ZM108.87,175.89l4.45,2.06-1.59,5.12-4.3-1.93,1.44-5.25ZM59.89,176.24c.67,0,1.21.6,1.21,1.34s-.54,1.34-1.21,1.34-1.21-.6-1.21-1.34.54-1.34,1.21-1.34ZM105.43,176.38c.67,0,1.21.6,1.21,1.34s-.54,1.34-1.21,1.34-1.21-.6-1.21-1.34.54-1.34,1.21-1.34ZM56.78,176.74l1.46,3.97-3.31-2.72,1.86-1.25ZM93.31,177.77l4.43.58-.7,4.65-3.82-.38.09-4.84ZM88.47,177.78l-.05,4.78-4.21.2-.36-4.77,4.61-.21ZM66.8,178.65c.67,0,1.21.6,1.21,1.34s-.54,1.34-1.21,1.34-1.21-.6-1.21-1.34.54-1.34,1.21-1.34ZM63.44,178.74l1.71,4.8-2.66,1.41-3.56-3.71,4.51-2.5ZM79.29,178.8l.69,4.57-4.39,1.19-1.07-4.65,4.77-1.11ZM142.07,178.85c.96,0,1.73.85,1.73,1.91s-.78,1.91-1.73,1.91-1.73-.85-1.73-1.91.78-1.91,1.73-1.91ZM90.68,178.99c.67,0,1.21.6,1.21,1.34s-.54,1.34-1.21,1.34-1.21-.6-1.21-1.34.54-1.34,1.21-1.34ZM102.64,179.49l4.68,1.67-1.58,4.13-4.05-1.21.94-4.59ZM81.89,179.66c.67,0,1.21.6,1.21,1.34s-.54,1.34-1.21,1.34-1.21-.6-1.21-1.34.54-1.34,1.21-1.34ZM99.69,180.15c.67,0,1.21.6,1.21,1.34s-.54,1.34-1.21,1.34-1.21-.6-1.21-1.34.54-1.34,1.21-1.34ZM69.96,181.72l1.61,4.08-4.41,2.1-1.92-4.17,4.71-2.02ZM73.08,181.96c.67,0,1.21.6,1.21,1.34s-.54,1.34-1.21,1.34-1.21-.6-1.21-1.34.54-1.34,1.21-1.34ZM89.31,183.19c7.23-.02,13.76,1.65,19.01,4.04l-1.56,1.61c-17-6.43-28.12-3.53-39.52,1.97l-1.15-1.57c8.06-4.34,16-6.03,23.23-6.05h0ZM108.54,183.24c.67,0,1.21.6,1.21,1.34s-.54,1.34-1.21,1.34-1.21-.6-1.21-1.34.54-1.34,1.21-1.34ZM64.24,186.18c.98.06,1.07,2.07.61,1.49l-1.09-1.38c.18-.08.33-.12.47-.11ZM109.69,187c-.04,1.52-1.34,11.7-5.76,18.7-.27-3.54-1.04-7.77-1.91-10.6,0,0,4.75-4.83,7.67-8.1h0ZM53.25,202.43l22.96,34.07-2.41-.02c-.5-2.5-1.23-5.06-2.66-6.97-1.16-1.55-2.2-2.72-4.29-3.77-1.25-.63-1.42-.49-1.5-1.55-.38-5.96-4.76-9.71-8.12-11.13-.32-3.6-1.8-7.15-5.51-10.13l1.53-.49ZM51.01,203.25c2.1,1.59,4.4,2.96,5.64,9.22.09,1.31.17,1.17,1.1,1.55,3.66,1.18,6.84,6.02,7.13,10.25,0,1.28.38,1.39,1.8,2.05,1.75.81,3.58,2.53,4.61,4.21,1.53,2.43,2.08,6.1,1.94,5.93h-1.26c-.9-6.22-4.46-8.71-8.23-9.88.29-8.8-5.92-11.54-8.1-11.96.13-6.34-3.6-8.95-6-11.08.45-.19,1.38-.3,1.38-.3h0ZM47.3,204.12c1.88.68,3.3,3.56,3.16,4.88,2.48.34,5.08,2.98,4.51,5.72-.18.12-.47.14-.76-.18.66-5.32-6.56-2.69-3.67,1.16l-1.29.93c-1.04-5.33-2.32-8.35-3.7-12.2.51-.15,1.76-.32,1.76-.32ZM53.28,215.29c.64,0,1.16.57,1.16,1.28s-.52,1.28-1.16,1.28-1.16-.57-1.16-1.28.52-1.28,1.16-1.28ZM59.48,221.03c2.76.86,3.65,3.93,3.56,5.05l-.6-.02c-.97-4.87-6.01-2.22-3.91,1.66-2.7,1.1-2.48,3.83-1.69,4.92,1.1,1.49,3.89,1.45,4.74-.85,2.62,3.73,6.24-.46,3.05-3.93,2.61,1.06,3.03,4.91,2.64,6.11,1.21.46,2.61,2.57,2.42,2.56h-19.57s.95-8.69-.06-15.25c1.3.34,2.18.69,3.67-1.24,2.42,2.21,4.17.54,4.04-1.37-.19-1.33-.81-2-1.85-2.7,2.12-.57,3.73,3.47,3.56,5.06h0ZM61.66,227.16c.66,0,1.2.59,1.2,1.32s-.54,1.32-1.2,1.32-1.2-.59-1.2-1.32.54-1.32,1.2-1.32Z"/>
      </g>
      <g id="Center_Symbols_Q" data-name="Center Symbols Q">
        <use width="23.64" height="32.54" transform="translate(50.59 40.39)" xlink:href="#Diamond"/>
        <use width="23.64" height="32.54" transform="translate(146.69 228.89) rotate(-180)" xlink:href="#Diamond"/>
      </g>
      <g id="Corner_Symbols_Q" data-name="Corner Symbols Q">
        <use width="23.64" height="32.54" transform="translate(21.28 46.74) scale(.5)" xlink:href="#Diamond"/>
        <use width="23.64" height="32.54" transform="translate(176 222.54) rotate(-180) scale(.5)" xlink:href="#Diamond"/>
      </g>
    </g>
    <g id="Diamond_Corner_Characters" data-name="Diamond Corner Characters">
      <g>
        <use width="21.78" height="33.12" transform="translate(180.98 254.75) rotate(-180)" xlink:href="#Red_Q"/>
        <use width="21.78" height="33.12" transform="translate(16.3 14.53)" xlink:href="#Red_Q"/>
      </g>
    </g>
  </g>
  <g id="Clubs">
    <g id="Club_Corner_Characters" data-name="Club Corner Characters">
      <use width="181" height="253" transform="translate(8.14 8.14)" xlink:href="#boundary"/>
    </g>
  </g>
</svg>