<?xml version="1.0" encoding="UTF-8"?>
<svg xmlns="http://www.w3.org/2000/svg" xmlns:xlink="http://www.w3.org/1999/xlink" viewBox="0 0 197.28 269.28">
  <defs>
    <style>
      .cls-1 {
        fill: #262964;
      }

      .cls-1, .cls-2, .cls-3, .cls-4 {
        stroke-width: 0px;
      }

      .cls-2 {
        fill: #d2232a;
      }

      .cls-3, .cls-5 {
        fill: #000;
      }

      .cls-6 {
        fill: none;
        stroke: #000;
        stroke-miterlimit: 10;
      }

      .cls-4 {
        fill: #e1cf20;
      }

      .cls-5 {
        font-family: ArialMT, Arial;
        font-size: 28px;
      }
    </style>
    <symbol id="Black_J" data-name="Black J" viewBox="0 0 14 33.12">
      <text class="cls-5" transform="translate(0 24.03)"><tspan x="0" y="0">J</tspan></text>
    </symbol>
    <symbol id="Spade" viewBox="0 0 26.08 32.54">
      <path id="path153-6-3-1-6-92-7-2-9-8" class="cls-3" d="M13.04,0C6.79,8.92.11,14.05,0,21.01c-.04,2.25,1.18,6.08,4.99,6.82,2.47.47,5.88-1.53,5.95-5.6-.01-.81.86-.79.85.32-.12,3.21-1.13,6.95-2.84,9.99h8.18c-1.71-3.04-2.72-6.78-2.84-9.99,0-1.11.86-1.13.85-.32.07,4.07,3.47,6.07,5.95,5.6,3.81-.73,5.03-4.56,4.99-6.82-.11-6.96-6.79-12.09-13.04-21.01Z"/>
    </symbol>
    <symbol id="boundary" viewBox="0 0 181 253">
      <rect class="cls-6" x=".5" y=".5" width="180" height="252" rx="15" ry="15"/>
    </symbol>
  </defs>
  <g id="Spades">
    <g id="Spade_Symbols" data-name="Spade Symbols">
      <g id="Jack_Face" data-name="Jack Face">
        <path id="path4037-8-0-2" class="cls-1" d="M40.14,31.14v207h117V31.14H40.14ZM77.31,32.28l53,.21-8.22,13.79c-10.71-3.72-28.09-1.31-37.05.57-2.36-4.31-5.77-9.73-7.73-14.57h0ZM41.68,32.81h34.03s7.99,15.93,7.99,15.93c.29.44.01,1.36-.16,1.88-.99,3.04-1.86,4.8-3.85,8.43-1.89,3.43-2.57,6.58-1.9,8.69.1.26.19.65.15.99-.11,1.05-.92,2.27-2.02,3.11-.75.13-2.3.24-3.2,1.21-.77.83-1.4,2.06-1.3,4.29.05.8.14,1.31.14,1.31-10.16,4.63-17.45,10.06-17.21,10.26-.1-.05-8.99-4.5-12.67-5.61v-50.48ZM132.2,32.81h23.36v73.19l-8.82-6.37c.74-.56,1.19-.89,1.96-1.47.14-.05.4-.05.57-.09,1.56-.38,2.65-1.66,2.11-2.99-.37-.9.13-.85.59-1.58.51-.83.4-1.56.08-2.26-.16-.34-.07-.48.2-1.12.72-.97.2-2.62-.73-3.15-.1-.16.1-.4.15-.62.26-1.32-.22-2.47-1.26-2.77-.54-.15-.71-.25-.52-.78.34-.93-.11-1.27-.8-1.58-1.17-.51-.84-.59.61-1.3,2.96-1.46,3.66-5.8,1.62-9.74-.26-.5-.95-1.68-1.42-2.46-.55-.92-1.08-1.71-1.08-1.71l3.92-5.99s-2.73-3.54-3.7-5.5c.23-.97,2.96-4,3.32-6.95.56-4.62-2.65-7.58-5.68-7.24-2.1.24-4.69,1.71-4.5,5.99.06,1.33.53,2.7,1.39,4.37.6,1.24,1.38,2.56,2.12,3.83l-3.95,5.91,3.99,5.53s-.05.09-.14.24c-.4.69-1.55,2.73-2.05,3.92-1.47,3.19-1.99,6.68,1.03,9.15.53.36.94.66,1.16.9.3.32.11.57-.36.69-.56.13-1.13.12-1.72.38-1.89.76-3.79,1.98-5.14,3.17-.76.67-1.98,2.8-2.72,4.52-.81,1.88-1.04,2.29-1.04,2.29l-13.87-9.73s-.35-.3-.45-.42c-.26-.32-.17-.5.01-.85.15-.3.16-1.17.09-1.84-.02-1.28-.01-1.28.66-2.45.24-.41.33-.82.2-1.46-.22-.72-.24-.49.18-.98.16-.22.36-.33.39-.56.04-.32.02-.87.02-1.9.01-2.07-.02-1.9,1.05-2.81,1.32-1.13,1.81-1.66,2.02-2.17.3-.73,0-1.29-.74-2.75-.34-.67-.86-1.57-1.12-2.07-.47-.91-1.16-2.1-1.48-3.24-.49-.88-.42-2.39.04-3.28.57-1.12.73-1.8.71-4.06-.02-2.1-.16-1.9.33-2.6,3.65-5.28,9.43-15.24,9.43-15.24ZM147.05,40.66c.08,0,.16,0,.24,0,1.15.06,2.29.46,3.35,1.59,1.44,1.58,1.34,3.86.87,6.23-.22.69-.38,1.39-.82,2.11-.25.4-.45.77-.45.82,0,.05-.35.68-.79,1.39-.42.7-.91,1.68-.91,1.68,0,0,.68,1.33,1.88,3,.91,1.48,1.49,2.76,1.56,2.69,0,0-.23.64-.55,1.09-.95,1.37-2.71,4.23-2.78,4.53-.02.07-.2.15-.19.22.01.27.36.58.89,1.37,3.17,4.77,3.62,8.79,1.24,11.15-1.18,1.18-2.35,1.54-3.61,1.4-2.3-.27-4.42-2.42-4.17-5.55.11-1.44.04-1.87.82-3.54.35-.94,1.14-2.55,1.66-3.37.46-.58.95-1.42.95-1.42,0,0-1.13-1.9-3.2-4.57-.37-.49-.6-1.15-.6-1.15l3.55-5.76s-.41-1.12-1.1-2.25c-1.42-2.32-2.34-4.79-2.33-6.17.02-3.46,2.09-5.49,4.51-5.49ZM155.89,122.98c-2.1,1.22-4.14,5.39-.15,2.48l.1,2.4c-2.08,3.23-6.13.86-5.1-2.48-2.8.4-3.24-2.72-3.1-4.2-3.68-.88-2.41-5.15-2.41-5.15-2.13-1.95-2.5-3.99-.78-6.14-1.74-1.19-2.24-1.95-4.15-2.81,1.47,14.31,8.52,21.75,15.94,28.37-.2,0-.22,4.61-.68,3.76-10.6-8.67-17.41-18.59-18.58-34.64-.09.25-5.03-4.18-5.84-3.95-1.71,25.98,17.17,43.06,25.03,46.43,0,0,.11,3.62-.02,3.63-11.9-5.69-25.14-22.38-27.69-42.24l-7.02,11.91-2.63-1.23,11.35-19.6-7.68-5.27-12.5,21.7s-.33,1.81.57,1.78c17.55,2.06,43.65,25.15,34.9,62.74-.76-.33-1.97-.97-2.03-.94,1.37-3.24,5.2-24.22-6.31-41.17-5.27-7.77-13.45-16.03-26.58-18.47,1.08,2.45.61,8.01.61,8.01l3.06.68c-1.03-1.19-1.89-2.18-2.3-3.47-.57-2.02.27-3.21,2.31-2.01.81.5,1.01.48,1.8-.16,1.64-1.34,3.52.04,3.09,2.26-.06.33.02.54.8.61,1.77.19,3.55,1.15,4.7,2.66.57.79.69.68,1.2.2,1.23-1.17,3.28.45,2.91,2.27-.21,1.04-.09,1.29.34,1.49,2.41,1.11,3,1.81,3.75,4.12.27.85.5,1.13.64,1.08.1-.03.5-.18.84-.32,1.8-.75,2.85,1.64,1.58,3.51-.26.38-.07.75.4,1.03,1.5.9,2.52,3.03,2.69,5.28.07.85.15.85.93.82,1.99-.09,2.94,2.86,1.32,3.94-.56.38-.46.87-.02,1.43,1.16,1.51,1.43,2.6,1.33,4.32-.14,2.29,0,2.25.66,2.52,1.94.81,1.57,4.2-.32,4.19,1.37,3.49-.43,7.74-.37,7.82,3.65,2.25.35,4.64-.71,4.22,0,0-.54,1.57.07,2.37-3.2,4.64-7.39,5.41-12.03,7.71l-.15-16.33c1.93,1.7,3.84,3.29,5.75,4.87,0,0,.48-.16.04-.61-.85-.86-2.99-2.38-3.59-2.98-1.29-1.07-6.02-6.03-6.87-7.2-.38-.78-.95-.33-.93-.28.57,1.07.99,2.32,1.72,3.43,1.58,2.4,3.12,5.07,2.96,7.72,0,1.48-.54,3.01-.84,3.75-.22,1.01-1.7-.17-1.33-1.03.66-2.34,1.2-4.26-1.15-8.02-1.14-1.83-2.63-5.16-2.63-5.16l-.95.25.03,21.3c-.8.04-2.81.61-2.4.62,6.29-1.38,8.21,8.48,2.14,8.8-1.15.04-2.35,2.22-2.47,3.4.05,2.86.43,5.88-1.48,8.63-.5.72-.73,1.87-1.2,2.77-2.33,4.53-3.38,7.12-3.14,8.29.06.3.12.7.12.7-7.43,2.03-13.01,2.56-20.5,2.75-.07-.13,2.51-8.1,4.4-12.19,1.4-3.02,2.11-5.09,1.72-5.71-5.94.33-4.8-9.21.88-8.88,0,0,1.43-5.49,3.02-7.97,1.51-.92,4.55.33,6.25-.9,4.01-1.35,6.64,3.85,6.64,3.85l1.08-4.95-35.5-.19s-3.45,1.57-5.32.72c-1.19-.54-2.9-1.97-2.9-1.97,0,0,13.69-24.04,15.68-27.48.16-.28-.35-.88-.35-.89-.07-.78-16.25,27.79-16.25,27.79-9.13-6.41-20.61-14.51-30.79-21.64l-.03-10.7c7.39-5.1,6.72-7.19-.12-1.63-.1.09-.15-4.02-.15-4.02,5.21-5.1.88-3.5-.15-1.74.02-1.27-.24-3,.5-3.76,2.28-2.3,4.96-.19,5.1,3.21,2.97.64,2.6,3.5,3.37,4.65,3.03,1.87,1.43,4.72,2.19,5.68,3.19,2.2.97,5.75.29,5.67.4.3,4.37,3.21,4.71,3.1-.34-15.27-14.27-27.59-16.12-29.08l.33-3.29s19.18,13.44,19.01,35l6.12,3.98c-.54-22.13-9.69-37.13-25.11-46.63l-.2-4.1c12.95,6.6,24.95,19.96,27.75,41.85l7.17-12.19,2.53,1.34-11.51,20.23,7.19,5.18c5.57-8.04,10.22-17.9,13.06-22.59-.07-.43-.23-1.04-.23-1.04-27.4-4.95-42.84-33.08-35.48-62.47l1.9.92c-5.71,21.77,3.6,53.1,33.41,59.51-.06-2.31-.43-8.01-.43-8.01,0,0-3.92-1.29-3.34-.77.96.9,3.11,4.77,2.2,6.15-.65.1-1.75-.3-2.95-1.26-.45-.36-.46-.29-.97.31-1.41,1.65-3.46.7-3.47-1.56,0-.96-.04-1.16-1.28-1.17-1.88-.01-2.72-.37-3.85-2.02-.8-1.17-.73-1.18-1.66-.82-1.8.94-3.24-1.03-2.67-2.66.28-.76-.02-1-.84-1.15-1.59-.29-3.4-2.48-3.73-4.27-.07-.37-.23-.46-1.17-.42-1.84.07-2.86-1.15-2.14-2.87.39-.93.5-1.3-.23-1.93-.9-.77-1.41-1.3-1.81-2.24-.32-.74-.37-1.21-.58-2.79-.08-.55-.24-.64-.9-.73-1.91-.27-2.66-2.41-1.26-3.79.43-.42.43-.41-.22-1.33-1.25-1.77-1.71-4.08-1.17-5.61.15-.42,0-.93-.44-1.05-1.74-.47-1.77-2.59-.1-3.77.48-.34.51-.57.14-1.27-.64-1.22-.61-4.4.01-5.93.4-.99.4-1.01-.22-1.44-1.32-.92-.94-3.47.62-3.89.76-.2.81-.31.6-1.32-.36-1.8-.43-2.27.54-2.98,2.66-1.9,9.49-5.52,9.49-5.52l2.26-1.18s.23,15.09.08,16.87c-.09.77.54,1.23,1.28,2.03,1.52,1.63,2.35,3.6,4.37,4.97,0,0,1.26-.77,2.04-1.32l.08-21.5c.16-.49.27-.54.79-.61.43-.09,1.51-.22,1.87-.34.87-.28,1.01-.66-.14-.54-.34.04-.86.2-1.44.33-3.57,1.17-6.22-4.92-3.5-7.99.52-.51,2.47-1.4,3.36-1.47.26,0,1.02-1.03,1.54-1.98.52-.95.74-1.66.44-2.62-.63-2.01-.03-5.1,1.86-8.47,2.04-3.18,3.62-6.73,4.44-10.52,7.23-.96,13.37-2.92,19.9-2.49.26,2.42-7.15,16.69-5.6,17.52,5.82,1.53,3.84,9.09-.59,8.84-.66,0-.73.06-1.15,1.67-.8,2.35-1.32,4.14-2.19,6.32,0,.56-2.89.41-5.31.39-1.04.88-5.5,3.26-7.93-2.83l-.09,5.2s33.34-.58,39.27.23c.13-1.63,3.3,1.26,3.3,1.26l-16.27,28.04.76.81c2.35-3.12,16.51-28.14,16.51-28.14l30.64,21.66c-.25,3.22.04,10.44.04,10.44-8.41,4.89-5.84,7.38-.05,1.46l.1,4.22ZM105.13,46.29s8.68.08,13.03.84c3.81.67,3.61.55,3.6,3.58-.01,2.15-.01,2.1-.52,3.14-.93,1.9-.77,3.78.7,6.41,1.43,2.55,2.47,4.43,2.47,4.8,0,.56-.09,1.25-1.32,2.2-1.46,1.12-1.74,1.9-1.72,3.03.02.92-.14,1.22-.64,1.21-.2,0-.91.36-1.67.75q-1.34.69-2.59.68c-.63,0-.93-.26-1.1-.19-.34.17-.64,1.41-.63,1.77.04.13.21.05.58-.09,2.07-.78,5.16-.43,5.24-.09.42.41.42,1.06-.21,1.72-.41.7-.59,1.07-.42,2.16.23,1.48.06,2.07-.63,2.58-2.11,1.56-4.92,1.76-9.42.81-4.74-1-7.99-2.98-10.68-6.53-1.21-1.58-1.5-2.14-.91-2.25.74-.12,1.55-.29,2.3-.65,3.33-1.57,3.27-8.26-1.22-8.96-1.83-.07,3.78-9.53,5.77-16.92ZM109.41,50.9c-1.61.99-2.45,2.19-2.46,2.85,0,.27.05.22.82-.33,2.23-1.61,8.12-3.93,10.22-2.59,1.51,1,2.1.67,1.23-.67-2.06-3.14-7.61-.57-9.81.75ZM115.16,51.95c-.24,0-.49.03-.73.09-1.55.38-3.26,1.78-4.68,3.02-.7.61-1.69,1.82-1.84,2.13-.35.71.42,1.5,1.47.87.61-.37.67-.28,1.25-.19,1.36.45,2.9,1.14,5.3.92.22.06.21.11.13.34-.14.42-.99,1.22-2.1,2.12-.57.46-1.07.84-1.11.91-.18.31.59.33,1.42-.19,1.18-.74,2.55-2.36,3.38-3.67.08-.12.19-.23.23-.36.08-.3-.42-.18-.68-.26-.12-.03-.09-.35-.12-.5-.08-.38.06-1.02.12-1.56.05-.44.48-.79.77-1.12,1.25-1.42,1.15-2.07-.53-.97-.28.18-.51.3-.78.32-2.48.09-3.91-.02-5.98,1.89-.92.81-1.47.89-.65.03,1.25-1.11,2.81-2.68,4.54-3.1,1.04-.28,2.04.59,2.49.37,0-.63-.87-1.08-1.9-1.07h0ZM114.8,55.89c.28.2.56,1.27.54,1.63-.03.42-.68.24-.77.05l-.35-1.18c-.15-.4.32-.62.59-.49ZM113.54,56.13c.3.33.37,1.04.55,1.63-.11.42-2.55-.15-2.86-.62.37-.52,1.62-1.14,2.31-1h0ZM117.82,63.75c-.18-.01-.43.08-.65.33-1.1,1.23-.74,3.33.58,4.01.64.33,1.62.09,3.05-.4.68-.23,1.18-.34,1.31-.33.56,0,.87-.95.47-1.39-.45-.5-1.53-.43-2.69.55-.59.5-1.01.74-1.48.73-1.16-.02-1.72-1.32-.54-2.7.39-.46.25-.79-.05-.81h0ZM109.69,72.78c1.37,1.21,3.97.58,5.71-.69,1.56-1.13,2.21-1.47,3.46-1.23,1.53.29,1.48-.37.81-1.2-.75-.94-2.62-.65-4.17.48-3.45,2.51-4.7,2.93-5.7,1.57-1.08-1.46.21-3.33,1.47-2.31,1.04.78,1.02.19.59-.34-2.5-2.31-4.31,1.83-2.18,3.72h0ZM97.55,73.97c1.74,2.42,3.41,4.42,5.92,5.9l.03.46-8.1-.02c.57-1.08,2.17-6.26,2.16-6.33ZM70.12,80.28c-.17,3.65.43,5.79,2.38,8.34,2.07,2.71,1.92,6.94.59,9.55-.59,1.16-1.79-.27-1.22-1,.8-1.11.85-3.82.47-5.51-.85-2.8-2.79-4.17-3.58-7.12-.26-1.26-.18-3.53-.18-3.53l1.55-.73ZM72.65,80.59c.14-.02.37.14.7.45,1.15,1.09.95,4.2-.36,6.19-.4.61-.73.43-1.12-.13-.52-.56-.34-.62.1-1.6.45-1.03.6-2.18.51-3.54-.06-.91-.03-1.34.17-1.38ZM146.98,81.65c1.01-.02,2.28.22,2.39.62.11.49-.13.88-.69,1.14-1.48.68-3.44-.27-2.94-1.44.12-.21.64-.31,1.25-.32ZM144.41,81.92c.29,0,.52.07.69.16.49.27-.28,2.14,2.14,2.11.58.09,1-.05.92.23-.12.43-1.16,1.08-2.28,1.26-3.36.54-3.22.36-3.06,2.96.1,1.7,0,2.27-.21,3.3-.37,1.79-.51,3.51-.26,2.95.33-.76,1.17-3.16,1.16-4.52,0-2.01.65-2.41.91-.95.11.96-.28,1.51.31,2.49.34.55.49.54.26,1.4-.2.76-.06.98.18,1.36.24.39.49.48.28,1.02-.44,1.17.25,2.27,1.26,2.36.47.04.6.27.46.46-.25.34-.74.5-1.15.59l-10.68-7.48s.79-1.74,1.03-2.21c1.53-3.69,2.75-5.37,7.24-7.3.31-.15.58-.2.8-.21ZM150.09,84.34c.29-.01.51.16.76.51.66.92.08,2.08-1.53,3.07-1.38.86-1.78.96-2.08-.39-.07-.24-.25-.54-.37-.66-.32-.32-.25-.59.16-.82.19-.11.81-.39,1.31-.75.86-.62,1.37-.94,1.75-.96ZM145.54,87.02c.34,0,.69.1.94.28.43.3.43,1.07,0,1.37-.86.38-2.21-.13-2.1-.99.06-.44.59-.67,1.16-.66ZM151.04,87.96c.3,0,.53.15.72.47.5.85-.09,1.71-1.78,2.61-1.12.6-2.54.86-2.45.51.08-.28-.32-1.68-.5-1.9-.07-.24.02-.02,1.43-.51.51-.18,1.13-.47,1.41-.66.48-.33.86-.5,1.17-.51ZM70.88,90.17c-.78,2.06-.91,2.98-.54,5.15.31,1.81.67,2.71,2.36,5.38,1.29,2.03,1.7,2.82,1.39,3.46-.22.35-.71.67-1.02.34-.63-.9-1.01-2-1.62-3-2.37-3.8-2.53-4.77-2.83-7.77-.14-1.37.58-4.29,1.2-4.73.69-.3,1.27.69,1.05,1.17ZM125.53,89.22c-.64.53-1.05,1.59-1.38,2.35.07.54.48.19,1.54-1.53.26-.41.08-.86-.16-.82ZM145.89,90.15c.95.03,1.28.96.86,1.45-.62.71-1.73.17-1.73-.82,0-.42.18-.64.87-.63ZM151.14,91.47c.54.03.61.62.33,1.47-.36.8-.79.93-2.1,1.37-1.56.53-1.81.45-2.05-1.12-.09-.6-.05-.47,1.39-.89.62-.18,1.34-.5,1.72-.67.29-.13.52-.18.71-.17ZM59.12,92.18l.38,3.17.62-2.37-1-.8ZM146.08,93.24c.77,0,1.18.76.79,1.21-.22.25-.77.26-1.04.11-.61-.49-.5-1.32.25-1.32ZM122.66,94.9l1.49,1.01-12.14,20.99-1.46-.03-.14-.33,12.24-21.63ZM150.2,95.1c.9-.01.97.91-.11,1.76-.44.31-.94.39-1.33.41-.54.03-.9-.13-.95-.54-.23-1-.37-1.25.47-1.19.17.01.62-.02.98-.19.37-.17.69-.25.94-.26ZM146.49,96.02c.62,0,1.01.74.6,1.1-.51.45-1.15.17-1.15-.5,0-.43.11-.6.55-.6ZM59.16,97.5l-3.3,3.2c1.21,1.57,2.23,3.14,3.27,4.78l.03-7.98ZM125.92,97.71c1.43-.06,1.9.7,1.22,1.21-.92.68-1.71.64-2.76.49-1.39-.28-.28-1.5,1.24-1.67.1-.01.21-.02.3-.02ZM124.4,99.99c.29,0,.72.08,1.27.29.94.35,2.11,1.42,2.05,2.02-.09.97-1.75.47-3.09-.92-.84-.87-.87-1.37-.23-1.39ZM123.13,100.01c.81.08,1.62,3.1.99,4.02-.62.91-1.71-1.05-1.51-2.58.08-.61.22-1.41.43-1.44.03,0,.05,0,.08,0ZM70.06,100.67c.46.12,1.04.81.92,1.34-.09.21-.28.15-.49.1-.38-.17-.67-.75-.59-1.23.04-.13.09-.2.17-.21ZM131.65,101.19l2.39,1.77-2.39.1v-1.88ZM121.75,104.78c1.83.01,2.22.66.85,1.45-.57.33-1.95.39-2.67.12-1.14-.43.23-1.58,1.82-1.57ZM136.57,106.13l.13,1.82-4.6.44-.24-1.9,4.71-.37ZM120.68,107.03c.32-.02.83.14,1.49.51,1.25.7,1.96,1.89,1.32,2.26-.58.34-1.63-.06-2.36-.91-.97-1.12-1.05-1.82-.44-1.86ZM119.11,107.04c.84.05,1.56,2.56,1.01,3.8-.3.68-.68.53-1.23-.59-.53-1.08-.56-2.99.05-3.19.06-.02.11-.03.17-.02ZM59.32,107.74l-2.01,4.43,3.64,3.48-1.63-7.91ZM137.14,111.16l.32,1.75-4.41,1.19-.43-1.91,4.52-1.04ZM117.87,111.5c.54.01,1.04.15,1.33.43.4.39.31.56-.64.99-1.69.75-3.78.3-2.57-.83.43-.4,1.18-.6,1.87-.59ZM146.53,111.4c-1.69,1.24-.06,1.92,1.14.98-.09-.32-.79-.98-1.14-.98ZM116.63,113.88c1.21.04,3.57,1.85,3.06,2.72-.27.47-1.86.07-2.48-.59-.83-.87-1.26-2.03-.81-2.12.07-.01.15-.02.23-.02ZM115.11,113.96c.62-.13,1.62,3.05.87,3.86-.28.3-.36.29-.83-.17-.94-.91-.78-2.6-.22-3.54.05-.09.12-.14.18-.15ZM152.15,115.63c-.16-.34-.37-.49-.59-.68-5.86,2.47-4.36,4.82.59.68ZM138.27,115.85l.58,1.77-4.44,1.93-.65-1.94,4.51-1.76ZM62.25,119.21l-1.5,4.34c1.64.01,3.11.86,4.6,1.61l-3.1-5.95ZM139.74,120.48l.94,1.74-4.18,2.48-.83-1.84,4.07-2.38ZM42.63,123.88l1.71,1.32-2.52,3.43-.23-.48.03-2.84,1-1.42ZM142.03,124.96l1.01,1.6-4.02,3.06-.99-1.74,4-2.92ZM46.95,127.01l1.85,1.56-2.92,3.86-1.77-1.48,2.84-3.94ZM67.29,127.97l-.09,4.65,4.35.18-4.26-4.83ZM117.57,130.06l4.94,3.12-.74-4.76c-1.29.28-2.95,1.2-4.2,1.64ZM144.73,129.09l1.15,1.57-3.72,3.42-1.19-1.64,3.76-3.36ZM50.72,130.46l1.72,1.75-3.04,3.59-1.59-1.65,2.91-3.7ZM147.9,133.01l1.34,1.49-3.39,3.86-1.34-1.49,3.39-3.86ZM54.64,134.9l1.33,1.71-3.47,3.02-1.29-1.71,3.42-3.01ZM74.62,135.3l.97,4.55c-.07-.33,4.32-1.36,4.89-1.01l-5.86-3.54ZM125.7,135.69l4.14,4.79.47-4.61-4.61-.18ZM151.31,136.44l1.5,1.28-2.78,4.34-1.7-1.46,2.98-4.16ZM57.62,139.33l1.23,1.95-3.63,2.37-1.03-1.72,3.43-2.6ZM155.24,139.8l.23.25v3.1s-1.16,1.86-1.16,1.86l-1.57-1.02,2.5-4.19ZM131.81,143.27l3.66,7.3,1.03-5.44c-1.35-.02-3.5-.97-4.7-1.85h0ZM60.52,144.25l.87,2.1-3.84,1.92-.88-2.09,3.84-1.93ZM62.6,149.27l.7,2.11-4.08,1.48-.65-2.04,4.03-1.56ZM44.34,153.1l1.27.98c6.62-3.81,4.56-4.94-1.27-.98ZM81.78,150.67c.25-.03.54.35.77,1.19.35,1.27.17,2.83-.62,2.81-.53-.07-.72-1.55-.73-1.98,0-1.27.25-1.98.57-2.02h0ZM85.41,151.43l1.58.19v.49s-12.57,21.85-12.57,21.85l-1.52-1.06,12.52-21.47ZM78.65,151.94c.5,0,1.23.38,1.88,1.14.38.45.79,1.09.89,1.75-.01.22-.35.13-.67.08-.83-.13-2.06-.76-2.45-1.54-.48-.96-.21-1.43.36-1.43h0ZM136.41,152.71l1.68,8.95c.52-2.24,1.61-3.53,2.43-5.29-2.14-1.08-3.01-2.35-4.1-3.66ZM64.22,154.52l.39,2.31-4.23,1.07-.44-2.25,4.28-1.14ZM80,155.33c.06,0,.12,0,.18,0,1.55.19,1.77.57.73,1.33-.63.46-2.34.53-2.62.03-.3-.53.82-1.36,1.72-1.37h0ZM49.3,156.69l1.31.84c2.25-1.78-.21-2.14-1.31-.84ZM77.78,157.47c.47,0,.76.93.92,1.78.16.82.22,1.57-.07,1.98-.35.51-.7.6-.98.1-.83-1.47-.8-3.87.13-3.86ZM74.29,158.81c.22,0,.5.05.82.19,1.1.45,2.55,2.3,1.94,2.55-.91.38-2.89-.72-3.27-1.82-.19-.56.02-.9.5-.92h0ZM65.23,160.29l.1,2.29-4.45.2-.13-2.28,4.48-.21ZM76.14,162.22c.44-.01.88.05,1.23.22.64.3.17.85-.92,1.26-.72.27-1.75.34-2.11.03-.84-.73.49-1.47,1.8-1.51ZM41.68,162.49c3.05,2.03,9.37,6.55,9.37,6.55-.3.06-.62.32-.91.57-.23.2-.47.39-.69.49-.34.15-.65.17-.93.24-1.96.47-2.93,1.69-2.31,3.2.24.59.3.5-.11,1-1.17,1.22-1.03,1.59-.61,3.16,0,.22-1.4,2.11-.16,3.52.69.65.72.24.47,1.73-.09.89.14,1.63,1.32,1.88.66.33.65.22.42.83-.16.88.07,1.24.63,1.56.51.35.72.45.36.75-3.96,2.22-5.17,6.08-1.44,11.77.44.67,1.55,2.56,1.55,2.56-1.26,2.05-2.46,3.73-3.74,5.56l3.73,5.72c-.61,1.04-2.02,3.15-2.89,5.23-1.31,3.13-.44,7.51,3.31,8.83,1.61.56,3.74.11,5.08-1.6,1.09-1.38,1.68-4.13.69-6.99-1.25-3.21-2.76-4.78-3.25-5.69l4-5.5s-2.75-4.34-3.85-5.92c7.5-10.05,1.37-12.86.2-13.72-.18-.13-.14-.78-.14-.78,6.73-.85,9.03-4.9,11.01-10.03,4.02,2.83,9.77,6.64,13.8,9.63.39.39.64.64.58.86-.05.18-.2.99-.21,1.83.19,1.33.1,1.94-.39,2.45-.46.48-.37.7-.3,1.22.13.9.25.99-.11,1.45-.45.56-.61.82-.52,2.18.05.81.14,1.41-.05,1.89-.25.62-.94.93-1.84,1.71-1.58,1.36-1.36,1.77.81,6.69,1.86,4.2,2.07,5.16,1.36,6.65-.59,1.24-.82,2.2-.74,3.99.02.46.05.95.05,1.19,0,.58,0,.51-.3.88-.24.28-.63.84-.88,1.24-2.59,4.25-9.4,15.18-9.4,15.18h-22.96v-73.96ZM73.83,164.47c.27-.02.59.51.96,1.57.21.61.19,1.68-.15,2.09-.68.82-1.62-1.1-1.32-2.61.13-.68.31-1.03.52-1.05ZM138.24,163.32c0,3.88-.07,8.91-1.29,12.61l1.38.69c-.45-3.81.11-6.93,3.3-8.58-1.45-1.08-2.56-2.9-3.39-4.72h0ZM70.4,165.76c.11,0,.24.03.38.08.52.16,1.15.49,1.53.91.65.73,1.33,1.61,1.16,1.69-1.08.52-3.83-1.07-3.47-2.31.08-.26.22-.36.4-.37ZM65.58,165.92l.03,1.9-2.66-1.86,2.63-.03ZM126.37,166.84c.43.04,1.1.66.99,1.09-.19.46-.41.42-.71-.07-.37-.61-.52-.99-.28-1.02ZM72.44,169.19c.65-.02,1.2.14,1.26.51,0,.35-.49.8-1.1,1-1.51.51-2.65.18-2.23-.63.26-.54,1.24-.85,2.07-.88ZM125.14,171.34c-.64,1.26-.72,5.27.41,6.91,1.75,2.12,3.37,4.88,3.19,8.56l-1.69.83c.09-3.02-.02-4.99-2.17-7.6-2.57-3.05-1.96-8.35-1.08-9.9.76-1.54,1.85.64,1.34,1.2ZM51.31,169.67c.54-.03,1.2.31,2.39,1.18,3.05,2.36,4.7,3.28,7.73,5.62.44.45.42.39.34.75-1.16,4.85-4.51,8.69-9.49,9.4-.58.08-.28-.31-.63-1.07-.36-.78-1.02-1.12-1.75-1.13-2.05-.02-.3-1.28,2.21-1.64.83-.14,1.83-.26,2.36-.81.11.06-.44-3.79.13-5.15.29-1.22.02-1.81-.3-1.06-.2.47-.47,1.71-.62,2.97-.12,1.07-.33,1.22-.56.7-.1-.24-.1-.8.06-1.24.19-1.01-.97-1.77-.74-2.69.31-.77-.01-1.62-.4-1.9-.21-.5-.19-.86-.16-1.21.07-.82-.43-1.6-1.22-1.94-.35-.19-.24-.4.12-.6.17-.09.33-.14.51-.16h0ZM48.82,171.05c.2,0,.39.02.58.07.4.27.73,1.8.28,1.86-.17.02-.69.09-1.09.22-1.36.44-2.01.38-1.98-.48.03-.88,1.15-1.65,2.21-1.67ZM50.63,171.21c.54,0,.97.69.63,1.06-.35.38-1.02.1-1.02-.45,0-.3.12-.61.39-.61h0ZM50.99,173.59c.15,0,.32.03.51.12.5.25.79,1.19.47,1.54-.24.26-.93.17-1.3-.18-.66-.62-.34-1.46.33-1.48ZM49.3,173.73c.31,0,.53.12.59.35.05.2-.03.39.05.67.13.45.39.8.16.98-1.05-.07-3.22,1.37-3.85,1.3-.52-.08-.58-.6-.13-1.46.52-.99,2.25-1.86,3.17-1.84h0ZM49.93,176.51c.23-.02.27.12.17.49-.07.26-.01.88.15,1.28.17.43.49.68.32.85-.27.08-1.17.28-1.92.59-.97.59-3.71,2.37-3.02-.48.22-.95,1.23-1.61,2.98-2.28.67-.26,1.09-.43,1.31-.44ZM51.37,176.55c.42-.03.91.19,1.12.77.63,1.38-1.19,1.58-1.77.43-.34-.68.1-1.15.65-1.2h0ZM51.72,179.77c.95,0,1.68,1.29.99,1.78-.51.34-1.14.27-1.72.11-.88-.42-.47-1.9.73-1.89h0ZM142.32,179.8c3.6,2.06,8.49,3.97,13.23,5.38v51.26h-32.45l-8.89-16.98s-.29-.55-.39-.79c-.18-.46-.12-.84,0-1.31.29-1.15,1.19-3.41,2.01-5.02,2.15-4.32,5.2-9.05,3.54-13.2-.19-.47,1.71-3.05,1.71-3.05,2.92.26,5.33-1.82,4.47-6.74,6.09-2.73,11.11-4.95,16.76-9.55h0ZM50.04,180.05c.08,0-.17,1.12.35,1.81.32.54.27.52-.82,1-.41.24-.82.61-1.05.84-1.57,1.53-3.11-.47-1.6-2.08,1.22-1.2,2.5-1.47,3.1-1.55,0-.01.02-.01.02-.02ZM124.47,181.1c.53.1,1.21.87.99,1.29-.74,1.36-.77,2.09-.84,3.5-.07,1.57.17,1.8-.38,1.53-.36-.18-1.02-.5-1.17-.89-.34-.92.54-5.58,1.4-5.42ZM49.53,185.04c.58-.01,1.19.2,1.54.68.29.4.32.75.03.91-.68.39-2.92.19-3.03-.32-.17-.78.62-1.26,1.47-1.28ZM83.5,186.04c2.74.01,5.94.65,8.41,1.83,3.51,1.45,6.61,5.15,7.31,6.73.21.48-.22.48-.6.53-4.18.76-5.58,6.4-2.05,9.09,1.11.76,2,.68,2,.68.9-.08-3.98,10.16-5.92,16.55-6.01-.27-10.54.74-16.41-1.47-.63-1.15-.48-3.68-.02-4.99.42-1.19.98-2.11.71-3.47-.47-2.38-2.45-5.49-3.11-7.46-.58-1.5-.54-2.06.47-2.92,1.19-1.01,1.49-1.23,1.82-1.74.31-.48.18-.59.18-1.66,0-1.31-.02-1.1.96-1.29.34-.07,1.15-.35,1.77-.71,1.28-.74,2.18-.71,2.93-.26.33.1.3-.28.43-.77.06-.22.2-.57.19-.67-.02-.22-.46-.16-.93-.08-1.92.29-3.42.36-4.2.04-.67-.27-.67-.77-.28-1.59.35-.73.6-.72.46-2.25-.18-1.92.06-2.33.88-2.96,1.02-.79,2.88-1.16,5.01-1.15h0ZM93.41,187.74h8.91c-.87,1.54-1.85,3.93-2.4,6.18-.08.18-.18.35-.38.12-1.2-1.88-2.57-3.9-6.13-6.31ZM86.02,194.61c-1.06.03-2.4.59-4.07,1.64-1.14.71-2.07,1.16-3.27.91-.69-.14-.78-.03-.87.21-.41,1.1,1.1,2.29,2.62,1.51.44-.2,3.84-2.13,4.02-2.3.2-.18,1.61-.63,1.98-.63,1.12.02,1.82.98,1.68,2.1-.18,1.49-2.11,1.56-2.24.24-.1-1.02-.49-.57-.52-.06,0,.43.29,1.4.62,1.63,1.63,1.11,3.78-1.05,2.75-3.29-.63-1.37-1.49-2.01-2.7-1.97ZM78.71,199.8c-1.1.23-1.82.7-3.02.81-.98.24-.91,1.1-.3,1.54.47.34,1.07.14,2.79-1.06,1.69-1.18,3.14,1.27,1.79,2.53-.85.79-.27,1,.32.52,1.5-1.22.64-4.8-1.58-4.34h0ZM83.94,206.1c-.13,0-.33.04-.61.18-1.27.63-2.24,1.3-2.85,2.2-.1.19-.05.52-.1.78-.04.2-.19.46-.16.59.02.12.38.25.43.36.22.45.08,1.61-.05,2.44-.06.4-.6.52-.82.77-.71.79-.53,1.04.23.73.53-.22.31-.62,1.62-.34,1.7.36,3.05-.14,4.39-.96,1.49-.9,2.02-1.41,2.08-1.3.1.18.02.27-1.04,1.24-2.66,2.42-4.63,2.98-6.12,2.07-.45-.33-.8-.47-.47.24.04.08.4.39.66.51,1.53.76,3.45.12,5.89-2,.54-.46,1.01-.98,1.63-1.55,2.03-1.86,1.49-2.71-.8-1.8-.72.29-.92-.02-1.9-.44-1.31-.56-1.74-.61-3.25-.64-1.31-.03-1.51.11-1.51-.13,0-.31.88-1.4,1.88-1.87.97-.46,1.24-1.04.85-1.07ZM86.36,210.69c.24.27-.11.44-1.05.94-.54.28-1.03.51-1.1.51-.08.17-.98-2.04-.73-2.15.1-.05,2.29.16,2.88.7ZM82.92,210.46c.22.5.39,1.02.47,1.51.02.15.12.36-.1.36-.17.03-.45.04-.55-.13-.21-.37-.45-1.62-.37-1.86.16-.24.45-.07.54.13ZM90.71,214.42c-.08,0-.23.07-.46.22-3.77,2.44-8.29,3.71-11.19,2.5-.98-.41-1.16-.26-.8.47.25.51.74,1.11,1.48,1.33,2.37.72,6.2-.33,9.14-2.44,1.2-.86,2.18-2.09,1.83-2.09h0ZM112.89,220.95s7.31,15.03,7.95,15.74l-54.18-.25,9.13-14.14c.08.79,22.02,4.09,37.09-1.34h0Z"/>
        <path id="path4035-6-4-6" class="cls-2" d="M67.01,236.44l8.75-14.15c12.94,2.69,24.58,1.27,37.33-1.22l8.49,15.69-54.57-.32ZM135.61,183.69l-.06-8.4,2.67,1.09c-.93-3.91,1.41-7.99,3.55-8.15-6.81-5.63-1.15-11.65-1.27-11.78-7.45-4.21-3.71-10.68-4.23-11.26-9.08-2.58-5.53-10.47-6.22-9.66-5.29,1.74-8.2-3.11-8.29-7.06-4.57,2.84-11.64-1.18-9.43-5.71,0,0,2.42,1.26,2.85,1.01,3.73-2.97,3.44,1.29,4.22,2.22,2.79-.44,4.43,1.89,5.12,3.03,4.11,0,3.94-1.07,3.98,3.29,3.1.86,2.97,2.69,4.77,5.2,3.9.05,3.25,1.44,2.36,3.8,2.81,2.45,3.04,4.37,3.5,6.6,3.07,1.22,3.62,1.71,1.62,4.55,2.71,4.45,1.4,7.02,1.82,7.27,3.38,2.67,1.69,3.64.21,4.66.51,3.55.92,4.07-.27,7.68,3.88,3.02-.62,4.38-.85,4.32v2.99s-6.06,4.32-6.06,4.32ZM41.62,161.79l-.08-10.41,32.91,23.29-4.16,7.15-28.67-20.03ZM85.34,177.11l7.78-17.84-2.79-19.46,22.29.53c2.51,6.24,4.02,11.55,10.44,21.88l-6.79,2.32.24,12.51-31.17.06ZM104.4,172.42c-.23-.52-.35-.87-.31-1.1.08-.3.29-.28.56-.12.95.5,1.89.94,2.59-.02.35-.5.26-1.21-.04-1.62-.53-1.19-2.22-.33-2.78-.29-.53.01-.73-.47-.3-1.16.26-.3.42-.63.46-1.02.29-2.73-3.95-1.76-2.48.89.67.98.28,1.57-.7.95-1.08-.68-2.59-.05-2.54,1.39.04,1.09,1.28,1.76,2.33,1.1.24-.15.43-.32.6-.4.49-.23.84-.04.67.56-.44.75-.95,1.83-.52,2.54.43,1.03,1.9.94,2.41.29.35-.44.45-1.16.04-2h0ZM155.83,117.74l-32.97-23.41c2.04-2.9,3.25-5.23,4.38-7.56l28.62,20.17-.03,10.8ZM104.28,109.83l3.38,18.9-23.02.36c-1.26-6.35-9.17-20.71-9.15-20.46l6.14-16.52,30.55-.04-7.89,17.76ZM95.64,102.79c.58-.59.54-1.48-.1-2.48-.62-.97-.35-1.68.65-1.02.55.41,1.43.49,2.02.28.75-.28,1.06-.94.95-1.77-.13-1-1.15-1.28-2.24-.84-.31.07-.51.35-.78.49-.59.28-.82-.49-.28-1.49.59-1.11-.02-2.3-1.11-2.4-1.17-.11-1.86,1.34-1.39,2.14.68,1.15.19,1.94-.79,1.18-1.41-1.1-3.25.3-2.49,1.93.37.8,1.58,1,2.67.5.91-.42,1.18.06.63,1.08-1.13,2.09.73,3.93,2.26,2.4h0ZM62.24,84.23l-.24,10.07c-3.44-2.31-2.93-2.34-3.06-2.3,1.01,3.03-.17,6.77-3.09,8.61,5.26,5.41,2.42,9.21,1.56,11.78,6.72,4.28,3.31,11.67,3.34,11.28,6.63.04,6.5,6.39,6.69,9.04,8.2-.56,7.1,6.61,8.18,7.23,3.97-1.95,8.62-1.28,9.85,4.57.8,3.32-2.13.12-3.4.26-4.53,3.09-3.66-1.63-3.91-2.28-3.75.39-4.26-1.57-5.9-2.96-4.05.85-3.72-.61-3.48-3.3-3.18-.71-3.87-2.88-5.14-5.01-4.39.16-2.6-3.24-2.58-3.91-.53-.52-3.05-3.24-3.18-6.35-4.51-1.4-1.68-3.89-1.51-4.74-1.7-2.33-2.15-4.04-1.58-6.98-4-2.05-.66-3.96-.38-5.13-1.3-3.82-.35-4.96.16-7.03-2.58-3.31-1.04-3.12.85-5.13.24-.36-.42-2.02-.38-3l7.23-4.72ZM85.36,46.91l-7.22-14.15h51.54s-5.61,8.51-7.78,12.8c-12.85-2.22-24.88-1.17-36.54,1.35Z"/>
        <path id="path4039-1-1-4" class="cls-4" d="M49.39,227.25c-4.52-1.12-5.29-7.35-1.04-12.53.34-.42.58-1.07.58-1.07-1.47-2.48-2.14-3.35-3.64-5.82,1.32-2.19,2.87-3.86,3.86-5.75-.06-.33-.5-.66-1.03-1.51-3.06-4.94-3.4-6.9-1.84-9.83,1.46-2.76,4.95-3.08,7.07-.65,2.3,2.63,2.19,5.02-.79,9.89-.65,1.07-1.13,2.03-1.13,2.03.82,1.82,2.22,3.51,3.65,5.8-1.32,1.79-2.67,3.48-3.83,5.54,0,0,.12.44.38.76,4.74,5.88,4.36,12.63-.99,13.2-.28.03-.94-.02-1.23-.07ZM87.48,152.23c-.12-.22-17.05,29.77-17.05,29.77l1.93,1.36,16.19-27.73c.24.2.48.45.43.78,0,0-13.33,23.8-15.55,27.6-.06.1,3.31,2.29,3.42,2.29,4.96-2.68,25.64-.36,39.37-1.28.05.05-.21,5.28-.21,5.28,0,0-3.13-3.97-3.76-3.99-3.12-.12-6.41,1.34-8.76,1.17-1.5.5-3.22,6.5-3.55,8-2.73-.35-5.37,2.78-4.74,5.7.89,3.24,2.43,3,4.09,3.05-.15,3.67-6.07,13.34-6.09,18.11,6.25-.54,13.02-.67,19.47-2.8,0,0,2.42-7.63,5.48-12.66,1.01-1.92,1.49-4.81,1.08-6.63-.26-1.99.53-2.5,1.23-3.89.43-.87,2-.84,2.2-.9,4.1-1.3,2.64-7.11.89-8.15-2.18-1.29-5.26.71-6.44-1.91-1.25-2.77-.85-8.49-.85-8.49l-30.98.16s8.75-18.22,8.53-18.35c-2.39-1.44-6.3-6.44-6.33-6.49h0ZM66.76,168.81c.14-1.84.41-31.79-25.42-46.67l.14-3.94c.16-.2,23.5,11.54,27.5,42.04l7.2-12.36,2.65,1.14c-3.91,6.44-11.7,22.08-12.07,19.79h0ZM51.08,158.02c1.06-3.46-.68-1.62-2.27-1.76-1.09-.65-2.16-1.49-3.17-2.21,7.55-4.38,3.05-4.17-1.34-1.09-1.14-.68-2.58-2.16-2.67-2.04,8.52-6,5.32-6.12-.13-1.78.19-4.08.06-2.55.13-3.92,4.65-5.45.32-2.49,0-2.43-1.14-5.44,4.33-4.3,4.83-.19.96.78,2.86,1.76,3.41,5.13,2.63,1.83,2.35,3.35,2.23,5.55,1.03,1.11,3.68,3.46.59,5.63l-1.6-.89ZM41.28,133.19l.17-3.01c.36-1.23,20.28,14.34,18.84,34.35.24-.14-2.2-1.4-2.9-2.08.01-14.72-14.25-27.66-16.11-29.25ZM155.54,150.08c-13.29-6.67-25.91-22.66-26.58-43.46l-7.51,13.77-2.66-1.24c.25.23,5.94-11.34,11.79-19.33,1.65,26.24,11.05,38.45,25.28,47.31l-.33,2.95ZM85.93,140.48c-12.88-1.75-31.5-20.96-25.94-47,.79-2.64,13.21,12.01,13.21,12,.08-.66,11.17,18.92,10.86,22.74,9.37,2.92,27.65.15,27.65.15,15.2,3.72,31.09,21.68,25.35,47.21,0,0-4.04-2.91-7.42-6.29-10.26-10.86-13.51-19.79-17.15-29.63-13.13-1.3-25.45,1.28-26.57.81h0ZM155.66,118.8c.22,1.3.08,3.98.12,3.98-3.42,4.08-3.78,4.16.51,2.85-.53,3.92-3.17,4.56-4.74,3.23-.58-.49-.58-3.19-.58-3.19-2.6-.71-3.5-1.57-3.13-4.64-3-.39-2.88-1.99-2.63-5.33-2.73-1.68-2.05-4.36-.43-5.5l1.35,1.02c-.43.42-.22,3.08,2.17,1.1,0,0,1.91,1.74,2.83,2.42-6.92,4.87-2.73,3.8,1.54.6.8.6,1.89,1.58,2.46,2-5.62,4.41-7.46,8.1.54,1.47ZM156,135.37l-.23,3.51c-13.66-9.16-17.36-21.24-18.38-34.1,0,0,1.83,1.48,2.67,2.09,1.22,16.59,15.09,27.8,15.94,28.49h0ZM81.13,91.83l32.77.23-8.69,18.21,4.59,5.94s11.38-19.43,17.11-29.61l-1.98-1.3-16.34,28.13-.65-.79,16.11-28.1c-.97-.69-2.79-1.8-2.79-1.8,0,0-27.91.49-40.04.44.39-1.83.48-5.08.48-5.08,1.79,2.81,3.71,5.33,7.88,2.56,0,0,4.93.18,5.11-.07.6-1.07,1.67-4.43,2.92-8.23,4.76-.35,4.28-2.87,4.83-3.7-.36-7.41-4.16-3.42-3.83-6.11,1.07-4.8,6.55-15.66,5.86-16.62-1.41-1.03-15.43,2-19.51,2.55-.38-.16-2.37,6.97-4.47,10.02-2.29,3.32-3.1,6.87-1.93,10.23-1.21,3.69-3.53,3.31-5.39,4.35-2.11,2.5-1.53,6.34.48,7.82,1.4,1.03,3.55.98,5.74-.97l1.75,11.92ZM146.25,66.07l-3.83-5.64,3.72-5.93c-1.47-2.55-3.89-6.45-3.45-9.54.95-6.13,8.49-5.23,9.15.63.36,2.72-1.45,6.06-3.29,8.9,1.21,2.42,1.74,2.82,3.5,5.6-1.05,2.03-3.6,6-3.6,6,1.59,2.93,3.81,6.17,3.65,9.15-.17,2.56-2.72,5.16-5.1,4.61-7.4-1.7-3.27-10.37-.74-13.78Z"/>
        <path id="path4033-2-3-3" class="cls-3" d="M76.92,32.12c2.03,4.18,7.8,15.46,7.8,15.46,13.73-3.12,25.27-3.91,37.4-1l8.67-14.39-53.87-.07ZM78.71,32.96h2.48l4.87,10.97,8.4-1.84-1.43-9.11,2.38.02,1.2,8.76,12.34-.34,1.6-8.46,2.28.03-1.63,8.59,9.77,1.44,4.78-10.07h3.28l-7.27,12.43c-12.93-2.76-25.78-1.83-36.53,1.07l-6.51-13.5ZM83.39,32.96h7.24l1.74,7.41c-.89.51-4.21,1.38-5.32,1.26-1.33-2.55-2.7-6.23-3.66-8.66ZM97.36,32.96h11.02l-.94,6.31-9.25.32-.84-6.63ZM114.84,32.96h8.5l-3.35,7.66-6.41-.96,1.26-6.7ZM147.19,40.63c-.5,0-.96.04-1.38.14-2.2.51-3.36,2.36-3.38,5.39,0,1.39.93,3.84,2.35,6.16.69,1.13,1.15,2.17,1.15,2.17l-3.7,5.95,3.93,5.63s-.61.79-.98,1.35c-1.8,2.79-2.64,5.41-2.52,7.55.12,2.31,1.36,4.08,3.67,4.93,1.27.46,3.07-.1,4.29-1.31.98-.97,1.47-2.24,1.49-3.72.03-2.12-.91-4.69-2.77-7.49-.51-.76-.75-1.36-.75-1.36,0,0,2.61-4.07,3.59-5.93l-3.56-5.61c2.83-4.67,3.41-5.7,3.49-8.57-.13-2.84-2.01-5.27-4.92-5.29ZM146.83,40.97c.12,0,.25,0,.37.01,3.24.27,4.95,2.91,4.52,6.29-.44,3.23-3.09,6.23-3.52,7.27,1.28,2.27,3.68,5.5,3.68,5.5-1.02,2.03-3.66,5.98-3.66,5.98,0,0,.15.33.32.59,2.75,4.27,3.51,6.29,3.32,8.86-.15,2.02-1.61,3.82-3.42,4.19-2.88.58-5.24-1.66-5.53-4.68-.18-2.64,1.38-5.21,2.59-7.22.51-.84.95-1.64.95-1.64l-3.92-5.64c1.19-2.07,2.7-4.11,3.81-5.86,0,0-.58-1.03-1.13-1.97-2.15-3.72-2.75-5.63-2.42-7.68.41-2.53,2.2-3.96,4.03-4ZM147.12,42.88c-1.2.03-2.34,1-2.79,2.4-.66,2.62,1.86,6.59,3.01,7.65,2.15-2.7,3.51-5.74,2.72-7.86-.52-1.28-1.74-2.22-2.93-2.19ZM147.42,43.73c2.17.05,2.98,2.87,1.31,6.07-.58,1.09-1.43,2.24-1.43,2.24,0,0-.79-1.08-1.27-1.9-1.94-3.32-1.44-5.92.94-6.38.16-.02.31-.03.45-.03ZM104.28,45.19c-5.67.03-13.26,1.07-19.92,2.73-.58,3.92-2.37,7.84-4.33,10.96-1.88,3.37-2.57,6.31-1.94,8.32.59,1.88-1.02,4.69-2.79,4.87-2.2.22-3.6,1.9-3.57,4.29-.06,3.83,2.35,6.17,5.62,4.87.33-.05.55.19.55.19l-.19,21.9c-1.84.32-3.07.76-4.64,1.67-2.91-3.63-5.34-6.21-7.57-8.01-.06-4.88.12-9.78-.08-14.64-3.29,1.39-6.8,3.67-9.68,5.78-.97.71-1.07,1.11-.7,2.9.2,1.01.15,1.12-.6,1.32-1.56.42-2.05,3.14-.73,4.07.62.43.62.46.22,1.44-.62,1.53-.59,4.44.05,5.66.37.69.34.92-.14,1.26-1.66,1.19-1.55,3.72.19,4.2.44.12.56.33.41.75-.54,1.54-.05,3.87,1.2,5.64.65.92.65.91.22,1.33-1.4,1.39-.64,3.87,1.26,4.14.65.09.66.1.73.64.22,1.58.32,2.02.64,2.76.4.93.88,1.56,1.79,2.33.74.63.74.64.34,1.56-.73,1.71.43,3.42,2.27,3.35.94-.04.94-.04,1.01.33.33,1.79,2.27,3.89,3.87,4.18.82.15.95.36.67,1.12-.45,1.22-.16,2.01.97,2.65.76.43.98.44,1.81.13.94-.35.95-.35,1.75.82,1.13,1.65,1.87,2.06,3.75,2.08,1.24,0,1.28.04,1.29,1,.02,2.26,2.2,3.21,3.61,1.56.51-.59.51-.59.96-.23,1.98,1.59,3.74,2,3.58.51-.38-3.48-2.68-5.61-2.68-5.61l2.87.82c.13,3.68.25,8.11.95,11.17l-12.81,22.34s-.78-.52-1.59-1.14c-1.2-.91-2.68-1.98-3.58-2.6-.46-.32-1.05-.7-1.52-1.13-.45-.41.28-.94.43-1.37,2.95-5.77,7.56-12.7,10.92-19.44l-3.25-1.38c-2.49,4.29-4.32,7.74-6.64,11.7-2.31-18.54-14.12-34.81-28.41-41.67l.05,4.85c15,8.41,25.71,25.75,25.42,46.22-.06.08-1.26-.71-2.87-1.89-.85-.62-2.57-1.85-2.78-1.97.69-22.66-19.82-36.06-19.86-35.43,0,0-.13,2.93-.19,4.29,8.74,6.42,15.61,18.09,16.31,28.48,0,.08-4.1-2.81-4.1-2.81,2.45-1.33,1.77-4.79.01-5.73-.55-.27-.58-.4-.31-1.22.56-1.67-.47-4.19-1.89-4.62-.62-.19-.73-.36-.76-1.32-.06-1.76-.94-2.9-2.54-3.29-.44-.11-.45-.11-.47-.72-.13-3.4-3.17-4.79-5.45-2.49-.25.26-.52.75-.52.75l-.02,3.69c.78-.47,1.96-2.07,2.44-2.01.54.07.28.46-.93,1.6-.78.74-1.54,1.52-1.54,1.52l.05,4.86c1.3-.92,2.6-1.97,3.81-2.89,1.05-.8,1.58-1.06,1.71-.83.14.26-.09.6-.68.99-1.6,1.17-3.46,2.53-4.8,3.68v3.35s.25.41.25.41l.08,2.93-.24.06v3.69s31.56,22.08,31.56,22.08l16.06-27.75.26.29-16.06,27.63s.66.62,1.29.98c.64.39,1.43.91,2.12,1.41.32.58.88,1.08,1.49,1.01.55-.66,2.96-1.36,3.2-1.66,8.98-.14,34.77.05,34.77.05l.15,4.52c-1.16-4.38-4.9-5.28-7.84-3.32h-4.83s-2.86,5.63-3.27,8.57c-2.03-.3-4.73,1.86-4.86,4.06-.33,3.13,1.55,5.41,4,4.96.04.02-.38,3.1-1.77,5.5-1.84,4.25-2.79,6.62-3.91,10.24-.76,2.28-.5,2.68-.37,2.74,7.2-.11,13.82-.88,20.66-3.29,0,0-.13-.53-.19-.83-.25-1.21.68-3.69,3.31-8.81,2.03-3.96,2.61-5.47,2.81-7.33.1-.95.08-1.19-.22-2.95-.02-.16-.14-.4-.1-.58.21-1.19,1.86-3.27,1.9-3.22,0,0,.6-.12.84-.14,3.72-.29,4.88-5.83,1.73-8.33-1.53-1.03-2.43-1.11-4.05-.64l-.03-21.49,2.26.09,2.49-1.35c4,3.74,6.6,7.56,10.9,10.44l-.07.19-3.2-2.4v14.08c3.71-2.11,7.16-4.06,10.48-7.01l-.67-.64.03-2.01c3.13.27,3.43-4.09.86-4.61,0,0,.06-.35.31-.91.79-1.77.89-3.44.31-5.28-.35-1.12-.33-1.41.08-1.4,1.9.01,1.72-3.68-.21-4.49-.67-.28-.62-.05-.48-2.34.1-1.72-.28-2.89-1.44-4.4-.44-.57-.4-.84.16-1.22,1.62-1.08.45-4.21-1.55-4.12q-.78.04-.84-.82c-.18-2.24-1.32-4.38-2.82-5.28-.46-.28-.53-.5-.27-.89,1.28-1.87.08-4.42-1.72-3.68-.35.14-.72.29-.82.32-.14.05-.26-.17-.53-1.02-.75-2.31-1.41-3.03-3.79-4.13-.47-.22-.5-.37-.28-1.42.36-1.82-1.92-3.51-3.15-2.33-.5.48-.52.47-1.08-.32-1.13-1.42-2.96-2.41-4.59-2.6-.78-.08-.9-.14-.83-.47.43-2.22-1.54-3.67-3.19-2.34-.79.64-.99.66-1.8.16-1.7-1.05-2.45-1.09-2.63-.14-.05.79.1,1.72.28,2.3.41,1.56.95,2.14,2.13,3.24,0,0-1.95-.59-2.44-.7.05-.06-.14-7.42-1.42-11.59l12.47-21.74,7.14,5.16-11.42,19.79,3.33,1.48s4.44-8.08,6.77-12.04c1.52,19.68,15.41,36.93,27.99,42.05-.04.02.04-2.83.09-4.21-13.27-6.4-25.9-24.29-25.1-45.76l5.33,3.74c1.55,17.21,8.39,27.29,19.79,35.81v-5.27c-7.85-6.37-14.38-14.68-16.11-27.99,0,0,2.66,1.84,3.86,2.72,0,0-.34.21-.51.37-1.43,1.3-1,3.96.88,5.47.31.25.31.25.02,1.08-.57,1.67.31,3.68,1.79,4.1.85.24.85.23.86,1.3.03,2.07.79,3.03,2.81,3.52.28.07.29.1.28,1.03-.01,2.29,2,3.83,3.75,2.87.55-.3,2.27-1.88,2.27-1.88v-3.69s-.78.7-1.34,1.28c-.99,1.01-1.3,1.13-1.3.52,0-.45.46-1.03,1.4-1.8.49-.4,1.24-1.26,1.24-1.26v-4.3s-.44-.77-.41-1.68c.01-.5.14-1.26.14-1.26h.47s0-4.96,0-4.96l-.57-.49.02-3.3-31.2-22.11-16.25,28.31-.41-.52,16.27-28.13-4.32-3.03-2.61,1.41s-18.06-.31-35.67-.06c0,0-.04-.53-.03-2.04,0-1.89.09-2.16.41-1.36.71,1.79,2.48,2.87,4.53,2.76,1.16-.06,1.32-.11,2.61-.87.48-.28.57-.29,2.82-.27,2.42.02,2.86-.08,2.86-.64.84-2.1,1.67-4.54,2.15-6.37.23-.89.33-1.28.52-1.46.15-.14.26-.11.62-.13,1.55-.11,1.98-.22,3.1-1.41,2.24-2.46.95-7.47-2.29-7.49-.86,0-.27-2.51,1.54-6.57,1.88-4.2,2.14-4.84,3.11-7.66.63-1.84.94-3.16,1.01-3.96-.18,0-.36,0-.55,0ZM104.11,46.41c.45.41-.67,3.45-2.69,8.03-1.67,3.79-2.41,5.68-2.77,7.06-.1.4-.25.97-.33,1.27-.11.42-.25.63-.64.93-.27.21-.65.53-.84.7-.55.48-.68.33-.54-.64.25-1.79.9-3.73,2.4-7.1,1.19-2.68,2.35-5.55,3.26-8.48.2-.68.3-1.38.64-1.63.49-.3,1-.24,1.52-.13h0ZM101.68,46.58c.31.23-1.16,4.39-3.7,10.15-3.17,7.2-3.34,12.24-.49,13.47,2.25.97,4.51-1.74,3.12-3.72-.67-.95-2.1-1.03-2.6-.05-.27.54.11,1.16.59.4.7-1.1,2.1.17,1.77,1.47-.23.89-1.37,1.61-2.08,1.45-3.11-.68-2.53-5.49.7-5.75,3.09-.25,4.49,4.29,2.25,6.89-.71.84-1.54,1.26-3,1.26-2.01,0-3.89-1.82-3.7-3.51.27-1.54.31-2.79-.17-4.01-.15-.39-.34-.78-.33-1.27.03-1.37,1.06-3.49,3.35-8.73.82-1.88,1.83-5.14,2.33-7.19.18-.6.09-.77.3-.85.51-.12,1.25-.29,1.66-.01ZM99.03,46.66c.47.02-.61,3.81-1.98,7.03-1.04,2.47-2.45,5.64-3.5,8.57-.34.62-.56.67-1.25.27-.76-.44-.53-1.15,1.26-5.06,1.35-2.97,2.65-6.32,3.56-9.7.08-.41.21-.76.51-.95.47-.22.92-.18,1.4-.16h0ZM96.5,47.08c.25.36-1.39,5.46-3.93,11.22-.54,1.22-.91,2.34-1.46,3.59-.26.29-1.27.44-1.78.55-.52-.08-.03-1.15,1.46-4.44,1.21-2.68,1.56-3.44,2.19-5.08.46-1.2,1.14-3.25,1.77-5.17.05-.15.1-.5.24-.58.47-.22,1.05-.31,1.51-.08ZM94.02,47.4c.04.12-.05.38-.09.57-.4,2.05-1.31,3.96-1.98,5.93-.08.27-.81,1.94-1.63,3.71-.81,1.77-1.56,3.47-1.66,3.76-.1.3-.37,1.09-.6,1.76-1.46,3.44.11,6.14,2.05,6.33,3.02.27,3.31-4.37,1.17-4.81-.8-.15-1.69.33-1.69,1.35-.06.53.54,1.14.53.38-.03-1.38,1.73-1.32,1.95-.14.42,2.29-1.95,3.41-3.36,1.61-.58-.74-.58-1.58-.47-2.34.29-2.05,2.45-3.53,4.44-1.98,2.73,2.11,1.79,6.79-1.74,7.55-1.21.34-2.73-.1-3.68-1.17-.61-.68-1-1.69-1.16-2.94-.08-.7-.12-1.51-.02-2.28.29-2.4,1.88-5.91,3.29-8.88,1.08-2.46,1.93-5.72,2.92-8.34.28-.22,1.77-.43,1.73-.08h0ZM91.36,47.73c.16.05-.66,2.9-1.84,5.97-1.3,3.12-2.98,6.68-3.93,9.75-.3.75-.52.73-1.37-.14-.45-.46-.2-1.14,1.38-4.68,2.43-5.43,3.33-7.75,3.7-9.05.17-.61.31-1.35.67-1.59.47-.24.93-.42,1.39-.27h0ZM88.93,48.41c-.26.91-1.1,3.63-2.54,6.84-.9,2.03-1.79,4.27-2.68,6.37-.5,1.29-.51,1.29-1.36,1.48-1.43.33-1.43.31-.17-2.5.38-.84,1.1-2.37,1.61-3.41.94-1.91,2.39-5.63,2.92-7.49.14-.5.34-.96.57-1.22.15-.09,1.27-.45,1.65-.08ZM85.8,48.75c.26-.01.49.04.59.19.06.64-1.51,4.72-2.48,6.61-.3.58-.59,1.33-.92,2-1.23,2.15-2.71,6.28-3.1,7.99-.61,2.72,2.23,4.78,3.71,2.8.93-1.2-.04-3.35-1.38-2.75-.47.21-.28.44.36.5,1.06.1,1.14,1.89.02,2.28-1.25.42-2.17-.77-2.16-1.98,0-2.49,2.5-3.41,4.06-2.05,1.55,1.42,1.8,4.79-.55,6.09-2.29,1.27-5.12-.45-5.69-3.47-.43-2.3.04-4.41,2.06-7.97,1.16-2.04,2.97-5.57,3.9-8.67.18-.52.34-.96.51-1.18.15-.2.66-.39,1.08-.4h0ZM147.32,56l-3.08,4.29c.89,1.41,3,4.18,3,4.18l2.92-4.13-2.84-4.34ZM147.35,58.4l1.28,1.81-1.46,1.89-1.37-1.76,1.55-1.94ZM147.46,67.74s-3.73,4.47-2.87,7.79c.76,2.96,4.82,3.67,5.81-.65.07-.34.01-.81-.03-1.39-.08-1.76-2.92-5.75-2.92-5.75ZM147.46,68.62s1.07,1.7,1.82,3.2c.84,1.43,1.07,5.43-1.93,5.31-1.62.18-3.18-2.16-1.88-5.03.35-.87,1.99-3.48,1.99-3.48ZM85.96,69.34c.21-.04.42.45.55.81.18.48-.33,1.88-.87,2.57-.1.12-.79.18-1.8.75,0-.52.29-1.67.48-2.17.69-.75,1.28-1.64,1.56-1.91.03-.03.06-.04.09-.05ZM78.53,69.59c.46.57.91,1.06.89,1.41-.03.51-.58,1.15-1,1.6-.52.57-1.57.23-1.57-.51,0-.27,1.5-2.51,1.67-2.51ZM94.31,70.33c.44.26.89,1.14.95,1.55-.65,3.82-3.05,8.5-2.97,8.32,0,0-1.47.29-2.1-.06,1.62-2.46,2.7-5.58,3.43-8.14.32-1.1.46-1.66.68-1.66ZM92.94,70.86c.25-.02.34.2.14.8-.95,4.23-3.09,8.68-4.76,9.48-2.2,1.06-4.4.18-5.34-1.64-1.02-1.97-.84-5.07,2.56-5.75,2-.22,4.04,1.5,2.98,4.27-1.19,2.06-4.37.91-3.44-1.74.71-.97,2.19-.13,1.7.97-.25.56,0,.9.35.51,1.16-1.24-.75-3.37-2.04-2.3-2.1,1.74.49,5.55,2.94,3.92.75-.5,2.1-3.3,2.6-5.34.22-.88.41-1.71.93-2.25.49-.51,1.06-.92,1.38-.94ZM87.37,71.03c.12,0,.26.07.46.18.25.13.53.37.5.69-.04.36-.23,1.14-.6,1.52-.23-.09-.86-.36-1.29-.49-.27-.08.09-.71.25-1.07.27-.57.41-.8.63-.83.02,0,.03,0,.05,0ZM80.43,71.18c.32,0,.82.38,1.15.43.06.53-.55,1.65-1.54,2.98q-.81,1.09-1.35-.11c-.35-.78-.36-.76.64-2.13.54-.74.8-1.07,1.04-1.16.02,0,.04,0,.06,0ZM83.58,71.56c.01.28-.12.9-.23,1.26-1.13,3.68-3.76,7.34-5.93,8.23-2.83,1.01-5.43-.62-5.49-4.39.07-4.44,4.9-5.67,6.36-1.62.66,1.83-1.14,4.58-2.69,4.12-1.56-.46-2.22-3.14-.93-3.8.85-.43,1.72.29,1.54,1.28-.06.34-.05.39.14.35.8-.16.38-1.93-.57-2.37-1.79-.83-3.15,1.81-1.94,3.79,1.45,2.36,3.73,1.91,5.04-1,.22-.5.65-1.21.94-1.58.8-1.01,1.05-1.4,1.75-2.74.39-.73.59-1.2.79-1.44.31-.02.53.07,1.22-.08ZM89.93,71.76c.34,0,.6.24.59.76,0,.43-.57,2.25-.83,2.69-.1.17-.34.75-.37.62-.33-1.21-.92-1.59-1.01-1.9-.1-.37.2-.73.33-1.07.28-.71.85-1.11,1.29-1.1ZM95.92,72.33c.41,0,.99.2,1.11.54.38.72-2.16,7.43-2.26,7.45l-1.89-.09c1.14-2.68,2.14-5.33,2.87-7.88.05,0,.1-.01.16-.02ZM121.33,82.95l2.41,1.57-15.87,27.63-2.31-1.93,15.77-27.26ZM81.73,83.52c14.83.06,35.24.03,35.24.03l-.86,1.79s-22.3-.24-34.38-.21v-1.61ZM61.72,84.65l-.03,9.08c-1.53-1.47-6.18-4.7-6.2-4.63,0,0,4-2.93,6.23-4.45ZM125.19,85.56l1.49,1.03-16.68,29.08-.93-1.99,16.12-28.11ZM81.73,85.96h2.32v2.87h-2.32v-2.87ZM87.05,85.96h2.82v2.87h-2.82v-2.87ZM93.21,85.99h2.9v2.87h-2.9v-2.87ZM99.25,86h2.93v2.87h-2.93v-2.87ZM105.34,86.02h2.89v2.87h-2.89v-2.87ZM111.43,86.08h2.96v2.02l-.45.85h-2.51v-2.87ZM127.37,87.02l28.29,20.05-.02,2.77-29.45-20.85,1.18-1.97ZM125.51,89.36l.24.19-1.2,2.01-.25-.15,1.2-2.05ZM81.81,89.66h31.75l-.96,1.76-30.8-.05v-1.71ZM55.75,90.56c.21-.02.63.19,1.28.59,1.56.96,2.54,2.98,1.87,3.71-.6.65-2.01-.74-2.88-2.73-.46-1.05-.58-1.55-.27-1.57ZM111.93,92.29l-10.24,17.93c-2.32-3.48-4.91-6.48-10.58-4.45-2.96-2.5-6.08-2.89-9.41-.77l.04-12.66,30.19-.06ZM59.2,92.3l.8.76c-.24.49-.34,1.21-.5,1.85-.01-.87-.08-1.74-.3-2.6h0ZM124.13,92.49l31.56,22.74v2.11l-32.66-23.05,1.1-1.8ZM55.01,93c.41,0,.81.18,1.11.58.48.63.28,1.78-.39,2.27-1.33.98-2.93-.92-1.88-2.22.33-.41.75-.62,1.16-.63ZM60.24,93.27l1.72,1.51c-2.99,18.69,5.55,37.55,23.96,43.21l.21,2.39c.03.11-7.82-2.56-11.25-5.37-4.69-3.48-8.65-8.37-11.39-14.06-1.86-3.67-2.89-7.71-3.55-10.98-.78-5.6-.76-11.15.29-16.7ZM58.28,95.81c.66.03.73.55.2,1.55-.68,1.29-1.71,2.18-3.36,2.95-.91.42-1.15.23-1.05-.84.16-1.6,1.18-2.78,2.94-3.4.42-.13.85-.27,1.26-.27h0ZM63.35,96.01c.27.25.35.33.68.64-.57.21-.97.8-.97,1.49,0,.87.64,1.58,1.44,1.58.71,0,1.3-.57,1.41-1.31.26.24.5.47.69.65-.33.92-1.15,1.56-2.1,1.56-1.25,0-2.26-1.11-2.26-2.48,0-.91.45-1.69,1.11-2.12h0ZM64.5,97.25c.08,0,.15.02.23.04.18.17.33.31.5.47.05.12.08.24.08.38,0,.49-.36.88-.81.88s-.81-.4-.81-.88.36-.88.81-.88ZM59.07,97.82c-.19,2.41-.13,4.93-.06,7.45-.42-2-1.37-3.49-2.95-4.52,1.09-.82,2.23-1.83,3.01-2.93h0ZM67.37,99.71l1.53,1.45c-1.32,19.78,14.51,27.29,14.93,26.96l.67,2.24c-10.93-4.07-18.48-16.45-17.13-30.65h0ZM155.52,147.14l-.08,2.49c-12.4-5.27-26.53-24.72-26.35-43.35-3.18,5.35-4.97,8.92-7.71,13.73l-2.18-1.13c3.58-5.84,6.98-12.08,10.57-17.82.41-.65.74-.94.76.47,0,6.41,1.81,32.79,24.99,45.61h0ZM54.69,101.26c.4-.03.97.18,1.69.71,1.13.83,2.41,3.41,1.97,3.98-.4.52-2.08-.1-2.91-1.07-1.65-1.92-1.76-3.56-.74-3.63ZM64.36,101.52c1.25,0,2.26,1.11,2.26,2.47s-1.01,2.48-2.26,2.48-2.26-1.11-2.26-2.48,1.01-2.47,2.26-2.47ZM69.42,101.75l1.48,1.9c.29,16.6,12.25,21.72,12.14,21.76l.36,1.79c-.67.1-14.8-6.95-13.98-25.44ZM64.36,102.42c-.79,0-1.44.71-1.44,1.58s.64,1.58,1.44,1.58,1.44-.71,1.44-1.58-.64-1.58-1.44-1.58ZM64.36,103.11c.44,0,.81.4.81.88s-.36.88-.81.88-.81-.4-.81-.88.36-.88.81-.88ZM72,104.61c.18,0,1.04,1.36,1.04,1.36,0,0-.94.36-1.34-.09-.4-.44-.19-1.27.31-1.27ZM137.51,105.23l2.22,1.66c1.03,11.2,6.89,21.42,15.73,28.51l-.06,2.77c-10.76-7.96-16.73-18.78-17.89-32.94ZM54.45,105.42s.07,0,.11,0c1.36.02,1.93,2.31.48,2.96-.91.41-1.9-.18-2-1.2-.07-.72.42-1.48,1.08-1.69.12-.04.23-.06.34-.07ZM72.95,106.91c.36,0,.74.22,1.11.68.97,1.2.96,1.55-.06,2.01-1.44.64-2.64-.25-2.16-1.61.25-.71.66-1.08,1.12-1.08ZM58.18,106.97c.12,0,.23.01.33.06,1.06.45-1.24,5.08-2.77,5.55-.97.3-1.17-.12-.85-1.74.35-1.8,2.16-3.84,3.29-3.87ZM64.96,107.08c1.25,0,2.26,1.11,2.26,2.47s-1.01,2.48-2.26,2.48-2.26-1.11-2.26-2.48,1.01-2.47,2.26-2.47ZM64.96,107.97c-.79,0-1.44.71-1.44,1.58s.64,1.58,1.44,1.58,1.44-.71,1.44-1.58-.64-1.58-1.44-1.58ZM59.31,108.11c.2,2.29.54,4.41,1.47,7.23-.87-1.53-2.11-2.28-3.3-3.15.83-1.36,1.8-2.72,1.83-4.08ZM64.96,108.67c.45,0,.81.4.81.88s-.36.88-.81.88-.81-.4-.81-.88.36-.88.81-.88ZM77.76,108.94c2.36-.06,4.03,2.07,3.92,4.11.07,2.37.15,3.88-.03,6.82l-1.91-3.84c-.03-1.09.14-1.91.07-3-.22-2.91-2.82-2.51-2.95-2.22l-.82-1.47c.6-.27,1.18-.4,1.73-.41ZM86.07,109.23c2.21,0,3.49,1.36,3.56,3.79.13,4.65-.1,15.25-.1,15.25h-4.78s-2.61-7.08-2.61-7.08c0,0-.1-.68-.08-1.18.17-2.27.06-4.8.13-6.85.28-2.18,1.91-3.92,3.88-3.92ZM75.01,109.96c.31,0,.59.1.81.34,1.11,1.23,1.1,2.03-.02,2.59-1.49.73-2.26.59-2.77-.49-.5-1.07.88-2.42,1.98-2.43ZM144.71,110.3l1.21.86s-.25.44-.39.7c-.69,1.3.48,2.06,2.1,1.37.29-.12.54-.3.54-.3l1,.75s-.72.43-1.51.85c-2.02,1.08-3.48.62-3.96-1.25-.19-.74,0-1.68.38-2.22.19-.28.63-.74.63-.74ZM93.42,110.45c1.85-.07,3.65,1.51,4.08,3.64.18,1-.05,14.17-.05,14.17h-7.34s.13-13.83.13-13.83c-.05-.87,0-1.74.43-2.36.81-1.1,1.79-1.59,2.76-1.63ZM85.8,111.06c-1.48.07-2.33,2.71-.8,3.95.64.52.65.62.31,2.37-.39,2,.01,4.74.92,6.28.7,1.28.56.62.2-.51-.46-2.13-.23-3.7.89-6.18,1-2.09,1.98-5.3-1.22-5.88-.1-.02-.21-.03-.31-.02ZM146.73,111.66l.66.49s-.1.09-.24.24c-.27.28-.79.33-.96.11-.27-.36.54-.84.54-.84ZM93.84,112.68c-1.59-.06-2.64,3.18-.6,3.96.46.33.54.76.25,1.36-.39.81-.77,2.75-.71,3.55.09,1.16.36,2.67.57,3.2.54,1.45.43.87.29-.8-.05-1.87.29-3.22,1.28-5,1.18-2.14,2.8-5.62-.92-6.26-.05,0-.1-.01-.16-.02h0ZM66.42,112.69c1.25,0,2.26,1.11,2.26,2.47s-1.01,2.48-2.26,2.48-2.26-1.11-2.26-2.48,1.01-2.47,2.26-2.47ZM76.9,112.94c.39,0,.68.28,1.04.86.98,1.59.86,1.92-1.02,3.06-1.99,1.2-3.33-1.82-1.42-3.22.58-.42.99-.66,1.32-.69.03,0,.05,0,.08,0ZM56.2,113.06c2.1.02,5.39,3.31,3.79,3.79-.23.07-.52.11-.64.11-2.64-.18-5.67-3.93-3.15-3.9ZM66.42,113.59c-.79,0-1.44.71-1.44,1.58s.64,1.58,1.44,1.58,1.44-.71,1.44-1.58-.64-1.58-1.44-1.58ZM149.74,114.06l1.05.78s-.64.32-1.4.77c-2.05,1.2-2.65,2.08-1.94,2.87.25.28.55.4,1.09.18,1.42-.61,2.75-1.67,4.08-2.51l.79.59s-3.14,2.43-4.84,3.47c-2.67,1.5-4.2-1.57-2.71-3.62,1.15-1.25,2.38-1.66,3.88-2.52ZM66.42,114.28c.45,0,.81.4.81.88s-.36.88-.81.88-.81-.4-.81-.88.36-.88.81-.88ZM151.38,115.11l.57.42s-.06.03-1.81,1.13c-1.91,1.2-1.99,1.22-2.1,1.03-.09-.06.04-.55.62-.98,1.03-.76,2.84-1.67,2.71-1.61ZM101.79,115.17c1.3-.03,2.62.65,3.38,2.09.39,1.1.42,2.12.41,3.27l-.03,7.74h-7.39s-.34-5.27,0-9.66c.34-2.21,1.96-3.4,3.63-3.44ZM78.82,116.32c.47-.04.82.47,1.26,1.56.44,1.08.11,1.7-1.28,2.35-.18.08-.38.14-.44.14-1.4-.15-1.98-1.92-.97-3,.63-.67,1.07-1.02,1.43-1.05ZM153.97,117.11l.64.44s-.33.33-2.72,2.23c-1.93,1.54-2.21,1.96-1.8,2.82.33.7,1.03.61,2-.21,1.35-1.14,3.48-3.06,3.48-3.06l.07,1.32c-1.4,1.23-3.09,3.33-4.43,4.13-2.59,1.4-4.46-2.44-2.08-4.34,2.04-1.63,4.84-3.33,4.84-3.33ZM102.07,117.11c-1.93-.02-2.65,3.12-.57,3.79.6.35.55.53.15,2.1-.24.95-.32,2.12-.19,2.86.16.95.35.92.27-.09,0-.56.52-2.04,1.05-2.97,1.93-2.94,1.42-5.66-.7-5.69h0ZM57.04,117.15c1.27,0,1.99,1.95.88,2.79-.78.59-2.42-.13-2.42-1.07,0-.8.58-1.56,1.28-1.7.09-.02.18-.03.26-.03h0ZM60.71,117.31c.4,0,.63.64.63,1.92,0,1.83-.6,3.42-1.62,4.35-1.48,1.35-1.81-2.33-.43-4.76.58-1.01,1.06-1.51,1.42-1.51ZM155.33,117.8c.36,0,.31.3-.11.62-.33.25-.88.75-2.61,2.34-.31.29-.76.67-.99.84-.57.42-1.06.31-.78-.18.27-.48,4.17-3.62,4.5-3.62ZM68.68,117.88c1.25,0,2.26,1.11,2.26,2.47s-1.01,2.48-2.26,2.48-2.26-1.11-2.26-2.48,1.01-2.47,2.26-2.47ZM68.68,118.78c-.79,0-1.44.71-1.44,1.58s.64,1.58,1.44,1.58,1.44-.71,1.44-1.58-.64-1.58-1.44-1.58ZM41.63,118.82c15.3,8.47,24.83,24.32,27.19,42.38l7.43-12.91,2.01.83-10.83,19.33-.47-.16c-.05-18.89-8.64-36.76-25.36-46.56l.03-2.91ZM68.68,119.47c.45,0,.81.4.81.88s-.36.88-.81.88-.81-.4-.81-.88.36-.88.81-.88ZM62.36,119.57c.67,1.62,1.48,3.32,2.74,5.26-1.28-1.31-2.67-1.26-4.05-1.45l1.31-3.81ZM80.55,119.92c.24-.01.47.1.66.38.63.94.74,1.82.31,2.29-.6.65-1.55.39-1.97-.53-.45-.96.3-2.1,1.01-2.14ZM155.58,121.23l.02,1.47s-.29.38-.59.69c-.85.87-2.02,2.27-2.1,2.62-.27,1.16.77,1.58,1.8.73.35-.29.87-.74.87-.74v1.8c-.87.81-1.73,1.6-2.92,1.34-.69-.23-1.3-.82-1.42-1.58-.49-2.27,1.52-3.54,3.08-5.06.5-.49,1.26-1.26,1.26-1.26ZM71.86,122.51s.08,0,.11,0c1.25,0,2.26,1.11,2.26,2.47s-1.01,2.48-2.26,2.48-2.26-1.11-2.26-2.48.95-2.41,2.15-2.47ZM117.28,123.07c1.23,0,1.89,1.81.89,2.84-.39.4-1.27.69-1.77.31-1.37-1.05-.36-3.09.88-3.16ZM114.82,124.51c.71.83,1.25,3.24.83,3.69-.93,1.05-3.63-2.45-3.47-4.73.29-1.37,2.37.73,2.64,1.04ZM81.77,123.2c.52,0,.61.51.5.81-.11.29-.52.31-.84.16-.55-.25-.29-.98.34-.97ZM71.98,123.41c-.79,0-1.44.71-1.44,1.58s.64,1.58,1.44,1.58,1.44-.71,1.44-1.58-.64-1.58-1.44-1.58ZM61.21,124.1c2.73,0,5.61,2.36,3.1,2.82-1.86.35-3.06-.06-4.51-1.5-.74-.74-.47-1.13.87-1.29.18-.02.36-.03.54-.03h0ZM71.98,124.1c.45,0,.81.4.81.88s-.36.88-.81.88-.81-.4-.81-.88.36-.88.81-.88ZM75.75,126.34s.08,0,.12,0c1.25,0,2.26,1.11,2.26,2.47s-1.01,2.48-2.26,2.48-2.26-1.11-2.26-2.48.95-2.41,2.14-2.47ZM120.21,126.47c.65-.01,1.21.12,1.54.45.4.4-.2,1.17-1.43,1.83-1.43.77-3.93.66-3.93-.17,0-1.1,2.17-2.08,3.82-2.11ZM65.75,127.12c1.25,0,1.59,4.27.5,6.31-.56,1.06-1.33.35-1.87-1.74-.45-1.71.41-4.57,1.37-4.57ZM75.87,127.24c-.79,0-1.44.71-1.44,1.58s.64,1.58,1.44,1.58,1.44-.71,1.44-1.58-.64-1.58-1.44-1.58ZM122.74,127.52c.11,0,.24.06.42.16,1.37.74,2.36,4.17,1.65,5.71-.75,1.61-2.44-1.49-2.43-4.46,0-.97.06-1.36.31-1.4.01,0,.03,0,.05,0ZM62.2,127.74s.06,0,.09,0c1.24.03,2.14,1.91.97,2.87-.51.42-1.29.49-1.78.15-.95-.66-.9-2.27.09-2.83.21-.12.42-.18.63-.19ZM75.87,127.94c.45,0,.81.4.81.88s-.36.88-.81.88-.81-.4-.81-.88.36-.88.81-.88ZM67.42,128.23c.68,1.1,3.42,4.02,3.8,4.27-1.21-.43-2.46-.25-3.71-.06.14-1.01.29-2.66-.09-4.21ZM111.52,128.48c18.6,4.77,29.95,26.39,25.47,46.67,0,0-1.57-.96-1.81-1.42.66-3.51,1.06-9.07.24-14.66-1.4-9.48-8.41-23.39-23.78-28.16-.17-.61-.11-2.43-.11-2.43ZM121.54,128.63c.21,1.39.41,2.78.72,4.03-1.31-1.03-2.79-1.92-4.31-2.63,1.09-.25,2.08-.46,3.59-1.4ZM126.9,129.08c.74-.02,1.49.56,1.48,1.56,0,.44-.44,1.23-.77,1.42-1.24.69-2.5-.62-1.96-2.03.24-.63.74-.93,1.25-.94ZM80.17,129.61c1.25,0,2.26,1.11,2.26,2.47s-1.01,2.48-2.26,2.48-2.26-1.11-2.26-2.48,1.01-2.47,2.26-2.47ZM80.17,130.51c-.79,0-1.44.71-1.44,1.58s.64,1.58,1.44,1.58,1.44-.71,1.44-1.58-.64-1.58-1.44-1.58ZM41.69,130.75c9.24,5.97,17.53,18.68,18.15,33.05l-2.24-1.6c-.96-9.68-5.49-20.21-15.98-28.84,0,0,.03-.93.07-2.61ZM92.86,130.75h11.95v2.82l3.58-2.02v6.24l-3.58-2.37v2.72h-11.95v-2.86l-3.66,1.94.04-6.21,3.62,2.23v-2.48ZM80.17,131.21c.44,0,.81.4.81.88s-.36.88-.81.88-.81-.4-.81-.88.36-.88.81-.88ZM84.87,131.7s.03,0,.05,0l.14.9s-.05,0-.07,0c-.79,0-1.44.71-1.44,1.58s.64,1.58,1.44,1.58c.19,0,.37-.04.54-.11l.14.9c-.22.07-.44.11-.68.11-1.25,0-2.26-1.11-2.26-2.48s.95-2.4,2.14-2.47ZM111.86,132.01s.08,0,.12,0c1.25,0,2.26,1.11,2.26,2.47,0,1.17-.75,2.15-1.75,2.41l-.14-.89c.61-.18,1.06-.79,1.06-1.52,0-.87-.64-1.58-1.44-1.58-.03,0-.07,0-.1,0l-.14-.89s.08,0,.12-.01ZM127.72,132.85c2.79.02,3.95,1.77,1.66,2.52-1.06.35-2.45.16-3.82-.5-1.14-.55.43-2.02,2.15-2.01ZM69.41,133.02c.67,0,1.33.11,1.81.36,1.17.61,1.14,1.02-.11,1.8-1.74,1.1-5.83-.01-4.6-1.25.58-.58,1.77-.91,2.89-.92ZM84.99,133.29c.06,0,.12,0,.18.02l.25,1.61c-.12.09-.27.14-.43.14-.45,0-.81-.4-.81-.88s.36-.88.81-.88ZM111.98,133.6c.44,0,.8.4.8.88,0,.38-.23.71-.54.83l-.26-1.71ZM116.9,134.23c1.25,0,2.26,1.11,2.26,2.47s-1.01,2.48-2.26,2.48-2.26-1.11-2.26-2.48,1.01-2.47,2.26-2.47ZM72.87,134.86c.13,0,.29.06.45.21,1.36,1.21,2.03,3.78,1.5,5.69-.51,1.82-2.62-1.41-2.61-4,0-1.19.26-1.88.66-1.9ZM131.43,135.08c.19,0,.38.16.58.51.84,1.54.8,4.71-.07,5.69-.5.56-.68.45-1.2-.69-.88-1.95-.22-5.53.68-5.52ZM116.9,135.13c-.79,0-1.44.71-1.44,1.58s.64,1.58,1.44,1.58,1.44-.71,1.44-1.58-.64-1.58-1.44-1.58ZM74.66,135.56c1.71,1.18,3.46,2.26,5.27,3.16-1.7-.44-2.96.19-4.26,1.03.25-1.56-.24-2.83-1.02-4.18ZM125.98,135.89c1.27.2,2.53.43,4.01.12-.27,1.37-.37,2.77-.25,4.2-1.1-1.56-2.32-3.02-3.76-4.32h0ZM116.9,135.83c.45,0,.81.4.81.88s-.36.88-.81.88-.81-.4-.81-.88.36-.88.81-.88ZM71.06,136.67c1.05.56,1.08,1.95.06,2.68-1.28.91-2.95-.69-2.15-2.07.71-.93,1.21-.93,2.09-.61h0ZM121.44,137.47c1.25,0,2.26,1.11,2.26,2.47s-1.01,2.48-2.26,2.48-2.26-1.11-2.26-2.48,1.01-2.47,2.26-2.47ZM134.67,137.88c.22,0,.44.05.67.18.8.46.97,1.63.33,2.31-.71.76-1.67.63-2.15-.29-.54-1.04.2-2.18,1.15-2.2ZM112.85,138.25c11.13,4.15,18.59,17.72,16.79,30.78l-1.39-1.44c1.06-7.4-2.65-21.54-15.05-27.35l-.35-1.99ZM121.44,138.37c-.79,0-1.44.71-1.44,1.58s.64,1.58,1.44,1.58,1.44-.71,1.44-1.58-.64-1.58-1.44-1.58ZM121.44,139.06c.44,0,.81.4.81.88s-.36.88-.81.88-.81-.4-.81-.88.36-.88.81-.88ZM79.11,139.22c.57.05,1.53-.06,1.75.53.25.74-1.14,2.02-2.9,2.28-.72.05-2.25.25-2.58-.32-.3-.71,1.77-2.46,3.72-2.49ZM43.76,139.65c1.5-.07,3.2,2.13,1.68,3.93-1.22,1.38-3.71,3.27-3.71,3.27v-1.21s2.44-1.96,2.48-2.84c0-1.02-.76-1.6-1.62-.99-.17.12-.84.72-.84.72l.06-2.03c.45-.55,1.26-.82,1.96-.85h0ZM82.21,140.17c1.12.05,3.7,4.42,3.04,5.31-.52.71-2.62-.86-3.41-2.55-.42-.91-.3-2.52.22-2.73.05-.02.1-.03.15-.03ZM99.42,140.7s.11,10.17-.41,11.12c-2.09,4.15-6.61,1.99-6.99-1.12-.28-1.87-.11-9.99-.11-9.99l7.51-.02ZM100.08,140.7h7.21s-.03,14.31-.32,15.13c-.24.67-1.28,1.82-1.94,2.14-2.12,1.01-4.38-.42-4.94-3.14-.4-1.96,0-14.12,0-14.12h0ZM107.89,140.7h4.79s.16.76.35,1.38c.33,1.09,1.46,4.21,1.59,4.4.58.86.61,10.21.03,11.27-2.11,3.47-5.63,2.46-6.91-1.38-.32-1.23.14-15.67.14-15.67ZM113.48,141.05c8.59,4.47,15.16,13.94,14.34,26.1l-1.58-1.72c.58-8.39-5.26-18.88-12.06-21.99l-.7-2.38ZM125.3,141.34c1.25,0,2.26,1.11,2.26,2.47s-1.01,2.48-2.26,2.48-2.26-1.11-2.26-2.48,1.01-2.47,2.26-2.47ZM133.77,141.59c.84.01,1.87.33,2.63,1.02.92.83,1.04,1.48.33,1.72-1.37.46-3.03.01-4.06-1.1-.96-1.04-.13-1.66,1.09-1.64ZM125.3,142.23c-.79,0-1.44.71-1.44,1.58s.64,1.58,1.44,1.58,1.44-.71,1.44-1.58-.64-1.58-1.44-1.58ZM80.06,142.43c1.2,0,1.76,1.86.83,2.81-.38.39-1.41.47-1.86.15-1.24-.88-.51-2.96,1.03-2.95ZM95.98,142.9c-.4,1.26-1.04,2.67-1.57,3.64-1.42,2.6-1.24,4.34.26,5.22,2.2,1.29,3.81-2.18,1.63-3.54-.76-.48-.76-.48-.49-1.77.34-1.61.4-3.52.16-3.55ZM125.3,142.93c.44,0,.81.4.81.88s-.36.88-.81.88-.81-.4-.81-.88.36-.88.81-.88ZM103.71,143.44c-.1,0-.02.64-.03,1.79-.01,1.85-.15,2.41-1.23,4.89-1.38,3.17-1.2,5.33.51,6.04,1.33.55,2.62-.57,2.63-2.26,0-.81-.33-1.44-.83-1.61-.46-.03-.96-.27-.93-.51.28-1.89,1.78-5.46-.12-8.34ZM132.24,143.69c1.12.77,2.26,1.5,3.93,1.59-.71,1.86-.64,3.22-.75,4.7-.71-2-1.81-4.21-3.17-6.29h0ZM47.07,143.98c.09,0,.18,0,.27.02,1.07.18,1.97,1.68,1.68,2.79-.25.97-.33,1.14-3.76,3.65-1.91,1.39-2.11,1.45-2.11,1.45l-1.02-.75s.86-.63,2.23-1.64c2.64-1.94,3.02-2.4,2.75-3.27-.29-.94-1.28-.74-2.84.57-2.31,1.95-2.55,2.07-2.55,2.07v-1.16s1.01-.88,1.45-1.29c1.07-.83,2.55-2.43,3.89-2.44ZM115.31,144.49c.26,0,.46.26.37.51-.04.12-.19.2-.4.2-.41,0-.44-.65-.02-.71.02,0,.03,0,.05,0h0ZM138.47,145.84c.49,1.83-.56,4.89-1.2,5.28-.68.74-1.11.03-1.26-1.88,0-1.56,1.63-6.42,2.46-3.39ZM111.01,144.81c.21,2.64.29,4.83-.84,6.97-1.46,2.78-1.08,5.16.48,5.69,1.56.52,2.94-.7,2.67-2.36-.08-.51-.72-1.34-1.11-1.45-.48-.14-.54-.46-.26-1.51.53-2.03.35-4.59-.45-6.45-.07-.28-.37-.9-.48-.89h0ZM116.26,145.69c1.32,0,1.94,1.88.95,2.87-.55.55-.9.3-1.47-1.05-.53-1.25-.37-1.83.52-1.82ZM128.53,146.08c1.25,0,2.26,1.11,2.26,2.47s-1.01,2.48-2.26,2.48-2.26-1.11-2.26-2.48,1.01-2.47,2.26-2.47ZM128.53,146.97c-.79,0-1.44.71-1.44,1.58s.64,1.58,1.44,1.58,1.44-.71,1.44-1.58-.64-1.58-1.44-1.58ZM128.53,147.67c.45,0,.81.4.81.88s-.36.88-.81.88-.81-.4-.81-.88.36-.88.81-.88ZM118.83,148.32c.18,0,.36.03.53.11,1.19.63,1.06,2.44-.25,3.52-.83.68-1.18.45-1.96-1.32-.42-.96.68-2.27,1.68-2.31ZM49.76,148.52c.12,0,.23.02.34.06,1.23.37,2.01,1.94,1.7,3.13-.68,1.84-2.97,2.46-4.71,3.23l-.9-.72s1.28-.79,2.52-1.42c1.16-.59,1.35-.82,1.26-1.56-.17-1.44-.81-1.39-3.69.31-1.17.69-2.04,1.31-2.04,1.31l-.64-.57c.95-.69,1.53-1.07,2.57-1.85,1.74-1.31,2.74-1.87,3.46-1.91.04,0,.08,0,.13,0h0ZM141.51,149.59c.42,1.4-.44,2.62-1.73,2.07-.7-.3-1.2-1.28-.76-2.19.58-1,2.21-.82,2.49.11ZM115.62,149.1l2.03,4s.03,1.11.05,1.73c.08,2.6.59,3.46,1.97,3.2.1-.02.59-.18.59-.18l.88,1.63s-.95.46-1.2.51c-1.63.38-3.9-.97-4.25-2.77-.34-1.74-.08-8.14-.08-8.14h0ZM49.03,150.75c.61.05.35.56.07.73-1.19.67-2.32,1.39-3.57,2.18l-.83-.57s.64-.39,1.09-.69c1.37-.92,2.76-1.63,3.25-1.65ZM130.72,151.26c1.25,0,2.26,1.11,2.26,2.47s-1.01,2.48-2.26,2.48-2.26-1.11-2.26-2.48,1.01-2.47,2.26-2.47ZM121.15,151.6c.52-.02.95.23,1.24.74.6,1.1-.04,2.44-1.5,3.16-.82.4-.95.32-1.83-1.1-.59-.96-.59-1.13.07-1.74.73-.68,1.44-1.04,2.03-1.06h0ZM41.77,151.82l32.39,22.98-.92,1.72-31.41-22.52-.06-2.18ZM138.02,152.12c1.97.04,4.54,2.54,3.63,3.52-.1.1-.28.18-.42.18-2.81-.18-5.91-3.76-3.21-3.7ZM130.72,152.16c-.79,0-1.44.71-1.44,1.58s.64,1.58,1.44,1.58,1.44-.71,1.44-1.58-.64-1.58-1.44-1.58ZM87.46,152.6l.86,2.44-16.12,28.11-1.58-1.12,16.85-29.44ZM130.72,152.85c.44,0,.81.4.81.88s-.36.88-.81.88-.81-.4-.81-.88.36-.88.81-.88ZM136.64,153.15c.79,1.61,2.1,2.59,3.6,3.28-1.41,1.28-2.12,2.93-2.07,4.66-.36-2.6-.67-5.18-1.53-7.95ZM51.42,154c.35,0,.66.08.9.27,3.02,2.27.25,4.51-.01,4.34l-1.03-.71c.35-.64,1.16-1.51-.14-2.33-.73-.35-1.55.07-2.26.61l-1.08-.81s2.12-1.38,3.61-1.37h0ZM122.67,155.28c.11,0,.23,0,.33.03,1.71.36,1.59,2.34-.19,3.26-1.01.52-1.19.42-2.08-1.25-.42-.78.84-2,1.94-2.04ZM50.87,156c.18,0,.41.18.44.34.09.52-.79,1.04-.79,1.04l-1.01-.73c.43-.26.88-.61,1.36-.65ZM141.73,156.48c.25-.02.43.11.5.43.35,1.54-1.22,4.4-2.66,4.86-.84.27-1.09-.16-.81-1.44.39-1.79,2.09-3.78,2.97-3.85h0ZM89.48,156.6l2.62,2.09-15.74,27.25-2.72-1.77,15.84-27.56ZM132.31,156.82c1.25,0,2.26,1.11,2.26,2.47s-1.01,2.48-2.26,2.48-2.26-1.11-2.26-2.48,1.01-2.47,2.26-2.47ZM132.31,157.72c-.79,0-1.44.71-1.44,1.58s.64,1.58,1.44,1.58,1.44-.71,1.44-1.58-.64-1.58-1.44-1.58ZM132.31,158.41c.44,0,.81.4.81.88s-.36.88-.81.88-.81-.4-.81-.88.36-.88.81-.88ZM96.14,158.5c1.71,2.11,3.63,6.83,10.33,4.6,2.28,2.04,5.43,3.2,9.32.94l.03,12.71-29.75.03,10.07-18.28ZM41.81,158.83l29.29,21.12-.92,1.77-28.4-19.89.03-3.01ZM124.05,158.84s.05,0,.07,0c1.5.4,1.67,2.04.27,2.67-.74.34-.9.25-1.61-.89-.28-.46-.44-.84-.4-.95.1-.28,1.25-.84,1.66-.83h0ZM142.85,160.58c.52,0,1.04.31,1.29.91.37.9.15,1.65-.6,2.15-1.25.83-2.65-.69-2-2.17.26-.59.79-.89,1.31-.89h0ZM124.51,162.3c.69,0,1.27.73.93,1.16-.22.29-.51.21-.88-.26-.43-.54-.46-.91-.06-.91h0ZM132.9,162.62c1.25,0,2.26,1.11,2.26,2.47s-1.01,2.48-2.26,2.48-2.26-1.11-2.26-2.48,1.01-2.47,2.26-2.47ZM139.28,162.76c1.7.01,4.07,3.13,3.67,4.84-.13.56-1.09.26-2.22-.7-1.54-1.29-2.53-4.15-1.44-4.14ZM132.9,163.52c-.79,0-1.44.71-1.44,1.58s.64,1.58,1.44,1.58,1.44-.71,1.44-1.58-.64-1.58-1.44-1.58ZM138.38,163.84c.47,1.51.95,3.08,3.08,4.18-3.3,1.68-3.93,4.52-3.43,8.15l-.77-.52c.71-3.26,1.24-6.97,1.13-11.81h0ZM132.9,164.21c.45,0,.81.4.81.88s-.36.88-.81.88-.81-.4-.81-.88.36-.88.81-.88ZM132.48,168.19c1.25,0,2.26,1.11,2.26,2.47,0,.86-.4,1.63-1.02,2.07l-.73-.6c.54-.23.92-.8.92-1.47,0-.87-.64-1.58-1.44-1.58s-1.37.64-1.43,1.45l-.73-.6c.28-1.01,1.15-1.75,2.16-1.75ZM142.78,168.5c1.08,0-.6,3.28-2.13,4.17-1.17.68-2.24.73-2.24.11,0-1.63,2.73-4.29,4.37-4.28ZM132.48,169.78c.45,0,.81.4.81.88s-.36.88-.81.88c-.44-.05-.8-.43-.81-.88,0-.49.36-.88.81-.88ZM142.43,172.76c.53,0,1.06.26,1.28.75.29.63.18,1.2-.35,1.77-1.3,1.41-3.07-.04-2.22-1.82.23-.48.76-.72,1.29-.71h0ZM138.27,174.09c1.81.06,3.18,2.53,2.86,3.93-.29.37-2.28-1.29-2.5-1.46-.26-.49-.27-1.3-.36-2.47ZM135.8,175.62c1.93,1.42,3.83,2.68,5.68,3.74l-5.66,3.98v-7.72ZM85.24,177.47l30.5.12v1.4s-31.33.02-31.33.02l.83-1.55h0ZM84,179.66h2.05v2.74h-2.81v-1.51l.76-1.23ZM113.3,179.73h2.47v2.74h-2.47v-2.74ZM89.1,179.75h2.81v2.74h-2.81v-2.74ZM94.94,179.77h3.03v2.74h-3.03v-2.74ZM101.14,179.77h2.92v2.74h-2.92v-2.74ZM107.38,179.82h2.78v2.74h-2.78v-2.74ZM81.98,183.19l33.83.09v1.64l-34.79-.09.97-1.64ZM110.84,186.64c3.44-.04,5.45,4.17,2.76,7.12-2.47,2.72-6.6-.75-4.54-3.81,1.15-1.71,3.98-.33,3.27,1.49-.46,1.2-1.99.64-1.94-.66,0-.52-.35-.16-.39.39-.05.7.61,1.48,1.37,1.48,2,0,2.3-2.9.37-3.96-1.72-.95-3.53.26-3.95,2.67-.05.26-.33.92-.55,1.39-.64,1.4-.84,2.21-1.16,3.81-.15.2-.59.52-.9.69-.98.54-.94.31-.57-1.44,1.06-5.04,2.79-8.28,4.9-8.94.46-.14.9-.22,1.33-.22h0ZM121.03,186.91c2.13-.05,3.73,1.87,4.01,3.35,1.22,4.51-4.24,7.27-6.15,3.19-1.06-2.34,1.14-5.12,3.16-4.04,1.65.89,1.55,3.65-.14,3.64-.92.05-1.48-.86-.97-1.58.26-.29.58-.06.71-.54.06-.2-.2-.36-.83-.22-1.04.23-.93,2.52.27,2.98,1.79.68,3.32-1.39,2.47-3.44-1.03-2.46-3.8-2.47-5.07.1-.18.37-.47.91-.63,1.15-1.89,2.81-2.04,3.24-2.61,4.8-.06.16-.16.27-.33.25-.52,0-1.03.12-1.38.27-.24-.07.08-1.06.1-1.13,1.29-4.36,4.6-8.68,7.39-8.79ZM104.55,188.13c-.45.86-1.8,3.64-2.73,7.75-.25-.17-.91-.47-1.39-.65-.18-.07-.03-.3-.05-.65.34-1.86,1.43-5.1,2.64-6.75.26-.21,1.9-.27,1.53.3h0ZM106.48,188.95c-1.15,1.62-2.36,5.91-2.61,8.12-.04.33-.09.71-.13.82-.18.66-1.31-.76-1.31-1.64,0-1.5,1.52-6.05,2.6-7.79.38-.61.42-.71,1.23-.74,1.29-.04.72.51.22,1.23h0ZM50,187.89c-.29,0-.57.05-.85.12-1.67.45-3.67,2.4-3.86,4.46-.09.06-.32,1.5-.17,2.23.55,2.77,2.03,4.64,3.83,7.38,0,0-2.26,3.85-3.82,5.62l3.68,5.83c-1.02,2.2-2.78,3.86-3.23,6.58-.69,3.57,1.01,7.06,4.65,7.38,2.71.09,4.49-1.92,4.83-4.96.14-2.02-.62-4.56-3.35-8.56-.14-.2-.4-.61-.4-.61,0,0,.31-.39.47-.66.96-1.42,3.46-4.9,3.46-4.9l-3.74-5.8s.16-.39.45-.82c3.05-4.56,3.62-6.88,3.08-9.15-.21-.89-.72-1.58-1.41-2.34-1.11-1.23-2.38-1.83-3.62-1.79h0ZM49.91,188.45c1.19-.02,2.42.5,3.42,1.65,2.29,2.63,2.09,4.86-.89,9.72-.65,1.07-1.3,2.24-1.3,2.24l3.76,5.69c-1.23,1.91-2.64,3.61-3.93,5.62.65,1.1,1.71,2.27,2.38,3.59.8,1.49,1.28,2.98,1.42,4.34.3,2.86-1.4,5.92-4.31,5.99-2.82.02-4.97-2.55-4.91-5.79.03-1.44.57-2.77,1.23-4.07.68-1.32,2.26-3.89,2.26-3.89l-3.64-5.82,3.86-5.64s-2.81-3.76-3.67-6.47c-.7-3.08.61-4.84.79-5.1.85-1.32,2.16-2.04,3.51-2.06h0ZM47.53,196.62c.56,1.6,1.47,2.79,2.5,3.92.96-1.22,2.02-2.83,2.61-4.37,2.82-7.4-8.07-8-5.11.45ZM49.99,199.81c-1.38-1.76-2.36-3.22-2.45-5.54-.15-4.6,5.34-4.08,5.06.03-.31,2.24-1.38,3.65-2.61,5.52ZM118,192.58c.11.65.68,1.74.63,2-.27.68-.66,1.02-1.2,2.14-.11.24-.06.29-.36.23-.29-.04-.79-.22-1.06-.3-.15-.05-.33-.14-.26-.35.52-1.31,1.1-2.87,2.24-3.71h0ZM108.9,194.56l-.65,1.83c-.06.2-.07.23-.26.19-.37-.05-.69-.08-1.06-.05-.8-.11.71-3.38.93-3.88.33.06.81,1.46,1.03,1.91h0ZM109.51,194.99s.03,0,.04,0c.33.05.82.24,1.18.41.2.09.21.1.12.37-.19.4-.41,1.57-.66,1.97,0,.06-1.14-.74-1.46-.89-.01-.22.36-1.81.78-1.87ZM119.12,195.2c.37.01.84.39,1.09.6.12.26.01.52-.41,1.31-.37.7-.75,1.45-.85,1.37-.28-.24-.8-.55-1.06-.94-.19-.29.17-1.03.42-1.43.39-.64.58-.87.8-.91ZM113.01,195.11c.35.09-.2,2.04-.31,2.29-.33.54-.84,1.24-1.24,1.53-.21.15-.84-.27-.83-.76.01-.35.62-2.1.82-2.57.03-.07,1.17-.48,1.56-.49h0ZM98.86,195.86c.08,0,.16,0,.23,0,1.36-.04,2.76.69,3.64,2.34.42.78.42.81.33,1.54-.23,1.71-.15,2.85.26,3.9.47,1.19.4,1.6-.75,4.25-1.15,2.67-2.54,5.92-3.6,8.93-.47,1.29-.9,2.75-1.17,3.95-.18.75-1.02.53-1.85.49-.42.1.61-3.03,2.15-6.77,1.23-3,2.91-6.37,3.57-9.73.54-2.73.37-3.86.07-5.01-1.15-3.34-5.16-2.52-5.15.56.09,1.99,2.19,3.06,2.96,1.11.13-.9-.28-.38-.62.06-.73.94-1.97-.1-1.78-1.48.26-1.81,2.39-2.41,3.43-.97,1.13,1.57.88,3.19-.75,4.4-1.68,1.35-3.21.58-4.05-.82-1.79-3.16.66-6.66,3.07-6.74h0ZM107.19,197.18c1.67.04,3.48,1.57,3.78,2.78.16.82-.08,1.79.18,2.59.22.64.44,1.01.28,1.57-1.37,4.85-4.62,10.01-6.22,15.75-.19.4-.35.45-.77.58-.64.2-.89.18-.96-.19-.06-.35.15-1.01.52-2.25.45-1.49,1.44-4.04,2.02-5.23,1.36-2.79,2.11-4.7,3.1-7.08.18-.45.24-.71.52-1.35,1.24-2.76-.16-5.47-2.73-5.49-2.04-.01-2.95,3.48-1.16,4.5,1.74,1,3.04-1.63,1.49-2.55-.37-.22-.47-.01-.17.38.69.91.07,2.13-.89,1.64-1.49-.75-.72-3.53,1.01-3.37,2.68.25,3.03,4.52.3,5.6-3.76,1.49-5.73-5.14-2.19-7.37.59-.37,1.24-.53,1.89-.52h0ZM115.1,197.32c.99-.03,2.03.36,2.88,1.26,2.1,2.21,1.54,5.62-2.01,12.22-1.16,2.21-2.3,4.87-2.92,6.81-.15.48-.28.73-.63.94-.62.37-1.31.42-1.4.16-.23-.67,1.53-4.84,4.66-11.38.82-1.74,1.86-3.77,1.81-5.85-.21-1.65-1.46-2.83-3.13-2.3-1.13.36-1.59,2.11-.76,2.98.35.37.77.56,1.05.53.52.02,1.11-.54.1-.61-1.06,0-1.43-1.47-.53-2.13,1.29-.95,2.77.17,2.67,2.02-.22,3.72-5.17,3.16-5.3-.67-.08-2.37,1.62-3.93,3.51-3.98h0ZM101.11,203.26c.75-.06-.54,4.35-2.79,9.31-1.23,2.74-2.16,5.69-3.11,8.56-.26.38-1.81.45-1.81.06,2.75-9.66,4.7-11.32,5.64-15,.16-.64.28-1.55.31-1.63.7-.22,1.28-1.13,1.77-1.3ZM50.17,203.91l-2.92,4.16,2.85,4.42,2.96-4.23-2.89-4.36ZM113.3,205.2c0,.5-.88,2.9-1.53,4.34-2.86,6.31-3.57,8.01-4.06,9.7-.09.3-.23.5-.41.58-.36.15-1.35.35-1.43.21.6-3.69,5.23-12.08,6.12-15.76.36-.02,1.28.58,1.31.94h0ZM115.58,204.82c.19-.02.27.07.22.35-.09.46-.59,1.53-1.46,3.4-2.41,5.18-3.67,8.25-4.07,9.82-.09.37-.15.66-.31.75-.33.19-1.49.7-1.54.15.36-2.34,1.77-3.86,5.41-13.63.17-.32.32-.48.48-.51.45-.08.84-.31,1.28-.35h0ZM105.72,206.42c-.09.6-.72,1.87-1.76,4.2-1.73,3.88-2.86,6.77-3.54,9.34-.11.42-.26.85-.41.97-.28.21-1.55.15-1.55.15-.19-1.06,1.33-5.02,3.03-9.18.92-2.26,2-4.52,2.71-6.55.49.08,1.44.6,1.51,1.07ZM108.29,205.42c.51,0,.12.94-1.12,3.61-1,2.16-2.59,5.2-3.62,8.69-.27.77-.58,1.72-.7,2.12-.15.52-.29.77-.49.88-.37.2-1.27.19-1.43-.02-.25-.34,1.08-4.26,2.38-7.28,1.14-2.53,1.95-4.57,2.94-6.91.27-.47.28-.5.56-.56.57-.05,1.16-.47,1.48-.54h0ZM50.22,205.92l1.5,2.2-1.76,2.4-1.47-2.34,1.73-2.26ZM49.99,215.41s-.64.8-1.29,2.08c-1.92,3.5-1.97,6.08.29,7.61.95.53,2.2.42,2.98-.33,2.56-2.45.66-5.81-1-8.09-.44-.67-.99-1.26-.99-1.26ZM50.09,216.31c.96,1.24,1.66,2.17,2.3,3.73.74,2.1.26,3.74-1.16,4.52-2.25,1.22-4.3-1.52-3.23-4.46.79-2.17,2.09-3.79,2.09-3.79ZM113.14,220.45c.21.44-21.43,5.92-37.4,1.22l-9.71,15.4,56.09-.11-8.97-16.51ZM112.32,221.54s5.21,9.88,7.77,14.73h-3.6l-5.13-12.02c-2.74.84-5.44,1.44-8.19,1.82l1.82,10.2h-2.69l-1.52-9.74c-3.93.33-7.93.46-12.02.33l-1.76,9.41h-2.82l1.81-9.35c-3.1-.46-6.19-.89-9.34-1.46l-5.28,10.81h-3.98l8.29-13.56c12.38,2.72,23.8,2.08,36.62-1.16h0ZM110.36,226.85l4.07,9.42h-7.7l-1.42-8.4,5.05-1.02ZM77.4,227.53l6.73.96-1.74,7.78h-9.09l4.1-8.73ZM99.37,228.69l.92,7.57h-11.6l1.29-7.43,9.38-.15Z"/>
      </g>
      <g id="Center_Symbols_J" data-name="Center Symbols J">
        <use width="26.08" height="32.54" transform="translate(49.37 40.39)" xlink:href="#Spade"/>
        <use width="26.08" height="32.54" transform="translate(147.91 228.89) rotate(-180)" xlink:href="#Spade"/>
      </g>
      <g id="Corner_Symbols_J" data-name="Corner Symbols J">
        <use width="26.08" height="32.54" transform="translate(20.67 46.74) scale(.5)" xlink:href="#Spade"/>
        <use width="26.08" height="32.54" transform="translate(176.61 222.54) rotate(-180) scale(.5)" xlink:href="#Spade"/>
      </g>
    </g>
    <g id="Spade_Corner_Characters" data-name="Spade Corner Characters">
      <g>
        <use width="14" height="33.12" transform="translate(176.51 254.75) rotate(-180)" xlink:href="#Black_J"/>
        <use width="14" height="33.12" transform="translate(20.77 14.53)" xlink:href="#Black_J"/>
      </g>
    </g>
  </g>
  <g id="Clubs">
    <g id="Club_Corner_Characters" data-name="Club Corner Characters">
      <use width="181" height="253" transform="translate(8.14 8.14)" xlink:href="#boundary"/>
    </g>
  </g>
</svg>